<?xml version="1.0" encoding="utf-8"?>
<!-- Generator: Adobe Illustrator 24.3.0, SVG Export Plug-In . SVG Version: 6.00 Build 0)  -->
<svg version="1.1" id="Camada_1" xmlns="http://www.w3.org/2000/svg" xmlns:xlink="http://www.w3.org/1999/xlink" x="0px" y="0px"
	 viewBox="0 0 271.9 271.8" style="enable-background:new 0 0 271.9 271.8;" xml:space="preserve">
<style type="text/css">
	.st0{display:none;fill:#FFFFFF;stroke:#000000;stroke-miterlimit:10;}
	.st1{fill:#A82BBA;}
	.st2{fill:#2BAF86;}
	.st3{opacity:0.9;fill:url(#SVGID_1_);enable-background:new    ;}
	.st4{fill:#8A8F91;}
	.st5{fill:#B4BFC1;}
	.st6{fill:#A7A8A8;}
	.st7{fill:#C8CDCE;}
	.st8{fill:#535956;}
	.st9{fill:#A0A6A8;}
	.st10{fill:#A4A4A5;}
	.st11{fill:#455A64;}
	.st12{fill:#263238;}
	.st13{fill:#BA68C8;}
	.st14{opacity:0.3;fill:#FFFFFF;enable-background:new    ;}
	.st15{opacity:0.6;fill:#FFFFFF;enable-background:new    ;}
	.st16{opacity:0.8;fill:#FFFFFF;enable-background:new    ;}
	.st17{fill:#FFFFFF;}
	.st18{clip-path:url(#SVGID_3_);}
	.st19{fill:#FFA8A7;}
	.st20{fill:#FAFAFA;}
	.st21{fill:#F28F8F;}
	.st22{clip-path:url(#SVGID_5_);}
	.st23{fill:#B16668;}
	.st24{fill:#37474F;}
	.st25{fill:#9A4A4D;}
	.st26{opacity:0.1;enable-background:new    ;}
	.st27{opacity:0.5;fill:#FFFFFF;enable-background:new    ;}
	.st28{clip-path:url(#SVGID_7_);}
	.st29{fill:#C1BD3A;}
	.st30{fill:#F4F447;}
</style>
<rect x="0.1" y="-628.1" class="st0" width="900" height="900"/>
<rect x="89" y="-539.2" class="st0" width="722.1" height="722.1"/>
<g>
	<path class="st1" d="M263,132.6h8.8C270,59,209.9,0,135.9,0v8.8C205,8.8,261.2,63.9,263,132.6z"/>
	<path class="st2" d="M135.9,8.8V0C61.9,0,1.8,59.1,0.1,132.6h8.8C10.6,63.9,66.8,8.8,135.9,8.8z"/>
	<path class="st1" d="M8.8,135.9c0-1.1,0-2.2,0.1-3.3H0.1c0,1.1-0.1,2.2-0.1,3.3c0,75.1,60.9,135.9,135.9,135.9V263
		C65.7,263,8.8,206.1,8.8,135.9z"/>
	<path class="st2" d="M263,132.6c0,1.1,0.1,2.2,0.1,3.3c0,70.2-56.9,127.1-127.1,127.1v8.8c75.1,0,135.9-60.9,135.9-135.9
		c0-1.1,0-2.2-0.1-3.3L263,132.6L263,132.6z"/>
	
		<radialGradient id="SVGID_1_" cx="135.8867" cy="79.8716" r="127.0899" gradientTransform="matrix(1 0 0 1 0 56)" gradientUnits="userSpaceOnUse">
		<stop  offset="1.784687e-02" style="stop-color:#FFFFFF"/>
		<stop  offset="0.1839" style="stop-color:#D4C4DC"/>
		<stop  offset="0.3775" style="stop-color:#A686B7"/>
		<stop  offset="0.5548" style="stop-color:#82559A"/>
		<stop  offset="0.7095" style="stop-color:#693185"/>
		<stop  offset="0.8356" style="stop-color:#591C78"/>
		<stop  offset="0.9173" style="stop-color:#531473"/>
	</radialGradient>
	<path class="st3" d="M263,132.6C261.2,63.9,205,8.8,135.9,8.8S10.6,63.9,8.8,132.6c0,1.1-0.1,2.2-0.1,3.3
		C8.8,206.1,65.7,263,135.9,263s127.1-56.9,127.1-127.1C263,134.8,263,133.7,263,132.6z"/>
</g>
<g>
	<g id="freepik--Device--inject-80">
		<g id="freepik--Laptop--inject-80">
			<path class="st4" d="M40.9,200.8c0,1.8,1.4,4.1,3,5l66.1,38.1c1.9,1,4.1,1,6.1,0l116.3-67.2c1.7-1,3-3.2,3-5c0-1.8-1.4-4.1-3-5
				l-66.1-38.1c-1.9-1-4.1-1-6.1,0L43.9,195.8C42.2,196.7,40.9,199,40.9,200.8z"/>
			<path class="st5" d="M43.9,199.3l66.1,38.1c1.9,1,4.1,1,6.1,0l116.3-67.1c1.7-1,1.7-2.5,0-3.5l-66.1-38.2c-1.9-1-4.1-1-6.1,0
				L43.9,195.8C42.2,196.7,42.2,198.3,43.9,199.3z"/>
			<path class="st6" d="M113,238.2v6.6c-1.1,0-2.1-0.2-3-0.7l-66.1-38.2c-1.7-1-3-3.2-3-5c0-1.7,1.2-3.8,2.7-4.8
				c-1.4,1-1.3,2.4,0.3,3.3l66.1,38.1C110.9,237.9,111.9,238.2,113,238.2z"/>
			<path class="st7" d="M163.3,32.1v91.2c-0.1,2.1-1.2,4.1-3,5.3L43.9,195.8c-0.1,0.1-0.2,0.1-0.4,0.2h0l-0.2,0.1
				c-1.7,0.6-3.7,0.4-5.2-0.6c-1.5-1.1-1.6-1.9-1.6-3.9v-91.3c0.1-2.1,1.2-4.1,3-5.3l116.3-67.2c1.7-1,4.3-1,5.9-0.1
				C163.3,28.6,163.3,30.2,163.3,32.1z"/>
			<path class="st4" d="M163.3,32.1c0-1.9-1.4-2.7-3-1.8L43.9,97.5c-0.9,0.5-1.6,1.4-2.2,2.3l-4.3-2.5l0,0c0.5-0.9,1.3-1.7,2.2-2.3
				l116.3-67.2c1.7-1,4.3-1,5.9-0.1C163.4,28.6,163.3,30.2,163.3,32.1z"/>
			<path class="st6" d="M43.5,196l-0.2,0.1c-1.7,0.6-3.7,0.4-5.2-0.6c-1.5-1.1-1.6-1.9-1.6-3.9v-91.3c0-1.1,0.3-2.1,0.9-3l4.3,2.5
				l0,0c-0.5,0.9-0.8,1.9-0.9,3V194C40.9,195.8,42,196.6,43.5,196z"/>
			<path class="st8" d="M45.5,101l112.1-64.7c1-0.6,1.8-0.1,1.8,1.1v82.2c-0.1,1.3-0.8,2.4-1.8,3.2L45.5,187.5
				c-1,0.6-1.8,0.1-1.8-1.1v-82.2C43.8,102.9,44.5,101.7,45.5,101z"/>
			<path class="st9" d="M52.3,196l108-62.3c1-0.5,2.1-0.5,3,0l1.8,1c0.8,0.5,0.8,1.3,0,1.8l-108,62.3c-1,0.5-2.1,0.5-3,0l-1.8-1
				C51.4,197.2,51.4,196.4,52.3,196z"/>
			<path class="st10" d="M60.8,201l108-62.3c0.8-0.5,1.9-0.5,2.8-0.2l28.1,16.2c0.7,0.4,0.6,1.1-0.3,1.6L91.5,218.6
				c-0.8,0.5-1.9,0.5-2.8,0.2l-28.2-16.2C59.8,202.2,59.9,201.5,60.8,201z"/>
			<path class="st11" d="M154.3,164.9l3.4-2c0.2-0.1,0.2-0.2,0-0.3l-3.2-1.8c-0.2-0.1-0.3-0.1-0.5,0l-3.4,2c-0.2,0.1-0.2,0.2,0,0.3
				l3.2,1.9C153.9,164.9,154.2,164.9,154.3,164.9z M149.4,158.1l-3.4,2c-0.2,0.1-0.2,0.2,0,0.3l3.2,1.8c0.2,0.1,0.3,0.1,0.5,0l3.4-2
				c0.2-0.1,0.2-0.2,0-0.3l-3.2-1.9C149.8,158,149.5,158,149.4,158.1z M138.5,164.4l-5.7,3.3c-0.2,0.1-0.2,0.2,0,0.3l3.2,1.9
				c0.2,0.1,0.3,0.1,0.5,0l5.7-3.3c0.2-0.1,0.2-0.2,0-0.3l-3.2-1.8C138.8,164.3,138.6,164.3,138.5,164.4z M144.5,160.9l-3.4,2
				c-0.2,0.1-0.2,0.2,0,0.3l3.2,1.9c0.2,0.1,0.3,0.1,0.5,0l3.4-2c0.2-0.1,0.2-0.2,0-0.3l-3.2-1.8
				C144.8,160.9,144.6,160.9,144.5,160.9L144.5,160.9z M131.2,168.6l-3.4,2c-0.2,0.1-0.2,0.2,0,0.3l3.2,1.8c0.2,0.1,0.3,0.1,0.5,0
				l3.4-2c0.2-0.1,0.2-0.2,0-0.3l-3.2-1.9C131.6,168.5,131.4,168.5,131.2,168.6L131.2,168.6z M126.3,171.4l-3.4,2
				c-0.2,0.1-0.2,0.2,0,0.3l3.2,1.9c0.2,0.1,0.3,0.1,0.5,0l3.4-2c0.2-0.1,0.2-0.2,0-0.3l-3.2-1.8
				C126.6,171.3,126.4,171.3,126.3,171.4L126.3,171.4z M138.9,179l3.4-2c0.2-0.1,0.2-0.2,0-0.3l-3.2-1.9c-0.2-0.1-0.3-0.1-0.5,0
				l-3.4,1.9c-0.2,0.1-0.2,0.2,0,0.3l3.2,1.8C138.6,179.1,138.8,179.1,138.9,179L138.9,179z M134,181.9l3.4-2c0.2-0.1,0.2-0.2,0-0.3
				l-3.2-1.8c-0.2-0.1-0.3-0.1-0.5,0l-3.4,2c-0.2,0.1-0.2,0.2,0,0.3l3.2,1.8C133.6,182,133.8,182,134,181.9z M129,184.8l3.4-2
				c0.2-0.1,0.2-0.2,0-0.3l-3.2-1.8c-0.2-0.1-0.3-0.1-0.5,0l-3.4,2c-0.2,0.1-0.2,0.2,0,0.3l3.2,1.9
				C128.7,184.8,128.9,184.8,129,184.8L129,184.8z M124.1,187.6l3.4-2c0.2-0.1,0.2-0.2,0-0.3l-3.2-1.9c-0.2-0.1-0.3-0.1-0.5,0
				l-3.4,1.9c-0.2,0.1-0.2,0.2,0,0.3l3.2,1.8C123.8,187.7,123.9,187.7,124.1,187.6z M149.4,167.7l3.4-2c0.2-0.1,0.2-0.2,0-0.3
				l-3.2-1.9c-0.2-0.1-0.3-0.1-0.5,0l-3.4,2c-0.2,0.1-0.2,0.2,0,0.3l3.2,1.8C149.1,167.8,149.2,167.8,149.4,167.7L149.4,167.7z
				 M143.9,176.2l7.5-4.3c0.2-0.1,0.2-0.2,0-0.3l-7.9-4.6c-0.2-0.1-0.3-0.1-0.5,0l-3.9,2.2c-0.2,0.1-0.2,0.2,0,0.3l4.1,2.4
				c0.1,0.1,0.1,0.2,0,0.3l-3.1,1.8c-0.2,0.1-0.2,0.2,0,0.3l3.2,1.9C143.5,176.3,143.7,176.3,143.9,176.2z M121.3,174.3l-3.4,2
				c-0.2,0.1-0.2,0.2,0,0.3l3.2,1.8c0.2,0.1,0.3,0.1,0.5,0l3.4-2c0.2-0.1,0.2-0.2,0-0.3l-3.2-1.9
				C121.6,174.2,121.4,174.2,121.3,174.3L121.3,174.3z M116.4,177.1l-3.4,2c-0.2,0.1-0.2,0.2,0,0.3l3.2,1.8c0.2,0.1,0.3,0.1,0.5,0
				l3.4-2c0.2-0.1,0.2-0.2,0-0.3l-3.2-1.8C116.7,177.1,116.5,177.1,116.4,177.1L116.4,177.1z M89,207.6c0.2,0.1,0.3,0.1,0.5,0l3.4-2
				c0.2-0.1,0.2-0.2,0-0.3l-3.2-1.8c-0.2-0.1-0.3-0.1-0.5,0l-3.4,1.9c-0.2,0.1-0.2,0.2,0,0.3L89,207.6z M76.8,200l-3.4,2
				c-0.2,0.1-0.2,0.2,0,0.3l3.2,1.8c0.2,0.1,0.3,0.1,0.5,0l3.4-2c0.2-0.1,0.2-0.2,0-0.3l-3.2-1.8C77.2,199.9,77,199.9,76.8,200
				L76.8,200z M83.1,205.7c0.2,0.1,0.3,0.1,0.5,0l3.4-2c0.2-0.1,0.2-0.2,0-0.3l-3.2-1.8c-0.2-0.1-0.3-0.1-0.5,0l-3.4,1.9
				c-0.2,0.1-0.2,0.2,0,0.3L83.1,205.7z M96.7,208.8l3.4-2c0.2-0.1,0.2-0.2,0-0.3l-3.2-1.9c-0.2-0.1-0.3-0.1-0.5,0l-3.4,2
				c-0.2,0.1-0.2,0.2,0,0.3l3.2,1.8C96.4,208.8,96.6,208.8,96.7,208.8L96.7,208.8z M91.3,211.6c0.2,0.1,0.3,0.1,0.5,0l3.4-2
				c0.2-0.1,0.2-0.2,0-0.3l-3.2-1.8c-0.2-0.1-0.3-0.1-0.5,0l-3.4,2c-0.2,0.1-0.2,0.2,0,0.3L91.3,211.6z M81.8,197.1l-3.4,2
				c-0.2,0.1-0.2,0.2,0,0.3l3.2,1.8c0.2,0.1,0.3,0.1,0.5,0l3.4-2c0.2-0.1,0.2-0.2,0-0.3l-3.2-1.9C82.1,197,81.9,197,81.8,197.1
				L81.8,197.1z M106.5,182.9l-3.4,2c-0.2,0.1-0.2,0.2,0,0.3l3.2,1.8c0.2,0.1,0.3,0.1,0.5,0l3.4-2c0.2-0.1,0.2-0.2,0-0.3l-3.2-1.9
				C106.8,182.7,106.6,182.7,106.5,182.9L106.5,182.9z M86.7,194.3l-3.4,2c-0.2,0.1-0.2,0.2,0,0.3l3.2,1.9c0.2,0.1,0.3,0.1,0.5,0
				l3.4-2c0.2-0.1,0.2-0.2,0-0.3l-3.2-1.8C87,194.2,86.9,194.2,86.7,194.3L86.7,194.3L86.7,194.3z M111.4,180l-3.4,2
				c-0.2,0.1-0.2,0.2,0,0.3l3.2,1.9c0.2,0.1,0.3,0.1,0.5,0l3.4-2c0.2-0.1,0.2-0.2,0-0.3l-3.2-1.8C111.8,179.9,111.6,179.9,111.4,180
				z M101.5,185.7l-3.4,2c-0.2,0.1-0.2,0.2,0,0.3l3.2,1.8c0.2,0.1,0.3,0.1,0.5,0l3.4-2c0.2-0.1,0.2-0.2,0-0.3l-3.2-1.8
				C101.9,185.6,101.7,185.6,101.5,185.7z M96.6,188.6l-3.4,2c-0.2,0.1-0.2,0.2,0,0.3l3.2,1.8c0.2,0.1,0.3,0.1,0.5,0l3.4-2
				c0.2-0.1,0.2-0.2,0-0.3l-3.2-1.8C97,188.5,96.7,188.5,96.6,188.6L96.6,188.6z M91.7,191.4l-3.4,2c-0.2,0.1-0.2,0.2,0,0.3l3.2,1.8
				c0.2,0.1,0.3,0.1,0.5,0l3.4-2c0.2-0.1,0.2-0.2,0-0.3l-3.2-1.9C92,191.3,91.8,191.3,91.7,191.4z M114.2,193.3l3.4-2
				c0.2-0.1,0.2-0.2,0-0.3l-3.2-1.9c-0.2-0.1-0.3-0.1-0.5,0l-3.4,2c-0.2,0.1-0.2,0.2,0,0.3l3.2,1.8
				C113.9,193.4,114,193.4,114.2,193.3z M160.3,151.8l-3.4,2c-0.2,0.1-0.2,0.2,0,0.3l3.2,1.8c0.2,0.1,0.3,0.1,0.5,0l3.4-2
				c0.2-0.1,0.2-0.2,0-0.3l-3.2-1.8C160.7,151.7,160.5,151.7,160.3,151.8z M154.3,155.2l-3.4,2c-0.2,0.1-0.2,0.2,0,0.3l3.2,1.9
				c0.2,0.1,0.3,0.1,0.5,0l3.4-2c0.2-0.1,0.2-0.2,0-0.3l-3.2-1.8C154.6,155.1,154.5,155.2,154.3,155.2L154.3,155.2z M165.3,148.9
				l-3.4,1.9c-0.2,0.1-0.2,0.2,0,0.3l3.2,1.8c0.2,0.1,0.3,0.1,0.5,0l3.4-2c0.2-0.1,0.2-0.2,0-0.3l-3.2-1.9
				C165.6,148.8,165.4,148.8,165.3,148.9z M137.9,174.3l3.4-2c0.2-0.1,0.2-0.2,0-0.3l-3.2-1.9c-0.2-0.1-0.3-0.1-0.5,0l-3.4,2
				c-0.2,0.1-0.2,0.2,0,0.3l3.2,1.8C137.6,174.4,137.8,174.4,137.9,174.3L137.9,174.3z M170.7,146.1c-0.2-0.1-0.3-0.1-0.5,0l-3.4,2
				c-0.2,0.1-0.2,0.2,0,0.3l3.2,1.9c0.2,0.1,0.3,0.1,0.5,0l3.4-2c0.2-0.1,0.2-0.2,0-0.3L170.7,146.1z M119.2,190.5l3.4-2
				c0.2-0.1,0.2-0.2,0-0.3l-3.2-1.8c-0.2-0.1-0.3-0.1-0.5,0l-3.4,2c-0.2,0.1-0.2,0.2,0,0.3l3.2,1.9
				C118.9,190.6,119,190.6,119.2,190.5L119.2,190.5z M179.7,155.5l3.4-2c0.2-0.1,0.2-0.2,0-0.3l-3.2-1.8c-0.2-0.1-0.3-0.1-0.5,0
				l-3.4,2c-0.2,0.1-0.2,0.2,0,0.3l3.2,1.8C179.4,155.5,179.6,155.5,179.7,155.5L179.7,155.5z M170.2,155.7l3.4-2
				c0.2-0.1,0.2-0.2,0-0.3l-3.2-1.8c-0.2-0.1-0.3-0.1-0.5,0l-3.4,2c-0.2,0.1-0.2,0.2,0,0.3l3.2,1.9
				C169.9,155.8,170,155.8,170.2,155.7L170.2,155.7z M175.3,148.7c-0.2-0.1-0.3-0.1-0.5,0l-3.4,2c-0.2,0.1-0.2,0.2,0,0.3l3.2,1.8
				c0.2,0.1,0.3,0.1,0.5,0l3.4-2c0.2-0.1,0.2-0.2,0-0.3L175.3,148.7z M176.3,148.1l7.9,4.6c0.2,0.1,0.3,0.1,0.5,0l3.4-2
				c0.2-0.1,0.2-0.2,0-0.3l-7.9-4.5c-0.2-0.1-0.3-0.1-0.5,0l-3.4,2C176.2,147.9,176.2,148.1,176.3,148.1L176.3,148.1L176.3,148.1z
				 M164.9,154.4l-3.4,2c-0.2,0.1-0.2,0.2,0,0.3l3.2,1.8c0.2,0.1,0.3,0.1,0.5,0l3.4-2c0.2-0.1,0.2-0.2,0-0.3l-3.2-1.9
				C165.3,154.3,165.1,154.3,164.9,154.4L164.9,154.4z M127.8,175.9l-3.4,2c-0.2,0.1-0.2,0.2,0,0.3l3.2,1.8c0.2,0.1,0.3,0.1,0.5,0
				l3.4-2c0.2-0.1,0.2-0.2,0-0.3l-3.2-1.9C128.1,175.8,127.9,175.8,127.8,175.9L127.8,175.9L127.8,175.9z M174.3,158.3
				c0.2,0.1,0.3,0.1,0.5,0l3.4-2c0.2-0.1,0.2-0.2,0-0.3l-3.2-1.9c-0.2-0.1-0.3-0.1-0.5,0l-3.4,2c-0.2,0.1-0.2,0.2,0,0.3L174.3,158.3
				z M132.7,173l-3.4,2c-0.2,0.1-0.2,0.2,0,0.3l3.2,1.9c0.2,0.1,0.3,0.1,0.5,0l3.4-2c0.2-0.1,0.2-0.2,0-0.3l-3.2-1.8
				C133,173,132.8,173,132.7,173L132.7,173L132.7,173L132.7,173z M94,204.8c0.2,0.1,0.3,0.1,0.5,0l3.4-2c0.2-0.1,0.2-0.2,0-0.3
				l-3.2-1.8c-0.2-0.1-0.3-0.1-0.5,0l-3.4,2c-0.2,0.1-0.2,0.2,0,0.3L94,204.8z M88.2,198.7l-3.4,2c-0.2,0.1-0.2,0.2,0,0.3l3.2,1.8
				c0.2,0.1,0.3,0.1,0.5,0l3.4-2c0.2-0.1,0.2-0.2,0-0.3l-3.2-1.9C88.6,198.7,88.4,198.7,88.2,198.7L88.2,198.7z M99.4,201.9l3.4-2
				c0.2-0.1,0.2-0.2,0-0.3l-3.2-1.9c-0.2-0.1-0.3-0.1-0.5,0l-3.4,2c-0.2,0.1-0.2,0.2,0,0.3l3.2,1.8C99.1,202,99.2,202,99.4,201.9
				L99.4,201.9z M104.3,199l3.4-2c0.2-0.1,0.2-0.2,0-0.3l-3.2-1.8c-0.2-0.1-0.3-0.1-0.5,0l-3.4,2c-0.2,0.1-0.2,0.2,0,0.3l3.2,1.9
				C104,199.1,104.2,199.1,104.3,199L104.3,199z M109.3,196.2l3.4-2c0.2-0.1,0.2-0.2,0-0.3l-3.2-1.8c-0.2-0.1-0.3-0.1-0.5,0l-3.4,2
				c-0.2,0.1-0.2,0.2,0,0.3l3.2,1.8C108.9,196.3,109.1,196.3,109.3,196.2L109.3,196.2z M93.1,195.9l-3.4,2c-0.2,0.1-0.2,0.2,0,0.3
				L93,200c0.2,0.1,0.3,0.1,0.5,0l3.4-2c0.2-0.1,0.2-0.2,0-0.3l-3.2-1.8C93.5,195.8,93.3,195.8,93.1,195.9L93.1,195.9z M98.1,193
				l-3.4,2c-0.2,0.1-0.2,0.2,0,0.3l3.2,1.8c0.2,0.1,0.3,0.1,0.5,0l3.4-2c0.2-0.1,0.2-0.2,0-0.3l-3.2-1.9
				C98.4,192.9,98.3,192.9,98.1,193L98.1,193z M117.9,181.6l-3.4,2c-0.2,0.1-0.2,0.2,0,0.3l3.2,1.9c0.2,0.1,0.3,0.1,0.5,0l3.4-1.9
				c0.2-0.1,0.2-0.2,0-0.3l-3.2-1.8C118.2,181.5,118,181.5,117.9,181.6L117.9,181.6z M112.9,184.5l-3.4,2c-0.2,0.1-0.2,0.2,0,0.3
				l3.2,1.8c0.2,0.1,0.3,0.1,0.5,0l3.4-2c0.2-0.1,0.2-0.2,0-0.3l-3.2-1.9C113.3,184.4,113.1,184.4,112.9,184.5L112.9,184.5z
				 M122.8,178.8l-3.4,2c-0.2,0.1-0.2,0.2,0,0.3l3.2,1.8c0.2,0.1,0.3,0.1,0.5,0l3.4-2c0.2-0.1,0.2-0.2,0-0.3l-3.2-1.8
				C123.1,178.7,123,178.7,122.8,178.8L122.8,178.8z M103.1,190.2l-3.4,2c-0.2,0.1-0.2,0.2,0,0.3l3.2,1.8c0.2,0.1,0.3,0.1,0.5,0
				l3.4-2c0.2-0.1,0.2-0.2,0-0.3l-3.2-1.8C103.4,190.1,103.2,190.1,103.1,190.2z M108,187.3l-3.4,2c-0.2,0.1-0.2,0.2,0,0.3l3.2,1.8
				c0.2,0.1,0.3,0.1,0.5,0l3.4-2c0.2-0.1,0.2-0.2,0-0.3l-3.2-1.8C108.3,187.2,108.1,187.2,108,187.3z M101.7,205.9l3.4-2
				c0.2-0.1,0.2-0.2,0-0.3l-3.2-1.8c-0.2-0.1-0.3-0.1-0.5,0l-3.4,2c-0.2,0.1-0.2,0.2,0,0.3l3.2,1.9C101.3,206,101.5,206,101.7,205.9
				z M75.6,204.7l-3.2-1.8c-0.2-0.1-0.3-0.1-0.5,0l-3.4,2c-0.2,0.1-0.2,0.2,0,0.3l3.2,1.9c0.2,0.1,0.3,0.1,0.5,0l3.4-1.9
				C75.8,204.9,75.8,204.8,75.6,204.7z M82.1,206.3l-3.2-1.8c-0.2-0.1-0.3-0.1-0.5,0l-5.2,3c-0.2,0.1-0.2,0.2,0,0.3l3.2,1.8
				c0.2,0.1,0.3,0.1,0.5,0l5.2-3C82.2,206.5,82.2,206.4,82.1,206.3L82.1,206.3z M70.8,201l-3.2-1.8c-0.2-0.1-0.3-0.1-0.5,0l-4.1,2.4
				c-0.2,0.1-0.2,0.2,0,0.3l3.2,1.9c0.2,0.1,0.3,0.1,0.5,0l4.1-2.4C70.9,201.2,70.9,201.1,70.8,201L70.8,201z M74,199.2
				c0.2,0.1,0.3,0.1,0.5,0l3.4-2c0.2-0.1,0.2-0.2,0-0.3l-3.2-1.9c-0.2-0.1-0.3-0.1-0.5,0l-3.4,2c-0.2,0.1-0.2,0.2,0,0.3L74,199.2z
				 M88,208.2l-3.2-1.9c-0.2-0.1-0.3-0.1-0.5,0l-6.5,3.7c-0.2,0.1-0.2,0.2,0,0.3l3.2,1.8c0.2,0.1,0.3,0.1,0.5,0l6.5-3.7
				C88.1,208.4,88.1,208.3,88,208.2z M90.3,212.2l-3.2-1.8c-0.2-0.1-0.3-0.1-0.5,0l-4.1,2.4c-0.2,0.1-0.2,0.2,0,0.3l3.2,1.9
				c0.2,0.1,0.3,0.1,0.5,0l4.2-2.4C90.4,212.5,90.4,212.3,90.3,212.2L90.3,212.2L90.3,212.2z M110.7,177.9c0.2,0.1,0.3,0.1,0.5,0
				l3.4-2c0.2-0.1,0.2-0.2,0-0.3l-3.2-1.9c-0.2-0.1-0.3-0.1-0.5,0l-3.4,2c-0.2,0.1-0.2,0.2,0,0.3L110.7,177.9z M100.9,183.6
				c0.2,0.1,0.3,0.1,0.5,0l3.4-2c0.2-0.1,0.2-0.2,0-0.3l-3.2-1.9c-0.2-0.1-0.3-0.1-0.5,0l-3.4,2c-0.2,0.1-0.2,0.2,0,0.3L100.9,183.6
				z M78.9,196.3c0.2,0.1,0.3,0.1,0.5,0l3.4-2c0.2-0.1,0.2-0.2,0-0.3l-3.2-1.8c-0.2-0.1-0.3-0.1-0.5,0l-3.4,2
				c-0.2,0.1-0.2,0.2,0,0.3L78.9,196.3z M105.8,180.8c0.2,0.1,0.3,0.1,0.5,0l3.4-2c0.2-0.1,0.2-0.2,0-0.3l-3.2-1.8
				c-0.2-0.1-0.3-0.1-0.5,0l-3.4,2c-0.2,0.1-0.2,0.2,0,0.3L105.8,180.8z M95.9,186.5c0.2,0.1,0.3,0.1,0.5,0l3.4-2
				c0.2-0.1,0.2-0.2,0-0.3l-3.2-1.9c-0.2-0.1-0.3-0.1-0.5,0l-3.4,2c-0.2,0.1-0.2,0.2,0,0.3L95.9,186.5z M92.7,212.5
				c-0.2-0.1-0.3-0.1-0.5,0l-5.2,3c-0.2,0.1-0.2,0.2,0,0.3l3.2,1.8c0.2,0.1,0.3,0.1,0.5,0l5.2-3c0.2-0.1,0.2-0.2,0-0.3L92.7,212.5z
				 M88.8,190.6c0.2,0.1,0.3,0.1,0.5,0l3.4-2c0.2-0.1,0.2-0.2,0-0.3l-3.2-1.9c-0.2-0.1-0.3-0.1-0.5,0l-3.4,2c-0.2,0.1-0.2,0.2,0,0.3
				L88.8,190.6z M83.8,193.5c0.2,0.1,0.3,0.1,0.5,0l3.4-2c0.2-0.1,0.2-0.2,0-0.3l-3.2-1.9c-0.2-0.1-0.3-0.1-0.5,0l-3.4,2
				c-0.2,0.1-0.2,0.2,0,0.3L83.8,193.5z M184.2,159.6c-0.2-0.1-0.3-0.1-0.5,0l-8.3,4.8c-0.2,0.1-0.2,0.2,0,0.3l3.2,1.9
				c0.2,0.1,0.3,0.1,0.5,0l8.3-4.8c0.2-0.1,0.2-0.2,0-0.3L184.2,159.6z M173.3,165.9c-0.2-0.1-0.3-0.1-0.5,0l-3.4,2
				c-0.2,0.1-0.2,0.2,0,0.3l3.2,1.8c0.2,0.1,0.3,0.1,0.5,0l3.4-2c0.2-0.1,0.2-0.2,0-0.3L173.3,165.9z M106.6,203.1l3.4-2
				c0.2-0.1,0.2-0.2,0-0.3l-3.2-1.8c-0.2-0.1-0.3-0.1-0.5,0l-3.4,2c-0.2,0.1-0.2,0.2,0,0.3l3.2,1.8
				C106.3,203.1,106.5,203.1,106.6,203.1z M163.4,171.6c-0.2-0.1-0.3-0.1-0.5,0l-3.4,2c-0.2,0.1-0.2,0.2,0,0.3l3.2,1.8
				c0.2,0.1,0.3,0.1,0.5,0l3.4-2c0.2-0.1,0.2-0.2,0-0.3L163.4,171.6z M189.2,156.7c-0.2-0.1-0.3-0.1-0.5,0l-3.4,2
				c-0.2,0.1-0.2,0.2,0,0.3l3.2,1.8c0.2,0.1,0.3,0.1,0.5,0l3.4-2c0.2-0.1,0.2-0.2,0-0.3L189.2,156.7z M197.3,155.7l-7.9-4.6
				c-0.2-0.1-0.3-0.1-0.5,0l-3.4,2c-0.2,0.1-0.2,0.2,0,0.3l7.9,4.6c0.2,0.1,0.3,0.1,0.5,0l3.4-2
				C197.4,155.9,197.5,155.8,197.3,155.7z M145,182.2c-0.2-0.1-0.3-0.1-0.5,0l-4.1,2.4c-0.2,0.1-0.2,0.2,0,0.3l3.2,1.8
				c0.2,0.1,0.3,0.1,0.5,0l4.2-2.4c0.2-0.1,0.2-0.2,0-0.3L145,182.2z M157.5,175c-0.2-0.1-0.3-0.1-0.5,0l-5.2,3
				c-0.2,0.1-0.2,0.2,0,0.3l3.2,1.9c0.2,0.1,0.3,0.1,0.5,0l5.2-3c0.2-0.1,0.2-0.2,0-0.3L157.5,175z M133.5,188.8
				c-0.2-0.1-0.3-0.1-0.5,0L105.2,205c-0.2,0.1-0.2,0.2,0,0.3l3.2,1.8c0.2,0.1,0.3,0.1,0.5,0l27.8-16.1c0.2-0.1,0.2-0.2,0-0.3
				L133.5,188.8z M104.1,205.8c-0.2-0.1-0.3-0.1-0.5,0l-4.2,2.4c-0.2,0.1-0.2,0.2,0,0.3l3.2,1.8c0.2,0.1,0.3,0.1,0.5,0l4.1-2.4
				c0.2-0.1,0.2-0.2,0-0.3L104.1,205.8z M139.2,185.5c-0.2-0.1-0.3-0.1-0.5,0l-4.1,2.4c-0.2,0.1-0.2,0.2,0,0.3l3.2,1.8
				c0.2,0.1,0.3,0.1,0.5,0l4.2-2.4c0.2-0.1,0.2-0.2,0-0.3L139.2,185.5z M98.4,209.1c-0.2-0.1-0.3-0.1-0.5,0l-4.1,2.4
				c-0.2,0.1-0.2,0.2,0,0.3l3.2,1.8c0.2,0.1,0.3,0.1,0.5,0l4.1-2.4c0.2-0.1,0.2-0.2,0-0.3L98.4,209.1z M150.7,178.9
				c-0.2-0.1-0.3-0.1-0.5,0l-4.1,2.4c-0.2,0.1-0.2,0.2,0,0.3l3.2,1.8c0.2,0.1,0.3,0.1,0.5,0l4.2-2.4c0.2-0.1,0.2-0.2,0-0.3
				L150.7,178.9z M168.4,168.7c-0.2-0.1-0.3-0.1-0.5,0l-3.4,2c-0.2,0.1-0.2,0.2,0,0.3l3.2,1.9c0.2,0.1,0.3,0.1,0.5,0l3.4-2
				c0.2-0.1,0.2-0.2,0-0.3L168.4,168.7z M179.4,161l3.4-2c0.2-0.1,0.2-0.2,0-0.3l-3.2-1.8c-0.2-0.1-0.3-0.1-0.5,0l-3.4,2
				c-0.2,0.1-0.2,0.2,0,0.3l3.2,1.8C179.1,161,179.3,161.1,179.4,161L179.4,161z M159.3,162l3.4-2c0.2-0.1,0.2-0.2,0-0.3l-3.2-1.8
				c-0.2-0.1-0.3-0.1-0.5,0l-3.4,2c-0.2,0.1-0.2,0.2,0,0.3l3.2,1.8C158.9,162,159.1,162,159.3,162L159.3,162L159.3,162z
				 M146.1,180.2l9.9-5.7c0.2-0.1,0.2-0.2,0-0.3l-3.2-1.8c-0.2-0.1-0.3-0.1-0.5,0l-9.9,5.7c-0.2,0.1-0.2,0.2,0,0.3l3.2,1.8
				C145.8,180.3,146,180.3,146.1,180.2L146.1,180.2z M174,163.9c0.2,0.1,0.3,0.1,0.5,0l3.4-2c0.2-0.1,0.2-0.2,0-0.3l-3.2-1.9
				c-0.2-0.1-0.3-0.1-0.5,0l-3.4,2c-0.2,0.1-0.2,0.2,0,0.3L174,163.9z M169.8,161.2l3.4-2c0.2-0.1,0.2-0.2,0-0.3l-3.2-1.8
				c-0.2-0.1-0.3-0.1-0.5,0l-3.4,2c-0.2,0.1-0.2,0.2,0,0.3l3.2,1.9C169.5,161.3,169.7,161.3,169.8,161.2L169.8,161.2L169.8,161.2z
				 M141.2,183.1l3.4-2c0.2-0.1,0.2-0.2,0-0.3l-3.2-1.8c-0.2-0.1-0.3-0.1-0.5,0l-3.4,2c-0.2,0.1-0.2,0.2,0,0.3l3.2,1.9
				C140.8,183.2,141,183.2,141.2,183.1L141.2,183.1z M163.1,170.2c0.2,0.1,0.3,0.1,0.5,0l3.4-1.9c0.2-0.1,0.2-0.2,0-0.3l-3.2-1.8
				c-0.2-0.1-0.3-0.1-0.5,0l-3.4,2c-0.2,0.1-0.2,0.2,0,0.3L163.1,170.2z M116.5,197.4l3.4-2c0.2-0.1,0.2-0.2,0-0.3l-3.2-1.8
				c-0.2-0.1-0.3-0.1-0.5,0l-3.4,1.9c-0.2,0.1-0.2,0.2,0,0.3l3.2,1.9C116.2,197.4,116.3,197.4,116.5,197.4z M121.4,194.5l3.4-2
				c0.2-0.1,0.2-0.2,0-0.3l-3.2-1.9c-0.2-0.1-0.3-0.1-0.5,0l-3.4,2c-0.2,0.1-0.2,0.2,0,0.3l3.2,1.8
				C121.1,194.6,121.3,194.6,121.4,194.5L121.4,194.5z M111.6,200.2l3.4-2c0.2-0.1,0.2-0.2,0-0.3l-3.2-1.9c-0.2-0.1-0.3-0.1-0.5,0
				l-3.4,2c-0.2,0.1-0.2,0.2,0,0.3l3.2,1.8C111.2,200.3,111.4,200.3,111.6,200.2L111.6,200.2z M131.3,188.8l3.4-2
				c0.2-0.1,0.2-0.2,0-0.3l-3.2-1.8c-0.2-0.1-0.3-0.1-0.5,0l-3.4,2c-0.2,0.1-0.2,0.2,0,0.3l3.2,1.9
				C131,188.9,131.1,188.9,131.3,188.8L131.3,188.8z M126.4,191.6l3.4-2c0.2-0.1,0.2-0.2,0-0.3l-3.2-1.8c-0.2-0.1-0.3-0.1-0.5,0
				l-3.4,2c-0.2,0.1-0.2,0.2,0,0.3l3.2,1.8C126.1,191.7,126.3,191.7,126.4,191.6z M136.3,185.9l3.4-2c0.2-0.1,0.2-0.2,0-0.3
				l-3.2-1.9c-0.2-0.1-0.3-0.1-0.5,0l-3.4,2c-0.2,0.1-0.2,0.2,0,0.3l3.2,1.8C135.9,186,136.1,186,136.3,185.9L136.3,185.9z
				 M163.2,146.2c0.2,0.1,0.3,0.1,0.5,0l3.4-2c0.2-0.1,0.2-0.2,0-0.3l-0.9-0.5c-0.2-0.1-0.3-0.1-0.5,0l-3.4,1.9
				c-0.2,0.1-0.2,0.2,0,0.3L163.2,146.2z M138.7,161.8c0.2,0.1,0.3,0.1,0.5,0l3.4-2c0.2-0.1,0.2-0.2,0-0.3l-3.2-1.9
				c-0.2-0.1-0.3-0.1-0.5,0l-3.4,2c-0.2,0.1-0.2,0.2,0,0.3L138.7,161.8z M148.6,156.1c0.2,0.1,0.3,0.1,0.5,0l3.4-2
				c0.2-0.1,0.2-0.2,0-0.3l-3.2-1.8c-0.2-0.1-0.3-0.1-0.5,0l-3.4,2c-0.2,0.1-0.2,0.2,0,0.3L148.6,156.1z M132.7,165.3
				c0.2,0.1,0.3,0.1,0.5,0l3.4-2c0.2-0.1,0.2-0.2,0-0.3l-3.2-1.9c-0.2-0.1-0.3-0.1-0.5,0l-3.4,2c-0.2,0.1-0.2,0.2,0,0.3L132.7,165.3
				z M143.6,159c0.2,0.1,0.3,0.1,0.5,0l3.4-2c0.2-0.1,0.2-0.2,0-0.3l-3.2-1.8c-0.2-0.1-0.3-0.1-0.5,0l-3.4,1.9
				c-0.2,0.1-0.2,0.2,0,0.3L143.6,159z M122.7,171c0.2,0.1,0.3,0.1,0.5,0l3.4-1.9c0.2-0.1,0.2-0.2,0-0.3l-3.2-1.8
				c-0.2-0.1-0.3-0.1-0.5,0l-3.4,2c-0.2,0.1-0.2,0.2,0,0.3L122.7,171z M127.7,168.1c0.2,0.1,0.3,0.1,0.5,0l3.4-2
				c0.2-0.1,0.2-0.2,0-0.3l-3.2-1.8c-0.2-0.1-0.3-0.1-0.5,0l-3.4,1.9c-0.2,0.1-0.2,0.2,0,0.3L127.7,168.1z M153.3,152
				c0.2,0.1,0.3,0.1,0.5,0l3.4-2c0.2-0.1,0.2-0.2,0-0.3l-0.9-0.5c-0.2-0.1-0.3-0.1-0.5,0l-3.4,2c-0.2,0.1-0.2,0.2,0,0.3L153.3,152z
				 M168.2,143.4c0.2,0.1,0.3,0.1,0.5,0l3.4-1.9c0.2-0.1,0.2-0.2,0-0.3l-0.9-0.5c-0.2-0.1-0.3-0.1-0.5,0l-3.4,2
				c-0.2,0.1-0.2,0.2,0,0.3L168.2,143.4z M174.9,147.3c0.2,0.1,0.3,0.1,0.5,0l3.4-2c0.2-0.1,0.2-0.2,0-0.3l-3.2-1.9
				c-0.2-0.1-0.3-0.1-0.5,0l-3.4,2c-0.2,0.1-0.2,0.2,0,0.3L174.9,147.3z M184.4,158.1l3.4-2c0.2-0.1,0.2-0.2,0-0.3l-3.2-1.8
				c-0.2-0.1-0.3-0.1-0.5,0l-3.4,2c-0.2,0.1-0.2,0.2,0,0.3l3.2,1.9C184,158.2,184.2,158.3,184.4,158.1L184.4,158.1z M158.3,149.1
				c0.2,0.1,0.3,0.1,0.5,0l3.4-2c0.2-0.1,0.2-0.2,0-0.3l-0.9-0.5c-0.2-0.1-0.3-0.1-0.5,0l-3.4,2c-0.2,0.1-0.2,0.2,0,0.3L158.3,149.1
				z M117.8,173.8c0.2,0.1,0.3,0.1,0.5,0l3.4-2c0.2-0.1,0.2-0.2,0-0.3l-3.2-1.9c-0.2-0.1-0.3-0.1-0.5,0l-3.4,2
				c-0.2,0.1-0.2,0.2,0,0.3L117.8,173.8z"/>
			<polygon class="st12" points="132.4,199.3 133.1,199.7 151.5,210.4 184.3,191.4 185,191.1 165.8,180 			"/>
			<polygon class="st9" points="133.1,199.7 151.5,210.4 184.3,191.4 165.8,180.8 			"/>
		</g>
	</g>
	<g id="freepik--profile-window-3--inject-108">
		<path class="st13" d="M156.1,43.6l-1.5-0.8l0,0c-0.3-0.2-0.6-0.1-0.9,0.1l-36,20.7c-0.7,0.5-1.2,1.3-1.2,2.1v68.4
			c0,0.3,0.1,0.6,0.3,0.8l0,0l0,0l0,0l1.5,0.8l35.4-21.7c0.7-0.5,1.2-1.3,1.2-2.1L156.1,43.6z"/>
		<path class="st13" d="M118.3,135.8l-1.4-0.8l0,0l0,0l0,0c-0.2-0.2-0.4-0.5-0.3-0.8V65.8c0-0.5,0.2-0.9,0.4-1.3l1.5,0.8
			c-0.2,0.4-0.4,0.8-0.4,1.3V135C118,135.3,118.1,135.6,118.3,135.8z"/>
		<path class="st14" d="M118.3,135.8l-1.4-0.8l0,0l0,0l0,0c-0.2-0.2-0.4-0.5-0.3-0.8V65.8c0-0.5,0.2-0.9,0.4-1.3l1.5,0.8
			c-0.2,0.4-0.4,0.8-0.4,1.3V135C118,135.3,118.1,135.6,118.3,135.8z"/>
		<path class="st13" d="M119.2,64.5l36-20.7c0.7-0.4,1.2-0.1,1.2,0.7v68.4c0,0.9-0.5,1.6-1.2,2.1l-36,20.8c-0.7,0.4-1.2,0.1-1.2-0.7
			V66.6C118,65.8,118.5,64.9,119.2,64.5z"/>
		<path class="st15" d="M119.2,64.5l36-20.7c0.7-0.4,1.2-0.1,1.2,0.7v68.4c0,0.9-0.5,1.6-1.2,2.1l-36,20.8c-0.7,0.4-1.2,0.1-1.2-0.7
			V66.6C118,65.8,118.5,64.9,119.2,64.5z"/>
		<path class="st13" d="M154.6,42.8l1.4,0.8c-0.3-0.1-0.6-0.1-0.8,0.1l-36,20.8c-0.3,0.2-0.6,0.5-0.8,0.8l-1.5-0.8
			c0.2-0.3,0.5-0.6,0.8-0.8l36-20.7C154,42.7,154.3,42.6,154.6,42.8L154.6,42.8z"/>
		<path class="st16" d="M154.6,42.8l1.4,0.8c-0.3-0.1-0.6-0.1-0.8,0.1l-36,20.8c-0.3,0.2-0.6,0.5-0.8,0.8l-1.5-0.8
			c0.2-0.3,0.5-0.6,0.8-0.8l36-20.7C154,42.7,154.3,42.6,154.6,42.8L154.6,42.8z"/>
		<polygon class="st17" points="142.6,115.2 144,114.4 144,116.4 142.6,117.1 		"/>
		<polygon class="st17" points="141.7,115.7 142.4,115.4 142.4,117.3 141.7,117.7 		"/>
		<path class="st17" d="M123.3,66.8l28.8-16.6c0.5-0.3,0.9-0.1,0.9,0.5v36.6c0,0.7-0.4,1.3-0.9,1.6l-28.8,16.6
			c-0.5,0.3-0.9,0.1-0.9-0.5V68.4C122.4,67.7,122.8,67.1,123.3,66.8z"/>
		<g>
			<polygon class="st13" points="140.1,89.2 137.8,95.2 123.8,74.4 128.4,71.8 			"/>
			<polygon class="st13" points="151.8,58.2 140.9,87 138.6,83.6 147.2,60.9 			"/>
			<polygon class="st13" points="145.6,61.8 137.8,82.4 135.5,79 141.1,64.5 			"/>
		</g>
		<g>
			<g>
				<g>
					<g>
						<g>
							<g>
								<g>
									<defs>
										<path id="SVGID_2_" d="M123.3,66.8l28.8-16.6c0.5-0.3,0.9-0.1,0.9,0.5v36.6c0,0.7-0.4,1.3-0.9,1.6l-28.8,16.6
											c-0.5,0.3-0.9,0.1-0.9-0.5V68.4C122.4,67.7,122.8,67.1,123.3,66.8z"/>
									</defs>
									<clipPath id="SVGID_3_">
										<use xlink:href="#SVGID_2_"  style="overflow:visible;"/>
									</clipPath>
									<g class="st18">
										<g id="freepik--character-boy--inject-108_1_">
											<path class="st19" d="M143.4,82.2c0,0,2.3-0.7,4.1,2.3c1.3,2,5.8,9.7,5.8,9.7s8.7-4.6,9.2-5.2c0.5-0.6,0.5-1.8,0.5-2.5
												c0.1-1.1-0.3-2.1-0.3-2.4c-0.1-0.7,0.9-0.7,1.4,0.2c0.3,0.7,0.4,1.5,0.7,1.5c0.4-0.3,0.8-0.7,1.2-1
												c0.5-0.6,1.5-1.6,2.2-1.4c0.2,0.1,0.5,0.3,0.5,0.5c0,0.4,0.1,0.8,0.3,1.2c0.1,0.2,0.2,0.3,0.3,0.5c0,0.2,0,0.5,0,0.8
												c0,0.4,0.4,0.5,0.4,0.9c0,0.3,0,0.5-0.1,0.8c0,0.2,0.1,0.3,0.1,0.5c0,0.4-0.2,0.7-0.5,1c-0.8,0.9-1.6,1.6-2.6,2.2
												c-0.8,0.5-1.8,1-2.7,1.5c-0.9,0.5-11.1,8.4-12.5,7.4s-8.2-10.9-8.2-10.9C141.7,85.2,143.4,82.2,143.4,82.2z"/>
											<path class="st11" d="M139.5,82.3c0,0,2.5-1,4.1-0.9c1.6,0.1,2.8,0.5,4,2.5c1.6,2.5,4.2,6.9,4.2,6.9
												c-1.1,2.3-2.9,4.2-5.1,5.4l-4.8-7.3L139.5,82.3z"/>
											<g id="freepik--character-boy--inject-108">
												<path class="st20" d="M131.6,86.7c-0.8,0.7-1.4,1.6-1.8,2.6c-0.4,1.2-0.5,2.5-0.5,3.8v8.2l-0.1,15.7
													c5.3,1.8,11.9,0.2,17.5-6c0,0-0.3-20.1-0.3-23.3c0-0.2,0-0.3,0-0.5c-0.2-4.7-4.2-6.8-8.2-4.6l-3.3,1.9L131.6,86.7
													L131.6,86.7z"/>
												<path class="st12" d="M135.1,69.7c0,3.5,2.5,5.7,5.5,4.9c3.1-0.8,5.5-4.3,5.5-7.9c0-3.5-2.7-3.5-5.7-2.7
													C137.5,64.9,135.1,66.1,135.1,69.7z"/>
												<path class="st12" d="M132.2,75.3c0,0,0.8,4.2,1.1,4.8c0.2,0.4,0.6,0.6,1,0.7l-0.1-3.1L132.2,75.3z"/>
												<path class="st12" d="M133.3,68.7c-0.7,0.1-1.2,0.5-1.6,1.1c-0.7,1-0.3,3.4,0.5,5.6l1.6-0.2L133.3,68.7z"/>
												<path class="st19" d="M134.3,74.9c-0.3,0.3-0.8-0.3-1.1-0.6c-0.4-0.3-1.6-0.7-2.2,1c-0.6,1.7,0.5,3.4,1.5,3.5
													c1.7,0.2,1.9-1.1,1.9-1.1l0.1,7.2c2.8,3,7.8-0.5,5.6-1.8v-2.1c0.8-0.1,1.5-0.2,2.3-0.5c1.2-0.5,2-1.9,2.4-3.5
													c0.6-2.7,0.8-4.7,0.3-9.5c-0.5-5.2-6-3.8-8.9-0.9C133.2,69.4,134.3,74.9,134.3,74.9z"/>
												<path class="st12" d="M136.8,73.5c0-1.1,0.7-2.1,1.7-2.4l0.3-0.1c1-0.2,1.7,0.4,1.7,1.5c0,1.1-0.8,2.2-1.7,2.4l-0.3,0.1
													C137.6,75.3,136.8,74.6,136.8,73.5z M138.5,71.4c-0.9,0.3-1.4,1.1-1.4,2.1c0,0.9,0.6,1.5,1.4,1.3l0.3-0.1
													c0.8-0.3,1.4-1.1,1.4-2.1c0-0.9-0.6-1.5-1.4-1.3L138.5,71.4z"/>
												<path class="st12" d="M142,72.1c0-1.1,0.7-2.1,1.7-2.4l0.3-0.1c1-0.2,1.7,0.4,1.7,1.5c0,1.1-0.8,2.2-1.7,2.4l-0.3,0.1
													C142.8,73.9,142,73.2,142,72.1z M143.8,70c-0.8,0.3-1.4,1.1-1.4,2.1c0,0.9,0.6,1.5,1.4,1.3l0.3-0.1
													c0.9-0.3,1.4-1.1,1.4-2.1c0-0.9-0.6-1.5-1.4-1.3L143.8,70z"/>
												<path class="st12" d="M140.5,72.1c0.2-0.4,0.5-0.7,0.9-0.8c0.3-0.1,0.6-0.1,0.8,0.1l0.2-0.3c-0.3-0.3-0.7-0.4-1-0.2
													c-0.5,0.2-0.9,0.5-1.1,1L140.5,72.1z"/>
												<polygon class="st12" points="133.3,74.4 137,73.4 137,73 133.3,74 												"/>
												<path class="st12" d="M134.3,75.5c-0.2,0-0.8-0.9-1.1-1.2c-0.5-0.4,0.2-5.6,0.2-5.6c-0.6-1.4,0.5-3.4,1.7-4.2
													c0.8-0.5,1.8-0.9,2.8-1c0.8-0.2,1.7-0.3,2.5-0.3c1-0.1,2.1-0.2,3.1-0.4c0.9-0.2,1.7-0.5,2.4-1.1c0.2-0.2,0.5,0,0.4,0.3
													c-0.1,0.3-0.2,0.5-0.3,0.8c-0.2,0.5-0.5,1-0.8,1.4c-0.3,0.5-0.8,0.9-1.2,1.3c-2.3,2.1-5.2,2.7-7.7,3
													c-0.6,0.1-0.7,0.8-1,2.6C135,72.7,134.8,75.4,134.3,75.5z"/>
												<path class="st12" d="M133.3,69l-1.8-0.7c0.3-0.7,0.9-1.1,1.4-0.9C133.3,67.6,133.5,68.4,133.3,69z"/>
												<path class="st21" d="M139.9,80.9c0,0-2.7,0.1-3.7-0.2c-0.6-0.2-1.1-0.6-1.4-1.2c0.1,0.6,0.4,1.1,0.8,1.6
													c0.7,0.8,4.3,0.7,4.3,0.7L139.9,80.9L139.9,80.9z"/>
												<path class="st12" d="M139.3,72.8c0,0.4-0.2,0.7-0.5,0.8c-0.3,0.1-0.5-0.2-0.5-0.5c0-0.3,0.2-0.7,0.5-0.8
													C139,72.2,139.3,72.4,139.3,72.8z"/>
												<path class="st12" d="M138.4,70.4l-1.2,1.1c-0.2-0.4-0.1-0.9,0.3-1.2c0.2-0.2,0.5-0.3,0.8-0.1
													C138.3,70.3,138.4,70.3,138.4,70.4z"/>
												<path class="st21" d="M139.7,77.1l1.3,0.2c-0.1,0.4-0.4,0.7-0.9,0.7C139.8,78,139.6,77.6,139.7,77.1z"/>
												<path class="st12" d="M144.3,69.3l-1.1-0.7c0.2-0.4,0.6-0.6,1-0.4C144.5,68.5,144.6,69,144.3,69.3z"/>
												<path class="st12" d="M143.9,71.4c0,0.4-0.2,0.7-0.5,0.8c-0.3,0.1-0.5-0.2-0.5-0.5c0-0.3,0.2-0.7,0.5-0.8
													C143.6,70.8,143.9,71,143.9,71.4z"/>
												<polygon class="st21" points="141.1,71.6 141.2,75.4 143.2,74.4 												"/>
											</g>
										</g>
										<path class="st19" d="M123.7,110.4c1.2-16,3.5-21.7,7.4-23.4c1.4,1,1.7,5.7,0.3,9.3c0,0-3,10.6-3.2,14.3
											c-0.1,3.4,0.1,6.7,0.6,10.1c0,0.4,0.3,0.8,0.6,1c0.8,0.5,0.8,1.4,1.4,2.1c0.5,0.6,0.9,0.7,0.8,0.9
											c-0.2,0.5-0.7,0.8-1.2,0.6c-0.4-0.1-0.8-0.3-1.1-0.5c0.2,0.8,0.6,1.6,1.1,2.4c1.1,1.7,1.1,2.8-1.6,3.2
											c-1.6,0.2-2.8-0.8-3.6-4.8c-0.2-1.2-0.8-3.3-1-4.8C123.7,116.3,123.5,113,123.7,110.4z"/>
										<path class="st11" d="M132.2,86.3c0,0-2.8,1-4.3,3.3c-1.4,2.3-2.8,6.1-3.7,12.7c0,0,1.8,2.4,6.5,0.4c0,0,2.1-8.5,2.2-11.8
											C133.1,87.2,132.2,86.3,132.2,86.3z"/>
									</g>
								</g>
							</g>
						</g>
					</g>
				</g>
			</g>
		</g>
	</g>
	<g id="freepik--profile-window-2--inject-108">
		<path class="st13" d="M50,175.3l-1.4-0.8l0,0l0,0l0,0c-0.2-0.2-0.4-0.5-0.3-0.8v-68.4c0-0.5,0.2-0.9,0.4-1.3l1.5,0.8
			c-0.2,0.4-0.4,0.8-0.4,1.3v68.4C49.6,174.8,49.7,175.1,50,175.3z"/>
		<path class="st14" d="M50,175.3l-1.4-0.8l0,0l0,0l0,0c-0.2-0.2-0.4-0.5-0.3-0.8v-68.4c0-0.5,0.2-0.9,0.4-1.3l1.5,0.8
			c-0.2,0.4-0.4,0.8-0.4,1.3v68.4C49.6,174.8,49.7,175.1,50,175.3z"/>
		<path class="st13" d="M50.9,103.9l35.9-20.7c0.7-0.4,1.2-0.1,1.2,0.7v68.4c0,0.9-0.5,1.6-1.2,2.1l-35.9,20.7
			c-0.7,0.4-1.2,0.1-1.2-0.7v-68.4C49.7,105.2,50.1,104.4,50.9,103.9z"/>
		<path class="st15" d="M50.9,103.9l35.9-20.7c0.7-0.4,1.2-0.1,1.2,0.7v68.4c0,0.9-0.5,1.6-1.2,2.1l-35.9,20.7
			c-0.7,0.4-1.2,0.1-1.2-0.7v-68.4C49.7,105.2,50.1,104.4,50.9,103.9z"/>
		<path class="st13" d="M86.2,82.2l1.4,0.8c-0.3-0.1-0.6-0.1-0.8,0.1l-35.9,20.7c-0.3,0.2-0.6,0.5-0.8,0.8l-1.5-0.8
			c0.2-0.3,0.5-0.6,0.8-0.9l36-20.7C85.6,82.1,86,82.1,86.2,82.2L86.2,82.2z"/>
		<path class="st16" d="M86.2,82.2l1.4,0.8c-0.3-0.1-0.6-0.1-0.8,0.1l-35.9,20.7c-0.3,0.2-0.6,0.5-0.8,0.8l-1.5-0.8
			c0.2-0.3,0.5-0.6,0.8-0.9l36-20.7C85.6,82.1,86,82.1,86.2,82.2L86.2,82.2z"/>
		<path class="st17" d="M54.9,106.2l28.8-16.6c0.5-0.3,0.9-0.1,0.9,0.5v36.6c0,0.7-0.4,1.3-0.9,1.6L54.9,145
			c-0.5,0.3-0.9,0.1-0.9-0.5v-36.6C54,107.2,54.4,106.6,54.9,106.2z"/>
		<g>
			<polygon class="st13" points="71.7,128.4 69.4,134.5 55.4,113.7 60,111 			"/>
			<polygon class="st13" points="83.5,97.5 72.5,126.3 70.3,122.9 78.9,100.1 			"/>
			<polygon class="st13" points="77.3,101.1 69.4,121.7 67.2,118.3 72.7,103.7 			"/>
		</g>
		<g>
			<g>
				<g>
					<g>
						<g>
							<g>
								<g>
									<defs>
										<path id="SVGID_4_" d="M54.9,106.2l28.8-16.6c0.5-0.3,0.9-0.1,0.9,0.5v36.6c0,0.7-0.4,1.3-0.9,1.6L54.9,145
											c-0.5,0.3-0.9,0.1-0.9-0.5v-36.6C54,107.2,54.4,106.6,54.9,106.2z"/>
									</defs>
									<clipPath id="SVGID_5_">
										<use xlink:href="#SVGID_4_"  style="overflow:visible;"/>
									</clipPath>
									<g class="st22">
										<g id="freepik--Character--inject-108">
											<path class="st23" d="M77.8,143c-3.5-15.2-7.6-18-4-21.2c4.3-0.7,6,0.7,6.6,5.2c0.3,2.2,1,11.3,1.9,14.7
												c0.8,3,1.8,6.7,3,8.8c0.2,0.4,0.5,0.6,1,0.7c1.1,0.2,1.4,0.8,2.3,1.2c0.7,0.3,1.2,0.3,1.2,0.5c-0.1,0.5-0.5,1-1.1,1.1
												c-0.4,0-0.9,0-1.3-0.1c0.5,0.7,1.1,1.3,1.9,1.7c1.7,1.1,2,2.2-0.7,3.6c-1.7,0.9-3.3,0.5-5.4-3c-0.8-1.3-1.5-2.6-2.1-4
												C79.8,148.7,78.4,145.4,77.8,143z"/>
										</g>
										<path class="st12" d="M80,118.5l-11.4,3c-2.7,0.7-4.9-1.2-4.9-4.3v-4.4c0-5,3.5-10,7.8-11.1l0.6-0.2
											c4.3-1.1,7.8,1.9,7.8,6.9L80,118.5L80,118.5z"/>
										<path class="st12" d="M66.4,105.6c0.5-0.6,0.5-1.5,0.1-1.9c-0.4-0.4-1.1-0.3-1.6,0.3L66.4,105.6z"/>
										<path class="st12" d="M66.5,105.7c-0.1-0.5-0.5-0.8-1-0.8c-0.1,0-0.2,0.1-0.4,0.1c-0.6,0.3-1,1.1-0.9,1.8L66.5,105.7z"/>
										<path class="st24" d="M68.7,123.4c0,0-4.7,1.1-5.3,1.6c3.4,3.7,0.6,11.4,0.6,11.4l1.9,6.6c-1.7,2.8-3,5.8-3.9,8.9
											c-1.1,3.7-1.8,6.6-2.7,17.9c4.5,3.6,19.5-0.3,23.3-7.1c0,0-1.2-7.4-2.7-14.3c-1.1-5-2.2-7.8-1.9-9.6
											c2-7.7,2.2-9.6,1.8-11.1c-1-4.2-5-6.2-6-5.9L68.7,123.4z"/>
										<path class="st23" d="M77,104.3c0.9,0.3,1.9,2.6,1.8,7.8c-0.1,4.4-1.3,5.9-2,6.4c-0.6,0.5-1.8,0.6-3,0.7v2.6
											c0,0,1.6,1.7,1.5,3c-0.1,1.2-2.3,2.1-3.8,1.4c-1.5-0.8-2.8-2.7-2.8-2.7l0-6.1c0,0-0.7,1-1.8,0.1c-1-0.8-1.2-2.2-0.5-3.4
											c0.8-1.1,2.1-1.2,2.7-0.1c0,0,0.6-2.2,3.4-4C74.8,108.3,76.1,107,77,104.3z"/>
										<path class="st12" d="M74.5,112.1c0,0.3-0.2,0.6-0.5,0.7c-0.3,0.1-0.5-0.1-0.5-0.4c0-0.3,0.2-0.6,0.5-0.7
											C74.3,111.7,74.5,111.8,74.5,112.1z"/>
										<path class="st25" d="M74.7,115.9l1.1,0.1c-0.1,0.4-0.3,0.6-0.7,0.7C74.7,116.6,74.5,116.3,74.7,115.9z"/>
										<path class="st12" d="M78.5,109.4l-1-0.5c0.2-0.4,0.5-0.5,0.8-0.4C78.6,108.7,78.7,109.1,78.5,109.4z"/>
										<path class="st12" d="M73.1,111.2l1-1c-0.2-0.3-0.5-0.3-0.8,0C73,110.5,73,110.9,73.1,111.2z"/>
										<path class="st12" d="M78.2,110.7c0,0.3-0.2,0.6-0.5,0.7c-0.3,0.1-0.5-0.1-0.5-0.4c0-0.3,0.2-0.6,0.5-0.7
											C78,110.2,78.2,110.4,78.2,110.7z"/>
										<polygon class="st25" points="76,111 76.1,114.4 77.6,113.4 										"/>
										<path class="st25" d="M73.8,119.2c-1.2,0.2-3.7,0-4.1-1.1c0.2,0.5,0.5,1,0.9,1.2c0.8,0.5,3.3,0.7,3.3,0.7L73.8,119.2
											L73.8,119.2z"/>
										<polygon class="st12" points="65,139.8 68.5,144.2 65.9,143 										"/>
										<path class="st23" d="M55.2,148.8c2.9-14.6,5-21.5,8.2-23.8c1.6,0.2,2.1,2.3,2.3,3.5c0.3,2.2-0.2,5.3-1.6,7.9
											c0,0-4,9.8-4.7,13.7c-0.6,3.4-1.3,7.7-1.2,10.5c0,0.5,0.2,0.9,0.5,1.2c0.8,0.8,0.8,1.6,1.3,2.5c0.4,0.8,0.8,1,0.7,1.2
											c-0.2,0.5-0.8,0.7-1.3,0.5c-0.4-0.2-0.7-0.5-1-0.8c0.1,1,0.4,1.9,0.8,2.8c0.9,2.1,0.7,3.3-2,3.2c-1.7-0.1-2.7-1.4-3-6
											c-0.1-1.7-0.2-3.4,0-5.1C54.4,155.4,54.7,151.5,55.2,148.8z"/>
									</g>
								</g>
							</g>
						</g>
					</g>
				</g>
			</g>
		</g>
		<path class="st26" d="M78.6,159.2l8.2-4.8c0.7-0.5,1.2-1.3,1.2-2.1V83.9c0-0.8-0.5-1.1-1.2-0.7L78.6,88V159.2z"/>
		<path class="st13" d="M78.6,87.9l8.2-4.8c0.2-0.2,0.5-0.2,0.8-0.1l-1.4-0.8l0,0c-0.3-0.2-0.6-0.1-0.9,0.1l-8.2,4.8L78.6,87.9z"/>
		<path class="st27" d="M78.6,87.9l8.2-4.8c0.2-0.2,0.5-0.2,0.8-0.1l-1.4-0.8l0,0c-0.3-0.2-0.6-0.1-0.9,0.1l-8.2,4.8L78.6,87.9z"/>
	</g>
	<g>
		<path class="st11" d="M153.8,97.3l-30,17.3c-0.6,0.3-1.1,0-1.1-0.8l0,0c0-0.8,0.5-1.7,1.1-2l30-17.3c0.6-0.3,1.1,0,1.1,0.8l0,0
			C154.8,96.1,154.3,97,153.8,97.3z"/>
		<path class="st11" d="M153.8,104.6l-30,17.3c-0.6,0.3-1.1,0-1.1-0.8l0,0c0-0.8,0.5-1.7,1.1-2l30-17.3c0.6-0.3,1.1,0,1.1,0.8l0,0
			C154.8,103.4,154.3,104.3,153.8,104.6z"/>
		<path class="st11" d="M153.8,112l-30,17.3c-0.6,0.3-1.1,0-1.1-0.8l0,0c0-0.8,0.5-1.7,1.1-2l30-17.3c0.6-0.3,1.1,0,1.1,0.8l0,0
			C154.8,110.7,154.3,111.6,153.8,112z"/>
		<g>
			<path class="st11" d="M85.2,136.6l-30,17.3c-0.6,0.3-1.1,0-1.1-0.8l0,0c0-0.8,0.5-1.7,1.1-2l30-17.3c0.6-0.3,1.1,0,1.1,0.8l0,0
				C86.3,135.3,85.8,136.2,85.2,136.6z"/>
			<path class="st11" d="M85.2,143.8l-30,17.3c-0.6,0.3-1.1,0-1.1-0.8l0,0c0-0.8,0.5-1.7,1.1-2l30-17.3c0.6-0.3,1.1,0,1.1,0.8l0,0
				C86.3,142.6,85.8,143.5,85.2,143.8z"/>
			<path class="st11" d="M85.2,151.2l-30,17.3c-0.6,0.3-1.1,0-1.1-0.8l0,0c0-0.8,0.5-1.7,1.1-2l30-17.3c0.6-0.3,1.1,0,1.1,0.8l0,0
				C86.3,150,85.8,150.9,85.2,151.2z"/>
		</g>
	</g>
	<g id="freepik--profile-window-1--inject-108">
		<path class="st13" d="M124.7,71.9l-1.5-0.8l0,0c-0.3-0.2-0.6-0.1-0.9,0.1l-36,20.7c-0.7,0.5-1.2,1.3-1.2,2.1v68.4
			c0,0.3,0.1,0.6,0.3,0.8l0,0l0,0l0,0l1.5,0.8l35.4-21.7c0.7-0.5,1.2-1.3,1.2-2.1L124.7,71.9z"/>
		<path class="st26" d="M87,164l-1.4-0.8l0,0l0,0l0,0c-0.2-0.2-0.4-0.5-0.3-0.8V94c0-0.5,0.2-0.9,0.4-1.3l1.5,0.8
			c-0.2,0.4-0.4,0.8-0.4,1.3v68.4C86.6,163.6,86.7,163.9,87,164z"/>
		<path class="st27" d="M123.2,71l1.4,0.8c-0.3-0.1-0.6-0.1-0.8,0.1l-36,20.7c-0.3,0.2-0.6,0.5-0.8,0.8l-1.5-0.8
			c0.2-0.3,0.5-0.6,0.8-0.8l35.9-20.7C122.6,70.9,122.9,70.9,123.2,71L123.2,71z"/>
		<path class="st17" d="M91.9,95l28.8-16.6c0.5-0.3,0.9-0.1,0.9,0.5v36.6c0,0.7-0.4,1.3-0.9,1.6l-28.8,16.6
			c-0.5,0.3-0.9,0.1-0.9-0.5V96.6C91,96,91.4,95.4,91.9,95z"/>
		<g>
			<polygon class="st13" points="108.5,117.3 106.2,123.3 92.2,102.5 96.8,99.9 			"/>
			<polygon class="st13" points="120.2,86.3 109.3,115.1 107,111.7 115.7,89 			"/>
			<polygon class="st13" points="114,89.9 106.2,110.5 103.9,107.1 109.4,92.5 			"/>
		</g>
		<g>
			<g>
				<g>
					<g>
						<g>
							<g>
								<g>
									<defs>
										<path id="SVGID_6_" d="M91.9,95l28.8-16.6c0.5-0.3,0.9-0.1,0.9,0.5v36.6c0,0.7-0.4,1.3-0.9,1.6l-28.8,16.6
											c-0.5,0.3-0.9,0.1-0.9-0.5V96.6C91,96,91.4,95.4,91.9,95z"/>
									</defs>
									<clipPath id="SVGID_7_">
										<use xlink:href="#SVGID_6_"  style="overflow:visible;"/>
									</clipPath>
									<g class="st28">
										<g id="freepik--character--inject-108">
											<path class="st19" d="M114.2,132.8c-3.2-14.2-6.9-16.7-3.5-19.6c3.5-1.4,5.4,0.6,6,4.7c0.3,2,1,10.5,1.8,13.7
												c0.7,2.8,1.7,6.2,2.8,8.2c0.2,0.3,0.5,0.6,0.9,0.6c1,0.2,1.3,0.7,2.1,1.1c0.6,0.3,1.1,0.2,1.1,0.5c-0.1,0.5-0.5,0.9-1,1
												c-0.4,0-0.8,0-1.2-0.1c0.5,0.6,1.1,1.2,1.8,1.6c1.6,1,1.8,2-0.7,3.4c-1.6,0.8-3,0.4-5-2.7c-0.8-1.2-1.4-2.4-2-3.7
												C115.9,138.1,114.7,135.1,114.2,132.8z"/>
											<path class="st11" d="M105,114.9L105,114.9c-3.5,1.2-3.7,3.2-4.7,5.6c-0.6,1.7-0.7,3.5-0.2,5.3l2.4,7.5
												c-1,2.2-1.8,4.5-2.5,6.9c6.1,2.3,13.8-1.8,15.6-5.2c0.1-0.6-0.4-5.3-0.7-8.3c1.1-3.4,1.4-5.5,0.9-7.4
												c-0.8-3.6-4.1-6.5-5.6-6L105,114.9z"/>
											<path class="st12" d="M109.2,110l-2.6,0.7c-3.6,1-6.6-1.6-6.6-5.8l0,0c0-5,3.5-10,7.8-11.2l0,0c4.3-1.2,7.9,1.9,7.9,6.9
												l0,0C115.7,104.9,112.8,109.1,109.2,110z"/>
											<path class="st12" d="M105.8,92.2c1.1,1.6-0.1,3.2-1.7,5c-1.6,1.7-3.1,2.9-4.3,1.3c-1.1-1.6-0.5-3.9,1.1-5.6
												C102.6,91.2,104.7,90.6,105.8,92.2z"/>
											<path class="st12" d="M101.8,99.2l-1.6,1.8c-0.3-0.5-0.3-1.3,0.2-1.7C100.8,98.8,101.4,98.8,101.8,99.2z"/>
											<path class="st19" d="M112.7,96.5c0.8,0.3,1.8,2.4,1.8,7.5c-0.1,4.3-1.3,5.6-1.8,6.1s-1.8,0.6-2.9,0.7l0.1,2.6
												c0,0,1.9,1.3,1.8,2.5c-0.1,1.2-2.7,2.4-4.1,1.7c-1-0.5-1.8-1.1-2.6-1.9c0,0-0.1-0.1-0.1-0.2V109c0,0-0.7,0.9-1.8,0.1
												c-1-0.8-1.2-2.2-0.5-3.2c0.7-1.1,2.1-1.2,2.6-0.1c0,0,1.8-0.4,4.2-2.6C111.1,101.5,112.4,99.1,112.7,96.5z"/>
											<path class="st12" d="M110.3,104.1c0,0.3-0.2,0.6-0.4,0.7c-0.2,0.1-0.5-0.1-0.5-0.4c0-0.3,0.2-0.6,0.4-0.7
												C110.1,103.7,110.3,103.8,110.3,104.1z"/>
											<path class="st21" d="M110.5,107.7l1.1,0.1c-0.1,0.3-0.3,0.6-0.7,0.6C110.5,108.4,110.4,108.1,110.5,107.7z"/>
											<path class="st12" d="M114.1,101.4l-1-0.5c0.2-0.3,0.5-0.5,0.8-0.4C114.3,100.8,114.3,101.2,114.1,101.4z"/>
											<path class="st12" d="M113.9,102.8c0,0.3-0.2,0.6-0.4,0.7c-0.2,0.1-0.5-0.1-0.5-0.4c0-0.3,0.2-0.6,0.4-0.7
												C113.7,102.3,113.9,102.5,113.9,102.8z"/>
											<polygon class="st21" points="111.8,102.8 111.8,106.3 113.3,105.3 											"/>
											<path class="st21" d="M109.7,110.9c-1.2,0.2-3.6,0-4-1c0.2,0.5,0.4,0.9,0.9,1.2c0.7,0.5,3.2,0.7,3.2,0.7V110.9z"/>
											<path class="st24" d="M106.6,139.2c-2,0-3.3-2-2.7-4.5c0-0.1,0-0.2,0.1-0.2c0.4-1.2,1.2-1.3,1.2-1.3l0,0
												c-0.8-0.4-1.2-1.4-1.4-2.4l-0.9-4.8c-0.1-0.8,0-1.7,0.2-2.5l-2.5-2.7l-0.5,0.5c-0.4,1.4-0.3,3,0.1,4.4l2.4,7.5
												c-1,2.2-1.8,4.5-2.5,6.9c4.5,1.7,9.9-0.1,13.1-2.5C111.2,138.7,108.9,139.2,106.6,139.2z"/>
										</g>
										<path class="st19" d="M93.9,138.2c2.7-13.7,4.8-19.7,7.9-21.8c1-0.7,2-0.3,2.2,0.9c0.3,2.1-0.2,5.3-1.6,7.8
											c0,0-4,10.8-4.6,14.4c-0.5,3.2-1.2,7.1-1.1,9.7c0,0.4,0.2,0.8,0.4,1.1c0.7,0.7,0.7,1.4,1.2,2.3c0.4,0.7,0.8,0.9,0.7,1.1
											c-0.2,0.4-0.8,0.6-1.2,0.4c-0.3-0.2-0.7-0.5-0.9-0.8c0.1,0.9,0.4,1.8,0.7,2.6c0.8,1.9,0.6,3.1-1.9,3
											c-1.6-0.1-2.5-1.3-2.7-5.6c-0.1-1.6-0.2-3.2-0.1-4.8C93.1,144.4,93.4,140.8,93.9,138.2z"/>
									</g>
								</g>
							</g>
						</g>
					</g>
				</g>
			</g>
		</g>
	</g>
	<g>
		<path class="st11" d="M120.5,124.4l-30,17.3c-0.6,0.3-1.1,0-1.1-0.8l0,0c0-0.8,0.5-1.7,1.1-2l30-17.3c0.6-0.3,1.1,0,1.1,0.8l0,0
			C121.5,123.2,121,124.1,120.5,124.4z"/>
		<path class="st11" d="M120.5,131.7l-30,17.3c-0.6,0.3-1.1,0-1.1-0.8l0,0c0-0.8,0.5-1.7,1.1-2l30-17.3c0.6-0.3,1.1,0,1.1,0.8l0,0
			C121.5,130.5,121,131.4,120.5,131.7z"/>
		<path class="st11" d="M120.5,139l-30,17.3c-0.6,0.3-1.1,0-1.1-0.8l0,0c0-0.8,0.5-1.7,1.1-2l30-17.3c0.6-0.3,1.1,0,1.1,0.8l0,0
			C121.5,137.8,121,138.7,120.5,139z"/>
	</g>
	<g id="freepik--character--inject-108_2_">
		<g id="freepik--character--inject-108_1_">
			<path class="st19" d="M157.9,147.5c0.3-11.7-0.6-14.5-3.7-16.7l-1.2,6.8c0,0,1.4,8,1.3,10.7c-0.1,2.3-0.3,5.3-0.9,7.2
				c-0.1,0.3-0.3,0.6-0.6,0.8c-0.8,0.5-1.1,1-1.7,1.6c-0.5,0.5-0.9,0.6-0.8,0.8c0.2,0.3,0.6,0.5,1,0.3c0.4-0.2,0.8-0.4,1.1-0.6
				c-0.3,0.7-0.7,1.4-1.1,2c-1.1,1.4-1.2,2.2,1.1,2.2c1.4,0,2.5-0.9,3.6-4c0.4-1.1,0.8-2.3,1-3.5
				C157.3,152.1,157.8,149.4,157.9,147.5z"/>
			<path class="st13" d="M151.5,129.9c1.5-0.2,3.5,0.1,4.8,2.4c1.3,2.3,1.6,6.4,1.8,10.4c0,0-2.6,2.2-5.7,1.1L151.5,129.9z"/>
			<path class="st29" d="M151.5,129.9c1.5-0.2,3.5,0.1,4.8,2.4c1.3,2.3,1.6,6.4,1.8,10.4c0,0-2.6,2.2-5.7,1.1L151.5,129.9z"/>
			<path class="st12" d="M155.9,194.4c0.2,0.1,0.3,0.5,0.3,1.4c0,0.7,0.2,1.8-0.6,2.1c-0.8,0.2-2,0.1-2.4-0.5
				c-0.6-0.8-1.1-1.5-2-2.5c-0.8-0.8-1.6-1.6-2-2.8c-0.3-1.1,0-1.5,0.7-1.8c1-0.4,2.6,1,3.4,1.2
				C153.9,191.7,155.7,194.4,155.9,194.4z"/>
			<path class="st19" d="M155.9,193.6v1.1c-0.8,0.5-1.9,0.6-2.8,0.1c0-0.1-0.3-1.6-0.3-1.6L155.9,193.6z"/>
			<path class="st12" d="M147,200.8c0,0,0.3,1,0.5,1.8c0.2,0.7,0.3,1.8,0.1,2.3c-0.2,0.5-1.1,0.8-2.5,0.8c-0.9,0-2.3,0.6-3.3,1.1
				c-1,0.5-3.1,0.8-4.1,0.7c-1.3-0.2-2.6-0.9-2.7-1.4c-0.2-0.5,0.1-1.1,3-2.3c0,0,4.1-1.4,5.5-2.9L147,200.8z"/>
			<path class="st19" d="M147,199.6c0,0,0,0.8,0,1.3c0,0.4-0.5,1.2-2,1.1c-1,0-1.7-0.3-1.7-1.1v-1.2L147,199.6z"/>
			<path class="st24" d="M156.6,179c-0.2-1.9-0.7-3.9-1.3-5.7c0,0,0.4-4.9,0.6-9.6c0.2-5,0-11.4,0.1-12.7c0,0-16.3-3.3-16.6,2.5
				c-0.3,5.9,0.6,20.7,0.8,23.3c0.2,2.6,0.6,4.8,1.2,9c0.5,4.2,2,13.8,2,13.8c1.1,0.6,2.5,0.5,3.6-0.1c0,0,1.1-11.7,1-14.7
				c-0.1-2.2-0.5-4.4-1.1-6.5c0,0,0.3-4.8,0.6-9c0.3-4.2,0.5-6.2,0.6-8l0.3-0.2c0,0,0.3,7.2,0.5,9.8c0.2,2.6,0.6,5,1.4,9.8
				c0.6,4.1,2.6,12.9,2.6,12.9c1.8,1,3-0.1,3-0.1S157.1,182.6,156.6,179z"/>
			<path class="st12" d="M148.1,161.4c0,0,4-2,6-3.7c0,0-1.8,2.6-4.3,3.7c0,0-0.9,9-0.9,8.8l-0.5-8.8L148.1,161.4L148.1,161.4z"/>
			<polygon class="st19" points="144.6,128.1 145.6,133.4 150.4,133.1 149.3,127 			"/>
			<path class="st30" d="M155.4,132.7c-0.5-1.4-2.3-3-4.1-2.7c-2.7,0.5-5.4,1.1-8,2c-1.7,0.6-3.2,2.1-3.4,7.6c0,0-0.5,12.9-0.6,15.4
				c4.2,1.7,8.6,1.6,11.1,1.1c5-1.1,5.6-3.2,5.6-3.2s0.1-9.3-0.1-13.3C155.8,136.2,155.8,133.7,155.4,132.7z"/>
			<path class="st21" d="M140.9,121.6c0,0-1.2,1.9-1.1,2.1c0.2,0.2,1.1,0.3,1.1,0.3V121.6z"/>
			<path class="st19" d="M144.3,116.3c-2.5,0.6-3.3,1.7-3.4,5.8c-0.2,4.2,0.3,5.6,0.9,6.1c0.4,0.4,2.5,0.4,3.5,0.1
				c1.3-0.4,4.3-1.5,5.6-3.7c1.6-2.5,1.9-6,0.2-7.3C148.5,115.3,145.3,116,144.3,116.3z"/>
			<path class="st12" d="M140.9,117.3c0.8,1.3,2.4,1.9,2.4,1.9c0.5,0.5,0.2,2.7,1.1,3.1c0,0,0.4-1.6,1.7-1.4
				c1.3,0.2,1.6,1.8,0.8,2.9c-0.8,1.1-1.6,0.7-1.6,0.7s0.1,2.2,1.1,3.5c0,0,1.1,0.3,3.2-0.2c1.3-0.3,3-1.9,3.7-3.6
				c1.5-3.6,1.6-6.8-0.8-7.8c-0.3-1.6-1.6-2.4-3.1-2.7c-3.2-0.7-5.3,1.4-7.7,1.2C140.3,114.8,140,115.8,140.9,117.3z"/>
			<path class="st12" d="M152.5,116.9l1.5-0.9c-0.3-0.4-0.8-0.5-1.2-0.3C152.4,116,152.3,116.5,152.5,116.9z"/>
			<path class="st19" d="M143.4,132.1c-1.6,0.2-3,1-4,2.2c-1.4,1.8-6.5,8.9-6.5,8.9s-7.9-4-8.2-4.4c-0.4-0.5-0.2-1.4-0.1-1.9
				s0.3-1.7,0.4-2c0.2-0.5-0.6-0.4-1.1,0.1c-0.5,0.5-0.7,1.6-1,1.7c-0.2,0.2-2.1-2-3-3c-0.9-1-1.3-1.8-1.9-1.4
				c-0.4,0.3-0.2,0.9,0.5,1.8c0.3,0.4,0.6,0.8,0.8,1.2c0.1,0.2-0.2,0.3-0.2,0.4c-0.2,0.2-0.5,0.4-0.5,0.7c0,0.1,0,0.3,0,0.4
				c-0.1,0.3-0.5,0.4-0.5,0.7c-0.1,0.2,0,0.4,0,0.7c0,0.2-0.1,0.3-0.1,0.4c0,0.3,0.1,0.5,0.3,0.8c0.6,0.8,1.5,1.1,2.3,1.5
				c0.7,0.4,1.4,0.5,2.2,0.9c0.8,0.3,10.2,7.6,11.7,6.8c1.5-0.8,8.8-9.3,8.8-9.3C145.8,135.2,143.4,132.1,143.4,132.1z"/>
			<path class="st13" d="M144.1,131.7c-1,0.1-2.7,0.2-4.4,2.1c-2,2.2-4.5,5.8-4.5,5.8c0.5,2.2,2.3,3.8,4.5,4.2c0,0,3.5-3.6,4.5-5.6
				C145.2,136.3,145.3,133,144.1,131.7z"/>
			<path class="st29" d="M144.1,131.7c-1,0.1-2.7,0.2-4.4,2.1c-2,2.2-4.5,5.8-4.5,5.8c0.5,2.2,2.3,3.8,4.5,4.2c0,0,3.5-3.6,4.5-5.6
				C145.2,136.3,145.3,133,144.1,131.7z"/>
		</g>
	</g>
</g>
</svg>
