<?xml version="1.0" encoding="utf-8"?>
<!-- Generator: Adobe Illustrator 24.3.0, SVG Export Plug-In . SVG Version: 6.00 Build 0)  -->
<svg version="1.1" id="Camada_1" xmlns="http://www.w3.org/2000/svg" xmlns:xlink="http://www.w3.org/1999/xlink" x="0px" y="0px"
	 viewBox="0 0 500.1 369" style="enable-background:new 0 0 500.1 369;" xml:space="preserve">
<style type="text/css">
	.st0{fill:#69E29D;}
	.st1{fill:#FAFAFA;}
	.st2{fill:#31B56F;}
	.st3{opacity:0.2;enable-background:new    ;}
	.st4{opacity:0.29;fill:#C9C9C9;enable-background:new    ;}
	.st5{fill:#F2FCF6;}
	.st6{fill:#95C2FE;}
	.st7{opacity:0.6;fill:#FFFFFF;enable-background:new    ;}
	.st8{opacity:0.1;enable-background:new    ;}
	.st9{opacity:0.18;enable-background:new    ;}
	.st10{fill:#263238;}
	.st11{fill:#37474F;}
	.st12{fill:#455A64;}
	.st13{fill:#FFA8A7;}
	.st14{fill:#FDD700;}
	.st15{fill:#4A387F;}
	.st16{fill:#FFAA00;}
	.st17{fill:#FF0000;}
	.st18{fill:#F28F8F;}
	.st19{fill:#BA68C8;}
	.st20{fill:#FFBDA7;}
	.st21{opacity:5.000000e-02;enable-background:new    ;}
	.st22{fill:#F0997A;}
	.st23{fill:#B16668;}
	.st24{fill:#9A4A4D;}
	.st25{fill:#FFFFFF;}
</style>
<g>
	<path class="st0" d="M0,143.9c18.9-21.4,56.1-42.4,95-19.8c9.3,5.3,18.1,12.1,26.1,19.7c0.5,4.8,0.5,9.4,1.1,13.9l-0.5,0.1
		c-3.6,0.3-6.6,0.8-10,0.9c-6.9,1-14.3,1.3-21.7,0.9c-9.8-1.3-19-4.1-27.6-8.4l13-12.9c-6.3,3.1-12.1,6.7-18.1,10.9
		c-7-0.1-14.1-2.1-20.8-5l18.4-16.2l-26,13.5C19.4,140.7,9.4,141.4,0,143.9z"/>
	<path class="st1" d="M58.1,123c6.9,0.5,13.4,1.8,19.8,3.6c12.9,3.6,24.6,10.4,34.4,19.7l0,0c0.3,0.1,0.1,0.5,0,0.8
		c-0.1,0.3-0.5,0.1-0.8,0l0,0c-9.8-9.2-21.3-16.4-33.8-20.2C71.5,125,64.4,123.5,58.1,123c-6.8-0.9-13.1-0.4-19.6,1.9
		C44.7,122.6,51.3,121.9,58.1,123z"/>
	<path class="st2" d="M43.4,191.5c11.9-3.1,23.8-5.8,35.6-7.8l11.1-17.6l-3.6,15.1l15.2-2.5l12-16.9l-3.8,15.3
		c0,0,16.6,2.4,27.1-5.6c5.1-4.1,6.9-6.5,6.7-8.8l-0.1-0.5c-3.6-4.1-7.9-7.8-12.7-9.7c-8.5-4.6-17.8-6.9-27.6-6.6
		c-1.2-0.1-2.2,0.3-3.5,0.2l0,0c-0.5,0.2-0.8,0.1-1.3,0.3c-3.6,0.5-6.8,1.1-10.1,2.3c-6.8,2.5-12.9,6.1-18.7,10.6
		c-1,0.7-2,1.7-3.2,2.7c-2.1,2-4.3,4-6.4,6c-5.3,5.6-10.2,11.8-13.9,18.6C44.9,188,44.2,189.8,43.4,191.5L43.4,191.5L43.4,191.5z"/>
	<path class="st3" d="M43.5,190.6L43.5,190.6c12.5-17.4,30.9-30.5,51.9-35.8c13.2-2.6,39.4,3.2,48.4,8.8c0.1-0.3,0.2-0.6,0.1-1.2
		l-0.1-0.5c-3.6-4.1-7.9-7.8-12.7-9.7c-8.6-4.3-18.1-6.5-27.7-6.2c-1.2-0.1-2.2,0.3-3.5,0.2l0,0c-0.5,0.2-0.8,0.1-1.3,0.3
		c-3.6,0.5-6.8,1.1-10.1,2.3c-6.8,2.5-12.9,6.1-18.7,10.6c-1,0.7-2,1.7-3.2,2.7c-2.1,2-4.3,4-6.4,6c-5.3,5.6-10.2,11.8-13.9,18.6
		C45.1,188,44.3,189.8,43.5,190.6z"/>
	<path class="st1" d="M144,164.2L144,164.2c-6.7-3.4-14.1-6-21.6-7.6c-7.4-1.5-15-2-22.9-1.2c-3.9,0.3-7.7,1.3-11.2,2.6
		c-3.6,1.5-7.1,2.9-10.3,4.8c-6.6,3.3-13.2,7.6-19.2,12.4l0,0l0,0c5.7-5.5,11.9-10,18.9-13.6c6.7-3.9,14.3-5.9,21.9-7.3
		c7.9-0.7,15.3,0.1,23.1,1.7C129.9,158.2,137,160.8,144,164.2L144,164.2z"/>
</g>
<ellipse class="st4" cx="220.3" cy="260.7" rx="191.4" ry="108.3"/>
<ellipse class="st4" cx="118.9" cy="297" rx="51.7" ry="28.8"/>
<g>
	<path class="st0" d="M83.4,35c28.4,2,67.7,18.7,73.6,63.5c1.4,10.7,1.4,21.8,0.3,32.7c-3.4,3.3-7.1,6.2-10.2,9.3l-0.4-0.3
		c-2.5-2.7-4.7-4.8-6.9-7.5c-5.1-4.9-9.8-10.6-14.1-16.7c-5-8.6-8.3-17.6-10.2-27.1l18.3,2.5c-6.3-3.1-12.7-5.5-19.6-7.8
		c-4.2-5.7-6.9-12.4-8.8-19.5l24,4.8l-26.6-12.2C97.6,48.5,91,40.9,83.4,35z"/>
	<path class="st1" d="M135.3,68.5c3.8,5.8,6.8,11.7,9.2,17.8c5.1,12.5,6.9,25.9,5.5,39.3l0,0c0.1,0.3-0.3,0.4-0.6,0.5
		c-0.3,0.1-0.4-0.3-0.5-0.6l0,0c1.3-13.4-0.1-26.9-4.7-39.2C141.9,80.2,138.6,73.8,135.3,68.5c-3.4-6-7.7-10.7-13.4-14.5
		C127.3,57.5,132.1,62.4,135.3,68.5z"/>
	<path class="st2" d="M72.2,98.6c9.7,7.6,19.1,15.3,27.9,23.5l20.7-2l-14.2,6.3l11.3,10.6l20.7-0.8l-14.5,6.4c0,0,8.3,14.7,21,18.1
		c6.3,1.5,9.4,1.6,11.1,0l0.3-0.4c1-5.4,1.3-11,0-16.1c-1.6-9.4-5.4-18.4-11.6-25.9c-0.6-1-1.6-1.6-2.3-2.7l0,0
		c-0.5-0.3-0.6-0.6-1.1-0.9c-2.7-2.6-5.1-4.7-8-6.6c-6.1-3.9-12.7-6.6-19.8-8.5c-1.2-0.4-2.5-0.5-4.1-0.9c-2.8-0.5-5.8-0.9-8.6-1.5
		c-7.7-0.9-15.6-0.9-23.2,0.3C75.8,97.6,73.9,98.2,72.2,98.6L72.2,98.6L72.2,98.6z"/>
	<path class="st3" d="M72.9,98.2L72.9,98.2c21.4-0.6,42.9,5.9,60,19.4c10.1,8.9,21.5,33.3,22.5,43.8c0.3,0,0.6-0.2,1-0.6l0.3-0.4
		c1-5.4,1.3-11,0-16.1c-1.9-9.4-5.9-18.4-12-25.8c-0.6-1-1.6-1.6-2.3-2.7l0,0c-0.5-0.3-0.6-0.6-1.1-0.9c-2.7-2.6-5.1-4.7-8-6.6
		c-6.1-3.9-12.7-6.6-19.8-8.5c-1.2-0.4-2.5-0.5-4.1-0.9c-2.8-0.5-5.8-0.9-8.6-1.5c-7.7-0.9-15.6-0.9-23.2,0.2
		C75.9,97.7,73.9,98.2,72.9,98.2z"/>
	<path class="st1" d="M155.1,161.8L155.1,161.8c-1.4-7.5-3.8-14.8-7.2-21.8c-3.3-6.7-7.5-13.2-12.9-19c-2.6-2.9-5.7-5.3-8.9-7.4
		c-3.3-2-6.6-3.8-10-5.4c-6.6-3.2-14.1-5.9-21.6-7.7l0,0l0,0c7.9,1.1,15.1,3.3,22.2,6.7c7.1,2.9,13.3,7.7,19,13
		c5.4,5.7,9.3,12.2,12.7,19.3C151.4,147,153.5,154.2,155.1,161.8L155.1,161.8z"/>
</g>
<g>
	<path class="st0" d="M390.4,264.9c-1.2-6.4-1.1-13.3,0.8-20c0.6-2.4,5.4-12,8.6-6.1l2.5,5c-0.3-5.3,1-10.9,3-15.9
		c1.1-3.1,4-5.6,7.2-7.8c5.1-2.4,9.4-3,11-2c0.3,0.8,0.6,1.3,0.8,2.2l2.5,7.1c-0.1,0.4-0.2,0.7,0.2,0.7c0.7,0.8,0.6-0.7,0.7-1.1
		s-0.2-1.1,0-1.9c-0.1-1.7,0.7-3.1,1.6-4.7c3.9-4.8,12.4-6.2,18.1-6.8c10.3-1.2,8.2-3.7,18.2-1.3c-0.6,2.8-0.9,5.9-1.1,9.2
		c0.1,3.5-0.3,7.2-0.7,10.7c-0.1,2.5-1,4.5-2.4,6.2c-1.1,1.6-3.2,2.6-5.2,2.8c-2.1,0.7-4.3,0.8-6.2,1c-0.9,0.3-2.1,0.7-2.6,1.3
		c-0.1,0.5-0.3,1.2,0.5,1.8c0.9,0.1,1.3,0.4,2.2,0.5c3.1,0.6,6.2,1.3,6.9,3.8c0.4,2-0.5,4.8-2,6.6c-2.1,3-5,5.9-9.1,7.7
		c-5,2.1-11.1,0.3-16.9,1.3c-0.6,2.4,2.3,4.1,3.1,6.2c0.5,2.1-0.9,4.5-3.1,5.8c-4.6,2.4-10.3,3.6-15.9,3.5c-7.5,0.6-14.7,0-21.6-1.7
		c-1.7-0.5-2.9-0.9-4.6-2C381.8,273.2,391,271.2,390.4,264.9z"/>
	<path class="st5" d="M404,268.5c6.6,0.3,13.2,2,19.2,4.9l0,0c0.4,0.1,0.6-0.1,0.6-0.3c0.1-0.4-0.1-0.6-0.3-0.6l0,0l0,0
		c-5.7-2.9-11.7-4.4-18-5c13.4-8.2,26.2-20,29.8-26.3c0.3-0.3-0.1-0.6-0.3-0.6l0,0c-0.3-0.1-0.6,0-0.8,0.3c-3.3,6-16,18-29.1,26
		c2.8-6.4,3.3-13.5,1.3-20.4c0.1-0.3-0.2-0.2-0.5-0.2c-0.2,0.1-0.3,0.3-0.3,0.3l-0.1,0.3c1.9,6.9,1.2,14.3-1.7,20.6
		c-5.7,3.7-11.8,6.1-18.2,7.4c-0.2,0.1-0.3,0.3-0.3,0.3l-0.1,0.3c0,0.4,0.3,0.6,0.6,0.6C392.6,274.5,398.8,271.7,404,268.5z"/>
</g>
<g>
	<g>
		<path class="st6" d="M111.7,137.2c0,2.5,1.3,5,3.6,6.2l85.5,49.6c2.2,1,4.8,1,6.8,0l2.8-1.7c2.1-1.3,3.2-3.6,3.4-5.9v-129
			c-0.2-2.4-1.3-4.7-3.4-5.9L124.6,0.8c-2.2-1-4.8-1-6.8,0l-2.7,1.7c-2.1,1.3-3.2,3.6-3.4,5.9V137.2z"/>
		<path class="st7" d="M196.5,128.1V69c0-1.1-0.6-2.2-1.7-2.8l-39.2-22.7c-0.9-0.5-1.7-0.1-1.7,0.9v59.1c0,1.1,0.6,2.2,1.7,2.8
			l39.2,22.7C195.8,129.6,196.5,129.1,196.5,128.1z"/>
		<path class="st8" d="M114.9,2.6l2.8-1.7c2.2-1,4.8-1,6.8,0l85.7,49.8c1,0.5,1.8,1.5,2.4,2.5l-9.5,5.5c-0.5-1-1.3-2-2.4-2.5
			L115.3,6.5c-2.1-1.2-3.6,0-3.6,1.7C111.9,5.8,113.2,3.7,114.9,2.6z"/>
		<path class="st1" d="M117.4,97.6L117.4,97.6c0-0.9,0.5-1.3,1.1-0.9l80.4,46.4c0.6,0.3,1.1,1.3,1.1,2.2l0,0c0,0.9-0.5,1.3-1.1,0.9
			l-80.4-46.3C117.9,99.4,117.4,98.3,117.4,97.6z"/>
		<path class="st1" d="M117.4,111.6L117.4,111.6c0-0.9,0.5-1.3,1.1-0.9l80.4,46.4c0.6,0.3,1.1,1.3,1.1,2.2l0,0
			c0,0.9-0.5,1.3-1.1,0.9l-80.4-46.4C117.9,113.3,117.4,112.3,117.4,111.6z"/>
		<path class="st1" d="M117.4,125.3L117.4,125.3c0-0.9,0.5-1.3,1.1-0.9l80.4,46.4c0.6,0.3,1.1,1.3,1.1,2.2l0,0
			c0,0.9-0.5,1.3-1.1,0.9l-80.4-46.4C117.9,127.3,117.4,126.3,117.4,125.3z"/>
		<path class="st1" d="M118,57L118,57c0-0.9,0.6-1.5,1.3-1l31,17.9c0.7,0.3,1.2,1.5,1.2,2.5l0,0c0,0.9-0.6,1.5-1.3,1l-31-17.9
			C118.6,58.9,118,57.8,118,57z"/>
		<path class="st1" d="M117.4,81.6L117.4,81.6c0-0.9,0.6-1.5,1.3-1l31,17.9c0.7,0.3,1.2,1.5,1.2,2.5l0,0c0,0.9-0.6,1.5-1.3,1
			l-31-17.9C117.9,83.8,117.4,82.7,117.4,81.6z"/>
		<path class="st1" d="M117.7,69.3L117.7,69.3c0-0.9,0.6-1.5,1.3-1l31,17.9c0.7,0.3,1.2,1.5,1.2,2.5l0,0c0,0.9-0.6,1.5-1.3,1
			l-31-17.9C118.3,71.4,117.7,70.2,117.7,69.3z"/>
	</g>
	<path class="st9" d="M203.3,58.7l1.1,135.1l11.4-3.9c0,0,5.3-125.1-3.1-136.8"/>
	<g>
		<path class="st6" d="M206.9,194.2c0,2.5,1.3,5,3.6,6.2l85.5,49.6c2.2,1,4.8,1,6.8,0l2.8-1.7c2.1-1.3,3.2-3.6,3.4-5.9V113.6
			c-0.2-2.4-1.3-4.7-3.4-5.9l-85.9-49.8c-2.2-1-4.8-1-6.8,0l-2.7,1.7c-2.1,1.3-3.2,3.6-3.4,5.9L206.9,194.2L206.9,194.2z"/>
		<path class="st7" d="M291.6,185.1V126c0-1.1-0.6-2.2-1.7-2.8l-39.2-22.8c-0.9-0.5-1.7-0.1-1.7,0.9v59.1c0,1.1,0.6,2.2,1.7,2.8
			l39.2,22.7C290.9,186.7,291.6,186.2,291.6,185.1z"/>
		<path class="st8" d="M210.1,59.7l2.8-1.7c2.2-1,4.8-1,6.8,0l85.7,49.8c1,0.5,1.8,1.5,2.4,2.5l-9.5,5.5c-0.5-1-1.3-2-2.4-2.5
			l-85.5-49.7c-2.1-1.2-3.6,0-3.6,1.7C207,62.9,208.4,60.9,210.1,59.7z"/>
		<path class="st1" d="M212.5,154.6L212.5,154.6c0-0.9,0.5-1.3,1.1-0.9l80.4,46.4c0.6,0.3,1.1,1.3,1.1,2.2l0,0
			c0,0.9-0.5,1.3-1.1,0.9l-80.4-46.4C213,156.6,212.5,155.6,212.5,154.6z"/>
		<path class="st1" d="M212.5,168.5L212.5,168.5c0-0.9,0.5-1.3,1.1-0.9L294,214c0.6,0.3,1.1,1.3,1.1,2.2l0,0c0,0.9-0.5,1.3-1.1,0.9
			l-80.4-46.4C213,170.4,212.5,169.4,212.5,168.5z"/>
		<path class="st1" d="M212.5,182.5L212.5,182.5c0-0.9,0.5-1.3,1.1-0.9L294,228c0.6,0.3,1.1,1.3,1.1,2.2l0,0c0,0.9-0.5,1.3-1.1,0.9
			l-80.4-46.4C213,184.3,212.5,183.4,212.5,182.5z"/>
		<path class="st1" d="M213.2,114.1L213.2,114.1c0-0.9,0.6-1.5,1.3-1l31,17.9c0.7,0.3,1.2,1.5,1.2,2.5l0,0c0,0.9-0.6,1.5-1.3,1
			l-31-17.9C213.8,116.2,213.2,114.9,213.2,114.1z"/>
		<path class="st1" d="M212.5,138.8L212.5,138.8c0-0.9,0.6-1.5,1.3-1l31,17.9c0.7,0.3,1.2,1.5,1.2,2.5l0,0c0,0.9-0.6,1.5-1.3,1
			l-31-17.9C213,140.8,212.5,139.8,212.5,138.8z"/>
		<path class="st1" d="M212.8,126.3L212.8,126.3c0-0.9,0.6-1.5,1.3-1l31,17.9c0.7,0.3,1.2,1.5,1.2,2.5l0,0c0,0.9-0.6,1.5-1.3,1
			l-31-17.9C213.4,128.6,212.8,127.4,212.8,126.3z"/>
	</g>
	<path class="st9" d="M298.7,115.1l1.1,135.1l11.4-3.9c0,0,5.3-125.1-3.1-136.8"/>
	<g>
		<path class="st6" d="M302.4,250.2c0,2.5,1.3,5,3.6,6.2l85.5,49.6c2.2,1,4.8,1,6.8,0l2.8-1.7c2.1-1.3,3.2-3.6,3.4-5.9V169.4
			c-0.2-2.4-1.3-4.7-3.4-5.9l-85.9-49.7c-2.2-1-4.8-1-6.8,0l-2.7,1.7c-2.1,1.3-3.2,3.6-3.4,5.9L302.4,250.2L302.4,250.2z"/>
		<path class="st7" d="M387.1,241.1V182c0-1.1-0.6-2.2-1.7-2.8l-39.2-22.7c-0.9-0.5-1.7-0.1-1.7,0.9v59.1c0,1.1,0.6,2.2,1.7,2.8
			l39.2,22.7C386.4,242.5,387.1,242.1,387.1,241.1z"/>
		<path class="st8" d="M305.6,115.4l2.8-1.7c2.2-1,4.8-1,6.8,0l85.7,49.8c1,0.5,1.8,1.5,2.4,2.5l-9.5,5.5c-0.5-1-1.3-2-2.4-2.5
			L306,119.5c-2.1-1.2-3.6,0-3.6,1.7C302.6,118.9,303.9,116.8,305.6,115.4z"/>
		<path class="st1" d="M308.1,210.5L308.1,210.5c0-0.9,0.5-1.3,1.1-0.9l80.4,46.4c0.6,0.3,1.1,1.3,1.1,2.2l0,0
			c0,0.9-0.5,1.3-1.1,0.9l-80.4-46.4C308.6,212.4,308,211.6,308.1,210.5z"/>
		<path class="st1" d="M308.1,224.5L308.1,224.5c0-0.9,0.5-1.3,1.1-0.9l80.4,46.4c0.6,0.3,1.1,1.3,1.1,2.2l0,0
			c0,0.9-0.5,1.3-1.1,0.9l-80.4-46.6C308.6,226.4,308,225.3,308.1,224.5z"/>
		<path class="st1" d="M308.1,238.3L308.1,238.3c0-0.9,0.5-1.3,1.1-0.9l80.4,46.4c0.6,0.3,1.1,1.3,1.1,2.2l0,0
			c0,0.9-0.5,1.3-1.1,0.9l-80.4-46.3C308.6,240.4,308,239.2,308.1,238.3z"/>
		<path class="st1" d="M308.7,170.1L308.7,170.1c0-0.9,0.6-1.5,1.3-1l31,17.9c0.7,0.3,1.2,1.5,1.2,2.5l0,0c0,0.9-0.6,1.5-1.3,1
			l-31-17.9C309.3,172.2,308.7,170.9,308.7,170.1z"/>
		<path class="st1" d="M308,194.8L308,194.8c0-0.9,0.6-1.5,1.3-1l31,17.9c0.7,0.3,1.2,1.5,1.2,2.5l0,0c0,0.9-0.6,1.5-1.3,1l-31-17.9
			C308.6,196.8,308,195.8,308,194.8z"/>
		<path class="st1" d="M308.4,182.3L308.4,182.3c0-0.9,0.6-1.5,1.3-1l31,17.9c0.7,0.3,1.2,1.5,1.2,2.5l0,0c0,0.9-0.6,1.5-1.3,1
			l-31-17.9C308.9,184.4,308.4,183.4,308.4,182.3z"/>
	</g>
	<g>
		<path class="st10" d="M250,238.8L250,238.8c0.1,0,0.2-0.1,0.2-0.2l3.2-5.6v-4.4l-7.5-4.4v4.4l2.5,7.1l-3.1,5.8L250,238.8z"/>
		<path class="st11" d="M232.6,223.8c0.1,1.6,0.9,3,2.3,3.9l6.2,3.6l3.4,9.8c0.1,0.1,0.2,0.2,0.2,0.2c0.2,0.2,0.5,0.1,0.6-0.2
			l3.2-5.6l5.8,3.3c1.3,0.7,3.1,0.7,4.4,0l1.9-1c1.3-0.9,2.2-2.3,2.3-3.9v-22.6c-0.1-1.6-0.9-3-2.3-3.9l-19.4-11.2
			c-1.3-0.7-3.1-0.7-4.4,0l-1.9,1c-1.3,0.9-2.2,2.3-2.3,3.9L232.6,223.8L232.6,223.8z"/>
		<path class="st10" d="M262.9,211.6c0-0.7-0.2-1.6-0.6-2.2l-6.3,3.6c0.4,0.6,0.6,1.3,0.6,2.2v22.6c0,1.3-0.8,1.9-1.9,1.5
			c1.3,0.5,2.8,0.5,4.1-0.2l1.9-1c1.3-0.9,2.2-2.3,2.3-3.9L262.9,211.6z"/>
		<path class="st12" d="M234.9,197.4l1.9-1c1.3-0.7,3.1-0.7,4.4,0l19.5,11.3c0.6,0.4,1.2,0.9,1.7,1.7l-6.3,3.6
			c-0.4-0.7-0.9-1.3-1.7-1.7l-19.5-11.3c-1-0.6-2-0.3-2.2,0.6C232.9,199.2,233.7,198.1,234.9,197.4z"/>
	</g>
	<g>
		<path class="st10" d="M149.7,180.5L149.7,180.5c0.1,0,0.2-0.1,0.2-0.2l3.2-5.6v-4.4l-7.5-4.4v4.4l2.5,7.1l-3.1,5.8L149.7,180.5z"
			/>
		<path class="st11" d="M132.4,165.4c0.1,1.6,0.9,3,2.3,3.9l6.2,3.6l3.3,9.8c0.1,0.1,0.2,0.2,0.2,0.2c0.2,0.2,0.5,0.1,0.6-0.2
			l3.2-5.6l5.8,3.3c1.4,0.7,3.2,0.7,4.6,0l1.9-1c1.3-0.9,2.2-2.3,2.3-3.9V153c-0.1-1.6-0.9-3-2.3-3.9L141,137.7
			c-1.4-0.7-3.2-0.7-4.6,0l-1.9,1c-1.3,0.9-2.2,2.3-2.3,3.9L132.4,165.4z"/>
		<path class="st10" d="M162.8,153.2c0-0.7-0.2-1.6-0.6-2.2l-6.3,3.6c0.4,0.6,0.6,1.3,0.6,2.2v22.7c0,1.3-0.8,1.9-1.9,1.5
			c1.3,0.5,2.8,0.5,4.1-0.2l1.9-1c1.3-0.9,2.2-2.3,2.3-3.9L162.8,153.2z"/>
		<path class="st12" d="M134.5,139l1.9-1c1.4-0.7,3.2-0.7,4.6,0l19.5,11.3c0.6,0.4,1.2,0.9,1.7,1.7l-6.3,3.6
			c-0.4-0.7-0.9-1.3-1.7-1.7l-19.5-11.3c-1-0.6-2-0.3-2.2,0.6C132.7,140.8,133.5,139.7,134.5,139z"/>
	</g>
	<g>
		<path class="st10" d="M346.7,295.2L346.7,295.2c0.1,0,0.2-0.1,0.2-0.2l3.2-5.6v-4.4l-7.5-4.4v4.4l2.5,7.1l-3.1,5.8L346.7,295.2z"
			/>
		<path class="st11" d="M329.4,280.4c0.1,1.6,0.9,3,2.3,3.9l6.2,3.6l3.4,9.8c0.1,0.1,0.2,0.2,0.2,0.2c0.2,0.2,0.5,0.1,0.6-0.2
			l3.2-5.6l5.8,3.3c1.4,0.7,3.2,0.7,4.6,0l1.9-1c1.3-0.9,2.2-2.3,2.3-3.9V268c-0.1-1.7-0.9-3-2.3-3.9L338,252.7
			c-1.4-0.7-3.2-0.7-4.6,0l-1.9,1c-1.3,0.9-2.2,2.3-2.3,3.9L329.4,280.4L329.4,280.4z"/>
		<path class="st10" d="M359.8,290.7l-0.1-22.6c0-0.7-0.2-1.6-0.6-2.2l-6.3,3.6c0.4,0.6,0.6,1.3,0.6,2.2v22.6c0,1.2-0.8,1.9-1.9,1.5
			c1.3,0.5,2.8,0.5,4.1-0.2l1.9-1C358.8,293.6,359.7,292.2,359.8,290.7L359.8,290.7z"/>
		<path class="st12" d="M331.6,253.9l1.9-1c1.4-0.7,3.2-0.7,4.6,0l19.5,11.3c0.6,0.4,1.1,1,1.6,1.7l-6.3,3.6
			c-0.3-0.7-0.9-1.3-1.6-1.7l-19.6-11.3c-1-0.6-2-0.3-2.2,0.6C329.8,255.8,330.5,254.6,331.6,253.9z"/>
	</g>
	<g>
		<path class="st13" d="M92.1,163.1l-9,12.8l9.2,15.2l-4.2,5.1c0,0-14.8-15.2-15.2-18.8c-0.4-3.5,7-18,9.3-23.2
			c2.5-5.3,5.4-7.3,11.2-7.3L92.1,163.1z"/>
		<path class="st14" d="M88.8,168.5c-7-0.9-9.6-8.5-9.6-8.5s2.6-6.9,5.3-10.3c2.7-3.3,8.4-2.8,8.4-2.8S95.9,169.6,88.8,168.5z"/>
		<path class="st10" d="M115,303.6c3,3.2,11.5,6,11.5,6c7.1,2.3,6.8,3.7,6.3,4.8c-0.5,1-3.2,2.5-5.8,2.8c-2.2,0.2-6.6-0.2-8.7-1.3
			c-2.1-1.1-5.1-2.4-6.9-2.4c-3,0.1-5-0.5-5.4-1.7c-0.4-1-0.1-3.3,0.2-4.8c0.4-1.7,1-3.6,1-3.6L115,303.6z"/>
		<path class="st13" d="M107.3,303.7c0,2.5,1.3,4.6,3.5,5.5c2.1,0.9,11.2,4,14.1,3.7c2.9-0.3,3.9-2,2.8-2.9l-1.1-0.4
			c-0.1,0-6.2-2.1-9.8-4.6c-1-0.7-1.7-2.1-1.7-3.3v-0.5l-7.5-0.2C107.4,301.1,107.5,302.7,107.3,303.7z"/>
		<path class="st10" d="M93.4,285.7c0.6-0.2,1.3-0.6,2.1-1c2.3-1.9,3.8-2.4,5.5-1.8c1.7,0.5,2.3,1.7,1.7,4c-0.6,2.8-2.6,4.6-4.3,6.5
			c-2.1,2.3-3,3.8-4.3,5.7c-1.1,1.5-3.7,1.8-5.6,1.3c-1.9-0.5-1.6-3.2-1.6-4.8c0-2.1,0.1-3,0.6-3.2
			C88.1,292.3,91.8,286.1,93.4,285.7z"/>
		<path class="st13" d="M94.4,288.1c0,0-0.4,4.8-0.5,5.1c-4.7,3.2-6.3,0-6.3,0l-0.1-2.5L94.4,288.1z"/>
		<path class="st13" d="M91.7,287.1l-0.7,5.8c0,0,0.7,1.3,2.8,0.2c2.2-1.6,4.1-3.4,5.6-5.7c1.8-2.7-2.2-3.3-4-2.8l0,0
			c-0.5,0.4-1.3,0.8-2.1,1C92.8,286.1,92.2,286.5,91.7,287.1z"/>
		<path class="st13" d="M87.5,290.5c0.4,5.4,2.8,1.1,7-1.2c0,0,2.1-19.6,3.2-28.9c1.3-10.8,3-16.5,3.2-22.2c0.2-5.8,1-14.3,1-14.3
			c0.6,4.3,3.4,30.9,3.4,30.9c-1.3,4.8-2.1,9.6-2.2,14.6c-0.1,6.6,3.9,25.9,4.2,31.9c0.2,6.1,3.3,2.7,7.5,0.3c0,0,2.3-19.6,3.6-28.9
			c1.8-12.2,2.5-15.7,2.8-21.4c0.2-5.8,1.7-25.4-2.6-54c-2-13.1-32.3-8.9-32.3-8.9c-3.5,8.6-5.6,9.7-3.4,34.8
			c0.9,10.6,1.9,21.8,1.9,21.8s-1.9,3.6-1.9,11.8C83,264.8,87.1,285.1,87.5,290.5z"/>
		<path class="st8" d="M100.9,240.3l-0.7-13.4l-1.8-12.8c-5.8-1.3-8-4.6-8-4.6c3,1.9,6.4,3,9.9,3.4l1.7,11L100.9,240.3z"/>
		<polygon class="st13" points="95.7,139.7 94.8,153.3 105.8,154 106.9,141.6 		"/>
		<path class="st15" d="M123.2,256.1c2.5-2.6-2.2-39.6-2.9-47.4c-0.7-7.8-2.1-16.8-2.1-16.8s-26.4-6.9-32.5-1.6
			c-6.1,5.4-3.3,22-2.9,28.5C83.2,225.3,85,245,85,245c-3.6,5.4-1.8,8.9-1.8,13.9c0,5,4.3,31.6,4.3,31.6l7.9-5.9l0.1-4.4
			c0.1-0.2,2.8-22.1,4.4-26.1c2.9-7.8,2.1-30.3,2.1-30.3l3.4,30.8c0,0-4,10.2-3.5,14.4c0.5,4.3,5.5,32.2,5.5,32.2l7.5,0.3
			C115,301.7,120.8,258.6,123.2,256.1z"/>
		<path class="st16" d="M89.2,179.4l-0.8,4.4c-1.8,4.4-5.7,8-6.7,12.5c-0.4-0.8,5.7,6,17.5,7.6c13.2,1.7,20.9-1,20.9-1
			s-2-9.1-2.4-19.8c0.8-7.4,1.2-11.4,1-14.9c-0.4-10.5-2.1-17.2-6-18.4l-2.5-0.3c-1.1-0.2-3.2-0.5-3.9-0.7
			c-5.3,1.8-10.8,0.3-11.1-1.5l-1.9-0.1c-5,0.1-7.2,2-8.4,5.2C83.2,156.9,83.1,164.2,89.2,179.4z"/>
		<path class="st17" d="M88.5,184.1c0,0,0.5,3.2,10,5.6s19.4-2.5,19.4-2.5c0-1.5-0.1-2.9-0.2-4.4c0,0-8.8,4.6-21,1.5
			c-6.2-1.6-7.3-5.1-7.3-5.1C88.8,181,88.5,184.1,88.5,184.1z"/>
		<path class="st13" d="M114.2,168.7c3.3,5.5,7.4,10.5,12.3,14.8c4.9,4.5,17.4,7.6,24,8.9c6.6,1.3,12.7,0.3,16-3.5
			c3.2-3.8,1.8-8.8-0.7-7.1c-2.5,1.7-8.1,2.5-8.2,1.8c-0.2-0.7,3.2-2.9,1.8-3.8c-1.4-0.9-4.3,2.2-7.2,2.7
			c-2.9,0.5-15.4-3.8-18.6-7.2c-3-3.2-7.3-10.9-11.8-19.5c-2.5-4.7-6.3-5.9-11.5-6.5C110.2,149.1,105.8,158.2,114.2,168.7z"/>
		<path class="st14" d="M109.4,162.3c0.9,2.6,2.5,4.8,4.8,6.4c8.8-2.5,10.5-8.4,10.5-8.4s-2.8-5.5-5.9-8.6c-3.1-3.1-9.4-2.6-9.4-2.6
			C108.3,150.9,107.9,157.6,109.4,162.3z"/>
		<path class="st10" d="M119.8,120.9c-0.9,1.3-2.2,2.4-3.6,3c-2.2,1-3.9,2.1-5.2,4.1c-0.4,0.6-0.7,1.3-1.2,1.9
			c-0.2,0.3-1.3,1.2-1.3,1.7l-7.4,9.1c0.2-4.1-13.8-8.1-13.5-14.2c0-1.5,0.2-2.9,0.4-4.4c0.2-1.2,0.8-2.5,1-3.7
			c0.4-2-0.5-4.4,0.2-6.2c0.7-1.7,3.2-2.5,4.8-2.1c0.4-1.3,1.3-2.5,2.5-3.2c2.6-1.7,6-0.7,7.5,1.9c0.5-0.9,1.2-1.6,2.2-1.9
			c1.6-0.7,3.4-0.8,5.1-0.2c2.2,0.9,3.3,3.2,2.9,5.6c0.2-0.1,0.5-0.2,0.8-0.2c2.8-0.5,5.6,1.3,6.1,4.3c0.1,0.5,0.1,1.1,0,1.7
			C120.8,119.1,120.4,120,119.8,120.9z"/>
		<path class="st18" d="M115.3,133.1c0.6-0.2,1.3-0.4,1.9-0.8c0.3-0.4-2.1-3.9-2.1-3.9L115.3,133.1z"/>
		<path class="st13" d="M94.1,118.6c-3.8,2.8-3.2,9.8,0.2,15.2c2.8,4.6,8.8,7.5,11.5,8.3c2.2,0.6,6.4,0.4,7.2-0.4
			c1.2-1.2,3.2-4.3,2.1-13.1c-1-8.5-5.1-10.8-7.4-11.9C105.6,115.8,99.4,114.7,94.1,118.6z"/>
		<path class="st10" d="M107.8,115.9c-4.3-2.1-9.4-2.5-14.2-1.3c-0.4,0.1-0.7,0.2-1,0.3c-9.7,3.2-9.3,13.4-2.8,20.2
			c2,2.1,4.3,4.5,5.9,6.3c3.9,1.3,8.2-0.1,8.2-0.1c3.8-1.8,3.9-6.2,3.9-6.2c-1.6,0.5-3.2,0.2-4.3-0.9c-2.2-1.9-2.5-5.5,0.3-6.3
			c2.1-0.6,3,1,4.4,2.1c0.2,0.1,0.2,0.1,0.4,0.1c0.1-0.1,0.1-0.1,0.2-0.2c1-0.8,1.8-1.9,2.2-3.1c0.3-1,0.1-2.2-0.5-3.1
			c1.2-0.5,2.1-1.8,2.2-3.1c0-0.5-0.1-0.9-0.2-1.3c-0.2-0.5-0.5-0.9-0.9-1.2c-0.8-0.6-1.8-1.1-2.8-1.6
			C108.3,116.3,107.9,116.2,107.8,115.9z"/>
		<path class="st10" d="M107.5,129.1c1-0.4,2.3,0.2,2.7,1.2l0,0c0.3,1-0.2,2.3-1.3,2.6L107.5,129.1z"/>
		<path class="st14" d="M150.4,192.4c-11.2-2.1-16.1-3.6-22.1-6.8c-5.5-3-16.8-19.4-16.8-19.4l13.1-5.9l8.8,14.9
			c5.6,4,15.9,6.6,15.9,6.6C152,184.1,151.9,192.7,150.4,192.4z"/>
		<path class="st14" d="M84.5,163.3l2,8.1l-3.2,4.6l5.4,8.1l-4.9,7.6l-3-3.3c0,0-9-7.3-8.8-10.1c0.2-2.8,7.2-18.1,7.2-18.1
			L84.5,163.3z"/>
	</g>
	<g>
		<ellipse class="st10" cx="269.2" cy="132.4" rx="16.3" ry="16.4"/>
		<path class="st19" d="M272.7,134.6c0.9-0.8,1.8-1.7,2.5-2.7c0.2,0,0.2,0,0.3,0c0.7,0,1.3,0.6,1.3,1.5c0.1,1.7-2.6,2.8-2.6,2.8
			C273.5,136.6,271.8,135.1,272.7,134.6z"/>
		<path class="st20" d="M282.9,156.4L282.9,156.4L282.9,156.4c3.9,0.8,6.8,1.9,8.9,11.4v19.6l0,0l-1.9-1l-2.3-1.3l-2.8-1.7l-1.6-7.4
			h-0.1c0,0,0,0-0.1-0.1c-0.2-0.1-0.3-0.2-0.5-0.5c-0.9-0.8-2.4-2.3-3.6-4.3c-1.2-1.8-2.3-4-2.7-6.5
			C275.4,159.2,281.9,156.7,282.9,156.4z"/>
		<path class="st19" d="M255,154.8c1.9-1.9,2.8-2.1,5.2-2l0,0l-0.1,4l-0.1,4.9l-0.2,6.9l-3.6-2.1l-2.5-1.3l-1.2-0.7
			c-0.1,0-0.1,0-0.2-0.1c-0.1,0.2-0.2,0.2-0.2,0.3V158C253.1,156.9,253.9,155.9,255,154.8z"/>
		<path class="st8" d="M255,154.8c1.9-1.9,2.8-2.1,5.2-2l0,0l-0.1,4l-0.1,4.9l-0.2,6.9l-3.6-2.1l-2.5-1.3l-1.2-0.7
			c-0.1,0-0.1,0-0.2-0.1c-0.1,0.2-0.2,0.2-0.2,0.3V158C253.1,156.9,253.9,155.9,255,154.8z"/>
		<path class="st19" d="M253.8,162.1c1.7-3.3,3.8-6.3,6.4-8.9l2.5,0.2l2.2,0.2h0.2l10.2,1.2h0.1l5.1,1.2l2.7,0.6h0.1h0.1
			c-5.5,7.8-0.4,18.4,0.2,19.5c0.1,0.1,0.1,0.1,0.1,0.1l-0.3,0.9l-1.3,4.5l-0.1-0.1l-1.3-0.7l-2-1.1l-4.2-2.5l-0.9-0.5l-13.4-7.8
			l-3.6-2.1l-2.5-1.3l-1.2-0.7c-0.1,0-0.1,0-0.2-0.1C253.1,163.3,253.4,162.6,253.8,162.1z"/>
		<path class="st21" d="M275.6,174c0,0-0.2,1.7-1.4,3.1l-0.9-0.5C275,175.6,275.5,174.2,275.6,174z"/>
		<path class="st21" d="M278.8,178.5c0.8-2.3,0.3-4.8,0.1-7.2c-0.2-1.9-0.1-3.7,0.2-5.6c0.1-1.6,0.6-3,1.4-4.4
			c0.2-0.2,0.2-0.4,0.4-0.5c-1.8,6.6,1.4,13.8,2.1,15.1c0.1,0.1,0.1,0.2,0.1,0.2l-0.2,0.8l-1.3,4.6l-1.3-0.7l-2-1.2
			C278.5,179.2,278.7,178.9,278.8,178.5z"/>
		<path class="st19" d="M280.1,163.7c0.1-0.9,0.2-1.8,0.4-2.5c0.7-3.1,2.1-4.5,2.4-4.8c0.1-0.1,0.1-0.1,0.1-0.1l0,0
			c1.3,0,2.8,0.3,3.9,1.1c2.1,1.3,3.2,2.8,4.8,8.7v19c0,0-0.5,0.6-1.9,1.1l-2.3-1.3l-2.8-1.7l-0.4-0.2c-0.4-2.1-1-4.5-1.3-6
			c0-0.1,0-0.1,0-0.2c-0.2-0.8-0.3-1.3-0.3-1.3s-0.1-0.1-0.1-0.2C280.7,171.9,279.9,167.8,280.1,163.7z"/>
		<path class="st8" d="M280.1,163.7c0.1-0.9,0.2-1.8,0.4-2.5c0.7-3.1,2.1-4.5,2.4-4.8c0.1-0.1,0.1-0.1,0.1-0.1l0,0
			c1.3,0,2.8,0.3,3.9,1.1c2.1,1.3,3.2,2.8,4.8,8.7v19c0,0-0.5,0.6-1.9,1.1l-2.3-1.3l-2.8-1.7l-0.4-0.2c-0.4-2.1-1-4.5-1.3-6
			c0-0.1,0-0.1,0-0.2c-0.2-0.8-0.3-1.3-0.3-1.3s-0.1-0.1-0.1-0.2C280.7,171.9,279.9,167.8,280.1,163.7z"/>
		<path class="st20" d="M265.9,135.4c5.1,2.8,8.9,2.7,8.9,2.7c0.2-0.3,0.4-0.6,0.6-0.9c1.3-1.3,3.4-1.5,4.8-0.2
			c1.6,1.6,0.8,4.4-1.1,6.1c-2.4,2.1-3.7,0.6-3.7,0.6l-0.1,11.2c0,0-0.7,1.2-3.7,3.4c-6.1,4.6-9.3,2.9-9.6,0.8c-0.2-2.1,3-5.8,3-5.8
			v-3.8c-2.4,0.4-4.8,0.6-6.1,0.2c-1.3-0.5-3.7-2.5-3.9-10.3c-0.1-9.2,1.3-11.9,2.4-13.1C257.6,129.4,260.8,132.6,265.9,135.4z"/>
		<path class="st20" d="M264.9,153.3l-2.4-0.2c-5.9,7.1-3.7,11.3,4.1,10.7c7.9-0.6,13.5-8,13.5-8l-5.2-1.3L264.9,153.3z"/>
		<path class="st10" d="M281.1,142.6c-0.1,0.1-0.1,0.2-0.2,0.2c-0.2,0.3-0.3,0.5-0.5,0.7c-1.3,1.5-3.6,1.7-5.1,0.2l0,0
			c0,2.3-0.1,4-1.6,5.1c-0.9,0.5-2.1,0.7-3.1,0.4c0,0,2.9,3.2,8.9-0.5c6.6-4.4,5.9-12.4,5.9-16.4
			C285.4,132.4,282.8,139.1,281.1,142.6z"/>
		<path class="st10" d="M264.9,136.2c0.5,0,0.9,0.5,0.9,0.9c0,0.5-0.4,0.9-0.9,0.9s-0.9-0.4-0.9-0.9
			C264,136.6,264.4,136.2,264.9,136.2z"/>
		<path class="st22" d="M262.9,145.5C262.8,145.5,262.8,145.5,262.9,145.5c-0.8,0.2-1.6-0.2-1.7-0.9l2.6-0.8
			C264,144.5,263.6,145.2,262.9,145.5z"/>
		<path class="st10" d="M256.1,132.6L256.1,132.6c0.5-0.4,1.3-0.2,1.7,0.3l-2.1,1.3C255.3,133.8,255.4,133.1,256.1,132.6z"/>
		<path class="st10" d="M257.1,135.7L257.1,135.7c0.5,0,0.9,0.5,0.9,1c-0.1,0.5-0.5,0.9-1,0.9l0,0c-0.5,0-0.9-0.5-0.9-1
			C256.1,136.1,256.5,135.7,257.1,135.7z"/>
		<polygon class="st22" points="257.7,141.1 260.8,142.1 260.7,135.7 		"/>
		<path class="st22" d="M264.8,150.9c0,0,5.1-1.5,6.6-2.8c0.8-0.6,1.4-1.6,1.8-2.6c-0.8,2.1-5.9,3.5-8.5,3.8v1.6H264.8z"/>
		<path class="st10" d="M274.7,137.2c-1,0.1-1.8,0.9-1.9,1.9c0,1.1,0.8,2.1,1.9,2.1V137.2z"/>
	</g>
	<g>
		<path class="st11" d="M166.3,94.5c0.2,0,0.4,0,0.5,0c0.2,0,0.2,0,0.4,0l-1.3,3.6l-4.6,11.5l-1.1-0.6l-2.5-1.3l-0.7-0.4l-0.5-0.2
			c-0.1,0-0.1,0-0.2-0.1c-0.1,0-0.1-0.1-0.2-0.1c-0.8-0.6-1.3-1.7-1.3-2.7v-0.2C156.9,98.8,160.6,94.7,166.3,94.5z"/>
		<path class="st12" d="M165.9,94.9L165.9,94.9c0.2-0.1,0.3-0.2,0.5-0.2c0.1,0,0.1,0,0.2,0c0.5-0.1,1.3-0.1,2.4,0h0.1
			c3.2,0.2,8.3,0.7,10,0.9c0.2,0.1,0.4,0.1,0.5,0.1c0.1,0,0.2,0,0.2,0l5.7,1.8l0.2,0.1l0,0c1.4,0.6,2.4,2.9,2.9,4.5
			c0.9,2.5,1.4,5,1.7,7.6l-0.5,16.5v0.8l-0.1-0.9l-0.8-0.5l-0.4-0.2l-0.3-0.2l-0.6-0.3l-1.8-1h-0.1l-1.3-0.7l-2-1.1l-4.2-2.5
			l-0.9-0.5l-6.2-3.6c0,0.2-0.1,0.2-0.1,0.4c-0.1,0.1-0.2,0.2-0.2,0.1c-0.1-0.2-0.2-0.5-0.2-0.7l-2.5-1.5c0,0.2,0,0.3,0,0.5
			c-0.1,0.5-0.2,1.2-0.3,1.8c-0.2,0.5-0.2,1.1-0.3,1.7c0,0.2-0.1,0.5-0.1,0.8v0.9c-0.1,0.2-0.3,0.4-0.5,0.2
			c-0.2-0.5-0.2-1.2-0.2-1.9c0-0.5,0.2-1.2,0.2-1.8c0.2-0.6,0.2-1.3,0.3-2.1c0-0.2,0-0.4,0-0.6l-3.3-2l-2.4-1.3l-1.1-0.6l-2.5-1.3
			l-0.7-0.4v-1.3C157.2,100.7,161,96.3,165.9,94.9z"/>
		<path class="st11" d="M166.4,117.5c0-0.5,0.2-1.2,0.2-1.8c0.2-0.6,0.2-1.3,0.3-2.1c0-0.2,0-0.4,0-0.6c-0.1-0.5-0.2-0.9-0.2-1.3
			c-0.3-2.3-0.5-4.9,1.2-6.6c0.2-0.2,0.7-0.2,0.5,0.2c-0.5,1-0.9,2.2-1.1,3.3c-0.1,1.2,0.1,2.4,0.2,3.6c0.1,0.5,0.2,0.9,0.2,1.5
			c0,0.2,0,0.3,0,0.5c-0.1,0.5-0.2,1.2-0.3,1.8c-0.2,0.5-0.2,1.1-0.3,1.7c0,0.2-0.1,0.5-0.1,0.8v0.9c-0.1,0.2-0.3,0.4-0.5,0.2
			C166.4,118.9,166.3,118.2,166.4,117.5z"/>
		<path class="st11" d="M168.6,106.9c0.1-0.5,0.3-1.6,0.9-1.7c0.1,0,0.2,0.1,0.2,0.2c-0.2,0.3-0.2,0.5-0.3,0.9
			c-0.1,0.3-0.1,0.6-0.1,1c0,0.7,0.1,1.3,0.2,2.1c0.2,0.9,0.8,1.8,1,2.8c0.3,0.9,0.4,2,0.2,3c0,0.2-0.1,0.2-0.1,0.4
			c-0.1,0.1-0.2,0.2-0.2,0.1c-0.1-0.2-0.2-0.5-0.2-0.7c-0.1-0.5-0.1-0.9-0.1-1.3c-0.1-0.5-0.2-1.2-0.4-1.8c-0.4-0.8-0.7-1.7-0.9-2.6
			C168.6,108.6,168.6,107.7,168.6,106.9z"/>
		<path class="st10" d="M176.8,72.1c0-5.4-4.3-9.6-9.6-9.6s-9.6,4.4-9.6,9.6s4.3,9.6,9.6,9.6S176.8,77.4,176.8,72.1L176.8,72.1z"/>
		<path class="st10" d="M179.8,83.8l-0.1,5.1c0.8-0.2,1.6-0.8,2-1.6c0.6-1.2,2.2-8.5,2.2-8.5L179.8,83.8z"/>
		<path class="st10" d="M181.8,68.5c-0.1,0.6-0.1,1.3-0.1,2.1c-0.1,0.5-0.2,0.9-0.2,1.5c-0.1,1.1-0.2,2.2-0.3,3.3l-0.3,4
			c0.5-0.2,1.2-0.2,1.9-0.2c0.4,0,0.8-0.1,1.1-0.2c0.5-0.4,0.9-0.8,1.3-1.3c0.5-0.4,0.9-1,1.1-1.7c0.3-0.9-0.1-2-0.9-2.4
			c0.9-0.7,1.7-1.8,1.7-3c-0.1-0.9-0.5-1.7-1.1-2.3c-0.7-0.5-1.6-0.9-2.5-0.9c-0.2-0.1-0.5,0-0.9,0.1C182.2,67.5,182,68,181.8,68.5
			L181.8,68.5z"/>
		<path class="st13" d="M176.4,66.1c-5.5-3.5-15.8-3.4-16.9,5.5c-0.9,8.1-0.5,11.4,0.6,15.6c0.7,2.6,2.2,4.5,4.6,4.8
			c1.4,0.1,2.8,0,4.3-0.2v4.7c-4.7,5.4,6.5,5.8,10.4,0.6l0,0l0.2-13.1c0,0,0.5,2.1,3.7,1c1.9-0.5,4.1-3.9,2.9-6.5
			c-1.2-2.5-3.6-1.5-4.3-0.7c-0.6,0.7-1.6,1.9-2.1,1.6C180,79.2,182,69.6,176.4,66.1z"/>
		<path class="st11" d="M181,99.8c2.8-2.5,4.4-2.1,4.4-2.1l2.4,0.2c0,0,0-0.5-1.7-2.2c-1.7-1.7-6.4-2.5-6.4-2.5v1.7
			c-2.7,3.8-6.2,7.1-10.2,9.2C171.6,105.9,177.3,103.2,181,99.8z"/>
		<path class="st11" d="M169.3,92.6c-1.8,0.4-3.2,1.5-3.3,2.7c-0.2,1.2-0.7,5.1,1.3,7.5c1.2,1.3,2.2,1.3,2.2,1.3
			c-0.5-1.7-0.9-3.3-0.9-5.1c0-1,0.2-2.1,0.6-3v-2.5L169.3,92.6z"/>
		<path class="st10" d="M182.1,73.8c0.1,0.3,0.1,0.5,0.2,0.9c0,0.5,0.1,0.9,0,1.5c-0.1,0.5,0,1.3-0.4,1.7c-0.6,0.5-1.8,3.1-2.8,2.4
			c-0.2-0.2-0.4-0.5-0.5-0.9c-0.2-0.9-0.2-1.8,0-2.7c-0.9-0.1-1.6-0.7-1.7-1.7s0.2-1.7,0.6-2.4c-1,0.2-2.2,0.3-3.3,0.1
			c-1-0.2-2-1.2-2.1-2.4c-0.6,0.7-1.6,1.1-2.5,1.3s-2,0-2.8-0.5c-0.4-0.3-0.8-0.7-1-1.2c-0.5,0.5-1.1,0.9-1.9,1
			c-2,0.4-3.8-0.8-4.2-2.8c-1.2,0.2-2.5-0.2-3.2-1.1c-0.5-0.7-0.8-1.7-0.6-2.6c0.1-1.7,1.3-3.1,2.9-3.5c0.9-0.2,1.9-0.2,2.8,0.2
			c0.2-0.2,0.2-0.5,0.3-0.7c0.2-0.2,0.3-0.5,0.5-0.7c0.4-0.4,0.9-0.7,1.4-0.9c1.2-0.5,2.5-0.3,3.5,0.4c0.8-0.9,2.1-1.3,3.2-1.2
			c1.2,0.2,2.2,1.2,2.5,2.5c0-0.2,1-0.5,1.2-0.5c0.4-0.1,0.9-0.2,1.3-0.1c0.9,0.1,1.7,0.5,2.3,1.3c0.5,0.5,0.6,1.2,0.6,2
			c0.5-0.3,1-0.5,1.7-0.4c1.1,0.1,2.1,0.6,2.8,1.6c0.6,0.9,0.8,2.1,0.5,3.1c-0.2,0.6-0.8,1.1-0.9,2c-0.1,0.8,0.4,1.7,0.2,2.5
			C182.9,72.3,182.5,72.9,182.1,73.8z"/>
		<path class="st10" d="M184.7,65.1C184.7,65.1,184.8,65.1,184.7,65.1c1-0.5,2.2-0.1,2.7,0.9l-3.6,2C183.2,67,183.7,65.7,184.7,65.1
			z"/>
		<path class="st18" d="M169.2,93.1c0,0,6.8-1.3,8.2-3c0.7-0.9,1.2-2,1.4-3c-0.5,1-1.4,2-2.5,2.5c-1.9,0.9-7.1,2.1-7.1,2.1V93.1z"/>
		<path class="st10" d="M169.5,77.9c0-0.6,0.5-1.1,1-1.1c0.5,0,1,0.4,1,0.9c0.1,0.6-0.4,1.1-0.9,1.1C170,79,169.5,78.5,169.5,77.9
			L169.5,77.9z"/>
		<path class="st10" d="M170.6,73.9c0.3-0.6,1-0.9,1.8-0.5c0.5,0.3,0.8,1.1,0.5,1.8L170.6,73.9L170.6,73.9z"/>
		<path class="st18" d="M168.9,86.9L168.9,86.9c-0.7,0.2-1.3-0.2-1.7-0.8l2.5-0.9C169.9,85.8,169.6,86.7,168.9,86.9z"/>
		<path class="st10" d="M160.6,72.9C160.6,72.8,160.6,72.8,160.6,72.9c0.6-0.5,1.3-0.3,1.8,0.2l-2.1,1.7
			C159.9,74.2,160,73.4,160.6,72.9z"/>
		<path class="st10" d="M161,77.5c0-0.6,0.5-1.1,1.1-1.1c0.6,0,1,0.5,1,1.1c0,0.5-0.5,1-1.1,1l0,0C161.4,78.6,161,78.1,161,77.5
			L161,77.5z"/>
		<polygon class="st18" points="162.7,81.7 166,83 166.3,76.6 		"/>
		<path class="st11" d="M185.3,97.6L185.3,97.6c0.2,0,0.2-0.1,0.2-0.1l2.2,0.3l0,0c4.1,0.6,7.3,2.5,9.5,6v24.8c0,1-0.7,1.5-1.7,0.9
			l0,0l-1.9-1l-2.3-1.3l-2-1.1v0.8l-0.1-0.9l-0.9-7.6C184.8,112.1,181.9,100.4,185.3,97.6z"/>
	</g>
	<g>
		<path class="st10" d="M346.1,192c1.6-1.5,1.9-3.3,1.9-5.4c0-1.1,0.2-2.3,0.4-3.4c1.9-8.2,10-13.5,18.3-11.5
			c7.7,1.8,13,8.6,13,16.5v4.4c0,5.8-2,11.2-5.3,15.7c-2.2,2.9-5.1,5.5-8.3,7.3c0,0-5.9,0.3-11.3,0.5c-2.3,0.1-4.6,0.1-6.2,0.1
			c-0.3,0-0.6,0-0.9,0l-0.6,0.1c-0.9,0-1.7-0.1-2.5-0.2v-22.7C345.2,192.9,345.6,192.6,346.1,192z"/>
		<path class="st23" d="M376.1,208.8C376.2,208.5,376.2,208.5,376.1,208.8c5.6,1.5,8.9,2.6,11.1,10v22.5c0,1.1-0.7,1.6-1.7,0.9
			l-4-2.4l-2.4-11.3l-0.2-1.2l-0.2-0.6l-0.1-0.2l0,0l0,0c-0.2-0.1-0.5-0.2-0.6-0.2c-0.6-0.2-1.2-0.6-1.8-1c-2.2-1.7-3.6-4-3.9-6.9
			C371.4,212.4,375.5,209.3,376.1,208.8z"/>
		<path class="st23" d="M350,221.6L350,221.6c2.2-2.1,3.6-3.6,3.6-3.6c0.5-0.6,0.9-1.3,1.3-2c3.2-5.4,2.5-8.9,2-9.4
			c-0.1-0.1-0.1-0.1-0.2-0.1c-0.6,0-5.9-1.3-10.2,2.9c-0.4,0.4-1,0.9-1.7,1.7c-0.1,0-0.1,0-0.1,0v4.8v0.7c0,1.1,0.6,2.2,1.7,2.8
			l1.2,0.7L350,221.6z"/>
		<path class="st1" d="M350,221.4l24,13.9l3.2,1.9V237l1.4-10.2l0.1-0.4v-0.1h-0.1l0,0c-0.2-0.2-0.8-0.8-1.3-2
			c-0.2-0.3-0.3-0.6-0.5-0.9c-0.2-0.5-0.5-1-0.6-1.7c-0.3-0.9-0.6-2.1-0.8-3.5c-0.7-5.5,0.6-8.7,1-9.2c0,0-0.1-0.1-0.2-0.1
			c-0.3-0.1-0.9-0.3-1.7-0.5c-1.4-0.3-3.2-0.8-3.2-0.8l-10.3-0.8l-4-0.1h-0.2c-3.3,2.5-6.1,5.7-7.9,9.5c-0.2,0.3-0.3,0.7-0.5,1
			c-0.4,0.9-0.5,2-0.6,2.8c0,0.1,0,0.1,0,0.2L350,221.4z"/>
		<path class="st8" d="M376.1,229.2c0.1-1.3,0.2-2.8,0.2-4.3c0-1.1,0-2.3-0.1-3.3c0-0.2-0.1-0.5-0.1-0.8c0.2,0.9,0.5,1.8,0.7,2.5
			c0.3,1,0.7,1.9,1.1,2.5c0,0.1,0.1,0.1,0.1,0.2c0.2,0.4,0.5,0.7,0.6,0.9c0,0.1,0.1,0.2,0.2,0.2c0.2,0.2,0.3,0.4,0.4,0.4l-0.2,0.8
			l-1.3,9.2l-0.6-0.3l-3.2-1.9C375,233.1,375.8,230.7,376.1,229.2z"/>
		<path class="st23" d="M361.8,188.7c5,2.8,8.8,2.7,8.8,2.7c0.2-0.3,0.4-0.6,0.6-0.9c1.3-1.3,3.4-1.5,4.8-0.2
			c1.6,1.7,0.8,4.5-1.1,6.2c-2.4,2.1-3.7,0.7-3.7,0.7v10.3c0,0-0.8,2-3.8,4.1c-6.1,4.6-9.3,2.9-9.6,0.8c-0.2-2.1,3-5.8,3-5.8v-3.8
			c-2.4,0.4-4.8,0.7-6.1,0.2s-3.8-2.5-3.9-10.4c-0.1-9.2,1.3-11.9,2.4-13.1C353.6,182.6,356.9,185.9,361.8,188.7z"/>
		<path class="st10" d="M359.9,190.1c0.1-0.5,0.5-0.9,1.1-0.8c0.5,0.1,0.9,0.5,0.8,1.1c-0.1,0.5-0.5,0.9-1,0.9s-0.9-0.5-0.9-1
			C359.9,190.3,359.9,190.3,359.9,190.1z"/>
		<path class="st24" d="M358.8,198.9L358.8,198.9c-0.8,0.2-1.6-0.2-1.7-0.9l2.6-0.8C360,197.9,359.6,198.6,358.8,198.9z"/>
		<path class="st10" d="M351.9,185.7L351.9,185.7c0.5-0.3,1.3-0.2,1.7,0.4l-2,1.3C351.3,187,351.4,186.4,351.9,185.7z"/>
		<path class="st10" d="M352,189.9c0.1-0.5,0.5-0.9,1-0.9s0.9,0.5,0.9,0.9c0,0.5-0.4,0.9-0.9,0.9S352,190.6,352,189.9L352,189.9z"/>
		<polygon class="st24" points="353.4,194.4 356.5,195.3 356.5,188.8 		"/>
		<path class="st24" d="M360.8,204.3c0,0,5.1-1.5,6.6-2.8c0.8-0.6,1.4-1.6,1.8-2.6c-0.8,2.1-5.9,3.4-8.5,3.7v1.7L360.8,204.3
			L360.8,204.3z"/>
		<path class="st10" d="M370.6,190.6c-1,0-2,0.9-2,2c0,1,0.9,2,2,2V190.6z"/>
	</g>
</g>
<g>
	<path class="st2" d="M475,309.4l-19.5-18.9l12.2,19.1c-6.6,0.8-13.4,0.6-19.8-0.9c-4.2-5.2-8.5-10-13.3-14.3l8.5,15
		c-8.7,1.6-17.6,1.7-26.7,0.3c-6.7-1.7-13-3.7-19-6.5c-3.1-1-5.6-2.1-8.7-3.4l-0.4-0.4c1.6-3.7-8.1-2.6-6.5-6.6
		c9-4.8,29.3-13.8,39-16.2c40.3-10,67.9,18.2,79.4,42.2C492.5,314.5,483.9,311.4,475,309.4z"/>
	<path class="st1" d="M470.8,292.3c-5.1-3.7-10.7-5.7-16.8-6.7c-5.9-1-12.3-1.7-18.4-1.6c-12.1,0.1-24.1,3.5-35.1,9.2l0,0
		c-0.3,0-0.6,0.1-0.7-0.3c0-0.3-0.1-0.6,0.3-0.7l0,0c11-5.7,23-8.7,35.5-8.6c6,0,12.1,0.6,18.3,1.9
		C460.1,286.1,465.8,288.6,470.8,292.3z"/>
	<path class="st0" d="M449.5,350.3L449.5,350.3c-0.2-1.9-0.4-3.5-0.8-5.4c-1.6-6.8-4.2-13.8-7.8-20.1c-1.3-2.4-2.7-4.7-4.1-7.1
		c-0.8-1.5-1.2-2.3-2.2-3.3c-4-5.5-8.5-10.3-14.1-14.3c-2.8-1.9-5.5-3.2-8.5-4.6c-0.5-0.3-0.7-0.2-1.1-0.6l0,0c-1.2-0.3-2-0.8-3.1-1
		c-8.6-2.8-17.4-3.1-26.2-1.1c-4.9,0.6-9.6,2.8-13.9,5.4l-0.4,0.4c-0.8,1.9,0.3,4.5,3.7,9.4c7.3,9.8,22.5,12.1,22.5,12.1l0.5-14.7
		l6.3,18.1l12.9,6.2l0.5-14.3l5.4,18.6C429.9,338.8,439.8,344.3,449.5,350.3L449.5,350.3z"/>
	<path class="st3" d="M448.5,344.8c-1.6-6.8-4.2-13.8-7.8-20.1c-1.3-2.4-2.7-4.7-4.1-7.1c-0.8-1.5-1.2-2.3-2.2-3.3
		c-4-5.5-8.5-10.3-14.1-14.3c-2.8-1.9-5.5-3.2-8.5-4.6c-0.5-0.3-0.7-0.2-1.1-0.6l0,0c-1.2-0.3-2-0.8-3.1-1
		c-8.5-2.9-17.4-3.1-26.2-1.7c-4.9,0.6-9.6,2.8-13.9,5.4l-0.4,0.4c-0.3,0.5-0.2,0.7-0.2,1.1c9.3-2.6,34-0.8,45.1,4.9
		c17.4,10.3,30.3,26.4,37.1,45.2l0,0C449.4,348.3,449.1,346.6,448.5,344.8z"/>
	<path class="st1" d="M367.3,299.8c6.9-1.2,14-2,21.1-1.5c7.1,0.5,14.1,1.7,20.9,4.4c6.5,3.1,12.6,6.9,17.7,12
		c5.3,5.1,9.6,10.6,13.3,16.9l0,0l0,0c-4-5.8-9.1-11.3-14-16.1c-2.5-2.6-5.3-4.7-8.1-6.8c-2.8-2.1-5.8-3.8-9.3-5.2
		c-6.9-2.7-13.8-4.4-20.6-4.9C381.4,298.3,374.3,298.5,367.3,299.8L367.3,299.8L367.3,299.8z"/>
</g>
<g>
	<path class="st25" d="M133.6,162.9v-2.1c0.2,0.2,0.4,0.3,0.5,0.4c0.7,0.4,1,0.1,1-0.8v-11.3l1.8,1v11.3c0,2.4-0.8,3.1-2.5,2.1
		C134.1,163.3,133.9,163.1,133.6,162.9z"/>
	<path class="st25" d="M139.5,151.7l2.4,1.3l1.8,15.8l-1.8-1l-0.3-3.1l0,0l-2-1.1l-0.3,2.7l-1.7-0.9L139.5,151.7z M141.5,162.6
		l-0.7-7.8l0,0l-0.7,6.8L141.5,162.6z"/>
	<path class="st25" d="M143.6,154l1.8,1l1.1,12.1l0,0l1.1-10.8l1.6,0.9l-1.7,13.8l-2.3-1.3L143.6,154z"/>
	<path class="st25" d="M151,158.4l2.4,1.3l1.8,15.8l-1.8-1l-0.3-3.1l0,0l-2-1.1l-0.3,2.7l-1.7-0.9L151,158.4z M152.9,169.4l-0.7-7.8
		l0,0l-0.7,6.8L152.9,169.4z"/>
</g>
<g>
	<path class="st25" d="M331,273.1l1.9,1.1v2.6l-1.9-1.1V273.1z"/>
	<path class="st25" d="M339.8,272.1v8.6l-1.9-1v-8.3c0-1-0.2-1.7-0.7-2s-0.9-0.1-0.9,1.3v8l-1.9-1v-11.8l1.6,0.9v1.3
		c0.3-0.8,0.9-1,1.8-0.6C339.1,268.4,339.8,269.7,339.8,272.1z"/>
	<path class="st25" d="M346.4,276.4v2.8l-3.6-2.1v2c0,1,0.3,1.7,0.9,2c0.6,0.3,0.9,0.1,0.9-0.9v-0.4l1.8,1v0.2
		c0,2.5-0.9,3.3-2.7,2.3c-1.8-1-2.7-3-2.7-5.4v-4.6c0-2.5,0.9-3.3,2.7-2.3C345.5,272,346.4,273.9,346.4,276.4z M344.7,276.2v-1.1
		c0-1-0.3-1.7-0.9-2c-0.6-0.3-0.9-0.1-0.9,0.9v1.1L344.7,276.2z"/>
	<path class="st25" d="M350,276.9v6.7c0,0.7,0.2,1.1,0.7,1.5c0.2,0.1,0.4,0.2,0.6,0.2v2.1c-0.3,0-0.6-0.1-1-0.3
		c-1.4-0.8-2.2-2.2-2.2-4.1v-7.1l-1-0.6v-2.1l1.1,0.6l0.2-3.1l1.6,0.9v3.2l1.3,0.7v2.1L350,276.9z"/>
</g>
<g>
	<path class="st25" d="M235.5,205.4l2.8,1.7c2,1.1,2.9,3.1,2.9,5.7v1.7c0,2.6-0.9,3.5-2.9,2.4l-0.9-0.5v6.6l-2-1.1L235.5,205.4
		L235.5,205.4z M238.4,214.5c0.6,0.3,0.9,0.2,0.9-1v-2c0-1.1-0.3-1.8-0.9-2.1l-0.9-0.5v5.1L238.4,214.5z"/>
	<path class="st25" d="M242.2,209.3l2,1.1v6.6l2.1,1.2v-6.6l2,1.1v16.4l-2-1.1v-7.4l-2.1-1.2v7.4l-2-1.1V209.3z"/>
	<path class="st25" d="M249.6,213.6l2.8,1.7c2,1.1,2.9,3.1,2.9,5.7v1.7c0,2.6-0.9,3.5-2.9,2.4l-0.9-0.5v6.6l-2-1.1L249.6,213.6
		L249.6,213.6z M252.4,222.6c0.6,0.3,0.9,0.2,0.9-1v-2c0-1.1-0.3-1.8-0.9-2.1l-0.9-0.5v5.1L252.4,222.6z"/>
</g>
</svg>
