<?xml version="1.0" encoding="utf-8"?>
<!-- Generator: Adobe Illustrator 24.3.0, SVG Export Plug-In . SVG Version: 6.00 Build 0)  -->
<svg version="1.1" id="Camada_1" xmlns="http://www.w3.org/2000/svg" xmlns:xlink="http://www.w3.org/1999/xlink" x="0px" y="0px"
	 viewBox="0 0 449 306.8" style="enable-background:new 0 0 449 306.8;" xml:space="preserve">
<style type="text/css">
	.st0{fill:#41266E;}
	.st1{fill:#27134B;}
	.st2{fill:#28C6A0;}
	.st3{fill:#FFFFFF;stroke:#212168;stroke-width:6;stroke-miterlimit:10;}
	.st4{fill:#3F266D;}
	.st5{fill:#00BACC;}
	.st6{opacity:0.44;fill:#FDFFFE;enable-background:new    ;}
	.st7{fill:#00CECE;}
	.st8{fill:#00E9F4;}
	.st9{fill:#28114D;}
	.st10{fill:#FFA08D;}
	.st11{fill:#FFB49A;}
	.st12{fill:#28154A;}
	.st13{fill:#D34697;}
	.st14{fill:#F4F447;}
	.st15{fill:#FCFAA7;}
	.st16{fill:#4C387E;}
	.st17{fill:#5D4C91;}
	.st18{fill:#AFAFAF;}
	.st19{fill:#FFFFFF;}
</style>
<path class="st0" d="M418.9,306.8H30.1c-6.8,0-12.4-5.7-12.4-12.7v-11c0-7,5.6-12.7,12.4-12.7h389c6.8,0,12.4,5.7,12.4,12.7v11
	C431.3,301.1,425.7,306.8,418.9,306.8z"/>
<path class="st1" d="M437.1,282.6H11.9c-6.5,0-11.9-5.5-11.9-12.2l0,0c0-6.7,5.4-12.2,11.9-12.2h425.2c6.5,0,11.9,5.5,11.9,12.2l0,0
	C448.9,277.1,443.6,282.6,437.1,282.6z"/>
<polygon class="st0" points="354.3,233.6 362.9,262.4 392.7,262.4 403.3,229.3 "/>
<path class="st2" d="M158.5,65.4c3.5-4.9,5.6-10.7,5.6-17c0-16.5-14-29.9-31.1-29.9s-31.1,13.3-31.1,29.9s14,29.9,31.1,29.9
	c6.5,0,12.6-1.9,17.6-5.2l10.7,5.2L158.5,65.4z"/>
<ellipse class="st3" cx="362.2" cy="50.4" rx="31.3" ry="32.1"/>
<g>
	<g>
		<g>
			<path class="st4" d="M362.3,71.7H362c-0.4,0-0.8,0.4-0.8,0.8v2.9c0,0.4,0.4,0.8,0.8,0.8h0.3c0.4,0,0.8-0.4,0.8-0.8v-2.9
				C363.1,72.1,362.7,71.7,362.3,71.7z"/>
		</g>
		<g>
			<path class="st4" d="M351.9,68.9l-0.2-0.1c-0.4-0.2-0.9-0.1-1.1,0.3l-1.4,2.4c-0.2,0.4-0.1,1,0.3,1.2l0.2,0.1
				c0.4,0.2,0.9,0.1,1.1-0.3l1.4-2.4C352.4,69.7,352.3,69.2,351.9,68.9z"/>
		</g>
		<g>
			<path class="st4" d="M344.2,61.2l-0.1-0.2c-0.2-0.4-0.7-0.5-1.1-0.3l-2.4,1.5c-0.4,0.2-0.5,0.7-0.3,1.2l0.1,0.2
				c0.2,0.4,0.7,0.5,1.1,0.3l2.4-1.5C344.3,62.1,344.4,61.5,344.2,61.2z"/>
		</g>
		<g>
			<path class="st4" d="M341.3,50.5v-0.3c0-0.4-0.4-0.8-0.8-0.8h-2.8c-0.4,0-0.8,0.4-0.8,0.8v0.3c0,0.4,0.4,0.8,0.8,0.8h2.8
				C340.9,51.4,341.3,51,341.3,50.5z"/>
		</g>
		<g>
			<path class="st4" d="M344,39.8l0.1-0.2c0.2-0.4,0.1-1-0.3-1.2l-2.4-1.5c-0.4-0.2-0.9-0.1-1.1,0.3l-0.1,0.2
				c-0.2,0.4-0.1,1,0.3,1.2l2.4,1.5C343.3,40.4,343.8,40.3,344,39.8z"/>
		</g>
		<g>
			<path class="st4" d="M351.7,32l0.2-0.1c0.4-0.2,0.5-0.7,0.3-1.2l-1.4-2.4c-0.2-0.4-0.7-0.5-1.1-0.3l-0.2,0.1
				c-0.4,0.2-0.5,0.7-0.3,1.2l1.4,2.4C350.7,32.1,351.2,32.2,351.7,32z"/>
		</g>
		<g>
			<path class="st4" d="M362,29h0.3c0.4,0,0.8-0.4,0.8-0.8v-2.9c0-0.4-0.4-0.8-0.8-0.8H362c-0.4,0-0.8,0.4-0.8,0.8v2.9
				C361.2,28.7,361.6,29,362,29z"/>
		</g>
		<g>
			<path class="st4" d="M372.4,31.9l0.2,0.1c0.4,0.2,0.9,0.1,1.1-0.3l1.4-2.4c0.2-0.4,0.1-1-0.3-1.2l-0.2-0.1
				c-0.4-0.2-0.9-0.1-1.1,0.3l-1.4,2.4C371.9,31.2,372,31.6,372.4,31.9z"/>
		</g>
		<g>
			<path class="st4" d="M380.1,39.6l0.1,0.2c0.2,0.4,0.7,0.5,1.1,0.3l2.4-1.5c0.4-0.2,0.5-0.7,0.3-1.2l-0.1-0.2
				c-0.2-0.4-0.7-0.5-1.1-0.3l-2.4,1.5C380.1,38.7,379.9,39.2,380.1,39.6z"/>
		</g>
		<g>
			<path class="st4" d="M383,50.2v0.3c0,0.4,0.4,0.8,0.8,0.8h2.8c0.4,0,0.8-0.4,0.8-0.8v-0.3c0-0.4-0.4-0.8-0.8-0.8h-2.8
				C383.4,49.4,383,49.8,383,50.2z"/>
		</g>
		<g>
			<path class="st4" d="M380.3,60.9l-0.1,0.2c-0.2,0.4-0.1,1,0.3,1.2l2.4,1.5c0.4,0.2,0.9,0.1,1.1-0.3l0.1-0.2
				c0.2-0.4,0.1-1-0.3-1.2l-2.4-1.5C381,60.4,380.5,60.6,380.3,60.9z"/>
		</g>
		<g>
			<path class="st4" d="M372.6,68.8l-0.2,0.1c-0.4,0.2-0.5,0.7-0.3,1.2l1.4,2.4c0.2,0.4,0.7,0.5,1.1,0.3l0.2-0.1
				c0.4-0.2,0.5-0.7,0.3-1.2l-1.4-2.4C373.6,68.7,373,68.5,372.6,68.8z"/>
		</g>
	</g>
</g>
<g>
	<g>
		<path class="st4" d="M360,57.6l-0.2-0.2c-0.6-0.6-0.5-1.7,0.1-2.2L373,43.1c0.6-0.6,1.7-0.5,2.2,0.1l0.2,0.2
			c0.6,0.6,0.5,1.7-0.1,2.2l-13.1,12.1C361.7,58.3,360.6,58.3,360,57.6z"/>
		<path class="st4" d="M348.7,49.8l0.5-1c0.4-0.7,1.3-1.1,2.2-0.6l10.1,5.9c0.7,0.4,1,1.4,0.6,2.2l-0.5,1c-0.4,0.7-1.3,1.1-2.2,0.6
			L349.3,52C348.5,51.6,348.1,50.6,348.7,49.8z"/>
	</g>
</g>
<g>
	<path class="st5" d="M358.5,183.1c-2.2-0.8-2.9-3.9-2-6.1c0.9-2.2,2.9-3.7,4.8-5.1c3.9-2.8,8-5.3,12.2-7.5
		c5.4-2.9,11.1-5.4,15.3-9.8c4.9-5.1,7.3-12.2,8.8-19.2c1.4-7,2.2-14.2,4.2-21c1.7-5.3,4.9-10.8,10.1-11.6c4.4-0.7,8.9,2.5,10.6,6.8
		c1.8,4.2,1.1,9.1-0.5,13.4c-1.1,2.9-2.7,6.1-1.1,8.8c0.8,1.4,2.3,2.1,3.7,2.8c3.5,1.6,7.3,2.5,10.9,4.1s6.9,3.8,9.1,7.1
		c2.2,3.3,2.6,7.9,0.4,11.2c-3.8,5.7-13,4.8-17.4,10.2c-3,3.9-2.4,9.4-3.3,14.3c-1.1,6-4.9,11.3-9.5,15.3c-4.5,4-10,6.9-15.3,9.7"/>
	<path class="st6" d="M426.8,156.4c-0.2-0.2-0.5-0.2-0.7-0.1c-1.8,1.5-4.1,2-6.5,2.5c-0.4,0.1-0.8,0.2-1.1,0.2
		c-0.3,0.1-0.7,0.2-1.1,0.2c-2.1,0.4-4.8,1-6.5,2.1c0.9-3.4,1.2-7,1.4-10.1c0-0.3-0.2-0.5-0.5-0.5s-0.5,0.2-0.5,0.5
		c-0.4,5-0.8,11.2-4.2,15.7c-2.2,2.9-5.4,4.8-8.5,6.7c-0.8,0.5-1.7,1-2.5,1.5c-2,1.3-3.6,2.5-5,3.9c-2.8-1.5-7.4-4.9-7.9-7.4
		c-0.5-2.8,0.4-5.7,2.4-7.7c0.2-0.2,0.2-0.5,0-0.7c-0.2-0.2-0.5-0.2-0.7,0c-2.2,2.2-3.2,5.5-2.7,8.7c0.5,3,5.3,6.5,8.2,8
		c-1.8,2-2.7,4-3,6.4c0,0.3,0.2,0.5,0.4,0.6c0,0,0,0,0.1,0c0.2,0,0.5-0.2,0.5-0.4c0.3-2.2,1.3-4.2,3.2-6.1c2.3-1.3,7.1,0.2,10.6,1.3
		c1.1,0.3,2.2,0.6,3,0.8c2.1,0.4,4.1,0.8,6.1,0.8c1.8,0,3.4-0.3,5-1.3c0.2-0.1,0.3-0.4,0.2-0.7c-0.1-0.2-0.4-0.3-0.7-0.2
		c-2.9,1.7-6.5,1.1-10.3,0.2c-0.8-0.2-1.9-0.5-3-0.8c-3.1-1-6.7-2-9.4-1.7c1-0.8,2.2-1.7,3.5-2.5c0.8-0.5,1.7-1,2.5-1.5
		c3.2-1.9,6.5-3.9,8.8-7c0.9-1.2,1.6-2.4,2.2-3.8c1-2,4.9-2.9,7.4-3.4c0.4-0.1,0.8-0.2,1.2-0.2c0.4-0.1,0.7-0.2,1.1-0.2
		c2.5-0.5,5-1.1,6.9-2.8C426.9,156.9,426.9,156.6,426.8,156.4z"/>
	<path class="st7" d="M391.3,220c8.7-36.5-6.1-38.8-12.5-39.6c-4.7-0.5-9.3,0.7-14,1s-9.9-0.8-12.6-4.8c-3.2-4.6-1.8-10.9-2.3-16.5
		c-0.6-6.5-4.1-12.6-9.3-16.2c-5.3-3.6-12.1-4.7-18.2-2.9c-3.1,1-6.2,2.9-7.8,5.7c-1.6,3-1.6,6.6-0.8,9.8c2.2,10.6,9.8,19.1,16.9,27
		c1,1.2,2.1,2.3,2.6,3.8c0.5,1.5,0.4,3.3-0.7,4.3c-1.2,1.3-3.3,1.1-5,0.7c-4.8-0.8-10.5-2-13.8,1.5c-3,3.2-2.2,8.8,0.8,12.1
		s7.4,4.4,11.8,5c4.3,0.5,8.8,0.3,12.9,1.5c8.3,2.1,15.2,9.1,17.3,17.6"/>
	<path class="st6" d="M368.6,210.9c-0.5-0.6-1-1.2-1.4-1.6c-1.4-1.5-2-2-1.6-4.8c0.7-3.8,2.1-7.5,3.9-10.9c0.1-0.2,0.1-0.5-0.2-0.7
		c-0.2-0.1-0.5-0.1-0.7,0.2c-2,3.6-3.3,7.3-4,11.3c-0.1,0.6-0.2,1.2-0.2,1.6c-4-0.8-8.2-1.2-12.3-1.2c-1.7,0-3.3,0-4.9-0.2
		c-1.6-0.3-3.7-1-5.1-2.6c-1.2-1.6-1.4-3.8-0.5-5.3c0.2-0.2,0.1-0.5-0.1-0.7c-0.2-0.2-0.5-0.1-0.7,0.1c-1.2,1.9-1,4.7,0.5,6.6
		c1.6,2,4,2.8,5.7,3.1c1.7,0.3,3.4,0.2,5.1,0.2c4.1,0,8.3,0.3,12.3,1.2c0.2,1.3,0.9,2,1.9,3.1c0.4,0.4,0.9,1,1.4,1.5
		c3.7,4.4,6.2,10.7,6.7,16.8c0,0.3,0.2,0.5,0.5,0.5l0,0c0.3,0,0.5-0.3,0.5-0.5C375.1,221.8,372.5,215.4,368.6,210.9z"/>
	<path class="st8" d="M369.2,222.2c3.2-6,5-12.8,5.1-19.6c0.1-4.2-0.2-9.1,3.1-11.6c2.6-1.9,6.1-1.4,9.2-1c4.5,0.6,9.1,0.8,13.5,0.7
		c3.8-0.1,7.8-0.5,11.1-2.4c3.4-2,5.8-5.4,8.7-8.2c3.2-3,7.1-5.2,11.3-6.5c2.5-0.7,5.2-1.1,7.8-0.5c2.6,0.6,5,2.3,5.9,4.9
		c1.2,3.2-0.1,6.8-2.4,9.3c-2.3,2.5-5.4,3.9-8.4,5.2c-3,1.3-6.2,2.5-8.7,4.8c-1.6,1.4-2.8,3.1-3,5.2c-0.2,3.3,2.4,5.9,4.3,8.4
		c4.5,5.7,7,13.1,6.6,20.5c-6.5,1.7-13.5,3.4-19.6,0.4c-3.5-1.7-6.2-4.7-9.6-6.5c-3.4-1.7-8.5-1.5-10.2,2"/>
	<path class="st6" d="M419.8,219c-0.1-0.2-0.4-0.3-0.7-0.2c-2.4,1.4-5.3,0.1-6.4-0.4c-0.9-0.5-1.9-1.1-2.7-1.7
		c-1.1-0.7-2.3-1.5-3.5-2c-3-1.4-8.6-1.9-13-0.8c0.2-0.2,0.3-0.5,0.4-0.8c2.9-3.3,10.4-7.4,14.3-8.5c0.6-0.2,1.2-0.3,1.9-0.4
		c1.7-0.3,3.3-0.7,4.9-1.6c2.8-1.6,4.8-4.7,4.8-8c0-0.3-0.2-0.5-0.5-0.5l0,0c-0.3,0-0.5,0.2-0.5,0.5c-0.1,2.9-1.8,5.7-4.2,7.1
		c-1.3,0.7-2.9,1.1-4.5,1.5c-0.6,0.1-1.2,0.3-1.9,0.4c-3.7,1-10.1,4.4-13.7,7.6c0-0.2,0-0.4,0-0.7c-0.2-4.3-2.6-8.4-6.2-10.3
		c-0.2-0.1-0.5,0-0.7,0.2c-0.1,0.2,0,0.5,0.2,0.7c3.3,1.7,5.5,5.4,5.7,9.3c0.1,2-0.7,3.2-1.9,4c-0.8,0.3-1.6,0.7-2.2,1.3
		c-0.9,0.5-2,1.1-2.9,1.8c-1,0.8-4.3,3.8-3.2,7.2c0.1,0.2,0.3,0.4,0.5,0.4h0.1c0.3-0.1,0.4-0.4,0.3-0.6c-0.7-2.2,1-4.6,2.9-6
		c0.9-0.7,2-1.3,2.9-1.8c0.7-0.4,1.4-0.8,2.2-1.3c4.1-1.7,10.9-1.3,14.2,0.2c1.1,0.5,2.3,1.3,3.4,2c0.9,0.6,1.9,1.2,2.8,1.7
		c1.6,0.7,3,1.2,4.4,1.2c1,0,2.1-0.2,2.9-0.7C419.8,219.7,419.9,219.4,419.8,219z"/>
</g>
<path class="st1" d="M401.4,236.5h-45c-4,0-7.3-3.4-7.3-7.5l0,0c0-4.1,3.3-7.5,7.3-7.5h45c4,0,7.3,3.4,7.3,7.5l0,0
	C408.7,233,405.4,236.5,401.4,236.5z"/>
<g>
	<path class="st9" d="M222.2,36.3c-4.1-5.4-4.1-13.4-0.9-19.6c3.1-6.1,8.9-10.5,15.1-13.1C249-2,264.3-1.1,276,6.4
		s19,21.9,17.7,35.9c-0.7,7.8-3.9,15.3-4.1,23.3c-0.3,11.2,5.9,22.3,15.4,27.6c5.3,3,11.7,4.6,15,9.6c3.1,4.7,2.6,10.9,1.3,16.5
		c-1.2,5.4-3.1,10.9-6.8,14.9c-3.4,3.7-8.2,5.8-12.8,7.6c-20.4,7.4-43,8-63.7,1.8c-6-1.8-12-4.3-16.6-8.6
		c-4.7-4.3-7.8-10.8-6.8-17.1c1.2-8.9,9.4-14.6,14.4-22c8.2-12.1,7.5-28.1,6.6-42.8"/>
	<path class="st10" d="M233.3,122.1c-6.9,1.2-1.8,14.3-2.3,21.5c-0.5,7.2,8.1,17.3,12.8,22.5c0.7,0.7,15.2-0.1,16.2,0.1
		c1.3,0.2,10.3-5.9,11.4-6.8c11.2-8.4,1.7-18.1,9-30.2c1.3-2.2-3.1-7.2-3.4-9.8c-0.4-2.9-4.3-4.3-6.1-6.7c-3-3.9-2.7-9.6-3-14.6
		s0.3-10.1,0.9-15c-0.3,2.4-8,6.7-9.8,7.8c-3.4,2.1-8,3-11.2,5.3c-2.5,1.8-2.3,4.1-2.6,7C244.7,108.3,243.9,120.3,233.3,122.1z"/>
	<path class="st11" d="M273.1,58.6c-6.6-0.2-13-3.2-17.7-7.9c-2.6-2.6-5.4-6.1-9-5.5c-3.5,0.6-5.1,4.8-6.9,7.9
		c-4,6.9-12.3,10.8-19.9,9.5c1.1,6.2,2.4,12.6,4.8,18.4c2.4,5.8,6.2,11.3,11.5,14.7c8.2,5.1,19.4,4.1,26.6-2.3
		c7.1-6.5,11.7-20.3,7.8-29.2"/>
	<path class="st12" d="M248.2,49.6c-2.9,0.8-4.9,3.7-6.7,6.2c-3.9,5.3-9,10.1-15.2,12.1c-6.2,2-13.7,0.6-17.9-4.6
		c-5.1-6.4-3.3-16.3,2-22.3c5.3-6,13.2-9,21-10.6c6.3-1.3,12.8-1.9,19-0.2c7.5,2,14.2,7.5,17.7,14.7c2,4,6.4,17.7-2.3,16
		C258.9,59.5,256.9,47,248.2,49.6z"/>
	<path class="st13" d="M238.3,29c6.2,0,12.6,0.7,18.2,3.6c5.6,2.9,10.2,7.9,11.5,14.2c0.4,2.2,0.5,4.7,1.9,6.6
		c1.3,1.8,4.8,2.1,5.5,0c0.2-0.6,0.2-1.3,0.1-1.8c-0.7-7.6-4.1-14.9-9.6-20.2c-5.4-5.3-12.7-8.5-20.2-8.9
		c-6.3-0.3-12.5,1.3-18.5,3.1c-2.2,0.6-9.4,0.1-7.5,7.4C220.3,36.1,233,29,238.3,29z"/>
	<path class="st13" d="M274.6,62.1c-0.8,3.3-1.7,6.6-2.9,9.7c-1.1,3.2-2.7,6.2-4.5,9.1c-1.9,2.9-3.9,5.5-6.5,7.8
		c-2.6,2.2-5.9,3.9-9.6,4.8h-0.1c-1.1,0.2-2.3-0.4-2.5-1.6c-0.2-1.2,0.4-2.3,1.6-2.5c0.3-0.1,0.6-0.1,0.9,0c1.4,0.3,3,0.3,4.4,0
		c1.4-0.3,2.9-1.1,4.1-2c2.6-1.8,4.7-4.4,6.5-7.1c1.9-2.8,3.3-5.7,4.4-8.8c1.2-3.1,2.2-6.2,3-9.5c0.1-0.3,0.4-0.4,0.6-0.3
		C274.5,61.4,274.6,61.8,274.6,62.1z"/>
	<path class="st13" d="M269.9,50.5c-1.9,1.2-3,3.3-3.4,5.5c-0.4,2.2-0.1,4.4,0.5,6.7c0.3,1.1,0.6,2.1,1.1,3.1c1.1,2.4,2.6,5,5.1,5.4
		C288.1,73.2,286.2,40.5,269.9,50.5z"/>
	<path class="st14" d="M214,127.7c9.2-3.6,18.3-7.2,27.5-10.9c-5.6,5.1-7.2,13.5-6.1,21.1c1.1,7.5,4.8,14.4,8.3,21.2
		c9.1-3,17.2-9.1,22.4-17.1c5.3-8,7.9-18.1,7-27.8c10.9,0.8,21.6,3.2,31.9,6.9c1.6,0.5,3.2,1.3,4,2.6c0.8,1.4,0.6,3.1,0.4,4.7
		c-3,26-6.1,52.2-11.1,78c-3.3,17.3-7.4,34.9-4.2,52.1c-17.9-0.3-35.8-0.6-53.6-1c-3.1-0.1-6.3-0.1-9-1.7c-4.5-2.5-6.3-8.2-7.5-13.3
		c-3.8-15.2-7-30.6-9.8-45.9c-1.3-7.8-2.6-15.7-3.7-23.5c-0.9-6.5,0.9-12.3,1.8-18.7C213.7,145.6,214.2,136.6,214,127.7z"/>
	<path class="st15" d="M305.4,124.5c1.8-0.8,4-0.1,5.5,1.3c1.4,1.4,2.3,3.4,3.1,5.2c9.6,22.1,19.1,44.2,26.1,67.3
		c1.4,4.8,2.7,10.3,0.1,14.4c-1.8,2.8-4.9,4.3-7.9,5.6c-4,1.8-9.1,3.4-12.6,0.6c-2-1.5-3-4-3.4-6.5c-0.4-2.5-0.3-5.1-0.6-7.5
		c-1.6-13.4-12.9-23.6-16.9-36.5c-3.8-12.5-0.3-26,3.2-38.7C302,129.8,303.5,125.5,305.4,124.5z"/>
	<path class="st15" d="M320.6,199.9c-6.9,12.1-46,42.1-53.4,53.9c-4,6.4,5.3-1.3,6.5,6.1c0.4,2.3,3.3,2.6,5.7,2.5
		c1-0.1,13.8-7.3,14.6-7.9c11.1-8.6,22.1-17.1,32.8-26.4c3.2-2.8,6.4-5.7,8.7-9.3c2.3-3.6,3.6-8.2,2.6-12.4c-1-4.2-4.8-7.8-9-7.7"/>
	<path class="st15" d="M198.3,143.5c-3.4,6.7-5.1,14.2-6.5,21.6c-0.4,2.1-0.8,4.4,0.3,6.2c1.2,1.9,3.7,2.5,6,2.3
		c5.1-0.4,9.6-3.7,12.5-8s4.2-9.5,4.9-14.7c0.5-4.2,0.7-8.5,0.4-12.8c-0.1-2.1-0.3-4.2-0.7-6.4c-0.5-2.5,3.3-5.5,0.8-4.9
		C210,128.4,201,138.2,198.3,143.5z"/>
</g>
<path class="st16" d="M304.1,264.7h-84.2c-2.6,0-4.7-2.1-4.7-4.8l0,0c0-2.6,2.1-4.8,4.7-4.8h84.2c2.6,0,4.7,2.1,4.7,4.8l0,0
	C308.8,262.6,306.7,264.7,304.1,264.7z"/>
<path class="st17" d="M244.2,264.7H122.4c-6.8,0-14.3-5.7-16.4-12.7l-23.6-74.4c-2.2-7,1.6-12.7,8.4-12.7h121.8
	c6.8,0,14.3,5.7,16.4,12.7l23.6,74.4C254.7,259,251,264.7,244.2,264.7z"/>
<path class="st2" d="M85,225.3v-2.1H47.9v26.7c0,1.6,0.3,3.2,0.8,4.6c1.8,4.8,6.3,8.2,11.6,8.2h12.3c5.2,0,9.6-3.3,11.5-7.9
	c0.6-0.7,0.9-1.7,0.9-2.8v-0.6c2.7-0.5,4.8-3.1,4.8-6v-14C89.8,228.4,87.7,225.8,85,225.3z M87.6,242.9c0,2-1,3.7-2.6,4.7v-18.6
	c0.4,0.2,0.7,0.5,1,0.8c0.9,1,1.6,2.3,1.6,3.8V242.9z"/>
<path class="st11" d="M286.1,247c-2.2-1.9-5-3.1-7.9-2.9c-4.2,0.3-7.5,3.7-11.7,4.9c-4.5,1.2-10-0.2-13.3,3.1
	c-0.4,1.5,0.5,3,1.9,3.7c1.2,0.7,2.8,0.8,4.2,0.8c7,0.3,14.2,0.6,21.2-0.2c1.9-0.2,9.2-0.5,10.3-2.2
	C291.9,252.6,287.5,248.2,286.1,247z"/>
<ellipse class="st12" cx="250.5" cy="71.4" rx="2.6" ry="2.6"/>
<ellipse class="st12" cx="231.7" cy="74" rx="2.6" ry="2.6"/>
<path class="st12" d="M245.7,67.4c2.1-2.2,5.5-3.1,8.3-1.9"/>
<path class="st12" d="M234.7,69.6c-2.6-1.5-6.1-1.3-8.4,0.6"/>
<path class="st10" d="M240.5,86.1c1.8,0.1,3.5-0.1,5.3-0.4c0.1,0-2.1-8.6-2.7-9C241.6,79.5,240.8,84.2,240.5,86.1z"/>
<path class="st18" d="M66.3,216.6c-1.9-0.2-3.6-1.5-4.7-3.2c-1-1.7-1.7-3.6-1.7-5.7c0-4,1.7-7.8,2.6-11.3c2-7.1,1.3-14.6-1.7-21l0,0
	c2.7-1.1,5.7,0.6,6.1,3.5c0.9,6.2,0.2,12.6-2.1,18.3c-1.4,3.6-3.3,6.9-3.7,10.5c-0.2,1.8,0.1,3.6,0.9,5.3
	C63,214.7,64.5,216.2,66.3,216.6z"/>
<path class="st18" d="M74.3,218.6c0.8-1.8,1.6-3.6,2-5.5c0.4-1.8,0.5-3.7-0.1-5.3c-0.5-1.6-1.6-3-2.9-4.1c-0.7-0.6-1.4-1.3-2.3-1.9
	c-1.1-0.7-1.2-2.3-0.4-3.4l0,0c0.9-1.2,2.6-1.2,3.5-0.1c0.7,0.8,1.4,1.8,2.2,2.8c1.2,1.8,2.3,3.9,2.5,6.1c0.2,2.3-0.4,4.4-1.2,6.2
	C76.6,215.4,75.4,217,74.3,218.6z"/>
<g>
	<polygon class="st19" points="169.3,235.7 164,243.9 132.1,193.3 142.6,193.3 	"/>
	<polygon class="st19" points="196,193.3 171.1,232.7 166,224.4 185.6,193.3 	"/>
	<polygon class="st19" points="181.9,193.3 164.1,221.5 158.8,213.2 171.4,193.3 	"/>
</g>
<g>
	<path class="st19" d="M118.3,48.3c0-2,1.3-3.4,3.2-3.4c1.9,0,3.1,1.4,3.1,3.4c0,2-1.2,3.4-3.2,3.4
		C119.6,51.7,118.3,50.2,118.3,48.3z"/>
	<path class="st19" d="M129.3,48.3c0-2,1.3-3.4,3.2-3.4c1.9,0,3.1,1.4,3.1,3.4c0,2-1.2,3.4-3.2,3.4
		C130.6,51.7,129.3,50.2,129.3,48.3z"/>
	<path class="st19" d="M140.3,48.3c0-2,1.3-3.4,3.2-3.4s3.1,1.4,3.1,3.4c0,2-1.2,3.4-3.2,3.4C141.6,51.7,140.3,50.2,140.3,48.3z"/>
</g>
</svg>
