<?xml version="1.0" encoding="utf-8"?>
<!-- Generator: Adobe Illustrator 24.3.0, SVG Export Plug-In . SVG Version: 6.00 Build 0)  -->
<svg version="1.1" id="Camada_1" xmlns="http://www.w3.org/2000/svg" xmlns:xlink="http://www.w3.org/1999/xlink" x="0px" y="0px"
	 viewBox="0 0 440.5 411.4" style="enable-background:new 0 0 440.5 411.4;" xml:space="preserve">
<style type="text/css">
	.st0{opacity:0.29;fill:#C9C9C9;enable-background:new    ;}
	.st1{fill:#4569F4;}
	.st2{opacity:0.15;enable-background:new    ;}
	.st3{opacity:0.45;fill:#FFFFFF;enable-background:new    ;}
	.st4{opacity:0.2;enable-background:new    ;}
	.st5{fill:#455A64;}
	.st6{fill:#F5F5F5;}
	.st7{fill:#BA68C8;}
	.st8{opacity:0.6;fill:#FFFFFF;enable-background:new    ;}
	.st9{opacity:0.5;fill:#FFFFFF;enable-background:new    ;}
	.st10{fill:#EBEBEB;}
	.st11{opacity:0.1;enable-background:new    ;}
	.st12{fill:#FAFAFA;}
	.st13{fill:#E6E6E6;}
	.st14{fill:#FFFFFF;}
	.st15{fill:#E0E0E0;}
	.st16{opacity:0.15;fill:#CFCFCF;enable-background:new    ;}
	.st17{fill:#7E4C87;}
	.st18{fill:#9F76A5;}
	.st19{opacity:0.5;enable-background:new    ;}
	.st20{opacity:0.23;enable-background:new    ;}
	.st21{opacity:0.4;enable-background:new    ;}
	.st22{fill:#4B5A64;}
	.st23{fill:#F0F0F0;}
	.st24{fill:#EFE6EF;}
	.st25{fill:#969696;}
	.st26{opacity:0.7;fill:#FFFFFF;enable-background:new    ;}
	.st27{fill:#939393;}
	.st28{fill:#37474F;}
	.st29{fill:#FFA8A7;}
	.st30{fill:#F28F8F;}
	.st31{fill:#58C9BE;}
	.st32{opacity:0.4;fill:#FFFFFF;enable-background:new    ;}
	.st33{fill:#263238;}
	.st34{fill:#EFEFEF;}
	.st35{display:none;}
	.st36{display:inline;fill:#BA68C8;}
	.st37{display:inline;opacity:0.3;enable-background:new    ;}
	.st38{display:inline;opacity:0.2;enable-background:new    ;}
	.st39{display:inline;fill:#FAFAFA;}
</style>
<ellipse transform="matrix(0.9927 -0.121 0.121 0.9927 -32.781 28.7458)" class="st0" cx="220.3" cy="284.3" rx="221.4" ry="125.2"/>
<polygon class="st1" points="137,177.5 137,150 172.8,170.6 172.8,198.1 "/>
<polygon class="st1" points="172.8,198.1 217.5,172.3 217.5,144.8 172.8,170.6 "/>
<polygon class="st2" points="172.8,198.1 217.5,172.3 217.5,144.8 172.8,170.6 "/>
<polygon class="st1" points="218.5,144.2 181.7,122.9 136,149.4 172.8,170.6 "/>
<polygon class="st3" points="218.5,144.4 181.7,123.1 136,149.7 172.8,170.9 "/>
<polygon class="st1" points="136,149.4 136,156.3 172.8,177.5 172.8,170.6 "/>
<polygon class="st4" points="172.8,179 137,158.4 137,156.8 172.8,177.5 "/>
<polygon class="st1" points="218.5,151.1 172.8,177.5 172.8,170.6 218.5,144.2 "/>
<polygon class="st4" points="218.5,151.1 172.8,177.5 172.8,170.6 218.5,144.2 "/>
<polygon class="st4" points="172.8,179 217.5,153.2 217.5,151.7 172.8,177.5 "/>
<path class="st5" d="M162,176.4v7.3c0,0.7-0.5,0.9-1,0.6l-12.2-7.1c-0.6-0.4-1-1-1-1.6v-7.3c0-0.7,0.5-0.9,1-0.6l12.2,7.1
	C161.6,175.2,162,175.8,162,176.4z"/>
<path class="st6" d="M160.9,176.7v5.4c0,0.4-0.3,0.6-0.7,0.4l-10.6-6.1c-0.4-0.2-0.7-0.6-0.7-1.1v-5.4c0-0.4,0.3-0.6,0.7-0.4
	l10.6,6.1C160.6,175.9,160.8,176.2,160.9,176.7z"/>
<path class="st5" d="M160,177.1l-10.2-5.8c-0.1,0-0.1-0.1-0.1-0.2l0,0c0-0.1,0.1-0.1,0.2-0.1l10.1,5.8l0,0
	C160,176.8,160,176.9,160,177.1L160,177.1C159.9,177,159.9,177,160,177.1z"/>
<path class="st5" d="M159.8,178.3l-10-5.8l0,0c-0.1,0-0.1-0.1-0.1-0.2l0,0c0-0.1,0.1-0.1,0.2-0.1L160,178l0,0c0.1,0,0.1,0.1,0.1,0.2
	s0,0.1-0.1,0.1C159.9,178.4,159.9,178.3,159.8,178.3z"/>
<path class="st5" d="M159.8,179.7l-10-5.8l0,0c-0.1,0-0.1-0.1-0.1-0.2c0-0.1,0.1-0.1,0.2-0.1l10.1,5.8l0,0c0.1,0,0.1,0.1,0.1,0.2
	s0,0.1-0.1,0.1S159.9,179.7,159.8,179.7z"/>
<path class="st5" d="M159.8,181l-10-5.8l0,0c-0.1,0-0.1-0.1-0.1-0.2s0.1-0.1,0.2-0.1l10.1,5.8l0,0c0.1,0,0.1,0.1,0.1,0.2
	c0,0.1,0,0.1-0.1,0.1S159.9,181,159.8,181z"/>
<polygon class="st7" points="137,146.5 137,119 172.8,139.6 172.8,167.2 "/>
<polygon class="st7" points="172.8,167.2 217.5,141.4 217.5,113.8 172.8,139.6 "/>
<polygon class="st2" points="172.8,167.2 217.5,141.4 217.5,113.8 172.8,139.6 "/>
<polygon class="st7" points="218.5,113.3 181.7,91.9 136,118.4 172.8,139.6 "/>
<polygon class="st8" points="218.5,113.3 181.7,91.9 136,118.4 172.8,139.6 "/>
<polygon class="st7" points="136,118.4 136,125.3 172.8,146.5 172.8,139.6 "/>
<polygon class="st4" points="172.8,148.1 137,127.4 137,125.9 172.8,146.5 "/>
<polygon class="st7" points="218.5,120.1 172.8,146.5 172.8,139.6 218.5,113.3 "/>
<polygon class="st4" points="218.5,120.1 172.8,146.5 172.8,139.6 218.5,113.3 "/>
<polygon class="st4" points="172.8,148.1 217.5,122.2 217.5,120.7 172.8,146.5 "/>
<path class="st5" d="M162,145.5v7.2c0,0.7-0.5,0.9-1,0.6l-12.2-7.1c-0.6-0.4-1-1-1-1.6v-7.2c0-0.7,0.5-0.9,1-0.6l12.2,7.1
	C161.6,144.2,162,144.8,162,145.5z"/>
<path class="st6" d="M160.9,145.7v5.4c0,0.4-0.3,0.6-0.7,0.4l-10.6-6.1c-0.4-0.2-0.7-0.6-0.7-1.1v-5.4c0-0.4,0.3-0.6,0.7-0.4
	l10.6,6.1C160.6,144.9,160.8,145.3,160.9,145.7z"/>
<path class="st5" d="M159.8,146l-10-5.8l0,0c-0.1,0-0.1-0.1-0.1-0.2c0-0.1,0.1-0.1,0.2-0.1l10.1,5.8c0.1,0,0.1,0.1,0.1,0.2
	s0,0.1-0.1,0.1H159.8z"/>
<path class="st5" d="M160,147.4l-10.1-5.8l0,0c-0.1,0-0.1-0.1-0.1-0.2s0.1-0.1,0.2-0.1l10.1,5.8l0,0C160,147.1,160,147.2,160,147.4
	L160,147.4L160,147.4z"/>
<path class="st5" d="M159.9,148.7l-10-5.8l0,0c-0.1,0-0.1-0.1-0.1-0.2s0.1-0.1,0.2-0.1l10.1,5.8l0,0c0,0,0,0.1,0,0.2
	S160,148.7,159.9,148.7L159.9,148.7z"/>
<path class="st5" d="M159.9,150.1l-10-5.8l0,0c-0.1,0-0.1-0.1-0.1-0.2c0-0.1,0.1-0.1,0.2-0.1l10.1,5.8l0,0c0,0,0,0.1,0,0.2
	S160,150.1,159.9,150.1L159.9,150.1z"/>
<path class="st1" d="M405.3,139.5L197.5,19.7c-1.1-0.8-1.8-2-1.9-3.3V4.9c0.1-1.3,0.8-2.5,1.8-3.2c3.4-2.2,4.8-1.7,5.8-1.1
	L411,120.4c1.1,0.8,1.8,2,1.9,3.3v11.5c0,1.1-3,3.8-3.9,4.4C407.8,140.2,406.4,140.1,405.3,139.5z"/>
<path class="st9" d="M197.4,1.6c3.3-2.1,4.8-1.7,5.8-1.1L411,120.3c0.6,0.4,1.1,0.9,1.3,1.4l-5.7,3.2c-0.3-0.6-0.8-1.1-1.3-1.4
	L197.6,3.7c-1-0.6-1.8-0.2-1.9,0.8C195.9,3.3,196.5,2.3,197.4,1.6z"/>
<path class="st10" d="M405.9,310.1L405.9,310.1c0.1,0,0.2,0,0.3,0c0.7,0,1.1-0.5,1.1-1.3V152.3l5.7-3.2v156.5c0,1.1-0.3,2.9-3.9,4.4
	c-0.7,0.3-1.4,0.5-2.2,0.4h-0.3c-0.1,0-0.1,0-0.2,0s-0.2-0.1-0.3-0.1L405.9,310.1c0,0.1-0.1,0-0.2,0l0,0H405.9z"/>
<path class="st11" d="M412.4,121.8c0.2,0.4,0.4,0.8,0.5,1.1c0.1,0.2,0.1,0.3,0.1,0.5c0,0,0,0.1,0,0.2V149l-5.7,3.2v-25.3
	c0-0.7-0.2-1.3-0.6-1.9L412.4,121.8z"/>
<path class="st6" d="M195.7,186.7V15L348,102.9c1.1,0.6,3.5-6.2,4.6-5.6l45.6,26.3c1.1,0.7,2.8,9.9,3.8,10.5l5.3,3.1v171.7
	c0,1.1-0.9,1.6-1.9,1.1L197.6,190C196.5,189.2,195.8,188,195.7,186.7L195.7,186.7z"/>
<path class="st5" d="M400,155.9v20.5c0,1.1-0.9,1.6-1.9,1.1L204.8,65.9c-1.1-0.8-1.8-2-1.9-3.3V42.1c0-1.2,0.9-1.7,1.9-1.1
	l193.4,111.6C399.3,153.3,399.9,154.6,400,155.9z"/>
<path class="st12" d="M273.4,89.8l-56.2-32.5v6.2L273.4,96c0.7,0.4,1.1,0.1,1.1-0.7v-3.5C274.5,91.1,274.1,90.3,273.4,89.8z"/>
<path class="st7" d="M217.2,57.4v6.2l-6-3.4c-0.7-0.5-1.1-1.2-1.1-2v-3.5c0-0.8,0.5-1.1,1.1-0.7L217.2,57.4z"/>
<g>
	<g>
		<path class="st1" d="M317.9,203.2c0,11.4-0.1,22.7,0.1,34c0,2.4-0.5,3-2.3,1.8c-3.1-2-6.1-3.7-9.2-5.4c-1.7-1-2.2-2.2-2.2-4.3
			c0-22.7,0-45.2,0-67.9c0-2.2,0.6-2.8,2.2-1.7c2.9,1.7,5.7,3.5,8.6,5c2.1,1.1,2.8,2.4,2.8,5.3C317.8,181,317.9,192.1,317.9,203.2
			L317.9,203.2z"/>
		<path class="st1" d="M326.7,193.2c0-2.1,0.5-2.6,2-1.6c3.2,1.9,6.4,3.8,9.7,5.5c1.5,0.9,2,1.8,2,3.9c-0.1,16.4-0.1,33,0,49.5
			c0,2.4-0.8,2.4-2.3,1.4c-3.1-1.8-6.1-3.6-9.2-5.3c-1.8-0.9-2.3-2.1-2.3-4.4c0.1-8,0-16.1,0-24.1
			C326.6,209.8,326.7,201.5,326.7,193.2z"/>
		<path class="st1" d="M309,134.8c-0.7-2.2-0.2-2.3,1.1-1.4c3.3,2.3,6.8,4.5,10.1,6.6c1.2,0.9,1.6,1.7,0.8,2.5
			c-1.6,1.5-0.4,3.3,1.1,5.4c13.6,17.8,27.1,35.6,40.7,53.3c7.1,9.3,14,18.5,21.1,27.7c1.3,1.8,2.2,3.2,1.1,4.8
			c-0.8,1-1.1,1.9-2.9-0.4c-20.2-26.6-40.3-53.1-60.6-79.7c-4.2-5.4-4.2-5.4-7.2-1.7C312.4,145.9,310.8,140.3,309,134.8z"/>
		<path class="st1" d="M349.1,221.3c0-2.1,0.4-2.5,2-1.4c3.3,2.1,6.7,4,9.9,5.7c1.3,0.7,1.7,1.5,1.7,3.2c0,11.7-0.1,23.2,0,34.9
			c0,2.1-0.7,2-2,1.2c-3.2-1.9-6.4-3.8-9.7-5.5c-1.5-0.9-2-1.9-2-3.9c0.1-5.6,0-11.5,0-17.2C349.1,232.6,349.2,227,349.1,221.3z"/>
		<path class="st1" d="M306.7,247.6c-0.8-0.4-2.2-0.4-2.2-2.3c0.1-1.7,1.4-0.3,2.3,0.1c0.7,0.3,1.2,0.7,1.8,1.1
			c26.8,15.4,53.4,30.9,80.2,46.3c3.6,2.1,3.6,2.1,3.6-2.9c0-32.8,0-65.6,0-98.3c0.1-1.1-0.6-3.3,0.9-2.6c1.5,0.8,1,2.4,1,3.4
			c0.1,34.3,0,68.5,0.1,102.8c0,2.7-0.7,2.8-2.5,1.7c-14.2-8.2-28.4-16.3-42.5-24.6C335.1,264.3,320.9,256.1,306.7,247.6z"/>
		<path class="st1" d="M371.6,258.1c0-3.5,0.1-7,0-10.3c-0.1-1.9,0.4-2.4,1.8-1.5c3.2,1.9,6.4,3.7,9.7,5.5c1.3,0.8,2,1.6,2,3.6
			c-0.1,7.1,0,14.1,0,21.3c0,1.6-0.4,2.1-1.7,1.3c-3.3-2-6.7-3.9-9.9-5.7c-1.5-0.9-1.8-1.9-1.8-3.7
			C371.7,265,371.6,261.6,371.6,258.1L371.6,258.1z"/>
	</g>
</g>
<path class="st12" d="M211.3,59.1c0.1,0.1,0.2,0.2,0.3,0.2h0.1l0.7-0.2c0.2,0.6,0.6,1.1,1.1,1.4c0.2,0.1,0.4,0.2,0.6,0.2
	c0.2,0,0.4,0,0.5-0.1c0.4-0.4,0.7-0.9,0.6-1.4c0-1.1-0.5-2.1-1.3-2.8c-0.3-0.2-0.7-0.2-1,0c-0.4,0.4-0.7,0.9-0.6,1.4
	c0,0.3,0,0.6,0.1,0.9l-0.7,0.2C211.5,58.9,211.4,59,211.3,59.1z M212.7,57.6c0-0.4,0.1-0.7,0.4-1c0.1,0,0.1,0,0.2,0
	c0.1,0,0.2,0,0.3,0.1c0.7,0.6,1.1,1.4,1.1,2.4c0,0.4-0.1,0.7-0.4,1c-0.1,0.1-0.3,0.1-0.5,0C213,59.5,212.6,58.6,212.7,57.6z"/>
<path class="st13" d="M346.3,101.9c1.1,0.6,1.3,0,1.9-1.1l1.6-3c0.8-1.3,1.6-1.2,2.7-0.7l45.6,26.3c1.1,0.7,1.5,1.7,1.9,3.3l1.3,4.6
	c0.5,1.8,0.9,2.8,1.9,3.3l3.9,2.3v15.2L195.7,30.2V15L346.3,101.9z"/>
<path class="st14" d="M206.7,15.2c0,1.2-0.9,1.8-2,1.1c-1.1-0.8-1.9-2.1-2-3.5c0-1.2,0.9-1.8,2-1.1
	C205.8,12.4,206.6,13.8,206.7,15.2z"/>
<path class="st14" d="M215.3,20.2c0,1.2-0.9,1.8-2,1.1c-1.1-0.8-1.9-2.1-2-3.5c0-1.2,0.9-1.8,2-1.1
	C214.5,17.4,215.3,18.7,215.3,20.2z"/>
<path class="st14" d="M224,25.1c0,1.2-0.9,1.8-2,1.1c-1.1-0.8-1.9-2.1-2-3.5c0-1.2,0.9-1.8,2-1.1C223.1,22.4,223.9,23.7,224,25.1z"
	/>
<path class="st12" d="M380.2,133.3l-171.8-99c-1.1-0.8-1.8-2-1.9-3.3v-3c0-1.2,0.9-1.7,1.9-1.1L380.2,126c1.1,0.8,1.8,2,1.9,3.3v3
	C382.1,133.5,381.2,134,380.2,133.3z"/>
<path class="st5" d="M210.3,34.6l-0.9-1.1l-0.9,0.1c-0.1,0-0.3-0.1-0.4-0.2c-0.1-0.2-0.2-0.5-0.2-0.7l0.2-1.2v-0.1l-0.7-1.3
	c-0.1-0.2-0.1-0.5,0-0.7c0.1-0.1,0.3-0.2,0.5-0.1l0.9,0.3l0.4-0.8c0-0.2,0.2-0.3,0.4-0.3s0.4,0.2,0.5,0.5l0.5,1.5v0.1l1.1,0.8
	c0.2,0.1,0.3,0.4,0.3,0.6s-0.1,0.3-0.2,0.4l-0.7,0.5l0.2,1.4c0,0.3-0.1,0.5-0.3,0.6c-0.1,0-0.1,0-0.2,0
	C210.6,34.8,210.5,34.7,210.3,34.6z M211.3,31.9C211.3,31.8,211.3,31.8,211.3,31.9l-1.1-0.9c-0.2-0.1-0.3-0.2-0.3-0.4l-0.4-1.3
	l-0.3,0.7c-0.1,0.2-0.3,0.3-0.5,0.2l-0.7-0.3l0.7,1.2c0.1,0.2,0.1,0.3,0.1,0.5l-0.2,1.2V33l0.9-0.1c0.2,0,0.4,0,0.5,0.2l0.6,0.8
	l-0.1-1c0-0.2,0.1-0.4,0.2-0.5L211.3,31.9L211.3,31.9z"/>
<path d="M398.1,140.2c0,0.2,0.1,0.4,0.3,0.5l3,1.6l-1.1,0.9c-0.1,0.1-0.1,0.3,0,0.5c0,0.1,0.1,0.1,0.2,0.2c0.1,0,0.1,0,0.2,0
	l1.6-1.2l0,0c0.1,0,0.1-0.1,0.1-0.1l0,0v-0.1c0-0.1,0-0.1,0-0.2l0,0c-0.1,0-0.1-0.1-0.1-0.1l0,0l-1.6-3.2c-0.1-0.2-0.3-0.3-0.4-0.2
	c-0.1,0.2-0.1,0.4,0,0.6l1.1,2.2l-3-1.7C398.3,139.7,398.2,139.8,398.1,140.2z"/>
<path d="M396.3,138.9c0,0.2-0.2,0.3-0.3,0.2l-3-1.7l1.1,2.2c0.1,0.2,0.1,0.4,0,0.6l0,0c-0.1,0.1-0.2,0.1-0.2,0
	c-0.1-0.1-0.2-0.1-0.2-0.2l-1.6-3.2l0,0v-0.1l0,0c0-0.1,0-0.1,0-0.2v-0.1l0,0v-0.1l0,0l1.6-1.2c0,0,0.2,0.1,0.3,0.3
	c0.1,0.1,0.1,0.3,0,0.5l-1.1,0.9l3,1.7C396,138.5,396.1,138.7,396.3,138.9z"/>
<path d="M385.9,131.5c-0.1,0.2,0,0.3,0.1,0.4l1.2,0.8c0.1,0.1,0.2-0.1,0.1-0.3l-0.3-0.8c0.5,0,1.1,0.5,1.4,1.3
	c0.6,1.1,0.6,2.5,0,3.1s-1.4,0-2-1.1c0-0.2-0.2-0.3-0.3-0.2c-0.1,0.2-0.1,0.4,0,0.6c0.3,0.7,0.8,1.2,1.3,1.6c0.4,0.3,1,0.3,1.3-0.1
	c0.8-0.7,0.8-2.6,0-4.1c-0.6-1.2-1.4-1.9-2.1-1.8l-0.4-1.1c-0.1-0.2-0.3-0.2-0.3,0L385.9,131.5z"/>
<path d="M351.8,104.5c-0.1,0.3-0.1,0.6,0,0.8c0.1,0.1,0.2,0.2,0.3,0.3c0,0.1,0.1,0.1,0.2,0l1.1-1.1l1.1,2.3c0.1,0.1,0.2,0.2,0.3,0.3
	c0,0.1,0.1,0.1,0.2,0c0.1-0.3,0.1-0.6,0-0.8l-1.1-2.3l1.1-1.1c0.1-0.3,0.1-0.6,0-0.8c-0.1-0.3-0.4-0.4-0.5-0.3l-1.1,1.1l-1.1-2.3
	c-0.1-0.3-0.4-0.4-0.5-0.3c-0.1,0.3-0.1,0.6,0,0.8l1.1,2.3L351.8,104.5z"/>
<path d="M203.9,25.9l-5.4-3.2c-0.1,0-0.1,0-0.1,0c-0.3-0.2-0.4-0.7-0.2-1c0.2-0.4,0.6-0.5,0.9-0.3l5.4,3.2c0.4,0.2,0.5,0.6,0.3,0.9
	c-0.1,0.2-0.4,0.3-0.6,0.3C204.1,25.8,203.9,25.8,203.9,25.9z"/>
<path d="M203.9,29l-5.4-3.2c-0.1,0-0.1,0-0.1,0c-0.3-0.2-0.4-0.7-0.2-1c0.2-0.4,0.6-0.5,0.9-0.3l5.4,3.2c0.4,0.2,0.5,0.6,0.3,0.9
	c-0.1,0.2-0.4,0.3-0.6,0.3C204.1,28.9,204,28.9,203.9,29z"/>
<path d="M203.9,32.1l-5.4-3.2c-0.1,0-0.1,0-0.1,0c-0.3-0.2-0.4-0.7-0.2-1c0.2-0.4,0.6-0.5,0.9-0.3l5.4,3.2c0.4,0.2,0.5,0.6,0.3,0.9
	c-0.1,0.2-0.4,0.3-0.6,0.3C204.1,32,203.9,32,203.9,32.1z"/>
<polygon class="st15" points="412.8,133.9 412.8,149 407.2,152.3 407.2,137.2 "/>
<polygon class="st16" points="412.8,133.9 412.8,149 407.2,152.3 407.2,137.2 "/>
<polygon class="st10" points="207.5,234 149.3,267.6 149.3,303.3 207.5,269.7 "/>
<polygon class="st6" points="109.1,244.4 149.3,267.6 149.3,303.3 109.1,280 "/>
<polygon class="st12" points="149.3,267.6 109.1,244.4 167.2,210.8 207.5,234 "/>
<polygon class="st11" points="149.3,280.6 132.7,269.9 149.3,279.6 177.3,263.5 "/>
<polygon class="st11" points="149.3,289.5 116,269.2 149.3,288.5 193.9,262.8 "/>
<g>
	<polygon class="st6" points="170.8,122.8 164.4,123.9 175.5,101.4 180.1,104 	"/>
	<polygon class="st6" points="203.5,117.6 173.1,122.5 175,118.8 198.9,114.9 	"/>
	<polygon class="st6" points="197.3,114 175.6,117.6 177.4,113.8 192.7,111.4 	"/>
</g>
<path class="st11" d="M182.8,258.3c12.3-3.4,19.6-3.2,19.6-3.2c0.5-2.7-0.5-7.8-0.5-7.8L182.8,258.3z"/>
<polygon class="st12" points="203.9,252.1 182.8,258.3 201.9,247.3 "/>
<path class="st11" d="M151.6,292.9c4,1.8,4.6,4.5,4.6,4.5l21-19.3L151.6,292.9z"/>
<polygon class="st12" points="151.6,292.9 157.6,294.7 177.3,278 "/>
<path class="st11" d="M114.4,264.7l14.9,1.2l-13.3-7.6l-0.2,0.3C114.6,260.4,114.1,262.6,114.4,264.7z"/>
<polygon class="st12" points="111.6,260.6 116,258.3 129.3,265.9 "/>
<path class="st5" d="M196.9,236.4l-33.5-19.3l0,0c-0.3-0.1-0.3-0.4-0.2-0.7s0.4-0.3,0.7-0.2l33.5,19.3c0.2,0,0.3,0.2,0.3,0.4
	c0,0.3-0.2,0.6-0.5,0.6C197.2,236.5,197.1,236.5,196.9,236.4z"/>
<path class="st5" d="M191.3,239.7l-33.5-19.3l-0.1-0.1c-0.2-0.2-0.3-0.6-0.1-0.8s0.6-0.3,0.8-0.1l33.5,19.3c0.2,0,0.3,0.2,0.3,0.4
	c0,0.3-0.2,0.6-0.5,0.6C191.6,239.7,191.5,239.7,191.3,239.7z"/>
<path class="st5" d="M185.9,242.9l-33.5-19.3l0,0c-0.3-0.1-0.3-0.4-0.2-0.7l0,0c0.1-0.3,0.4-0.3,0.7-0.2l33.5,19.3
	c0.3,0.1,0.3,0.4,0.2,0.7c-0.1,0.2-0.3,0.3-0.5,0.3C186,243,185.9,243,185.9,242.9z"/>
<g>
	<g>
		<polygon class="st1" points="257.2,194.5 249.7,205.7 205.8,85.5 220.5,94 		"/>
		<polygon class="st1" points="295.8,137.3 260,190.7 252.8,171 281,128.9 		"/>
		<polygon class="st1" points="275.9,125.9 250.3,164 243.1,144.3 261.2,117.4 		"/>
	</g>
</g>
<path class="st5" d="M180.3,246l-33.5-19.3c-0.3-0.1-0.3-0.4-0.2-0.7s0.4-0.3,0.7-0.2l33.5,19.3c0.2,0,0.3,0.2,0.3,0.4
	c0,0.3-0.2,0.6-0.5,0.6C180.5,246.1,180.4,246.1,180.3,246z"/>
<path class="st5" d="M174.8,249.3L141.3,230l0,0c-0.3-0.1-0.3-0.4-0.2-0.7l0,0c0.1-0.3,0.4-0.3,0.7-0.2l33.5,19.3
	c0.3,0.1,0.3,0.4,0.2,0.7c-0.1,0.2-0.3,0.3-0.5,0.3C175,249.4,174.9,249.4,174.8,249.3z"/>
<path class="st5" d="M169.1,252.6l-33.5-19.3c-0.2-0.2-0.3-0.5-0.2-0.7c0.1-0.3,0.4-0.4,0.7-0.3l33.5,19.3c0.2,0,0.3,0.2,0.3,0.4
	c0,0.3-0.2,0.6-0.5,0.6C169.3,252.6,169.2,252.5,169.1,252.6z"/>
<path class="st5" d="M163.6,255.7l-33.5-19.3H130c-0.2-0.2-0.3-0.6-0.1-0.8s0.6-0.3,0.8-0.1l33.5,19.3c0.3,0.1,0.3,0.4,0.2,0.7
	c-0.1,0.2-0.3,0.3-0.5,0.3C163.8,255.8,163.7,255.8,163.6,255.7z"/>
<path class="st5" d="M158,258.9l-33.5-19.3h-0.1c-0.2-0.2-0.3-0.6-0.1-0.8c0.2-0.2,0.6-0.3,0.8-0.1l33.5,19.3l0,0
	c0.3,0.1,0.3,0.4,0.2,0.7c-0.1,0.2-0.3,0.3-0.5,0.3C158.2,259,158.1,259,158,258.9z"/>
<path class="st5" d="M152.5,262.1L119,242.8l0,0c-0.3-0.1-0.3-0.4-0.2-0.7s0.4-0.3,0.7-0.2l33.5,19.3c0.2,0,0.3,0.2,0.3,0.4
	c0,0.3-0.2,0.6-0.5,0.6C152.6,262.3,152.5,262.2,152.5,262.1z"/>
<path class="st7" d="M229.1,187l-2.6,1.4c-0.9,0.6-1.4,1.6-1.5,2.7v63.5c0,1.1,0.6,2.1,1.5,2.7l66.6,38.5c1.1,0.5,2.2,0.5,3.2,0
	l2.6-1.4c0.9-0.6,1.4-1.6,1.5-2.7v-63.5c0-1.1-0.6-2.1-1.5-2.7l-66.6-38.4C231.3,186.6,230.2,186.6,229.1,187z"/>
<path class="st17" d="M229.1,187l-2.6,1.4c-0.9,0.6-1.4,1.6-1.5,2.7v63.5c0,1.1,0.6,2.1,1.5,2.7l66.6,38.5c1.1,0.5,2.2,0.5,3.2,0
	l2.6-1.4c0.9-0.6,1.4-1.6,1.5-2.7v-63.5c0-1.1-0.6-2.1-1.5-2.7l-66.6-38.4C231.3,186.6,230.2,186.6,229.1,187z"/>
<path class="st7" d="M226.6,188.6l2.6-1.5c1.1-0.5,2.2-0.5,3.2,0l66.6,38.5c0.4,0.3,0.8,0.7,1.1,1.1l-5.6,3.2
	c-0.2-0.5-0.6-0.9-1.1-1.1l-66.6-38.4c-0.8-0.5-1.3-0.3-1.5,0.4C225.3,189.9,225.8,189.1,226.6,188.6z"/>
<path class="st17" d="M226.6,188.6l2.6-1.5c1.1-0.5,2.2-0.5,3.2,0l66.6,38.5c0.4,0.3,0.8,0.7,1.1,1.1l-5.6,3.2
	c-0.2-0.5-0.6-0.9-1.1-1.1l-66.6-38.4c-0.8-0.5-1.3-0.3-1.5,0.4C225.3,189.9,225.8,189.1,226.6,188.6z"/>
<path class="st18" d="M225,191.3v63.5c0,1.1,0.6,2.1,1.5,2.7l66.6,38.5c0.9,0.6,1.5,0.1,1.5-0.9v-63.5c0-1.1-0.6-2.1-1.5-2.7
	l-66.6-38.5C225.8,189.8,225,190.3,225,191.3z"/>
<path class="st7" d="M352.7,272.4"/>
<polygon class="st7" points="265.2,336.1 311.6,363 259.3,393.3 212.8,366.4 "/>
<polygon class="st19" points="265.2,336.1 311.6,363 259.3,393.3 212.8,366.4 "/>
<polygon class="st7" points="311.6,326.7 311.6,363 265.2,336.1 265.2,299.8 "/>
<polygon class="st20" points="311.6,326.7 311.6,363 265.2,336.1 265.2,299.8 "/>
<polygon class="st7" points="265.2,299.8 265.2,336.1 212.8,366.4 212.8,330.1 "/>
<polygon class="st21" points="265.2,299.8 265.2,336.1 212.8,366.4 212.8,330.1 "/>
<polygon class="st7" points="212.8,330.1 212.9,310 265.1,279.7 265.2,299.8 "/>
<polygon class="st22" points="212.8,330.1 212.9,310 265.1,279.7 265.2,299.8 "/>
<polygon class="st7" points="265.2,299.8 270.7,281.6 317.2,308.4 311.6,326.7 "/>
<polygon class="st22" points="265.2,299.8 270.7,281.6 317.2,308.4 311.6,326.7 "/>
<path class="st23" d="M298.7,361.6l-39.9-22.8c-0.6-0.4-0.9-1-0.9-1.6l3.9-64c0.1-0.7,0.4-1.2,1-1.6c0.6-0.3,1.2-0.3,1.8,0
	l39.9,22.8c0.6,0.4,0.9,1,0.9,1.6l-3.9,64c-0.1,0.7-0.4,1.2-1,1.6C300,361.9,299.3,361.9,298.7,361.6z"/>
<path class="st12" d="M299.7,360.9l3.9-63.9c0-0.7-0.3-1.2-0.9-1.6l-39.9-22.8c-0.5-0.3-1,0-1,0.6l-3.9,64c0,0.7,0.3,1.2,0.9,1.6
	l39.9,22.8C299.2,361.9,299.7,361.7,299.7,360.9z"/>
<path class="st10" d="M262.5,273c0.1,0,0.1,0,0.2,0.1l39.9,22.9c0.4,0.3,0.6,0.7,0.6,1.1l-3.9,63.9c0,0.2,0,0.3-0.1,0.3
	s-0.1-0.1-0.2-0.1l-39.9-22.8c-0.4-0.3-0.6-0.7-0.6-1.1l3.9-64C262.4,273.1,262.4,273,262.5,273 M262.5,272.5
	c-0.3,0-0.6,0.2-0.6,0.7l-3.9,64c0,0.7,0.3,1.2,0.9,1.6l39.9,22.8c0.1,0.1,0.3,0.1,0.4,0.1c0.3,0,0.6-0.2,0.6-0.7l3.9-64
	c0-0.7-0.3-1.2-0.9-1.6l-39.9-22.8C262.8,272.5,262.6,272.5,262.5,272.5L262.5,272.5z"/>
<path class="st15" d="M299.7,361l3.9-64c0-0.4,0-0.7-0.2-1l1.8-1.1c0.1,0.3,0.2,0.7,0.2,1l-3.9,64c-0.1,0.7-0.4,1.2-1,1.6
	c-0.6,0.3-1.1,0.3-1.7,0.1C299.3,361.9,299.7,361.6,299.7,361z"/>
<path class="st15" d="M283.4,291.7v0.4c0,0.5-0.4,0.8-0.9,0.5l-14-8.1c-0.5-0.4-0.8-0.9-0.8-1.4v-0.4c0-0.5,0.4-0.8,0.9-0.5l14,8.1
	C283.2,290.6,283.4,291.1,283.4,291.7z"/>
<path class="st15" d="M283.1,297.2v0.4c0,0.5-0.5,0.8-0.9,0.5l-14-8.1c-0.5-0.4-0.8-0.9-0.8-1.4v-0.3c0-0.5,0.4-0.8,0.9-0.5l14,8.1
	C282.8,296.1,283.1,296.7,283.1,297.2z"/>
<path class="st15" d="M282.7,302.7v0.4c0,0.5-0.4,0.8-0.9,0.5l-14-8.1c-0.5-0.4-0.8-0.9-0.8-1.4v-0.3c0-0.5,0.4-0.8,0.9-0.5l14,8.1
	C282.4,301.7,282.7,302.2,282.7,302.7z"/>
<path class="st15" d="M296.9,322.5v0.3c0,0.5-0.5,0.8-0.9,0.5l-28.9-16.6c-0.5-0.4-0.8-0.9-0.8-1.4V305c0-0.5,0.4-0.8,0.9-0.5
	l28.9,16.6C296.6,321.3,296.9,321.9,296.9,322.5z"/>
<path class="st15" d="M297.2,316.8v0.3c0,0.5-0.4,0.8-0.9,0.5L267.5,301c-0.5-0.4-0.8-0.9-0.8-1.4v-0.3c0-0.5,0.4-0.8,0.9-0.5
	l28.9,16.6C296.9,315.8,297.2,316.3,297.2,316.8z"/>
<path class="st15" d="M296.5,328v0.3c0,0.5-0.4,0.8-0.9,0.5l-28.9-16.6c-0.5-0.4-0.8-0.9-0.8-1.4v-0.3c0-0.5,0.4-0.8,0.9-0.5
	l28.9,16.6C296.2,327,296.5,327.4,296.5,328z"/>
<path class="st15" d="M296.2,333.7v0.3c0,0.5-0.4,0.8-0.9,0.5l-28.9-16.6c-0.5-0.4-0.8-0.9-0.8-1.4v-0.3c0-0.5,0.4-0.8,0.9-0.5
	l28.9,16.6C296,332.5,296.2,333.1,296.2,333.7z"/>
<path class="st15" d="M295.9,339.2v0.3c0,0.5-0.4,0.8-0.9,0.5l-28.9-16.6c-0.5-0.4-0.8-0.9-0.8-1.4v-0.3c0-0.5,0.4-0.8,0.9-0.5
	l28.9,16.6C295.6,338.1,295.9,338.6,295.9,339.2z"/>
<path class="st15" d="M295.6,344.7v0.4c0,0.5-0.4,0.8-0.9,0.5L265.8,329c-0.5-0.4-0.8-0.9-0.8-1.4v-0.3c0-0.5,0.4-0.8,0.9-0.5
	l28.9,16.6C295.3,343.6,295.5,344.2,295.6,344.7z"/>
<path class="st15" d="M295.2,350.3v0.4c0,0.5-0.4,0.8-0.9,0.5l-28.9-16.6c-0.5-0.3-0.8-0.9-0.8-1.4v-0.3c0-0.5,0.4-0.8,0.9-0.5
	l28.9,16.6C294.9,349.2,295.2,349.7,295.2,350.3z"/>
<polygon class="st7" points="297.3,312.3 285.6,305.6 286.5,291.5 298.2,298.2 "/>
<path class="st24" d="M287.9,295.1l-0.3,4.2l0.4,0.2l0.1-1.3c0.1-0.7,0.7-1,1.3-0.6l1.7,1l-0.4,6.2c0,0.9-0.6,1.2-1.1,0.9l-1.1-0.6
	v0.3l5.8,3.3v-0.5l-1.1-0.6c-0.7-0.5-1.1-1.2-1-2.1l0.4-6.2l1.7,1c0.7,0.5,1.1,1.1,1.1,2l-0.1,1.3l0.4,0.2l0.3-4.2L287.9,295.1z"/>
<path class="st23" d="M282.1,371.2l-39.9-22.8c-0.6-0.4-0.9-1-0.9-1.6l3.9-64c0.1-0.7,0.4-1.2,1-1.6c0.6-0.3,1.2-0.3,1.8,0
	l39.9,22.8c0.6,0.4,0.9,1,0.9,1.6l-3.9,63.9c-0.1,0.7-0.4,1.2-1,1.6C283.3,371.4,282.7,371.4,282.1,371.2z"/>
<path class="st12" d="M283.2,370.7l3.9-63.9c0-0.7-0.3-1.2-0.9-1.6l-39.9-22.9c-0.5-0.3-1,0-1,0.6l-3.9,63.9c0,0.7,0.3,1.2,0.9,1.6
	l39.9,22.8C282.7,371.5,283.1,371.2,283.2,370.7z"/>
<path class="st10" d="M246,282.5c0,0,0.1,0,0.2,0.1l39.9,22.8c0.4,0.3,0.6,0.7,0.6,1.1l-3.9,64c0,0.2,0,0.3-0.1,0.3
	s-0.1-0.1-0.2-0.1l-40-22.7c-0.4-0.3-0.6-0.7-0.6-1.1l3.9-64C245.9,282.6,245.9,282.5,246,282.5 M246,282.1
	c-0.4,0.1-0.6,0.3-0.6,0.8l-3.9,63.9c0,0.7,0.3,1.2,0.9,1.6l39.9,22.8c0.1,0.1,0.3,0.1,0.4,0.1c0.3,0,0.6-0.2,0.6-0.7l3.9-63.9
	c0-0.7-0.3-1.2-0.9-1.6l-39.9-22.9C246.3,282.1,246.1,282.1,246,282.1L246,282.1z"/>
<path class="st15" d="M283.2,370.6l3.9-64c0-0.4,0-0.7-0.2-1l1.8-1.1c0.1,0.3,0.2,0.7,0.2,1l-3.9,64c-0.1,0.7-0.4,1.2-1,1.6
	c-0.6,0.3-1.1,0.3-1.7,0.1C282.7,371.4,283.1,371.1,283.2,370.6z"/>
<path class="st15" d="M266.8,301.3v0.4c0,0.5-0.4,0.8-0.9,0.5l-14-8.1c-0.5-0.4-0.8-0.9-0.8-1.4v-0.4c0-0.5,0.4-0.8,0.9-0.5l14,8.1
	C266.5,300.1,266.8,300.7,266.8,301.3z"/>
<path class="st15" d="M266.4,306.8v0.4c0,0.5-0.4,0.8-0.9,0.5l-14-8.1c-0.5-0.4-0.8-0.9-0.8-1.4v-0.4c0-0.5,0.5-0.8,0.9-0.5l14,8.1
	C266.1,305.8,266.4,306.2,266.4,306.8z"/>
<path class="st15" d="M266.1,312.4v0.4c0,0.5-0.4,0.8-0.9,0.5l-14-8.1c-0.5-0.3-0.8-0.9-0.8-1.4v-0.4c0-0.5,0.4-0.8,0.9-0.5l14,8.1
	C265.9,311.3,266.1,311.9,266.1,312.4z"/>
<path class="st15" d="M280.3,332v0.3c0,0.5-0.4,0.8-0.9,0.5l-28.9-16.6c-0.5-0.4-0.8-0.9-0.8-1.4v-0.3c0-0.5,0.4-0.8,0.9-0.5
	l28.9,16.6C280,330.9,280.3,331.5,280.3,332z"/>
<path class="st15" d="M280.7,326.5v0.3c0,0.5-0.4,0.8-0.9,0.5l-28.9-16.6c-0.5-0.4-0.8-0.9-0.8-1.4v-0.4c0-0.5,0.5-0.8,0.9-0.5
	l28.9,16.6C280.4,325.3,280.7,325.8,280.7,326.5z"/>
<path class="st15" d="M280,337.6v0.3c0,0.5-0.4,0.8-0.9,0.5l-28.9-16.6c-0.5-0.4-0.8-0.9-0.8-1.4V320c0-0.5,0.4-0.8,0.9-0.5
	l28.9,16.6C279.7,336.5,280,337,280,337.6z"/>
<path class="st15" d="M279.6,343.2v0.3c0,0.5-0.5,0.8-0.9,0.5l-28.9-16.6c-0.5-0.4-0.8-0.9-0.8-1.4v-0.3c0-0.5,0.4-0.8,0.9-0.5
	l28.9,16.6C279.3,342.1,279.6,342.6,279.6,343.2z"/>
<path class="st15" d="M279.3,348.8v0.3c0,0.5-0.4,0.8-0.9,0.5L249.5,333c-0.5-0.4-0.8-0.9-0.8-1.4v-0.3c0-0.5,0.4-0.8,0.9-0.5
	l28.9,16.6C279,347.6,279.2,348.2,279.3,348.8z"/>
<path class="st15" d="M278.9,354.3v0.3c0,0.5-0.5,0.8-0.9,0.5l-28.9-16.6c-0.5-0.4-0.8-0.9-0.8-1.4v-0.3c0-0.5,0.5-0.8,0.9-0.5
	l28.9,16.6C278.7,353.2,278.9,353.7,278.9,354.3z"/>
<path class="st15" d="M278.7,359.9v0.3c0,0.5-0.4,0.8-0.9,0.5l-28.9-16.6c-0.5-0.4-0.8-0.9-0.8-1.4v-0.3c0-0.5,0.4-0.8,0.9-0.5
	l28.9,16.6C278.3,358.8,278.6,359.4,278.7,359.9z"/>
<polygon class="st7" points="280.7,321.8 269,315.1 269.9,301.2 281.5,307.8 "/>
<path class="st24" d="M271.3,304.6l-0.3,4.2l0.4,0.2l0.1-1.2c0.1-0.7,0.7-1,1.3-0.6l1.7,1l-0.4,6.2c0,0.9-0.6,1.2-1.1,0.9l-1.1-0.6
	v0.4l5.8,3.3v-0.5l-1.1-0.6c-0.7-0.5-1.1-1.2-1-2.1l0.4-6.2l1.7,1c0.7,0.5,1.1,1.1,1.1,2l-0.1,1.3l0.4,0.2l0.3-4.2L271.3,304.6z"/>
<path class="st23" d="M265.5,380.8l-39.8-22.9c-0.6-0.4-0.9-1-0.9-1.6l3.9-63.9c0.1-0.7,0.4-1.2,1-1.6c0.6-0.3,1.2-0.3,1.8,0
	l39.9,22.8c0.6,0.4,0.9,1,0.9,1.6l-3.9,64c-0.1,0.7-0.4,1.2-1,1.6C266.8,381.1,266.1,381.1,265.5,380.8z"/>
<path class="st12" d="M266.5,380.3l3.9-63.9c0-0.7-0.3-1.2-0.9-1.6l-39.9-22.9c-0.5-0.3-1,0-1,0.6l-3.9,63.9c0,0.7,0.3,1.2,0.9,1.6
	l39.9,22.8C266.1,381.1,266.5,380.8,266.5,380.3z"/>
<path class="st10" d="M229.4,292.1c0,0,0.1,0,0.2,0l39.9,22.8c0.4,0.3,0.6,0.7,0.6,1.1l-3.9,64c0,0.2,0,0.3-0.1,0.3
	s-0.1-0.1-0.2-0.1L226,357.5c-0.4-0.3-0.6-0.7-0.6-1.1l3.9-63.9C229.3,292.2,229.3,292.1,229.4,292.1 M229.4,291.6
	c-0.4,0-0.7,0.3-0.7,0.7l-3.9,64c0,0.7,0.3,1.2,0.9,1.6l39.9,22.8c0.1,0.1,0.3,0.1,0.4,0.1c0.3,0,0.6-0.2,0.6-0.7l3.9-63.9
	c0-0.7-0.3-1.2-0.9-1.6l-39.8-22.9C229.7,291.6,229.5,291.6,229.4,291.6L229.4,291.6z"/>
<path class="st15" d="M266.5,380.1l3.9-64c0-0.4,0-0.7-0.2-1l1.8-1.1c0.1,0.3,0.2,0.7,0.2,1l-3.9,64c-0.1,0.7-0.4,1.2-1,1.6
	c-0.6,0.3-1.1,0.3-1.7,0.1C266.1,381,266.5,380.7,266.5,380.1z"/>
<path class="st15" d="M250.3,310.8v0.4c0,0.5-0.4,0.8-0.9,0.5l-14-8.1c-0.5-0.4-0.8-0.9-0.8-1.4v-0.4c0-0.5,0.4-0.8,0.9-0.5l14,8.1
	C250,309.7,250.3,310.2,250.3,310.8z"/>
<path class="st15" d="M250,316.4v0.4c0,0.5-0.4,0.8-0.9,0.5l-14-8.1c-0.5-0.4-0.8-0.9-0.8-1.4v-0.4c0-0.5,0.4-0.8,0.9-0.5l14,8.1
	C249.6,315.3,249.9,315.8,250,316.4z"/>
<path class="st15" d="M249.6,322v0.4c0,0.5-0.4,0.8-0.9,0.5l-14-8.1c-0.5-0.4-0.8-0.9-0.8-1.4V313c0-0.5,0.4-0.8,0.9-0.5l14,8.1
	C249.3,320.9,249.6,321.4,249.6,322z"/>
<path class="st15" d="M263.7,341.6v0.3c0,0.5-0.4,0.8-0.9,0.5L234,325.8c-0.5-0.4-0.8-0.9-0.8-1.4V324c0-0.5,0.4-0.8,0.9-0.5
	l28.9,16.6C263.5,340.4,263.7,341,263.7,341.6z"/>
<path class="st15" d="M264.1,336.1v0.3c0,0.5-0.4,0.8-0.9,0.5l-28.9-16.6c-0.5-0.4-0.8-0.9-0.8-1.4v-0.4c0-0.5,0.5-0.8,0.9-0.5
	l28.9,16.6C263.8,334.9,264,335.4,264.1,336.1z"/>
<path class="st15" d="M263.4,347.1v0.4c0,0.5-0.4,0.8-0.9,0.5l-28.9-16.6c-0.5-0.4-0.8-0.9-0.8-1.4v-0.3c0-0.5,0.4-0.8,0.9-0.5
	l28.9,16.6C263.1,346.1,263.4,346.6,263.4,347.1z"/>
<path class="st15" d="M263.1,352.8v0.3c0,0.5-0.5,0.8-0.9,0.5L233.3,337c-0.5-0.4-0.8-0.9-0.8-1.4v-0.3c0-0.5,0.4-0.8,0.9-0.5
	l28.9,16.6C262.8,351.6,263.1,352.2,263.1,352.8z"/>
<path class="st15" d="M262.7,358.3v0.3c0,0.5-0.4,0.8-0.9,0.5L233,342.5c-0.5-0.4-0.8-0.9-0.8-1.4v-0.3c0-0.5,0.4-0.8,0.9-0.5
	l28.9,16.6C262.4,357.2,262.7,357.7,262.7,358.3z"/>
<path class="st15" d="M262.4,363.9v0.3c0,0.5-0.5,0.8-0.9,0.5L232.7,348c-0.5-0.4-0.8-0.9-0.8-1.4v-0.3c0-0.5,0.4-0.8,0.9-0.5
	l28.9,16.6C262.1,362.8,262.4,363.3,262.4,363.9z"/>
<path class="st15" d="M262,369.5v0.3c0,0.5-0.4,0.8-0.9,0.5l-28.9-16.6c-0.5-0.4-0.8-0.9-0.8-1.4V352c0-0.5,0.4-0.8,0.9-0.5
	l28.9,16.6C261.7,368.4,262,368.9,262,369.5z"/>
<polygon class="st7" points="264.1,331.4 252.5,324.7 253.3,310.7 265,317.4 "/>
<path class="st24" d="M254.8,314.2l-0.3,4.2l0.4,0.2l0.1-1.2c0.1-0.7,0.7-1,1.3-0.6l1.7,1l-0.4,6.2c0,0.9-0.6,1.2-1.1,0.9l-1.1-0.6
	v0.5l5.8,3.3v-0.5l-1.1-0.6c-0.7-0.5-1.1-1.2-1-2.1l0.4-6.2l1.7,1c0.7,0.5,1.1,1.1,1.1,2l-0.1,1.2l0.4,0.2l0.3-4.2L254.8,314.2z"/>
<polygon class="st25" points="311.6,326.7 311.6,363 259.3,393.3 259.3,356.9 "/>
<polygon class="st25" points="259.3,393.3 259.3,356.9 212.8,330.1 212.8,366.4 "/>
<polygon class="st26" points="258.4,357.7 259.3,393.3 259.3,356.9 212.8,330.1 "/>
<polygon class="st27" points="212.8,330.1 208.9,312.7 255,339.3 259.3,356.9 "/>
<polygon class="st27" points="259.3,356.9 270.2,341.8 322.5,311.6 311.6,326.7 "/>
<polygon class="st26" points="270.8,342.4 259.3,356.9 270.2,341.8 322.5,311.6 "/>
<path class="st14" d="M245.3,382.2v-6.4c0-0.2,0.1-0.3,0.3-0.3s0.3,0.1,0.3,0.3v6.4c0,0.2-0.1,0.3-0.3,0.3
	C245.5,382.5,245.3,382.4,245.3,382.2z"/>
<path class="st14" d="M246.2,377.9l-0.7-1.5l-0.6,0.6l0,0c-0.1,0.1-0.3,0.1-0.4,0s-0.1-0.3,0-0.4l1.1-1.3l1.1,2.4l0,0
	c0,0.2,0,0.3-0.2,0.4h-0.1C246.4,378,246.3,378,246.2,377.9z"/>
<path class="st14" d="M243,381c-0.2,0-0.3-0.2-0.3-0.3v-6.4c0-0.2,0.1-0.3,0.3-0.3s0.3,0.1,0.3,0.3v6.4
	C243.3,380.9,243.2,381,243,381L243,381z"/>
<path class="st14" d="M243.5,376.3l-0.7-1.5l-0.6,0.7c-0.1,0.1-0.3,0.1-0.4,0l0,0c-0.1-0.1-0.1-0.3,0-0.4l1.1-1.3l1.1,2.4
	c0,0.2,0,0.3-0.2,0.4h-0.1C243.7,376.5,243.6,376.5,243.5,376.3z"/>
<path class="st14" d="M252.8,386.6c-0.6-0.5-0.9-1.1-0.9-1.8v-3.2l0,0c0-0.2,0.1-0.3,0.3-0.3s0.3,0.1,0.3,0.3v3.2
	c0,0.6,0.2,1.1,0.6,1.3c0.1,0.1,0.1,0.1,0.2,0.1c0.1-0.1,0.1-0.1,0.1-0.2v-0.8c0-0.2,0.1-0.3,0.3-0.3l0,0c0.2,0,0.3,0.1,0.3,0.3v0.8
	c0,0.3-0.2,0.5-0.4,0.7c-0.1,0.1-0.2,0.1-0.3,0.1C253,386.8,252.9,386.7,252.8,386.6z"/>
<path class="st14" d="M248.6,379.8v-0.2c-0.1-0.7,0.1-1.4,0.6-2c0.9-1.1,2.4-1.1,3.4-0.3c2.1,1.4,3.5,3.7,3.6,6.3v0.5L248.6,379.8z
	 M250.1,377.6c-0.6,0.5-0.9,1.1-0.9,1.9l6.4,3.7c-0.3-2.2-1.5-4.1-3.3-5.4c-0.5-0.3-1-0.5-1.4-0.5
	C250.7,377.4,250.4,377.4,250.1,377.6z"/>
<path class="st28" d="M78,318c-0.1,0-0.2,0.3-0.2,1.3c0,0.5,0.2,1,0.5,1.3c1,0.9,3.9,1.3,5.5,1.1s4.4-1.1,6-1.1s5.5,0.3,8.2-0.3
	c2.7-0.6,4.2-2.3,4.3-2.8c0.1-0.5,0.1-1.5-0.3-1.5L78,318z"/>
<path class="st5" d="M78.5,314c0-0.4,0-0.7,0.1-1.2c0.1-0.6,0.2-3.2,0.9-3.3c0.7-0.1,7.4-0.2,7.4-0.2c0.4,0,0.5,0.5,0.8,1
	c0.2,0.5,0.6,1,1,1.2c0.9,0.4,1.9,0.6,2.9,0.6c1.4,0,2.6-0.2,4.2-0.3c1.5-0.1,3,0.2,4.3,0.8c1.4,0.7,2.4,2.1,2.3,3.7
	c-0.6,1.1-1.4,1.9-2.5,2.4c-1.2,0.6-2.7,1-4.1,1.1c-1.9,0.1-3.8,0.1-5.7,0c-1.4,0-2.9,0.2-4.2,0.6c-1.8,0.6-3.7,0.6-5.5,0.1
	c-0.9-0.2-1.5-0.7-2-1.4c-0.1-1.1-0.1-2.3,0.1-3.3c0-0.2,0.1-0.5,0.1-0.7C78.3,314.5,78.5,314.4,78.5,314z"/>
<path class="st12" d="M92.6,311.7L92.6,311.7c-0.1,0.3,0.3,0.3,0.4,0.3c0.3,0.1,0.5,0.2,0.7,0.4c0.1,0.2,0.3,0.4,0.4,0.6
	c0.3,0.6,0.5,1.1,0.6,1.7c0,0.2,0,0.3,0.1,0.3s0.2-0.1,0.2-0.2c0.1-0.4,0-0.9-0.1-1.2c-0.1-0.3-0.2-0.7-0.4-1
	c-0.3-0.5-0.8-1.1-1.4-1C92.8,311.6,92.7,311.6,92.6,311.7L92.6,311.7z"/>
<path class="st12" d="M90.6,311.8c-0.1,0.1-0.2,0.1-0.2,0.2h0.2c0.1,0,0.1,0.1,0.2,0.1c0.1,0.1,0.2,0.2,0.3,0.3
	c0.1,0.1,0.2,0.3,0.3,0.5c0.2,0.5,0.4,1,0.5,1.4c0,0.2,0,0.5,0.1,0.7s0.3,0.3,0.4,0.1c0.3-0.8,0.3-1.5-0.1-2.2
	c-0.1-0.4-0.3-0.7-0.6-0.9s-0.6-0.2-0.9-0.2H90.6z"/>
<path class="st12" d="M88.7,311.3c-0.1,0-0.1,0.1-0.2,0.1s0,0.1,0,0.1c0.6,0.7,0.9,1.4,0.9,2.3c0,0.2,0,0.6,0,0.7s0,0.3,0.1,0.4
	s0.2-0.1,0.3-0.2c0.2-0.3,0.2-0.7,0.2-1c0-0.5-0.1-1-0.3-1.4c-0.1-0.2-0.2-0.4-0.3-0.6C89.2,311.5,89,311.4,88.7,311.3L88.7,311.3z"
	/>
<path class="st12" d="M93.9,312c0,0,0.3-0.7,2.9-0.7c1.8-0.1,3.5,0.6,4.8,1.8c0.7,0.9,1,2,0.8,3.1c-0.2,0.4-0.5,0.8-0.9,1.1
	c-1.1,1-2.3,1.6-3.6,1.8c0.1-1.5,0-3.2-0.5-4.6c-0.7-1.9-2.1-2.8-2.8-2.8L93.9,312z"/>
<path class="st29" d="M86.8,303.7c0,2,0,4.1-0.2,6.2c-0.5,1.3-1.8,2.2-3.2,2.1c-2.8,0.1-3.6-1.3-3.8-2.2c-0.3-1.5-0.5-5-0.5-5
	L86.8,303.7z"/>
<path class="st29" d="M38.1,299.3c0.8-1,7.1-10,7.1-10l-9-3.1l-4.1,10.3C32.1,296.5,37,301.1,38.1,299.3z"/>
<path class="st5" d="M28,299.1c0.4-0.9,1-1.5,1.7-1.9c0.8-0.4,1.5-1,2.1-1.5c0.3-0.3,0.5-0.7,0.9-0.8c0.3-0.1,0.5-0.1,0.8,0
	c1.1,0.3,2.3,0.9,3.2,1.6c0.5,0.4,0.9,0.8,1.1,1.2c0.4,0.5,0.7,1,0.8,1.5c-0.1,0.8-0.4,1.5-0.8,2.2c-0.3,0.8-0.5,1.5-0.6,2.4
	c-0.1,1.3-0.1,2.6-0.1,3.9c-0.1,1.8,0.2,1.8,0.2,1.8c1.5,1.4,2,3.7,1.2,5.6c-0.9,0.8-2,1.1-3.1,0.7c-0.2-0.1-0.3-0.1-0.4-0.2
	c-1.9-1-6.5-3.6-6.4-3.9c0-0.3,0-0.7,0-1c0-0.8,0-1.4,0-2.2c0-0.7,0-1.3-0.1-2c-0.2-0.6-0.3-1.1-0.3-1.7c-0.1-1.4-0.2-2.9-0.3-4.3
	c-0.1-0.4-0.1-0.9,0-1.2C28.1,299.3,28.1,299.2,28,299.1z"/>
<path class="st12" d="M40.2,309.8L40.2,309.8c0.2,0.1,0.5,0.2,0.7,0.4c1.1,0.5,1.7,1.6,1.7,2.8c0,0-0.9,1.9-4.1,2.2
	c0.4-1.6,0.2-3.3-0.7-4.8l0,0c-0.2-0.3-0.4-0.6-0.6-0.9C38.2,309.3,39.2,309.4,40.2,309.8z"/>
<path class="st7" d="M31.1,301c1.9,1.8,2.2,4.5,2.4,8.7c0,2.4,0.5,4.8,1.3,7.1c0,0-6-2.9-6.9-3.5c-0.9-0.7-0.7-1.5-0.4-3.4
	c0.3-1.9,0-2.7-0.6-5s-0.8-4.6,0.1-5C28.5,299.4,30.1,299.7,31.1,301z"/>
<path class="st5" d="M31.1,301c1.9,1.8,2.2,4.5,2.4,8.7c0,2.4,0.5,4.8,1.3,7.1c0,0-6-2.9-6.9-3.5c-0.9-0.7-0.7-1.5-0.4-3.4
	c0.3-1.9,0-2.7-0.6-5s-0.8-4.6,0.1-5C28.5,299.4,30.1,299.7,31.1,301z"/>
<path class="st28" d="M42.6,313c0.5,0.5,0.4,1.3,0,1.8c-2,1.6-4.5,2.4-7,2.1c-2.6-0.4-2.7-4.1-2.8-7.3c-0.1-3.2-0.4-6.7-2.1-8.3
	c-0.9-1-2.2-1.5-3.5-1.4c0.3-0.4,1.1-1.1,1.2-1c0.9-0.2,3.1,0.7,4.3,2.7s1.3,6.5,1.6,9.7s0.4,4.2,3.2,3.9
	C39.3,314.9,41.1,314.2,42.6,313L42.6,313z"/>
<path class="st12" d="M36.4,310.1c-0.6,0.7-0.3,0.8,0.1,0.6c0.6-0.4,1-1.1,1-1.7c0-0.2-0.2-0.5-0.4-0.6
	C36.9,308.9,36.7,309.5,36.4,310.1z"/>
<path class="st12" d="M36.1,307.6c-0.3,0.3-0.6,1,0,0.7c0.6-0.4,1.1-1.1,1.1-1.7c0-0.2-0.1-0.4-0.2-0.5
	C36.8,306.6,36.5,307.1,36.1,307.6z"/>
<path class="st12" d="M35.9,304.6c-0.5,0.3-0.4,0.5,0,0.5s1.6-0.9,1.6-1.1s-0.1-0.3-0.3-0.4C37.2,303.6,36.4,304.3,35.9,304.6z"/>
<path class="st5" d="M34.7,289.6c1.1-3.3,4.7-14.6,6.1-18.3c2.3-5.7,3.7-8.8,8.4-11.8c0,0,0-28.1,0.3-38.3c0.3-13.1,3-18.2,3-18.2
	l31.6,2.1c0,0,1.8,21.9,2.8,32.1c1.1,11.7,1.2,17.3,1.7,22.7c0.3,4,0.1,6.7-0.2,12.7c-0.3,6-1.3,32.3-1.3,32.3
	c-1.2,0.7-2.7,1.1-4.1,1.1s-3-0.3-4.2-1c0,0-1.2-9.4-3.2-19c-1-4.6-1.4-9.2-1.5-13.9c0-2.7,0.2-5.4,0.7-7.9L67,236.1
	c0,0-3.7,24-4.3,26.3S42.4,294,42.4,294S38.8,290.7,34.7,289.6z"/>
<path class="st30" d="M139.6,210l4.7-6.9l14,18.8l3.2,4.3l0,0c0.3,0.4,0.3,0.9,0.1,1.2c-0.2,0.6-0.9,0.9-1.4,0.7l0,0l-4.6-1.3
	l-22.9-6.6L139.6,210z"/>
<path class="st29" d="M144.3,203.1l14,18.8l3.2,4.3l0,0c0.3,0.4,0.3,0.9,0.1,1.2l-3.5-2.8L139.5,210L144.3,203.1z"/>
<path class="st28" d="M157.9,224.7c0.3-0.9,0.4-1.8,0.2-2.8l3.2,4.3l0,0c0.3,0.4,0.3,0.9,0.1,1.2c-0.2,0.6-0.9,0.9-1.4,0.7l0,0
	l-4.6-1.3C156.5,226.5,157.5,225.8,157.9,224.7z"/>
<path class="st31" d="M30.4,149.2l5.2,3.6l96.9,67.5c3.3,0.1,7.6-3.2,10.1-7.6c1.7-2.9,2.3-6.3,1.6-9.6l-97.6-68l-2.8-1.9l-2.3-1.5
	C45.2,133.9,33.9,151.3,30.4,149.2z"/>
<path class="st32" d="M42.2,141.8l100.5,70.8c1.7-2.9,2.3-6.3,1.6-9.6l-97.6-68l-2.8-1.9L42.2,141.8z"/>
<path class="st15" d="M50.3,137.6L50.3,137.6c1.2,1.1,0.1,4.8-2,8.4c-2.9,5.1-7.4,10.2-9.4,9l1.3,1l3.7,2.6c1.9,1.3,6.5-3.8,9.4-8.9
	c2.2-3.8,3.4-7.6,1.9-8.5L50.3,137.6C50.3,137.6,50.4,137.6,50.3,137.6z"/>
<path class="st12" d="M48.3,146.1l5.1,3.5c2.2-3.8,3.4-7.6,1.9-8.5l-5.1-3.5c0,0,0.1,0,0.1,0.1l0,0
	C51.6,138.9,50.4,142.5,48.3,146.1L48.3,146.1z"/>
<path class="st32" d="M46.4,135.1c3.5,2.3-7.8,19.7-11.3,17.5l5.1,3.4c3.4,2.2,14.7-15.2,11.3-17.5L46.4,135.1z"/>
<path class="st15" d="M30.4,149.2l5,3.5c0,0,0.1,0.1,0.2,0.1c3.6,1.4,14.4-15.5,11-17.7l-5-3.4C45.2,133.9,33.9,151.3,30.4,149.2z"
	/>
<path class="st30" d="M14.8,117.9c-5.4,3.8-9.5,14.2-4.5,17.1l20.3,14l0,0c2,1.3,6.5-3.9,9.4-9c2.1-3.8,3.2-7.6,1.8-8.5L20.6,117
	C18.7,115.9,16.6,116.4,14.8,117.9z"/>
<path class="st29" d="M14.7,117.9c2.3-1.2,4.5-1.3,5.5,0.8c1.1,2.1-1.6,7.4-1.6,7.4l21.3,14c2.1-3.8,3.2-7.6,1.8-8.5L20.6,117
	C18.7,115.9,16.6,116.4,14.7,117.9z"/>
<path class="st32" d="M44.5,143.5l5.1,3.5c2.2-3.8,3.3-7.6,1.9-8.5l-5-3.5C47.9,135.9,46.7,139.6,44.5,143.5z"/>
<path class="st12" d="M39.8,140.1l5,3.5c2.1-3.8,3.3-7.6,1.8-8.5l-5-3.4C43.2,132.6,41.9,136.3,39.8,140.1z"/>
<polygon class="st29" points="63,158.7 62.2,171.6 72.6,172.2 73.7,160.6 "/>
<path class="st30" d="M81.6,152.3c0.7-0.2,1.2-0.4,1.8-0.8c0.3-0.4-2-3.8-2-3.8L81.6,152.3z"/>
<path class="st33" d="M56.4,153.4c1.6,2.8,3.8,5.4,6.4,7.4c2.3,0.7,4.8,0.9,7.2,0.4c3.6-1.7,3.3-6.9,3.3-6.9c-0.5,0.1-1,0.2-1.4,0.1
	l0.1-0.1c0.6-0.7,1.1-1.3,1.8-1.9c1.6-1.7,4.2-3.1,4.7-5.4c0.3-1.8,1.1-2.8,2.3-4.1c0.8-0.8,1.2-1.6,1.3-2.7c0.1-1.1-0.6-2-1.5-2.3
	c1-1,1.5-2.2,1.6-3.5s-0.6-2.7-1.8-3.2c-1.1-0.3-2.2-0.4-3.2-0.1c-2.4,0.2-4.9,0.2-7.3,0s-4.9,0.2-7.2,1c-1.3,0.5-2.4,1.2-3.3,2.3
	c-0.9,1.1-1.1,2.3-1.9,3.4c-0.1,0.2-0.3,0.4-0.4,0.5c-0.3,0.4-0.7,0.7-1,1C52.1,142.9,54,149.5,56.4,153.4z"/>
<path class="st29" d="M70.9,147.8c1.9-0.6,3,0.7,3.7,1.7c0.1,0.1,0.7,0.2,0.8,0.1c0.1,0,0.2,0,0.2-0.1c0.9-0.8,1.6-1.8,2-3
	c0.3-1,0-2-0.6-2.9c1.1-0.6,1.9-1.5,2.1-2.8c1.4,2.2,2.2,4.8,2.5,7.4c1.1,8.3-0.9,11.3-2,12.3c-0.8,0.8-4.8,1-6.9,0.4
	c-0.4-0.1-0.9-0.3-1.3-0.5c2.3-2.1,2.1-6,2.1-6c-0.5,0.1-1,0.2-1.4,0.1c-0.8-0.1-1.4-0.5-1.9-1.1C68.6,151.3,68.5,148.5,70.9,147.8z
	"/>
<path class="st30" d="M76.4,160.5c-1-0.2-1.8-0.5-2.7-0.9l-0.1,1.5c2,0.3,4.7,0.1,5.6-0.5C78.3,160.8,77.3,160.8,76.4,160.5z"/>
<path class="st33" d="M74.4,148.7c1-0.4,2.1,0.1,2.5,1.1c0,0.1,0,0.1,0,0.1c0.3,1-0.3,2-1.2,2.4L74.4,148.7z"/>
<path class="st28" d="M64.6,251.6l0.9-14l-2.6-11.3c-7.9-1.8-8.6-5.8-8.6-5.8c5.5,4.5,10.1,4.2,10.1,4.2l2.7,11.5
	C67,236.5,64.6,251.6,64.6,251.6z"/>
<path class="st34" d="M55.6,189.5c0.4,2.2,0.1,4.4-0.7,6.5c-0.7,2.1-4.1,8.5-4.7,15.3c0.6,1.6,4.5,5.3,15.3,5.6
	c14.8,0.6,20.2,3.8,19.6-3.8c-0.4-5.1-0.8-10.2-1.1-15.3c-0.3-3.4-0.7-9.6-0.7-9.6c3.1-2.4,4-6.6,2.3-10.1c-2.3-5.1-3.2-10-7.6-12
	l-4.9-0.8c-4.9,1.7-10.3,0.6-10.6-1.1c-1.7-0.2-3.5-0.2-5.4,0c-1.5,0.3-3.1,1.4-4,4.4C52,172.8,52.9,179,55.6,189.5z"/>
<path class="st29" d="M80.2,184.2c0,0,6.2,12.1,8.9,14.9c1,1.1,2.3,1.9,3.7,2.3c6.6,1.2,13.4,1.7,20.1,1.2c2.7-0.3,5.3-0.9,7.8-1.6
	c7-1.8,9.1-4.2,9.3-7.3c0.3-5-1.6-5.1-4.8-2.8c-1.3,1-2.8,1.7-4.3,2.3c0.6-0.6,1-1.2,1.3-2c0.5-0.8,0.2-1.7-0.6-2.2
	c-0.4-0.2-0.7,0.7-1.8,1.6c-1.5,1.2-2.7,1.5-3.9,3.2c-0.5,0.7-1.1,1.1-1.9,1.2c-3.8,0.8-13.6-0.8-17.8-2.7c-1.9-4-5.2-12.3-7.2-16.4
	c-3.9-7.8-4.4-9.7-12.8-10.1C75.3,170,75.7,176.7,80.2,184.2z"/>
<g class="st35">
	<path class="st36" d="M68.3,97.6C68.3,97.7,68.2,97.7,68.3,97.6c-0.4,0.2-0.9,0-1-0.4l-3.5-11.6l0.4-2l5.9,3.4l-1.2-3.5v-3.2
		l10,3.9v3.2l-3.4,5.9c-0.1,0.1-0.2,0.2-0.3,0.3L68.3,97.6z"/>
	<path class="st37" d="M68.3,97.6C68.3,97.7,68.2,97.7,68.3,97.6c-0.4,0.2-0.9,0-1-0.4l-3.5-11.6l0.4-2l5.9,3.4l-1.2-3.5v-3.2
		l10,3.9v3.2l-3.4,5.9c-0.1,0.1-0.2,0.2-0.3,0.3L68.3,97.6z"/>
	<path class="st36" d="M71.9,88.3l0.5,2.5l-3.8,6.6c-0.1,0.1-0.2,0.2-0.4,0.3c-0.4,0.1-0.9-0.1-1-0.5l-3.5-11.6l0.4-2L71.9,88.3z"/>
	<path class="st38" d="M71.9,88.3l0.5,2.5l-3.8,6.6c-0.1,0.1-0.2,0.2-0.4,0.3c-0.4,0.1-0.9-0.1-1-0.5l-3.5-11.6l0.4-2L71.9,88.3z"/>
	<path class="st36" d="M51.7,75.1c0,2.1,0,3.7,2.9,5.4l30.6,17.6c2.1,1,4.5,1,6.5,0l0,0c1.9-1.2,3.1-3.3,3.2-5.6v-25
		c-0.1-2.3-1.3-4.4-3.2-5.6L61.4,44.5c-2.1-1-4.5-1-6.5,0l0,0c-1.9,1.2-3.1,3.3-3.2,5.6V75.1z"/>
	<path class="st38" d="M51.7,75.1c0,2.1,0,3.7,2.9,5.4l30.6,17.6c2.1,1,4.5,1,6.5,0l0,0c1.9-1.2,3.1-3.3,3.2-5.6v-25
		c-0.1-2.3-1.3-4.4-3.2-5.6L61.4,44.5c-2.1-1-4.5-1-6.5,0l0,0c-1.9,1.2-3.1,3.3-3.2,5.6V75.1z"/>
	<path class="st38" d="M95.2,92.5V67.6c-0.1-1.1-0.4-2.2-1-3.2l-6.5,3.7c0.5,1,0.9,2.1,0.9,3.2v25c0,1.8-1.2,2.7-2.7,2.1
		c1.9,0.7,4.1,0.6,5.9-0.3l0,0c1.9-1.2,3.1-3.3,3.2-5.6C95,92.5,95.2,92.5,95.2,92.5z"/>
	<path class="st36" d="M54.9,44.5L54.9,44.5c2.1-1,4.5-1,6.5,0l30.3,17.4c1,0.6,1.8,1.4,2.3,2.4L87.5,68c-0.6-1-1.3-1.8-2.3-2.4
		L54.9,48.2c-1.5-0.8-2.7-0.4-3.1,1C52.2,47.3,53.3,45.6,54.9,44.5z"/>
	<path class="st39" d="M61.3,66c-1.3-0.8-2.4-0.1-2.4,1.4c0.1,1.6,1,3.2,2.4,4.1c1.3,0.7,2.4,0.1,2.4-1.4
		C63.6,68.4,62.7,66.8,61.3,66z"/>
	<path class="st39" d="M70.1,71.1c-1.3-0.7-2.4-0.1-2.4,1.4c0.1,1.6,1,3.2,2.4,4.1c1.3,0.7,2.4,0.1,2.4-1.4
		C72.4,73.5,71.5,72,70.1,71.1z"/>
	<path class="st39" d="M79,76.2c-1.3-0.7-2.4-0.1-2.4,1.4c0.1,1.6,1,3.2,2.4,4.1c1.3,0.7,2.4,0.1,2.4-1.4
		C81.3,78.6,80.4,77.1,79,76.2z"/>
</g>
<g>
	<path class="st14" d="M258.7,218.2c9.7,5.5,17.7,20.9,17.7,33.9c0,13.1-8,19.2-17.9,13.6c-9.8-5.7-17.9-21.1-17.9-34.2
		C240.6,218.3,248.6,212.4,258.7,218.2z M244.3,233.8c0.1,10.1,6.4,22.4,14,26.8c7.7,4.4,14.1-0.4,14.1-10.6
		c0-10.2-6.3-22.4-14-26.9C250.8,218.7,244.4,223.6,244.3,233.8z"/>
	<path class="st14" d="M259.8,242.4c0.1,1.3-0.3,2.1-1,2.6c-1.6,1.1-3.2,2.4-4.8,3.6c-0.7,0.6-1.4,0.7-2.3-0.9s-0.5-2.5,0.3-3.1
		c1.3-1.1,2.8-2,4-3.2c0.5-0.4,0.9-1.2,0.9-2.2c0.2-2.7,0.1-5.5,0.1-8.3c0-1.2,0.6-1.6,1.5-1.1c0.9,0.6,1.3,1.5,1.3,2.8
		c0,1.8,0,3.5,0,5.4C259.9,239.6,259.8,241,259.8,242.4z"/>
</g>
</svg>
