<?xml version="1.0" encoding="utf-8"?>
<!-- Generator: Adobe Illustrator 24.3.0, SVG Export Plug-In . SVG Version: 6.00 Build 0)  -->
<svg version="1.1" id="Camada_1" xmlns="http://www.w3.org/2000/svg" xmlns:xlink="http://www.w3.org/1999/xlink" x="0px" y="0px"
	 viewBox="0 0 320 320.4" style="enable-background:new 0 0 320 320.4;" xml:space="preserve">
<style type="text/css">
	.st0{fill:#EDB882;}
	.st1{fill:none;}
	.st2{opacity:0.22;fill:#444444;enable-background:new    ;}
	.st3{fill:#919191;}
	.st4{fill:#AFAFAF;}
	.st5{fill:#C1C1C1;}
	.st6{opacity:0.1;}
	.st7{fill:#92E3A9;}
	.st8{opacity:0.1;enable-background:new    ;}
	.st9{opacity:0.3;enable-background:new    ;}
	.st10{opacity:0.2;enable-background:new    ;}
	.st11{fill:#2AB2DB;}
	.st12{opacity:0.2;}
	.st13{fill:#FFFFFF;}
	.st14{opacity:0.22;enable-background:new    ;}
	.st15{fill:#723389;}
	.st16{fill:#B067CE;}
	.st17{fill:#52287F;}
	.st18{opacity:0.5;}
	.st19{fill:#E50E3D;}
	.st20{fill:#FFA8A7;}
	.st21{fill:#448EE0;}
	.st22{fill:#3D4B51;}
	.st23{fill:#263238;}
	.st24{fill:#3C873C;}
	.st25{fill:#5ABA5A;}
	.st26{fill:#F28F8F;}
	.st27{opacity:0.15;fill:#FFFFFF;enable-background:new    ;}
	.st28{opacity:0.2;fill:#FFFFFF;enable-background:new    ;}
	.st29{opacity:0.6;}
	.st30{fill:#595959;}
	.st31{fill:#FAFCFB;}
</style>
<rect y="-0.1" class="st0" width="320" height="320"/>
<path class="st1" d="M212.3,10"/>
<path class="st1" d="M154.2,13.2"/>
<g>
	<ellipse class="st2" cx="165.5" cy="177.9" rx="94.9" ry="57.8"/>
	<g>
		<ellipse class="st3" cx="158.4" cy="152.4" rx="94.9" ry="57.8"/>
		<ellipse class="st3" cx="158.4" cy="154.4" rx="94.9" ry="57.8"/>
		<ellipse class="st3" cx="158.4" cy="156.4" rx="94.9" ry="57.8"/>
		<ellipse class="st3" cx="158.4" cy="158.4" rx="94.9" ry="57.8"/>
		<ellipse class="st3" cx="158.4" cy="160.4" rx="94.9" ry="57.8"/>
		<ellipse class="st3" cx="158.4" cy="162.5" rx="94.9" ry="57.8"/>
		<ellipse class="st3" cx="158.4" cy="164.4" rx="94.9" ry="57.8"/>
		<ellipse class="st3" cx="158.4" cy="166.4" rx="94.9" ry="57.8"/>
		<ellipse class="st3" cx="158.4" cy="168.5" rx="94.9" ry="57.8"/>
		<ellipse class="st3" cx="158.4" cy="170.5" rx="94.9" ry="57.8"/>
		<ellipse class="st3" cx="158.4" cy="172.5" rx="94.9" ry="57.8"/>
		<ellipse class="st3" cx="158.4" cy="174.5" rx="94.9" ry="57.8"/>
	</g>
	<g>
		<ellipse class="st4" cx="158.4" cy="152.4" rx="92.9" ry="55.9"/>
		<path class="st5" d="M158.4,98.5c24.6,0,47.7,5.8,65,16.4c16.7,10.2,25.9,23.5,25.9,37.6s-9.2,27.4-25.9,37.6
			c-17.3,10.5-40.4,16.4-65,16.4s-47.7-5.8-65-16.4c-16.7-10.2-25.9-23.5-25.9-37.6s9.2-27.4,25.9-37.6
			C110.7,104.3,133.8,98.5,158.4,98.5 M158.4,94.5c-52.4,0-94.9,25.9-94.9,57.8s42.5,57.8,94.9,57.8s94.9-25.9,94.9-57.8
			S210.8,94.5,158.4,94.5L158.4,94.5z"/>
	</g>
	<g class="st6">
		<path d="M179.2,123.3c7.8,4.5,20.4,4.5,28.1,0c3.9-2.3,5.8-5.2,5.8-8.2c0-3-2-5.9-5.9-8.1c-7.8-4.5-20.4-4.5-28.1,0
			c-3.9,2.3-5.8,5.2-5.8,8.1C173.4,118.1,175.3,121,179.2,123.3z"/>
		<path d="M74.5,138.3c13.2-7.6,34.6-7.6,47.8,0c11.6,6.7,12.9,17.2,3.9,24.8c7.2-0.4,14.8,0.9,20.3,4.1c9.7,5.7,9.6,14.8-0.1,20.4
			c-9.7,5.6-25.6,5.7-35.3,0c-7.7-4.5-9.3-11.2-4.7-16.6c-11.1,1.6-23.4-0.1-32-5.2C61.2,158.4,61.3,146,74.5,138.3z"/>
	</g>
	<path class="st7" d="M207,110.8c0,2-1.3,3.9-3.9,5.5c-5.2,3-13.6,3-18.9,0c-2.6-1.5-3.9-3.5-3.9-5.5l0,0v3.9l0,0
		c0,2,1.3,3.9,3.9,5.5c5.2,3,13.7,3,18.9,0c2.6-1.5,3.9-3.5,3.9-5.5l0,0V110.8z"/>
	<path class="st7" d="M184.3,116.3c5.2,3,13.7,3,18.9,0c2.6-1.5,3.9-3.5,3.9-5.5s-1.3-3.9-3.9-5.5c-5.2-3-13.7-3-18.9,0
		c-2.6,1.5-3.9,3.5-3.9,5.5S181.7,114.8,184.3,116.3z"/>
	<path class="st8" d="M207,110.8c0,2-1.3,3.9-3.9,5.5c-5.2,3-13.6,3-18.9,0c-2.6-1.5-3.9-3.5-3.9-5.5l0,0v3.9l0,0
		c0,2,1.3,3.9,3.9,5.5c5.2,3,13.7,3,18.9,0c2.6-1.5,3.9-3.5,3.9-5.5l0,0V110.8z"/>
	<path class="st9" d="M184.3,116.3c5.2,3,13.7,3,18.9,0c2.6-1.5,3.9-3.5,3.9-5.5s-1.3-3.9-3.9-5.5c-5.2-3-13.7-3-18.9,0
		c-2.6,1.5-3.9,3.5-3.9,5.5S181.7,114.8,184.3,116.3z"/>
	<path class="st10" d="M187,112.7c3.7,2.2,9.7,2.2,13.4,0c1.9-1.1,2.8-2.5,2.8-3.9c0-1.4-0.9-2.8-2.8-3.9c-3.7-2.2-9.7-2.2-13.4,0
		c-1.9,1.1-2.8,2.5-2.8,3.9C184.2,110.3,185.1,111.7,187,112.7z"/>
	<ellipse class="st11" cx="194.1" cy="80.4" rx="29.3" ry="29.3"/>
	<path class="st7" d="M167,72.7c0.2,1,0.4,1.9,0.8,2.8c0.3,0.9,0.7,2.2,0.2,3.1c-0.2,0.3-0.3,0.7-0.4,1.1c-0.1,0.4,0,0.8,0.2,1.1
		c0.2,0.3,0.7,0.5,1,0.8c0.5,0.6,0.4,1.5,0.6,2.3c0.2,0.8,0.8,1.4,1.6,1.7c0.3,0.1,0.8,0.1,0.9-0.2s-0.2-0.5-0.4-0.7
		c-0.6-0.4-1.1-0.9-1.4-1.5c-0.1-0.1-0.1-0.2-0.1-0.4s0.1-0.3,0.2-0.3c0.4,0.1,0.5,0.6,0.7,0.9c0.3,0.4,0.9,0.6,1.4,0.4
		c0.1,0,0.2-0.1,0.3-0.1s0.2,0,0.3,0c0.8,0.1,1.5,0.4,2.2,0.8c0.4,0.4,0.8,0.9,1.2,1.5c0.3,0.5,0.8,0.9,1.5,1.1c0.5,0,1.1,0,1.6-0.1
		c0.6,0,1.3,0,1.9,0.3c-0.7,0.7-0.9,1.7-0.7,2.7c0,0.3,0.2,0.6,0.2,0.9c0,0.5,0,0.9,0,1.4c0,0.5,0.1,1,0.5,1.3
		c0.4,0.3,1.1,0.2,1.4,0.7c0.1,0.1,0.1,0.3,0.1,0.5c0.2,0.4,0.7,0.6,1.2,0.6c0.4,0,0.9,0,1.4,0.2c0.6,0.3,0.8,1.2,1.1,1.8
		c0.2,0.4,0.4,0.7,0.7,1c0.4,0.3,0.8,0.6,1,1.1c0,0.3,0.1,0.5,0.2,0.8c0.2,0.3,0.7,0.4,0.9,0.8c0,0.1,0.1,0.3,0.1,0.5
		c0.1,0.4,0.5,0.8,0.9,1c0.4,0.1,0.9,0.2,1.4,0.2h1.5c0.3,0,0.6,0,0.7-0.3c0.1-0.3,0-0.5-0.3-0.7c-0.2-0.1-0.5-0.1-0.8-0.2
		c-0.6-0.2-1.1-0.7-1.2-1.3c0-0.2,0-0.4-0.1-0.6c-0.1-0.2-0.2-0.5-0.4-0.7c-0.4-0.7-0.5-1.5-0.3-2.2c0-0.4,0.2-0.8,0.2-1.2
		c0-0.6-0.1-1.2-0.3-1.7c0-0.1,0-0.2,0-0.4c0-0.1,0.2-0.3,0.3-0.4c0.8-0.7,0.4-1.9,0-2.8c-0.1-0.4,0.1-0.8,0.3-1.1s0.4-0.8,0.1-1.1
		c-0.2-0.2-0.5-0.3-0.7-0.2c-0.4,0-0.8,0.1-1.2,0.2c-0.5,0.1-1,0.4-1.4,0.2c-0.3-0.2-0.7-0.5-0.9-0.8c-0.2-0.3-0.7-0.5-1.1-0.4
		c-0.1,0-0.3,0.2-0.5,0.2s-0.4-0.1-0.5-0.3c-0.1-0.2-0.2-0.3-0.4-0.4c-0.4-0.2-0.9,0.2-1.3,0c-0.2-0.1-0.3-0.2-0.4-0.4
		c-0.4-0.3-1-0.4-1.5-0.4c-0.6,0-1.1-0.3-1.4-0.8c0-0.2,0.1-0.5,0.1-0.7c0-0.4-0.4-0.7-0.8-0.6c0,0-0.1,0-0.1,0c0,0-0.1,0-0.2,0.1
		c-0.2,0.2,0.1,0.5,0,0.8s-0.5,0.4-0.8,0.5c-0.2,0-0.4,0-0.6-0.1c-0.2-0.1-0.3-0.2-0.5-0.4c-0.3-0.3-0.5-0.7-0.7-1.1
		c-0.2-0.4-0.2-0.8,0-1.2c0.2-0.4,0.6-0.6,1-0.5c0.1,0,0.3,0.1,0.5,0c0.1-0.1,0.1-0.4,0.2-0.6c0.1-0.3,0.6-0.4,0.9-0.2
		c0.3,0.2,0.6,0.4,0.8,0.7c0.2,0.1,0.4,0.3,0.6,0.4c0.1,0.1,0.2,0.4,0.4,0.4s0.4-0.2,0.4-0.4s-0.1-0.5-0.2-0.7c-0.5-1-1-2.1-0.8-3.2
		c0-0.3,0.2-0.6,0.3-0.8c0.2-0.7,0.6-1.3,1.2-1.8c0.2-0.1,0.4-0.3,0.7-0.4c0.2-0.2,0.3-0.5,0.3-0.8c0.5,0.1,1,0.1,1.5,0
		c0.2,0,0.4-0.1,0.5-0.3c0.1-0.1,0.1-0.2,0.1-0.4c0-0.5-0.3-1-0.8-1.1c-0.2,0-0.6,0-0.7-0.3c-0.1-0.1-0.1-0.3,0-0.5s0.2-0.2,0.4-0.3
		c0.3-0.1,0.7-0.2,1.1-0.1c0.4,0.1,0.7,0.3,0.8,0.7s0.1,0.7,0.4,1c0.2,0.1,0.5,0.2,0.7,0.1c0.2-0.1,0.4-0.2,0.6-0.4
		c0.2-0.2,0.4-0.5,0.4-0.8c0-0.2-0.2-0.4-0.4-0.5c-0.2-0.1-0.4-0.2-0.6-0.3c-0.6-0.2-1.1-0.6-1.6-1.2c-0.3-0.3-0.5-0.7-0.8-1
		c-0.3-0.4-0.8-0.7-1.3-0.8c-0.5-0.1-1,0-1.5,0.2c-0.1,0-0.2,0.1-0.3,0.1c-0.2,0-0.5-0.2-0.7-0.3c-0.5-0.4-1.6-0.5-1.8,0
		c-0.1,0.3,0,0.7,0.1,1c0.1,0.6-0.1,1.2-0.6,1.6c0,0-0.1,0.1-0.1,0.2c-0.1,0.2,0.2,0.5,0.3,0.7c0.1,0.3,0,0.7-0.2,0.8
		c-0.2,0.1-0.5,0.1-0.7,0c-0.4-0.3-0.3-1-0.7-1.4c-0.3-0.2-0.7-0.2-1-0.4c-0.4-0.3-0.6-0.7-0.6-1.2c0-0.5,0-1,0.3-1.4
		c0.2-0.4,0.7-0.7,1.2-0.7c0.2,0,0.5,0,0.7,0c0.2,0,0.5-0.1,0.6-0.4c0-0.1,0-0.2,0-0.3c-0.1-0.3-0.1-0.6,0-1s0.4-0.5,0.7-0.5
		c0.3,0,0.5,0.3,0.5,0.6c0,0.3,0,0.6-0.2,0.8c0,0.1-0.1,0.2-0.1,0.3c0,0.1,0.1,0.3,0.2,0.4c0.1,0.1,0.3,0.1,0.4,0.1
		c0.6,0.1,1.2,0.1,1.8-0.2c0.1,0,0.2-0.2,0.2-0.3c0-0.1,0-0.3,0-0.5c0-0.4,0.4-0.8,0.5-1.3c0.2-0.7-0.2-1.5-0.9-1.7
		c-0.1,0-0.2,0-0.4,0c-0.6,0-1.2,0.4-1.8,0.3c-0.1,0-0.3,0-0.4-0.1c-0.1-0.1-0.2-0.3-0.3-0.5c-0.1-0.1-0.2-0.3-0.4-0.3
		s-0.3,0.2-0.3,0.4c-0.1,0.2-0.2,0.4-0.2,0.6c-0.1,0.4,0,0.9,0,1.3c0,0.2-0.2,0.4-0.4,0.4c-0.1,0-0.1-0.1-0.2-0.1
		c-0.1-0.1-0.2-0.4-0.2-0.6c0-0.3,0.2-0.7,0-0.9c-0.2-0.2-0.5-0.2-0.7,0l0,0c-0.2,0.2-0.3,0.5-0.3,0.8c-0.1-0.1-0.2-0.2-0.4-0.3
		c0,0-0.1,0-0.1,0c0,0,0-0.1,0-0.2c0-0.3-0.3-0.5-0.6-0.5c-0.6,0-1.2,0.4-1.2,1.1c0,0.1,0,0.2,0,0.3c0.1,0.3,0.5,0.6,0.4,0.9
		c-0.3-0.1-0.6,0-0.7,0.3c0,0,0,0.1,0,0.1c-0.5,0-1-0.2-1.2-0.7c-0.2-0.4-0.6-0.7-1.1-0.9c-0.3-0.1-0.7,0-1-0.1
		c-0.8,1.3-1.5,2.6-2.2,3.9c0,0.3-0.1,0.7-0.1,1C167,70.5,167,71.6,167,72.7z"/>
	<path class="st7" d="M188.8,59.9c-0.2-0.2-0.3-0.4-0.3-0.7c0-0.2,0-0.5,0.1-0.8c0-0.6,0-1.3-0.4-1.9c-0.1-0.2-0.3-0.4-0.5-0.6
		c-0.3-0.1-0.6-0.2-0.9-0.1c-1.5,0-3.1,0.3-4.6,0c-0.4-0.1-0.9-0.1-1.3-0.2c-1,0-2.4,0.6-2.7,1.7c-0.1,0.4,0,0.9,0.4,1.1
		c0.7,0.4,1.1-0.1,1.7-0.4c0.6-0.3,1.3,0,1.9-0.2c0.1,0,0.2-0.1,0.4-0.1c0.3,0,0.5,0.4,0.5,0.8c-0.1,0.3-0.2,0.7-0.4,1
		c-0.1,0.3-0.1,0.7,0.1,1c0,0,0.1,0.1,0.2,0.2c0,0.1-0.1,0.3-0.3,0.3c-0.4,0.2-0.6,0.7-0.4,1.1c0.1,0.3,0.5,0.6,0.7,0.9
		c0.1,0.3,0.2,0.6,0.3,1c0.3,0.4,0.8,0.6,1.3,0.6c0,0.4,0.2,0.7,0.5,0.9c0.4,0.1,0.8,0.1,1.1-0.2c0.2-0.3,0.4-0.7,0.5-1.1
		c0-0.3,0.1-0.6,0.2-0.9c0.3-0.6,0.8-1,1.5-1.2c0.4-0.1,0.8-0.3,1.2-0.6c0.3-0.3,0.4-0.8,0.1-1.2l0,0
		C189.4,60.1,189,60.1,188.8,59.9z"/>
	<path class="st7" d="M216.7,73.8c0-0.1-0.1-0.2-0.2-0.3c-0.2-0.2-0.4-0.4-0.7-0.4c-0.2,0-0.3,0.5-0.4,0.9c0,0.4-0.2,0.9-0.4,1.3
		l-0.7-0.1c-0.3-0.6-0.1-1.5,0.1-2.2l1.1-2.9c0.1-0.3,0.2-0.6,0.2-0.9c0-0.4,0-0.8-0.2-1.2c0.4-1.2,0.6-2.5,0.7-3.8c0-0.3,0-0.6,0-1
		c-0.1-0.4-0.2-0.7-0.4-1.1l-0.6-1.1c0-0.1-0.1-0.3-0.3-0.4c-0.1,0-0.2-0.1-0.3-0.1c-0.5-0.2-1-0.6-1.4-1.1c-0.7-0.9-1.2-2-2.1-2.7
		c-0.8-0.5-1.6-0.9-2.5-1.1c-0.3-0.1-0.7-0.2-1.1-0.2c-0.3,0-0.7,0.2-1,0.4c-0.8,0.3-1.6,0.5-2.5,0.5c-0.1,0-0.3,0-0.4,0.1
		c-0.1,0.2,0,0.4,0.1,0.5c0.1,0.1,0.3,0.2,0.5,0.3c-0.1,0.4-0.9,0.2-1.1,0.6c0,0.1,0,0.2-0.1,0.3c0,0-0.1,0-0.2,0
		c-0.3,0-0.6-0.3-0.8-0.7c-0.1-0.3-0.3-0.6-0.6-0.9c-0.2-0.1-0.5-0.1-0.7,0c-0.1,0-0.1,0.1-0.2,0.2c-0.1,0-0.2,0.1-0.4,0.1
		c-0.4,0-0.8,0.1-1.3,0c0,0-0.1,0-0.1,0c0,0,0,0,0,0.1c-0.1,0.4-0.2,0.8-0.3,1.3c0,0.3-0.1,0.7-0.3,1c0,0-0.1,0.1-0.1,0.1
		s0,0.1,0,0.1c0,0.3,0.2,0.5,0.5,0.6c0.4,0.2,1,0,1.4,0.1c0.2,0,0.4,0.2,0.6,0.1c0.1-0.1,0.2-0.3,0.2-0.4c0-0.1-0.1-0.3-0.1-0.5
		c-0.1-0.5,0-1,0.2-1.4c0,0.2,0.2,0.5,0.4,0.6c0.2,0.1,0.5,0,0.8,0c0.2,0.1,0.3,0.5,0.5,0.8c0,0,0.1,0.1,0.2,0.2
		c0.1,0.1,0,0.3,0,0.5c-0.1,0.1-0.2,0.2-0.3,0.3c-0.2,0.2-0.4,0.3-0.6,0.5c-0.1,0.1-0.2,0.2-0.3,0.3c-0.1,0.1-0.3,0.1-0.4,0
		c-0.1,0-0.2-0.1-0.3-0.2c-0.2-0.1-0.4,0-0.6,0.2c-0.6-0.3-1.4-0.1-1.7,0.5l0,0c-0.2,0.4-0.2,0.8-0.5,1.1c-0.4,0.3-1,0-1.5,0.2
		c-0.3,0.2-0.4,0.6-0.2,0.9c0.1,0.2,0.3,0.3,0.6,0.3c0.3,0,0.6-0.2,0.9-0.2c0,0.1,0,0.3,0,0.4c0,0,0,0,0,0.1c0,0-0.1,0-0.1,0.1
		c-0.7,0.2-1.6,0.2-2.3,0.6c-0.3,0.2-0.6,0.4-0.8,0.7c-0.1,0.1-0.2,0.2-0.2,0.4s0,0.2,0.1,0.3l0.9,1.3c0.1,0.1,0.2,0.2,0.3,0.3
		c0.4,0.3,0.9,0.1,1.3,0c0,0,0.1,0,0.2-0.1c0-0.1,0-0.2,0-0.3c0-0.7,0.4-1.3,0.9-1.8c0.4-0.4,0.8-0.8,1.2-1.2
		c0.1-0.1,0.2-0.1,0.4-0.2c0.1,0,0.3,0,0.4,0c0.4,0.1,0.9,0.3,1.3,0.5c0.1,0,0.3,0.1,0.4,0.3c0.1,0.1,0.2,0.3,0.1,0.5
		c0,0.2-0.2,0.3-0.1,0.5c0,0,0.1,0.1,0.2,0.1c0.1,0,0.3,0,0.4,0c0.3-0.1,0.4-0.4,0.3-0.7l0,0c-0.2-0.5-1-0.4-1.3-0.9
		c-0.1-0.1-0.1-0.3,0-0.4c0,0,0.1,0,0.1,0c0.3,0,0.6,0.1,0.9,0.3c0,0,0.1,0.1,0.2,0.1c0,0.1,0.1,0.1,0.1,0.2
		c0.3,0.6,0.7,1.2,1.3,1.7c0.2,0.2,0.5,0.4,0.9,0.5c0.2,0,0.3-0.3,0.2-0.5c0-0.1-0.1-0.3,0-0.3c0,0,0,0,0.1,0c0.2,0,0.4,0.3,0.6,0.4
		s0.6,0,0.9,0c0,0,0.1,0,0.1,0c0,0,0,0,0,0.1l0.3,0.6c0,0,0,0.1,0.1,0.2c0,0,0.1,0.1,0.2,0.1c0.3,0.1,0.6,0.1,0.9,0.2
		c0.5,0.2,0.9,0.7,1,1.3c-0.3,0.2-0.6,0.6-0.6,1.1c0,0.4,0.2,0.8,0.4,1.1c0,0,0.1,0.1,0.2,0.1c0.1,0,0.2,0,0.3,0l0.7-0.1
		c0,0,0.1,0,0.2,0c0,0,0.1,0.1,0.1,0.2c0.1,0.3,0.1,0.5,0.1,0.8c0,0.1,0,0.2-0.1,0.3c-0.1,0.1-0.3,0.2-0.5,0.2
		c-1.8,0.2-3.6,0.4-5.4,0.5c-0.5-0.3-0.9-0.6-1.4-0.9c-0.1-0.1-0.2-0.1-0.4-0.1c-0.2,0-0.4,0-0.5,0.1c-1.1,0.3-2.3,0.1-3.4,0.3
		c-0.2,0-0.3,0.1-0.5,0.2c-0.4,0.3-0.2,0.9-0.4,1.4c-0.3,0.7-1.6,0.6-2,1.4c-0.1,0.4-0.1,0.9,0,1.3c0.1,0.3,0.2,0.6,0.2,0.9
		c-0.2,0.6-0.5,1.4-0.7,2c0,0.1,0,0.2,0,0.3c0,0.1,0.1,0.2,0.2,0.3c0.3,0.2,0.6,0.3,0.9,0.4c0.2,0,0.3,0.1,0.5,0.1
		c0.3,0.2,0.4,0.7,0.7,1c0.3,0.3,0.7,0.5,1.1,0.5c0.4,0,0.9,0,1.3-0.1l2.1-0.3c0.2,0,0.5,0,0.7,0c0.1,0.1,0.3,0.2,0.4,0.4
		c0.3,0.6,0.2,1.3,0.3,2c0.1,0.9,0.5,1.7,0.7,2.6c0.1,0.9-0.7,1.8-1,2.7c-0.1,0.2-0.1,0.5-0.2,0.7c0,0.3,0.1,0.5,0.2,0.8
		c0.3,0.7,0.6,1.4,0.9,2.2c0,0.1,0.1,0.2,0.1,0.3c0.1,0,0.2,0.1,0.3,0.1c0.3,0.1,0.7,0.1,1,0.1c0.1,0,0.2,0,0.2,0
		c0.1,0,0.1-0.1,0.2-0.2c0.8-1.4,1.7-2.7,2.9-3.9c0.3-0.3,0.6-0.6,0.7-1c0.1-0.2,0.1-0.5,0.1-0.7c0.1-0.9,0.2-1.8,0.2-2.7
		c0-0.9,1.1-1.7,1.7-2.4c0.4-0.6,1-1.2,1-1.9c0-0.7-0.5-1.6-0.4-2.4l-1.2-1c-0.5-0.4-1-0.9-1.1-1.6c0-0.3,0-0.6,0.1-0.9l0.3-1.6
		c0.2,0,0.4,0.1,0.5,0.3l1.2,1.1c0,0,0.1,0.1,0.1,0.2c0,0.1,0,0.2,0,0.2c-0.1,0.5-0.6,1.1-0.4,1.7c0.1,0.4,0.4,0.7,0.8,0.9
		c0.1,0.1,0.3,0.1,0.4,0.2c0.1,0,0.3-0.1,0.4-0.2c0.6-0.4,1.2-1,1.7-1.7c0.1-0.1,0.2-0.3,0.3-0.5c0.2-0.6-0.1-1.3,0-1.9
		C216.5,74.6,216.9,74.2,216.7,73.8z"/>
	<path class="st7" d="M214,87c-0.2,0-0.4,0.2-0.5,0.3c-0.1,0.2-0.4,0.4-0.7,0.4l-0.7,0.1c-0.1,0-0.1,0-0.2,0
		c-0.1,0.1-0.2,0.2-0.2,0.4s0,0.3,0,0.5c0,0.8-0.8,1.4-1.1,2.1c0,0,0,0.1,0,0.2c0,0.1,0,0.1,0.1,0.2c0,0.1,0.2,0.1,0.3,0.2
		c0,0,0.1,0,0.2,0l0.6-0.2c0.3-0.1,0.5-0.2,0.8-0.4c0.3-0.2,0.5-0.6,0.6-1c0-0.4,0-0.7,0.1-1.1c0.1-0.2,0.3-0.5,0.5-0.7
		C213.8,88,214.7,86.9,214,87z"/>
	<path class="st7" d="M187.1,68.5c0,0-0.1-0.1-0.2-0.1c-0.1,0-0.2-0.1-0.3-0.1c-0.1,0-0.2-0.1-0.3-0.2c0-0.1-0.1-0.1-0.2-0.2
		c-0.2-0.1-0.5,0-0.6,0.1c0,0,0,0.1,0,0.1c0,0.1,0,0.2,0,0.3c0,0,0,0.1,0,0.1s0,0.1,0.1,0.1c0.1,0.1,0.3,0.1,0.5,0.1s0.3,0,0.5,0
		c0,0,0.1,0,0.1,0c0,0,0,0,0.1,0c0.1,0,0.2,0,0.2,0c0.1,0,0.1-0.1,0.2-0.1c0,0,0,0,0,0v0C187.2,68.6,187.2,68.5,187.1,68.5z"/>
	<g class="st12">
		<path class="st13" d="M167,72.7c0.2,1,0.4,1.9,0.8,2.8c0.3,0.9,0.7,2.2,0.2,3.1c-0.2,0.3-0.3,0.7-0.4,1.1c-0.1,0.4,0,0.8,0.2,1.1
			c0.2,0.3,0.7,0.5,1,0.8c0.5,0.6,0.4,1.5,0.6,2.3c0.2,0.8,0.8,1.4,1.6,1.7c0.3,0.1,0.8,0.1,0.9-0.2s-0.2-0.5-0.4-0.7
			c-0.6-0.4-1.1-0.9-1.4-1.5c-0.1-0.1-0.1-0.2-0.1-0.4s0.1-0.3,0.2-0.3c0.4,0.1,0.5,0.6,0.7,0.9c0.3,0.4,0.9,0.6,1.4,0.4
			c0.1,0,0.2-0.1,0.3-0.1s0.2,0,0.3,0c0.8,0.1,1.5,0.4,2.2,0.8c0.4,0.4,0.8,0.9,1.2,1.5c0.3,0.5,0.8,0.9,1.5,1.1
			c0.5,0,1.1,0,1.6-0.1c0.6,0,1.3,0,1.9,0.3c-0.7,0.7-0.9,1.7-0.7,2.7c0,0.3,0.2,0.6,0.2,0.9c0,0.5,0,0.9,0,1.4c0,0.5,0.1,1,0.5,1.3
			c0.4,0.3,1.1,0.2,1.4,0.7c0.1,0.1,0.1,0.3,0.1,0.5c0.2,0.4,0.7,0.6,1.2,0.6c0.4,0,0.9,0,1.4,0.2c0.6,0.3,0.8,1.2,1.1,1.8
			c0.2,0.4,0.4,0.7,0.7,1c0.4,0.3,0.8,0.6,1,1.1c0,0.3,0.1,0.5,0.2,0.8c0.2,0.3,0.7,0.4,0.9,0.8c0,0.1,0.1,0.3,0.1,0.5
			c0.1,0.4,0.5,0.8,0.9,1c0.4,0.1,0.9,0.2,1.4,0.2h1.5c0.3,0,0.6,0,0.7-0.3c0.1-0.3,0-0.5-0.3-0.7c-0.2-0.1-0.5-0.1-0.8-0.2
			c-0.6-0.2-1.1-0.7-1.2-1.3c0-0.2,0-0.4-0.1-0.6c-0.1-0.2-0.2-0.5-0.4-0.7c-0.4-0.7-0.5-1.5-0.3-2.2c0-0.4,0.2-0.8,0.2-1.2
			c0-0.6-0.1-1.2-0.3-1.7c0-0.1,0-0.2,0-0.4c0-0.1,0.2-0.3,0.3-0.4c0.8-0.7,0.4-1.9,0-2.8c-0.1-0.4,0.1-0.8,0.3-1.1s0.4-0.8,0.1-1.1
			c-0.2-0.2-0.5-0.3-0.7-0.2c-0.4,0-0.8,0.1-1.2,0.2c-0.5,0.1-1,0.4-1.4,0.2c-0.3-0.2-0.7-0.5-0.9-0.8c-0.2-0.3-0.7-0.5-1.1-0.4
			c-0.1,0-0.3,0.2-0.5,0.2s-0.4-0.1-0.5-0.3c-0.1-0.2-0.2-0.3-0.4-0.4c-0.4-0.2-0.9,0.2-1.3,0c-0.2-0.1-0.3-0.2-0.4-0.4
			c-0.4-0.3-1-0.4-1.5-0.4c-0.6,0-1.1-0.3-1.4-0.8c0-0.2,0.1-0.5,0.1-0.7c0-0.4-0.4-0.7-0.8-0.6c0,0-0.1,0-0.1,0c0,0-0.1,0-0.2,0.1
			c-0.2,0.2,0.1,0.5,0,0.8s-0.5,0.4-0.8,0.5c-0.2,0-0.4,0-0.6-0.1c-0.2-0.1-0.3-0.2-0.5-0.4c-0.3-0.3-0.5-0.7-0.7-1.1
			c-0.2-0.4-0.2-0.8,0-1.2c0.2-0.4,0.6-0.6,1-0.5c0.1,0,0.3,0.1,0.5,0c0.1-0.1,0.1-0.4,0.2-0.6c0.1-0.3,0.6-0.4,0.9-0.2
			c0.3,0.2,0.6,0.4,0.8,0.7c0.2,0.1,0.4,0.3,0.6,0.4c0.1,0.1,0.2,0.4,0.4,0.4s0.4-0.2,0.4-0.4s-0.1-0.5-0.2-0.7
			c-0.5-1-1-2.1-0.8-3.2c0-0.3,0.2-0.6,0.3-0.8c0.2-0.7,0.6-1.3,1.2-1.8c0.2-0.1,0.4-0.3,0.7-0.4c0.2-0.2,0.3-0.5,0.3-0.8
			c0.5,0.1,1,0.1,1.5,0c0.2,0,0.4-0.1,0.5-0.3c0.1-0.1,0.1-0.2,0.1-0.4c0-0.5-0.3-1-0.8-1.1c-0.2,0-0.6,0-0.7-0.3
			c-0.1-0.1-0.1-0.3,0-0.5s0.2-0.2,0.4-0.3c0.3-0.1,0.7-0.2,1.1-0.1c0.4,0.1,0.7,0.3,0.8,0.7s0.1,0.7,0.4,1c0.2,0.1,0.5,0.2,0.7,0.1
			c0.2-0.1,0.4-0.2,0.6-0.4c0.2-0.2,0.4-0.5,0.4-0.8c0-0.2-0.2-0.4-0.4-0.5c-0.2-0.1-0.4-0.2-0.6-0.3c-0.6-0.2-1.1-0.6-1.6-1.2
			c-0.3-0.3-0.5-0.7-0.8-1c-0.3-0.4-0.8-0.7-1.3-0.8c-0.5-0.1-1,0-1.5,0.2c-0.1,0-0.2,0.1-0.3,0.1c-0.2,0-0.5-0.2-0.7-0.3
			c-0.5-0.4-1.6-0.5-1.8,0c-0.1,0.3,0,0.7,0.1,1c0.1,0.6-0.1,1.2-0.6,1.6c0,0-0.1,0.1-0.1,0.2c-0.1,0.2,0.2,0.5,0.3,0.7
			c0.1,0.3,0,0.7-0.2,0.8c-0.2,0.1-0.5,0.1-0.7,0c-0.4-0.3-0.3-1-0.7-1.4c-0.3-0.2-0.7-0.2-1-0.4c-0.4-0.3-0.6-0.7-0.6-1.2
			c0-0.5,0-1,0.3-1.4c0.2-0.4,0.7-0.7,1.2-0.7c0.2,0,0.5,0,0.7,0c0.2,0,0.5-0.1,0.6-0.4c0-0.1,0-0.2,0-0.3c-0.1-0.3-0.1-0.6,0-1
			s0.4-0.5,0.7-0.5c0.3,0,0.5,0.3,0.5,0.6c0,0.3,0,0.6-0.2,0.8c0,0.1-0.1,0.2-0.1,0.3c0,0.1,0.1,0.3,0.2,0.4
			c0.1,0.1,0.3,0.1,0.4,0.1c0.6,0.1,1.2,0.1,1.8-0.2c0.1,0,0.2-0.2,0.2-0.3c0-0.1,0-0.3,0-0.5c0-0.4,0.4-0.8,0.5-1.3
			c0.2-0.7-0.2-1.5-0.9-1.7c-0.1,0-0.2,0-0.4,0c-0.6,0-1.2,0.4-1.8,0.3c-0.1,0-0.3,0-0.4-0.1c-0.1-0.1-0.2-0.3-0.3-0.5
			c-0.1-0.1-0.2-0.3-0.4-0.3s-0.3,0.2-0.3,0.4c-0.1,0.2-0.2,0.4-0.2,0.6c-0.1,0.4,0,0.9,0,1.3c0,0.2-0.2,0.4-0.4,0.4
			c-0.1,0-0.1-0.1-0.2-0.1c-0.1-0.1-0.2-0.4-0.2-0.6c0-0.3,0.2-0.7,0-0.9c-0.2-0.2-0.5-0.2-0.7,0l0,0c-0.2,0.2-0.3,0.5-0.3,0.8
			c-0.1-0.1-0.2-0.2-0.4-0.3c0,0-0.1,0-0.1,0c0,0,0-0.1,0-0.2c0-0.3-0.3-0.5-0.6-0.5c-0.6,0-1.2,0.4-1.2,1.1c0,0.1,0,0.2,0,0.3
			c0.1,0.3,0.5,0.6,0.4,0.9c-0.3-0.1-0.6,0-0.7,0.3c0,0,0,0.1,0,0.1c-0.5,0-1-0.2-1.2-0.7c-0.2-0.4-0.6-0.7-1.1-0.9
			c-0.3-0.1-0.7,0-1-0.1c-0.8,1.3-1.5,2.6-2.2,3.9c0,0.3-0.1,0.7-0.1,1C167,70.5,167,71.6,167,72.7z"/>
		<path class="st13" d="M188.8,59.9c-0.2-0.2-0.3-0.4-0.3-0.7c0-0.2,0-0.5,0.1-0.8c0-0.6,0-1.3-0.4-1.9c-0.1-0.2-0.3-0.4-0.5-0.6
			c-0.3-0.1-0.6-0.2-0.9-0.1c-1.5,0-3.1,0.3-4.6,0c-0.4-0.1-0.9-0.1-1.3-0.2c-1,0-2.4,0.6-2.7,1.7c-0.1,0.4,0,0.9,0.4,1.1
			c0.7,0.4,1.1-0.1,1.7-0.4c0.6-0.3,1.3,0,1.9-0.2c0.1,0,0.2-0.1,0.4-0.1c0.3,0,0.5,0.4,0.5,0.8c-0.1,0.3-0.2,0.7-0.4,1
			c-0.1,0.3-0.1,0.7,0.1,1c0,0,0.1,0.1,0.2,0.2c0,0.1-0.1,0.3-0.3,0.3c-0.4,0.2-0.6,0.7-0.4,1.1c0.1,0.3,0.5,0.6,0.7,0.9
			c0.1,0.3,0.2,0.6,0.3,1c0.3,0.4,0.8,0.6,1.3,0.6c0,0.4,0.2,0.7,0.5,0.9c0.4,0.1,0.8,0.1,1.1-0.2c0.2-0.3,0.4-0.7,0.5-1.1
			c0-0.3,0.1-0.6,0.2-0.9c0.3-0.6,0.8-1,1.5-1.2c0.4-0.1,0.8-0.3,1.2-0.6c0.3-0.3,0.4-0.8,0.1-1.2l0,0
			C189.4,60.1,189,60.1,188.8,59.9z"/>
		<path class="st13" d="M216.7,73.8c0-0.1-0.1-0.2-0.2-0.3c-0.2-0.2-0.4-0.4-0.7-0.4c-0.2,0-0.3,0.5-0.4,0.9c0,0.4-0.2,0.9-0.4,1.3
			l-0.7-0.1c-0.3-0.6-0.1-1.5,0.1-2.2l1.1-2.9c0.1-0.3,0.2-0.6,0.2-0.9c0-0.4,0-0.8-0.2-1.2c0.4-1.2,0.6-2.5,0.7-3.8
			c0-0.3,0-0.6,0-1c-0.1-0.4-0.2-0.7-0.4-1.1l-0.6-1.1c0-0.1-0.1-0.3-0.3-0.4c-0.1,0-0.2-0.1-0.3-0.1c-0.5-0.2-1-0.6-1.4-1.1
			c-0.7-0.9-1.2-2-2.1-2.7c-0.8-0.5-1.6-0.9-2.5-1.1c-0.3-0.1-0.7-0.2-1.1-0.2c-0.3,0-0.7,0.2-1,0.4c-0.8,0.3-1.6,0.5-2.5,0.5
			c-0.1,0-0.3,0-0.4,0.1c-0.1,0.2,0,0.4,0.1,0.5c0.1,0.1,0.3,0.2,0.5,0.3c-0.1,0.4-0.9,0.2-1.1,0.6c0,0.1,0,0.2-0.1,0.3
			c0,0-0.1,0-0.2,0c-0.3,0-0.6-0.3-0.8-0.7c-0.1-0.3-0.3-0.6-0.6-0.9c-0.2-0.1-0.5-0.1-0.7,0c-0.1,0-0.1,0.1-0.2,0.2
			c-0.1,0-0.2,0.1-0.4,0.1c-0.4,0-0.8,0.1-1.3,0c0,0-0.1,0-0.1,0c0,0,0,0,0,0.1c-0.1,0.4-0.2,0.8-0.3,1.3c0,0.3-0.1,0.7-0.3,1
			c0,0-0.1,0.1-0.1,0.1s0,0.1,0,0.1c0,0.3,0.2,0.5,0.5,0.6c0.4,0.2,1,0,1.4,0.1c0.2,0,0.4,0.2,0.6,0.1c0.1-0.1,0.2-0.3,0.2-0.4
			c0-0.1-0.1-0.3-0.1-0.5c-0.1-0.5,0-1,0.2-1.4c0,0.2,0.2,0.5,0.4,0.6c0.2,0.1,0.5,0,0.8,0c0.2,0.1,0.3,0.5,0.5,0.8
			c0,0,0.1,0.1,0.2,0.2c0.1,0.1,0,0.3,0,0.5c-0.1,0.1-0.2,0.2-0.3,0.3c-0.2,0.2-0.4,0.3-0.6,0.5c-0.1,0.1-0.2,0.2-0.3,0.3
			c-0.1,0.1-0.3,0.1-0.4,0c-0.1,0-0.2-0.1-0.3-0.2c-0.2-0.1-0.4,0-0.6,0.2c-0.6-0.3-1.4-0.1-1.7,0.5l0,0c-0.2,0.4-0.2,0.8-0.5,1.1
			c-0.4,0.3-1,0-1.5,0.2c-0.3,0.2-0.4,0.6-0.2,0.9c0.1,0.2,0.3,0.3,0.6,0.3c0.3,0,0.6-0.2,0.9-0.2c0,0.1,0,0.3,0,0.4c0,0,0,0,0,0.1
			c0,0-0.1,0-0.1,0.1c-0.7,0.2-1.6,0.2-2.3,0.6c-0.3,0.2-0.6,0.4-0.8,0.7c-0.1,0.1-0.2,0.2-0.2,0.4s0,0.2,0.1,0.3l0.9,1.3
			c0.1,0.1,0.2,0.2,0.3,0.3c0.4,0.3,0.9,0.1,1.3,0c0,0,0.1,0,0.2-0.1c0-0.1,0-0.2,0-0.3c0-0.7,0.4-1.3,0.9-1.8
			c0.4-0.4,0.8-0.8,1.2-1.2c0.1-0.1,0.2-0.1,0.4-0.2c0.1,0,0.3,0,0.4,0c0.4,0.1,0.9,0.3,1.3,0.5c0.1,0,0.3,0.1,0.4,0.3
			c0.1,0.1,0.2,0.3,0.1,0.5c0,0.2-0.2,0.3-0.1,0.5c0,0,0.1,0.1,0.2,0.1c0.1,0,0.3,0,0.4,0c0.3-0.1,0.4-0.4,0.3-0.7l0,0
			c-0.2-0.5-1-0.4-1.3-0.9c-0.1-0.1-0.1-0.3,0-0.4c0,0,0.1,0,0.1,0c0.3,0,0.6,0.1,0.9,0.3c0,0,0.1,0.1,0.2,0.1
			c0,0.1,0.1,0.1,0.1,0.2c0.3,0.6,0.7,1.2,1.3,1.7c0.2,0.2,0.5,0.4,0.9,0.5c0.2,0,0.3-0.3,0.2-0.5c0-0.1-0.1-0.3,0-0.3
			c0,0,0,0,0.1,0c0.2,0,0.4,0.3,0.6,0.4s0.6,0,0.9,0c0,0,0.1,0,0.1,0c0,0,0,0,0,0.1l0.3,0.6c0,0,0,0.1,0.1,0.2c0,0,0.1,0.1,0.2,0.1
			c0.3,0.1,0.6,0.1,0.9,0.2c0.5,0.2,0.9,0.7,1,1.3c-0.3,0.2-0.6,0.6-0.6,1.1c0,0.4,0.2,0.8,0.4,1.1c0,0,0.1,0.1,0.2,0.1
			c0.1,0,0.2,0,0.3,0l0.7-0.1c0,0,0.1,0,0.2,0c0,0,0.1,0.1,0.1,0.2c0.1,0.3,0.1,0.5,0.1,0.8c0,0.1,0,0.2-0.1,0.3
			c-0.1,0.1-0.3,0.2-0.5,0.2c-1.8,0.2-3.6,0.4-5.4,0.5c-0.5-0.3-0.9-0.6-1.4-0.9c-0.1-0.1-0.2-0.1-0.4-0.1c-0.2,0-0.4,0-0.5,0.1
			c-1.1,0.3-2.3,0.1-3.4,0.3c-0.2,0-0.3,0.1-0.5,0.2c-0.4,0.3-0.2,0.9-0.4,1.4c-0.3,0.7-1.6,0.6-2,1.4c-0.1,0.4-0.1,0.9,0,1.3
			c0.1,0.3,0.2,0.6,0.2,0.9c-0.2,0.6-0.5,1.4-0.7,2c0,0.1,0,0.2,0,0.3c0,0.1,0.1,0.2,0.2,0.3c0.3,0.2,0.6,0.3,0.9,0.4
			c0.2,0,0.3,0.1,0.5,0.1c0.3,0.2,0.4,0.7,0.7,1c0.3,0.3,0.7,0.5,1.1,0.5c0.4,0,0.9,0,1.3-0.1l2.1-0.3c0.2,0,0.5,0,0.7,0
			c0.1,0.1,0.3,0.2,0.4,0.4c0.3,0.6,0.2,1.3,0.3,2c0.1,0.9,0.5,1.7,0.7,2.6c0.1,0.9-0.7,1.8-1,2.7c-0.1,0.2-0.1,0.5-0.2,0.7
			c0,0.3,0.1,0.5,0.2,0.8c0.3,0.7,0.6,1.4,0.9,2.2c0,0.1,0.1,0.2,0.1,0.3c0.1,0,0.2,0.1,0.3,0.1c0.3,0.1,0.7,0.1,1,0.1
			c0.1,0,0.2,0,0.2,0c0.1,0,0.1-0.1,0.2-0.2c0.8-1.4,1.7-2.7,2.9-3.9c0.3-0.3,0.6-0.6,0.7-1c0.1-0.2,0.1-0.5,0.1-0.7
			c0.1-0.9,0.2-1.8,0.2-2.7c0-0.9,1.1-1.7,1.7-2.4c0.4-0.6,1-1.2,1-1.9c0-0.7-0.5-1.6-0.4-2.4l-1.2-1c-0.5-0.4-1-0.9-1.1-1.6
			c0-0.3,0-0.6,0.1-0.9l0.3-1.6c0.2,0,0.4,0.1,0.5,0.3l1.2,1.1c0,0,0.1,0.1,0.1,0.2c0,0.1,0,0.2,0,0.2c-0.1,0.5-0.6,1.1-0.4,1.7
			c0.1,0.4,0.4,0.7,0.8,0.9c0.1,0.1,0.3,0.1,0.4,0.2c0.1,0,0.3-0.1,0.4-0.2c0.6-0.4,1.2-1,1.7-1.7c0.1-0.1,0.2-0.3,0.3-0.5
			c0.2-0.6-0.1-1.3,0-1.9C216.5,74.6,216.9,74.2,216.7,73.8z"/>
		<path class="st13" d="M214,87c-0.2,0-0.4,0.2-0.5,0.3c-0.1,0.2-0.4,0.4-0.7,0.4l-0.7,0.1c-0.1,0-0.1,0-0.2,0
			c-0.1,0.1-0.2,0.2-0.2,0.4s0,0.3,0,0.5c0,0.8-0.8,1.4-1.1,2.1c0,0,0,0.1,0,0.2c0,0.1,0,0.1,0.1,0.2c0,0.1,0.2,0.1,0.3,0.2
			c0,0,0.1,0,0.2,0l0.6-0.2c0.3-0.1,0.5-0.2,0.8-0.4c0.3-0.2,0.5-0.6,0.6-1c0-0.4,0-0.7,0.1-1.1c0.1-0.2,0.3-0.5,0.5-0.7
			C213.8,88,214.7,86.9,214,87z"/>
		<path class="st13" d="M187.1,68.5c0,0-0.1-0.1-0.2-0.1c-0.1,0-0.2-0.1-0.3-0.1c-0.1,0-0.2-0.1-0.3-0.2c0-0.1-0.1-0.1-0.2-0.2
			c-0.2-0.1-0.5,0-0.6,0.1c0,0,0,0.1,0,0.1c0,0.1,0,0.2,0,0.3c0,0,0,0.1,0,0.1s0,0.1,0.1,0.1c0.1,0.1,0.3,0.1,0.5,0.1s0.3,0,0.5,0
			c0,0,0.1,0,0.1,0c0,0,0,0,0.1,0c0.1,0,0.2,0,0.2,0c0.1,0,0.1-0.1,0.2-0.1c0,0,0,0,0,0v0C187.2,68.6,187.2,68.5,187.1,68.5z"/>
	</g>
	<path class="st14" d="M170.1,71.2c0-3.2,0.4-6.3,1.4-9.4c-10.3,12.5-8.5,30.9,4,41.2c12,9.9,29.6,8.7,40.2-2.8
		c-16,7.5-35.1,0.5-42.6-15.5C171.1,80.5,170.1,75.9,170.1,71.2L170.1,71.2z"/>
	<path class="st15" d="M156.6,36.3c0-7.3-5.1-16.3-11.5-20c-3.4-2-6.5-2.1-8.6-0.6l0,0l-2.5,1.5c2.1-1.1,4.9-0.9,8,0.9
		c6.4,3.7,11.6,12.7,11.5,20c0,3.6-1.3,6.2-3.3,7.4l0,0l2.9-1.7c0.2-0.1,0.4-0.2,0.6-0.3l0,0l0,0C155.4,42.1,156.6,39.7,156.6,36.3z
		"/>
	<path class="st16" d="M153.5,38.2c0-7.3-5.1-16.3-11.5-20c-3.1-1.8-6-2-8-0.9c-0.2,0.1-0.4,0.2-0.5,0.3l0,0c-1.9,1.3-3,3.7-3,7.2
		c0,7.3,5.2,16.3,11.6,20c3.2,1.9,6.2,2,8.3,0.8S153.5,41.8,153.5,38.2z"/>
	<path class="st16" d="M143.5,43c-6.1-3.5-10.9-12-10.9-18.9c0-2.7,0.7-4.7,2.1-5.9c0,0-0.1,0-0.2,0.1c-0.1,0.1-0.3,0.1-0.4,0.2l0,0
		c-1.6,1.1-2.4,3.3-2.4,6.2c0,6.9,4.9,15.5,10.9,18.9c1.4,0.8,3,1.3,4.6,1.4c0.9,0,1.7-0.2,2.5-0.6c0.2-0.1,0.4-0.3,0.7-0.5
		c-0.6,0.3-1.4,0.5-2.1,0.4C146.4,44.4,144.9,43.9,143.5,43z"/>
	<path class="st10" d="M143.5,43c-6.1-3.5-10.9-12-10.9-18.9c0-2.7,0.7-4.7,2.1-5.9c0,0-0.1,0-0.2,0.1c-0.1,0.1-0.3,0.1-0.4,0.2l0,0
		c-1.6,1.1-2.4,3.3-2.4,6.2c0,6.9,4.9,15.5,10.9,18.9c1.4,0.8,3,1.3,4.6,1.4c0.9,0,1.7-0.2,2.5-0.6c0.2-0.1,0.4-0.3,0.7-0.5
		c-0.6,0.3-1.4,0.5-2.1,0.4C146.4,44.4,144.9,43.9,143.5,43z"/>
	<path class="st17" d="M141.3,19.2c-1.4-0.8-3-1.3-4.6-1.4c-0.7,0-1.4,0.1-2.1,0.4c-1.3,1.2-2.1,3.2-2.1,5.9c0,6.9,4.9,15.5,10.9,19
		c1.4,0.8,3,1.3,4.6,1.4c0.7,0,1.4-0.1,2.1-0.4c1.3-1.2,2.1-3.2,2.1-5.9C152.2,31.2,147.4,22.7,141.3,19.2z"/>
	<path class="st15" d="M219.1,153c0-7.3-5.2-16.3-11.6-20c-3.4-2-6.5-2-8.6-0.5l0,0l-2.5,1.5c2.1-1.1,4.9-0.9,8,0.9
		c6.4,3.7,11.6,12.7,11.6,20c0,3.6-1.3,6.2-3.3,7.4l0,0l2.9-1.7c0.2-0.1,0.4-0.2,0.6-0.4l0,0l0,0C217.9,158.9,219,156.4,219.1,153z"
		/>
	<path class="st16" d="M215.9,154.8c0-7.3-5.2-16.3-11.6-20c-3.1-1.8-6-2-8-0.9c-0.2,0.1-0.4,0.2-0.6,0.3l0,0c-1.9,1.3-3,3.7-3,7.2
		c0,7.3,5.2,16.3,11.6,20c3.2,1.9,6.2,2,8.3,0.8C214.7,161,215.9,158.5,215.9,154.8z"/>
	<path class="st16" d="M206,159.8c-6.1-3.5-10.9-12-10.9-19c0-2.7,0.7-4.7,2.1-5.9l-0.2,0.1c-0.1,0.1-0.3,0.1-0.4,0.2l0,0
		c-1.6,1.1-2.4,3.3-2.4,6.2c0,6.9,4.9,15.5,10.9,19c1.4,0.8,3,1.3,4.6,1.4c0.9,0,1.7-0.2,2.5-0.6c0.2-0.1,0.4-0.3,0.7-0.5
		c-0.6,0.3-1.4,0.5-2.1,0.4C208.9,161.1,207.3,160.6,206,159.8z"/>
	<path class="st10" d="M206,159.8c-6.1-3.5-10.9-12-10.9-19c0-2.7,0.7-4.7,2.1-5.9l-0.2,0.1c-0.1,0.1-0.3,0.1-0.4,0.2l0,0
		c-1.6,1.1-2.4,3.3-2.4,6.2c0,6.9,4.9,15.5,10.9,19c1.4,0.8,3,1.3,4.6,1.4c0.9,0,1.7-0.2,2.5-0.6c0.2-0.1,0.4-0.3,0.7-0.5
		c-0.6,0.3-1.4,0.5-2.1,0.4C208.9,161.1,207.3,160.6,206,159.8z"/>
	<path class="st17" d="M203.8,135.9c-1.4-0.8-3-1.3-4.6-1.4c-0.7,0-1.4,0.1-2.1,0.4c-1.3,1.2-2.1,3.2-2.1,5.9
		c0,6.9,4.9,15.5,10.9,19c1.4,0.8,3,1.3,4.6,1.4c0.7,0,1.4-0.1,2.1-0.4c1.3-1.2,2.1-3.2,2.1-5.9
		C214.7,147.9,209.8,139.4,203.8,135.9z"/>
	<path class="st15" d="M253.5,133.4c0-6.4-4.5-14.3-10.1-17.6c-3-1.7-5.7-1.8-7.6-0.5l0,0l-2.2,1.3c1.8-1,4.3-0.8,7.1,0.8
		c5.6,3.2,10.2,11.1,10.1,17.6c0,3.2-1.1,5.5-3,6.5l0,0l2.5-1.5c0.2-0.1,0.3-0.2,0.5-0.3l0,0l0,0
		C252.5,138.5,253.5,136.4,253.5,133.4z"/>
	<path class="st16" d="M250.8,135c0-6.4-4.5-14.3-10.1-17.6c-2.8-1.6-5.2-1.8-7.1-0.8c-0.1,0.1-0.3,0.2-0.5,0.3l0,0
		c-1.6,1.1-2.7,3.3-2.7,6.4c0,6.4,4.5,14.4,10.1,17.6c2.9,1.6,5.4,1.8,7.3,0.7C249.7,140.5,250.8,138.2,250.8,135z"/>
	<path class="st16" d="M242,139.3c-5.3-3.1-9.6-10.5-9.6-16.6c0-2.3,0.7-4.1,1.9-5.2c0,0-0.1,0-0.1,0c-0.1,0-0.2,0.1-0.4,0.2l0,0
		c-1.4,1-2.1,2.9-2.2,5.4c0,6.1,4.3,13.6,9.6,16.7c1.2,0.7,2.6,1.2,4,1.2c0.7,0,1.5-0.2,2.2-0.5c0.2-0.1,0.4-0.2,0.6-0.4
		c-0.6,0.3-1.2,0.4-1.9,0.4C244.6,140.5,243.2,140.1,242,139.3z"/>
	<path class="st10" d="M242,139.3c-5.3-3.1-9.6-10.5-9.6-16.6c0-2.3,0.7-4.1,1.9-5.2c0,0-0.1,0-0.1,0c-0.1,0-0.2,0.1-0.4,0.2l0,0
		c-1.4,1-2.1,2.9-2.2,5.4c0,6.1,4.3,13.6,9.6,16.7c1.2,0.7,2.6,1.2,4,1.2c0.7,0,1.5-0.2,2.2-0.5c0.2-0.1,0.4-0.2,0.6-0.4
		c-0.6,0.3-1.2,0.4-1.9,0.4C244.6,140.5,243.2,140.1,242,139.3z"/>
	<path class="st17" d="M240.1,118.4c-1.2-0.7-2.6-1.2-4-1.2c-0.6,0-1.3,0.1-1.8,0.4c-1.2,1-1.9,2.9-1.9,5.2c0,6.1,4.3,13.6,9.6,16.6
		c1.2,0.7,2.6,1.2,4,1.2c0.6,0,1.3-0.1,1.9-0.4c1.2-1,1.8-2.9,1.8-5.2C249.7,128.9,245.4,121.4,240.1,118.4z"/>
	<path class="st15" d="M201.6,42.1c0-5.7-4-12.7-9-15.5c-2.7-1.5-5-1.6-6.7-0.4l0,0l-2,1.2c1.6-0.8,3.8-0.7,6.3,0.7
		c5,2.9,9,9.8,9,15.5c0,2.8-1,4.8-2.6,5.8l0,0l2.2-1.3c0.1-0.1,0.3-0.2,0.5-0.3l0,0l0,0C200.7,46.6,201.6,44.7,201.6,42.1z"/>
	<path class="st16" d="M199.2,43.5c0-5.7-4-12.7-9-15.5c-2.4-1.4-4.6-1.6-6.3-0.7c-0.1,0.1-0.3,0.1-0.4,0.2l0,0
		c-1.4,1-2.3,2.9-2.3,5.6c0,5.7,4,12.7,9,15.5c2.5,1.4,4.8,1.6,6.4,0.6C198.2,48.3,199.2,46.3,199.2,43.5z"/>
	<path class="st16" d="M191.4,47.3c-4.7-2.7-8.5-9.3-8.5-14.7c0-2.1,0.6-3.6,1.6-4.5c0,0-0.1,0-0.1,0c-0.1,0-0.2,0.1-0.3,0.2l0,0
		c-1.2,0.9-1.9,2.6-1.9,4.8c0,5.4,3.8,12,8.5,14.7c1.1,0.6,2.3,1,3.5,1.1c0.6,0,1.3-0.1,1.9-0.5c0.2-0.1,0.3-0.2,0.5-0.4
		c-0.5,0.2-1.1,0.3-1.6,0.3C193.7,48.3,192.5,48,191.4,47.3z"/>
	<path class="st10" d="M191.4,47.3c-4.7-2.7-8.5-9.3-8.5-14.7c0-2.1,0.6-3.6,1.6-4.5c0,0-0.1,0-0.1,0c-0.1,0-0.2,0.1-0.3,0.2l0,0
		c-1.2,0.9-1.9,2.6-1.9,4.8c0,5.4,3.8,12,8.5,14.7c1.1,0.6,2.3,1,3.5,1.1c0.6,0,1.3-0.1,1.9-0.5c0.2-0.1,0.3-0.2,0.5-0.4
		c-0.5,0.2-1.1,0.3-1.6,0.3C193.7,48.3,192.5,48,191.4,47.3z"/>
	<path class="st17" d="M189.8,28.9c-1.1-0.7-2.3-1-3.5-1.1c-0.5,0-1.1,0.1-1.6,0.3c-1,0.9-1.6,2.5-1.6,4.5c0,5.4,3.8,12,8.5,14.7
		c1.1,0.7,2.3,1,3.5,1.1c0.5,0,1.1-0.1,1.6-0.3c1-0.9,1.6-2.5,1.6-4.5C198.2,38.2,194.4,31.6,189.8,28.9z"/>
	<path class="st15" d="M248.5,92.8c0-5.7-4-12.6-9-15.5c-2.7-1.5-5-1.6-6.7-0.4l0,0l-2,1.2c1.6-0.8,3.8-0.7,6.2,0.7
		c5,2.9,9,9.8,9,15.5c0,2.8-1,4.8-2.6,5.8l0,0l2.2-1.3c0.1-0.1,0.3-0.2,0.5-0.3l0,0l0,0C247.7,97.3,248.5,95.4,248.5,92.8z"/>
	<path class="st16" d="M246.1,94.2c0-5.7-4-12.6-9-15.5c-2.4-1.4-4.6-1.6-6.2-0.7c-0.1,0.1-0.3,0.1-0.4,0.2l0,0
		c-1.4,1-2.3,2.9-2.3,5.6c0,5.7,4,12.7,9,15.5c2.5,1.4,4.8,1.6,6.4,0.6C245.2,98.9,246.1,97,246.1,94.2z"/>
	<path class="st16" d="M238.3,98c-4.7-2.7-8.5-9.3-8.5-14.7c0-2.1,0.6-3.6,1.6-4.5l-0.1,0c-0.1,0-0.2,0.1-0.3,0.2l0,0
		c-1.2,0.9-1.9,2.6-1.9,4.8c0,5.4,3.8,12,8.5,14.7c1.1,0.6,2.3,1,3.5,1.1c0.7,0,1.3-0.1,1.9-0.5c0.2-0.1,0.3-0.2,0.5-0.4
		c-0.5,0.2-1.1,0.3-1.6,0.3C240.7,99,239.4,98.7,238.3,98z"/>
	<path class="st10" d="M238.3,98c-4.7-2.7-8.5-9.3-8.5-14.7c0-2.1,0.6-3.6,1.6-4.5l-0.1,0c-0.1,0-0.2,0.1-0.3,0.2l0,0
		c-1.2,0.9-1.9,2.6-1.9,4.8c0,5.4,3.8,12,8.5,14.7c1.1,0.6,2.3,1,3.5,1.1c0.7,0,1.3-0.1,1.9-0.5c0.2-0.1,0.3-0.2,0.5-0.4
		c-0.5,0.2-1.1,0.3-1.6,0.3C240.7,99,239.4,98.7,238.3,98z"/>
	<path class="st17" d="M236.7,79.5c-1.1-0.7-2.3-1-3.5-1.1c-0.5,0-1.1,0.1-1.6,0.3c-1,0.9-1.6,2.5-1.6,4.5c0,5.4,3.8,12,8.5,14.7
		c1.1,0.7,2.3,1,3.5,1.1c0.5,0,1.1-0.1,1.6-0.3c1-0.9,1.6-2.5,1.6-4.5C245.1,88.8,241.4,82.2,236.7,79.5z"/>
	<path class="st15" d="M174.2,130.1c0-5.7-4-12.6-9-15.5c-2.7-1.5-5-1.6-6.7-0.4l0,0l-2,1.2c1.6-0.8,3.8-0.7,6.3,0.7
		c5,2.9,9,9.8,9,15.5c0,2.8-1,4.8-2.6,5.8l0,0l2.2-1.3c0.1-0.1,0.3-0.2,0.5-0.3l0,0l0,0C173.3,134.6,174.2,132.8,174.2,130.1z"/>
	<path class="st16" d="M171.8,131.5c0-5.7-4-12.6-9-15.5c-2.4-1.4-4.6-1.6-6.3-0.7c-0.1,0.1-0.3,0.1-0.4,0.2l0,0
		c-1.4,1-2.3,2.9-2.3,5.6c0,5.7,4,12.7,9,15.5c2.5,1.4,4.8,1.6,6.4,0.6S171.8,134.4,171.8,131.5z"/>
	<path class="st16" d="M164,135.3c-4.7-2.7-8.5-9.3-8.5-14.7c0-2.1,0.6-3.6,1.6-4.5l-0.1,0c-0.1,0-0.2,0.1-0.3,0.2l0,0
		c-1.2,0.8-1.9,2.6-1.9,4.8c0,5.4,3.8,12,8.5,14.7c1.1,0.7,2.3,1,3.5,1.1c0.7,0,1.3-0.1,1.9-0.5c0.2-0.1,0.3-0.2,0.5-0.4
		c-0.5,0.2-1.1,0.3-1.6,0.3C166.3,136.4,165.1,136,164,135.3z"/>
	<path class="st10" d="M164,135.3c-4.7-2.7-8.5-9.3-8.5-14.7c0-2.1,0.6-3.6,1.6-4.5l-0.1,0c-0.1,0-0.2,0.1-0.3,0.2l0,0
		c-1.2,0.8-1.9,2.6-1.9,4.8c0,5.4,3.8,12,8.5,14.7c1.1,0.7,2.3,1,3.5,1.1c0.7,0,1.3-0.1,1.9-0.5c0.2-0.1,0.3-0.2,0.5-0.4
		c-0.5,0.2-1.1,0.3-1.6,0.3C166.3,136.4,165.1,136,164,135.3z"/>
	<path class="st17" d="M162.3,116.9c-1.1-0.7-2.3-1-3.5-1.1c-0.5,0-1.1,0.1-1.6,0.3c-1,0.9-1.6,2.5-1.6,4.5c0,5.4,3.8,12,8.5,14.7
		c1.1,0.6,2.3,1,3.5,1.1c0.5,0,1.1-0.1,1.6-0.3c1-0.9,1.6-2.5,1.6-4.5C170.8,126.2,167,119.6,162.3,116.9z"/>
	<path class="st15" d="M150.2,87.9c0-5.7-4-12.6-9-15.5c-2.7-1.5-5-1.6-6.7-0.4l0,0l-2,1.2c1.6-0.8,3.8-0.7,6.3,0.7
		c5,2.9,9,9.8,9,15.5c0,2.8-1,4.8-2.6,5.8l0,0l2.2-1.3c0.1-0.1,0.3-0.2,0.4-0.3l0,0l0,0C149.3,92.5,150.2,90.5,150.2,87.9z"/>
	<path class="st16" d="M147.8,89.4c0-5.7-4-12.6-9-15.5c-2.4-1.4-4.6-1.6-6.3-0.7c-0.1,0.1-0.3,0.1-0.4,0.2l0,0
		c-1.4,1-2.3,2.9-2.3,5.6c0,5.7,4,12.7,9,15.5c2.5,1.4,4.8,1.6,6.4,0.6C146.8,94.1,147.8,92.2,147.8,89.4z"/>
	<path class="st16" d="M140,93.1c-4.7-2.7-8.5-9.3-8.5-14.7c0-2.1,0.6-3.6,1.6-4.5l-0.1,0c-0.1,0-0.2,0.1-0.3,0.2l0,0
		c-1.2,0.9-1.9,2.6-1.9,4.8c0,5.4,3.8,12,8.5,14.7c1.1,0.6,2.3,1,3.5,1.1c0.7,0,1.3-0.1,1.9-0.5c0.2-0.1,0.3-0.2,0.5-0.4
		c-0.5,0.2-1.1,0.3-1.6,0.3C142.3,94.2,141.1,93.8,140,93.1z"/>
	<path class="st10" d="M140,93.1c-4.7-2.7-8.5-9.3-8.5-14.7c0-2.1,0.6-3.6,1.6-4.5l-0.1,0c-0.1,0-0.2,0.1-0.3,0.2l0,0
		c-1.2,0.9-1.9,2.6-1.9,4.8c0,5.4,3.8,12,8.5,14.7c1.1,0.6,2.3,1,3.5,1.1c0.7,0,1.3-0.1,1.9-0.5c0.2-0.1,0.3-0.2,0.5-0.4
		c-0.5,0.2-1.1,0.3-1.6,0.3C142.3,94.2,141.1,93.8,140,93.1z"/>
	<path class="st17" d="M138.4,74.7c-1.1-0.6-2.3-1-3.5-1.1c-0.5,0-1.1,0.1-1.6,0.3c-1,0.9-1.6,2.5-1.6,4.5c0,5.4,3.8,12,8.5,14.7
		c1.1,0.7,2.3,1,3.5,1.1c0.5,0,1.1-0.1,1.6-0.3c1-0.9,1.6-2.5,1.6-4.5C146.8,84,143,77.4,138.4,74.7z"/>
	<path class="st15" d="M253,51c0-6.9-4.9-15.4-10.9-18.9c-3.2-1.9-6.2-1.9-8.1-0.5l0,0l-2.4,1.4c2-1,4.7-0.8,7.6,0.9
		c6.1,3.5,10.9,12,10.9,18.9c0,3.4-1.2,5.9-3.2,7l0,0l2.7-1.6c0.2-0.1,0.4-0.2,0.6-0.3l0,0l0,0C252,56.6,253,54.2,253,51z"/>
	<path class="st16" d="M250.1,52.8c0-6.9-4.9-15.4-10.9-18.9c-3-1.7-5.6-1.9-7.6-0.9c-0.2,0.1-0.3,0.2-0.5,0.3l0,0
		c-1.8,1.2-2.9,3.5-2.9,6.8c0,6.9,4.9,15.4,10.9,18.9c3.1,1.8,5.8,1.9,7.8,0.7C248.9,58.6,250.1,56.2,250.1,52.8z"/>
	<path class="st16" d="M240.7,57.4c-5.7-3.3-10.3-11.3-10.3-17.9c0-2.5,0.7-4.4,2-5.6l-0.2,0.1c-0.1,0.1-0.2,0.1-0.4,0.2l0,0
		c-1.5,1-2.3,3.1-2.3,5.8c0,6.6,4.6,14.6,10.3,17.9c1.3,0.8,2.8,1.3,4.3,1.3c0.8,0,1.6-0.2,2.3-0.6c0.2-0.1,0.4-0.3,0.6-0.4
		c-0.6,0.3-1.3,0.4-2,0.4C243.5,58.7,241.9,58.2,240.7,57.4z"/>
	<path class="st10" d="M240.7,57.4c-5.7-3.3-10.3-11.3-10.3-17.9c0-2.5,0.7-4.4,2-5.6l-0.2,0.1c-0.1,0.1-0.2,0.1-0.4,0.2l0,0
		c-1.5,1-2.3,3.1-2.3,5.8c0,6.6,4.6,14.6,10.3,17.9c1.3,0.8,2.8,1.3,4.3,1.3c0.8,0,1.6-0.2,2.3-0.6c0.2-0.1,0.4-0.3,0.6-0.4
		c-0.6,0.3-1.3,0.4-2,0.4C243.5,58.7,241.9,58.2,240.7,57.4z"/>
	<path class="st17" d="M238.6,34.9c-1.3-0.8-2.8-1.3-4.3-1.3c-0.7,0-1.3,0.1-2,0.4c-1.3,1.1-2,3.1-2,5.6c0,6.5,4.6,14.6,10.3,17.9
		c1.3,0.8,2.8,1.3,4.3,1.3c0.7,0,1.4-0.1,2-0.4c1.3-1.1,2-3.1,2-5.6C248.9,46.2,244.3,38.2,238.6,34.9z"/>
	<path class="st7" d="M215.3,135c-0.1,0-0.1,0-0.2,0c-0.2-0.1-0.3-0.4-0.2-0.6l18.3-33.9c0.1-0.2,0.3-0.4,0.6-0.3
		c0.2,0.1,0.4,0.3,0.3,0.6c0,0,0,0.1-0.1,0.1l-18.3,33.9C215.6,134.9,215.5,135,215.3,135z"/>
	<path class="st7" d="M218.6,142c-0.3,0-0.5-0.2-0.4-0.5c0-0.1,0.1-0.3,0.2-0.4l13.1-6.1c0.2-0.1,0.5-0.1,0.7,0.1
		c0.1,0.2,0.1,0.5-0.1,0.7c0,0-0.1,0-0.1,0l-13.1,6.1C218.7,142,218.6,142,218.6,142z"/>
	<path class="st7" d="M244.2,113.2c-0.2,0-0.5-0.2-0.5-0.4l-0.6-9.9c0-0.2,0.2-0.5,0.4-0.5c0.2,0,0.5,0.2,0.5,0.4l0.6,9.9
		C244.6,113,244.5,113.2,244.2,113.2L244.2,113.2z"/>
	<path class="st7" d="M239.1,75.6L239.1,75.6c-0.3,0-0.5-0.3-0.5-0.5l2.3-13c0.1-0.2,0.4-0.4,0.6-0.3c0.2,0,0.3,0.2,0.3,0.4
		l-2.3,13.1C239.6,75.4,239.4,75.6,239.1,75.6z"/>
	<path class="st7" d="M225.6,36.9L225.6,36.9l-22.4-1c-0.2,0-0.4-0.2-0.4-0.5c0-0.2,0.2-0.4,0.5-0.4l22.4,1c0.3,0,0.5,0.2,0.5,0.5
		S225.9,37,225.6,36.9L225.6,36.9z"/>
	<path class="st7" d="M179.2,31.6C179.2,31.6,179.1,31.6,179.2,31.6l-22-5.3c-0.2-0.1-0.4-0.4-0.2-0.6c0.1-0.2,0.3-0.3,0.5-0.3
		l21.9,5.3c0.3,0,0.4,0.3,0.4,0.5C179.7,31.5,179.5,31.7,179.2,31.6L179.2,31.6z"/>
	<path class="st7" d="M139.2,68.2L139.2,68.2c-0.3,0-0.5-0.3-0.5-0.5l2.7-19.3c0-0.3,0.3-0.4,0.5-0.4c0.2,0,0.4,0.3,0.4,0.5l0,0
		l-2.7,19.3C139.6,68,139.4,68.2,139.2,68.2z"/>
	<path class="st7" d="M153.8,114.3c-0.2,0-0.3-0.1-0.4-0.2l-8.9-16.5c-0.1-0.2,0-0.5,0.3-0.6c0.2,0,0.4,0,0.5,0.1l9,16.4
		c0.1,0.2,0,0.5-0.2,0.6C154,114.2,153.9,114.2,153.8,114.3L153.8,114.3z"/>
	<path class="st7" d="M190.9,140.5c0,0-0.1,0-0.1,0l-15.6-5.5c-0.2-0.1-0.3-0.4-0.2-0.7c0.1-0.2,0.3-0.3,0.5-0.2l15.6,5.5
		c0.2,0.1,0.3,0.4,0.2,0.6C191.2,140.3,191.1,140.4,190.9,140.5L190.9,140.5z"/>
	<path class="st7" d="M194.5,132.5c-0.1,0-0.2,0-0.3-0.1l-42.2-42c-0.2-0.2-0.2-0.5,0-0.7c0.2-0.2,0.5-0.2,0.7,0l42.2,42
		c0.2,0.2,0.2,0.5,0,0.7C194.7,132.4,194.6,132.5,194.5,132.5L194.5,132.5z"/>
	<path class="st7" d="M146.8,74.7c-0.1,0-0.3,0-0.4-0.2c-0.1-0.2-0.1-0.5,0.1-0.7l35.7-27.4c0.2-0.2,0.5-0.2,0.7,0
		c0.2,0.2,0.2,0.5,0,0.7c0,0-0.1,0-0.1,0.1l-35.7,27.4C147,74.7,146.9,74.7,146.8,74.7z"/>
	<path class="st7" d="M230.3,75.6c-0.1,0-0.3,0-0.4-0.2l-26.8-33.9c-0.1-0.2,0-0.5,0.2-0.7c0.2-0.1,0.4-0.1,0.6,0l26.8,33.9
		c0.1,0.2,0.1,0.5-0.1,0.7C230.5,75.6,230.4,75.6,230.3,75.6z"/>
	<g class="st18">
		<path class="st13" d="M215.3,135c-0.1,0-0.1,0-0.2,0c-0.2-0.1-0.3-0.4-0.2-0.6l18.3-33.9c0.1-0.2,0.3-0.4,0.6-0.3
			c0.2,0.1,0.4,0.3,0.3,0.6c0,0,0,0.1-0.1,0.1l-18.3,33.9C215.6,134.9,215.5,135,215.3,135z"/>
		<path class="st13" d="M218.6,142c-0.3,0-0.5-0.2-0.4-0.5c0-0.1,0.1-0.3,0.2-0.4l13.1-6.1c0.2-0.1,0.5-0.1,0.7,0.1
			c0.1,0.2,0.1,0.5-0.1,0.7c0,0-0.1,0-0.1,0l-13.1,6.1C218.7,142,218.6,142,218.6,142z"/>
		<path class="st13" d="M244.2,113.2c-0.2,0-0.5-0.2-0.5-0.4l-0.6-9.9c0-0.2,0.2-0.5,0.4-0.5c0.2,0,0.5,0.2,0.5,0.4l0.6,9.9
			C244.6,113,244.5,113.2,244.2,113.2L244.2,113.2z"/>
		<path class="st13" d="M239.1,75.6L239.1,75.6c-0.3,0-0.5-0.3-0.5-0.5l2.3-13c0.1-0.2,0.4-0.4,0.6-0.3c0.2,0,0.3,0.2,0.3,0.4
			l-2.3,13.1C239.6,75.4,239.4,75.6,239.1,75.6z"/>
		<path class="st13" d="M225.6,36.9L225.6,36.9l-22.4-1c-0.2,0-0.4-0.2-0.4-0.5c0-0.2,0.2-0.4,0.5-0.4l22.4,1c0.3,0,0.5,0.2,0.5,0.5
			S225.9,37,225.6,36.9L225.6,36.9z"/>
		<path class="st13" d="M179.2,31.6C179.2,31.6,179.1,31.6,179.2,31.6l-22-5.3c-0.2-0.1-0.4-0.4-0.2-0.6c0.1-0.2,0.3-0.3,0.5-0.3
			l21.9,5.3c0.3,0,0.4,0.3,0.4,0.5C179.7,31.5,179.5,31.7,179.2,31.6L179.2,31.6z"/>
		<path class="st13" d="M139.2,68.2L139.2,68.2c-0.3,0-0.5-0.3-0.5-0.5l2.7-19.3c0-0.3,0.3-0.4,0.5-0.4c0.2,0,0.4,0.3,0.4,0.5l0,0
			l-2.7,19.3C139.6,68,139.4,68.2,139.2,68.2z"/>
		<path class="st13" d="M153.8,114.3c-0.2,0-0.3-0.1-0.4-0.2l-8.9-16.5c-0.1-0.2,0-0.5,0.3-0.6c0.2,0,0.4,0,0.5,0.1l9,16.4
			c0.1,0.2,0,0.5-0.2,0.6C154,114.2,153.9,114.2,153.8,114.3L153.8,114.3z"/>
		<path class="st13" d="M190.9,140.5c0,0-0.1,0-0.1,0l-15.6-5.5c-0.2-0.1-0.3-0.4-0.2-0.7c0.1-0.2,0.3-0.3,0.5-0.2l15.6,5.5
			c0.2,0.1,0.3,0.4,0.2,0.6C191.2,140.3,191.1,140.4,190.9,140.5L190.9,140.5z"/>
		<path class="st13" d="M194.5,132.5c-0.1,0-0.2,0-0.3-0.1l-42.2-42c-0.2-0.2-0.2-0.5,0-0.7c0.2-0.2,0.5-0.2,0.7,0l42.2,42
			c0.2,0.2,0.2,0.5,0,0.7C194.7,132.4,194.6,132.5,194.5,132.5L194.5,132.5z"/>
		<path class="st13" d="M146.8,74.7c-0.1,0-0.3,0-0.4-0.2c-0.1-0.2-0.1-0.5,0.1-0.7l35.7-27.4c0.2-0.2,0.5-0.2,0.7,0
			c0.2,0.2,0.2,0.5,0,0.7c0,0-0.1,0-0.1,0.1l-35.7,27.4C147,74.7,146.9,74.7,146.8,74.7z"/>
		<path class="st13" d="M230.3,75.6c-0.1,0-0.3,0-0.4-0.2l-26.8-33.9c-0.1-0.2,0-0.5,0.2-0.7c0.2-0.1,0.4-0.1,0.6,0l26.8,33.9
			c0.1,0.2,0.1,0.5-0.1,0.7C230.5,75.6,230.4,75.6,230.3,75.6z"/>
	</g>
	<path class="st19" d="M116.1,111.9c4.5,3.2,9.6,5.3,13.3,9.5c7,7.8,7.2,20.5,1.7,29.4c-5.5,9-15.8,14.4-26.3,15.6
		c-11,1.3-22.5-1.7-31.1-8.7S59.6,140,59.6,128.9c0-11.1,5.7-22.1,14.9-28.1c8.5-5.5,20.6-7.1,29.1-0.8c4.3,3.2,7.1,7.9,11.4,11.1
		C115.4,111.4,115.7,111.6,116.1,111.9z"/>
	<path class="st8" d="M114.2,157.8l0-0.2c-0.8-5-4.6-9-9.6-9.9c-4.3-0.8-8.5-2.4-12.3-4.7c-2.7-1.6-5.2-3.6-8.3-4.5
		c-3-0.8-6.1-0.7-8.9,0.5c2.6-2.7,6.9-3.8,10.4-2.7c-2.4-3.7-4.5-7.6-5.4-12c-0.8-4.3-0.2-9.1,2.4-12.6c4.1-5.7,12.1-6.8,17.8-2.7
		c0.7,0.5,1.3,1,1.9,1.7c2.6,2.8,4,6.8,5.7,10.2c1.2,2.5,2.5,5,4.5,6.8c3.1,2.9,7.4,3.8,10.5,6.5c3.5,3.1,5.1,8,5.1,12.7
		c0,3.2-0.5,6.4-1.4,9.4c-3.7,3.5-8.1,6.2-12.9,7.9C114.3,162.2,114.5,160,114.2,157.8z"/>
	<path class="st13" d="M65.5,127.4c0.3-15.8,11.9-29,27.5-31.4c1,0.1,2.1,0.3,3.1,0.5c-16.5,0.9-29.5,14.3-29.8,30.8
		c-0.2,10.3,4.8,20.8,13.5,28.1c6.7,5.7,15.8,9.5,25.6,10.8l-0.6,0.1c-0.9,0.1-1.8,0.2-2.7,0.2c-8.8-1.7-16.7-5.3-22.9-10.5
		C70.4,148.7,65.3,137.9,65.5,127.4z"/>
	<path class="st20" d="M125.7,154.4c-0.3,1.7-0.5,3.4-0.5,5.1l-1.2-0.4c-1.2-0.4-2.5-0.1-3.4,0.8l0,0c-0.4,0.5-1.2,0.5-1.7,0.1l0,0
		c-0.2-0.2-0.4-0.5-0.4-0.9l-0.1-5.2L125.7,154.4z"/>
	<path class="st13" d="M121,173.7c2.5,2.7,7.2,5.1,10.6,2.8l-0.4,0.9c-3.4,2.3-8,0-10.6-2.8c-2.6-2.7-0.9-4.6-3.2-7
		c-0.8-0.8-1.5-1.8-2-2.9c0.1-0.2,0.2-0.6,0.3-1c0.5,1.1,1.2,2.2,2,3.1C120.1,169.1,118.5,171,121,173.7z"/>
	<path class="st21" d="M117,160.8c0.4-0.5,0.6-1.2,0.8-1.9c0-0.3,0.2-0.6,0.5-0.7v0.9c0,0.7,0.6,1.2,1.3,1.2c0.3,0,0.6-0.1,0.8-0.4
		l0,0c0.9-0.9,2.2-1.2,3.4-0.8l1.2,0.5c0.4,0.1,0.6,0.5,0.6,0.9c-0.1,3.5,1.6,8.3,3.3,10.8c1.8,0.7,3.3,3.2,2.6,5l-0.1,0.2
		c-3.4,2.3-8,0-10.6-2.8c-2.6-2.7-0.9-4.6-3.2-7c-0.8-0.9-1.5-1.9-2-3.1C116.1,162.7,116.5,161.7,117,160.8z"/>
	<path class="st13" d="M122,166c-0.2,0.1-0.5,0-0.5-0.2c-0.1-0.2,0-0.4,0.1-0.5c1.5-0.8,3.3-0.8,4.9,0c0.1,0.3,0.1,0.5,0.2,0.8
		C125.3,165.2,123.5,165.1,122,166z"/>
	<path class="st13" d="M121.4,164c-0.2,0.1-0.5,0-0.6-0.2s0-0.4,0.2-0.5c1.6-0.9,3.5-0.8,5.1,0c0,0.3,0.1,0.6,0.2,0.9
		C124.7,163.4,123.3,163.1,121.4,164z"/>
	<path class="st13" d="M122.7,167.8c-0.2,0.1-0.5,0-0.6-0.2c-0.1-0.2,0-0.4,0.2-0.5c1.5-0.8,3.2-0.8,4.8,0c0.1,0.3,0.2,0.6,0.3,0.9
		C126,167.1,124.1,167,122.7,167.8z"/>
	<path class="st13" d="M129.1,171.3c1.8,0.7,3.3,3.2,2.6,5l-0.1,0.2c-3.3,2.3-7.9,0-10.4-2.7C123.3,169.6,127.7,170.6,129.1,171.3z"
		/>
	<path class="st13" d="M123.4,169.7c-0.2,0.1-0.4,0-0.6-0.2c-0.1-0.2,0-0.4,0.2-0.6c1.5-0.8,3.3-0.8,4.8,0c0.1,0.3,0.3,0.6,0.4,0.9
		C126.8,169.1,125.3,168.8,123.4,169.7z"/>
	<path class="st20" d="M131,164.7c0.4,1.7,0.9,3.3,1.6,4.9l-1.3,0c-1.3,0-2.4,0.9-2.8,2.1l0,0.1c-0.2,0.6-0.9,0.9-1.5,0.7l0,0
		c-0.3-0.1-0.6-0.3-0.7-0.6l-2.3-4.7L131,164.7z"/>
	<path class="st13" d="M134.5,184.2c3.4,1.5,8.6,1.7,10.8-1.7v0.9c-2.2,3.5-7.4,3.2-10.8,1.7c-3.4-1.5-2.7-3.8-5.7-5.1
		c-1.1-0.4-2.1-1-3-1.9c0-0.3,0-0.6-0.1-1c0.9,0.8,2,1.5,3.1,2C131.9,180.4,131.1,182.8,134.5,184.2z"/>
	<path class="st21" d="M125.7,174.1c0.1-0.6,0.1-1.3,0-2c-0.1-0.3,0-0.6,0.1-0.9l0.4,0.8c0.1,0.3,0.4,0.5,0.7,0.6
		c0.6,0.2,1.3-0.1,1.5-0.7l0-0.1c0.4-1.2,1.5-2,2.8-2.1l1.3,0c0.4,0,0.8,0.2,0.9,0.6c1.4,3.2,4.8,6.9,7.4,8.6c1.9,0,4.3,1.6,4.3,3.5
		v0.2c-2.2,3.5-7.4,3.2-10.8,1.7c-3.4-1.5-2.7-3.8-5.7-5.1c-1.1-0.5-2.2-1.1-3.1-2C125.6,176.1,125.6,175.1,125.7,174.1z"/>
	<path class="st13" d="M132.3,176.7c-0.1,0.2-0.4,0.2-0.6,0s-0.2-0.4,0-0.6c1-1.4,2.7-2.1,4.4-2c0.2,0.2,0.4,0.4,0.5,0.7
		C135,174.7,133.3,175.4,132.3,176.7z"/>
	<path class="st13" d="M131,175.3c-0.1,0.2-0.4,0.2-0.6,0c-0.2-0.1-0.2-0.4,0-0.6c1.1-1.4,2.9-2.2,4.6-2c0.1,0.2,0.3,0.5,0.5,0.7
		C133.8,173.3,132.3,173.6,131,175.3z"/>
	<path class="st13" d="M133.7,178.2c-0.1,0.2-0.4,0.2-0.6,0c-0.1-0.1-0.2-0.4,0-0.6c1-1.4,2.7-2.1,4.3-2c0.2,0.2,0.4,0.4,0.7,0.7
		C136.3,176.2,134.7,176.9,133.7,178.2z"/>
	<path class="st13" d="M141,178.8c1.9,0,4.3,1.6,4.3,3.5v0.2c-2.1,3.4-7.2,3.2-10.6,1.8C134.9,179.6,139.4,178.8,141,178.8z"/>
	<path class="st13" d="M135.1,179.6c-0.1,0.2-0.4,0.2-0.6,0c-0.1-0.1-0.2-0.4,0-0.6c1-1.4,2.7-2.1,4.3-2c0.3,0.2,0.5,0.5,0.8,0.7
		C138,177.7,136.4,178,135.1,179.6z"/>
	<path class="st22" d="M111,120.4l17,9.5c3.2,1.8,4.9,5.4,4.2,8.9l-3.3,17.8l3.4,10.5c-3.3,4.1-9.6,3.5-9.6,3.5
		c-3-6-4.1-10.7-5.8-15.8c-1.7-5.1-2.9-8.5-2.9-8.5l-14.2-3.9c-6.6-1.8-11.5-7.4-12.3-14.3c-0.2-2.2-0.2-3.6-0.2-3.6L111,120.4z"/>
	<path class="st10" d="M110.9,125.2c0,1.9-0.7,3.7-1.9,5.2l12,7.5c1.8,1.1,3.1,2.8,3.7,4.8l4.2,13.9l-3.8-15.5
		c-0.4-1.8-1.6-3.3-3.2-4.3l-11.1-6.8C112,127.2,110.9,125.2,110.9,125.2z"/>
	<path class="st23" d="M121.5,104.2c-1.7,4.7-7.6,3.4-7.6,3.4C113.6,101.4,121.5,104.2,121.5,104.2z"/>
	<path class="st20" d="M109.2,91.1h0.4c3,0,6.7,2,8.5,7.2l7.1,13.7l-8.1,3.6l-4.4-12.9L109.2,91.1z"/>
	<path class="st10" d="M114.8,100.2c0.5,1.6,0.6,3.3,0.7,5.1c0.1,1.7,0.3,3.8,1.1,5.3c1.8-1.2,4.1-1.1,5.8,0.2
		c0.6,0.5,1,1.1,1.3,1.8l-6.6,3l-4.4-12.9l-2.2-7.1C112.5,96.4,114.1,98.1,114.8,100.2z"/>
	<path class="st20" d="M117,113.1c0.6-1.5,2-2.7,3.6-3c1.7-0.2,3.4,0.5,4.5,1.9c0.9,1.1,0.7,2.5,0.2,3.7c-0.9,2-3.2,3.1-5.4,2.6
		C117.9,117.8,116.3,115.1,117,113.1z"/>
	<path class="st24" d="M109.2,91c3.5-0.4,7.9,1.2,12.4,13c-5.7,0.1-7.6,3.4-7.6,3.4c-2.6-6.5-5.5-15.7-5.5-15.7L109.2,91z"/>
	<path class="st25" d="M87.3,126c3,2.9,17.5,3.4,25-3.6c-0.7-5-0.5-10.3,0-15.6c0.5-5.3,3.5-14.5-2.3-15.6
		c-7.9-1.5-11.9-0.1-18.3,1.5C86,102.2,86.8,116.1,87.3,126z"/>
	<path class="st23" d="M98.9,87.9c-1.1-0.5-2-1.5-2.4-2.7C96.2,84,96,82.8,96,81.5c-0.1-2.9-0.2-5.7-0.3-8.6c0-1.1-0.1-2.4,0.5-3.4
		c0.8-1.5,2.8-2.1,4.3-1.2c0.1,0.1,0.3,0.1,0.4,0.2c1.1-2.3,3.8-3.9,6.4-3.5c1.5,0.2,2.9,1,4.1,1.7l4.3,2.4c0.9,0.5,1.8,1,2.4,1.9
		c0.4,0.8,0.6,1.8,0.4,2.7c-0.1,0.9-0.4,1.8-0.8,2.7c-0.3,1-0.8,2-1.4,2.9c-0.6,0.9-1.5,1.6-2.5,2c-3.4,1-6,3.7-9.1,5.5
		c-0.8,0.5-1.7,0.9-2.6,1.2C100.9,88.4,99.9,88.3,98.9,87.9z"/>
	<path class="st20" d="M106.5,88.6l-0.3,3.4c0,0.2,0,0.5,0.2,0.7c0.4,0.7,0.2,1.6-0.3,2.2c-0.4,0.3-1,0.5-1.5,0.5
		c-2.1,0.1-4.1-0.7-5.6-2.2c-0.3-0.3-0.4-0.7-0.4-1.2l0.2-8.7L106.5,88.6z"/>
	<path class="st9" d="M98.7,83.5l7.8,5.1l-0.3,3c-1.7-0.4-3.3-0.9-4.6-1.9C99.9,88.3,98.4,86.9,98.7,83.5z"/>
	<path class="st20" d="M115.3,76.2c-0.1,4-1.1,7.9-2.8,11.5c-0.3,0.8-0.8,1.6-1.3,2.2c-0.5,0.7-1.3,1.1-2.2,1.3
		c-1,0.2-2.1-0.2-3.2-0.5c-1.8-0.7-3.7-1.4-5.2-2.7c-1.5-1.3-2.5-3.3-2-5.2c-1.1,0.4-2.3,0.3-3.2-0.4c-0.9-0.7-1.4-1.8-1.3-3
		c0.1-1.1,0.9-2.2,2.1-2.2c0.7,0,1.3,0.3,1.8,0.9c0.4,0.5,0.7,1.1,1,1.7c0.1,0.3,0.3,0.6,0.5,0.8c0.2,0.2,0.6,0.3,0.9,0.1
		c0.3-0.2,0.4-0.6,0.4-0.9l0.3-2.5c0-0.4,0.3-0.7,0.7-0.8c0.5-0.2,1-0.5,1.3-1.1c0.2-0.4,0.4-0.9,0.5-1.4c0.1-0.3,0.4-0.5,0.7-0.4
		c0,0,0.1,0,0.2,0.1C107.7,75.7,111.8,76.5,115.3,76.2z"/>
	<polygon class="st26" points="108.9,81.2 110.5,85.3 107.8,85.3 	"/>
	<path class="st26" d="M105,86.1l1.8,1.3c-0.4,0.4-1.1,0.5-1.6,0.1C104.8,87.2,104.7,86.6,105,86.1z"/>
	<path class="st9" d="M105,86.1l1.8,1.3c-0.4,0.4-1.1,0.5-1.6,0.1C104.8,87.2,104.7,86.6,105,86.1z"/>
	<path class="st26" d="M105.9,87.8c-0.2,0-0.5,0-0.7-0.2c-0.3-0.3-0.5-0.7-0.3-1.1c0.3,0,0.5,0.2,0.7,0.4
		C105.9,87.1,106,87.4,105.9,87.8z"/>
	<path class="st23" d="M105.1,80.7c-0.1,0.4,0.1,0.8,0.5,0.9c0.4,0.1,0.8-0.1,0.9-0.5c0.1-0.4-0.1-0.8-0.5-0.9
		C105.7,80.1,105.2,80.2,105.1,80.7C105.1,80.6,105.1,80.6,105.1,80.7z"/>
	<path class="st23" d="M111.3,82.2c-0.1,0.4,0.1,0.8,0.5,0.9c0.4,0.1,0.8-0.1,0.9-0.5c0.1-0.4-0.1-0.8-0.5-0.9l0,0
		C111.9,81.5,111.4,81.8,111.3,82.2z"/>
	<path class="st23" d="M112.1,80.2l1.7,1.1c0.1-0.4,0-0.9-0.4-1.2C113.1,79.9,112.5,79.9,112.1,80.2z"/>
	<path class="st23" d="M106.9,78.7l-2,0.2c0-0.4,0.4-0.8,0.8-0.9C106.2,78,106.6,78.2,106.9,78.7z"/>
	<path class="st23" d="M115.6,75.5c-0.1,1.2-1,2.2-2.1,2.5l0.6-1.2c-1,0.8-2.3,1.2-3.6,1.3c0.5-0.3,1-0.9,1.3-1.5
		c-1.4,1-3,1.6-4.7,1.8c1-0.4,1.9-1,2.7-1.9c-1.2,0.9-2.8,1.3-4.3,1.1l1.2-1.4c-1.2,0.6-2.5,0.8-3.8,0.7l1.4-1.4L102,76
		c0.4-1,0.7-2.2,0.9-3.3c2.1-0.1,4.3,0,6.3,0.5C111.4,73.8,113.6,74.8,115.6,75.5z"/>
	<path class="st27" d="M108.7,125.7L108.7,125.7L108.7,125.7L108.7,125.7L108.7,125.7C108.7,125.6,108.7,125.6,108.7,125.7
		L108.7,125.7L108.7,125.7L108.7,125.7v-0.1l0,0l5.3-9.8l0.7,0.8l-5.3,9.8c0,0,0,0.1,0,0.2l0,0c0,0,0,0.1,0,0.1l0,0l-0.7-0.8
		L108.7,125.7C108.6,125.8,108.6,125.8,108.7,125.7L108.7,125.7z"/>
	<path class="st28" d="M114.1,115.6L114.1,115.6L114.1,115.6L114.1,115.6v-0.1c0,0,0,0,0,0l0,0l0,0v0l0,0l0,0l0,0l0,0l0,0l0,0l0,0
		l0,0l0,0l0,0l0,0l0,0l0,0l0,0l0,0l0,0l0,0l0,0l0,0l0,0l0,0l0,0l0,0l0,0l0,0l0,0l0,0l0,0l0,0l0,0l0,0l0,0l0,0l0,0l0,0l0,0l0,0l0,0
		l0,0l0,0l0,0l0,0l0,0l0,0l0,0l0,0l0,0l0,0l0,0l0,0l0,0l0,0l0,0l0,0h0l0,0h0h0h0h0l0,0l6.1-3.4l0,0h0h0h0h0h0h0h0h0h0h0.1
		c0,0,0,0,0.1,0l0.7,0.8c0,0-0.1,0-0.2,0l0,0c-0.1,0-0.2,0.1-0.3,0.1l-6.1,3.4c-0.1,0-0.2,0.1-0.3,0.2l0,0c-0.1,0.1-0.2,0.2-0.3,0.3
		l0,0c-0.1,0.1-0.2,0.2-0.3,0.3l0,0c-0.1,0.1-0.1,0.2-0.2,0.3l-0.7-0.8L114.1,115.6z"/>
	<path class="st20" d="M87.8,95.5c0.8-1.5,2.2-2.5,3.9-2.7l1,1.6c1.1,2,1.6,4.1,1.6,6.4l-0.2,16.4l0,0l1.2,0.5
		c3.4,1.5,6.9,2.5,10.6,3.2c1.9-1.5,4.2-2.3,6.6-2.3l-0.9,1.7c1.7,1.1,5.5-0.9,5.5-0.9c0.3,2.4-1.3,4.9-3.3,6.2
		c-2.1,1.3-21.7-0.6-25.8-3.3c-2.8-1.8-2.1-18.7-2.1-18.7C85.6,100.7,86.3,97.9,87.8,95.5z"/>
	<path class="st20" d="M121.3,114.4c0.1,0.6,0.2,1.3,0.2,2c-0.1,1.6-0.8,3.1-1.9,4.2c-0.2,0.2-0.5,0.4-0.8,0.6s-0.7,0-0.9-0.1
		c-0.2-0.3-0.3-0.6-0.3-1c0-0.5,0-1.1,0.1-1.6c0.1-0.5,0.4-1,0.8-1.3c0.3-0.2,0.7-0.4,1.1-0.5c0.3-0.1,0.7-0.4,0.9-0.7L121.3,114.4z
		"/>
	<path class="st24" d="M91.4,92.8c-4.7,0.4-7.3,3.7-6.2,18.2c3.3,2.2,9.3,0.3,9.3,0.3C95.5,95.5,92.9,93.7,91.4,92.8z"/>
	<path class="st23" d="M108.7,125.7C108.7,125.7,108.7,125.7,108.7,125.7C108.7,125.7,108.7,125.7,108.7,125.7l0.7,0.9l0,0v0
		c0,0.1,0.2,0.1,0.5,0l6.1-3.4c0.5-0.2,0.9-0.6,1.2-1.1l5.3-9.8c0.1-0.1,0.1-0.2,0-0.3l0,0l-0.6-0.8c0,0,0,0-0.1,0h-0.1h0h0h0h0h0h0
		h0l0,0l0,0l0,0l-6.1,3.4l0,0h0h0h0h0l0,0h0l0,0l0,0l0,0l0,0l0,0l0,0l0,0l0,0l0,0l0,0l0,0l0,0l0,0l0,0l0,0l0,0l0,0l0,0l0,0l0,0l0,0
		l0,0l0,0l0,0l0,0l0,0l0,0l0,0l0,0l0,0l0,0l0,0l0,0l0,0l0,0l0,0l0,0l0,0l0,0l0,0l0,0l0,0l0,0l0,0l0,0l0,0l0,0l0,0l0,0l0,0l0,0l0,0
		l0,0l0,0v0l0,0l0,0c0,0,0,0,0,0v0v0v0v0v0l-5.3,9.8l0,0v0l0,0v0l0,0l0,0c0,0,0,0,0,0l0,0l0,0v0L108.7,125.7z M122.3,111.8
		L122.3,111.8L122.3,111.8L122.3,111.8L122.3,111.8z M115.2,115.9L115.2,115.9l0.1-0.1L115.2,115.9z M115,116.2L115,116.2L115,116.2
		L115,116.2z M109.4,126.5L109.4,126.5c0,0,0-0.1,0-0.2C109.4,126.4,109.4,126.4,109.4,126.5S109.4,126.5,109.4,126.5L109.4,126.5z"
		/>
	<path class="st1" d="M250.1,103.3L250.1,103.3z"/>
	<path class="st1" d="M211.8,116.7L211.8,116.7z"/>
	<path class="st1" d="M248.4,21.5L248.4,21.5z"/>
	<path class="st1" d="M168.6,107.4"/>
	<path class="st1" d="M86.5,45.8L86.5,45.8z"/>
	<path class="st13" d="M206.2,140c0.1,0.1,0.2,0.2,0.4,0.3c1.5,1.2,2.7,2.9,3.4,5.1c0.5,1.5,0.6,2.9,0.5,4.1c-0.2,1.6-0.9,2.6-1.9,3
		c-0.3,0.1-0.7,0.1-1.1,0.1c-0.1,0-0.1,0-0.1,0.1c0,0.2-0.1,0.5-0.1,0.8c0,0.1,0,0.1-0.1,0c-2.1-1.2-4.2-2.4-6.3-3.6
		c-0.1,0-0.1-0.1-0.1-0.2c-0.4-2.2-0.7-4.4-1.1-6.5c0-0.1,0-0.2-0.1-0.2c-0.4-0.2-0.7-0.4-1.1-0.6c0-0.3,0-0.7,0-1.1c0,0,0,0,0.1,0
		c0.5,0.3,1.1,0.6,1.7,0.9c0.1,0,0.1,0.1,0.1,0.2c0.1,0.5,0.1,0.9,0.2,1.4c0.3,0.2,0.7,0.4,1,0.6c0-0.3,0-0.5,0-0.8
		c0-1.3,0.2-2.4,0.7-3.2c0.5-0.8,1.2-1.1,2.1-1.1c0.4,0,0.9,0.1,1.3,0.4h0C205.9,139.8,206,139.9,206.2,140z M200.6,145
		c0,0,0,0.1,0,0.1c0.2,1.2,0.4,2.5,0.6,3.7c0,0.1,0,0.2,0.1,0.2c1.6,0.9,3.2,1.9,4.9,2.8c0,0,0.1,0,0.1,0.1c0.1-1.1,0.3-2.2,0.5-3.3
		C204.9,147.5,202.8,146.3,200.6,145z M203.4,143.9c0-0.6,0.1-1.2,0.2-1.9c-0.2-0.2-0.4-0.5-0.7-0.7c-0.4,0.5-0.6,1.1-0.7,2
		C202.6,143.5,203,143.7,203.4,143.9z M209.6,147.5c-0.1-0.9-0.3-1.8-0.6-2.7c0,0-0.1-0.1-0.1-0.1c-0.1,0-0.3,0-0.5,0
		c-0.1,0-0.1,0-0.1,0.1c0,0.3,0.1,0.6,0.1,0.9c0,0.3,0,0.7,0.1,1.1C208.9,147.1,209.3,147.3,209.6,147.5z M208.3,149.9
		c0.2,0.2,0.4,0.4,0.5,0.6c0.1,0.1,0.1,0.1,0.1,0c0.2-0.3,0.4-0.6,0.5-1.1c0-0.2,0.1-0.5,0.1-0.8c-0.4-0.2-0.8-0.4-1.1-0.6
		C208.5,148.6,208.4,149.2,208.3,149.9z M206.3,144.1c0,0.5,0,1,0,1.5c0.4,0.2,0.9,0.5,1.3,0.8c0-0.6-0.1-1.2-0.2-1.8
		C207.1,144.3,206.7,144.2,206.3,144.1z M204.4,142.7c0,0.5-0.1,1.1-0.2,1.6c0.4,0.2,0.9,0.5,1.3,0.8c0-0.5,0-1,0-1.5
		C205.2,143.3,204.8,143,204.4,142.7z M207.2,143.3c-0.2-0.7-0.4-1.4-0.8-2c0,0.5,0,1.1,0,1.6C206.6,143.1,206.9,143.2,207.2,143.3z
		 M205.5,142.5c0-0.5,0-1.1,0-1.6c-0.4,0.1-0.6,0.5-0.8,1C205,142.1,205.2,142.3,205.5,142.5z M207.6,148c0-0.2,0-0.3,0-0.5
		c-0.4-0.2-0.9-0.5-1.3-0.7c0,0.2,0,0.3,0,0.5C206.8,147.5,207.2,147.7,207.6,148z M205.5,146.8c0-0.2,0-0.3,0-0.5
		c-0.4-0.2-0.9-0.5-1.3-0.7c0,0.2,0,0.4,0,0.5C204.7,146.3,205.1,146.5,205.5,146.8z M202.3,144.9c0.4,0.2,0.7,0.4,1.1,0.6
		c0-0.2,0-0.4,0-0.5c-0.4-0.2-0.8-0.4-1.2-0.7C202.3,144.5,202.3,144.7,202.3,144.9z M207.8,142.6
		C207.8,142.7,207.8,142.7,207.8,142.6c0,0.3,0.1,0.6,0.2,0.9c0.1,0,0.2,0,0.3,0C208.2,143.2,208,142.9,207.8,142.6z M203.9,141.1
		c0.1-0.2,0.1-0.4,0.2-0.6c0,0,0,0,0,0c-0.2,0-0.4,0.1-0.6,0.2C203.6,140.9,203.7,141,203.9,141.1z M208,150.7
		c-0.1,0.2-0.1,0.3-0.2,0.5v0c0.2,0,0.3-0.1,0.6-0.2C208.2,150.9,208.1,150.8,208,150.7z"/>
	<path class="st13" d="M202.9,152.5c0.1,0.5,0,0.9-0.1,1.3c-0.4,0.7-1.4,0.2-1.9-0.8c-0.5-1.2-0.4-2.3,0.4-2.3c0.1,0,0.3,0,0.4,0.1
		c1.5,0.8,3,1.7,4.5,2.6c0.6,0.3,1.1,1.2,1.2,2.1c0.1,0.8-0.3,1.3-0.8,1.2c-0.4,0-0.9-0.4-1.2-1.1c-0.3-0.6-0.4-1.2-0.3-1.7
		c0,0,0,0,0-0.1C204.2,153.3,203.5,152.9,202.9,152.5z M201.7,152.9c0.2,0.1,0.4,0,0.4-0.3c0-0.3-0.2-0.6-0.4-0.7
		c-0.2-0.1-0.4,0-0.4,0.3C201.3,152.4,201.5,152.7,201.7,152.9z M206.1,155.4c0.2,0.1,0.4,0,0.4-0.3s-0.2-0.6-0.4-0.7
		c-0.2-0.1-0.4,0-0.4,0.3C205.7,154.9,205.9,155.3,206.1,155.4z"/>
	<path class="st13" d="M143.7,83.5c0,2.2,0,4.3,0,6.5c0,0,0,0,0,0.1c-0.1,0.6-0.5,0.8-1.1,0.5c-2.3-1.3-4.5-2.6-6.7-3.9
		c-0.3-0.2-0.6-0.5-0.8-0.9c-0.1-0.3-0.2-0.7-0.3-1c0-2.2,0-4.3,0-6.5c0,0,0,0,0-0.1c0.1-0.6,0.5-0.8,1.1-0.5
		c2.3,1.3,4.5,2.6,6.7,3.9c0.3,0.2,0.6,0.5,0.8,0.9C143.5,82.9,143.6,83.2,143.7,83.5z M138.1,83.5c-0.8,0.8-1.6,1.5-2.5,2.3
		c2.4,1.4,4.7,2.8,7.1,4.1c-0.8-1.8-1.7-3.4-2.5-5.2c-0.3,0.1-0.6,0.3-0.8,0.5c-0.2,0.1-0.3,0-0.5-0.3
		C138.7,84.5,138.4,84,138.1,83.5z M139.2,84.4c1.2-0.6,2.3-1.3,3.5-2c-2.4-1.4-4.7-2.7-7-4C136.8,80.5,138,82.5,139.2,84.4z
		 M140.7,84.6c0.8,1.7,1.6,3.3,2.4,5.1c0-2.2,0-4.2,0-6.4C142.3,83.7,141.5,84.1,140.7,84.6z M137.6,82.8c-0.8-1.4-1.6-2.7-2.4-4.1
		c0,2.2,0,4.3,0,6.4C136.1,84.3,136.8,83.5,137.6,82.8z"/>
	<path class="st13" d="M187.4,41.4c0-2.2,0-4.4,0-6.6c0.2,0.1,0.4,0.2,0.7,0.4c0-0.3,0-0.5,0-0.8c0-0.4,0-0.9,0.1-1.3
		c0.2-1,1-1.4,1.9-1c0.4,0.2,0.8,0.4,1.2,0.8c0.9,0.9,1.5,2.4,1.5,3.6c-0.3-0.2-0.6-0.3-0.9-0.5c0-0.3-0.1-0.6-0.2-0.9
		c-0.2-0.6-0.5-1.1-1-1.4c-0.2-0.1-0.4-0.2-0.6-0.3c-0.6-0.2-1,0.1-1,0.8c0,0.5,0,1,0,1.5c1.5,0.8,3,1.7,4.4,2.6c0,2.2,0,4.4,0,6.6
		C191.4,43.7,189.5,42.5,187.4,41.4z"/>
	<path class="st13" d="M244.9,43.4c0,2.5,0,5,0,7.5c0,0.1,0,0.2-0.1,0.4c-0.2,0.5-0.6,0.6-1.2,0.3c-2-1.2-4-2.4-6.1-3.5
		c-0.6-0.3-1.3-0.7-1.9-1.1c-0.7-0.4-1.3-1.4-1.3-2.4c0-2.3,0-4.6,0-6.9c0-0.1,0-0.3,0-0.4c0.1-0.7,0.6-0.9,1.2-0.5
		c2.1,1.2,4.2,2.5,6.4,3.6c0.6,0.3,1.2,0.6,1.7,1c0.4,0.2,0.7,0.7,1,1.3C244.8,42.8,244.8,43.1,244.9,43.4z M239.6,40
		c-1.3-0.8-2.7-1.5-4-2.3c-0.3-0.2-0.4,0-0.4,0.3c0,1.9,0,3.9,0,5.8c0,0.4,0.1,0.7,0.4,0.9c2.7,1.5,5.3,3.1,8,4.6
		c0.3,0.2,0.4,0,0.4-0.3c0-1.9,0-3.9,0-5.8c0-0.4-0.1-0.7-0.4-0.9C242.3,41.6,241,40.8,239.6,40z"/>
	<path class="st13" d="M244.6,55.9c-3.3-1.9-6.6-3.8-9.9-5.8c-0.2-0.2-0.3-0.5-0.3-0.9c0-0.6,0-1.3,0-2c0-0.1,0-0.3,0.1-0.3
		c0.1-0.1,0.2,0,0.3,0c3.2,1.8,6.4,3.7,9.6,5.5c0.2,0.1,0.4,0.3,0.5,0.7c0,0.8,0,1.6,0,2.4C244.8,55.8,244.7,55.9,244.6,55.9z
		 M240.4,51.3c-1.8-1-3.5-2-5.3-3.1c0,0.2,0,0.3,0,0.5c1.8,1,3.5,2,5.3,3.1C240.4,51.6,240.4,51.5,240.4,51.3z M244.2,54
		c0-0.3-0.2-0.8-0.5-0.9c-0.2-0.1-0.5,0-0.5,0.3c0,0.3,0.2,0.8,0.5,0.9S244.2,54.4,244.2,54z"/>
	<path class="st13" d="M158.7,130.9c0,0,0-0.1,0-0.1c0-3.6,0-7.1,0-10.7c0,0,0-0.1,0-0.1c0,0,0.1,0,0.1,0c1.7,0.9,3.3,1.9,5,2.9
		c0,0,0.1,0.1,0.1,0.2c0.3,0.6,0.7,1.3,1,2c0,0.1,0.1,0.2,0.1,0.3c0,3.1,0,6.1,0,9.2c0,0,0,0.1,0,0.2
		C163,133.3,160.9,132.1,158.7,130.9z M164.6,133.5c0-2.8,0-5.6,0-8.4c-0.3-0.2-0.6-0.3-0.9-0.5c0-0.4,0-0.8,0-1.1
		c-1.5-0.8-2.9-1.7-4.3-2.5c0,3.2,0,6.4,0,9.6C161.1,131.4,162.8,132.4,164.6,133.5z"/>
	<path class="st13" d="M159.8,120c0-0.4,0-0.8,0-1.3c0,0,0.1,0,0.1,0c1.7,0.9,3.3,1.9,5,2.9c0,0,0.1,0.1,0.2,0.2
		c0.3,0.6,0.7,1.3,1,2c0,0.1,0,0.1,0,0.2c0,3.1,0,6.2,0,9.3c0,0,0,0.1,0,0.1c-0.2-0.1-0.5-0.3-0.8-0.4c0-0.2,0-0.4,0-0.7
		c0,0,0.1,0.1,0.2,0.1c0-2.8,0-5.6,0-8.4c-0.3-0.2-0.6-0.3-0.9-0.5c0-0.4,0-0.8,0-1.2c-1.5-0.8-2.9-1.7-4.4-2.5c0,0.2,0,0.3,0,0.5
		C160.2,120.2,160,120.1,159.8,120z"/>
	<path class="st13" d="M166.8,123.1c-0.3-0.2-0.6-0.3-0.9-0.5c0-0.4,0-0.8,0-1.2c-1.5-0.8-2.9-1.7-4.4-2.5c0,0.2,0,0.3,0,0.5
		c-0.2-0.1-0.3-0.2-0.5-0.3c0-0.4,0-0.8,0-1.3c0,0,0.1,0,0.1,0c1.7,0.9,3.3,1.9,5,2.9c0,0,0.1,0.1,0.2,0.2c0.3,0.6,0.7,1.3,1,2
		c0,0,0,0.2,0,0.2c0,3.1,0,6.2,0,9.3c0,0,0,0.1,0,0.1c-0.2-0.1-0.5-0.3-0.8-0.4c0-0.2,0-0.4,0-0.7c0.1,0,0.1,0.1,0.2,0.1
		C166.8,128.7,166.8,125.9,166.8,123.1z"/>
	<path class="st13" d="M161.9,128c-0.5-0.3-1.1-0.6-1.7-1c-0.2-0.1-0.3-0.3-0.2-0.5c0-0.1,0.1-0.1,0.1-0.1c0,0,0.1,0,0.1,0
		c1.1,0.6,2.2,1.2,3.2,1.9c0,0,0.1,0,0.1,0.1c0.1,0.1,0.1,0.2,0.1,0.4s-0.1,0.2-0.2,0.1c0,0-0.1,0-0.1,0
		C163,128.6,162.5,128.2,161.9,128z"/>
	<path class="st13" d="M161.9,129.3c-0.5-0.3-1.1-0.6-1.7-1c-0.2-0.1-0.3-0.3-0.2-0.5c0-0.1,0.1-0.1,0.2-0.1c0,0,0.1,0,0.1,0
		c1.1,0.6,2.2,1.2,3.2,1.9c0,0,0,0,0.1,0c0.1,0.1,0.2,0.2,0.2,0.4c0,0.1-0.1,0.2-0.2,0.1c-0.2-0.1-0.4-0.2-0.7-0.4
		C162.6,129.7,162.3,129.5,161.9,129.3z"/>
	<path class="st13" d="M161.9,126.1c0.5,0.3,1.1,0.6,1.7,1c0.1,0.1,0.3,0.3,0.2,0.5c0,0.1-0.1,0.1-0.2,0.1c-0.1-0.1-0.3-0.1-0.4-0.2
		c-1-0.6-2-1.1-3-1.7c-0.2-0.1-0.3-0.3-0.2-0.5c0-0.1,0.1-0.1,0.2-0.1c0.4,0.2,0.8,0.4,1.2,0.7C161.6,125.9,161.8,126,161.9,126.1z"
		/>
	<path class="st13" d="M161.9,125.2c-0.5-0.3-1.1-0.6-1.7-1c-0.2-0.1-0.3-0.3-0.2-0.5c0-0.1,0.1-0.1,0.2-0.1c0,0,0.1,0,0.1,0
		c1.1,0.6,2.2,1.2,3.2,1.9l0,0c0.1,0.1,0.2,0.2,0.2,0.4s-0.1,0.2-0.2,0.1C163.1,125.9,162.5,125.6,161.9,125.2z"/>
	<path class="st13" d="M161.8,130.6c-0.5-0.3-1.1-0.6-1.7-1c-0.2-0.1-0.3-0.4-0.2-0.5c0-0.1,0.1-0.1,0.2,0c0.4,0.2,0.7,0.4,1.1,0.6
		c0.7,0.4,1.5,0.9,2.3,1.3c0.2,0.1,0.3,0.3,0.2,0.5c0,0.1-0.1,0.1-0.2,0C163,131.3,162.4,131,161.8,130.6z"/>
	<path class="st13" d="M238.2,86.7c0.6-0.4,1.1-0.9,1.7-1.4c-0.1-0.3-0.3-0.6-0.5-1c0,0,0,0,0-0.1c-0.1-0.1-0.1-0.2,0-0.4
		c0-0.1,0.1-0.1,0.2,0c0.2,0.1,0.3,0.2,0.5,0.3c0.4,0.2,0.9,0.5,1.4,0.8c0.2,0.1,0.3,0.2,0.3,0.5c0,0.9,0,1.8,0,2.7
		c0,0.1,0,0.2-0.1,0.2c-0.1,0-0.2-0.1-0.2-0.2c-0.2-0.3-0.3-0.7-0.5-1c0,0,0,0,0-0.1c-0.2,0.1-0.3,0.2-0.5,0.4
		c-0.6,0.5-1.3,0.9-1.9,1.4c-0.1,0.1-0.2,0-0.3-0.2c-0.6-1.3-1.2-2.7-1.8-4c0,0,0-0.1-0.1-0.2c-0.1,0.1-0.3,0.1-0.4,0.2
		c-0.7,0.3-1.4,0.7-2.2,1.1c-0.1,0-0.2,0-0.4-0.2c-0.1-0.3-0.2-0.6-0.4-0.9c-0.1-0.2-0.1-0.4,0-0.4c1.1-0.5,2.2-1.1,3.3-1.6
		c0.1,0,0.2,0,0.3,0.2c0.6,1.3,1.1,2.6,1.7,3.9C238.2,86.6,238.2,86.6,238.2,86.7z"/>
	<path class="st13" d="M239.9,92.3c0-1.2,0-2.5,0-3.7c0-0.3,0-0.3,0.3-0.2c0.2,0.1,0.5,0.3,0.7,0.4c0.1,0.1,0.2,0.2,0.2,0.4
		c0,0,0,0.1,0,0.1c0,2.4,0,4.8,0,7.2c0,0,0,0.1,0,0.2c0,0.1-0.1,0.2-0.2,0.1c-0.3-0.1-0.6-0.3-0.8-0.5c-0.1-0.1-0.2-0.2-0.2-0.4
		c0-0.3,0-0.5,0-0.8C239.9,94.2,239.9,93.2,239.9,92.3L239.9,92.3z"/>
	<path class="st13" d="M235.2,89.6c0-1.2,0-2.5,0-3.7c0-0.2,0-0.3,0.2-0.2c0.2,0.1,0.5,0.3,0.7,0.4c0.1,0.1,0.2,0.2,0.2,0.5
		c0,2.5,0,5,0,7.5c0,0.2-0.1,0.3-0.2,0.2c-0.2-0.1-0.5-0.3-0.7-0.4c-0.2-0.1-0.2-0.2-0.2-0.5C235.2,92.1,235.2,90.8,235.2,89.6z"/>
	<path class="st13" d="M234.2,90.1c0,0.8,0,1.7,0,2.6c0,0.2,0,0.3-0.2,0.2c-0.2-0.1-0.5-0.3-0.7-0.4c-0.2-0.1-0.2-0.2-0.2-0.5
		c0-1.7,0-3.4,0-5.2c0-0.2,0.1-0.3,0.2-0.2c0.2,0.1,0.5,0.3,0.7,0.4c0.2,0.1,0.2,0.2,0.2,0.5C234.2,88.4,234.2,89.3,234.2,90.1z"/>
	<path class="st13" d="M237.6,92.1c0-0.8,0-1.7,0-2.5c0-0.2,0-0.3,0.2-0.2c0.2,0.1,0.5,0.3,0.7,0.4c0.1,0.1,0.2,0.2,0.2,0.5
		c0,1.7,0,3.4,0,5.1c0,0.2-0.1,0.3-0.2,0.2c-0.2-0.1-0.4-0.2-0.7-0.4c-0.2-0.1-0.3-0.2-0.3-0.6C237.6,93.7,237.6,92.9,237.6,92.1z"
		/>
	<path class="st13" d="M240.6,125.6c-0.1,0.2-0.2,0.4-0.4,0.7c0,0,0,0,0,0c0.1-0.2,0.3-0.4,0.5-0.6c0.1-0.2,0.4,0,0.5,0.4
		c0.1,0.4,0.2,0.8,0.4,1.2c0-0.4-0.1-0.8-0.2-1.3c0.1,0.1,0.2,0.2,0.3,0.3c0.5,0.7,0.9,1.4,1.3,2.2c0.8,1.7,1.5,3.3,1.9,5.1
		c0.1,0.7,0.2,1.4,0.1,2.1c-0.1,0.9-0.5,1.5-1.5,1.1c-1.2-0.4-2.4-1.1-3.5-1.8c-0.6-0.4-1.1-0.8-1.7-1.2c-0.8-0.6-1.3-1.7-1.4-2.9
		c-0.1-1,0-1.7,0.3-2.4c0.6-1.5,1.6-2.5,2.8-3C240.2,125.6,240.4,125.6,240.6,125.6C240.6,125.5,240.6,125.6,240.6,125.6z
		 M240.9,132.8C240.9,132.7,240.8,132.7,240.9,132.8c-0.4-0.4-0.5-0.8-0.5-1.2c0-0.2-0.1-0.4-0.3-0.5s-0.3-0.1-0.3,0
		c0,0.1,0,0.3,0,0.4c0.1,0.5,0.3,0.9,0.6,1.3c0.2,0.2,0.4,0.4,0.6,0.6c0,0.2,0,0.3,0,0.5c0,0.1,0.1,0.2,0.1,0.3
		c0.1,0.1,0.1,0,0.1-0.1c0-0.2,0-0.4,0-0.6c0.1,0,0.2,0.1,0.4,0.1c0.5,0.1,0.8-0.3,0.8-0.9c0-0.7-0.2-1.3-0.8-1.8
		c-0.1-0.1-0.2-0.2-0.3-0.3c0,0-0.1-0.1-0.1-0.1c0-0.4,0-0.9,0-1.3c0.2,0.2,0.3,0.5,0.4,0.8c0,0.3,0.2,0.5,0.4,0.6
		c0.2,0,0.2-0.2,0.2-0.5c-0.1-0.6-0.4-1-0.8-1.4c-0.1,0-0.1-0.1-0.2-0.2c0-0.1,0-0.3,0-0.4c0-0.1-0.1-0.2-0.1-0.3c0,0-0.1,0-0.1,0.1
		c0,0.1,0,0.2,0,0.4c-0.1,0-0.2-0.1-0.3-0.1c-0.4-0.1-0.7,0.2-0.7,0.7c0,0.6,0.1,1.2,0.6,1.7c0.1,0.1,0.3,0.3,0.4,0.4
		c0,0,0.1,0.1,0.1,0.2C240.9,131.8,240.9,132.2,240.9,132.8z"/>
	<path class="st13" d="M239.7,121.7c0.1,0.5,0.3,1,0.4,1.4c0,0,0,0,0,0c-0.1-0.4-0.2-0.9-0.2-1.3c0-0.1,0-0.2,0-0.2
		c-0.1-0.4,0-0.5,0.2-0.4c0.5,0,1.1,0.3,1.6,0.7c0.3,0.2,0.6,0.5,0.9,0.9c-0.1,0.4-0.3,0.8-0.4,1.1c0,0,0,0,0,0
		c0.1-0.1,0.3-0.3,0.4-0.5c0.2,0.2,0.3,0.5,0.4,0.8c0.1,0.3,0,0.5-0.1,0.6c-0.3,0.3-0.7,0.6-1,1c0,0-0.1,0-0.2,0
		c-0.1,0-0.1-0.1-0.2-0.2c0.1-0.2,0.1-0.4,0.2-0.7c0,0,0,0,0,0c-0.1,0.1-0.2,0.3-0.3,0.4c0,0.1-0.1,0.1-0.2,0
		c-0.3-0.2-0.6-0.4-0.9-0.3c-0.4-0.8-0.8-1.7-1.2-2.5c-0.1-0.2,0-0.4,0-0.5C239.2,121.8,239.5,121.7,239.7,121.7z"/>
	<path class="st13" d="M241.3,133c0-0.5,0-1,0-1.4c0.3,0.2,0.5,0.6,0.5,1C241.8,132.9,241.6,133.1,241.3,133z"/>
	<path class="st13" d="M240.9,130.3c-0.3-0.3-0.5-0.6-0.4-1c0-0.3,0.2-0.4,0.4-0.3C240.9,129.4,240.9,129.8,240.9,130.3z"/>
	<g>
		<path class="st13" d="M147.5,36.4c-0.1,0-0.3-0.1-0.4-0.2c-3.3-1.5-6.5-3.1-9.8-4.6c-1.4-0.6-2.4-2.4-2.4-3.9c0-1.6,1-2.4,2.4-1.8
			c2.9,1.3,5.7,2.7,8.6,4c0.5,0.2,1.1,0.5,1.7,0.8c1.4,0.8,2.4,3.2,1.8,4.5c-0.1-0.1-0.2-0.2-0.4-0.4c0-0.2,0-0.4,0-0.7
			c0-1.2-0.8-2.6-1.8-3.1c-3.3-1.6-6.7-3.1-10-4.7c-1-0.5-1.8,0.1-1.8,1.4c0,1.2,0.8,2.7,1.9,3.2c2,0.9,3.9,1.9,5.9,2.8
			c1.3,0.6,2.6,1.2,3.9,1.8C147.4,35.8,147.5,36,147.5,36.4z"/>
		<path class="st13" d="M150.6,37.2c-0.3,0.1-0.6,0.1-1,0.2c0.5,0.7,0.9,1.5,1.4,2.2c-0.2,0.1-0.3,0.2-0.5,0.3
			c-0.4-0.7-0.8-1.5-1.3-2.3c-0.2,0.3-0.4,0.6-0.6,1c-0.4-1.5-0.8-2.9-1.2-4.4C148.5,35.3,149.5,36.2,150.6,37.2z"/>
		<path class="st13" d="M139,29.7c-0.1,0.4-0.2,0.8-0.3,1.2c-0.1,0-0.1-0.1-0.2-0.1c-0.3,0-0.4-0.2-0.4-0.6
			c-0.1-0.8-0.3-1.7-0.5-2.5c0.1,0,0.2,0,0.2,0.1c0.2,0.1,0.4,0.2,0.4,0.6c0,0.4,0.1,0.8,0.3,1.2c0.1-0.3,0.1-0.7,0.2-1.1
			c0-0.2,0.1-0.2,0.3-0.1c0.1,0.1,0.3,0.1,0.3,0.4c0,0.4,0.1,0.9,0.3,1.4c0-0.3,0.1-0.6,0.2-0.9c0.1-0.5,0.1-0.5,0.6-0.1
			c-0.2,0.7-0.3,1.5-0.5,2.2c0,0.2-0.2,0.1-0.3,0s-0.2-0.1-0.3-0.3C139.3,30.7,139.2,30.3,139,29.7C139.1,29.8,139.1,29.8,139,29.7z
			"/>
		<path class="st13" d="M140.6,29.2c0.1,0.1,0.2,0.1,0.4,0.1c0.2,0,0.3,0.2,0.3,0.4c0,0.4,0.1,0.8,0.3,1.3c0.1-0.3,0.1-0.7,0.2-1
			c0-0.2,0.1-0.3,0.3-0.2c0.2,0.1,0.3,0.2,0.3,0.5c0,0.4,0.1,0.8,0.3,1.3c0-0.3,0.1-0.6,0.2-0.9c0.1-0.4,0.1-0.4,0.6-0.1
			c-0.2,0.8-0.4,1.6-0.6,2.4c-0.1,0-0.2-0.1-0.3-0.2c-0.1-0.1-0.2-0.2-0.2-0.3c-0.1-0.4-0.2-0.8-0.3-1.3c-0.1,0.3-0.1,0.7-0.2,1.1
			c0,0.1-0.2,0.1-0.2,0.1c-0.1,0-0.3-0.2-0.4-0.3C141,31.1,140.8,30.2,140.6,29.2z"/>
		<path class="st13" d="M145.2,32.5c-0.1,0.5-0.2,0.9-0.3,1.3c-0.2-0.1-0.3-0.1-0.6-0.2c-0.2-1-0.4-1.9-0.6-3
			c0.1,0.1,0.3,0.1,0.4,0.2c0.1,0.1,0.2,0.2,0.2,0.3c0.1,0.4,0.1,0.8,0.2,1.3c0,0,0,0,0.1,0c0-0.3,0.1-0.6,0.2-0.9
			c0-0.3,0.1-0.4,0.4-0.2c0.1,0.1,0.2,0.2,0.2,0.3c0.1,0.4,0.2,0.9,0.3,1.4c0-0.3,0.1-0.6,0.2-0.9c0.1-0.4,0.1-0.4,0.6-0.1
			c-0.2,0.7-0.3,1.5-0.5,2.3c0,0.1-0.2,0-0.3,0c-0.1,0-0.2-0.2-0.2-0.3c-0.1-0.3-0.1-0.7-0.2-1C145.3,32.8,145.3,32.7,145.2,32.5z"
			/>
	</g>
</g>
<rect x="141.4" y="-0.1" class="st1" width="51.8" height="14.7"/>
<rect x="147.3" y="307.7" class="st1" width="19.2" height="12.2"/>
<g class="st29">
	<path class="st30" d="M49.9,251.7h-5v-3.6h14.4v3.6h-5.1v15.2h-4.3V251.7z"/>
	<path class="st30" d="M61.5,248.4c1.4-0.2,3.4-0.4,5.7-0.4c2.8,0,4.7,0.4,6.1,1.5c1.1,0.9,1.7,2.2,1.7,3.9c0,2.4-1.7,4-3.3,4.6v0.1
		c1.3,0.5,2,1.8,2.5,3.5c0.6,2.1,1.2,4.6,1.5,5.3h-4.3c-0.3-0.5-0.8-2.1-1.3-4.4c-0.5-2.3-1.3-3-3-3h-1.3v7.4h-4.2V248.4z
		 M65.7,256.5h1.7c2.1,0,3.4-1.1,3.4-2.7c0-1.7-1.2-2.6-3.1-2.6c-1,0-1.6,0.1-1.9,0.1V256.5z"/>
	<path class="st30" d="M82.7,262.1l-1.3,4.8h-4.4l5.7-18.8h5.6l5.8,18.8h-4.6l-1.4-4.8H82.7z M87.4,258.9l-1.2-4
		c-0.3-1.1-0.7-2.5-0.9-3.6h-0.1c-0.3,1.1-0.6,2.5-0.9,3.6l-1.1,4H87.4z"/>
	<path class="st30" d="M96.6,266.9v-18.8h5l3.9,6.9c1.1,2,2.2,4.3,3.1,6.4h0.1c-0.3-2.5-0.4-5-0.4-7.8v-5.5h3.9v18.8h-4.5l-4-7.2
		c-1.1-2-2.3-4.4-3.3-6.6l-0.1,0c0.1,2.5,0.2,5.1,0.2,8.2v5.7H96.6z"/>
	<path class="st30" d="M115.9,262.5c1.1,0.6,2.9,1.2,4.7,1.2c1.9,0,3-0.8,3-2c0-1.2-0.9-1.8-3.1-2.6c-3.1-1.1-5.2-2.8-5.2-5.5
		c0-3.2,2.7-5.7,7.1-5.7c2.1,0,3.7,0.4,4.8,0.9l-0.9,3.4c-0.8-0.4-2.1-0.9-3.9-0.9s-2.7,0.8-2.7,1.8c0,1.2,1.1,1.7,3.5,2.6
		c3.3,1.2,4.9,3,4.9,5.6c0,3.1-2.4,5.8-7.6,5.8c-2.1,0-4.3-0.6-5.3-1.1L115.9,262.5z"/>
	<path class="st30" d="M130.8,248.1h11.5v3.5h-7.2v4.3h6.7v3.5h-6.7v7.5h-4.3V248.1z"/>
	<path class="st30" d="M162.6,257.3c0,6.2-3.7,9.9-9.2,9.9c-5.6,0-8.8-4.2-8.8-9.6c0-5.6,3.6-9.8,9.1-9.8
		C159.5,247.8,162.6,252.1,162.6,257.3z M149.1,257.6c0,3.7,1.7,6.3,4.6,6.3c2.9,0,4.5-2.7,4.5-6.4c0-3.4-1.6-6.3-4.5-6.3
		C150.8,251.2,149.1,253.9,149.1,257.6z"/>
	<path class="st30" d="M165.4,248.4c1.4-0.2,3.4-0.4,5.7-0.4c2.8,0,4.7,0.4,6.1,1.5c1.1,0.9,1.7,2.2,1.7,3.9c0,2.4-1.7,4-3.3,4.6
		v0.1c1.3,0.5,2,1.8,2.5,3.5c0.6,2.1,1.2,4.6,1.5,5.3h-4.3c-0.3-0.5-0.8-2.1-1.3-4.4c-0.5-2.3-1.3-3-3-3h-1.3v7.4h-4.2V248.4z
		 M169.6,256.5h1.7c2.1,0,3.4-1.1,3.4-2.7c0-1.7-1.2-2.6-3.1-2.6c-1,0-1.6,0.1-1.9,0.1V256.5z"/>
	<path class="st30" d="M197.8,259.7c-0.1-2.3-0.2-5-0.2-7.7h-0.1c-0.6,2.4-1.4,5.1-2.1,7.3l-2.3,7.3h-3.3l-2-7.3
		c-0.6-2.2-1.3-4.9-1.7-7.3h-0.1c-0.1,2.5-0.2,5.4-0.3,7.8l-0.3,7.1h-3.9l1.2-18.8h5.7l1.8,6.3c0.6,2.2,1.2,4.5,1.6,6.7h0.1
		c0.5-2.2,1.2-4.7,1.8-6.7l2-6.2h5.5l1,18.8h-4.1L197.8,259.7z"/>
	<path class="st30" d="M209.8,262.1l-1.3,4.8H204l5.7-18.8h5.6l5.8,18.8h-4.6l-1.4-4.8H209.8z M214.5,258.9l-1.2-4
		c-0.3-1.1-0.7-2.5-0.9-3.6h-0.1c-0.3,1.1-0.6,2.5-0.9,3.6l-1.1,4H214.5z"/>
	<path class="st30" d="M236.8,266.4c-0.7,0.4-2.3,0.8-4.4,0.8l-0.5,0.9c1.1,0.2,2,1,2,2.3c0,1.9-1.7,2.6-3.3,2.6
		c-0.8,0-1.8-0.2-2.4-0.5l0.6-1.7c0.4,0.2,1.1,0.4,1.6,0.4c0.6,0,1-0.2,1-0.7c0-0.6-0.6-0.9-2.2-1l1.1-2.3c-5.3-0.7-8-4.4-8-9.3
		c0-6.4,4.6-10,10.2-10c2.2,0,3.9,0.4,4.6,0.8l-0.9,3.4c-0.9-0.4-2.1-0.7-3.6-0.7c-3.4,0-6,2-6,6.2c0,3.8,2.2,6.1,6,6.1
		c1.3,0,2.7-0.3,3.5-0.6L236.8,266.4z"/>
	<path class="st30" d="M244.2,262.1l-1.3,4.8h-4.4l5.7-18.8h5.6l5.8,18.8h-4.6l-1.4-4.8H244.2z M243.4,247c-0.1-2.3,0.8-3.5,2.1-3.5
		c0.8,0,1.3,0.2,1.8,0.6c0.4,0.3,0.9,0.5,1.2,0.5c0.5,0,0.6-0.3,0.8-1.2h1.9c0.1,2.5-0.7,3.5-2.2,3.5c-0.7,0-1.3-0.2-1.8-0.5
		c-0.5-0.2-0.8-0.5-1.2-0.5s-0.6,0.4-0.7,1.2H243.4z M249,258.9l-1.2-4c-0.3-1.1-0.7-2.5-0.9-3.6h-0.1c-0.3,1.1-0.6,2.5-0.9,3.6
		l-1.1,4H249z"/>
	<path class="st30" d="M274.6,257.3c0,6.2-3.7,9.9-9.2,9.9c-5.6,0-8.8-4.2-8.8-9.6c0-5.6,3.6-9.8,9.1-9.8
		C271.5,247.8,274.6,252.1,274.6,257.3z M261.1,257.6c0,3.7,1.7,6.3,4.6,6.3c2.9,0,4.5-2.7,4.5-6.4c0-3.4-1.6-6.3-4.5-6.3
		C262.7,251.2,261.1,253.9,261.1,257.6z"/>
	<path class="st30" d="M114.7,281.8c1.6-0.3,3.6-0.4,5.7-0.4c3.6,0,5.9,0.6,7.7,2c1.9,1.4,3.2,3.8,3.2,7.1c0,3.6-1.3,6.1-3.1,7.6
		c-2,1.6-5,2.4-8.7,2.4c-2.2,0-3.8-0.1-4.8-0.3V281.8z M118.9,297.1c0.4,0.1,0.9,0.1,1.5,0.1c3.8,0,6.3-2.1,6.3-6.6
		c0-3.9-2.3-6-5.9-6c-0.9,0-1.6,0.1-1.9,0.2V297.1z"/>
	<path class="st30" d="M138.3,281.5v18.8H134v-18.8H138.3z"/>
	<path class="st30" d="M157.7,299.4c-1.3,0.4-3.8,1.1-6.3,1.1c-3.4,0-5.9-0.9-7.6-2.5c-1.7-1.6-2.7-4.1-2.6-6.8
		c0-6.2,4.6-9.8,10.7-9.8c2.4,0,4.3,0.5,5.2,0.9l-0.9,3.4c-1-0.4-2.3-0.8-4.4-0.8c-3.5,0-6.2,2-6.2,6.1c0,3.9,2.4,6.2,5.9,6.2
		c1,0,1.8-0.1,2.1-0.3v-3.9h-2.9v-3.3h7V299.4z"/>
	<path class="st30" d="M165.2,281.5v18.8H161v-18.8H165.2z"/>
	<path class="st30" d="M172.5,285.1h-5v-3.6h14.4v3.6h-5.1v15.2h-4.3V285.1z"/>
	<path class="st30" d="M186.5,295.5l-1.3,4.8h-4.4l5.7-18.8h5.6l5.8,18.8h-4.6l-1.4-4.8H186.5z M191.3,292.3l-1.2-4
		c-0.3-1.1-0.7-2.5-0.9-3.6h-0.1c-0.3,1.1-0.6,2.5-0.9,3.6l-1.1,4H191.3z"/>
	<path class="st30" d="M200.4,281.5h4.3v15.2h7.5v3.6h-11.7V281.5z"/>
</g>
<g>
	<path class="st31" d="M49.9,248.7h-5v-3.6h14.4v3.6h-5.1v15.2h-4.3V248.7z"/>
	<path class="st31" d="M61.5,245.4c1.4-0.2,3.4-0.4,5.7-0.4c2.8,0,4.7,0.4,6.1,1.5c1.1,0.9,1.7,2.2,1.7,3.9c0,2.4-1.7,4-3.3,4.6v0.1
		c1.3,0.5,2,1.8,2.5,3.5c0.6,2.1,1.2,4.6,1.5,5.3h-4.3c-0.3-0.5-0.8-2.1-1.3-4.4c-0.5-2.3-1.3-3-3-3h-1.3v7.4h-4.2V245.4z
		 M65.7,253.4h1.7c2.1,0,3.4-1.1,3.4-2.7c0-1.7-1.2-2.6-3.1-2.6c-1,0-1.6,0.1-1.9,0.1V253.4z"/>
	<path class="st31" d="M82.7,259.1l-1.3,4.8h-4.4l5.7-18.8h5.6l5.8,18.8h-4.6l-1.4-4.8H82.7z M87.4,255.9l-1.2-4
		c-0.3-1.1-0.7-2.5-0.9-3.6h-0.1c-0.3,1.1-0.6,2.5-0.9,3.6l-1.1,4H87.4z"/>
	<path class="st31" d="M96.6,263.9v-18.8h5l3.9,6.9c1.1,2,2.2,4.3,3.1,6.4h0.1c-0.3-2.5-0.4-5-0.4-7.8v-5.5h3.9v18.8h-4.5l-4-7.2
		c-1.1-2-2.3-4.4-3.3-6.6l-0.1,0c0.1,2.5,0.2,5.1,0.2,8.2v5.7H96.6z"/>
	<path class="st31" d="M115.9,259.5c1.1,0.6,2.9,1.2,4.7,1.2c1.9,0,3-0.8,3-2c0-1.2-0.9-1.8-3.1-2.6c-3.1-1.1-5.2-2.8-5.2-5.5
		c0-3.2,2.7-5.7,7.1-5.7c2.1,0,3.7,0.4,4.8,0.9l-0.9,3.4c-0.8-0.4-2.1-0.9-3.9-0.9s-2.7,0.8-2.7,1.8c0,1.2,1.1,1.7,3.5,2.6
		c3.3,1.2,4.9,3,4.9,5.6c0,3.1-2.4,5.8-7.6,5.8c-2.1,0-4.3-0.6-5.3-1.1L115.9,259.5z"/>
	<path class="st31" d="M130.8,245.1h11.5v3.5h-7.2v4.3h6.7v3.5h-6.7v7.5h-4.3V245.1z"/>
	<path class="st31" d="M162.6,254.3c0,6.2-3.7,9.9-9.2,9.9c-5.6,0-8.8-4.2-8.8-9.6c0-5.6,3.6-9.8,9.1-9.8
		C159.5,244.8,162.6,249.1,162.6,254.3z M149.1,254.6c0,3.7,1.7,6.3,4.6,6.3c2.9,0,4.5-2.7,4.5-6.4c0-3.4-1.6-6.3-4.5-6.3
		C150.8,248.2,149.1,250.9,149.1,254.6z"/>
	<path class="st31" d="M165.4,245.4c1.4-0.2,3.4-0.4,5.7-0.4c2.8,0,4.7,0.4,6.1,1.5c1.1,0.9,1.7,2.2,1.7,3.9c0,2.4-1.7,4-3.3,4.6
		v0.1c1.3,0.5,2,1.8,2.5,3.5c0.6,2.1,1.2,4.6,1.5,5.3h-4.3c-0.3-0.5-0.8-2.1-1.3-4.4c-0.5-2.3-1.3-3-3-3h-1.3v7.4h-4.2V245.4z
		 M169.6,253.4h1.7c2.1,0,3.4-1.1,3.4-2.7c0-1.7-1.2-2.6-3.1-2.6c-1,0-1.6,0.1-1.9,0.1V253.4z"/>
	<path class="st31" d="M197.8,256.7c-0.1-2.3-0.2-5-0.2-7.7h-0.1c-0.6,2.4-1.4,5.1-2.1,7.3l-2.3,7.3h-3.3l-2-7.3
		c-0.6-2.2-1.3-4.9-1.7-7.3h-0.1c-0.1,2.5-0.2,5.4-0.3,7.8l-0.3,7.1h-3.9l1.2-18.8h5.7l1.8,6.3c0.6,2.2,1.2,4.5,1.6,6.7h0.1
		c0.5-2.2,1.2-4.7,1.8-6.7l2-6.2h5.5l1,18.8h-4.1L197.8,256.7z"/>
	<path class="st31" d="M209.8,259.1l-1.3,4.8H204l5.7-18.8h5.6l5.8,18.8h-4.6l-1.4-4.8H209.8z M214.5,255.9l-1.2-4
		c-0.3-1.1-0.7-2.5-0.9-3.6h-0.1c-0.3,1.1-0.6,2.5-0.9,3.6l-1.1,4H214.5z"/>
	<path class="st31" d="M236.8,263.4c-0.7,0.4-2.3,0.8-4.4,0.8l-0.5,0.9c1.1,0.2,2,1,2,2.3c0,1.9-1.7,2.6-3.3,2.6
		c-0.8,0-1.8-0.2-2.4-0.5l0.6-1.7c0.4,0.2,1.1,0.4,1.6,0.4c0.6,0,1-0.2,1-0.7c0-0.6-0.6-0.9-2.2-1l1.1-2.3c-5.3-0.7-8-4.4-8-9.3
		c0-6.4,4.6-10,10.2-10c2.2,0,3.9,0.4,4.6,0.8l-0.9,3.4c-0.9-0.4-2.1-0.7-3.6-0.7c-3.4,0-6,2-6,6.2c0,3.8,2.2,6.1,6,6.1
		c1.3,0,2.7-0.3,3.5-0.6L236.8,263.4z"/>
	<path class="st31" d="M244.2,259.1l-1.3,4.8h-4.4l5.7-18.8h5.6l5.8,18.8h-4.6l-1.4-4.8H244.2z M243.4,244c-0.1-2.3,0.8-3.5,2.1-3.5
		c0.8,0,1.3,0.2,1.8,0.6c0.4,0.3,0.9,0.5,1.2,0.5c0.5,0,0.6-0.3,0.8-1.2h1.9c0.1,2.5-0.7,3.5-2.2,3.5c-0.7,0-1.3-0.2-1.8-0.5
		c-0.5-0.2-0.8-0.5-1.2-0.5s-0.6,0.4-0.7,1.2H243.4z M249,255.9l-1.2-4c-0.3-1.1-0.7-2.5-0.9-3.6h-0.1c-0.3,1.1-0.6,2.5-0.9,3.6
		l-1.1,4H249z"/>
	<path class="st31" d="M274.6,254.3c0,6.2-3.7,9.9-9.2,9.9c-5.6,0-8.8-4.2-8.8-9.6c0-5.6,3.6-9.8,9.1-9.8
		C271.5,244.8,274.6,249.1,274.6,254.3z M261.1,254.6c0,3.7,1.7,6.3,4.6,6.3c2.9,0,4.5-2.7,4.5-6.4c0-3.4-1.6-6.3-4.5-6.3
		C262.7,248.2,261.1,250.9,261.1,254.6z"/>
	<path class="st31" d="M114.7,278.8c1.6-0.3,3.6-0.4,5.7-0.4c3.6,0,5.9,0.6,7.7,2c1.9,1.4,3.2,3.8,3.2,7.1c0,3.6-1.3,6.1-3.1,7.6
		c-2,1.6-5,2.4-8.7,2.4c-2.2,0-3.8-0.1-4.8-0.3V278.8z M118.9,294.1c0.4,0.1,0.9,0.1,1.5,0.1c3.8,0,6.3-2.1,6.3-6.6
		c0-3.9-2.3-6-5.9-6c-0.9,0-1.6,0.1-1.9,0.2V294.1z"/>
	<path class="st31" d="M138.3,278.5v18.8H134v-18.8H138.3z"/>
	<path class="st31" d="M157.7,296.4c-1.3,0.4-3.8,1.1-6.3,1.1c-3.4,0-5.9-0.9-7.6-2.5c-1.7-1.6-2.7-4.1-2.6-6.8
		c0-6.2,4.6-9.8,10.7-9.8c2.4,0,4.3,0.5,5.2,0.9l-0.9,3.4c-1-0.4-2.3-0.8-4.4-0.8c-3.5,0-6.2,2-6.2,6.1c0,3.9,2.4,6.2,5.9,6.2
		c1,0,1.8-0.1,2.1-0.3v-3.9h-2.9v-3.3h7V296.4z"/>
	<path class="st31" d="M165.2,278.5v18.8H161v-18.8H165.2z"/>
	<path class="st31" d="M172.5,282.1h-5v-3.6h14.4v3.6h-5.1v15.2h-4.3V282.1z"/>
	<path class="st31" d="M186.5,292.5l-1.3,4.8h-4.4l5.7-18.8h5.6l5.8,18.8h-4.6l-1.4-4.8H186.5z M191.3,289.3l-1.2-4
		c-0.3-1.1-0.7-2.5-0.9-3.6h-0.1c-0.3,1.1-0.6,2.5-0.9,3.6l-1.1,4H191.3z"/>
	<path class="st31" d="M200.4,278.5h4.3v15.2h7.5v3.6h-11.7V278.5z"/>
</g>
<rect x="62.7" y="248.1" class="st1" width="193" height="60"/>
<rect x="119.8" y="235.7" class="st0" width="30" height="9.5"/>
<rect y="317.3" class="st0" width="320" height="3.2"/>
</svg>
