<?xml version="1.0" encoding="utf-8"?>
<!-- Generator: Adobe Illustrator 24.3.0, SVG Export Plug-In . SVG Version: 6.00 Build 0)  -->
<svg version="1.1" id="Camada_1" xmlns="http://www.w3.org/2000/svg" xmlns:xlink="http://www.w3.org/1999/xlink" x="0px" y="0px"
	 viewBox="0 0 480.8 424.2" style="enable-background:new 0 0 480.8 424.2;" xml:space="preserve">
<style type="text/css">
	.st0{fill:#FAFAFA;enable-background:new    ;}
	.st1{opacity:0.45;fill:#E0E0E0;enable-background:new    ;}
	.st2{fill:#BA68C8;}
	.st3{opacity:0.7;fill:#FFFFFF;enable-background:new    ;}
	.st4{opacity:5.000000e-02;enable-background:new    ;}
	.st5{opacity:0.9;fill:#FFFFFF;enable-background:new    ;}
	.st6{fill:#37474F;}
	.st7{fill:#263238;}
	.st8{fill:#455A64;}
	.st9{fill:#B968C7;}
	.st10{opacity:0.6;fill:#FFFFFF;enable-background:new    ;}
	.st11{fill:#E6E6E6;}
	.st12{fill:#FFFFFF;}
	.st13{fill:#E0E0E0;}
	.st14{opacity:0.3;enable-background:new    ;}
	.st15{fill:#B16668;}
	.st16{fill:#AAE4EF;}
	.st17{fill:#9A4A4D;}
	.st18{fill:#274E7C;}
	.st19{fill:#682727;}
	.st20{opacity:0.15;enable-background:new    ;}
	.st21{fill:#E4F2F4;}
	.st22{fill:#ADACAC;}
	.st23{opacity:0.4;enable-background:new    ;}
	.st24{opacity:0.35;enable-background:new    ;}
	.st25{opacity:0.8;fill:#FFFFFF;enable-background:new    ;}
	.st26{opacity:0.1;enable-background:new    ;}
	.st27{fill:#FAFAFA;}
</style>
<ellipse id="freepik--floor--inject-348" class="st0" cx="240.4" cy="313.1" rx="240.4" ry="111.1"/>
<path id="freepik--Shadow--inject-348" class="st1" d="M101.4,394.4l-84-51.7c-3-1.8-3-4.8,0-6.6l151.8-93.4c3.3-1.8,7.3-1.8,10.7,0
	l84,51.7c3,1.8,3,4.8,0,6.6l-151.8,93.4C108.6,396.2,104.7,396.2,101.4,394.4z"/>
<ellipse id="freepik--shadow--inject-348" class="st1" cx="269" cy="342.6" rx="60.2" ry="34.7"/>
<path class="st2" d="M54.5,127.5L54.5,127.5c-0.3-0.1-0.7-0.1-0.9,0.1l-1.9,1.3l-0.4,1.1c-0.2,0.7,0.1,1.5,0.7,2
	c0.4,0.3,0.7,0.6,1,0.9c0.5,0.6,1.2,0.7,1.9,0.3l4.3-3c0.3-0.2,0.7-0.3,0.9-0.1L54.5,127.5z"/>
<path class="st3" d="M54.5,127.5L54.5,127.5c-0.3-0.1-0.7-0.1-0.9,0.1l-1.9,1.3l-0.4,1.1c-0.2,0.7,0.1,1.5,0.7,2
	c0.4,0.3,0.7,0.6,1,0.9c0.5,0.6,1.2,0.7,1.9,0.3l4.3-3c0.3-0.2,0.7-0.3,0.9-0.1L54.5,127.5z"/>
<path class="st4" d="M54.5,127.5L54.5,127.5c-0.3-0.1-0.7-0.1-0.9,0.1l-1.9,1.3l-0.4,1.1c-0.2,0.7,0.1,1.5,0.7,2
	c0.4,0.3,0.7,0.6,1,0.9c0.5,0.6,1.2,0.7,1.9,0.3l4.3-3c0.3-0.2,0.7-0.3,0.9-0.1L54.5,127.5z"/>
<path class="st2" d="M60.2,130.1c-0.3-0.1-0.7-0.1-0.9,0.2l-4.3,3c-0.7,0.4-1.4,0.3-1.9-0.3c-0.3-0.4-0.7-0.7-1-0.9
	c-0.6-0.5-0.8-1.2-0.7-2l0.4-1.1l1.9-1.3c0.3-0.2,0.7-0.3,0.9-0.1l0,0L60.2,130.1z"/>
<path class="st5" d="M60.2,130.1c-0.3-0.1-0.7-0.1-0.9,0.2l-4.3,3c-0.7,0.4-1.4,0.3-1.9-0.3c-0.3-0.4-0.7-0.7-1-0.9
	c-0.6-0.5-0.8-1.2-0.7-2l0.4-1.1l1.9-1.3c0.3-0.2,0.7-0.3,0.9-0.1l0,0L60.2,130.1z"/>
<path class="st6" d="M178.4,2L51.3,75.4c-3.9,2.1-6.2,6.3-5.9,10.8l40.4,282.1c0.7,4.3,4.5,9.2,8.5,10.9c4,1.7,10.7,1.3,14.7-1
	l126.6-73.1c4-2.3,6.8-7.7,6.1-12L201.6,11.9c-0.7-4.3-4.5-9.2-8.5-10.9S182.4-0.3,178.4,2z"/>
<path class="st7" d="M107.3,379c-4,1.6-9.4,1.8-12.9,0.2c-4.1-1.8-7.9-6.6-8.5-10.9L45.5,86.2c-0.2-2,0.2-4.1,1.1-5.9L60.2,86
	c-1.9,2.2-2.8,5.1-2.5,8l40,279.3C98.4,378.5,102.6,380.8,107.3,379z"/>
<path class="st8" d="M63.2,83.4c-3.5,2-6,6.8-5.5,10.6l40,279.3c0.8,5.8,6,8,11.4,4.8L235.7,305c4-2.3,6.8-7.7,6.1-12L201.6,11.9
	c-0.7-4.3-4.4-5.9-8.4-3.5L63.2,83.4z"/>
<path class="st6" d="M72.6,99.8c-3.8,2.2-6.4,7.4-5.9,11.4l34.6,241.6c0.6,4.1,4.2,5.6,8,3.3l119.2-68.6c3.8-2.2,6.4-7.4,5.9-11.4
	L199.7,34.4c-0.6-4.1-4.2-5.6-8-3.4L72.6,99.8z"/>
<path d="M120.7,59.8l21.1-12.2c1.3-0.7,2.4-0.3,2.6,0.9c0.1,1.5-0.7,2.9-2,3.6l-21.1,12.2c-1.3,0.7-2.4,0.3-2.6-0.9
	C118.6,61.9,119.3,60.5,120.7,59.8z"/>
<path d="M156.8,38.9c1.2-0.7,2.3-0.2,2.4,1c0.1,1.4-0.7,2.8-1.9,3.5s-2.3,0.2-2.4-1C154.9,40.9,155.6,39.6,156.8,38.9z"/>
<path d="M165.4,33.9c1.2-0.7,2.3-0.2,2.5,1c0.1,1.4-0.7,2.8-1.9,3.5s-2.3,0.2-2.4-1C163.5,36,164.2,34.7,165.4,33.9z"/>
<path d="M96.9,73.5c1.2-0.7,2.3-0.2,2.4,1c0.1,1.4-0.6,2.8-1.8,3.5c-1.2,0.7-2.2,0.2-2.4-1C95.1,75.5,95.7,74.2,96.9,73.5z"/>
<path d="M105.5,68.5c1.2-0.7,2.2-0.2,2.4,1c0.1,1.4-0.6,2.8-1.8,3.5c-1.2,0.7-2.3,0.2-2.4-1C103.6,70.6,104.3,69.2,105.5,68.5z"/>
<path class="st9" d="M224.1,271L189.9,32.1L72.6,99.8c-3.8,2.2-6.4,7.4-5.9,11.4l34.2,238.9l117.2-67.7
	C222.1,280.2,224.8,275.1,224.1,271z"/>
<path class="st2" d="M82.3,137.4l71.3-41.1c1.1-0.7,2-0.2,2,1c-0.1,1.3-0.8,2.5-2,3.3l-71.3,41.1c-1.1,0.7-2,0.2-2-1
	C80.5,139.3,81.2,138.1,82.3,137.4z"/>
<path class="st2" d="M114,170.1l76.5-44.2c1.1-0.7,2-0.2,2,1c-0.1,1.3-0.8,2.5-2,3.3L114,174.3c-1.1,0.7-2,0.2-2-1
	C112.2,172,112.9,170.8,114,170.1z"/>
<path class="st2" d="M114,184.7l76.5-44.2c1.1-0.7,2-0.2,2,0.9c-0.1,1.3-0.8,2.5-2,3.3L114,189c-1.1,0.7-2,0.2-2-1
	C112.2,186.6,112.9,185.4,114,184.7z"/>
<path class="st2" d="M161.1,91.9l30.6-17.5c1.1-0.7,2-0.2,2,1c-0.1,1.3-0.8,2.5-2,3.3l-30.6,17.5c-1.1,0.7-2,0.2-2-1
	C159.3,93.8,160,92.6,161.1,91.9z"/>
<path class="st2" d="M82.3,149.5l33.3-19.3c1.1-0.7,2-0.2,2,1c-0.1,1.3-0.8,2.5-2,3.3l-33.3,19.3c-1.1,0.7-2,0.2-2-1
	C80.5,151.4,81.2,150.2,82.3,149.5z"/>
<path class="st10" d="M82.3,149.5l33.3-19.3c1.1-0.7,2-0.2,2,1c-0.1,1.3-0.8,2.5-2,3.3l-33.3,19.3c-1.1,0.7-2,0.2-2-1
	C80.5,151.4,81.2,150.2,82.3,149.5z"/>
<path class="st2" d="M82.3,161.5l17.8-10.2c1.1-0.7,2-0.2,2,1c-0.1,1.3-0.8,2.5-2,3.3l-17.8,10.2c-1.1,0.7-2,0.2-2-1
	C80.5,163.4,81.2,162.2,82.3,161.5z"/>
<path class="st10" d="M82.3,161.5l17.8-10.2c1.1-0.7,2-0.2,2,1c-0.1,1.3-0.8,2.5-2,3.3l-17.8,10.2c-1.1,0.7-2,0.2-2-1
	C80.5,163.4,81.2,162.2,82.3,161.5z"/>
<path class="st2" d="M123.2,125.9l23.1-13.3c1.1-0.7,2-0.2,2,1c-0.1,1.3-0.8,2.6-2,3.3l-23.1,13.3c-1.1,0.7-2,0.2-2-1
	C121.3,127.8,122,126.6,123.2,125.9z"/>
<path class="st10" d="M123.2,125.9l23.1-13.3c1.1-0.7,2-0.2,2,1c-0.1,1.3-0.8,2.6-2,3.3l-23.1,13.3c-1.1,0.7-2,0.2-2-1
	C121.3,127.8,122,126.6,123.2,125.9z"/>
<path class="st11" d="M158.9,187.5l32.8-18.9c1.1-0.7,2-0.2,2,1c-0.1,1.3-0.8,2.5-2,3.3l-32.8,18.8c-1.1,0.7-2,0.2-2-1
	C157,189.3,157.8,188.1,158.9,187.5z"/>
<path class="st11" d="M168.7,169.8l23.1-13.3c1.1-0.7,2-0.2,2,1c-0.1,1.3-0.8,2.5-2,3.3l-23.1,13.3c-1.1,0.7-2,0.2-2-1
	C166.8,171.6,167.5,170.4,168.7,169.8z"/>
<path class="st11" d="M128.3,192.9l32.8-18.9c1.1-0.7,2-0.2,2,1c-0.1,1.3-0.8,2.5-2,3.3l-32.8,18.9c-1.1,0.7-2,0.2-2-0.9
	C126.4,194.9,127.1,193.7,128.3,192.9z"/>
<path class="st2" d="M106.3,147.7l38.5-22.3c1.1-0.7,2-0.2,2,1c-0.1,1.3-0.8,2.5-2,3.3L106.3,152c-1.1,0.7-2,0.2-2-1
	C104.5,149.7,105.2,148.5,106.3,147.7z"/>
<path class="st10" d="M106.3,147.7l38.5-22.3c1.1-0.7,2-0.2,2,1c-0.1,1.3-0.8,2.5-2,3.3L106.3,152c-1.1,0.7-2,0.2-2-1
	C104.5,149.7,105.2,148.5,106.3,147.7z"/>
<path class="st2" d="M152.4,121l38.1-21.5c1.1-0.7,2-0.2,2,1c-0.1,1.3-0.8,2.5-2,3.3l-38.1,21.5c-1.1,0.7-2,0.2-2-1
	C150.5,123,151.3,121.8,152.4,121z"/>
<path class="st10" d="M152.4,121l38.1-21.5c1.1-0.7,2-0.2,2,1c-0.1,1.3-0.8,2.5-2,3.3l-38.1,21.5c-1.1,0.7-2,0.2-2-1
	C150.5,123,151.3,121.8,152.4,121z"/>
<path class="st2" d="M106.3,160.7l38.5-22.3c1.1-0.7,2-0.2,2,1c-0.1,1.3-0.8,2.5-2,3.3L106.3,165c-1.1,0.7-2,0.2-2-1
	C104.5,162.6,105.2,161.4,106.3,160.7z"/>
<path class="st10" d="M106.3,160.7l38.5-22.3c1.1-0.7,2-0.2,2,1c-0.1,1.3-0.8,2.5-2,3.3L106.3,165c-1.1,0.7-2,0.2-2-1
	C104.5,162.6,105.2,161.4,106.3,160.7z"/>
<path class="st2" d="M152.4,134l38.1-21.5c1.1-0.7,2-0.2,2,1c-0.1,1.3-0.8,2.5-2,3.3l-38.1,21.5c-1.1,0.7-2,0.2-2-1
	C150.5,135.9,151.3,134.7,152.4,134z"/>
<path class="st10" d="M152.4,134l38.1-21.5c1.1-0.7,2-0.2,2,1c-0.1,1.3-0.8,2.5-2,3.3l-38.1,21.5c-1.1,0.7-2,0.2-2-1
	C150.5,135.9,151.3,134.7,152.4,134z"/>
<path class="st12" d="M106.3,230.2l85.4-49c1.1-0.7,2-0.2,2,1c-0.1,1.3-0.8,2.5-2,3.3l-85.4,49.1c-1.1,0.7-2,0.2-2-0.9
	C104.5,232.1,105.2,230.8,106.3,230.2z"/>
<path class="st12" d="M106.3,242.2l85.4-49.1c1.1-0.7,2-0.2,2,1c-0.1,1.3-0.8,2.5-2,3.3l-85.4,49c-1.1,0.7-2,0.2-2-1
	C104.5,244.1,105.2,242.9,106.3,242.2z"/>
<path class="st13" d="M106.3,254.3l85.4-49c1.1-0.7,2-0.2,2,1c-0.1,1.3-0.8,2.5-2,3.3l-85.4,49c-1.1,0.7-2,0.2-2-1
	C104.5,256.1,105.2,255,106.3,254.3z"/>
<path class="st2" d="M107,270l46.6-26.9c1.1-0.7,2-0.2,2,1c-0.1,1.3-0.8,2.5-2,3.3L107,274.3c-1.1,0.7-2,0.2-2-1
	C105.1,271.9,105.9,270.7,107,270z"/>
<path class="st2" d="M161.1,238.6l30.6-17.4c1.1-0.7,2-0.2,2,1c-0.1,1.3-0.8,2.5-2,3.3l-30.6,17.4c-1.1,0.7-2,0.2-2-0.9
	C159.3,240.6,160,239.4,161.1,238.6z"/>
<path class="st13" d="M158.9,263.3l32.8-18.9c1.1-0.7,2-0.2,2,1c-0.1,1.3-0.8,2.5-2,3.3l-32.8,18.8c-1.1,0.7-2,0.2-2-1
	C157,265.1,157.7,264,158.9,263.3z"/>
<path class="st13" d="M168.7,245.1l23.1-13.2c1.1-0.7,2-0.2,2,1c-0.1,1.3-0.8,2.5-2,3.3l-23.1,13.3c-1.1,0.7-2,0.2-2-1
	C166.8,247.1,167.5,245.8,168.7,245.1z"/>
<path class="st2" d="M106.3,307.3l85.4-49c1.1-0.7,2-0.2,2,1c-0.1,1.3-0.8,2.5-2,3.3l-85.4,49.1c-1.1,0.7-2,0.2-2-1
	C104.5,309.2,105.2,307.9,106.3,307.3z"/>
<path class="st2" d="M106.3,319.2l85.4-49c1.1-0.7,2-0.2,2,1c-0.1,1.3-0.8,2.5-2,3.3l-85.4,49c-1.1,0.7-2,0.2-2-1
	C104.5,321.1,105.2,319.9,106.3,319.2z"/>
<path class="st12" d="M106.3,331.3l85.4-49c1.1-0.7,2-0.2,2,1c-0.1,1.3-0.8,2.5-2,3.3l-85.4,49c-1.1,0.7-2,0.2-2-1
	C104.5,333.2,105.2,332,106.3,331.3z"/>
<path class="st2" d="M449.7,50.5c0.1,0.7-2.2,2-2.2,2l0.7-3.9L449.7,50.5z"/>
<path class="st14" d="M449.7,50.5c0.1,0.7-2.2,2-2.2,2l0.7-3.9L449.7,50.5z"/>
<path class="st15" d="M408.7,86.4c-3,6.9-7.5,18.7-11.2,28.1c-5.8-1.3-18.1-4.6-22.1-6s-6.8-2.5-7.4-3.3c-1.3-1.1-1.5-3.3-1.6-4.8
	c0-2,0.4-4,1.1-5.9c0.3-1.7-2.3-1.2-3.7,1.3c-1,1.9-1.1,3.7-2,3.9c-1.1-0.5-2.2-1-3.3-1.8c-1.5-1-4-2.9-6-2.1
	c-0.7,0.3-1.2,0.7-1.4,1.5c-0.1,1-0.4,2-0.8,2.9c-0.3,0.4-0.6,0.8-0.8,1.2c-0.2,0.7,0,1.1,0,1.8c-0.1,0.8-1,1.5-1.2,2.2
	c-0.1,0.7,0.2,1.2,0.2,1.9c0,0.4-0.2,0.8-0.2,1.2c0.1,0.8,0.5,1.6,1.1,2c2,1.7,4.4,2.9,6.8,3.6c2.1,0.7,4.9,1.2,7.3,1.9
	c16.3,4.8,37,15.9,39.3,14.4c5.9-2.9,11.2-20.9,14.7-28.8s4.2-17.3,6.8-25.1C416.5,75.8,412.3,78.2,408.7,86.4z"/>
<path class="st16" d="M425.7,76.4c-4.4-0.7-7.9-0.7-11.6,1.8c-3.8,2.5-4.5,4.9-6.4,9.4c-2,4.5-8.1,19.2-8.1,19.2s4.9,6.5,16.4,7.5
	l8.7-22.7L425.7,76.4z"/>
<path class="st17" d="M303.1,108.5c-1.4-1.5-2-3.6-1.6-5.6c0.6-1.3,0.3-2.8-0.8-3.7c0.5,0.7,0.6,1.7,0.2,2.5c-0.4,0.7-1.2,1-2,0.8
	c0,0,1.6,0.9,0.8,2.3c-0.4,0.8-1.3,1.2-2.2,0.9c0.7,0.5,0.9,1.4,0.6,2.1c-0.4,0.7-1.2,1.1-2,0.9c0,0,1.2,2-1,2.2c0,0,2,0.6,2-1.5
	c0.8,0,1.6-0.4,2-0.9c0.5-0.7,0-2,0-2c0.6,0,1.1-0.3,1.3-0.7C300.8,107.1,301.8,108.1,303.1,108.5z"/>
<rect x="451" y="266.1" transform="matrix(0.9997 -2.443239e-02 2.443239e-02 0.9997 -6.5827 11.2281)" class="st15" width="10.4" height="17.8"/>
<path class="st15" d="M422.6,271.8c-3.3,2-6.9,3.5-11.4,0.7l0.7-22.3l11.1,1L422.6,271.8z"/>
<path class="st2" d="M456.9,143.1c0.2,9.5,2.2,64.5,2.2,64.5c0.3,2.7,3.1,7.5,3.4,17.3c0.7,14.2-0.7,47.8-0.7,47.8
	c-3.6,1.8-7.9,2-11.7,0.6c0,0-8.3-47.3-10.4-61.3c-1.9-12.3-7.1-44.3-7.1-44.3l-5.7,42c0.8,5,1.2,10,0.9,15.1
	c-0.3,6.5-4.5,39-4.5,39c-4.3,1.5-8.8,1.7-13.2,0.5c0,0-2.2-50.4-2.5-56.4c-0.3-6.8,1.2-65.5,1.2-65.5L456.9,143.1z"/>
<path class="st18" d="M456.9,143.1c0.2,9.5,2.2,64.5,2.2,64.5c0.3,2.7,3.1,7.5,3.4,17.3c0.7,14.2-0.7,47.8-0.7,47.8
	c-3.6,1.8-7.9,2-11.7,0.6c0,0-8.3-47.3-10.4-61.3c-1.9-12.3-7.1-44.3-7.1-44.3l-5.7,42c0.8,5,1.2,10,0.9,15.1
	c-0.3,6.5-4.5,39-4.5,39c-4.3,1.5-8.8,1.7-13.2,0.5c0,0-2.2-50.4-2.5-56.4c-0.3-6.8,1.2-65.5,1.2-65.5L456.9,143.1z"/>
<path class="st19" d="M451.1,278.9v-1.5c-0.6,0-0.8,0.6-1,1.9c-0.1,1-0.3,2-0.6,3c-0.4,1.9-1,3.6-1.7,5.4c-1.5,3.6-2.6,5-5.9,9.4
	c-1.1,1.2-2.1,2.5-3.2,3.8c-0.6,1.1-0.7,4.3,0.4,4.9c4,2.5,10,2.4,14.1,1.1c3.2-0.9,5.5-3.7,6-7.1c0.1-0.9,0-2,0.1-2.9
	c0.3-2.2,1.1-4.3,2.5-6.1c0.7-1,1.4-2.1,1.9-3.3c0.8-2.1,0-4.6-0.6-6.7c-0.6-1.9-1.1-3.8-1.8-3.6c0,0.2,0,1.1,0,1.1
	c-1.5,1.2-3.3,1.9-5.1,1.9C454.8,280.2,451.1,280,451.1,278.9z"/>
<path class="st19" d="M425.2,283.5c-2.4,1.7-8.2,1.9-11.4,1.8c-3.1-0.1-8,3.6-11.8,4.5c-7,1.7-12.8,0.8-15.3-0.8
	c-2.5-1.6-2.7-4.4-0.4-5.5c3.7-1.6,11.9-5.2,16.1-7.4c1-0.5,1.9-1,2.9-1.7c0.3-0.2,0.5-0.4,0.8-0.6c1.1-0.8,2-1.7,3-2.7
	c1.2-1.5,2-2.3,2.6-2.3l0.1,1.6c0.8,1.1,10.1,2,11.4,0v-2.9c1-0.3,1.9,4.7,2.7,7.9C426.5,278.5,427.5,281.8,425.2,283.5z"/>
<path class="st20" d="M432.7,167.5c0,0-6.4-0.8-10.3-5.1c0,0,0.9,4.2,6.2,7l-1,36L432.7,167.5z"/>
<path class="st21" d="M439.8,77c3.1,0.2,9.8,0.7,12.7,1.3c2.9,0.6,3.8,5.2,4.4,7.6c1.8,7.8-1.2,35.1-1.2,35.1l2,26.9
	c-6.6,4.8-35.4,7.2-49.2-3c0,0,0.7-44.8,1.9-51.7c2-11.6,8.1-16.9,13.3-17.1L439.8,77z"/>
<path class="st7" d="M436.5,45.6c0,7.2-5.8,13-13,13s-13-5.8-13-13s5.8-13,13-13S436.5,38.5,436.5,45.6z"/>
<path class="st7" d="M447,55.2c0,0-2,9.9-2.9,11.4c-0.6,1-1.5,1.8-2.6,2l0.2-6.9L447,55.2z"/>
<path class="st7" d="M444.4,39.6c1.5,0,2.8,0.7,3.8,1.7c1.7,1.8,0.8,8.5-1.3,13.9l-3.9,0.5L444.4,39.6z"/>
<path class="st15" d="M441.8,55.7c0.8,0.5,2-1,2.9-2c1.2-1.4,3.3-1.6,4.8-0.4c0.4,0.4,0.7,0.8,0.9,1.3c1.6,3.4-1.5,7.9-3.9,8.7
	c-4.4,1.4-4.9-1.5-4.9-1.5l-0.3,16.1l0,0c-2.9,3.3-7.4,4.9-11.8,4.1c-2.9-0.5-5-1.8-2.3-4.9v-4.7c-2,0.3-3.8,0.4-5.8,0.3
	c-3.2-0.5-5.2-3-6.1-6.4c-1.6-5.5-2.1-10-0.8-20.8c1.5-11.9,15.3-12,22.8-7.4C444.7,42.6,441.8,55.7,441.8,55.7z"/>
<path class="st7" d="M424.8,44.8c3.3-0.6,6.3-1.8,9.2-3.4c0.2,1.2,0.7,2.3,1.5,3.3c1,1,2.2,1.8,3.5,2.3c0.3,2.1,0.3,4.9,0.4,7.1
	c0,0.7,0,4.6,1.8,3.4c0.6-0.5,1-1,1.5-1.7c0.7-0.7,1.3-1.5,2-2.2c0.5-0.5,0.5-1.6,0.5-2.1c0-1.3,0-2.6-0.1-3.9s-0.4-2.7-0.5-4
	c0-0.7,0.2-1.5,0.6-2.2c0.3-0.8,0.4-1.7,0.4-2.5c-0.4-2.7-2-5-4.6-6.1c-3.4-1.5-7.3-2-11.1-1.6c-2.4,0.2-4.7,0.4-7.1,0.7
	c-0.7,0-1.3,0-2,0.1c-0.7,0.2-1.5,0.5-2.1,0.8c-1.3,0.7-2.5,1.5-3.5,2.5c-1.2,1.3-2,3-2.3,4.7c-0.2,0.7,0,1.3,0.6,1.8
	c0.7,0.6,1.5,1,2.3,1.5C418.5,44.7,421.7,45.2,424.8,44.8z"/>
<path class="st17" d="M427.2,72.3c3.3-0.7,6.5-1.6,9.6-2.7c1.5-0.7,2.7-2,3.4-3.3c-0.4,1.5-1,2.8-2,4c-1.9,2.3-11.1,4-11.1,4v-2
	H427.2z"/>
<path class="st7" d="M427.4,54.2c0,0.8,0.7,1.5,1.6,1.5c0.8,0,1.5-0.7,1.5-1.6c0-0.8-0.7-1.5-1.6-1.5S427.4,53.4,427.4,54.2
	L427.4,54.2z"/>
<path class="st7" d="M428.9,49l3.2,1.8c0.5-0.9,0.2-2-0.7-2.5C430.5,47.8,429.5,48.2,428.9,49C429,49,429,49,428.9,49z"/>
<path class="st17" d="M427.8,63.5l-3.5,1.3c0.3,0.9,1.4,1.5,2.3,1.2c0,0,0,0,0.1,0C427.7,65.6,428.2,64.5,427.8,63.5z"/>
<path class="st7" d="M414.9,50.3l2.9-2.2c-0.6-0.8-1.7-1-2.4-0.5c0,0,0,0-0.1,0.1C414.5,48.3,414.3,49.5,414.9,50.3z"/>
<path class="st7" d="M415.5,53.9c0,0.8,0.7,1.5,1.5,1.5s1.5-0.7,1.5-1.5s-0.7-1.5-1.5-1.5S415.5,53.1,415.5,53.9z"/>
<polygon class="st17" points="423.9,51.6 423.4,60.9 418.6,59.2 "/>
<polygon class="st6" points="387.7,111 415.2,112.8 429.2,143.9 402.9,141.4 "/>
<path class="st20" d="M418.5,148.9c1.1,2.9,3.6,4.8,6.6,5.3c3.3,0.3,6.7-0.4,9.7-1.8l-1.6-3.5H418.5z"/>
<path class="st15" d="M421.6,142.1c2.6-0.3,5.2-1,7.6-2.2c-1.5-0.2-2.9-0.6-4.3-1.1c-1.3-0.5-2-1.9-1.7-3.2c0.2-0.6,1.5,0.1,3.8,0
	c3-0.2,5-0.7,8.1,0c1.2,0.3,2.8,1,3.8,0.5c5.9-3.4,20.7-14.1,20.7-14.1l-6-20.7c0,0-7.4-14.4-1.2-22.8c4.7,0.8,9.9,0.4,13.4,12.7
	c2.4,8.6,6.1,21.7,8.4,29.9c1.6,6-0.1,7.9-1.7,8.9c-4.6,3.1-10,5.7-20.6,10.9c-4.5,2.2-11.8,6.4-14.7,8c-10,5.2-14.9,4.7-18.3,1.3
	C413.4,144.7,415.5,142.8,421.6,142.1z"/>
<path class="st16" d="M451.2,78.1c3,0,6,0.6,8.7,1.9c1.3,0.7,3.5,2.2,6.4,11.5c2.9,9.4,5.4,18.8,5.4,18.8s-3.7,4.6-14.6,5.2l-5.6-16
	C451.7,99.5,445.2,86.5,451.2,78.1z"/>
<path class="st2" d="M174.3,283.5c-0.7,0-1.6-0.2-2.2-0.6c-2.4-1.4-3.9-5.2-3.9-10.2c0-8.1,3.8-16.8,8.6-19.5l0,0
	c1.5-1,3.5-1.1,5.1-0.3c2.5,1.4,4,5.2,4,10.2c0,8.1-3.8,16.8-8.6,19.5C176.4,283.1,175.4,283.5,174.3,283.5z M177.2,254
	c-4.5,2.6-8.1,11-8.1,18.7c0,4.7,1.3,8.1,3.4,9.3c1.3,0.7,2.9,0.6,4.1-0.3c4.5-2.6,8.1-11,8.1-18.7c0-4.7-1.3-8.1-3.4-9.3
	C180,253,178.4,253.1,177.2,254L177.2,254z"/>
<path class="st2" d="M165.9,263.7L165.9,263.7c-0.4-0.1-0.6-0.4-0.5-0.7c0.7-2.8,1.8-5.5,3.2-8.1c0.1-0.3,0.5-0.4,0.7-0.2
	c0.3,0.2,0.4,0.5,0.2,0.7c-1.3,2.5-2.3,5.1-3.1,7.8C166.3,263.5,166.1,263.7,165.9,263.7z"/>
<path class="st2" d="M164.3,274.9c-0.3,0-0.6-0.2-0.6-0.5c0-2,0.2-3.8,0.4-5.8c0-0.3,0.3-0.5,0.6-0.5s0.5,0.3,0.5,0.6
	c-0.3,1.9-0.4,3.7-0.4,5.6C164.8,274.6,164.6,274.9,164.3,274.9L164.3,274.9z"/>
<path class="st2" d="M172.5,290.5L172.5,290.5c-3.9-0.5-7.3-4.3-8.3-9.4c-0.1-0.3,0.1-0.6,0.3-0.7c0.3-0.1,0.6,0.1,0.7,0.3v0.1
	c1.1,5.5,4.6,8.3,7.4,8.7c0.3,0,0.5,0.3,0.5,0.6C172.9,290.3,172.8,290.5,172.5,290.5L172.5,290.5z"/>
<path class="st2" d="M177.7,288.9c-0.3,0-0.5-0.3-0.5-0.6c0-0.2,0.1-0.3,0.2-0.4c1.5-1,2.8-2.3,3.8-3.7c0.2-0.2,0.5-0.3,0.7-0.1
	c0.2,0.2,0.3,0.5,0.1,0.7l0,0c-1.1,1.5-2.5,2.9-4.1,4C178,288.9,177.9,288.9,177.7,288.9z"/>
<path class="st2" d="M184.8,280c-0.1,0-0.2,0-0.3-0.1c-0.3-0.1-0.4-0.5-0.2-0.7l0,0c2.8-5.8,4.3-12.1,4.4-18.5c0-6.8-2-12-5.1-13.9
	c-1.9-1-4-0.9-6.2,0.4c-0.3,0.1-0.6,0.1-0.7-0.2l0,0c-0.1-0.3-0.1-0.6,0.2-0.7c2.6-1.5,5.1-1.6,7.3-0.4c3.5,2,5.7,7.5,5.7,14.8
	c-0.1,6.6-1.6,13-4.5,19C185.1,279.9,184.9,280,184.8,280z"/>
<path class="st2" d="M119.2,227.2c-0.5,0-0.9-0.1-1.3-0.4c-1.4-0.8-2.2-3-2.2-5.8c0-4.6,2.1-9.3,4.7-10.9l0,0c0.9-0.6,2-0.7,3-0.1
	c1.4,0.8,2.2,3,2.2,5.8c0,4.6-2.1,9.3-4.7,10.9C120.3,227,119.7,227.2,119.2,227.2z M122,210.6c-0.5,0-0.8,0.2-1.2,0.4l0,0
	c-2.4,1.4-4.3,5.9-4.3,10c0,2.4,0.7,4.3,1.8,4.9c0.7,0.4,1.5,0.3,2-0.1c2.4-1.4,4.3-5.9,4.3-10c0-2.4-0.7-4.3-1.8-4.9
	C122.6,210.7,122.3,210.6,122,210.6L122,210.6z M120.6,210.6L120.6,210.6z"/>
<path class="st2" d="M114.5,216.3L114.5,216.3c-0.4-0.1-0.5-0.4-0.5-0.6c0.5-1.5,1-3,1.8-4.5c0.1-0.2,0.4-0.3,0.7-0.2
	c0.3,0.1,0.3,0.4,0.2,0.7l0,0c-0.7,1.4-1.3,2.8-1.7,4.3C114.9,216.2,114.7,216.3,114.5,216.3z"/>
<path class="st2" d="M113.7,222.5c-0.3,0-0.5-0.2-0.5-0.5c0-1,0.1-2.1,0.3-3.2c0-0.3,0.3-0.5,0.6-0.4l0,0c0.3,0,0.5,0.3,0.4,0.6l0,0
	c-0.2,1-0.2,2-0.2,3.1C114.1,222.3,113.9,222.5,113.7,222.5L113.7,222.5z"/>
<path class="st2" d="M118.1,231L118.1,231c-2.2-0.3-4.1-2.4-4.7-5.3c-0.1-0.3,0.1-0.5,0.4-0.6s0.5,0.1,0.6,0.4
	c0.6,2.9,2.3,4.4,3.8,4.6c0.3,0,0.5,0.3,0.5,0.5C118.6,230.7,118.4,231,118.1,231L118.1,231z"/>
<path class="st2" d="M121,230.1c-0.2,0-0.3-0.1-0.4-0.2c-0.2-0.2-0.1-0.5,0.1-0.7l0,0c0.7-0.6,1.5-1.2,2-2c0.2-0.2,0.5-0.3,0.7-0.1
	s0.3,0.5,0.1,0.7l0,0c-0.7,0.8-1.4,1.6-2.2,2.2C121.2,230.1,121.1,230.1,121,230.1z"/>
<path class="st2" d="M124.8,225.3c-0.1,0-0.2,0-0.2,0c-0.2-0.1-0.4-0.4-0.2-0.7l0,0c1.5-3.2,2.3-6.5,2.4-10c0-3.6-1-6.4-2.7-7.4
	c-1-0.6-2.2-0.5-3.3,0.2c-0.3,0.1-0.5,0-0.7-0.2c-0.1-0.2,0-0.5,0.2-0.6c1.2-0.8,2.9-0.9,4.2-0.2c2,1.1,3.2,4.2,3.2,8.2
	c0,3.6-0.9,7.2-2.5,10.4C125.1,225.2,125,225.3,124.8,225.3z"/>
<path class="st2" d="M156.1,204.1c-0.5,0-0.9-0.1-1.3-0.4c-1.4-0.8-2.2-3-2.2-5.8c0-4.6,2.1-9.3,4.7-10.9l0,0c0.9-0.6,2-0.7,3-0.1
	c1.4,0.8,2.2,3,2.2,5.8c0,4.6-2.1,9.3-4.7,10.9C157.2,203.9,156.7,204,156.1,204.1z M159,187.5c-0.5,0-0.8,0.2-1.2,0.4l0,0
	c-2.4,1.4-4.3,5.9-4.3,10c0,2.4,0.7,4.3,1.8,4.9c0.7,0.4,1.5,0.3,2-0.1c2.4-1.4,4.3-5.9,4.3-10c0-2.4-0.7-4.3-1.8-4.9
	C159.5,187.6,159.3,187.5,159,187.5z M157.5,187.5L157.5,187.5z"/>
<path class="st2" d="M151.4,193.2L151.4,193.2c-0.4-0.1-0.5-0.3-0.5-0.6l0,0c0.5-1.5,1-3,1.8-4.5c0.1-0.2,0.4-0.3,0.7-0.2
	s0.3,0.4,0.2,0.7l0,0c-0.7,1.4-1.3,2.8-1.7,4.3C151.8,193.1,151.6,193.2,151.4,193.2z"/>
<path class="st2" d="M150.5,199.4c-0.3,0-0.5-0.2-0.5-0.5c0-1,0.1-2.1,0.3-3.2c0-0.3,0.3-0.5,0.6-0.4c0.3,0,0.5,0.3,0.4,0.6l0,0
	c-0.2,1-0.2,2-0.2,3.1C151,199.2,150.8,199.4,150.5,199.4z"/>
<path class="st2" d="M155.1,207.8L155.1,207.8c-2.2-0.3-4.1-2.4-4.7-5.3c-0.1-0.3,0.1-0.5,0.4-0.6l0,0c0.3,0,0.5,0.1,0.6,0.4
	c0.6,2.9,2.3,4.4,3.8,4.6c0.3,0,0.5,0.3,0.5,0.5C155.5,207.6,155.3,207.9,155.1,207.8L155.1,207.8z"/>
<path class="st2" d="M158,207c-0.3,0-0.5-0.2-0.5-0.5c0-0.2,0.1-0.3,0.2-0.4c0.7-0.6,1.5-1.2,2-2c0.2-0.2,0.5-0.2,0.7,0
	s0.2,0.4,0.1,0.7c-0.7,0.8-1.4,1.6-2.2,2.2C158.1,207,158.1,207,158,207z"/>
<path class="st22" d="M426.6,279.6c-0.3,0.5-0.7,1.2-1.5,1.9c-2.5,2.4-5.9,2.5-7.1,2.5c-2.6,0.1-2.9-0.6-4.9-0.2
	c-0.5,0.1-1,0.3-3.6,1.4c-1.5,0.7-2.8,1.2-3.6,1.6c-1,0.3-7.2,2.2-10.9,1.5c-0.7-0.1-1.7-0.3-2.3-1.1c-0.8-1-0.4-2-1.1-3.1
	c-0.4-0.6-1.3-1.3-3.1-1.6l-2.2,1c-0.2,0.1-0.4,0.2-0.6,0.4c-0.2,0.1-0.3,0.2-0.4,0.4c-0.1,0.1-0.3,0.4-0.4,0.7
	c-0.1,0.3-0.2,0.5-0.2,0.7s0,0.6,0.1,1s0.3,0.8,0.4,1c0.2,0.3,0.5,0.7,0.9,1.1c0.9,0.8,1.9,1.1,2.4,1.2c0.7,0.2,1.6,0.4,2.6,0.6
	s1.9,0.2,2.7,0.2c1.1,0,2.4,0,3.8-0.1c1.7-0.2,3.1-0.4,4.4-0.8c1-0.3,2.1-0.7,3.3-1.2c0.9-0.4,1.8-0.8,2.6-1.3
	c0.9-0.5,1.9-1,3.2-1.4c0.7-0.2,1.4-0.4,2-0.5c0.3,0,0.7,0.1,1.1,0.1s1.1,0,2.4-0.1c0.7,0,1.6-0.1,2.6-0.2c1.1,0,2.6-0.2,4.3-0.8
	c0.6-0.2,1.2-0.5,1.7-0.8c0.3-0.2,0.9-0.8,1.2-1.7C426.8,280.8,426.7,279.9,426.6,279.6z"/>
<g>
	<path class="st8" d="M314,313.5c-11.6,0-23.4-5.7-33.9-11.6c-5.2-3-10.6-9.2-16.4-15.7c-9.1-10.3-18.4-21-27.2-19.3l-0.3-1.8
		c9.8-1.9,19.6,9.2,28.9,19.9c5.6,6.4,11,12.5,15.9,15.3c13.9,7.9,28.7,14.6,42.6,9.8c4.4-1.5,8.3-4.1,12.2-6.7
		c3.2-2.1,6.5-4.3,10-5.8c14.2-6.4,30.9-2.7,42.2,0.6l0.9,0.3c7,2.1,14.2,4.2,20.6,1.6c9.2-3.6,12.1-15.1,12.9-19.9
		c2.1-12.7,0.1-25.9-5.7-37.4c-1.5-3-3-5.8-4.4-8.6c-6.5-12.4-12-23-14.9-37.9c-1.9-9.9,2.2-18.9,6.2-27.6
		c4.2-9.2,8.5-18.7,5.7-29.1l1.8-0.5c3,11.1-1.5,20.9-5.8,30.4c-4,8.9-7.8,17.2-6,26.5c2.8,14.6,8.3,25.2,14.7,37.4
		c1.4,2.8,2.9,5.6,4.4,8.6c6,11.8,8,25.5,5.8,38.6c-1.8,10.7-6.9,18.5-14,21.3c-7,2.8-14.9,0.5-21.9-1.6l-0.9-0.2
		c-11-3.2-27.3-6.8-40.9-0.7c-3.4,1.5-6.6,3.6-9.7,5.7c-3.9,2.6-8,5.3-12.6,6.9C320.9,313,317.4,313.5,314,313.5z"/>
</g>
<path class="st2" d="M161.8,202.2c-0.1,0-0.1,0-0.2,0c-0.2-0.1-0.3-0.4-0.2-0.7c1.5-3.2,2.3-6.5,2.4-10c0-3.6-1-6.4-2.7-7.4
	c-1-0.6-2.2-0.5-3.3,0.2c-0.2,0.1-0.5,0-0.7-0.2c-0.1-0.2,0-0.5,0.2-0.7c1.2-0.8,2.9-0.9,4.2-0.2c2,1.1,3.2,4.2,3.2,8.2
	c0,3.6-0.8,7.2-2.4,10.4C162.1,202.2,162,202.2,161.8,202.2z"/>
<path class="st2" d="M150.1,127.2c-0.5,0-0.9-0.1-1.3-0.4c-1.4-0.8-2.2-3-2.2-5.8c0-4.6,2.1-9.3,4.7-10.9l0,0c0.9-0.6,2-0.7,3-0.1
	c1.4,0.8,2.2,3,2.2,5.8c0,4.6-2.1,9.3-4.7,10.9C151.2,127,150.6,127.2,150.1,127.2z M152.9,110.6c-0.5,0-0.8,0.2-1.2,0.4l0,0
	c-2.4,1.4-4.3,5.9-4.3,10c0,2.4,0.7,4.3,1.8,4.9c0.7,0.4,1.5,0.3,2-0.1c2.4-1.4,4.3-5.9,4.3-10c0-2.4-0.7-4.3-1.8-4.9
	C153.5,110.7,153.2,110.6,152.9,110.6z M151.4,110.6L151.4,110.6z"/>
<path class="st2" d="M145.4,116.4L145.4,116.4c-0.4-0.1-0.5-0.3-0.5-0.6l0,0c0.4-1.5,1-3,1.8-4.5c0.1-0.2,0.4-0.3,0.7-0.2
	s0.3,0.4,0.2,0.7l0,0c-0.7,1.4-1.2,2.8-1.7,4.3C145.8,116.2,145.6,116.4,145.4,116.4z"/>
<path class="st2" d="M144.6,122.5c-0.3,0-0.5-0.2-0.5-0.5c0-1,0.1-2.1,0.3-3.2c0-0.3,0.3-0.5,0.6-0.4c0.3,0,0.5,0.3,0.4,0.6l0,0
	c-0.2,1-0.2,2-0.2,3.1C145,122.3,144.8,122.5,144.6,122.5L144.6,122.5z"/>
<path class="st2" d="M149,131L149,131c-2.2-0.3-4.1-2.4-4.7-5.3c-0.1-0.3,0.1-0.5,0.4-0.6l0,0c0.3-0.1,0.5,0.1,0.6,0.4l0,0
	c0.6,2.9,2.4,4.4,3.8,4.6c0.3,0,0.5,0.3,0.4,0.6C149.4,130.8,149.2,131,149,131z"/>
<path class="st2" d="M151.9,130.1c-0.2,0-0.3-0.1-0.4-0.2c-0.2-0.2-0.1-0.5,0.1-0.7c0.7-0.6,1.5-1.2,2-2c0.2-0.2,0.5-0.3,0.7-0.1
	s0.3,0.5,0.1,0.7l0,0c-0.7,0.8-1.4,1.6-2.2,2.2C152.1,130,152,130.1,151.9,130.1z"/>
<path class="st2" d="M155.7,125.3c-0.1,0-0.2,0-0.2-0.1c-0.2-0.1-0.3-0.4-0.2-0.7l0,0c1.5-3.2,2.3-6.5,2.3-10c0-3.6-1-6.4-2.7-7.4
	c-1-0.6-2.2-0.5-3.3,0.2c-0.3,0.1-0.5,0-0.7-0.2c-0.1-0.2,0-0.5,0.2-0.6c1.2-0.8,2.9-0.9,4.2-0.2c2,1.1,3.2,4.2,3.2,8.2
	c0,3.6-0.8,7.2-2.4,10.4C156.1,125.2,155.9,125.3,155.7,125.3z"/>
<path class="st12" d="M174.3,283.5c-0.7,0-1.6-0.2-2.2-0.6c-2.4-1.4-3.9-5.2-3.9-10.2c0-8.1,3.8-16.8,8.6-19.5l0,0
	c1.5-1,3.5-1.1,5.1-0.3c2.5,1.4,4,5.2,4,10.2c0,8.1-3.8,16.8-8.6,19.5C176.4,283.1,175.4,283.5,174.3,283.5z M177.2,254
	c-4.5,2.6-8.1,11-8.1,18.7c0,4.7,1.3,8.1,3.4,9.3c1.3,0.7,2.9,0.6,4.1-0.3c4.5-2.6,8.1-11,8.1-18.7c0-4.7-1.3-8.1-3.4-9.3
	C180,253,178.4,253.1,177.2,254L177.2,254z"/>
<path class="st12" d="M165.9,263.7L165.9,263.7c-0.4-0.1-0.6-0.4-0.5-0.7c0.7-2.8,1.8-5.5,3.2-8.1c0.1-0.3,0.5-0.4,0.7-0.2
	c0.3,0.2,0.4,0.5,0.2,0.7c-1.3,2.5-2.3,5.1-3.1,7.8C166.3,263.5,166.1,263.7,165.9,263.7z"/>
<path class="st12" d="M164.3,274.9c-0.3,0-0.6-0.2-0.6-0.5c0-2,0.2-3.8,0.4-5.8c0-0.3,0.3-0.5,0.6-0.5s0.5,0.3,0.5,0.6
	c-0.3,1.9-0.4,3.7-0.4,5.6C164.8,274.6,164.6,274.9,164.3,274.9L164.3,274.9z"/>
<path class="st12" d="M172.5,290.5L172.5,290.5c-3.9-0.5-7.3-4.3-8.3-9.4c-0.1-0.3,0.1-0.6,0.3-0.7c0.3-0.1,0.6,0.1,0.7,0.3v0.1
	c1.1,5.5,4.6,8.3,7.4,8.7c0.3,0,0.5,0.3,0.5,0.6C172.9,290.3,172.8,290.5,172.5,290.5L172.5,290.5z"/>
<path class="st12" d="M177.7,288.9c-0.3,0-0.5-0.3-0.5-0.6c0-0.2,0.1-0.3,0.2-0.4c1.5-1,2.8-2.3,3.8-3.7c0.2-0.2,0.5-0.3,0.7-0.1
	c0.2,0.2,0.3,0.5,0.1,0.7l0,0c-1.1,1.5-2.5,2.9-4.1,4C178,288.9,177.9,288.9,177.7,288.9z"/>
<path class="st12" d="M184.8,280c-0.1,0-0.2,0-0.3-0.1c-0.3-0.1-0.4-0.5-0.2-0.7l0,0c2.8-5.8,4.3-12.1,4.4-18.5c0-6.8-2-12-5.1-13.9
	c-1.9-1-4-0.9-6.2,0.4c-0.3,0.1-0.6,0.1-0.7-0.2l0,0c-0.1-0.3-0.1-0.6,0.2-0.7c2.6-1.5,5.1-1.6,7.3-0.4c3.5,2,5.7,7.5,5.7,14.8
	c-0.1,6.6-1.6,13-4.5,19C185.1,279.9,184.9,280,184.8,280z"/>
<path class="st12" d="M119.2,227.2c-0.5,0-0.9-0.1-1.3-0.4c-1.4-0.8-2.2-3-2.2-5.8c0-4.6,2.1-9.3,4.7-10.9l0,0c0.9-0.6,2-0.7,3-0.1
	c1.4,0.8,2.2,3,2.2,5.8c0,4.6-2.1,9.3-4.7,10.9C120.3,227,119.7,227.2,119.2,227.2z M122,210.6c-0.5,0-0.8,0.2-1.2,0.4l0,0
	c-2.4,1.4-4.3,5.9-4.3,10c0,2.4,0.7,4.3,1.8,4.9c0.7,0.4,1.5,0.3,2-0.1c2.4-1.4,4.3-5.9,4.3-10c0-2.4-0.7-4.3-1.8-4.9
	C122.6,210.7,122.3,210.6,122,210.6L122,210.6z M120.6,210.6L120.6,210.6z"/>
<path class="st12" d="M114.5,216.3L114.5,216.3c-0.4-0.1-0.5-0.4-0.5-0.6c0.5-1.5,1-3,1.8-4.5c0.1-0.2,0.4-0.3,0.7-0.2
	c0.3,0.1,0.3,0.4,0.2,0.7l0,0c-0.7,1.4-1.3,2.8-1.7,4.3C114.9,216.2,114.7,216.3,114.5,216.3z"/>
<path class="st12" d="M113.7,222.5c-0.3,0-0.5-0.2-0.5-0.5c0-1,0.1-2.1,0.3-3.2c0-0.3,0.3-0.5,0.6-0.4l0,0c0.3,0,0.5,0.3,0.4,0.6
	l0,0c-0.2,1-0.2,2-0.2,3.1C114.1,222.3,113.9,222.5,113.7,222.5L113.7,222.5z"/>
<path class="st12" d="M118.1,231L118.1,231c-2.2-0.3-4.1-2.4-4.7-5.3c-0.1-0.3,0.1-0.5,0.4-0.6s0.5,0.1,0.6,0.4
	c0.6,2.9,2.3,4.4,3.8,4.6c0.3,0,0.5,0.3,0.5,0.5C118.6,230.7,118.4,231,118.1,231L118.1,231z"/>
<path class="st12" d="M121,230.1c-0.2,0-0.3-0.1-0.4-0.2c-0.2-0.2-0.1-0.5,0.1-0.7l0,0c0.7-0.6,1.5-1.2,2-2c0.2-0.2,0.5-0.3,0.7-0.1
	s0.3,0.5,0.1,0.7l0,0c-0.7,0.8-1.4,1.6-2.2,2.2C121.2,230.1,121.1,230.1,121,230.1z"/>
<path class="st12" d="M124.8,225.3c-0.1,0-0.2,0-0.2,0c-0.2-0.1-0.4-0.4-0.2-0.7l0,0c1.5-3.2,2.3-6.5,2.4-10c0-3.6-1-6.4-2.7-7.4
	c-1-0.6-2.2-0.5-3.3,0.2c-0.3,0.1-0.5,0-0.7-0.2c-0.1-0.2,0-0.5,0.2-0.6c1.2-0.8,2.9-0.9,4.2-0.2c2,1.1,3.2,4.2,3.2,8.2
	c0,3.6-0.9,7.2-2.5,10.4C125.1,225.2,125,225.3,124.8,225.3z"/>
<path class="st12" d="M156.1,204.1c-0.5,0-0.9-0.1-1.3-0.4c-1.4-0.8-2.2-3-2.2-5.8c0-4.6,2.1-9.3,4.7-10.9l0,0c0.9-0.6,2-0.7,3-0.1
	c1.4,0.8,2.2,3,2.2,5.8c0,4.6-2.1,9.3-4.7,10.9C157.2,203.9,156.7,204,156.1,204.1z M159,187.5c-0.5,0-0.8,0.2-1.2,0.4l0,0
	c-2.4,1.4-4.3,5.9-4.3,10c0,2.4,0.7,4.3,1.8,4.9c0.7,0.4,1.5,0.3,2-0.1c2.4-1.4,4.3-5.9,4.3-10c0-2.4-0.7-4.3-1.8-4.9
	C159.5,187.6,159.3,187.5,159,187.5z M157.5,187.5L157.5,187.5z"/>
<path class="st12" d="M151.4,193.2L151.4,193.2c-0.4-0.1-0.5-0.3-0.5-0.6l0,0c0.5-1.5,1-3,1.8-4.5c0.1-0.2,0.4-0.3,0.7-0.2
	s0.3,0.4,0.2,0.7l0,0c-0.7,1.4-1.3,2.8-1.7,4.3C151.8,193.1,151.6,193.2,151.4,193.2z"/>
<path class="st12" d="M150.5,199.4c-0.3,0-0.5-0.2-0.5-0.5c0-1,0.1-2.1,0.3-3.2c0-0.3,0.3-0.5,0.6-0.4c0.3,0,0.5,0.3,0.4,0.6l0,0
	c-0.2,1-0.2,2-0.2,3.1C151,199.2,150.8,199.4,150.5,199.4z"/>
<path class="st12" d="M155.1,207.8L155.1,207.8c-2.2-0.3-4.1-2.4-4.7-5.3c-0.1-0.3,0.1-0.5,0.4-0.6l0,0c0.3,0,0.5,0.1,0.6,0.4
	c0.6,2.9,2.3,4.4,3.8,4.6c0.3,0,0.5,0.3,0.5,0.5C155.5,207.6,155.3,207.9,155.1,207.8L155.1,207.8z"/>
<path class="st12" d="M158,207c-0.3,0-0.5-0.2-0.5-0.5c0-0.2,0.1-0.3,0.2-0.4c0.7-0.6,1.5-1.2,2-2c0.2-0.2,0.5-0.2,0.7,0
	s0.2,0.4,0.1,0.7c-0.7,0.8-1.4,1.6-2.2,2.2C158.1,207,158.1,207,158,207z"/>
<path class="st12" d="M161.8,202.2c-0.1,0-0.1,0-0.2,0c-0.2-0.1-0.3-0.4-0.2-0.7c1.5-3.2,2.3-6.5,2.4-10c0-3.6-1-6.4-2.7-7.4
	c-1-0.6-2.2-0.5-3.3,0.2c-0.2,0.1-0.5,0-0.7-0.2c-0.1-0.2,0-0.5,0.2-0.7c1.2-0.8,2.9-0.9,4.2-0.2c2,1.1,3.2,4.2,3.2,8.2
	c0,3.6-0.8,7.2-2.4,10.4C162.1,202.2,162,202.2,161.8,202.2z"/>
<path class="st12" d="M150.1,127.2c-0.5,0-0.9-0.1-1.3-0.4c-1.4-0.8-2.2-3-2.2-5.8c0-4.6,2.1-9.3,4.7-10.9l0,0c0.9-0.6,2-0.7,3-0.1
	c1.4,0.8,2.2,3,2.2,5.8c0,4.6-2.1,9.3-4.7,10.9C151.2,127,150.6,127.2,150.1,127.2z M152.9,110.6c-0.5,0-0.8,0.2-1.2,0.4l0,0
	c-2.4,1.4-4.3,5.9-4.3,10c0,2.4,0.7,4.3,1.8,4.9c0.7,0.4,1.5,0.3,2-0.1c2.4-1.4,4.3-5.9,4.3-10c0-2.4-0.7-4.3-1.8-4.9
	C153.5,110.7,153.2,110.6,152.9,110.6z M151.4,110.6L151.4,110.6z"/>
<path class="st12" d="M145.4,116.4L145.4,116.4c-0.4-0.1-0.5-0.3-0.5-0.6l0,0c0.4-1.5,1-3,1.8-4.5c0.1-0.2,0.4-0.3,0.7-0.2
	s0.3,0.4,0.2,0.7l0,0c-0.7,1.4-1.2,2.8-1.7,4.3C145.8,116.2,145.6,116.4,145.4,116.4z"/>
<path class="st12" d="M144.6,122.5c-0.3,0-0.5-0.2-0.5-0.5c0-1,0.1-2.1,0.3-3.2c0-0.3,0.3-0.5,0.6-0.4c0.3,0,0.5,0.3,0.4,0.6l0,0
	c-0.2,1-0.2,2-0.2,3.1C145,122.3,144.8,122.5,144.6,122.5L144.6,122.5z"/>
<path class="st12" d="M149,131L149,131c-2.2-0.3-4.1-2.4-4.7-5.3c-0.1-0.3,0.1-0.5,0.4-0.6l0,0c0.3-0.1,0.5,0.1,0.6,0.4l0,0
	c0.6,2.9,2.4,4.4,3.8,4.6c0.3,0,0.5,0.3,0.4,0.6C149.4,130.8,149.2,131,149,131z"/>
<path class="st12" d="M151.9,130.1c-0.2,0-0.3-0.1-0.4-0.2c-0.2-0.2-0.1-0.5,0.1-0.7c0.7-0.6,1.5-1.2,2-2c0.2-0.2,0.5-0.3,0.7-0.1
	s0.3,0.5,0.1,0.7l0,0c-0.7,0.8-1.4,1.6-2.2,2.2C152.1,130,152,130.1,151.9,130.1z"/>
<path class="st12" d="M155.7,125.3c-0.1,0-0.2,0-0.2-0.1c-0.2-0.1-0.3-0.4-0.2-0.7l0,0c1.5-3.2,2.3-6.5,2.3-10c0-3.6-1-6.4-2.7-7.4
	c-1-0.6-2.2-0.5-3.3,0.2c-0.3,0.1-0.5,0-0.7-0.2c-0.1-0.2,0-0.5,0.2-0.6c1.2-0.8,2.9-0.9,4.2-0.2c2,1.1,3.2,4.2,3.2,8.2
	c0,3.6-0.8,7.2-2.4,10.4C156.1,125.2,155.9,125.3,155.7,125.3z"/>
<path class="st2" d="M168.7,199.2c-4.6,0-8.4-0.3-10.6-1c-0.8-0.3-1.5-0.9-1.8-1.7c-0.3-1.2,0.3-2.6,1.8-2.1
	c3.7,1.7,36,4.1,55.7-14.9c6.8-6.6,12-14,16.9-21.3c11.3-16.6,22-32.1,49.4-30.7l-0.2,3.7c-25.4-1.3-35,12.8-46.1,29.1
	c-5.1,7.4-10.3,15.1-17.4,22C202.3,195.7,181.9,199.2,168.7,199.2z"/>
<path class="st23" d="M168.7,199.2c-4.6,0-8.4-0.3-10.6-1c-0.8-0.3-1.5-0.9-1.8-1.7c-0.3-1.2,0.3-2.6,1.8-2.1
	c3.7,1.7,36,4.1,55.7-14.9c6.8-6.6,12-14,16.9-21.3c11.3-16.6,22-32.1,49.4-30.7l-0.2,3.7c-25.4-1.3-35,12.8-46.1,29.1
	c-5.1,7.4-10.3,15.1-17.4,22C202.3,195.7,181.9,199.2,168.7,199.2z"/>
<path class="st20" d="M190.6,196.2c2-0.6,3.8-1.1,5.8-1.9c1.3-2.2,2.4-4.2,3-5.2c-1.9,0.8-3.8,1.6-5.7,2.2L190.6,196.2z"/>
<path class="st2" d="M152,120.4c-2.7-0.2-2.3-3.7-1.3-3.7c0.5,0,0.8,0,1.3,0c19.7,0,34.6-12.7,51.1-43.4
	c14.7-27.4,28.3-38.4,48.4-39.5c1-0.1,1.9,0.7,2,1.8s-0.7,1.9-1.8,2c-18.6,1-31.4,11.6-45.3,37.6C193.7,98.6,178.3,120.4,152,120.4z
	"/>
<path class="st24" d="M152,120.4c-2.7-0.2-2.3-3.7-1.3-3.7c0.5,0,0.8,0,1.3,0c19.7,0,34.6-12.7,51.1-43.4
	c14.7-27.4,28.3-38.4,48.4-39.5c1-0.1,1.9,0.7,2,1.8s-0.7,1.9-1.8,2c-18.6,1-31.4,11.6-45.3,37.6C193.7,98.6,178.3,120.4,152,120.4z
	"/>
<path class="st2" d="M138.8,222.8c-5.8,0-11.5-0.7-17.1-2.1c-0.9-0.2-1.6-0.9-1.7-1.9c-0.2-1.7,0.4-2.3,1.3-2
	c27.6,7.4,54.5-3,72-27.6c6.3-8.8,11.4-17.9,15.9-25.8c5.1-9,10-17.6,15.6-24.3c9.2-11,23.8-18.1,34.5-17c1,0.1,1.8,1,1.7,2
	c-0.1,1-1,1.8-2,1.7l0,0c-9.5-1-22.9,5.8-31.3,15.7c-5.4,6.4-10,14.4-15.3,23.7c-4.6,8-9.8,17-16.1,26.1
	C181.9,211.7,161.1,222.8,138.8,222.8z"/>
<path class="st24" d="M138.8,222.8c-5.8,0-11.5-0.7-17.1-2.1c-0.9-0.2-1.6-0.9-1.7-1.9c-0.2-1.7,0.4-2.3,1.3-2
	c27.6,7.4,54.5-3,72-27.6c6.3-8.8,11.4-17.9,15.9-25.8c5.1-9,10-17.6,15.6-24.3c9.2-11,23.8-18.1,34.5-17c1,0.1,1.8,1,1.7,2
	c-0.1,1-1,1.8-2,1.7l0,0c-9.5-1-22.9,5.8-31.3,15.7c-5.4,6.4-10,14.4-15.3,23.7c-4.6,8-9.8,17-16.1,26.1
	C181.9,211.7,161.1,222.8,138.8,222.8z"/>
<path class="st2" d="M257.3,36.8c0,3.5-2.9,6.3-6.3,6.3c-3.5,0-6.3-2.9-6.3-6.3c0-3.5,2.9-6.3,6.3-6.3l0,0
	C254.4,30.5,257.3,33.3,257.3,36.8z"/>
<path class="st2" d="M262.8,122.4c0,3.5-2.9,6.3-6.3,6.3c-3.5,0-6.3-2.9-6.3-6.3c0-3.5,2.9-6.3,6.3-6.3l0,0
	C259.9,116.1,262.8,119,262.8,122.4z"/>
<path class="st2" d="M360.1,147.2c1.1,1,3.3,2.2,7.6,3.1c4.4,0.8,11.7,1.4,16,0.1c4.3-1.3,5.9-3.5,6.8-6.2s0.7-4.1,1.8-6.1
	c1.6-2.8,0.8-4.3-2.1-3.3c-3,0.9-7.1,2.3-9.9,2.5c-1.8,0.1-3.5,0-5.3-0.4c-0.7-0.7,3.8-1.6,5.3-3.8s0.5-3.5-0.3-3.4
	c-0.7,0.1-2.5,1.3-5.3,2s-7.4,1.9-9.9,2.7s-4.1,1.9-5.3,6.6C358.4,145.5,358.9,146,360.1,147.2z"/>
<path class="st25" d="M360.1,147.2c1.1,1,3.3,2.2,7.6,3.1c4.4,0.8,11.7,1.4,16,0.1c4.3-1.3,5.9-3.5,6.8-6.2s0.7-4.1,1.8-6.1
	c1.6-2.8,0.8-4.3-2.1-3.3c-3,0.9-7.1,2.3-9.9,2.5c-1.8,0.1-3.5,0-5.3-0.4c-0.7-0.7,3.8-1.6,5.3-3.8s0.5-3.5-0.3-3.4
	c-0.7,0.1-2.5,1.3-5.3,2s-7.4,1.9-9.9,2.7s-4.1,1.9-5.3,6.6C358.4,145.5,358.9,146,360.1,147.2z"/>
<path class="st26" d="M390.6,144c0.9-2.8,0.7-4.1,1.8-6.1c0.6-0.8,0.8-1.8,0.7-2.8c-0.4,1.9-2,2-4.1,5.3c-2.3,3.5-2.7,5.4-7,6.2
	c-2.9,0.6-7.9,0.1-14.5-2l-7.9-3.8c-1.2,4.7-0.6,5.2,0.7,6.4c1.1,1,3.3,2.2,7.6,3.1c4.4,0.8,11.7,1.4,16,0.1S389.6,146.8,390.6,144z
	"/>
<path class="st6" d="M351.7,145.7c0,0,10.2,2,14.2,1.7c4.3-0.3,6.5-3.4,4.4-6s-6.9-4.3-6.9-4.3l-8.9-2.8L351.7,145.7z"/>
<path class="st2" d="M316.3,132.7c-2,3.8,1,7.4,7.4,8.7c6.3,1.3,33.3,4.9,33.3,4.9c1,0.2,2.2-1.1,3.2-5.2c0.8-3.8,0-6.4-1.3-6.7
	c0,0-23.2-7.3-25.9-8.4C327.3,123.9,318.9,127.5,316.3,132.7z"/>
<path class="st25" d="M316.3,132.7c-2,3.8,1,7.4,7.4,8.7c6.3,1.3,33.3,4.9,33.3,4.9c1,0.2,2.2-1.1,3.2-5.2c0.8-3.8,0-6.4-1.3-6.7
	c0,0-23.2-7.3-25.9-8.4C327.3,123.9,318.9,127.5,316.3,132.7z"/>
<path class="st26" d="M359.5,143.5c-7.7-1-21.3-3.1-27.7-5.2c-9.2-3.1-9.3-5.3-8.6-8.4l0.7-3.4c-3.3,1.2-6.3,3.5-7.6,6.3
	c-2,3.8,1,7.4,7.4,8.7c6.3,1.3,33.3,4.9,33.3,4.9C357.8,146.5,358.8,145.8,359.5,143.5z"/>
<path class="st6" d="M314.8,129.5l3.2,4.8c0,0,2.8,2,7-0.9c4-2.8,4-5.8,4-5.8l-3-7.2L314.8,129.5z"/>
<path class="st2" d="M297.3,80.2c6.5-2.3,10,0,13.4,5.5c2.7,4.4,16.5,36.2,16.5,36.2c1,3.9-8.7,12-12.8,8.6c0,0-18.5-23.3-21.8-30.1
	C288.4,91.5,291.7,82.1,297.3,80.2z"/>
<path class="st25" d="M297.3,80.2c6.5-2.3,10,0,13.4,5.5c2.7,4.4,16.5,36.2,16.5,36.2c1,3.9-8.7,12-12.8,8.6
	c0,0-18.5-23.3-21.8-30.1C288.4,91.5,291.7,82.1,297.3,80.2z"/>
<path class="st26" d="M321.1,129.9c-2.5,1.4-5.2,2-7,0.6c0,0-18.5-23.3-21.7-30.1c-0.1-0.2-0.1-0.4-0.2-0.5l2.6-1.5
	c0,0.1,0,0.3,0.1,0.4c1.2,5.4,4.5,10.3,10.7,4.9c0.5-0.4,0.8-0.8,1.2-1.3C307.3,108.5,318.9,125.8,321.1,129.9z"/>
<path class="st2" d="M298.2,81.9c2.8-2.3,7.5-0.8,9.1,3.3c0.7,2.1,3.7,13.5-1.7,18.2c-6.1,5.4-9.4,0.4-10.7-4.9
	C293.6,93.3,292.9,85.2,298.2,81.9z"/>
<path class="st26" d="M298.2,81.9c2.8-2.3,7.5-0.8,9.1,3.3c0.7,2.1,3.7,13.5-1.7,18.2c-6.1,5.4-9.4,0.4-10.7-4.9
	C293.6,93.3,292.9,85.2,298.2,81.9z"/>
<path class="st6" d="M303.3,100.3c-2.3,2-5.7-0.2-7.4-4.7c-1.8-4.5,1.6-10.6,3.9-12c2.6-1.6,5.3,0.2,6.3,6.3
	C307.1,96.6,305.6,100.3,303.3,100.3z"/>
<path class="st7" d="M278,330.9c-0.2,0.8-0.2,1.7,0,2.4c0.3,0.9,4.8,2.2,7.4,2.9c3.3,1.1,6.3,3.1,8.7,5.7c2.6,2.7,6.4,4.9,12.9,4.9
	s9-2.4,9.7-3.2c0.7-0.7,0.4-2.7,0.4-2.7L278,330.9z"/>
<path class="st8" d="M279.1,312.7c0.9,5.2-0.3,7.8-1.3,10.9c-0.9,2.4-0.8,5,0.1,7.4c3.1,2.4,9.8,2.8,13.9,5.8
	c2.2,1.6,5.9,6.3,10.7,5.8c4.8-0.6,9.5-7.2,9.5-7.2c-3.7-1.9-7.1-4.3-10-7.3c-5.1-5.2-9.5-7.4-9.1-14.4L279.1,312.7z"/>
<path class="st6" d="M293.8,336.3c-3.6-3-9.6-5.6-9.3-7.8c0.3-2.2-2.9-5.5-2.9-5.5s-2-2.7,5.5-3.5c4.1-0.5,5.5-1.6,6-2.4
	c-0.2-1.1-0.3-2.1-0.3-3.3l-13.7-1c0.9,5.2-0.3,7.8-1.3,10.9c-0.9,2.4-0.8,5,0.1,7.4c3.1,2.4,9.8,2.8,13.9,5.8
	c0.9,0.7,2.2,2,3.7,3.2C295.4,338.5,294.7,337.3,293.8,336.3z"/>
<path class="st2" d="M279.5,241.6c-3.3-0.2-5.3,4.4-5.8,16.7c-0.4,11.1,5,54.7,5.6,58c0.5,2.4,13.6,2.3,13.8-0.7
	c0.3-5.1,5.9-59,6.4-65.1c0.6-6.1,0.8-7.5-2.3-8.5C294,241,279.5,241.6,279.5,241.6z"/>
<path class="st25" d="M279.5,241.6c-3.3-0.2-5.3,4.4-5.8,16.7c-0.4,11.1,5,54.7,5.6,58c0.5,2.4,13.6,2.3,13.8-0.7
	c0.3-5.1,5.9-59,6.4-65.1c0.6-6.1,0.8-7.5-2.3-8.5C294,241,279.5,241.6,279.5,241.6z"/>
<path class="st26" d="M297.2,241.9c-3.2-0.9-17.7-0.4-17.7-0.4c-3.3-0.2-5.3,4.4-5.8,16.7c-0.4,11.1,5,54.7,5.6,58
	c0.1,0.7,1.5,1.3,3.3,1.5c-0.7-9.6-2.5-32.8-2.5-41.3c0-10.9-0.3-29,5.9-23.7c5.7,4.9,10.9,3.1,13.4-0.3c0.1-0.9,0.2-1.6,0.2-2
	C300,244.2,300.3,242.9,297.2,241.9z"/>
<path class="st6" d="M278,232.6l0.8,10.7c0,1.7,3.3,4.9,11,4.7c6.5-0.1,8.2-3.7,8.2-3.7l2-15L278,232.6z"/>
<path class="st2" d="M300.7,141.3c2.3,4.7,4.5,11.5,4.4,44s-4.4,50.4-4.4,50.4c-1.9,6-22.4,5.5-23.5,0.5L265,171.3
	C263.5,156.1,289.1,117.5,300.7,141.3z"/>
<path class="st25" d="M300.7,141.3c2.3,4.7,4.5,11.5,4.4,44s-4.4,50.4-4.4,50.4c-1.9,6-22.4,5.5-23.5,0.5L265,171.3
	C263.5,156.1,289.1,117.5,300.7,141.3z"/>
<path class="st26" d="M265,171.4l12.2,64.9c0.8,3.7,12.7,4.9,19.3,2.8c0-0.1,0-0.2-0.1-0.4c-1.7-5.6-7.8,0.1-8.7-1.5
	c-0.9-1.6-2.3-32.8-3.3-43.4c-1.2-13.8,7.9-20.6,11-33.9c1.6-7.5,2.5-15.3,2.6-23C285.4,123,263.7,157.2,265,171.4z"/>
<path class="st2" d="M294,137.4c3.6,0.8,7.6,8,7,17.9c-0.7,9.9-5.9,24-17.2,21.2C272.4,173.7,277.5,132.9,294,137.4z"/>
<path class="st26" d="M294,137.4c3.6,0.8,7.6,8,7,17.9c-0.7,9.9-5.9,24-17.2,21.2C272.4,173.7,277.5,132.9,294,137.4z"/>
<path class="st8" d="M292.5,146.3c3.1,0.7,6.9,3.1,4.7,12.8c-1.9,8.2-4.4,12.1-11,10.6C276.5,167.6,278.5,142.5,292.5,146.3z"/>
<path class="st2" d="M286.2,334.1c3.9,0.3,5.5,0.5,9.4,2.6s6.6-3.9,12.7-3.7c2.4,0.7,4.7,1.7,6.9,3c1.6,1,2.1,2.3,1.9,5.1
	c-1.9,2.1-4.5,3.4-7.4,3.5c-8.2,0.7-12.3-2.6-15.5-5.4C290.8,336.4,289.3,335.1,286.2,334.1z"/>
<path class="st25" d="M286.2,334.1c3.9,0.3,5.5,0.5,9.4,2.6s6.6-3.9,12.7-3.7c2.4,0.7,4.7,1.7,6.9,3c1.6,1,2.1,2.3,1.9,5.1
	c-1.9,2.1-4.5,3.4-7.4,3.5c-8.2,0.7-12.3-2.6-15.5-5.4C290.8,336.4,289.3,335.1,286.2,334.1z"/>
<path class="st26" d="M306.2,341.4c-8-0.2-11.6-4.1-14.8-6.7c-1.7-0.4-3.4-0.7-5.2-0.7c3.2,1,4.7,2.3,7.9,5.1
	c3.3,2.8,7.4,6,15.5,5.4c2.9-0.1,5.5-1.4,7.4-3.5c0.3-2.7-0.4-4-1.9-5.1C317.3,338.6,314.2,341.7,306.2,341.4z"/>
<path class="st2" d="M283.7,324.7c-0.5,2.7-2.2,4.8-4.7,4.4c-2.4-0.7-4-3.1-3.3-5.6c0.5-2.7,2.8-4.5,5.2-4S284.2,322,283.7,324.7z"
	/>
<path class="st20" d="M283.7,324.7c0.4-2-0.1-3.5-1.2-4.5c1.1,1.9,0.2,5.7-3.2,5.8c-3.1,0-3.6-2.2-3.3-3.5c-0.2,0.4-0.3,0.7-0.4,1.1
	c-0.6,2.5,0.9,4.9,3.3,5.6C281.4,329.5,283.2,327.3,283.7,324.7z"/>
<path class="st2" d="M287.5,244.3c0.4-5.2,3.3-9.9,7.9-9.6s8.2,4.7,7.8,10c-0.4,5.3-4.4,9.2-9,8.9
	C289.5,253.4,287.2,249.6,287.5,244.3z"/>
<path class="st20" d="M294.3,249.3c-5-3.8-3.1-11.9-0.1-14.5c-4,0.5-6.4,4.7-6.7,9.5c-0.4,5.2,2,9.1,6.7,9.4c3.2,0.1,6-1.5,7.5-4.3
	C299.6,251.3,296.4,251.2,294.3,249.3z"/>
<path class="st2" d="M294.3,143.9c0,0,2.9,8.8-1.9,20.4c-5.1,12.4-11.4,16.3-17.6,15.6s-13.4-7-16.3-12.7
	c-4.2-8.3-3.4-13.6-2.6-17.5c0.7-3.3,1.9-6.5,3.3-9.6L294.3,143.9z"/>
<path class="st3" d="M294.3,143.9c0,0,2.9,8.8-1.9,20.4c-5.1,12.4-11.4,16.3-17.6,15.6s-13.4-7-16.3-12.7
	c-4.2-8.3-3.4-13.6-2.6-17.5c0.7-3.3,1.9-6.5,3.3-9.6L294.3,143.9z"/>
<path class="st2" d="M287.9,172.7c-2.6,1.5-6,2.1-10.2,1.3c-7.9-1.6-11-13.4-11.6-18.6c-0.7-5.2-1.3-10.6,4.1-12.5l1.3-1.4
	l-12.1-1.3c-1.5,3.1-2.6,6.2-3.4,9.6c-0.8,3.8-1.6,9.1,2.6,17.5c2.9,5.8,10,12.1,16.3,12.7C279.3,180.4,283.8,178.4,287.9,172.7z"/>
<path class="st4" d="M287.9,172.7c-2.6,1.5-6,2.1-10.2,1.3c-7.9-1.6-11-13.4-11.6-18.6c-0.7-5.2-1.3-10.6,4.1-12.5l1.3-1.4
	l-12.1-1.3c-1.5,3.1-2.6,6.2-3.4,9.6c-0.8,3.8-1.6,9.1,2.6,17.5c2.9,5.8,10,12.1,16.3,12.7C279.3,180.4,283.8,178.4,287.9,172.7z"/>
<path class="st8" d="M257.8,125c2.2,4.3,3.1,10.9,1.5,15.2c0,0,11.7,11.6,22.9,11c5-0.2,9.6-2.9,12.1-7.3l3.2-29.3
	c0,0-5.1-14.8-14.7-14.1S257.8,125,257.8,125z"/>
<path class="st6" d="M261.5,142.2L261.5,142.2c4,3.3,12.4,9.4,20.6,8.9c1.9-0.1,3.7-0.6,5.5-1.3c-5.4,0.2-11.7-2.6-14-5.7
	c-2.4-3.2-3.4-7.1-3.2-12.7c0.1-1.3,1.6-21,2.8-25.7c-6.6,6.1-13,15.4-14.9,18.2v0.1l-0.3,0.5l0,0l-0.1,0.1l-0.1,0.1l0,0v0.1
	c0.7,1.5,1.3,3,1.7,4.6c0.3,1,0.4,2,0.6,3.1c0.1,1,0.2,2,0.1,3.1c0,1.3-0.3,2.5-0.6,3.7c-0.1,0.3-0.2,0.6-0.3,0.8
	C259.2,140.2,260.1,141,261.5,142.2z"/>
<path class="st6" d="M282.6,100.5c-1.8,0.2-3.5,0.9-5,2c4.6,0.2,5.8,7.4,7.4,13.5c1.9,7,1.8,5.4,10.1,6.9l1.3,0.8l0.9-9
	C297.3,114.6,292.2,99.9,282.6,100.5z"/>
<path class="st2" d="M253.6,77.5c-8.9,2-13.4,3.6-12.5,12.9s7.9,25.8,12.5,31.9c4.7,6.3,4.5,7.4,9.9,5.9c6.9-2,15-6,15.8-8.3
	s0.3-15.4,4.2-15.5c3.9-0.1,4.4,13.3,5.3,15.2s7.4,5.4,8.7,4.7c1.4-0.7,6.5-14.1,6.6-25.9c0.1-14-2.3-17.2-11.3-19.6L253.6,77.5z"/>
<path class="st3" d="M253.6,77.5c-8.9,2-13.4,3.6-12.5,12.9s7.9,25.8,12.5,31.9c4.7,6.3,4.5,7.4,9.9,5.9c6.9-2,15-6,15.8-8.3
	s0.3-15.4,4.2-15.5c3.9-0.1,4.4,13.3,5.3,15.2s7.4,5.4,8.7,4.7c1.4-0.7,6.5-14.1,6.6-25.9c0.1-14-2.3-17.2-11.3-19.6L253.6,77.5z"/>
<path class="st26" d="M259.6,77.7l-6-0.2c-8.9,2-13.4,3.6-12.5,12.9s7.8,25.8,12.4,31.9c4.7,6.3,4.5,7.4,9.9,5.9
	c2.5-0.7,4.9-1.6,7.3-2.6c-4.4,0.1-8.6,0-13.8-10.5c-5.2-10.5-6.6-19.4-6.3-26.1C250.9,82.6,253.3,79.9,259.6,77.7z"/>
<path class="st2" d="M244.7,82c4-2.7,7.4-0.3,9.4,7.9c1.5,6,0.7,14.6-3.5,16.3c-3.9,1.5-5.7-3.3-7.8-10
	C241.5,92.5,240.7,84.8,244.7,82z"/>
<path class="st26" d="M244.7,82c4-2.7,7.4-0.3,9.4,7.9c1.5,6,0.7,14.6-3.5,16.3c-3.9,1.5-5.7-3.3-7.8-10
	C241.5,92.5,240.7,84.8,244.7,82z"/>
<path class="st2" d="M282.3,84l-0.9,0.2c1.4,6.6,2.1,13.3,2.1,20.1h0.1c0.3,0,0.7,0.1,0.8,0.3C284.3,97.7,283.7,90.8,282.3,84z"/>
<path class="st8" d="M261.7,59.5c0,0,1.2,14.4,1.2,15s-9.2,3-9.2,3s6.8-0.3,16.3,3.9c3.3,1.6,6.3,3.5,9.1,5.9
	c1.5,1.3,3.8,1.1,5.1-0.5c0.1-0.1,0.2-0.2,0.3-0.3c0.6-0.8,1.2-1.8,1.8-2.5c1.9-2.2,4.2-4,6.7-5.4c0,0-12.1-4.7-12.1-5.1l-0.7-9.2
	L261.7,59.5z"/>
<path class="st2" d="M271.4,176.4c2.2-1.1,1.6-11.3-0.2-17.3c-2.6-9.2-7.4-13.4-11.1-12.7s-3.5,10-2.7,13.4
	C258.7,165.6,265.4,176.8,271.4,176.4z"/>
<path class="st26" d="M271.4,176.4c2.2-1.1,1.6-11.3-0.2-17.3c-2.6-9.2-7.4-13.4-11.1-12.7s-3.5,10-2.7,13.4
	C258.7,165.6,265.4,176.8,271.4,176.4z"/>
<ellipse class="st8" cx="272.2" cy="39.8" rx="24.1" ry="24.1"/>
<path class="st6" d="M280.4,69.8l-0.3-4l-0.3-5.2c0,0-4.9-1.5-17.5-5.9c-9.2-3.2-13.9-12.7-12.9-22.5c-3.8,11.5,1.5,24.1,12.5,29.3
	c0.3,4,0.9,12.5,0.9,13c0,0,1.7-1.1,5.5-0.7s7.4,3.4,5.9-1.2C272.9,68.5,278.9,69.5,280.4,69.8z"/>
<path class="st2" d="M280,17.2c-10.8,0-16.6,7.2-18.4,16.9c-1.2,6.3-0.7,21.1,5,28.2c3,3.7,16.8,8.2,22.7,6.5
	c6.4-1.8,7.4-10.2,8-18.7c0.5-6.2-0.1-12.6-1.8-18.6C293.6,22.8,286.2,17.6,280,17.2z"/>
<path class="st25" d="M280,17.2c-10.8,0-16.6,7.2-18.4,16.9c-1.2,6.3-0.7,21.1,5,28.2c3,3.7,16.8,8.2,22.7,6.5
	c6.4-1.8,7.4-10.2,8-18.7c0.5-6.2-0.1-12.6-1.8-18.6C293.6,22.8,286.2,17.6,280,17.2z"/>
<path class="st2" d="M297.3,49.6c-0.5,0.4-0.9,0.7-1.4,0.9c-7.4-0.7-9.3-6-9.4-6.3c0-0.6-0.6-8.8-2.1-13.1c0.6-0.2,1.2-0.4,1.8-0.6
	c3.1-1.2,5.1-3,6-5.3c0.1-0.3,0.2-0.6,0.3-0.8c-0.1-0.2-0.3-0.3-0.4-0.5c-0.1,0.4-0.2,0.8-0.3,1.2c-0.8,2.1-2.7,3.8-5.7,5
	c-9.3,3.7-18.3-0.5-21.7-3.8l-0.2,0.5c2.5,2.5,8,5.3,14.3,5.3c1.9,0,3.7-0.3,5.6-0.7c1.6,4.1,2.1,12.6,2.1,12.9
	c-0.6,2.1-3.9,7.7-12.8,9.2c-3-1.4-5.5-3.5-7.4-6.2l-0.4,0.3c2,2.8,4.6,5,7.6,6.5c0.2,0.3,1.7,2.3,2.1,7c0,0.3,0.1,0.7,0.1,0.9
	c0.1,2,0.5,3.9,1.1,5.7l0.7,0.2c-0.8-1.4-1.1-3.6-1.3-6c0-0.3-0.1-0.7-0.1-1c-0.5-4.1-1.6-6.2-2-6.9c8.3-1.5,11.7-6.4,12.7-8.9
	c0.7,1.6,3.2,5.6,9.6,6h0.1h0.1c0.5-0.2,0.8-0.5,1.2-0.7v-0.1C297.3,49.9,297.3,49.7,297.3,49.6z"/>
<path class="st26" d="M289.3,68.9c0.5-0.1,0.9-0.3,1.3-0.6c-5.6,1-12.1-0.9-18.1-4.5c-6-3.5-7.3-7.6-8.7-16.3
	c-1.5-8.7,0.3-20.8,4.5-26.3c-3.4,3.1-5.6,7.5-6.6,12.8c-1.2,6.3-0.7,21.1,5,28.2C269.6,66.1,283.5,70.5,289.3,68.9z"/>
<path class="st2" d="M267.5,50.9c0-3.9-2.7-8-6-9.1c-1.5-0.6-3.2-0.4-4.4,0.7c-1.6,0.7-2.6,2.5-2.6,4.8c0,3.9,2.7,8,6,9.1
	c1.5,0.6,3.2,0.4,4.4-0.7C266.5,55,267.5,53.2,267.5,50.9z"/>
<path class="st20" d="M267.5,50.9c0-3.9-2.7-8-6-9.1c-1.5-0.6-3.2-0.4-4.4,0.7c-1.6,0.7-2.6,2.5-2.6,4.8c0,3.9,2.7,8,6,9.1
	c1.5,0.6,3.2,0.4,4.4-0.7C266.5,55,267.5,53.2,267.5,50.9z"/>
<path class="st2" d="M260.6,42.3c3.3,1.2,6,5.3,6,9.1c0,3.8-2.7,6-6,4.9s-6-5.3-6-9.1C254.5,43.4,257.2,41.1,260.6,42.3z"/>
<path class="st20" d="M262.4,54.8c-0.4,0-0.7-0.1-1.1-0.2c-2.6-0.9-4.8-4.3-4.8-7.4c0-2,0.9-3.3,2.4-3.3c0.4,0,0.7,0.1,1.1,0.2
	c2.6,0.9,4.8,4.3,4.8,7.4C264.8,53.5,263.8,54.8,262.4,54.8z"/>
<path class="st20" d="M259.9,44c-0.4-0.1-0.7-0.2-1.1-0.2c-0.1,0-0.2,0-0.3,0c-0.4,0.7-0.6,1.5-0.6,2.2c0,3.1,2.2,6.4,4.8,7.4
	c0.4,0.1,0.7,0.2,1.1,0.2c0.1,0,0.2,0,0.3,0c0.4-0.7,0.6-1.5,0.6-2.2C264.8,48.4,262.5,44.9,259.9,44z"/>
<path class="st8" d="M274.7,38.5c-2.1-0.2-3.7-0.4-4.5,0.3c-1,0.9-0.7,2.4-0.2,5.4c0.3,1.7,0.7,3.4,2.2,4.6c1.8,1.3,5.6,2.5,11,2.5
	c6,0,11.1-1.2,14.2-6c0.1-3.6-0.3-7.2-1.1-10.7c-2.1,1.5-4.5,2.5-7,3.1C283.9,39,280.7,38.9,274.7,38.5z"/>
<ellipse transform="matrix(0.9911 -0.1328 0.1328 0.9911 -3.5233 37.371)" class="st2" cx="278.4" cy="45.1" rx="1.9" ry="2.2"/>
<path class="st2" d="M295.4,43c-0.2,0.9-1,1.7-2,1.5s-1.7-1-1.5-2c0.1-0.8,0.8-1.5,1.7-1.5C294.6,41,295.5,41.9,295.4,43z"/>
<path class="st2" d="M224.6,220c-2-2.7-6.8-1.1-16.5,6.7c-8.7,7-29.2,30.3-31.5,32.7c-3,3.2-4.7,7.4-4.5,11.8c0.1,5.5,4.4,6.9,5.8,6
	c5.6-3.3,48.1-32.6,53.1-36.3s6.1-4.3,4.8-7.4S224.6,220,224.6,220z"/>
<path class="st25" d="M224.6,220c-2-2.7-6.8-1.1-16.5,6.7c-8.7,7-29.2,30.3-31.5,32.7c-3,3.2-4.7,7.4-4.5,11.8
	c0.1,5.5,4.4,6.9,5.8,6c5.6-3.3,48.1-32.6,53.1-36.3s6.1-4.3,4.8-7.4S224.6,220,224.6,220z"/>
<path class="st26" d="M219,226.7c0.7,4.9,6.2,8.5-11.3,21.8c-10.7,8.1-25.3,18.4-35.1,25.2c1.1,3.4,4.2,4.3,5.4,3.5
	c5.6-3.3,48.1-32.6,53.1-36.3s6.1-4.3,4.8-7.4c-1.1-2.6-8.5-10.5-10.7-12.8l-1.5-0.7C218.6,219.7,218.3,221.8,219,226.7z"/>
<path class="st6" d="M226.3,214.8l-5.1,5.9c-1,1.3-0.6,4.7,3.4,9.3c4,4.7,9,6.5,10.3,5.3l7.7-7.7L226.3,214.8z"/>
<path class="st8" d="M256.5,153.4c2.2-0.9,4.6-1.8,6.9-2.5c2.4-0.6,4,4.8,4.7,6.6c2,5.6,2.4,12.6,1.6,13.3c-2,1.9-6.1,3.1-6.1,3.1
	L256.5,153.4z"/>
<path class="st2" d="M252.5,135.9c5.5,0,13.9,22.2,14.8,31.8s2.6,15.7-7.2,34.9c-10.2,20.2-18.6,27.4-18.6,27.4
	c-3.8,2.2-18.9-10-17.9-15.3c0,0,8.5-28.7,11.7-41.7C238.6,160,243.5,134.8,252.5,135.9z"/>
<path class="st25" d="M252.5,135.9c5.5,0,13.9,22.2,14.8,31.8s2.6,15.7-7.2,34.9c-10.2,20.2-18.6,27.4-18.6,27.4
	c-3.8,2.2-18.9-10-17.9-15.3c0,0,8.5-28.7,11.7-41.7C238.6,160,243.5,134.8,252.5,135.9z"/>
<path class="st26" d="M261.1,147.2c-2.8-6.2-6-11.3-8.7-11.3c-9-1.1-13.8,24-17,37.1c-3.3,13.1-11.7,41.7-11.7,41.7
	c-0.9,4.6,10.2,14.2,15.7,15.4c1.3-1.4,2.2-2.9,2.2-4.3c0.2-4.1-8.6-4-9-6c-0.5-2,7.7-27.3,12.8-47.7
	C250.6,151.5,256.5,142,261.1,147.2z"/>
<path class="st2" d="M228.7,228.3c3.2-4.2,8.2-6.4,11.9-3.5s4.1,8.6,0.9,12.7c-3.2,4.1-8.8,5.2-12.5,2.3S225.5,232.4,228.7,228.3z"
	/>
<path class="st20" d="M231.7,236.3c-2.1-4.2,0-11.1,6.9-12.6c-3.3-1-7.3,1.1-9.9,4.6c-3.2,4.2-3.4,8.7,0.3,11.5c3.3,2.5,8,2,11.3-1
	C238.2,239.4,233.9,240.4,231.7,236.3z"/>
<path class="st2" d="M201.5,169.4c-0.7,1.3-1.4,3.6-1.1,8.1c0.3,4.5,1.5,11.7,3.9,15.4s4.8,4.8,7.7,5s4.2-0.4,6.3,0.2
	c3.2,0.8,4.4-0.2,2.7-2.9s-4-6.3-4.8-8.9c-0.6-1.7-0.8-3.4-0.9-5.2c0.5-0.8,2.4,3.3,5,4.2c2.6,0.8,3.5-0.4,3.3-1.1
	c-0.3-0.7-1.9-2.1-3.3-4.7c-1.4-2.5-3.6-6.6-5.1-8.8s-2.8-3.5-7.7-3.5S202.4,167.9,201.5,169.4z"/>
<path class="st25" d="M201.5,169.4c-0.7,1.3-1.4,3.6-1.1,8.1c0.3,4.5,1.5,11.7,3.9,15.4s4.8,4.8,7.7,5s4.2-0.4,6.3,0.2
	c3.2,0.8,4.4-0.2,2.7-2.9s-4-6.3-4.8-8.9c-0.6-1.7-0.8-3.4-0.9-5.2c0.5-0.8,2.4,3.3,5,4.2c2.6,0.8,3.5-0.4,3.3-1.1
	c-0.3-0.7-1.9-2.1-3.3-4.7c-1.4-2.5-3.6-6.6-5.1-8.8s-2.8-3.5-7.7-3.5S202.4,167.9,201.5,169.4z"/>
<path class="st26" d="M204.3,193c2.3,3.8,4.8,4.8,7.7,5s4.2-0.4,6.3,0.2c1.8,0.5,2.9,0.4,3.3-0.3c-1.4,0.9-2.9-0.4-4.4-1.8
	s-5.9-1-7.2-1.8c-1.8-1-4.1-2-5.4-8.7c-1.3-6.7,1.5-7.4,3.4-13.1l-0.2-5.3h-0.3c-4.9,0-5.2,0.7-6.1,2.2c-0.7,1.3-1.4,3.6-1.1,8.1
	C200.5,182.1,202,189.3,204.3,193z"/>
<path class="st6" d="M245.8,84.8c2.7-1.4,4.8,2.2,5.5,7c0.7,4.7,0.3,8.1-2.2,9.2c-3.6,1.7-8.5-0.5-9.4-5.5
	C238.9,91.2,241.4,87.3,245.8,84.8z"/>
<path class="st6" d="M200.9,160.8c0,0,0.7,10.3,1.9,14.1c1.3,4,4.9,5.4,6.9,2.7s2.4-7.7,2.4-7.7l0.5-9.4L200.9,160.8z"/>
<path class="st2" d="M203.9,121.5c-4.2-0.9-6.9,2.8-6.6,9.3c0.3,6.5,3.3,33.5,3.3,33.5c0.1,0.9,2.2,1.8,6,1.6s6-2,6-2.7
	c0,0,1.4-24.3,1.8-27.2C215.3,130,209.7,122.7,203.9,121.5z"/>
<path class="st25" d="M203.9,121.5c-4.2-0.9-6.9,2.8-6.6,9.3c0.3,6.5,3.3,33.5,3.3,33.5c0.1,0.9,2.2,1.8,6,1.6s6-2,6-2.7
	c0,0,1.4-24.3,1.8-27.2C215.3,130,209.7,122.7,203.9,121.5z"/>
<path class="st26" d="M214.5,134.2c-0.4-5.6-5.4-11.6-10.6-12.7c-4.2-0.9-6.9,2.8-6.6,9.3c0.3,6.5,3.3,33.5,3.3,33.5
	c0.1,0.8,1.8,1.5,4.7,1.6c-0.4-3.9-0.6-9.1-0.8-13.8c-0.7-10.9-2.8-20.2,2.2-17.5C210.4,136.7,213.6,136.1,214.5,134.2z"/>
<path class="st6" d="M206.8,119.2l-3.9,4.3c0,0-1.2,3.2,2.6,6.5c3.7,3.2,6.5,2.4,6.5,2.4l6.2-4.7L206.8,119.2z"/>
<path class="st2" d="M244.8,83.6c4.4,3.9,5.9,17.3,2.5,21.2c-3.3,3.9-30.2,24.8-30.2,24.8c-3.5,2-13.9-5.4-11.4-10.3
	c0,0,19-22.6,23.9-28.5S240.3,79.7,244.8,83.6z"/>
<path class="st25" d="M244.8,83.6c4.4,3.9,5.9,17.3,2.5,21.2c-3.3,3.9-30.2,24.8-30.2,24.8c-3.5,2-13.9-5.4-11.4-10.3
	c0,0,19-22.6,23.9-28.5S240.3,79.7,244.8,83.6z"/>
<path class="st26" d="M244.8,83.6c-4.4-3.9-10.4,1.3-15.4,7.2c-4.9,5.9-23.9,28.5-23.9,28.5c-0.8,1.8,0,3.9,1.6,5.9
	c1.8-2.6,6-8.2,15.2-18.1c10.5-11.4,19.2-19.6,24.5-20.8C246.2,85.2,245.5,84.4,244.8,83.6z"/>
<path class="st27" d="M455.8,287.7c-0.2,0-0.3-0.1-0.4-0.1c-0.6-0.6-4.1-2.6-6.8-1.2c-0.2-0.3,0-0.7,0.6-1.2
	c2.5-0.4,5.1,0.2,7.1,1.8c0.2,0.2,0.2,0.5,0,0.6l0,0C456,287.7,455.9,287.7,455.8,287.7z"/>
<path class="st27" d="M454.5,291.1c-0.2,0-0.3-0.1-0.4-0.1c-0.6-0.6-4.1-2.6-6.8-1.2c-0.2-0.3,0-0.7,0.6-1.2
	c2.5-0.4,5.1,0.2,7.1,1.8c0.2,0.2,0.2,0.5,0,0.6l0,0C454.7,291.1,454.6,291.1,454.5,291.1z"/>
<path class="st27" d="M452.9,293.8c-0.2,0-0.3-0.1-0.4-0.1c-0.6-0.6-4.1-2.6-6.8-1.2c-0.2-0.3,0-0.7,0.6-1.2
	c2.5-0.4,5.1,0.2,7.1,1.8c0.2,0.2,0.2,0.5,0,0.6l0,0C453.1,293.8,453,293.8,452.9,293.8z"/>
<path class="st27" d="M408.8,277.5c-0.1,0-0.2,0-0.2,0c-0.1,0-0.1,0-0.2,0c-0.2,0-0.3-0.2-0.3-0.3c-0.2-0.5-1.3-1.9-2.8-2.8
	c0.3-0.2,0.5-0.4,0.8-0.6c1.2,0.7,2.2,1.8,3,3C409.2,277.1,409,277.4,408.8,277.5z"/>
<path class="st27" d="M406.2,279.1c-0.1,0-0.2,0-0.2,0c-0.1,0-0.1,0-0.2,0c-0.2,0-0.3-0.2-0.3-0.3c-0.2-0.5-1.2-1.9-2.6-2.9
	c0.3-0.2,0.5-0.3,0.8-0.5c1.2,0.8,2.2,1.9,2.8,3.2C406.5,278.8,406.4,279.1,406.2,279.1z"/>
<path class="st27" d="M403.6,280.6c-0.1,0-0.2,0-0.2,0c-0.1,0-0.1,0-0.2-0.1c-0.2-0.1-0.2-0.2-0.3-0.3c-0.1-0.5-0.9-2-2.3-3.2
	c0.3-0.1,0.6-0.3,0.9-0.4c1.1,0.9,1.9,2.1,2.4,3.5C404,280.3,403.8,280.6,403.6,280.6z"/>
<path class="st22" d="M438.7,300.9c0.6-0.4,1.3-0.8,2.3-1.1c1.2-0.4,2.2-0.5,2.9-0.5c0.8,0,1.6,0,2.6,0.1c1.3,0.1,2.4,0.4,3.4,0.7
	c0.7,0.2,1.5,0.6,2.5,1.3c1,0.8,1.6,1.7,1.9,2.3c0.4,0,1,0.1,1.7-0.2c1.4-0.6,1.9-2.2,2.2-3c0.4-1.1,0.2-1.5,0.5-3.2
	c0.2-1.3,0.5-2.4,0.7-3.1c0.4-1,0.8-2.1,1.2-3.1c0.7-1.2,1.5-2.3,2.2-3.5l1.1-2.9c0,0.3,0,0.6,0,1c0,0.5-0.1,0.9-0.2,1.2
	c0,0.2-0.1,0.4-0.2,0.6c0,0.1-0.1,0.2-0.1,0.2c-0.1,0.3-0.2,0.4-0.3,0.5c-0.2,0.4-0.3,0.5-0.5,0.8c-0.4,0.7-0.9,1.4-1.1,1.7
	c-0.4,0.5-0.8,1.2-1.3,2.2c-0.4,0.8-0.8,1.9-1,3.2c-0.1,0.4-0.1,0.9-0.1,1.3c0,0.2,0,0.5,0,0.9c0,0.7,0,0.8,0,1.1
	c0,0.3-0.1,0.8-0.3,1.4c-0.1,0.5-0.4,1.1-0.7,1.8c-0.4,0.7-0.8,1.3-1.2,1.7c-0.3,0.3-0.7,0.7-1.1,1c-1.5,1.2-3.2,1.6-4.2,1.8
	c-1.2,0.3-2.6,0.5-4.3,0.5c-1.4,0-2.7-0.1-3.7-0.3c-0.5-0.1-1-0.2-1.6-0.4c-1.2-0.4-2.2-0.9-3-1.4c-0.1-0.1-0.2-0.2-0.3-0.3
	c-0.1-0.2-0.2-0.3-0.2-0.5c-0.2-0.5-0.2-0.9-0.2-1.1c0-0.4,0-0.7,0-1c0,0,0-0.8,0.2-1.4c0-0.1,0-0.2,0.1-0.3
	C438.6,301.1,438.7,301,438.7,300.9z"/>
</svg>
