<?xml version="1.0" encoding="utf-8"?>
<!-- Generator: Adobe Illustrator 24.3.0, SVG Export Plug-In . SVG Version: 6.00 Build 0)  -->
<svg version="1.1" id="Camada_1" xmlns="http://www.w3.org/2000/svg" xmlns:xlink="http://www.w3.org/1999/xlink" x="0px" y="0px"
	 viewBox="0 0 500 532.4" style="enable-background:new 0 0 500 532.4;" xml:space="preserve">
<style type="text/css">
	.st0{opacity:0.28;fill:#C9C9C9;enable-background:new    ;}
	.st1{fill:#455A64;}
	.st2{fill:#263238;}
	.st3{fill:#37474F;}
	.st4{fill:#28CECE;}
	.st5{fill:#FFFFFF;}
	.st6{opacity:0.15;enable-background:new    ;}
	.st7{opacity:0.9;fill:#263238;enable-background:new    ;}
	.st8{opacity:0.6;fill:#FFFFFF;enable-background:new    ;}
	.st9{fill:#96EA28;}
	.st10{opacity:0.7;fill:#FFFFFF;enable-background:new    ;}
	.st11{opacity:0.3;fill:#FFFFFF;enable-background:new    ;}
	.st12{fill:#596D75;}
	.st13{opacity:0.3;enable-background:new    ;}
	.st14{fill:#E0E0E0;}
	.st15{fill:#F5F5F5;}
	.st16{fill:#CF8270;}
	.st17{opacity:0.8;fill:#FFFFFF;enable-background:new    ;}
	.st18{fill:#26AAA7;}
	.st19{fill:#FFA8A7;}
	.st20{fill:#9D3848;}
	.st21{fill:#4569F4;}
	.st22{fill:#4D7FFA;}
	.st23{fill:#F28F8F;}
	.st24{fill:#B16668;}
	.st25{fill:#9A4A4D;}
	.st26{opacity:0.1;enable-background:new    ;}
	.st27{fill:#D8935B;}
	.st28{fill:#F5AC68;}
	.st29{fill:#FAFAFA;}
	.st30{fill:#EBEBEB;}
	.st31{opacity:0.2;enable-background:new    ;}
	.st32{opacity:0.5;fill:#FFFFFF;enable-background:new    ;}
	.st33{fill:#58C9BE;}
</style>
<ellipse transform="matrix(0.9896 -0.1438 0.1438 0.9896 -51.9313 39.0817)" class="st0" cx="244.4" cy="378.8" rx="246" ry="151"/>
<g>
	<polygon class="st1" points="265.8,68.5 272.7,88.9 264.4,116.1 262.5,112.6 269.8,88.8 262.5,71.3 	"/>
	<polygon class="st2" points="256.1,110.1 262.5,88.9 269.8,88.8 262.5,112.6 	"/>
	<polygon class="st3" points="256.1,110.1 256.6,112.6 264.4,116.1 262.5,112.6 	"/>
</g>
<path class="st1" d="M226.1,88v161.6c0.1,3,1.7,5.7,4.2,7.3l182.9,105.3l4,2.3l0,0l0.1,0.1c0.4,0.3,0.9,0.4,1.3,0.4
	c0.1,0,0.3-0.1,0.4-0.1c0.2,0,0.3,0,0.4-0.1c0.1,0,0.1,0,0.2-0.1l0.2-0.1c1-0.4,1.6-1.4,1.6-2.6V200.6c-0.1-3-1.7-5.7-4.2-7.3
	l-187-107.6c-0.8-0.6-1.9-0.8-2.9-0.4c-0.2,0-0.3,0.1-0.4,0.2l0,0c-0.1,0.1-0.2,0.2-0.3,0.3c0,0.1-0.1,0.1-0.1,0.2
	c0,0-0.1,0.1-0.1,0.2c-0.2,0.1-0.2,0.3-0.3,0.4c0,0.1-0.1,0.3-0.1,0.4v0.1c-0.1,0.1-0.1,0.3-0.1,0.4C226.1,87.8,226,87.9,226.1,88z"
	/>
<path class="st4" d="M233.2,82.2c1-0.4,2.1-0.4,3,0.3l187,107.7c2.4,1.7,4,4.4,4.2,7.3v6.1l-5.4,3.1v-6.2c-0.1-3-1.7-5.7-4.2-7.3
	l-187-107.6c-0.8-0.6-1.9-0.8-2.9-0.4C228.9,84.8,232.4,82.6,233.2,82.2z"/>
<path class="st4" d="M226.5,94.3L422,206.8v-6.3c-0.1-3-1.7-5.7-4.2-7.3l-187-107.6c-2.3-1.3-4.2-0.2-4.2,2.4L226.5,94.3L226.5,94.3
	z"/>
<path class="st5" d="M228,85.1c0.9-0.4,4.4-2.4,5.2-3c1-0.4,2.1-0.4,3,0.3l187,107.5c1.3,0.8,2.2,1.9,3,3.1l-5.4,3.1
	c-0.7-1.3-1.7-2.3-3-3.1l-187-107.5C229.9,84.9,228.9,84.8,228,85.1z"/>
<path class="st6" d="M422.1,206.9v-6.3c-0.1-1.4-0.4-3-1.3-4.2l5.4-3.1c0.8,1.3,1.2,2.8,1.3,4.2v6.2L422.1,206.9z"/>
<path class="st7" d="M420.5,364.7L420.5,364.7c0.1-0.1,0.1-0.1,0.3-0.1c0.8-0.6,1.3-1.4,1.3-2.4V206.7l5.4-3.2V358
	c0,0.2,0,0.4,0,0.6c-0.2,1.3-1.1,2.7-2.2,3.3l-4.6,2.7L420.5,364.7L420.5,364.7z"/>
<path class="st4" d="M392.8,202.6c0,0.7-0.4,0.9-1.1,0.6l-39.2-22.7c-0.6-0.4-1-1.1-1.1-1.8c0-0.6,0.4-0.8,1.1-0.4l39.2,22.5
	C392.3,201.1,392.7,201.8,392.8,202.6z"/>
<path class="st4" d="M375.4,220.5c0,0.7-0.4,0.9-1.1,0.6l-76-43.9c-0.6-0.4-1-1.1-1.1-1.8c0-0.7,0.4-0.9,1.1-0.6l75.8,43.9
	C374.9,219,375.3,219.8,375.4,220.5z"/>
<path class="st4" d="M349.5,177.5c0,0.7-0.4,0.9-1.1,0.6l-50.7-29.2c-0.6-0.4-1-1.1-1.1-1.8c0-0.7,0.4-0.9,1.1-0.6l50.7,29.2
	C349.1,176.2,349.5,176.8,349.5,177.5z"/>
<path class="st4" d="M392.8,209.1c0,0.7-0.4,1-1.1,0.6l-18.3-10.5c-0.6-0.4-1-1.1-1.1-1.8c0-0.7,0.4-1,1.1-0.6l18.3,10.5
	C392.3,207.8,392.7,208.5,392.8,209.1z"/>
<path class="st8" d="M392.8,209.1c0,0.7-0.4,1-1.1,0.6l-18.3-10.5c-0.6-0.4-1-1.1-1.1-1.8c0-0.7,0.4-1,1.1-0.6l18.3,10.5
	C392.3,207.8,392.7,208.5,392.8,209.1z"/>
<path class="st4" d="M392.8,215.7c0,0.7-0.4,0.9-1.1,0.6l-9.8-5.7c-0.6-0.4-1-1.1-1.1-1.8c0-0.7,0.4-0.9,1.1-0.6l9.8,5.7
	C392.3,214.4,392.7,215,392.8,215.7z"/>
<g>
	<path class="st9" d="M198.1,152.9l-28.5,4.1L147.7,51.2c1.3-4.3,14.2-8.9,17.5-3.2L198.1,152.9z"/>
	<path class="st10" d="M198.1,152.9l-28.5,4.1L147.7,51.2c1.3-4.3,14.2-8.9,17.5-3.2L198.1,152.9z"/>
	<path class="st9" d="M215.3,174c2,1.2,4.2,2,6.7,2.1l0.7,1.2l3.7-2l0,0c3-1.6,5-5.1,5-10.3c-0.6-11.1-6.2-21.4-15.5-27.5
		c-4.3-2.7-8.6-2.9-11.3-1.1l0,0l-3.7,2l0.7,1.1c-1.1,2.1-1.7,4.6-1.7,6.9C200.2,157.6,206,167.8,215.3,174z"/>
	<path class="st11" d="M215.3,174c2,1.2,4.2,2,6.7,2.1l0.7,1.2l3.7-2l0,0c3-1.6,5-5.1,5-10.3c-0.6-11.1-6.2-21.4-15.5-27.5
		c-4.3-2.7-8.6-2.9-11.3-1.1l0,0l-3.7,2l0.7,1.1c-1.1,2.1-1.7,4.6-1.7,6.9C200.2,157.6,206,167.8,215.3,174z"/>
	<path class="st9" d="M195.8,148.6c0.6,11.1,6.2,21.4,15.5,27.7c8.7,5.1,15.9,1.1,16-9c-0.6-11.1-6.2-21.4-15.5-27.7
		C203.1,134.6,196,138.5,195.8,148.6z"/>
	<path class="st6" d="M195.8,148.6c0.6,11.1,6.2,21.4,15.5,27.7c8.7,5.1,15.9,1.1,16-9c-0.6-11.1-6.2-21.4-15.5-27.7
		C203.1,134.6,196,138.5,195.8,148.6z"/>
	<path class="st2" d="M142.6,295.4c23.9,13.8,62.5,13.8,86.3,0c12.1-7,18.1-14.2,17.9-21.5l0,0V256h-13.3c-1.3-1-2.9-1.9-4.6-2.8
		c-23.9-13.8-62.5-13.8-86.3,0c-1.7,0.9-3.1,1.9-4.6,2.8h-13.5v17.9l0,0C124.2,281.2,130.2,288.4,142.6,295.4z"/>
	<path class="st3" d="M142.5,281.1c-23.9-13.8-24-36,0-49.7s62.5-13.8,86.3,0c23.9,13.8,23.9,36,0,49.7
		C205,294.9,166.3,294.9,142.5,281.1z"/>
	<path class="st12" d="M145.8,256.4L145.8,256.4c0.1,5.8,3.9,11.7,11.7,16c15.5,8.9,40.8,8.9,56.3,0c7.8-4.3,11.8-10.2,11.8-16.1
		l0,0v-82.2c0-1.2,0-2.6,0-3.8c-1-22-19.7-39-41.6-37.9c-22,1-39,19.7-37.9,41.6l0,0v82.1l0,0L145.8,256.4z"/>
	<path class="st9" d="M166.9,201.2c2,1.2,4.3,2,6.7,2.1l0.8,1.2l3.6-2l0,0c3-1.7,5-5.2,5-10.3c-0.7-11.1-6.6-21.4-15.8-27.5
		c-4.6-2.7-8.6-2.8-11.3-1l0,0l-3.7,2.1l0.7,1.1c-1.1,2.1-1.7,4.6-1.6,6.9C151.8,185,157.7,195.1,166.9,201.2z"/>
	<path class="st11" d="M166.9,201.2c2,1.2,4.3,2,6.7,2.1l0.8,1.2l3.6-2l0,0c3-1.7,5-5.2,5-10.3c-0.7-11.1-6.6-21.4-15.8-27.5
		c-4.6-2.7-8.6-2.8-11.3-1l0,0l-3.7,2.1l0.7,1.1c-1.1,2.1-1.7,4.6-1.6,6.9C151.8,185,157.7,195.1,166.9,201.2z"/>
	<path class="st9" d="M147.1,176.2c0.7,11.1,6.6,21.4,15.8,27.5c8.8,5.1,15.9,1,15.9-9.1c-0.7-11.1-6.6-21.4-15.8-27.5
		C154.3,162,147.1,166,147.1,176.2z"/>
	<path class="st10" d="M147.1,176.2c0.7,11.1,6.6,21.4,15.8,27.5c8.8,5.1,15.9,1,15.9-9.1c-0.7-11.1-6.6-21.4-15.8-27.5
		C154.3,162,147.1,166,147.1,176.2z"/>
	<path class="st9" d="M163,176.6c-1.1-0.8-2.7-1.1-4-1c-2.1,0.2-3.6,2.2-3.6,5.3c0.2,5.3,3,10.2,7.6,13.1c3.1,1.8,5.9,1.1,7-1.2
		c0.3-1,0.7-2,0.7-3.1C170.3,184.4,167.6,179.5,163,176.6z"/>
	<path class="st1" d="M163,176.6c-1.1-0.8-2.7-1.1-4-1c-0.3,1-0.7,2-0.7,3.1c0.2,5.3,3.1,10.2,7.6,13.1c1.2,0.8,2.7,1.1,4,1
		c0.3-1,0.7-2,0.7-3.1C170.3,184.4,167.6,179.5,163,176.6z"/>
	<path class="st9" d="M169.8,235.6L169.8,235.6L169.8,235.6L169.8,235.6l-2.7,1.7l-1.1-2l0,0c-3.1-2-5.1-5.6-5.3-9.1
		c0-0.1,0-0.2,0-0.2l-1-1.8l2.3-1.3l0,0c1.2-0.7,2.8-0.6,3.9,0.2c3.1,2,5.1,5.6,5.2,9.1C171.4,233.6,170.9,234.8,169.8,235.6z"/>
	<path class="st13" d="M169.8,235.6L169.8,235.6L169.8,235.6L169.8,235.6l-2.7,1.7l-1.1-2l0,0c-3.1-2-5.1-5.6-5.3-9.1
		c0-0.1,0-0.2,0-0.2l-1-1.8l2.3-1.3l0,0c1.2-0.7,2.8-0.6,3.9,0.2c3.1,2,5.1,5.6,5.2,9.1C171.4,233.6,170.9,234.8,169.8,235.6z"/>
	<path class="st9" d="M163.5,224.6c3.1,2,5.1,5.6,5.2,9.1c0,3.3-2.3,4.8-5.3,3c-3.1-2-5.1-5.6-5.2-9.1S160.5,222.8,163.5,224.6z"/>
	<path class="st14" d="M169.8,258.3L169.8,258.3L169.8,258.3L169.8,258.3l-2.7,1.6L166,258l0,0c-3.1-2-5.1-5.6-5.3-9.1
		c0-0.1,0-0.2,0-0.2l-1-1.8l2.3-1.3l0,0c1.2-0.7,2.8-0.6,3.9,0.2c3.1,2,5.1,5.6,5.2,9.1C171.4,256.3,170.9,257.6,169.8,258.3z"/>
	<path class="st15" d="M163.5,247.3c3.1,2,5.1,5.6,5.2,9.1c0,3.3-2.3,4.8-5.3,3c-3.1-2-5.1-5.6-5.2-9.1
		C158.1,246.9,160.5,245.6,163.5,247.3z"/>
</g>
<path class="st8" d="M392.8,215.7c0,0.7-0.4,0.9-1.1,0.6l-9.8-5.7c-0.6-0.4-1-1.1-1.1-1.8c0-0.7,0.4-0.9,1.1-0.6l9.8,5.7
	C392.3,214.4,392.7,215,392.8,215.7z"/>
<path class="st4" d="M370.3,196.3c0,0.7-0.4,1-1.1,0.6L322.6,170c-0.6-0.4-1-1.1-1.1-1.8c0-0.7,0.4-0.9,1.1-0.6l46.6,26.9
	C369.9,194.8,370.2,195.5,370.3,196.3z"/>
<path class="st8" d="M370.3,196.3c0,0.7-0.4,1-1.1,0.6L322.6,170c-0.6-0.4-1-1.1-1.1-1.8c0-0.7,0.4-0.9,1.1-0.6l46.6,26.9
	C369.9,194.8,370.2,195.5,370.3,196.3z"/>
<path class="st16" d="M347.5,228.2c0,0.6-0.4,0.9-1.1,0.4l-48.6-28.1c-0.6-0.4-1-1.1-1.1-1.8c0-0.7,0.4-0.9,1.1-0.6l48.6,28.1
	C346.9,226.8,347.3,227.5,347.5,228.2z"/>
<path class="st16" d="M347.5,221.5c0,0.7-0.4,1-1.1,0.6L297.8,194c-0.6-0.4-1-1.1-1.1-1.8c0-0.6,0.4-0.9,1.1-0.4l48.6,28.1
	C346.9,220.1,347.3,220.8,347.5,221.5z"/>
<path class="st4" d="M379.7,208.1c0,0.7-0.4,0.9-1.1,0.6l-21.2-12.2c-0.6-0.4-1-1.1-1.1-1.8c0-0.7,0.4-1,1.1-0.6l21.2,12.3
	C379.1,206.9,379.6,207.5,379.7,208.1z"/>
<path class="st8" d="M379.7,208.1c0,0.7-0.4,0.9-1.1,0.6l-21.2-12.2c-0.6-0.4-1-1.1-1.1-1.8c0-0.7,0.4-1,1.1-0.6l21.2,12.3
	C379.1,206.9,379.6,207.5,379.7,208.1z"/>
<path class="st4" d="M354.3,193.6c0,0.7-0.4,0.9-1.1,0.6l-55-31.4c-0.6-0.4-1-1.1-1.1-1.8c0-0.7,0.4-0.9,1.1-0.6l55,31.4
	C353.8,192.1,354.2,192.8,354.3,193.6z"/>
<path class="st8" d="M354.3,193.6c0,0.7-0.4,0.9-1.1,0.6l-55-31.4c-0.6-0.4-1-1.1-1.1-1.8c0-0.7,0.4-0.9,1.1-0.6l55,31.4
	C353.8,192.1,354.2,192.8,354.3,193.6z"/>
<path class="st4" d="M379.7,215.2c0,0.7-0.4,0.9-1.1,0.6l-21.2-12.2c-0.6-0.4-1-1.1-1.1-1.8c0-0.7,0.4-1,1.1-0.6l21.2,12.3
	C379.1,213.9,379.6,214.6,379.7,215.2z"/>
<path class="st8" d="M379.7,215.2c0,0.7-0.4,0.9-1.1,0.6l-21.2-12.2c-0.6-0.4-1-1.1-1.1-1.8c0-0.7,0.4-1,1.1-0.6l21.2,12.3
	C379.1,213.9,379.6,214.6,379.7,215.2z"/>
<path class="st4" d="M354.3,200.7c0,0.7-0.4,0.9-1.1,0.6l-55-31.4c-0.6-0.4-1-1.1-1.1-1.8c0-0.7,0.4-0.9,1.1-0.6l55,31.4
	C353.8,199.3,354.2,199.9,354.3,200.7z"/>
<path class="st8" d="M354.3,200.7c0,0.7-0.4,0.9-1.1,0.6l-55-31.4c-0.6-0.4-1-1.1-1.1-1.8c0-0.7,0.4-0.9,1.1-0.6l55,31.4
	C353.8,199.3,354.2,199.9,354.3,200.7z"/>
<path class="st16" d="M347.5,234.9c0,0.6-0.4,0.9-1.1,0.4l-48.6-28c-0.6-0.4-1-1.1-1.1-1.8c0-0.7,0.4-1,1.1-0.6l48.6,28
	C346.9,233.5,347.3,234.1,347.5,234.9z"/>
<path class="st16" d="M347.5,241.4c0,0.7-0.4,0.9-1.1,0.6l-48.6-28c-0.6-0.4-1-1.1-1.1-1.8c0-0.7,0.4-1,1.1-0.6l48.6,28
	C346.9,240,347.3,240.7,347.5,241.4z"/>
<path class="st16" d="M347.5,248c0,0.7-0.4,0.9-1.1,0.6l-48.6-28c-0.6-0.4-1-1.1-1.1-1.8c0-0.7,0.4-1,1.1-0.6l48.6,28
	C346.9,246.7,347.3,247.3,347.5,248z"/>
<path class="st4" d="M347.5,256.9c0,0.7-0.4,1-1.1,0.6l-48.6-28c-0.6-0.4-1-1.1-1.1-1.8c0-0.7,0.4-1,1.1-0.6l48.6,28
	C346.9,255.4,347.3,256.1,347.5,256.9z"/>
<path class="st4" d="M395.7,284.8c0,0.7-0.4,1-1.1,0.6l-9.9-5.7c-0.6-0.4-1-1.1-1.1-1.8c0-0.7,0.4-0.9,1.1-0.6l9.9,5.7
	C395.2,283.3,395.5,284,395.7,284.8z"/>
<path class="st8" d="M395.7,284.8c0,0.7-0.4,1-1.1,0.6l-9.9-5.7c-0.6-0.4-1-1.1-1.1-1.8c0-0.7,0.4-0.9,1.1-0.6l9.9,5.7
	C395.2,283.3,395.5,284,395.7,284.8z"/>
<path class="st4" d="M395.7,290.8c0,0.7-0.4,0.9-1.1,0.6l-9.9-5.7c-0.6-0.4-1-1.1-1.1-1.8c0-0.7,0.4-1,1.1-0.6l9.9,5.7
	C395.2,289.3,395.5,290.1,395.7,290.8z"/>
<path class="st8" d="M395.7,290.8c0,0.7-0.4,0.9-1.1,0.6l-9.9-5.7c-0.6-0.4-1-1.1-1.1-1.8c0-0.7,0.4-1,1.1-0.6l9.9,5.7
	C395.2,289.3,395.5,290.1,395.7,290.8z"/>
<path class="st16" d="M347.5,262.9c0,0.7-0.4,1-1.1,0.6l-48.6-28.1c-0.6-0.4-1-1.1-1.1-1.8c0-0.7,0.4-0.9,1.1-0.6l48.6,28.1
	C346.9,261.4,347.3,262.2,347.5,262.9z"/>
<path class="st4" d="M379.2,324.7c0,0.6-0.4,0.9-1.1,0.4l-25.5-14.8c-0.6-0.4-1-1.1-1.1-1.8c0-0.7,0.4-0.9,1.1-0.6l25.5,14.8
	C378.8,323.3,379.2,323.8,379.2,324.7z"/>
<path class="st4" d="M349.5,307.4c0,0.7-0.4,0.9-1.1,0.6l-50.7-29.1c-0.6-0.4-1-1.1-1.1-1.8c0-0.7,0.4-0.9,1.1-0.6l50.7,29.1
	C349.1,306.1,349.5,306.7,349.5,307.4z"/>
<path class="st4" d="M395.7,334.2c0,0.6-0.4,0.8-1.1,0.4l-9.9-5.7c-0.6-0.4-1-1.1-1.1-1.8c0-0.6,0.4-0.9,1.1-0.4l9.9,5.7
	C395.2,332.6,395.5,333.4,395.7,334.2z"/>
<path class="st8" d="M395.7,334.2c0,0.6-0.4,0.8-1.1,0.4l-9.9-5.7c-0.6-0.4-1-1.1-1.1-1.8c0-0.6,0.4-0.9,1.1-0.4l9.9,5.7
	C395.2,332.6,395.5,333.4,395.7,334.2z"/>
<path class="st4" d="M395.7,340.1c0,0.6-0.4,0.9-1.1,0.4l-9.9-5.7c-0.6-0.4-1-1.1-1.1-1.8c0-0.6,0.4-0.8,1.1-0.4l9.9,5.7
	C395.2,338.6,395.5,339.4,395.7,340.1z"/>
<path class="st8" d="M395.7,340.1c0,0.6-0.4,0.9-1.1,0.4l-9.9-5.7c-0.6-0.4-1-1.1-1.1-1.8c0-0.6,0.4-0.8,1.1-0.4l9.9,5.7
	C395.2,338.6,395.5,339.4,395.7,340.1z"/>
<path class="st16" d="M345.3,311c0,0.7-0.4,1-1.1,0.6l-46.6-26.9c-0.6-0.4-1-1.1-1.1-1.8c0-0.7,0.4-1,1.1-0.6l46.6,26.9
	C345,309.6,345.3,310.3,345.3,311z"/>
<path class="st4" d="M379.7,295.8c0,0.7-0.4,0.9-1.1,0.6l-80.8-46.5c-0.6-0.4-1-1.1-1.1-1.8c0-0.7,0.4-0.9,1.1-0.6l80.8,46.5
	C379.1,294.4,379.6,295.1,379.7,295.8z"/>
<path class="st4" d="M395.7,305c0,0.7-0.4,1-1.1,0.6l-9.9-5.7c-0.6-0.4-1-1.1-1.1-1.8c0-0.7,0.4-1,1.1-0.6l9.9,5.7
	C395.2,303.6,395.5,304.2,395.7,305z"/>
<path class="st8" d="M395.7,305c0,0.7-0.4,1-1.1,0.6l-9.9-5.7c-0.6-0.4-1-1.1-1.1-1.8c0-0.7,0.4-1,1.1-0.6l9.9,5.7
	C395.2,303.6,395.5,304.2,395.7,305z"/>
<path class="st4" d="M379.7,302.2c0,0.7-0.4,1-1.1,0.6l-80.8-46.4c-0.6-0.4-1-1.1-1.1-1.8c0-0.7,0.4-0.9,1.1-0.6l80.8,46.5
	C379.1,301,379.6,301.5,379.7,302.2z"/>
<path class="st4" d="M395.7,311.6c0,0.7-0.4,1-1.1,0.6l-9.9-5.7c-0.6-0.4-1-1.1-1.1-1.8c0-0.7,0.4-1,1.1-0.6l9.9,5.7
	C395.2,310.2,395.5,310.9,395.7,311.6z"/>
<path class="st8" d="M395.7,311.6c0,0.7-0.4,1-1.1,0.6l-9.9-5.7c-0.6-0.4-1-1.1-1.1-1.8c0-0.7,0.4-1,1.1-0.6l9.9,5.7
	C395.2,310.2,395.5,310.9,395.7,311.6z"/>
<path class="st16" d="M379.7,309c0,0.7-0.4,1-1.1,0.6L297.7,263c-0.6-0.4-1-1.1-1.1-1.8c0-0.7,0.4-0.9,1.1-0.6l80.8,46.5
	C379.1,307.5,379.6,308.3,379.7,309z"/>
<path class="st4" d="M395.7,318.3c0,0.6-0.4,0.9-1.1,0.4l-9.9-5.7c-0.6-0.4-1-1.1-1.1-1.8c0-0.7,0.4-1,1.1-0.6l9.9,5.7
	C395.2,316.9,395.5,317.5,395.7,318.3z"/>
<path class="st8" d="M395.7,318.3c0,0.6-0.4,0.9-1.1,0.4l-9.9-5.7c-0.6-0.4-1-1.1-1.1-1.8c0-0.7,0.4-1,1.1-0.6l9.9,5.7
	C395.2,316.9,395.5,317.5,395.7,318.3z"/>
<path class="st5" d="M411,298.6v2.2c0,0.7-0.4,0.9-1.1,0.6l-5.8-3.3c-0.7-0.4-1.1-1.1-1.1-1.9V294c0-0.7,0.4-0.9,1.1-0.6l5.8,3.3
	C410.6,297.1,410.9,297.9,411,298.6z"/>
<path class="st5" d="M411,307.1v2.2c0,0.7-0.4,0.9-1.1,0.6l-5.8-3.3c-0.7-0.4-1.1-1.1-1.1-1.9v-2.2c0-0.7,0.4-0.9,1.1-0.6l5.8,3.3
	C410.6,305.6,411,306.3,411,307.1z"/>
<path class="st5" d="M411,315.5v2.2c0,0.7-0.4,0.9-1.1,0.6l-5.8-3.3c-0.7-0.4-1.1-1.1-1.1-1.9v-2.2c0-0.7,0.4-0.9,1.1-0.6l5.8,3.4
	C410.5,314.2,410.9,314.9,411,315.5z"/>
<path class="st5" d="M411,324v2.2c0,0.7-0.4,0.9-1.1,0.6l-5.8-3.3c-0.7-0.4-1.1-1.1-1.1-1.8v-2.2c0-0.7,0.4-0.9,1.1-0.6l5.8,3.3
	C410.6,322.6,410.9,323.3,411,324z"/>
<path class="st4" d="M395.7,248.4c0,0.7-0.4,0.9-1.1,0.6l-9.9-5.7c-0.6-0.4-1-1.1-1.1-1.8c0-0.7,0.4-1,1.1-0.6l9.9,5.7
	C395.2,247.1,395.5,247.8,395.7,248.4z"/>
<path class="st8" d="M395.7,248.4c0,0.7-0.4,0.9-1.1,0.6l-9.9-5.7c-0.6-0.4-1-1.1-1.1-1.8c0-0.7,0.4-1,1.1-0.6l9.9,5.7
	C395.2,247.1,395.5,247.8,395.7,248.4z"/>
<path class="st4" d="M395.7,262.8c0,0.7-0.4,1-1.1,0.6l-9.9-5.7c-0.6-0.4-1-1.1-1.1-1.8c0-0.7,0.4-1,1.1-0.6l9.9,5.7
	C395.2,261.4,395.5,262.1,395.7,262.8z"/>
<path class="st8" d="M395.7,262.8c0,0.7-0.4,1-1.1,0.6l-9.9-5.7c-0.6-0.4-1-1.1-1.1-1.8c0-0.7,0.4-1,1.1-0.6l9.9,5.7
	C395.2,261.4,395.5,262.1,395.7,262.8z"/>
<path class="st4" d="M395.7,269.3c0,0.7-0.4,1-1.1,0.6l-9.9-5.7c-0.6-0.4-1-1.1-1.1-1.8c0-0.7,0.4-1,1.1-0.6l9.9,5.7
	C395.2,268,395.5,268.7,395.7,269.3z"/>
<path class="st8" d="M395.7,269.3c0,0.7-0.4,1-1.1,0.6l-9.9-5.7c-0.6-0.4-1-1.1-1.1-1.8c0-0.7,0.4-1,1.1-0.6l9.9,5.7
	C395.2,268,395.5,268.7,395.7,269.3z"/>
<path class="st4" d="M395.7,276.1c0,0.7-0.4,1-1.1,0.6l-9.9-5.7c-0.6-0.4-1-1.1-1.1-1.8c0-0.7,0.4-1,1.1-0.6l9.9,5.7
	C395.2,274.7,395.5,275.3,395.7,276.1z"/>
<path class="st8" d="M395.7,276.1c0,0.7-0.4,1-1.1,0.6l-9.9-5.7c-0.6-0.4-1-1.1-1.1-1.8c0-0.7,0.4-1,1.1-0.6l9.9,5.7
	C395.2,274.7,395.5,275.3,395.7,276.1z"/>
<path class="st5" d="M411,256.3v2.1c0,0.7-0.4,0.9-1.1,0.6l-5.8-3.3c-0.7-0.4-1.1-1.1-1.1-1.9v-2.1c0-0.7,0.4-0.9,1.1-0.6l5.8,3.3
	C410.6,254.9,410.9,255.6,411,256.3z"/>
<path class="st5" d="M411,264.9v2.2c0,0.7-0.4,0.9-1.1,0.6l-5.8-3.3c-0.7-0.4-1.1-1.1-1.1-1.9v-2.1c0-0.7,0.4-0.9,1.1-0.6l5.8,3.3
	C410.6,263.4,410.9,264.1,411,264.9z"/>
<path class="st5" d="M411,273.4v2.2c0,0.7-0.4,0.9-1.1,0.6l-5.8-3.3c-0.7-0.4-1.1-1.1-1.1-1.9v-2.1c0-0.7,0.4-0.9,1.1-0.6l5.8,3.3
	C410.6,271.9,411,272.7,411,273.4z"/>
<path class="st5" d="M411,281.9v2.2c0,0.7-0.4,0.9-1.1,0.6l-5.8-3.3c-0.7-0.4-1.1-1.1-1.1-1.9v-2.2c0-0.7,0.4-0.9,1.1-0.6l5.8,3.3
	C410.6,280.5,411,281.2,411,281.9z"/>
<path class="st5" d="M411,340.7v2.2c0,0.7-0.4,0.9-1.1,0.6l-5.8-3.3c-0.7-0.4-1.1-1.1-1.1-1.9v-2.2c0-0.7,0.4-0.9,1.1-0.6l5.8,3.3
	C410.6,339.4,410.9,339.9,411,340.7z"/>
<path class="st5" d="M411,349.2v2.2c0,0.7-0.4,0.9-1.1,0.6l-5.8-3.3c-0.7-0.4-1.1-1.1-1.1-1.9v-2.2c0-0.7,0.4-0.9,1.1-0.6l5.8,3.3
	C410.5,347.8,410.9,348.5,411,349.2z"/>
<path class="st5" d="M411,214.1v2.1c0,0.7-0.4,0.9-1.1,0.6l-5.8-3.3c-0.7-0.4-1.1-1.1-1.1-1.9v-2.1c0-0.7,0.4-0.9,1.1-0.6l5.8,3.4
	C410.5,212.8,410.9,213.5,411,214.1z"/>
<path class="st5" d="M411,222.6v2.1c0,0.7-0.4,0.9-1.1,0.6l-5.8-3.3c-0.7-0.4-1.1-1.1-1.1-1.8V218c0-0.7,0.4-0.9,1.1-0.6l5.8,3.3
	C410.6,221.2,410.9,221.9,411,222.6z"/>
<path class="st5" d="M411,231.1v2.1c0,0.7-0.4,0.9-1.1,0.6l-5.8-3.3c-0.7-0.4-1.1-1.1-1.1-1.9v-2.1c0-0.7,0.4-0.9,1.1-0.6l5.8,3.3
	C410.6,229.8,410.9,230.3,411,231.1z"/>
<path class="st5" d="M411,239.8v2.1c0,0.7-0.4,0.9-1.1,0.6l-5.8-3.3c-0.7-0.4-1.1-1.1-1.1-1.9v-2.1c0-0.7,0.4-0.9,1.1-0.6l5.8,3.3
	C410.6,238.2,410.9,239,411,239.8z"/>
<path class="st3" d="M236.2,178.3v67.1c0.1,2.1,1.2,4,3,5.2l44.6,25.8c1.7,0.9,3,0.1,3-1.8v-67.1c-0.2-2.1-1.3-4-3-5.2l-44.6-25.8
	C237.5,175.5,236.2,176.3,236.2,178.3z"/>
<path class="st4" d="M241.9,228.2c0,1.1,0.6,2,1.4,2.6l4.1,2.3c0.8,0.4,1.4,0.1,1.4-0.8c0-1.1-0.6-2-1.4-2.6l-4.1-2.3
	C242.5,227,241.9,227.3,241.9,228.2z"/>
<path class="st8" d="M241.9,228.2c0,1.1,0.6,2,1.4,2.6l4.1,2.3c0.8,0.4,1.4,0.1,1.4-0.8c0-1.1-0.6-2-1.4-2.6l-4.1-2.3
	C242.5,227,241.9,227.3,241.9,228.2z"/>
<path class="st4" d="M241.9,186.1c0,1.1,0.6,2,1.4,2.6l4.1,2.3c0.8,0.4,1.4,0.1,1.4-0.8c0-1.1-0.6-2-1.4-2.6l-4.1-2.3
	C242.5,184.8,241.9,185.1,241.9,186.1z"/>
<path class="st8" d="M241.9,186.1c0,1.1,0.6,2,1.4,2.6l4.1,2.3c0.8,0.4,1.4,0.1,1.4-0.8c0-1.1-0.6-2-1.4-2.6l-4.1-2.3
	C242.5,184.8,241.9,185.1,241.9,186.1z"/>
<path class="st4" d="M247.6,197.8c0,1.1,0.6,2,1.4,2.6l4.1,2.3c0.8,0.4,1.4,0.1,1.4-0.8c0-1.1-0.6-2-1.4-2.6L249,197
	C248.2,196.5,247.5,196.9,247.6,197.8z"/>
<path class="st8" d="M247.6,197.8c0,1.1,0.6,2,1.4,2.6l4.1,2.3c0.8,0.4,1.4,0.1,1.4-0.8c0-1.1-0.6-2-1.4-2.6L249,197
	C248.2,196.5,247.5,196.9,247.6,197.8z"/>
<path class="st4" d="M247.6,206.2c0,1.1,0.6,2,1.4,2.6l4.1,2.3c0.8,0.4,1.4,0.1,1.4-0.8c0-1.1-0.6-2-1.4-2.6l-4.1-2.3
	C248.2,205,247.5,205.2,247.6,206.2z"/>
<path class="st8" d="M247.6,206.2c0,1.1,0.6,2,1.4,2.6l4.1,2.3c0.8,0.4,1.4,0.1,1.4-0.8c0-1.1-0.6-2-1.4-2.6l-4.1-2.3
	C248.2,205,247.5,205.2,247.6,206.2z"/>
<path class="st4" d="M241.9,211.4c0,1.1,0.6,2,1.4,2.6l4.1,2.3c0.8,0.4,1.4,0.1,1.4-0.8c0-1.1-0.6-2-1.4-2.6l-4.1-2.3
	C242.5,210.1,241.9,210.5,241.9,211.4z"/>
<path class="st8" d="M241.9,211.4c0,1.1,0.6,2,1.4,2.6l4.1,2.3c0.8,0.4,1.4,0.1,1.4-0.8c0-1.1-0.6-2-1.4-2.6l-4.1-2.3
	C242.5,210.1,241.9,210.5,241.9,211.4z"/>
<path class="st4" d="M247.6,223.1c0,1.1,0.6,2,1.4,2.6l4.1,2.3c0.8,0.4,1.4,0.1,1.4-0.8c0-1.1-0.6-2-1.4-2.6l-4.1-2.3
	C248.2,221.8,247.5,222.2,247.6,223.1z"/>
<path class="st8" d="M247.6,223.1c0,1.1,0.6,2,1.4,2.6l4.1,2.3c0.8,0.4,1.4,0.1,1.4-0.8c0-1.1-0.6-2-1.4-2.6l-4.1-2.3
	C248.2,221.8,247.5,222.2,247.6,223.1z"/>
<path class="st4" d="M253.1,192.6c0,1.1,0.6,2,1.4,2.6l25.1,14.4c0.8,0.4,1.4,0.1,1.4-0.8c0-1.1-0.6-2-1.4-2.6l-25.1-14.4
	C253.7,191.4,253.1,191.7,253.1,192.6z"/>
<path class="st17" d="M253.1,192.6c0,1.1,0.6,2,1.4,2.6l25.1,14.4c0.8,0.4,1.4,0.1,1.4-0.8c0-1.1-0.6-2-1.4-2.6l-25.1-14.4
	C253.7,191.4,253.1,191.7,253.1,192.6z"/>
<path class="st4" d="M253.1,234.7c0,1.1,0.6,2,1.4,2.6l25.1,14.4c0.8,0.4,1.4,0.1,1.4-0.8c0-1-0.6-1.9-1.4-2.4L254.5,234
	C253.7,233.5,253.1,233.8,253.1,234.7z"/>
<path class="st17" d="M253.1,234.7c0,1.1,0.6,2,1.4,2.6l25.1,14.4c0.8,0.4,1.4,0.1,1.4-0.8c0-1-0.6-1.9-1.4-2.4L254.5,234
	C253.7,233.5,253.1,233.8,253.1,234.7z"/>
<path class="st4" d="M258.8,204.4c0,1.1,0.6,2,1.4,2.6l19.3,11.1c0.8,0.4,1.4,0.1,1.4-0.8c0-1.1-0.6-2-1.4-2.6l-19.3-11.2
	C259.4,203,258.8,203.5,258.8,204.4z"/>
<path class="st17" d="M258.8,204.4c0,1.1,0.6,2,1.4,2.6l19.3,11.1c0.8,0.4,1.4,0.1,1.4-0.8c0-1.1-0.6-2-1.4-2.6l-19.3-11.2
	C259.4,203,258.8,203.5,258.8,204.4z"/>
<path class="st4" d="M258.8,212.9c0,1.1,0.6,2,1.4,2.6l19.3,11.1c0.8,0.4,1.4,0.1,1.4-0.8c0-1.1-0.6-2-1.4-2.6L260.3,212
	C259.4,211.5,258.8,211.8,258.8,212.9z"/>
<path class="st17" d="M258.8,212.9c0,1.1,0.6,2,1.4,2.6l19.3,11.1c0.8,0.4,1.4,0.1,1.4-0.8c0-1.1-0.6-2-1.4-2.6L260.3,212
	C259.4,211.5,258.8,211.8,258.8,212.9z"/>
<path class="st4" d="M253.1,217.9c0,1.1,0.6,2,1.4,2.6l25.1,14.4c0.8,0.4,1.4,0.1,1.4-0.8c0-1.1-0.6-2-1.4-2.6l-25.1-14.4
	C253.7,216.6,253.1,217,253.1,217.9z"/>
<path class="st17" d="M253.1,217.9c0,1.1,0.6,2,1.4,2.6l25.1,14.4c0.8,0.4,1.4,0.1,1.4-0.8c0-1.1-0.6-2-1.4-2.6l-25.1-14.4
	C253.7,216.6,253.1,217,253.1,217.9z"/>
<path class="st4" d="M258.8,229.7c0,1.1,0.6,2,1.4,2.6l19.3,11.1c0.8,0.4,1.4,0.1,1.4-0.8c0-1.1-0.6-2-1.4-2.6l-19.3-11.2
	C259.4,228.3,258.8,228.7,258.8,229.7z"/>
<path class="st17" d="M258.8,229.7c0,1.1,0.6,2,1.4,2.6l19.3,11.1c0.8,0.4,1.4,0.1,1.4-0.8c0-1.1-0.6-2-1.4-2.6l-19.3-11.2
	C259.4,228.3,258.8,228.7,258.8,229.7z"/>
<path class="st4" d="M241.9,245.2c0,1.1,0.6,2,1.4,2.6l4.1,2.3c0.8,0.4,1.4,0.1,1.4-0.8c0-1.1-0.6-2-1.4-2.6l-4.1-2.3
	C242.5,244,241.9,244.2,241.9,245.2z"/>
<path class="st8" d="M241.9,245.2c0,1.1,0.6,2,1.4,2.6l4.1,2.3c0.8,0.4,1.4,0.1,1.4-0.8c0-1.1-0.6-2-1.4-2.6l-4.1-2.3
	C242.5,244,241.9,244.2,241.9,245.2z"/>
<path class="st4" d="M247.6,240.1c0,1.1,0.6,2,1.4,2.6l4.1,2.3c0.8,0.4,1.4,0.1,1.4-0.8c0-1.1-0.6-2-1.4-2.6l-4.1-2.3
	C248.2,238.9,247.5,239.1,247.6,240.1z"/>
<path class="st8" d="M247.6,240.1c0,1.1,0.6,2,1.4,2.6l4.1,2.3c0.8,0.4,1.4,0.1,1.4-0.8c0-1.1-0.6-2-1.4-2.6l-4.1-2.3
	C248.2,238.9,247.5,239.1,247.6,240.1z"/>
<path class="st4" d="M253.1,251.9c0.1,1,0.6,1.9,1.4,2.4l25.1,14.4c0.8,0.4,1.4,0.1,1.4-0.8c0-1.1-0.6-2-1.4-2.6L254.5,251
	C253.7,250.4,253.1,250.8,253.1,251.9z"/>
<path class="st17" d="M253.1,251.9c0.1,1,0.6,1.9,1.4,2.4l25.1,14.4c0.8,0.4,1.4,0.1,1.4-0.8c0-1.1-0.6-2-1.4-2.6L254.5,251
	C253.7,250.4,253.1,250.8,253.1,251.9z"/>
<path class="st4" d="M258.8,246.6c0,1.1,0.6,2,1.4,2.6l19.3,11.2c0.8,0.4,1.4,0.1,1.4-0.8c0-1.1-0.6-2-1.4-2.6l-19.3-11.1
	C259.4,245.3,258.8,245.7,258.8,246.6z"/>
<path class="st17" d="M258.8,246.6c0,1.1,0.6,2,1.4,2.6l19.3,11.2c0.8,0.4,1.4,0.1,1.4-0.8c0-1.1-0.6-2-1.4-2.6l-19.3-11.1
	C259.4,245.3,258.8,245.7,258.8,246.6z"/>
<path class="st3" d="M236.2,109.1v51.5c0.1,2.1,1.2,4,3,5.2l44.6,25.8c1.7,0.9,3,0.1,3-1.8v-51.4c-0.2-2.1-1.3-4-3-5.2l-44.6-25.8
	C237.5,106.4,236.2,107.2,236.2,109.1z"/>
<path class="st4" d="M241.9,159.2c0,1.1,0.6,2,1.4,2.6l4.1,2.3c0.8,0.4,1.4,0.1,1.4-0.8c0-1.1-0.6-2-1.4-2.6l-4.1-2.3
	C242.5,157.9,241.9,158.3,241.9,159.2z"/>
<path class="st8" d="M241.9,159.2c0,1.1,0.6,2,1.4,2.6l4.1,2.3c0.8,0.4,1.4,0.1,1.4-0.8c0-1.1-0.6-2-1.4-2.6l-4.1-2.3
	C242.5,157.9,241.9,158.3,241.9,159.2z"/>
<path class="st4" d="M241.9,117.1c0,1,0.6,1.9,1.4,2.4l4.1,2.3c0.8,0.4,1.4,0.1,1.4-0.8c0-1.1-0.6-2-1.4-2.6l-4.1-2.3
	C242.5,115.7,241.9,116.1,241.9,117.1z"/>
<path class="st8" d="M241.9,117.1c0,1,0.6,1.9,1.4,2.4l4.1,2.3c0.8,0.4,1.4,0.1,1.4-0.8c0-1.1-0.6-2-1.4-2.6l-4.1-2.3
	C242.5,115.7,241.9,116.1,241.9,117.1z"/>
<path class="st4" d="M247.6,128.7c0,1.1,0.6,2,1.4,2.6l4.1,2.3c0.8,0.4,1.4,0.1,1.4-0.8c0-1.1-0.6-2-1.4-2.6l-4.1-2.3
	C248.2,127.4,247.5,127.8,247.6,128.7z"/>
<path class="st8" d="M247.6,128.7c0,1.1,0.6,2,1.4,2.6l4.1,2.3c0.8,0.4,1.4,0.1,1.4-0.8c0-1.1-0.6-2-1.4-2.6l-4.1-2.3
	C248.2,127.4,247.5,127.8,247.6,128.7z"/>
<path class="st4" d="M247.6,137.2c0,1.1,0.6,2,1.4,2.6l4.1,2.3c0.8,0.4,1.4,0.1,1.4-0.8c0-1.1-0.6-2-1.4-2.6l-4.1-2.3
	C248.2,135.8,247.5,136.2,247.6,137.2z"/>
<path class="st8" d="M247.6,137.2c0,1.1,0.6,2,1.4,2.6l4.1,2.3c0.8,0.4,1.4,0.1,1.4-0.8c0-1.1-0.6-2-1.4-2.6l-4.1-2.3
	C248.2,135.8,247.5,136.2,247.6,137.2z"/>
<path class="st4" d="M241.9,142.3c0,1.1,0.6,2,1.4,2.6l4.1,2.3c0.8,0.4,1.4,0.1,1.4-0.8c0-1.1-0.6-2-1.4-2.6l-4.1-2.3
	C242.5,141.1,241.9,141.4,241.9,142.3z"/>
<path class="st8" d="M241.9,142.3c0,1.1,0.6,2,1.4,2.6l4.1,2.3c0.8,0.4,1.4,0.1,1.4-0.8c0-1.1-0.6-2-1.4-2.6l-4.1-2.3
	C242.5,141.1,241.9,141.4,241.9,142.3z"/>
<path class="st4" d="M247.6,154.1c0,1.1,0.6,2,1.4,2.6l4.1,2.3c0.8,0.4,1.4,0.1,1.4-0.8c0-1.1-0.6-2-1.4-2.6l-4.1-2.3
	C248.2,152.7,247.5,153.2,247.6,154.1z"/>
<path class="st8" d="M247.6,154.1c0,1.1,0.6,2,1.4,2.6l4.1,2.3c0.8,0.4,1.4,0.1,1.4-0.8c0-1.1-0.6-2-1.4-2.6l-4.1-2.3
	C248.2,152.7,247.5,153.2,247.6,154.1z"/>
<path class="st4" d="M253.1,123.5c0,1,0.6,1.9,1.4,2.4l25.1,14.5c0.8,0.4,1.4,0.1,1.4-0.8c-0.1-1.1-0.6-2-1.4-2.6l-25.1-14.4
	C253.7,122.2,253.1,122.6,253.1,123.5z"/>
<path class="st17" d="M253.1,123.5c0,1,0.6,1.9,1.4,2.4l25.1,14.5c0.8,0.4,1.4,0.1,1.4-0.8c-0.1-1.1-0.6-2-1.4-2.6l-25.1-14.4
	C253.7,122.2,253.1,122.6,253.1,123.5z"/>
<path class="st4" d="M253.1,165.6c0,1.1,0.6,2,1.4,2.6l25.1,14.4c0.8,0.4,1.4,0.1,1.4-0.8c0-1.1-0.6-2-1.4-2.6l-25.1-14.4
	C253.7,164.5,253.1,164.7,253.1,165.6z"/>
<path class="st17" d="M253.1,165.6c0,1.1,0.6,2,1.4,2.6l25.1,14.4c0.8,0.4,1.4,0.1,1.4-0.8c0-1.1-0.6-2-1.4-2.6l-25.1-14.4
	C253.7,164.5,253.1,164.7,253.1,165.6z"/>
<path class="st4" d="M258.8,135.2c0,1.1,0.6,2,1.4,2.6l19.3,11.1c0.8,0.4,1.4,0.1,1.4-0.8c-0.1-1.1-0.6-2-1.4-2.6l-19.3-11.1
	C259.4,134,258.8,134.3,258.8,135.2z"/>
<path class="st17" d="M258.8,135.2c0,1.1,0.6,2,1.4,2.6l19.3,11.1c0.8,0.4,1.4,0.1,1.4-0.8c-0.1-1.1-0.6-2-1.4-2.6l-19.3-11.1
	C259.4,134,258.8,134.3,258.8,135.2z"/>
<path class="st4" d="M258.8,143.7c0,1.1,0.6,2,1.4,2.6l19.3,11.1c0.8,0.4,1.4,0.1,1.4-0.8c-0.1-1.1-0.6-2-1.4-2.6l-19.3-11.1
	C259.4,142.4,258.8,142.8,258.8,143.7z"/>
<path class="st17" d="M258.8,143.7c0,1.1,0.6,2,1.4,2.6l19.3,11.1c0.8,0.4,1.4,0.1,1.4-0.8c-0.1-1.1-0.6-2-1.4-2.6l-19.3-11.1
	C259.4,142.4,258.8,142.8,258.8,143.7z"/>
<path class="st4" d="M253.1,148.7c0,1.1,0.6,2,1.4,2.6l25.1,14.5c0.8,0.4,1.4,0.1,1.4-0.8c0-1.1-0.6-2-1.4-2.6L254.5,148
	C253.7,147.5,253.1,147.9,253.1,148.7z"/>
<path class="st17" d="M253.1,148.7c0,1.1,0.6,2,1.4,2.6l25.1,14.5c0.8,0.4,1.4,0.1,1.4-0.8c0-1.1-0.6-2-1.4-2.6L254.5,148
	C253.7,147.5,253.1,147.9,253.1,148.7z"/>
<path class="st4" d="M258.8,160.5c0,1.1,0.6,2,1.4,2.6l19.3,11.1c0.8,0.4,1.4,0.1,1.4-0.8c0-1.1-0.6-2-1.4-2.6l-19.3-11.1
	C259.4,159.3,258.8,159.6,258.8,160.5z"/>
<path class="st17" d="M258.8,160.5c0,1.1,0.6,2,1.4,2.6l19.3,11.1c0.8,0.4,1.4,0.1,1.4-0.8c0-1.1-0.6-2-1.4-2.6l-19.3-11.1
	C259.4,159.3,258.8,159.6,258.8,160.5z"/>
<path class="st2" d="M288.7,456.3v-79.1c0-0.7,0.6-1.3,1.3-1.3c0.8,0,1.3,0.6,1.3,1.3v79c0,0.7-0.6,1.3-1.3,1.3
	C289.4,457.4,288.7,456.9,288.7,456.3z"/>
<path class="st2" d="M241.1,428.7c-0.1,0-0.3,0-0.4-0.2c-0.6-0.2-1-1-0.7-1.6l24.2-61.3c0.3-0.4,0.9-0.8,1.4-0.6
	c0.6,0.2,1,0.9,0.8,1.6l-24.2,61.3C242.1,428.5,241.6,428.7,241.1,428.7L241.1,428.7z"/>
<path class="st2" d="M243.2,420.9L243.2,420.9c-0.4-0.4-0.4-1.3,0-1.8l46-48.6c0.2-0.3,0.6-0.4,0.9-0.4l0,0c0.3,0,0.7,0.2,0.9,0.4
	l45.9,48.4c0.1,0.1,0.2,0.1,0.2,0.2c0.4,0.6,0.3,1.3-0.2,1.8s-1.3,0.3-1.8-0.2l-45-47.4L245,421c-0.2,0.3-0.6,0.4-0.9,0.4
	C243.7,421.3,243.5,421.2,243.2,420.9z"/>
<path class="st2" d="M337.8,427.9l-24.2-61.3c-0.3-0.6,0.1-1.3,0.7-1.6c0.6-0.3,1.3,0.1,1.6,0.7L340,427l0,0
	c0.3,0.6-0.1,1.3-0.7,1.6c-0.2,0.1-0.3,0.1-0.4,0.1C338.4,428.7,337.9,428.5,337.8,427.9z"/>
<path class="st4" d="M245.4,420.5l-3,7.9v0.1l0,0c-0.1,0.2-0.2,0.3-0.4,0.4c-0.6,0.3-1.3,0.3-2,0c-0.2-0.1-0.4-0.3-0.4-0.4v-0.2
	c0-0.1,0-0.1,0-0.2l3.2-8.4L245.4,420.5z"/>
<path class="st4" d="M334.6,420.5l3,7.9v0.1l0,0c0.1,0.2,0.2,0.3,0.4,0.4c0.6,0.3,1.3,0.3,2,0c0.2-0.1,0.4-0.3,0.4-0.4s0-0.1,0-0.2
	s0-0.1,0-0.2l-3.2-8.4L334.6,420.5z"/>
<path class="st4" d="M291.3,450.1v7c0,0.3-0.2,0.4-0.4,0.6c-0.6,0.3-1.3,0.3-2,0c-0.2-0.1-0.4-0.3-0.4-0.6v-7
	C289.5,449.7,290.5,449.7,291.3,450.1z"/>
<path class="st18" d="M243.8,372.9c0,1.4,1,2.9,2.9,4.2c6.3,4.3,13,8.2,19.8,11.7c7.4,3.8,17.4,11.1,29.8,6.3
	c6.7-2.7,22.9-10.4,29.9-16c4.1-3.1,7-3.2,9.3-22.3l0,0c1.6-11.4,2.2-26.5,1.6-34.4c-1.2-12.9-6.6-17.8-13.5-21.7
	c-7.6-4.1-13.7-7.4-18.3-4.8c-0.4,0.3-2.4,1.4-3,1.8c-2.3,1.3-4.3,4.2-5.9,9.3c-4.8,15-11.1,34.8-17.9,38.9c-0.1,0-0.1,0.1-0.1,0.1
	c-9,4.9-23.1,13.2-29.4,17.3c-3.4,2.2-5,4.1-5,6C243.7,370.2,243.7,372.4,243.8,372.9z"/>
<path class="st4" d="M305.1,296.1c4.7-2.8,10.8,0.6,18.3,4.8c4.8,2.7,8.8,5.7,11.2,11.4l-3.1,1.8c-2.4-5.7-6.6-8.9-11.2-11.4
	c-7.3-4-13.3-7.3-17.9-4.9L305.1,296.1z"/>
<path class="st4" d="M246.7,373.5c6.3,4.3,13,8.2,19.8,11.7c7.4,3.7,17.4,11.1,29.8,6.3c7.8-3,27.2-13,32-18.3
	c4.4-3.9,6.9-36.1,5.7-49c-1.2-12.9-6.6-17.8-13.5-21.7c-11.3-6.2-19.3-10.7-24.1,4.7c-4.8,15-11.1,34.8-17.9,38.9h0.1
	c-25.4,14.1-25.5,14.8-29.7,17.4C242.7,367.4,242.3,370.6,246.7,373.5z"/>
<path class="st4" d="M278.3,346.2L278.3,346.2z"/>
<path class="st19" d="M273.2,438.7c0,0-1.8,10.4-0.7,14c0.1,0.4,0.2,0.7,0.3,1c0.4,1,0.1,2.2-0.6,3l-2.8,3.2
	c-2.2,2.3-5,7.2-8.7,10.2s-10.3,3-12,1.6c-0.1-0.1-0.1-0.1-0.2-0.2c-0.6-0.4-0.6-1.3-0.1-2c0.7-0.8,2.3-2.4,3-3.4
	c3-3.9,5.6-8.2,7.4-12.8c1.8-4,2.1-16.9,2.1-16.9C265.2,435.3,269.7,434.3,273.2,438.7z"/>
<path class="st2" d="M241.9,468.3c-1.3,0.4-0.9,3.4-0.9,3.4s0.6,3,5.9,3.8c4.3,0.6,8.8-0.1,12.5-2c3-1.4,5.1-4.6,6.6-7.3
	c0.7-1.6,1.8-2.9,3.2-3.8c1.3-0.7,3.7-2.4,4-3.3c0.2-0.6,0.2-1.3,0.1-2C273.4,457.2,243.1,467.8,241.9,468.3z"/>
<path class="st4" d="M273.5,449.6c-0.1-0.6,0-1.2-0.2-1.7c-0.1-0.4-0.4-0.8-0.9-1c-0.1,0.7-0.1,1.3-0.1,1.3c-0.3,1.3-1.1,2.3-2.1,3
	c-0.3,0.2-0.6,0.3-1,0.3c-0.3,0-0.7-0.2-0.8-0.4c-0.1-0.2-0.1-0.4,0-0.7c0.1-0.4,0.1-0.9,0.1-1.3s-0.1-0.8-0.3-1.1
	c-0.3-0.3-0.8-0.4-1.2-0.3c-0.9,0.1-1.7,0.1-2.6,0c-1-0.4-2-0.9-2.9-1.4c-0.4-0.3-1-0.4-1.6-0.3c-0.6,0.3-0.8,1-1,1.6
	c-1,2.4-2.1,4.8-3.6,7.1c0,0-5.3,7.1-9.9,9.9c-4.3,2.6-5.4,4.6-4,6.4c1.3,1.9,6.7,3.9,13.5,2.1c6.9-1.8,9.1-6.4,11.1-9.4
	s5.7-3.9,7.1-6.2c0.4-1.2,0.7-2.3,0.6-3.7C273.9,452.1,273.7,450.8,273.5,449.6z"/>
<path class="st20" d="M273.5,449.6c-0.1-0.6,0-1.2-0.2-1.7c-0.1-0.4-0.4-0.8-0.9-1c-0.1,0.7-0.1,1.3-0.1,1.3c-0.3,1.3-1.1,2.3-2.1,3
	c-0.3,0.2-0.6,0.3-1,0.3c-0.3,0-0.7-0.2-0.8-0.4c-0.1-0.2-0.1-0.4,0-0.7c0.1-0.4,0.1-0.9,0.1-1.3s-0.1-0.8-0.3-1.1
	c-0.3-0.3-0.8-0.4-1.2-0.3c-0.9,0.1-1.7,0.1-2.6,0c-1-0.4-2-0.9-2.9-1.4c-0.4-0.3-1-0.4-1.6-0.3c-0.6,0.3-0.8,1-1,1.6
	c-1,2.4-2.1,4.8-3.6,7.1c0,0-5.3,7.1-9.9,9.9c-4.3,2.6-5.4,4.6-4,6.4c1.3,1.9,6.7,3.9,13.5,2.1c6.9-1.8,9.1-6.4,11.1-9.4
	s5.7-3.9,7.1-6.2c0.4-1.2,0.7-2.3,0.6-3.7C273.9,452.1,273.7,450.8,273.5,449.6z"/>
<path class="st19" d="M245,423.1c0,0-3.1,9.8-2,13.3c0.2,0.4,0.3,0.7,0.4,1c0.4,1,0.2,2.2-0.4,3l-2.7,3.3c-2,2.6-4.8,7.4-8.2,10.7
	c-3.4,3.2-10.1,3.4-11.9,2.1c-0.1-0.1-0.1-0.1-0.2-0.2c-0.6-0.4-0.6-1.3-0.1-2c0.6-0.7,2.1-2.6,2.9-3.6c2.9-4,5.1-8.4,6.9-13.1
	c1.7-4,2.7-17.3,2.7-17.3C236.2,419.1,241.3,419,245,423.1z"/>
<path class="st2" d="M212.4,452.9c-1.3,0.4-0.9,3.4-0.9,3.4s0.6,3,5.9,3.8c4.3,0.6,8.8-0.1,12.5-2c3-1.4,5.1-4.6,6.6-7.3
	c0.7-1.6,1.8-2.9,3.2-3.8c1.3-0.7,3.7-2.4,4-3.3c0.2-0.6,0.2-1.3,0.1-2C244.1,441.8,213.8,452.4,212.4,452.9z"/>
<path class="st4" d="M216.3,449.1c-4.3,2.6-5.4,4.6-4,6.4c1.4,1.9,6.7,3.9,13.5,2.1s9.1-6.4,11.1-9.4s5.7-3.9,7.1-6.2
	c0.4-1.2,0.7-2.3,0.6-3.7c-0.1-1.3-0.3-2.7-0.6-4c-0.1-0.6,0-1.2-0.2-1.7c-0.1-0.4-0.4-0.8-0.9-1c-0.2,0.7-0.2,1.3-0.2,1.3
	c-0.2,1.3-1,2.3-2.1,3c-0.3,0.2-0.6,0.3-1,0.3c-0.3,0-0.7-0.2-0.8-0.4c-0.1-0.2-0.1-0.4,0-0.7c0.3-1.8-0.4-3-2.3-3.4
	c-1-0.1-2-0.3-2.9-0.6c-0.4-0.3-1-0.7-1.4-1c-0.4-0.4-1.2-0.4-1.7-0.1c-0.3,0.3-0.4,0.6-0.6,1c-0.4,1.1-0.9,2.2-1.3,3.4
	c-0.3,0.9-0.7,1.8-1.1,2.6c-0.4,0.8-0.9,1.4-1.3,2.2C226.2,439,221,446.1,216.3,449.1z"/>
<path class="st20" d="M216.3,449.1c-4.3,2.6-5.4,4.6-4,6.4c1.4,1.9,6.7,3.9,13.5,2.1s9.1-6.4,11.1-9.4s5.7-3.9,7.1-6.2
	c0.4-1.2,0.7-2.3,0.6-3.7c-0.1-1.3-0.3-2.7-0.6-4c-0.1-0.6,0-1.2-0.2-1.7c-0.1-0.4-0.4-0.8-0.9-1c-0.2,0.7-0.2,1.3-0.2,1.3
	c-0.2,1.3-1,2.3-2.1,3c-0.3,0.2-0.6,0.3-1,0.3c-0.3,0-0.7-0.2-0.8-0.4c-0.1-0.2-0.1-0.4,0-0.7c0.3-1.8-0.4-3-2.3-3.4
	c-1-0.1-2-0.3-2.9-0.6c-0.4-0.3-1-0.7-1.4-1c-0.4-0.4-1.2-0.4-1.7-0.1c-0.3,0.3-0.4,0.6-0.6,1c-0.4,1.1-0.9,2.2-1.3,3.4
	c-0.3,0.9-0.7,1.8-1.1,2.6c-0.4,0.8-0.9,1.4-1.3,2.2C226.2,439,221,446.1,216.3,449.1z"/>
<path class="st3" d="M313.4,373.5c-3.1,3.8-8.3,6.8-13.9,10.5c-11.7,8-20,13.7-20,13.7c0.4,4.3,2,10.4-1.3,23.7
	c-1.9,7.4-3.7,13.4-4.9,20.9c-2.2,1.6-10.8,0.6-12.5-1.8c0-5.6-1.9-47.8,0.6-53.3c0.9-2,8-9.9,12.4-14.7c-11.9,8.7-16,11.8-16,11.8
	c-0.4,5.1-1.3,10.1-3,15c-1.4,4.1-3.2,8.1-5.2,14.1c-2.4,7.3-3,9-4.8,14c-2.8,0.4-10.8-1.3-13.1-3c0.4-6.3,3.2-48.4,5.8-54
	c4.3-9.6,34.8-26.5,34.8-26.5l33.1,2.7l14.9-0.3C319.9,354.7,319.3,366.7,313.4,373.5z"/>
<path class="st6" d="M257.5,384.3l13.4-12.8l6.8-8.2c-5.6-6.4-3.4-12.5-3.4-12.5c0.9,5.1,4.2,9.6,8.9,11.9l-9.8,9.9L257.5,384.3z"/>
<path class="st19" d="M274.1,323.7c-4.7,11.4-5,11.8-8.4,13.1c-3.4,1.3-23,6.2-23,6.2l-7.8-7.4c8.1-3.2,22.8-10.8,22.8-10.8
	s9.7-28.7,12.1-34.2c2.4-5.6,6.6-8,13.7-7.9C283.5,282.8,280.7,307.4,274.1,323.7z"/>
<path class="st21" d="M284.4,298.9l-9.8,25c-5.7-0.3-10.8-2.8-14.5-6.9c0,0,8.3-26,11.7-30.2c3.2-4.2,10-4.7,14.1-4L284.4,298.9z"/>
<path class="st4" d="M284.7,282.6c-8.4,0-12.8,7.6-11.9,19.8c2,27.3-0.9,41.3-0.9,41.3c5.4,11.9,38.3,16,48.4,7.3
	c0,0,0.3-13.9,0.3-25.8c0-9,1.1-22.1-2.2-31.6c-2.2-6.3,2.1-6.1-2.6-7.7c-3.9-0.9-14-2.9-18.2-3
	C293.4,282.9,284.7,282.8,284.7,282.6z"/>
<path class="st22" d="M284.7,282.6c-8.4,0-12.8,7.6-11.9,19.8c2,27.3-0.9,41.3-0.9,41.3c5.4,11.9,38.3,16,48.4,7.3
	c0,0,0.3-13.9,0.3-25.8c0-9,1.1-22.1-2.2-31.6c-2.2-6.3,2.1-6.1-2.6-7.7c-3.9-0.9-14-2.9-18.2-3
	C293.4,282.9,284.7,282.8,284.7,282.6z"/>
<path class="st2" d="M293.9,252c0.4-4.8-3.2-9.1-8.1-9.4l0,0c-4.8-0.4-9.1,3.2-9.4,8.1c-0.4,4.8,3.2,9.1,8.1,9.4
	S293.5,256.9,293.9,252L293.9,252z"/>
<path class="st2" d="M305.3,269.2l-0.7,7.1c1.1-0.3,2.1-1,2.7-2c0.9-1.6,3.8-11.5,3.8-11.5L305.3,269.2z"/>
<path class="st2" d="M307,263l3.9-0.2c2.4-5.3,2.6-10.1,1.3-12.3c-1.3-2.7-2.9-2.3-2.9-2.3L307,263z"/>
<path class="st2" d="M313.6,248.1c0.1,0,0.1,0,0.2,0c1.2,0.3,2.1,1.4,1.8,2.7l-4.8-0.4C311,248.9,312.1,248,313.6,248.1z"/>
<path class="st2" d="M311.8,245.7c0.1,0,0.1-0.1,0.2-0.1c1-0.8,2.4-0.4,3.1,0.4l-3.8,3.1C310.6,248.1,310.8,246.6,311.8,245.7z"/>
<path class="st19" d="M302.6,244.4c-7-5.3-20.9-3.4-23.3,7.4c-0.4,2.6-0.8,5.2-0.9,7.9c-0.3,4.3,0,8.8,0.9,13c0.8,3.4,2.1,5.2,5.1,6
	c2,0.2,3.9,0.3,5.8,0.1l-0.4,5.1c-7,8.7,7.7,11.3,15.7,0.8l0.9-15.9c0,0,2.1,2.4,4.1,1.6c2.2-1,5.2-4,3.9-7.7
	c-1.3-3.7-4.3-2.9-5.4-1.9c-1,0.7-2,1.3-3,1.9C305.9,262.9,309.6,249.8,302.6,244.4z"/>
<path class="st2" d="M283.4,248.4c-3.3-1.8-5.4-5.3-5.4-9.1c-0.1-1.2,0.4-2.2,1.3-3c0.9-0.6,1.9-0.7,2.8-0.4s1.8,0.8,2.6,1.3
	c-0.4-0.6-0.6-1.2-0.6-1.9s0.4-1.3,1.1-1.4c0.4-0.1,0.8,0,1.2,0.2c2.7,1.1,5.4,1.8,8.2,2.3c2.6,0.4,5.2,0.8,7.8,1.4
	c3.3,0.8,6.2,2.1,8.2,5c0.1,0.1,0.1,0.2,0.2,0.3c0.7,1,1.2,2.1,1.3,3.3c0,1.4,0,2.9-0.3,4.2c-0.2,1.2-0.4,2.4-0.8,3.7
	c-0.3,1.4-0.6,3-1.1,4.3c-0.2,0.7-0.2,1.9-0.8,2.2c-0.7,0.4-1.3,1-1.9,1.6c-0.4,0.6-1.1,1.2-1.8,1.6c-0.1,0-0.1,0.1-0.2,0.1
	c-0.6,0.3-1.3,0-1.7-0.7c-0.4-0.8,0.1-2.2,0.4-3c0.2-0.6,0.4-1.2,0.4-1.8c0.1-0.4,0-1-0.2-1.3s-0.7-0.6-1.1-0.8
	c-1.2-0.7-2.1-1.9-2.4-3.1c-0.4-1.3-0.7-2.6-0.9-3.9c0-0.3-0.2-0.6-0.4-0.8c-0.2-0.1-0.4-0.1-0.8,0c-2.8,0.9-5.6,1.3-8.3,1.3
	C287.8,250.2,285.4,249.6,283.4,248.4z"/>
<path class="st23" d="M290,280.6c0,0,9.2-1.1,11.2-3.3c1-1.2,1.8-2.4,2.2-3.9c-0.9,1.4-2.2,2.6-3.7,3.2c-2.6,1.2-9.7,2.1-9.7,2.1
	V280.6z"/>
<path class="st2" d="M292,260.3c0-0.1,0-0.2,0.1-0.3c0.1-0.7,1-1.2,1.7-1.1s1.3,0.9,1.1,1.7l0,0c-0.1,0.8-0.8,1.3-1.6,1.3
	C292.5,261.8,291.9,261.1,292,260.3L292,260.3z"/>
<path class="st2" d="M294.6,255.4c0.6-0.8,1.6-1,2.3-0.4c0.8,0.7,1,1.8,0.4,2.7l-2.9-2.1C294.5,255.7,294.5,255.6,294.6,255.4z"/>
<path class="st24" d="M290,272.9c-0.1,0-0.1,0-0.2,0c-1.3,0.3-2.8-0.7-3-2.2l5.3-1.3C292.5,271,291.6,272.5,290,272.9z"/>
<path class="st23" d="M290.2,273c1-0.3,1.7-1,2-2c-0.3-0.1-0.4-0.2-0.8-0.2c-1.3-0.1-2.6,0.8-2.8,2.1C289,273,289.6,273.1,290.2,273
	z"/>
<path class="st2" d="M281.7,252.8c0.1,0,0.1,0,0.2,0c0.9-0.1,1.8,0.6,1.9,1.4l-3.6,0.8C280.1,254.1,280.7,253.1,281.7,252.8z"/>
<path class="st2" d="M280.3,258.7c0.1-0.9,0.9-1.4,1.8-1.3s1.4,0.9,1.3,1.8s-0.9,1.4-1.8,1.3l0,0
	C280.7,260.3,280.2,259.5,280.3,258.7C280.4,258.7,280.4,258.7,280.3,258.7z"/>
<polygon class="st23" points="281.5,265.4 286.2,267.5 288.2,258.3 "/>
<path class="st19" d="M318,314.1c0,0,10.7,24.1,12.4,27c3.3,5.4,7.3,5.9,11.5,2.3c7.4-6.2,13.4-13,16.5-16c2.1-1.9,4-3.9,6.6-5.3
	c1.4-0.6,3-1,4.6-1.1c1.7-0.3,3.2-0.6,4.9-0.8c2.4-0.4,4.9-1,7.3-1.9c1.2-0.4,2.2-1,3-1.9c0.4-0.7,0.9-1.4,1.1-2.3
	c0.2-0.7,0.7-1.3,0.9-2.1c0.4-1,0.2-2.2-0.4-3c0.4-0.3,1-0.7,1.3-1.2c0.3-0.4,0.4-0.8,0.4-1.3c-0.1-0.8-0.9-1.4-1.8-1.3
	c-0.7,0-1.3,0.2-1.9,0.4c-3.7,1.2-7.3,2-11.1,2.3c-1,0.1-2.2,0.1-2.8-0.7c-0.8-0.9-0.1-2.2,0.3-3.4c0.4-1.3,0.4-2.8,0.1-4
	c-0.2-0.8-1.1-2.2-2-1c-1.3,2-2.8,3.8-4.3,5.3c-2.9,3-3.7,5.2-6.4,8.1c-1,1.1-10.1,7.8-18,14.1c-4.4-11.4-9.8-26.5-12.3-32.1
	c-3.6-7.6-10.5-7.8-11.7-7.4C309.6,295.2,318,314.1,318,314.1z"/>
<path class="st23" d="M339,323.6c-6.6,4.6-4.9,12.2-4.9,12.2c0.4-3.9,2.6-7.4,5.9-9.6L339,323.6z"/>
<path class="st21" d="M312.9,300.1c0.6,5.1,2.3,9,5.1,15l5.3,13.9c12.2-3,14.8-9.8,14.8-9.8s-3.8-9.6-8.2-21.7
	c-3.1-8.2-7.2-10.9-14.3-11.5C313.4,288.4,312.1,293.9,312.9,300.1z"/>
<path class="st2" d="M190.3,398.9v-79.1c0-0.7,0.6-1.3,1.3-1.3s1.3,0.6,1.3,1.3v79.1c0,0.7-0.6,1.3-1.3,1.3
	C190.9,400.1,190.4,399.6,190.3,398.9z"/>
<path class="st2" d="M142.4,371.4L142.4,371.4c-0.6-0.2-1-1-0.7-1.6l24.2-61.3c0.2-0.6,1-1,1.6-0.7c0.6,0.2,1,1,0.7,1.6L144,370.7
	c-0.2,0.4-0.7,0.8-1.2,0.8C142.6,371.5,142.5,371.4,142.4,371.4z"/>
<path class="st2" d="M144.8,363.7L144.8,363.7c-0.4-0.4-0.4-1.3,0-1.8l45.9-48.6c0.2-0.3,0.6-0.4,0.9-0.4l0,0c0.3,0,0.7,0.2,0.9,0.4
	l46,48.4l0.1,0.1c0.4,0.6,0.4,1.3-0.1,1.8c-0.6,0.4-1.3,0.4-1.8-0.1l-45-47.5l-45.1,47.8c-0.2,0.3-0.6,0.4-0.9,0.4
	C145.3,364.2,145,363.9,144.8,363.7z"/>
<path class="st2" d="M239.3,370.6l-24.2-61.3c-0.1,0-0.1-0.1-0.1-0.1c-0.2-0.7,0.1-1.3,0.8-1.6c0.7-0.2,1.3,0.1,1.6,0.8l24.2,61.3
	c0.1,0.2,0.1,0.3,0.1,0.4c0,0.7-0.4,1.3-1.2,1.3C240.1,371.5,239.5,371.2,239.3,370.6z"/>
<path class="st4" d="M147,363l-3,7.9v0.1l0,0c-0.1,0.2-0.2,0.3-0.4,0.4c-0.6,0.3-1.3,0.3-2,0c-0.2-0.1-0.4-0.3-0.4-0.4v-0.1
	c0-0.1,0-0.1,0-0.2l3.2-8.4L147,363z"/>
<path class="st4" d="M236.3,363l3,7.9v0.1l0,0c0.1,0.2,0.2,0.3,0.4,0.4c0.6,0.3,1.3,0.3,2,0c0.2-0.1,0.4-0.3,0.4-0.4v-0.1
	c0-0.1,0-0.1,0-0.2l-3.2-8.4L236.3,363z"/>
<path class="st4" d="M193,392.8v7c0,0.3-0.2,0.4-0.4,0.6c-0.6,0.3-1.3,0.3-2,0c-0.2-0.1-0.4-0.3-0.4-0.6v-7
	C191.1,392.4,192.2,392.4,193,392.8z"/>
<path class="st18" d="M145.2,315.7c0,1.3,1,2.8,2.9,4.1c6.3,4.3,12.9,8.2,19.8,11.7c7.6,3.7,17.5,11.1,29.9,6.3
	c6.8-2.7,22.9-10.4,29.9-16c4.1-3.1,7-3.2,9.3-22.3l0,0c1.6-11.4,2.2-26.5,1.6-34.4c-1.2-12.9-6.6-17.8-13.5-21.7
	c-7.6-4.1-13.7-7.4-18.3-4.8c-0.4,0.3-2.4,1.4-3,1.8c-2.3,1.3-4.3,4.2-5.9,9.3c-4.8,15-11.1,34.8-17.9,38.9c-0.1,0-0.1,0.1-0.1,0.1
	c-8.9,4.9-23,13.2-29.3,17.3c-3.3,2.2-5,4.1-5,6C145.3,312.7,145.5,315.2,145.2,315.7z"/>
<path class="st4" d="M148.2,316.3c6.3,4.2,13,8.2,19.8,11.7c7.6,3.7,17.5,11.1,29.9,6.3c7.8-3,27.2-13,32-18.3
	c4.4-3.9,6.9-36.1,5.7-49s-6.6-17.8-13.5-21.7c-11.3-6.2-19.3-10.7-24.1,4.7c-4.8,15-11.1,34.8-17.9,38.9h0.1
	c-25.3,14.1-25.4,14.8-29.5,17.4C144.3,310.1,144,313.3,148.2,316.3z"/>
<path class="st4" d="M179.9,288.8L179.9,288.8z"/>
<path class="st2" d="M156.9,367.8c0,0-7.6,23-6.7,28.4c0.9,5.6,9.8,2.6,13.1-1s2.4-11.1,2.3-14.2c-0.1-3,0.6-7.6,2.3-10.2
	c1.3-1.9,2-4,1.9-6.2c-0.1-1-1.1-1.8-2-2.4L156.9,367.8z"/>
<path class="st25" d="M156.9,367.8c0,0-2.4,16-3.2,19.2s2.7,3,4.8,1.3c2.1-1.6,3-4.9,3.1-9.4c0.3-4.1,1-8.2,1.9-12.4L156.9,367.8z"
	/>
<path class="st4" d="M192.1,304.1l-23,21l-19.7,42.3c0,0-4.7-16-7-25.1s-4.3-18.4-3.1-22.8c1.2-4,8.8-10,16.8-16
	c10.9-8.2,11.1-7.9,23.8-16.5L192.1,304.1z"/>
<path class="st21" d="M192.1,304.1l-23,21l-19.7,42.3c0,0-4.7-16-7-25.1s-4.3-18.4-3.1-22.8c1.2-4,8.8-10,16.8-16
	c10.9-8.2,11.1-7.9,23.8-16.5L192.1,304.1z"/>
<path class="st26" d="M148,362.7l13-35.1l22.1-23c-1.9-1.3-3.9-4-5.9-7.2c0.4,2.6,1.3,5,2.4,7.3c-3.7,3-10.9,9-14.7,12.1
	c-4.7,4-9.6,8.8-11.1,15.1C152.2,338.4,148.1,362.8,148,362.7z"/>
<path class="st2" d="M129.5,408.7c0,0-1.3,0.9-6.3,3.7c-4.7,2.6-5.8,4.7-4.6,6.8c1.3,2.1,6.9,4.7,14.1,3s10.5-7.3,12.7-10.7
	c2.1-3.3,5.4-3.9,7.1-6.3c1.7-2.3,0.4-4,0.3-5.3c-0.1-1.3-0.3-3.1-1.1-3.6L129.5,408.7z"/>
<path class="st24" d="M154.5,385.7c0,0-3.2,8.7-2.9,10.9c0.1,0.4,0.1,0.8,0.2,1.1c0.2,1.1-0.1,2.1-0.9,2.9c-0.8,0.8-1.9,1.8-3,2.9
	c-2.3,2.1-6.3,7.2-10.1,9.9c-3.9,2.7-10.5,2-12,0.4c-0.1-0.1-0.1-0.1-0.2-0.2c-0.4-0.6-0.4-1.4,0.2-2c0.7-0.7,2.6-2.2,3.3-3.1
	c3.8-3.8,6.9-8,9.2-12.5c2.1-4.4,5.7-14.1,5.7-14.1L154.5,385.7z"/>
<path class="st4" d="M180.8,286.6c1.4,7.3,3.6,17.3,3.6,17.3s-24.4,19-26.9,25.2S142,387.4,142,387.4c3.6,4.6,11,3.3,11,3.3
	c3.4-7.4,7.2-14.8,11.4-21.9c5.8-9.6,8-17.3,7.8-22.1s0.2-6.3,2.8-7.3s15.2-7.3,23.9-11.9c10.4-5.4,14.5-8.4,17.8-15.5
	c2.7-6-1.4-17.8-1.3-25.7L180.8,286.6z"/>
<path class="st21" d="M180.8,286.6c1.4,7.3,3.6,17.3,3.6,17.3s-24.4,19-26.9,25.2S142,387.4,142,387.4c3.6,4.6,11,3.3,11,3.3
	c3.4-7.4,7.2-14.8,11.4-21.9c5.8-9.6,8-17.3,7.8-22.1s0.2-6.3,2.8-7.3s15.2-7.3,23.9-11.9c10.4-5.4,14.5-8.4,17.8-15.5
	c2.7-6-1.4-17.8-1.3-25.7L180.8,286.6z"/>
<path class="st24" d="M182.6,261c0,0-23.2,16.8-25.9,18.1c-5.6,2.9-8.3,1.2-9.7-3.7c-2.1-8.4-1.1-18.9-1.4-22.8
	c-0.1-2.6-0.4-5-1.2-7.4c-0.6-1.3-1.3-2.4-2.3-3.4c-1-1.1-1.9-2.2-2.9-3.4c-1.4-1.8-2.8-3.7-3.9-5.7c-0.4-0.9-0.9-2-0.9-3
	c0.1-0.8,0.3-1.6,0.7-2.2c0.3-0.6,0.4-1.3,0.7-2c0.4-0.9,1.2-1.6,2.1-1.8c-0.2-0.6-0.2-1.1-0.2-1.7c0-0.4,0.2-0.8,0.4-1.1
	c0.6-0.4,1.4-0.4,2.1,0.1c0.4,0.4,0.7,0.9,1,1.3c1.8,3,3.9,5.7,6.1,8.2c0.7,0.6,1.4,1.3,2.3,1.2c1.1-0.2,1.3-1.6,1.9-2.6
	c0.4-1.1,1.3-2.1,2.3-2.8c0.7-0.4,2.1-0.9,2,0.4c-0.3,2.1-0.4,4.1-0.3,6.2c0.2,3.8-0.7,5.8-0.4,9.4c0,1.3,1.4,10,3,19
	c5.3-4.4,18.7-16.4,20.3-17.8c4.9-3.9,7.1-3.8,13-3.4C190.7,250,182.6,261,182.6,261z"/>
<path class="st25" d="M159.3,260.5c1,4.3,0.3,9-2,12.8c1.1-2,1.7-9.1,0.8-11.7L159.3,260.5z"/>
<path class="st4" d="M198,240.9l-6.4-0.4c0,0-9.7,7.2-13.5,15.8c-3.9,8.6,3.9,15.1,3.9,15.1l-0.4,14.2l-3.4,3c0,0,0.4,11.5,15.9,15
	c17.4,3.9,24.8-0.4,24.8-0.4c0-5.8-1-11.5-2.8-16.9c0,0,2.1-10.7,3.3-15.2c-2.7-2-3.4-2.7-4.8-10.5c-1.3-7.3,3.2-14.8,3.2-14.8
	l-10.7-2.9L198,240.9z"/>
<path class="st10" d="M198,240.9l-6.4-0.4c0,0-9.7,7.2-13.5,15.8c-3.9,8.6,3.9,15.1,3.9,15.1l-0.4,14.2l-3.4,3c0,0,0.4,11.5,15.9,15
	c17.4,3.9,24.8-0.4,24.8-0.4c0-5.8-1-11.5-2.8-16.9c0,0,2.1-10.7,3.3-15.2c-2.7-2-3.4-2.7-4.8-10.5c-1.3-7.3,3.2-14.8,3.2-14.8
	l-10.7-2.9L198,240.9z"/>
<path class="st26" d="M200.9,277.1c7.4-0.4,8.8-7.6,8.8-7.6s-1.3,4.9-8.7,5.7c-4,0.4-8.1-1.3-10.5-4.6
	C190.4,270.8,191.5,277.5,200.9,277.1z"/>
<path class="st2" d="M195.8,236.9c-0.2,3.7,20.4-3.6,20.4-3.6l5.3-15.4c4.7-1,6.9-6.1,5-9.2c1.3-1.1,2.1-2.7,2.2-4.2
	c0.4-3.1-0.8-5.6-2.9-6.7c-1.9-1-4.4-1-7.3-0.8c-6.9,0.4-9.6-1.6-16.4-0.3l0,0c-8.9,1.3-16.8,7.3-17.1,18.1
	C184.7,227.1,192.2,229.7,195.8,236.9z"/>
<path class="st2" d="M188.3,199.5C188.3,199.6,188.3,199.6,188.3,199.5c0.3,1.6,1.7,2.6,3.1,2.2l-0.8-5.4
	C189.2,196.6,188.2,198,188.3,199.5z"/>
<path class="st2" d="M188.1,203.8L188.1,203.8c1.6,0.2,2.9-0.9,3-2.3l-5.6-0.8C185.4,202.1,186.5,203.6,188.1,203.8z"/>
<path class="st24" d="M195.2,253c7.4,0.7,14.2-9.3,14.2-9.3l0.3-7.3c3.1,0.6,5,0.6,6.4-0.4c1.9-1.3,5.6-4.8,5.9-12.5
	c0.6-10.4-1-14.5-2.8-16c-3.8,0.3-5.4,4-11.7,8.2s-11,4.2-11,4.2c-1.3-3.3-5.6-2.7-6.9-1.2c-2,2.1-1,6.3,1.6,8.3
	c2.9,2.3,4.9,0.4,4.9,0.4l-0.6,15.7C195.5,243,184,252,195.2,253z"/>
<path class="st2" d="M199.7,216.5l-0.2,4.1c0,1.7-1.4,3-3.1,2.9l0,0l0.2-4.3L199.7,216.5z"/>
<path class="st2" d="M208.1,220.1c-0.1-0.8-0.7-1.4-1.4-1.3c-0.8,0-1.3,0.7-1.3,1.4c0,0.8,0.7,1.3,1.4,1.3l0,0
	C207.4,221.7,208.1,220.9,208.1,220.1L208.1,220.1z"/>
<path class="st2" d="M220.2,214L220.2,214c-0.8-0.6-1.9-0.4-2.4,0.4l2.9,2.1C221.1,215.8,221,214.7,220.2,214z"/>
<path class="st25" d="M208,230.3L208,230.3c1.1,0.6,2.4,0.1,3-1l-3.9-2C206.4,228.6,207,229.8,208,230.3z"/>
<path class="st2" d="M217.4,218.2L217.4,218.2c-0.8,0-1.3,0.7-1.3,1.4c0,0,0,0.1,0,0.2c0.1,0.8,0.8,1.3,1.6,1.3
	c0.8-0.1,1.3-0.8,1.3-1.6C218.9,218.9,218.3,218.1,217.4,218.2z"/>
<polygon class="st25" points="215.8,225.2 211.6,226.3 211.6,218.7 "/>
<path class="st25" d="M209.6,238.5c0,0-6.7-2.1-8.7-3.9c-1.1-0.9-1.9-2.1-2.2-3.4c0.9,2.7,7.7,4.8,10.9,5.4V238.5z"/>
<polygon class="st3" points="57.5,337.4 55.4,338.6 55.4,426.9 57.5,428.1 "/>
<polygon class="st1" points="57.5,339.8 59.8,338.6 59.8,426.8 57.5,428.1 "/>
<polygon class="st3" points="141.1,291.6 138.9,290.3 138.9,378.6 141.1,379.8 "/>
<polygon class="st1" points="141.1,291.6 143.4,290.3 143.4,378.6 141.1,379.8 "/>
<polygon class="st1" points="143.4,287.8 57.5,337.4 57.5,344.5 143.4,295.2 "/>
<polygon class="st1" points="141.2,313.4 57.6,361.6 57.7,364 141.2,315.9 "/>
<polyline class="st3" points="59.8,357.8 141.1,310.9 141.1,313.4 59.8,360.4 "/>
<polygon class="st27" points="55.4,336.2 222.3,432.5 222.3,439.9 55.4,343.8 "/>
<polygon class="st3" points="222.3,439.9 220.1,438.7 220.1,522 222.3,523.2 "/>
<polygon class="st1" points="222.3,435 224.6,433.8 224.6,522 222.3,523.2 "/>
<polygon class="st3" points="305.8,386.7 303.6,385.5 303.6,473.7 305.8,475 "/>
<polygon class="st1" points="305.8,386.7 308,385.5 308,473.7 305.8,475 "/>
<polygon class="st27" points="308,382.9 222.3,432.5 222.3,439.7 308,390.4 "/>
<polygon class="st1" points="306,408.6 222.4,456.8 222.4,459.2 306,411 "/>
<polyline class="st3" points="224.6,453 305.8,406.1 305.8,408.6 224.6,455.6 "/>
<polygon class="st4" points="55.4,336.2 141.1,286.6 308,382.9 222.3,432.5 "/>
<polygon class="st28" points="55.4,336.2 141.1,286.6 308,382.9 222.3,432.5 "/>
<path class="st24" d="M202.4,321.2c-1.7,0.8-3.4,1.3-5.3,1.8c-1.9,0.6-3.9,0.8-5.9,0.4c-1.3-0.3-2.4-0.8-3.7-1.3
	c-1-0.4-2-1.1-2.7-1.9c-0.3-0.4-0.6-0.8-1-1.2c-0.4-0.2-0.9-0.4-1.3-0.6c-0.4-0.2-0.8-0.6-0.8-1.1c0-0.3,0.3-0.6,0.6-0.8
	c0.3-0.2,0.7-0.3,1-0.3c3.2-0.6,6.3-1.3,9.3-2.6c0.8-0.2,1.3-0.7,1.8-1.3c-1.6-0.3-3.1-0.8-4.7-1.6c-0.8-0.3-1.3-0.9-1.6-1.7
	c-0.1-0.3,0-0.7,0.3-0.9c0.3-0.2,0.7-0.1,1.1,0s0.9,0.1,1.3,0.1c1,0,2.1,0,3-0.2c2.1-0.3,4-0.9,6.1-1c2.7-0.2,5.1,0,7.4-1.3
	c2.3-1.3,14.3-9.2,17.8-12.1l-6.7-21.8c-6.9-7-3.7-23.8-1.1-26.5c8.8,1.3,11.5,3.7,14.2,13.9c1.9,7.3,6,21.2,7.9,32.1
	c1.1,6.1,1.8,8.1-1.9,10.5c-2.9,2-6.8,3.9-10.7,6c-3.9,2.2-7.7,4.1-13.3,6.9c-1.2,0.6-2.3,1.2-3.4,1.9
	C207.9,318.3,205.2,319.7,202.4,321.2z"/>
<path class="st26" d="M236.6,395.1l30.2-17.4c0,0,0.1,0,0.1-0.1c0.2-0.2,0.1-0.4-0.1-0.4l-52-30c-0.6-0.3-1.3-0.3-1.8,0l-29.9,17.3
	L236.6,395.1z"/>
<path class="st3" d="M236.6,390.3l29-16.8c0.1,0,0.2-0.2,0.2-0.3l0,0v1c0,1-0.4,1.9-1.3,2.3l-26.4,15.2c-0.9,0.4-1.9,0.4-2.8,0
	l-48.4-28c-0.9-0.4-1.3-1.3-1.3-2.3v-0.7L236.6,390.3z"/>
<path class="st1" d="M236.7,390.4l29-16.8c0,0,0.1,0,0.1-0.1c0.1-0.2,0.1-0.4-0.1-0.4L216,344.3c-0.4-0.3-1.2-0.3-1.7,0l-28.8,16.5
	L236.7,390.4z"/>
<path class="st19" d="M265.2,336.8c-8.7,2.4-20.1,5.7-21.2,6.6c-1.2,0.9-2.6,2.8-4.8,4.2c-1.6,0.9-3.3,1.3-5.2,1.3
	c-2.1,1.6-4.3,3-6.7,4.1c-3,1.3-6.3,1.4-9.2,0.2c-3.8-1.4-4.7-3.3-2.4-4.8c2.1-1.3,12.3-10,14.3-11.5c2.1-1.6,5.3-2.3,8-3.4
	c3.4-1.3,5.7-2.1,8.8-3.4s8.3-4,12.5-6.1L265.2,336.8z"/>
<polygon class="st3" points="191.5,361.7 207.1,352.8 252.3,378.9 236.7,387.9 "/>
<polygon class="st4" points="207.1,352.8 252.3,378.9 251.7,379.3 207.1,353.5 192.1,361.9 191.5,361.7 "/>
<polygon class="st2" points="207.1,352.8 252.3,378.9 251.7,379.3 207.1,353.5 192.1,361.9 191.5,361.7 "/>
<polygon class="st2" points="230.6,355.1 222.9,359.6 223.1,359.8 236.6,367.6 244.2,363.2 244.5,363 "/>
<polygon class="st3" points="230.6,355.4 223.1,359.8 236.6,367.6 244.2,363.2 "/>
<path class="st4" d="M185.4,360.8v0.7c0,1,0.4,1.9,1.3,2.3l48.4,28c0.4,0.3,0.9,0.4,1.3,0.4v-1.9L185.4,360.8z"/>
<path class="st2" d="M185.4,360.8v0.7c0,1,0.4,1.9,1.3,2.3l48.4,28c0.4,0.3,0.9,0.4,1.3,0.4v-1.9L185.4,360.8z"/>
<path class="st3" d="M230.1,356.7c-0.1-0.7-0.6-1.3-1.2-1.7l-50.1-29c-0.6,0.7-1,1.4-1,2.3c0,0.1,0,0.3,0,0.4l5.3,31.5
	c0.1,0.9,0.7,1.8,1.6,2.2l48.2,27.9c0.9,0.4,2,0.6,2.9,0.2L230.1,356.7z"/>
<path class="st1" d="M231,356.2c-0.1-0.7-0.6-1.3-1.2-1.7l-50.2-29c-0.3,0.1-0.4,0.3-0.7,0.4l50.1,29c0.6,0.3,1.1,1,1.2,1.7
	l5.7,34.1c0.1,0,0.3-0.1,0.4-0.2l0.3-0.2L231,356.2z"/>
<path class="st2" d="M230.2,356.6l5.7,34.1c0.1,0,0.3-0.1,0.4-0.2l0.3-0.2l-5.7-34.1c-0.1-0.4-0.3-0.8-0.4-1.1l-0.8,0.4
	C229.9,355.9,230,356.3,230.2,356.6z"/>
<path id="freepik--shadow--inject-116_2_" class="st26" d="M217.4,414c-3.2,1.9-3.2,4.8,0,6.6c3.8,1.8,8.1,1.8,11.8,0
	c3.2-1.9,3.2-4.8,0-6.6C225.4,412.2,221.1,412.2,217.4,414z"/>
<path class="st4" d="M218.1,407.2c3.3,1.2,7,1.3,10.4,0.3c2.9-1.1,2.9-2.8,0.1-3.9c-3.3-1.2-7-1.3-10.4-0.3
	C215.2,404.4,215.1,406.1,218.1,407.2z"/>
<path d="M218.1,407.2c3.3,1.2,7,1.3,10.4,0.3c2.9-1.1,2.9-2.8,0.1-3.9c-3.3-1.2-7-1.3-10.4-0.3C215.2,404.4,215.1,406.1,218.1,407.2
	z"/>
<path class="st29" d="M216.6,417.6L216.6,417.6c0.1,0.7,0.7,1.3,1.9,1.9c3,1.1,6.1,1.2,9.1,0.2c1.2-0.4,1.8-1.2,1.9-1.8l0,0
	l1.6-17.8l-15.1-0.4L216.6,417.6z"/>
<path class="st30" d="M216,399.7l0.1,3.6c0.3,0.2,0.6,0.4,0.9,0.6c0.1,0.1,0.3,0.1,0.4,0.2c3.9,1.4,8.1,1.6,12,0.3
	c0.4-0.1,0.9-0.3,1.3-0.6l0.3-3.6L216,399.7z"/>
<path class="st4" d="M217.4,402.7c3.9,1.4,8.1,1.6,12,0.3c1.6-0.6,2.4-1.4,2.4-2.3l0,0l0.1-2.8h-1.7c-0.2-0.1-0.4-0.3-0.7-0.4
	c-3.9-1.4-8.1-1.6-12-0.3c-0.3,0.1-0.4,0.2-0.8,0.3h-1.8l-0.1,2.8C215,401.1,215.8,402,217.4,402.7z"/>
<path d="M217.4,402.7c3.9,1.4,8.1,1.6,12,0.3c1.6-0.6,2.4-1.4,2.4-2.3l0,0l0.1-2.8h-1.7c-0.2-0.1-0.4-0.3-0.7-0.4
	c-3.9-1.4-8.1-1.6-12-0.3c-0.3,0.1-0.4,0.2-0.8,0.3h-1.8l-0.1,2.8C215,401.1,215.8,402,217.4,402.7z"/>
<path class="st4" d="M217.5,400c3.9,1.4,8.1,1.6,12,0.3c3.2-1.3,3.3-3.4,0.1-4.9c-3.9-1.4-8.1-1.6-12-0.3
	C214.2,396.5,214.2,398.6,217.5,400z"/>
<path class="st4" d="M218.5,399.2c3.1,1.2,6.6,1.3,9.9,0.3c1.6-0.6,2.2-1.4,2-2.2l0,0l-0.4-2.2l-4.1-0.1c-1.3-0.2-2.9-0.2-4.2-0.1
	l-4.3-0.1l-0.6,2.2l0,0C216.3,397.7,217,398.6,218.5,399.2z"/>
<path class="st31" d="M218.5,399.2c3.1,1.2,6.6,1.3,9.9,0.3c1.6-0.6,2.2-1.4,2-2.2l0,0l-0.4-2.2l-4.1-0.1c-1.3-0.2-2.9-0.2-4.2-0.1
	l-4.3-0.1l-0.6,2.2l0,0C216.3,397.7,217,398.6,218.5,399.2z"/>
<path class="st4" d="M219,396.7c3,1,6.1,1.1,9.1,0.2c2.4-0.9,2.6-2.3,0.1-3.3c-3-1-6.1-1.1-9.1-0.2
	C216.5,394.1,216.5,395.7,219,396.7z"/>
<path class="st4" d="M219.4,394.1c1.4-0.4,2.9-0.6,4.3-0.4c1.3,0.1,2.8,0.3,4.1,0.8c1.1,0.4,1.3,0.9,1.3,0.9s-0.1,0.1-0.3,0.3
	c-0.3,0.2-0.6,0.4-1,0.4c-1.3,0.4-2.9,0.6-4.2,0.4c-1.4-0.1-2.9-0.3-4.2-0.8c-0.4-0.2-0.8-0.4-1.1-0.6c-0.1-0.1-0.2-0.2-0.3-0.3
	C218.1,394.9,218.3,394.6,219.4,394.1z"/>
<path d="M219.4,394.1c1.4-0.4,2.9-0.6,4.3-0.4c1.3,0.1,2.8,0.3,4.1,0.8c1.1,0.4,1.3,0.9,1.3,0.9s-0.1,0.1-0.3,0.3
	c-0.3,0.2-0.6,0.4-1,0.4c-1.3,0.4-2.9,0.6-4.2,0.4c-1.4-0.1-2.9-0.3-4.2-0.8c-0.4-0.2-0.8-0.4-1.1-0.6c-0.1-0.1-0.2-0.2-0.3-0.3
	C218.1,394.9,218.3,394.6,219.4,394.1z"/>
<path class="st4" d="M219.4,394.9c2.8-0.8,5.7-0.7,8.4,0.2c0.4,0.2,0.7,0.4,1,0.6c-0.3,0.2-0.6,0.4-1,0.4c-1.3,0.4-2.9,0.6-4.2,0.4
	c-1.4-0.1-2.9-0.3-4.2-0.8c-0.4-0.2-0.8-0.4-1.1-0.6C218.6,395,219,394.9,219.4,394.9z"/>
<path d="M219.4,394.9c2.8-0.8,5.7-0.7,8.4,0.2c0.4,0.2,0.7,0.4,1,0.6c-0.3,0.2-0.6,0.4-1,0.4c-1.3,0.4-2.9,0.6-4.2,0.4
	c-1.4-0.1-2.9-0.3-4.2-0.8c-0.4-0.2-0.8-0.4-1.1-0.6C218.6,395,219,394.9,219.4,394.9z"/>
<path d="M221.1,396c-0.3,0.1-0.7,0-1-0.2s-0.4-0.4-0.3-0.6c0.3-0.1,0.7,0,1,0.2C221.2,395.7,221.3,395.9,221.1,396z"/>
<path class="st4" d="M230.6,405.6c0,0.7-0.7,1.3-2.1,1.9c-3.4,1-7.1,0.9-10.4-0.3c-1.4-0.4-2.1-1.3-2.1-2l0.3,6.6
	c0,0.6,0.7,1.3,2.1,1.9c3.1,1.2,6.6,1.3,9.9,0.3c1.3-0.4,2.1-1.1,2.1-1.8L230.6,405.6z"/>
<path class="st3" d="M224.9,413C224.7,413,224.7,413,224.9,413c0.4,0.2,1,0.2,1.4,0.1c1.3-0.4,2.1-1.8,1.8-3.1
	c-0.1-0.1-0.2-0.1-0.3-0.1c-0.8,0.3-1.3,0.8-1.8,1.4c-0.2,0.4-0.4,0.7-0.6,1.1C225.3,412.6,225.1,412.8,224.9,413z"/>
<path class="st3" d="M227.6,409.6c0-0.1,0-0.2-0.1-0.3c-0.9-0.4-2-0.2-2.7,0.4c-0.8,0.7-1.1,1.8-0.6,2.8l0,0c0.1,0.1,0.2,0.1,0.3,0
	c0.4-0.4,0.8-0.8,1-1.3c0.2-0.4,0.4-0.8,0.8-1.1c0.3-0.2,0.7-0.4,1.1-0.6C227.5,409.6,227.5,409.6,227.6,409.6z"/>
<path class="st26" d="M175.4,338.5c0.1-0.3-0.1-0.7-0.4-0.8L119.9,306c-0.6-0.3-1.3-0.3-2.1,0l-17,9.9c-0.2,0.1-0.3,0.2-0.4,0.4
	c-0.1,0.3,0.1,0.7,0.4,0.8l55.1,31.8c0.6,0.3,1.3,0.3,2.1,0l17-9.9C175.2,338.7,175.3,338.6,175.4,338.5z"/>
<path class="st2" d="M173.1,337.8l-15.2,8.9c-0.6,0.3-1.3,0.3-1.9,0l-49.3-28.5c-0.6-0.3-1-0.9-1-1.6v-0.4c0-0.7,0.4-1.3,1-1.7
	l15.2-8.9c0.6-0.3,1.3-0.3,1.9,0l49.3,28.5c0.6,0.3,1,0.9,1,1.6v0.4C174,336.8,173.7,337.5,173.1,337.8z"/>
<path class="st1" d="M173.4,335c0.1-0.3,0-0.7-0.3-0.8l-49.3-28.5c-0.6-0.3-1.3-0.3-1.9,0l-15.2,8.9c-0.2,0.1-0.3,0.2-0.4,0.4
	c-0.1,0.4,0.1,0.7,0.4,0.8l49.3,28.4c0.6,0.3,1.3,0.3,1.9,0l15.2-8.9C173.3,335.2,173.4,335.1,173.4,335z"/>
<path class="st26" d="M70.5,334.6c-0.2,0.6,0,1.3,0.6,1.4l15.1,8.7c-0.8,0.4-0.7,1.3,0.1,1.8l18.2,10.7c1,0.4,2.1,0.4,3,0l21.8,12.5
	c1.1,0.6,2.3,0.6,3.4,0l3-1.8c0.3-0.1,0.4-0.3,0.6-0.6c0.2-0.4,0-1.2-0.6-1.3l-21.8-12.5l2-1.1c0.2-0.1,0.4-0.3,0.4-0.4
	c0.2-0.4,0-1.1-0.4-1.3L97.6,340c-1-0.4-2.1-0.4-3,0l-2,1.2l-15.1-8.7c-1.1-0.6-2.3-0.6-3.4,0l-3,1.7
	C70.9,334.3,70.7,334.4,70.5,334.6z"/>
<path class="st2" d="M82.8,326l52.6,30.4c1.3,0.8,3,0.8,4.6,0.1c1.3-0.9,2.1-2.3,2-3.9l-3.9-48.1c-0.2-1.7-1.2-3.1-2.6-4L82.8,270
	c-1.3-0.8-3-0.8-4.6-0.1c-1.3,0.9-2.1,2.3-2,3.9l3.9,48.1C80.5,323.6,81.5,325.1,82.8,326z"/>
<path class="st1" d="M82.8,326.1l46.2,26.7v-45.9l8.2-4.8c-0.4-0.8-1-1.3-1.7-1.8L82.8,270c-1.3-0.8-3-0.8-4.6-0.1
	c-1.3,0.9-2.1,2.3-2,3.9l3.9,48.1C80.5,323.6,81.5,325.2,82.8,326.1z"/>
<path class="st3" d="M135.5,356.4L82.8,326c-1.3-0.9-2.3-2.3-2.6-4l-3.9-48.1c-0.1-1.4,0.9-2.1,2.1-1.3L131,303
	c1.3,0.9,2.3,2.3,2.6,4l3.9,48.1C137.8,356.6,136.8,357.2,135.5,356.4z"/>
<polygon class="st1" points="111.4,329.8 98.5,322.2 96.3,323.5 109.3,331 "/>
<path class="st3" d="M89.2,344.1l6.8-20.4l13,7.4l2.1-1.3l-1.4,20.3l-0.2,1.1l1-0.4l4.2-2.4c0.6-0.4,1-0.1,1,0.4v0.4
	c0,0.6-0.4,1.2-0.9,1.6l0,0l-6.9,4l0,0c-0.3,0.1-0.6,0.2-0.9,0.2s-0.7,0-1-0.2l-15.7-9.2C89.7,345.3,89.4,344.6,89.2,344.1z"/>
<polygon points="109,352.2 110.1,344.9 115.5,348.1 "/>
<path class="st2" d="M107.1,354.8c0.3,0,0.6-0.1,0.9-0.2l0,0l6.9-4l0,0c0.4-0.3,0.9-0.9,0.9-1.6v-0.4c0-0.4-0.4-0.8-1-0.4l-4.2,2.4
	c-0.4,0.3-0.8,0.1-0.7-0.4l1.4-20.3l-2.1,1.3L107.1,354.8z"/>
<g>
	<path class="st4" d="M360.9,226.2l-2.8,1.6c-0.9,0.4-1.3,1.4-1.4,2.4v50c0.1,1.1,0.6,2,1.4,2.6l36.6,21.1c0.9,0.4,2.1,0.4,3,0
		l2.8-1.6c0.9-0.4,1.3-1.4,1.4-2.4v-50c-0.1-1.1-0.6-2-1.4-2.6l-36.6-21.1C363,225.8,361.9,225.8,360.9,226.2z"/>
	<path class="st31" d="M396.3,302.9v-50c0-0.6-0.1-1.1-0.4-1.4l5.7-3.2c0.3,0.4,0.4,1,0.4,1.4v50c-0.1,1.1-0.6,2-1.4,2.6l-2.8,1.6
		c-0.9,0.4-1.9,0.8-2.8,0.3C395.9,304.5,396.4,303.7,396.3,302.9z"/>
	<path class="st32" d="M358.3,227.7l2.8-1.6c0.9-0.4,2.1-0.4,3,0l36.6,21.1c0.4,0.3,0.8,0.7,1,1.1l-5.7,3.2c-0.2-0.4-0.6-0.8-1-1.1
		l-36.6-21.1c-0.8-0.4-1.3-0.2-1.4,0.6C357.1,229,357.6,228.2,358.3,227.7z"/>
	<path class="st4" d="M356.7,230.5v50c0.1,1.1,0.6,2,1.4,2.6l36.6,21.1c0.8,0.4,1.4,0,1.4-0.9v-50c-0.1-1.1-0.6-2-1.4-2.6
		l-36.6-21.1C357.3,229,356.7,229.5,356.7,230.5z"/>
	<path class="st5" d="M393,277.8c0,0.2-0.1,0.4-0.2,0.7c-0.2,0.1-0.3,0.2-0.4,0.3l-8.7,3.9h-0.1h-0.1c-0.1-0.1-0.2-0.2-0.3-0.4
		c-0.1-0.2-0.1-0.4-0.1-0.6v-5.4c0-0.4,0.1-0.7,0.3-0.8c0.1-0.1,0.2-0.2,0.4-0.2l3.8-1.4l-3.8-5.8c-0.1-0.2-0.2-0.4-0.4-0.8
		c-0.2-0.3-0.3-0.7-0.3-1.1v-5.4c0-0.1,0-0.3,0.1-0.4s0.2-0.1,0.3,0l0.1,0.1l0.1,0.2l8.7,14c0.2,0.3,0.4,0.6,0.4,0.9
		c0.2,0.3,0.2,0.6,0.2,0.9V277.8z"/>
	<path class="st5" d="M381.7,283.8c0,0.1,0,0.2,0,0.3s-0.1,0.3-0.2,0.4s-0.2,0.1-0.3,0l-2.9-1.7c-0.3-0.2-0.6-0.4-0.7-0.7
		c-0.1-0.3-0.2-0.6-0.3-0.9l-7.3-31.1c0-0.1,0-0.2,0-0.3c-0.1-0.1,0-0.3,0.1-0.4c0.1-0.1,0.2-0.1,0.3,0l2.9,1.7
		c0.2,0.2,0.4,0.4,0.6,0.7c0.1,0.3,0.2,0.6,0.3,0.9L381.7,283.8z"/>
	<path class="st5" d="M358.3,256.3c0-0.2,0.1-0.4,0.2-0.7c0.2-0.1,0.3-0.2,0.4-0.3l8.7-4h0.2h0.1c0.1,0.1,0.2,0.2,0.3,0.4
		c0.1,0.2,0.1,0.4,0.1,0.6v5.7c0,0.4-0.1,0.8-0.3,0.9c-0.1,0.1-0.2,0.1-0.4,0.2l-3.8,1.4l3.8,5.8c0.1,0.2,0.2,0.4,0.4,0.7
		c0.2,0.3,0.3,0.7,0.3,1.1v5.4c0,0.1,0,0.3-0.1,0.4c0,0.1-0.2,0.1-0.3,0l-0.1-0.1c-0.1-0.1-0.2-0.1-0.2-0.2l-8.7-14
		c-0.2-0.3-0.4-0.6-0.4-0.9c-0.2-0.3-0.2-0.6-0.2-0.9V256.3z"/>
</g>
<g id="freepik--mechanical-arm--inject-182">
	<path class="st9" d="M468.8,269.8c3-2.9,10.3,2.4,10.3,5.6l-34.6,62.3l-17.1-8.2L468.8,269.8z"/>
	<path class="st10" d="M468.8,269.8c3-2.9,10.3,2.4,10.3,5.6l-34.6,62.3l-17.1-8.2L468.8,269.8z"/>
	<path class="st9" d="M419.3,329c0-1.6-0.3-3.1-1.1-4.6l0.4-0.8l-2.3-1.3l0,0c-1.9-1.2-4.6-1-7.4,0.8c-6.1,4.1-10,10.8-10.2,18.2
		c0,3.4,1.3,5.8,3.3,6.8l0,0l2.3,1.3l0.4-0.8c1.6-0.1,3-0.6,4.4-1.3C415.2,343.1,419,336.3,419.3,329z"/>
	<path class="st11" d="M419.3,329c0-1.6-0.3-3.1-1.1-4.6l0.4-0.8l-2.3-1.3l0,0c-1.9-1.2-4.6-1-7.4,0.8c-6.1,4.1-10,10.8-10.2,18.2
		c0,3.4,1.3,5.8,3.3,6.8l0,0l2.3,1.3l0.4-0.8c1.6-0.1,3-0.6,4.4-1.3C415.2,343.1,419,336.3,419.3,329z"/>
	<path class="st9" d="M411.4,324.6c-6.1,4.1-10,10.8-10.2,18.2c0.1,6.7,4.8,9.3,10.5,5.9c6.1-4.1,10-10.8,10.2-18.2
		C421.9,323.8,417.1,321.2,411.4,324.6z"/>
	<path class="st6" d="M411.4,324.6c-6.1,4.1-10,10.8-10.2,18.2c0.1,6.7,4.8,9.3,10.5,5.9c6.1-4.1,10-10.8,10.2-18.2
		C421.9,323.8,417.1,321.2,411.4,324.6z"/>
	<path class="st2" d="M468.8,413L468.8,413v-11.8H460c-0.9-0.6-1.9-1.3-3-1.9c-15.8-9.1-41.1-9.1-56.7,0c-1.1,0.6-2.1,1.2-3,1.9
		h-8.9V413l0,0c-0.2,4.8,3.8,9.6,11.7,14.2c15.7,9.1,41.1,9.1,56.7,0C465.1,422.5,468.9,417.7,468.8,413z"/>
	<path class="st3" d="M400.3,417.6c-15.7-9.1-15.7-23.8,0-32.8c15.7-9.1,41.1-9.1,56.7,0c15.8,9.1,15.7,23.8,0,32.8
		C441.4,426.7,415.9,426.7,400.3,417.6z"/>
	<path class="st12" d="M454.8,401.1L454.8,401.1v-54l0,0c-0.7-14.4-13-25.7-27.4-25c-13.4,0.6-24.3,11.4-25,25v54.1l0,0
		c0,3.9,2.6,7.7,7.7,10.7c10.2,5.8,26.9,5.8,37.1,0c5-3,7.6-6.8,7.7-10.5l0,0L454.8,401.1L454.8,401.1z"/>
	<path class="st9" d="M451.3,347.1c0-1.6-0.3-3.1-1-4.6l0.4-0.8l-2.3-1.3l0,0c-1.9-1.2-4.6-1.1-7.4,0.7c-6.1,4-10,10.8-10.4,18.1
		c0,3.4,1.3,5.8,3.2,6.9l0,0l2.3,1.3l0.4-0.8c1.6-0.1,3-0.6,4.4-1.3C447.1,361,450.8,354.3,451.3,347.1z"/>
	<path class="st11" d="M451.3,347.1c0-1.6-0.3-3.1-1-4.6l0.4-0.8l-2.3-1.3l0,0c-1.9-1.2-4.6-1.1-7.4,0.7c-6.1,4-10,10.8-10.4,18.1
		c0,3.4,1.3,5.8,3.2,6.9l0,0l2.3,1.3l0.4-0.8c1.6-0.1,3-0.6,4.4-1.3C447.1,361,450.8,354.3,451.3,347.1z"/>
	<path class="st9" d="M443.5,342.5c-6.2,4-10,10.8-10.4,18.1c0,6.7,4.8,9.3,10.4,6c6.1-4,10-10.8,10.4-18.1
		C454,341.9,449.2,339.2,443.5,342.5z"/>
	<path class="st10" d="M443.5,342.5c-6.2,4-10,10.8-10.4,18.1c0,6.7,4.8,9.3,10.4,6c6.1-4,10-10.8,10.4-18.1
		C454,341.9,449.2,339.2,443.5,342.5z"/>
	<path class="st9" d="M438.5,357.5c0,0.7,0.1,1.3,0.4,2c0.8,1.7,2.6,2.1,4.7,0.9c3-2,4.8-5.1,4.9-8.7c0-2.1-0.9-3.3-2.3-3.6
		c-0.9-0.1-1.9,0.1-2.7,0.7C440.5,350.7,438.6,353.9,438.5,357.5z"/>
	<path class="st1" d="M438.5,357.5c0,0.7,0.1,1.3,0.4,2c1,0.1,1.9-0.1,2.7-0.7c3-2,4.8-5.1,4.9-8.7c0-0.7-0.1-1.3-0.4-2.1
		c-0.9-0.1-1.9,0.1-2.7,0.7C440.5,350.7,438.6,353.9,438.5,357.5z"/>
	<path class="st9" d="M438,385.4c0.1-2.4,1.4-4.8,3.6-6c0.8-0.6,1.8-0.6,2.6-0.2l0,0l1.6,1l-0.6,1.2v0.1c-0.1,2.4-1.4,4.8-3.6,6l0,0
		l-0.7,1.3l-1.8-1.1l0,0l0,0l0,0C438.3,387.1,437.9,386.3,438,385.4z"/>
	<path class="st13" d="M438,385.4c0.1-2.4,1.4-4.8,3.6-6c0.8-0.6,1.8-0.6,2.6-0.2l0,0l1.6,1l-0.6,1.2v0.1c-0.1,2.4-1.4,4.8-3.6,6
		l0,0l-0.7,1.3l-1.8-1.1l0,0l0,0l0,0C438.3,387.1,437.9,386.3,438,385.4z"/>
	<path class="st9" d="M446.7,382.4c-0.1,2.4-1.4,4.8-3.6,6c-2,1.1-3.6,0.2-3.6-2c0.1-2.4,1.4-4.8,3.6-6
		C445.2,379.3,446.7,380.1,446.7,382.4z"/>
	<path class="st14" d="M438,400.4c0.1-2.4,1.4-4.8,3.6-6c0.8-0.6,1.8-0.6,2.6-0.2l0,0l1.6,1l-0.6,1.1v0.1c-0.1,2.4-1.4,4.8-3.6,6
		l0,0l-0.7,1.3l-1.8-1.1l0,0l0,0l0,0C438.3,402.1,437.9,401.2,438,400.4z"/>
	<path class="st15" d="M446.7,397.4c-0.1,2.4-1.4,4.8-3.6,6c-2,1.1-3.6,0.2-3.6-2c0.1-2.4,1.4-4.8,3.6-6
		C445.2,394.3,446.7,395.1,446.7,397.4z"/>
	<polygon class="st2" points="414.8,271.2 410.3,294.3 404,290.6 408.4,267.5 	"/>
	<polygon class="st1" points="386.7,299.3 393,303 393,303 392.4,303.3 386.1,299.6 386.7,299.4 	"/>
	<polygon class="st1" points="410.6,292.6 409.1,293.5 402.2,297.5 402,297.8 402,290.2 402.2,290 404.4,288.6 404.4,288.6 	"/>
	<polygon class="st2" points="386.1,303.2 392.4,306.9 392.4,303.3 386.1,299.6 	"/>
	<path class="st3" d="M396.8,304.3L396.8,304.3l-4.4,2.6v-3.6l0.6-0.3h0.1l1.8,1c0.2,0.1,0.4,0.2,0.7,0.2c0.1,0,0.3,0.2,0.4,0.1
		C396.3,304.4,396.3,304.3,396.8,304.3z"/>
	<path class="st3" d="M418.4,269.2l-1.3,7.1v0.1l-2.7,14.1l-0.8,3.9l-12.1,7.2l-0.1,0.1c0.3-0.4,0.6-1.1,0.6-1.7v-2.2l0.2-0.1l6.9-4
		l1.6-0.9l3.4-17.9l0.4-2.2l0.2-1.3L418.4,269.2z"/>
	<path class="st9" d="M470.8,240.7c3-2.6,6.1-3.2,8.6-2.2l0,0l15.1,7.3l-0.4,1c1.1,1.4,1.9,3.2,2.1,5.1c1.3,7.8-2.4,18.1-8.4,23.1
		c-1.3,1.3-3,2.2-4.8,2.6l-0.4,1l-15.1-7.2l0,0c-2.6-0.8-4.4-3.3-5.2-7.3C461,256.1,464.7,245.8,470.8,240.7z"/>
	<path class="st6" d="M470.8,240.7c3-2.6,6.1-3.2,8.6-2.2l0,0l15.1,7.3l-0.4,1c1.1,1.4,1.9,3.2,2.1,5.1c1.3,7.8-2.4,18.1-8.4,23.1
		c-1.3,1.3-3,2.2-4.8,2.6l-0.4,1l-15.1-7.2l0,0c-2.6-0.8-4.4-3.3-5.2-7.3C461,256.1,464.7,245.8,470.8,240.7z"/>
	<path class="st9" d="M486.3,248c-6,5-10,15.4-8.4,23.1c1.3,7.8,7.3,10,13.4,4.9c6-5,10-15.4,8.4-23.1
		C498.3,245.1,492.3,243,486.3,248z"/>
	<path class="st9" d="M483.5,266.4c0.1,0.8,0.4,1.6,0.9,2.2c1.2,1.8,3.3,1.9,5.6,0.1c3-2.9,4.6-7,4-11.1c-0.4-2.3-1.8-3.8-3.4-3.7
		c-1.1,0.1-2.1,0.4-3,1.3C484.5,258.1,483,262.3,483.5,266.4z"/>
	<path class="st13" d="M483.5,266.4c0.1,0.8,0.4,1.6,0.9,2.2c1.2,1.8,3.3,1.9,5.6,0.1c3-2.9,4.6-7,4-11.1c-0.4-2.3-1.8-3.8-3.4-3.7
		c-1.1,0.1-2.1,0.4-3,1.3C484.5,258.1,483,262.3,483.5,266.4z"/>
	<path class="st1" d="M483.5,266.4c0.1,0.8,0.4,1.6,0.9,2.2c1.1-0.1,2.2-0.4,3-1.3c3-2.9,4.6-6.9,4-11c-0.1-0.8-0.4-1.6-0.9-2.2
		c-1.1,0.1-2.1,0.4-3,1.3C484.5,258.1,483,262.3,483.5,266.4z"/>
	<path class="st9" d="M421.9,266.8l49.7-4c2.9-0.3,4.8-2.9,4.6-5.7s-2.9-4.8-5.7-4.6c-0.2,0-0.3,0-0.4,0.1h-0.2l-49.4,6.4
		c-2.1,0.4-3.6,2.4-3.1,4.6C417.8,265.8,419.8,267.2,421.9,266.8L421.9,266.8z"/>
	<path class="st10" d="M421.9,266.8l49.7-4c2.9-0.3,4.8-2.9,4.6-5.7s-2.9-4.8-5.7-4.6c-0.2,0-0.3,0-0.4,0.1h-0.2l-49.4,6.4
		c-2.1,0.4-3.6,2.4-3.1,4.6C417.8,265.8,419.8,267.2,421.9,266.8L421.9,266.8z"/>
	<path class="st9" d="M409.4,249.4c2.2-1.9,4.3-2.2,6.1-1.6l0,0l10.8,5.6l-0.2,0.7c0.8,1.1,1.3,2.3,1.4,3.7c0.8,6.1-1.4,12.2-6,16.4
		c-1,0.9-2.2,1.4-3.4,1.8l-0.3,0.7l-10.8-5.6l0,0c-1.8-0.6-3.1-2.3-3.7-5.2C402.6,259.8,404.9,253.7,409.4,249.4z"/>
	<path class="st6" d="M409.4,249.4c2.2-1.9,4.3-2.2,6.1-1.6l0,0l10.8,5.6l-0.2,0.7c0.8,1.1,1.3,2.3,1.4,3.7c0.8,6.1-1.4,12.2-6,16.4
		c-1,0.9-2.2,1.4-3.4,1.8l-0.3,0.7l-10.8-5.6l0,0c-1.8-0.6-3.1-2.3-3.7-5.2C402.6,259.8,404.9,253.7,409.4,249.4z"/>
	<path class="st9" d="M420.3,255.1c-4.6,4.2-6.8,10.3-6.1,16.4c1,5.6,5.2,7.1,9.6,3.6c4.6-4.2,6.8-10.3,6-16.4
		C429,253,424.6,251.6,420.3,255.1z"/>
	<path class="st9" d="M418.4,268.2c0.1,0.6,0.3,1.1,0.6,1.6c0.9,1.3,2.3,1.3,3.9,0c2.1-2.1,3.2-4.9,2.9-7.9
		c-0.3-1.7-1.3-2.7-2.4-2.6c-0.8,0.1-1.6,0.4-2.1,0.9C419.1,262.3,418,265.2,418.4,268.2z"/>
	<path class="st13" d="M418.4,268.2c0.1,0.6,0.3,1.1,0.6,1.6c0.9,1.3,2.3,1.3,3.9,0c2.1-2.1,3.2-4.9,2.9-7.9
		c-0.3-1.7-1.3-2.7-2.4-2.6c-0.8,0.1-1.6,0.4-2.1,0.9C419.1,262.3,418,265.2,418.4,268.2z"/>
	<path class="st1" d="M418.4,268.2c0.1,0.6,0.3,1.1,0.6,1.6c0.8-0.1,1.6-0.4,2.1-0.9c2.1-2.1,3.1-4.9,2.9-7.9
		c-0.1-0.6-0.3-1.1-0.6-1.6c-0.8,0.1-1.6,0.4-2.1,0.9C419.1,262.3,418,265.2,418.4,268.2z"/>
	<polygon class="st2" points="415.3,256.9 409.1,253.1 402.5,237.2 407.6,236.2 	"/>
	<polygon class="st3" points="415.3,256.9 417.9,254 410.2,235.2 410.2,235.2 408.6,231.2 385.5,243.9 385.5,248.4 407.3,236.8 	"/>
	<polygon class="st2" points="385.5,248.4 376.1,243 376.1,238.5 385.5,243.9 	"/>
	<polygon class="st1" points="376.1,238.5 399.1,225.8 408.6,231.2 385.5,243.9 	"/>
</g>
<g id="freepik--mechanical-arm--inject-182_2_">
	<path class="st9" d="M165.7,358.5l-5.7,0.8l-4.3-21.2c0.3-0.9,2.9-1.8,3.6-0.7L165.7,358.5z"/>
	<path class="st10" d="M165.7,358.5l-5.7,0.8l-4.3-21.2c0.3-0.9,2.9-1.8,3.6-0.7L165.7,358.5z"/>
	<path class="st9" d="M169.2,362.8c0.4,0.3,0.9,0.4,1.3,0.4l0.1,0.2l0.7-0.4l0,0c0.6-0.3,1-1,1-2.1c-0.1-2.2-1.3-4.2-3.1-5.6
		c-0.9-0.4-1.7-0.6-2.2-0.2l0,0l-0.7,0.4l0.1,0.2c-0.2,0.4-0.3,0.9-0.3,1.3C166.2,359.4,167.3,361.5,169.2,362.8z"/>
	<path class="st11" d="M169.2,362.8c0.4,0.3,0.9,0.4,1.3,0.4l0.1,0.2l0.7-0.4l0,0c0.6-0.3,1-1,1-2.1c-0.1-2.2-1.3-4.2-3.1-5.6
		c-0.9-0.4-1.7-0.6-2.2-0.2l0,0l-0.7,0.4l0.1,0.2c-0.2,0.4-0.3,0.9-0.3,1.3C166.2,359.4,167.3,361.5,169.2,362.8z"/>
	<path class="st9" d="M165.3,357.6c0.1,2.2,1.3,4.3,3.1,5.6c1.8,1,3.1,0.2,3.1-1.8c-0.1-2.2-1.3-4.3-3-5.6
		C166.7,354.8,165.3,355.7,165.3,357.6z"/>
	<path class="st6" d="M165.3,357.6c0.1,2.2,1.3,4.3,3.1,5.6c1.8,1,3.1,0.2,3.1-1.8c-0.1-2.2-1.3-4.3-3-5.6
		C166.7,354.8,165.3,355.7,165.3,357.6z"/>
	<path class="st2" d="M154.6,387c4.8,2.8,12.5,2.8,17.2,0c2.4-1.3,3.7-2.9,3.6-4.3l0,0v-3.6h-2.7c-0.3-0.2-0.6-0.4-0.9-0.6
		c-4.8-2.8-12.5-2.8-17.2,0c-0.3,0.2-0.6,0.4-0.9,0.6H151v3.6l0,0C151,384.3,152.1,385.6,154.6,387z"/>
	<path class="st3" d="M154.6,384.1c-4.8-2.8-4.8-7.2,0-10s12.5-2.8,17.2,0s4.8,7.2,0,10S159.5,386.9,154.6,384.1z"/>
	<path class="st1" d="M155.3,379.3L155.3,379.3c0,1.2,0.8,2.3,2.3,3.2c3,1.8,8.2,1.8,11.3,0c1.6-0.9,2.3-2.1,2.3-3.2l0,0v-16.4
		c0-0.3,0-0.4,0-0.8c-0.2-4.4-3.9-7.8-8.3-7.6s-7.8,3.9-7.6,8.3l0,0V379.3L155.3,379.3L155.3,379.3z"/>
	<path class="st9" d="M159.6,368.2c0.4,0.3,0.9,0.4,1.3,0.4l0.1,0.2l0.7-0.4l0,0c0.6-0.3,1-1.1,1-2.1c-0.1-2.2-1.3-4.2-3.1-5.6
		c-0.9-0.4-1.7-0.6-2.2-0.2l0,0l-0.7,0.4l0.1,0.2c-0.2,0.4-0.3,0.9-0.3,1.3C156.5,364.9,157.7,367,159.6,368.2z"/>
	<path class="st11" d="M159.6,368.2c0.4,0.3,0.9,0.4,1.3,0.4l0.1,0.2l0.7-0.4l0,0c0.6-0.3,1-1.1,1-2.1c-0.1-2.2-1.3-4.2-3.1-5.6
		c-0.9-0.4-1.7-0.6-2.2-0.2l0,0l-0.7,0.4l0.1,0.2c-0.2,0.4-0.3,0.9-0.3,1.3C156.5,364.9,157.7,367,159.6,368.2z"/>
	<path class="st9" d="M155.6,363.2c0.1,2.2,1.3,4.2,3.1,5.6c1.8,1,3.1,0.2,3.1-1.8c-0.1-2.2-1.3-4.2-3.1-5.6
		C157,360.3,155.6,361,155.6,363.2z"/>
	<path class="st10" d="M155.6,363.2c0.1,2.2,1.3,4.2,3.1,5.6c1.8,1,3.1,0.2,3.1-1.8c-0.1-2.2-1.3-4.2-3.1-5.6
		C157,360.3,155.6,361,155.6,363.2z"/>
	<path class="st9" d="M158.8,363.3c-0.2-0.2-0.4-0.2-0.8-0.2c-0.4,0.1-0.7,0.4-0.7,1.1c0.1,1.1,0.6,2.1,1.4,2.7
		c0.6,0.4,1.2,0.2,1.3-0.3c0.1-0.2,0.1-0.4,0.1-0.6C160.2,364.8,159.7,363.8,158.8,363.3z"/>
	<path class="st1" d="M158.8,363.3c-0.2-0.2-0.4-0.2-0.8-0.2c-0.1,0.2-0.1,0.4-0.1,0.6c0.1,1.1,0.6,2.1,1.4,2.7
		c0.2,0.2,0.4,0.2,0.8,0.2c0.1-0.2,0.1-0.4,0.1-0.6C160.2,364.8,159.7,363.8,158.8,363.3z"/>
	<path class="st9" d="M160.1,375L160.1,375L160.1,375L160.1,375l-0.4,0.3l-0.2-0.4l0,0c-0.6-0.4-1-1.1-1.1-1.9l0,0l-0.2-0.3l0.4-0.3
		l0,0c0.3-0.1,0.6-0.1,0.8,0.1c0.6,0.4,1,1.1,1.1,1.9C160.5,374.7,160.3,374.9,160.1,375z"/>
	<path class="st13" d="M160.1,375L160.1,375L160.1,375L160.1,375l-0.4,0.3l-0.2-0.4l0,0c-0.6-0.4-1-1.1-1.1-1.9l0,0l-0.2-0.3
		l0.4-0.3l0,0c0.3-0.1,0.6-0.1,0.8,0.1c0.6,0.4,1,1.1,1.1,1.9C160.5,374.7,160.3,374.9,160.1,375z"/>
	<path class="st9" d="M158.8,372.8c0.6,0.4,1,1.1,1.1,1.9c0,0.7-0.4,1-1.1,0.6c-0.6-0.4-1-1.1-1.1-1.9
		C157.8,372.8,158.2,372.5,158.8,372.8z"/>
	<path class="st14" d="M160.1,379.6L160.1,379.6L160.1,379.6L160.1,379.6l-0.4,0.3l-0.2-0.4l0,0c-0.6-0.4-1-1.1-1.1-1.9l0,0
		l-0.2-0.3l0.4-0.3l0,0c0.3-0.1,0.6-0.1,0.8,0.1c0.6,0.4,1,1.1,1.1,1.9C160.5,379.3,160.3,379.5,160.1,379.6z"/>
	<path class="st15" d="M158.8,377.5c0.6,0.4,1,1.1,1.1,1.9c0,0.7-0.4,1-1.1,0.6c-0.6-0.4-1-1.1-1.1-1.9
		C157.8,377.4,158.2,377,158.8,377.5z"/>
	<polygon class="st2" points="176.3,337.7 176.3,345.3 174.7,346.3 174.7,338.7 	"/>
	
		<rect x="176.2" y="345.3" transform="matrix(0.8662 -0.4997 0.4997 0.8662 -150.4423 135.1518)" class="st1" width="1.9" height="6.4"/>
	<polygon class="st3" points="173.8,338.2 173.8,346.7 177.4,352.8 177.9,351.8 174.7,346.3 174.7,338.7 	"/>
	<polygon class="st1" points="177.9,351.8 179.6,350.8 179.1,351.8 177.4,352.8 	"/>
	<path class="st9" d="M161.2,336c-0.2,1.2-0.8,2-1.6,2.2l0,0l-4.7,2.2l-0.1-0.3c-0.6-0.1-1.1-0.4-1.4-0.8c-1.9-1.6-3-4.8-2.6-7.1
		c0.1-0.6,0.3-1.1,0.7-1.6l-0.1-0.3l4.7-2.2l0,0c0.8-0.3,1.7-0.1,2.7,0.7C160.5,330.3,161.6,333.5,161.2,336z"/>
	<path class="st6" d="M161.2,336c-0.2,1.2-0.8,2-1.6,2.2l0,0l-4.7,2.2l-0.1-0.3c-0.6-0.1-1.1-0.4-1.4-0.8c-1.9-1.6-3-4.8-2.6-7.1
		c0.1-0.6,0.3-1.1,0.7-1.6l-0.1-0.3l4.7-2.2l0,0c0.8-0.3,1.7-0.1,2.7,0.7C160.5,330.3,161.6,333.5,161.2,336z"/>
	<path class="st9" d="M149.8,332.5c-0.4,2.3,0.8,5.6,2.6,7.1c1.9,1.4,3.7,0.9,4-1.4c0.4-2.3-0.8-5.6-2.6-7.1
		C152,329.5,150.2,330.2,149.8,332.5z"/>
	<path class="st9" d="M153.6,333.3c-0.3-0.2-0.6-0.4-0.9-0.4c-0.4,0-0.9,0.4-1.1,1.1c-0.2,1.3,0.3,2.4,1.3,3.3
		c0.7,0.6,1.3,0.4,1.7,0c0.1-0.2,0.2-0.4,0.3-0.7C154.9,335.4,154.5,334.2,153.6,333.3z"/>
	<path class="st13" d="M153.6,333.3c-0.3-0.2-0.6-0.4-0.9-0.4c-0.4,0-0.9,0.4-1.1,1.1c-0.2,1.3,0.3,2.4,1.3,3.3
		c0.7,0.6,1.3,0.4,1.7,0c0.1-0.2,0.2-0.4,0.3-0.7C154.9,335.4,154.5,334.2,153.6,333.3z"/>
	<path class="st1" d="M153.6,333.3c-0.3-0.2-0.6-0.4-0.9-0.4c-0.1,0.2-0.2,0.4-0.3,0.7c-0.2,1.3,0.3,2.4,1.3,3.3
		c0.2,0.2,0.6,0.4,0.9,0.4c0.1-0.2,0.2-0.4,0.3-0.7C154.9,335.4,154.5,334.2,153.6,333.3z"/>
	<path class="st9" d="M173.6,336.8c0.7,0.1,1.3-0.3,1.3-1c0.1-0.7-0.3-1.3-1-1.3l-15-2h-0.1c-0.8-0.1-1.6,0.4-1.7,1.2
		c-0.2,0.9,0.4,1.7,1.2,1.9L173.6,336.8L173.6,336.8z"/>
	<path class="st10" d="M173.6,336.8c0.7,0.1,1.3-0.3,1.3-1c0.1-0.7-0.3-1.3-1-1.3l-15-2h-0.1c-0.8-0.1-1.6,0.4-1.7,1.2
		c-0.2,0.9,0.4,1.7,1.2,1.9L173.6,336.8L173.6,336.8z"/>
	<path class="st9" d="M179.1,336.5c-0.2,0.9-0.6,1.3-1.1,1.6l0,0l-3.2,1.7l-0.1-0.2c-0.4-0.1-0.8-0.3-1.1-0.6
		c-1.3-1.3-2.1-3.1-1.9-5c0.1-0.4,0.2-0.8,0.4-1.1l-0.1-0.2l3.2-1.7l0,0c0.4-0.2,1.2-0.1,1.9,0.4
		C178.7,332.7,179.3,334.6,179.1,336.5z"/>
	<path class="st6" d="M179.1,336.5c-0.2,0.9-0.6,1.3-1.1,1.6l0,0l-3.2,1.7l-0.1-0.2c-0.4-0.1-0.8-0.3-1.1-0.6
		c-1.3-1.3-2.1-3.1-1.9-5c0.1-0.4,0.2-0.8,0.4-1.1l-0.1-0.2l3.2-1.7l0,0c0.4-0.2,1.2-0.1,1.9,0.4
		C178.7,332.7,179.3,334.6,179.1,336.5z"/>
	<path class="st9" d="M171,334.3c-0.2,1.9,0.4,3.8,1.9,5c1.3,1.1,2.6,0.6,2.9-1.1c0.2-1.9-0.4-3.8-1.9-5
		C172.7,332.2,171.3,332.5,171,334.3z"/>
	<path class="st9" d="M173.7,334.7c-0.2-0.2-0.4-0.3-0.6-0.3c-0.4,0-0.7,0.3-0.8,0.8c-0.1,0.9,0.2,1.8,0.9,2.3c0.4,0.4,1,0.4,1.2,0
		c0.1-0.1,0.2-0.3,0.2-0.4C174.7,336.3,174.3,335.4,173.7,334.7z"/>
	<path class="st13" d="M173.7,334.7c-0.2-0.2-0.4-0.3-0.6-0.3c-0.4,0-0.7,0.3-0.8,0.8c-0.1,0.9,0.2,1.8,0.9,2.3c0.4,0.4,1,0.4,1.2,0
		c0.1-0.1,0.2-0.3,0.2-0.4C174.7,336.3,174.3,335.4,173.7,334.7z"/>
	<path class="st1" d="M173.7,334.8c-0.2-0.2-0.4-0.3-0.6-0.3c-0.1,0.1-0.2,0.3-0.2,0.4c-0.1,0.9,0.2,1.8,0.9,2.3
		c0.2,0.2,0.4,0.3,0.7,0.3c0.1-0.1,0.2-0.3,0.2-0.4C174.7,336.3,174.3,335.4,173.7,334.8z"/>
	<polygon class="st1" points="184.4,336.8 186.1,336 177.9,335.1 176.3,336 	"/>
	<polygon class="st2" points="186.1,336 187.7,342.5 186.1,343.4 184.4,336.8 	"/>
	<polygon class="st3" points="183.7,337.8 184.9,343.4 186.1,343.4 184.4,336.8 176.3,336 176.3,337.1 	"/>
</g>
<g>
	<polygon class="st33" points="105.6,317 103.8,319.5 93.3,291.8 96.7,293.8 	"/>
	<polygon class="st33" points="114.4,304 106.1,316.1 104.5,311.6 110.9,302 	"/>
	<polygon class="st33" points="109.7,301.3 103.8,310 102.2,305.5 106.3,299.3 	"/>
</g>
<g>
	<polygon class="st33" points="207.8,366.5 206.6,368 200.1,350.7 202.2,351.9 	"/>
	<polygon class="st33" points="213.3,358.4 208.1,365.9 207.1,363 211.1,357.1 	"/>
	<polygon class="st33" points="210.3,356.7 206.6,362 205.5,359.3 208.1,355.4 	"/>
</g>
<g>
	<polygon class="st3" points="259.1,78.4 262.5,88.9 270.3,88.8 264.4,71.3 	"/>
	<g>
		<path class="st9" d="M175.3,39.7c-1,6-4,9.9-7.9,11.1l0,0l-23,11l-0.6-1.6c-2.8-0.7-5.2-2-7.3-3.9c-9.1-7.7-15-23.4-12.9-35.3
			c0.3-2.9,1.6-5.6,3.2-7.8l-0.6-1.6l23-11l0,0c3.8-1.6,8.3-0.6,13,3.6C171.6,12,177.3,27.8,175.3,39.7z"/>
		<path class="st6" d="M175.3,39.7c-1,6-4,9.9-7.9,11.1l0,0l-23,11l-0.6-1.6c-2.8-0.7-5.2-2-7.3-3.9c-9.1-7.7-15-23.4-12.9-35.3
			c0.3-2.9,1.6-5.6,3.2-7.8l-0.6-1.6l23-11l0,0c3.8-1.6,8.3-0.6,13,3.6C171.6,12,177.3,27.8,175.3,39.7z"/>
		<path class="st9" d="M118.4,23c-2.1,11.8,3.8,27.7,12.9,35.3s18.1,4.3,20.4-7.6c2.1-11.8-3.8-27.5-12.9-35.3
			C129.7,7.9,120.5,11.4,118.4,23z"/>
		<path class="st9" d="M136.9,26.7c-1.2-1.1-2.9-1.9-4.6-2c-2.6-0.1-4.7,1.9-5.2,5.6c-0.8,6.2,1.6,12.5,6.1,16.9
			c3.2,2.8,6.7,2.6,8.3-0.1c0.7-1,1.1-2.2,1.2-3.6C143.8,37.3,141.6,31,136.9,26.7z"/>
		<path class="st13" d="M136.9,26.7c-1.2-1.1-2.9-1.9-4.6-2c-2.6-0.1-4.7,1.9-5.2,5.6c-0.8,6.2,1.6,12.5,6.1,16.9
			c3.2,2.8,6.7,2.6,8.3-0.1c0.7-1,1.1-2.2,1.2-3.6C143.8,37.3,141.6,31,136.9,26.7z"/>
		<path class="st1" d="M136.9,26.7c-1.2-1.1-2.9-1.9-4.6-2c-0.8,1-1.1,2.2-1.2,3.6c-0.8,6.2,1.6,12.5,6.1,16.8
			c1.2,1.1,2.9,1.9,4.6,2c0.7-1,1.1-2.2,1.2-3.6C143.8,37.3,141.6,31,136.9,26.7z"/>
	</g>
	<g>
		<path class="st9" d="M230.9,68.4c3,1.6,6.4,0.3,7.9-2.7c1.6-3,0.3-6.4-2.7-7.9l-69.3-30.4l-0.2-0.1c-3.7-1.6-8,0-9.9,3.6
			c-2,3.9-0.6,8.6,3.2,10.5L230.9,68.4L230.9,68.4z"/>
		<path class="st10" d="M230.9,68.4c3,1.6,6.4,0.3,7.9-2.7c1.6-3,0.3-6.4-2.7-7.9l-69.3-30.4l-0.2-0.1c-3.7-1.6-8,0-9.9,3.6
			c-2,3.9-0.6,8.6,3.2,10.5L230.9,68.4L230.9,68.4z"/>
		<path class="st9" d="M234.2,48.9c2.9-3.2,6.1-4.3,8.9-3.6l0,0l17.1,6.3l-0.2,1c1.3,1.4,2.4,3.2,2.9,5.2c2.2,9-0.1,18.8-6.1,26
			c-1.3,1.6-3,2.7-4.9,3.3l-0.2,1.1L234.5,82l0,0c-2.9-0.6-5.2-2.9-6.6-7.1C225.7,65.8,228,56.1,234.2,48.9z"/>
		<path class="st6" d="M234.2,48.9c2.9-3.2,6.1-4.3,8.9-3.6l0,0l17.1,6.3l-0.2,1c1.3,1.4,2.4,3.2,2.9,5.2c2.2,9-0.1,18.8-6.1,26
			c-1.3,1.6-3,2.7-4.9,3.3l-0.2,1.1L234.5,82l0,0c-2.9-0.6-5.2-2.9-6.6-7.1C225.7,65.8,228,56.1,234.2,48.9z"/>
		<path class="st9" d="M251.6,55.3c-6.1,7.2-8.4,16.8-6.1,26c2.6,8.1,9.2,9.7,15,3.4c6.1-7,8.4-16.8,6.2-25.9
			C264.2,50.7,257.4,49.2,251.6,55.3z"/>
		<path class="st9" d="M251,75.4c0.2,0.9,0.7,1.7,1.3,2.3c1.6,1.7,3.9,1.6,6-0.8c2.9-3.4,3.8-8,2.8-12.4c-0.8-2.6-2.3-3.8-4.2-3.4
			c-1.1,0.1-2.2,0.8-2.9,1.8C251,66.4,249.8,71.1,251,75.4z"/>
		<path class="st13" d="M251,75.4c0.2,0.9,0.7,1.7,1.3,2.3c1.6,1.7,3.9,1.6,6-0.8c2.9-3.4,3.8-8,2.8-12.4c-0.8-2.6-2.3-3.8-4.2-3.4
			c-1.1,0.1-2.2,0.8-2.9,1.8C251,66.4,249.8,71.1,251,75.4z"/>
		<path class="st1" d="M251,75.4c0.2,0.9,0.7,1.7,1.3,2.3c1.2-0.2,2.3-0.8,3.1-1.8c2.9-3.4,3.8-8,2.8-12.4c-0.2-0.9-0.7-1.7-1.3-2.3
			c-1.1,0.1-2.2,0.8-2.9,1.8C251,66.5,249.8,71.1,251,75.4z"/>
	</g>
	<g>
		<polygon class="st1" points="231.6,98.1 241.7,119.2 240.6,125.4 233,128.6 225.6,97.2 		"/>
		<polygon class="st3" points="234.9,68.4 218.5,97.2 228.5,97.2 243,71.2 		"/>
		<polygon class="st1" points="243,78.1 231.6,98.1 225.7,99.3 243,71.2 		"/>
		<polygon class="st2" points="232.9,128.6 240.6,125.4 227.1,97.2 218.5,97.2 		"/>
	</g>
</g>
</svg>
