<?xml version="1.0" encoding="utf-8"?>
<!-- Generator: Adobe Illustrator 24.3.0, SVG Export Plug-In . SVG Version: 6.00 Build 0)  -->
<svg version="1.1" id="Camada_1" xmlns="http://www.w3.org/2000/svg" xmlns:xlink="http://www.w3.org/1999/xlink" x="0px" y="0px"
	 viewBox="0 0 1451.2 1259.3" style="enable-background:new 0 0 1451.2 1259.3;" xml:space="preserve">
<style type="text/css">
	.st0{fill:#FFFFFF;}
	.st1{fill:none;stroke:#C7F9F8;stroke-width:3;stroke-miterlimit:10;}
	.st2{opacity:0.29;fill:#C9C9C9;}
	.st3{fill:#FDD6C5;}
	.st4{fill:#5A49B8;}
	.st5{fill:#2A2738;}
	.st6{fill:#302F3D;}
	.st7{fill:#F2CDC0;}
	.st8{fill:none;}
	.st9{opacity:0.1;fill:#333333;enable-background:new    ;}
	.st10{fill:#2F2D3D;}
	.st11{fill:#423837;}
	.st12{fill:#111111;}
	.st13{fill:#232323;}
	.st14{fill:#383838;}
	.st15{fill:#EAEAEA;}
	.st16{fill:#1C1A26;}
	.st17{fill:#FCC07D;}
	.st18{fill:#414156;}
	.st19{fill:#FDCE9D;}
	.st20{fill:#EFEFEF;}
	.st21{fill:#E79F8A;}
	.st22{fill:#1C1307;}
	.st23{fill:#564631;}
	.st24{fill:#292738;}
</style>
<path class="st0" d="M586.2,321.4h-12.5c-1,0-1.5-0.8-1.5-1.8s0.8-1.5,1.5-1.5h12.5c1,0,1.5,0.8,1.5,1.8
	C588,320.7,587.2,321.4,586.2,321.4z M561.3,321.4h-12.5c-1,0-1.5-0.8-1.5-1.8s0.8-1.5,1.5-1.5h12.5c1,0,1.5,0.8,1.5,1.8
	C562.9,320.7,562.1,321.4,561.3,321.4z M536.2,321.4h-12.5c-1,0-1.8-0.8-1.8-1.5s0.8-1.8,1.5-1.8l0,0h12.5c1,0,1.8,0.8,1.8,1.5
	S537,321.4,536.2,321.4L536.2,321.4z M511.2,321.4h-12.5c-1,0-1.5-0.8-1.5-1.8s0.8-1.5,1.5-1.5h12.5c1,0,1.5,0.8,1.5,1.8
	C512.7,320.7,512.2,321.4,511.2,321.4L511.2,321.4z M486.3,321.4h-12.5c-1,0-1.5-0.8-1.5-1.8s0.8-1.5,1.5-1.5h12.5
	c1,0,1.5,0.8,1.5,1.8C487.9,320.7,487.1,321.4,486.3,321.4z M461.3,321.4h-12.5c-1,0-1.5-0.8-1.5-1.8s0.8-1.5,1.5-1.5h12.5
	c1,0,1.5,0.8,1.5,1.8C462.8,320.7,462.3,321.4,461.3,321.4z M436.2,321.4h-12.5c-1,0-1.8-0.8-1.8-1.5s0.8-1.8,1.5-1.8l0,0h12.5
	c1,0,1.8,0.8,1.8,1.5S437.2,321.4,436.2,321.4L436.2,321.4z M411.3,321.4h-12.5c-1,0-1.8-0.8-1.8-1.5s0.8-1.8,1.5-1.8l0,0H411
	c1,0,1.8,0.8,1.8,1.5S412.4,321.4,411.3,321.4L411.3,321.4L411.3,321.4z M386.3,321.4h-12.5c-1,0-1.8-0.8-1.8-1.5s0.8-1.8,1.5-1.8
	l0,0H386c1,0,1.8,0.8,1.8,1.5S387.3,321.4,386.3,321.4L386.3,321.4z"/>
<path class="st0" d="M878.2,95.9v12.5c0,1-0.8,1.5-1.8,1.5s-1.5-0.8-1.5-1.5V95.9c0-1,0.8-1.5,1.8-1.5
	C877.5,94.1,878.2,94.9,878.2,95.9z M878.2,120.7v12.5c0,1-0.8,1.5-1.8,1.5s-1.5-0.8-1.5-1.5v-12.5c0-1,0.8-1.5,1.8-1.5
	C877.5,119.2,878.2,120,878.2,120.7z M878.2,145.8v12.5c0,1-0.8,1.8-1.5,1.8c-0.8,0-1.8-0.8-1.8-1.5l0,0v-12.5c0-1,0.8-1.8,1.5-1.8
	C877.2,144.3,878.2,145.1,878.2,145.8L878.2,145.8z M878.2,170.9v12.5c0,1-0.8,1.5-1.8,1.5s-1.5-0.8-1.5-1.5v-12.5
	c0-1,0.8-1.5,1.8-1.5C877.5,169.4,878.2,169.9,878.2,170.9L878.2,170.9z M878.2,195.7v12.5c0,1-0.8,1.5-1.8,1.5s-1.5-0.8-1.5-1.5
	v-12.5c0-1,0.8-1.5,1.8-1.5C877.5,194.2,878.2,195,878.2,195.7z M878.2,220.8v12.5c0,1-0.8,1.5-1.8,1.5s-1.5-0.8-1.5-1.5v-12.5
	c0-1,0.8-1.5,1.8-1.5C877.5,219.3,878.2,219.8,878.2,220.8z M878.2,245.9v12.5c0,1-0.8,1.8-1.5,1.8c-0.8,0-1.8-0.8-1.8-1.5l0,0
	v-12.5c0-1,0.8-1.8,1.5-1.8C877.2,244.4,878.2,244.9,878.2,245.9L878.2,245.9z M878.2,270.7v12.5c0,1-0.8,1.8-1.5,1.8
	c-0.8,0-1.8-0.8-1.8-1.5l0,0V271c0-1,0.8-1.8,1.5-1.8C877.2,269.2,878.2,269.7,878.2,270.7L878.2,270.7L878.2,270.7z M878.2,295.8
	v12.5c0,1-0.8,1.8-1.5,1.8c-0.8,0-1.8-0.8-1.8-1.5l0,0v-12.5c0-1,0.8-1.8,1.5-1.8C877.2,294.3,878.2,294.8,878.2,295.8L878.2,295.8z
	"/>
<path class="st1" d="M14.3,58.7c11-1.9,25.3-3.5,43.6-3.5c22.5,0,38.9,5.4,49.4,15.1c9.7,8.7,15.4,21.9,15.4,38.1
	c0,16.5-4.7,29.5-13.6,38.9c-12,13.2-31.6,20-53.8,20c-6.8,0-13.1-0.3-18.3-1.6v73H14.3V58.7z M37,146.6c5,1.4,11.2,1.9,18.8,1.9
	c27.4,0,44.2-13.8,44.2-38.9c0-24.1-16.5-35.7-41.5-35.7c-9.9,0-17.5,0.8-21.4,1.9V146.6z"/>
<path class="st1" d="M176,56.5v76.2h85.2V56.5h23v182.2h-23v-85.4H176v85.4h-22.7V56.5H176z"/>
<path class="st1" d="M323.7,58.7c11-1.9,25.3-3.5,43.6-3.5c22.5,0,38.9,5.4,49.4,15.1c9.7,8.7,15.4,21.9,15.4,38.1
	c0,16.5-4.7,29.5-13.6,38.9c-12,13.2-31.6,20-53.8,20c-6.8,0-13.1-0.3-18.3-1.6v73h-22.7V58.7z M346.4,146.6
	c5,1.4,11.2,1.9,18.8,1.9c27.4,0,44.2-13.8,44.2-38.9c0-24.1-16.5-35.7-41.5-35.7c-9.9,0-17.5,0.8-21.4,1.9V146.6z"/>
<path class="st1" d="M1.5,823h33.7v6.8H9.6v20.8h23.7v6.7H9.6v28.3H1.5V823z"/>
<path class="st1" d="M46.7,823.8c4.1-0.8,9.9-1.3,15.5-1.3c8.6,0,14.2,1.6,18.1,5.1c3.2,2.8,4.9,7.1,4.9,11.9
	c0,8.3-5.2,13.7-11.8,16v0.3c4.8,1.7,7.7,6.1,9.2,12.6c2,8.7,3.5,14.8,4.8,17.2h-8.4c-1-1.8-2.4-7.2-4.2-15
	c-1.9-8.6-5.2-11.9-12.5-12.2h-7.6v27.1h-8.1V823.8z M54.8,852.4h8.3c8.6,0,14.1-4.7,14.1-11.9c0-8.1-5.9-11.6-14.4-11.7
	c-3.9,0-6.7,0.4-8,0.7V852.4z"/>
<path class="st1" d="M150.5,853.7c0,21.5-13.1,33-29.1,33c-16.5,0-28.1-12.8-28.1-31.8c0-19.9,12.4-32.9,29.1-32.9
	C139.4,822,150.5,835.1,150.5,853.7z M101.9,854.7c0,13.4,7.2,25.4,20,25.4c12.8,0,20.1-11.8,20.1-26c0-12.4-6.5-25.4-20-25.4
	C108.6,828.6,101.9,840.9,101.9,854.7z"/>
<path class="st1" d="M161,885.6V823h8.8l20.1,31.7c4.6,7.3,8.3,13.9,11.2,20.3l0.2-0.1c-0.7-8.4-0.9-16-0.9-25.7V823h7.6v62.6h-8.2
	l-19.9-31.8c-4.4-7-8.5-14.1-11.7-20.9l-0.3,0.1c0.5,7.9,0.7,15.4,0.7,25.8v26.7H161z"/>
<path class="st1" d="M234,829.9h-19V823h46.3v6.9h-19.1v55.7H234V829.9z"/>
<path class="st1" d="M300.7,856.3h-24.3v22.6h27.1v6.8h-35.2V823h33.8v6.8h-25.7v19.8h24.3V856.3z"/>
<path class="st1" d="M314,885.6V823h8.8l20.1,31.7c4.6,7.3,8.3,13.9,11.2,20.3l0.2-0.1c-0.7-8.4-0.9-16-0.9-25.7V823h7.6v62.6h-8.2
	l-19.9-31.8c-4.4-7-8.5-14.1-11.7-20.9l-0.3,0.1c0.5,7.9,0.7,15.4,0.7,25.8v26.7H314z"/>
<path class="st1" d="M375.1,823.8c4.9-0.7,10.8-1.3,17.2-1.3c11.6,0,19.9,2.7,25.4,7.8c5.6,5.1,8.8,12.4,8.8,22.5
	c0,10.2-3.2,18.6-9,24.3c-5.9,5.9-15.5,9-27.7,9c-5.8,0-10.6-0.3-14.7-0.7V823.8z M383.2,879.2c2,0.4,5,0.5,8.2,0.5
	c17.3,0,26.7-9.7,26.7-26.6c0.1-14.8-8.3-24.1-25.4-24.1c-4.2,0-7.3,0.4-9.5,0.8V879.2z"/>
<path class="st1" d="M55.4,429h13.5v70.1c0,27.8-13.7,36.4-31.7,36.4c-5,0-11-1.1-14.5-2.5l2-11c2.8,1.1,6.8,2,11.4,2
	c12.1,0,19.3-5.4,19.3-26V429z"/>
<path class="st1" d="M108.4,500.9l-10.9,33h-14L119.1,429h16.3l35.8,104.8h-14.5l-11.2-33H108.4z M142.8,490.3l-10.3-30.2
	c-2.3-6.8-3.9-13.1-5.4-19.1h-0.3c-1.6,6.2-3.3,12.6-5.3,19l-10.3,30.3H142.8z"/>
<path class="st1" d="M201.4,533.8L167.2,429h14.6l16.3,51.6c4.5,14.1,8.4,26.9,11.2,39.2h0.3c3-12.1,7.3-25.3,12-39l17.7-51.8h14.5
	l-37.5,104.8H201.4z"/>
<path class="st1" d="M273.2,500.9l-10.9,33h-14L283.9,429h16.3L336,533.8h-14.5l-11.2-33H273.2z M307.6,490.3l-10.3-30.2
	c-2.3-6.8-3.9-13.1-5.4-19.1h-0.3c-1.6,6.2-3.3,12.6-5.3,19L276,490.3H307.6z"/>
<path class="st1" d="M983.1,60.7c4.5-0.9,11.5-1.6,18.7-1.6c10.2,0,16.8,1.8,21.8,5.8c4.1,3.1,6.6,7.8,6.6,14
	c0,7.7-5.1,14.4-13.4,17.4v0.2c7.5,1.9,16.4,8.1,16.4,19.9c0,6.8-2.7,12-6.7,15.9c-5.5,5.1-14.5,7.4-27.4,7.4
	c-7.1,0-12.5-0.5-15.9-0.9V60.7z M993.3,93.2h9.3c10.8,0,17.2-5.7,17.2-13.3c0-9.3-7.1-12.9-17.4-12.9c-4.7,0-7.4,0.4-9.1,0.7V93.2z
	 M993.3,131.2c2,0.4,4.9,0.5,8.6,0.5c10.6,0,20.4-3.9,20.4-15.4c0-10.8-9.3-15.3-20.5-15.3h-8.5V131.2z"/>
<path class="st1" d="M1059.7,114l-8.2,25h-10.6l27-79.3h12.4l27.1,79.3h-10.9l-8.5-25H1059.7z M1085.8,106l-7.8-22.8
	c-1.8-5.2-2.9-9.9-4.1-14.5h-0.2c-1.2,4.7-2.5,9.5-4,14.4l-7.8,23H1085.8z"/>
<path class="st1" d="M1172.6,136.4c-3.8,1.9-11.3,3.8-21,3.8c-22.4,0-39.2-14.1-39.2-40.1c0-24.8,16.8-41.7,41.4-41.7
	c9.9,0,16.1,2.1,18.8,3.5l-2.5,8.4c-3.9-1.9-9.4-3.3-16-3.3c-18.6,0-31,11.9-31,32.7c0,19.4,11.2,31.9,30.5,31.9
	c6.2,0,12.6-1.3,16.7-3.3L1172.6,136.4z"/>
<path class="st1" d="M1185.5,59.6h10.2v38.3h0.4c2.1-3.1,4.2-5.9,6.2-8.5l24.2-29.8h12.7l-28.7,33.7l31,45.7h-12.1l-26.1-39
	l-7.5,8.7v30.3h-10.2V59.6z"/>
<path class="st1" d="M1290.3,101.7h-30.8v28.6h34.4v8.6h-44.6V59.6h42.9v8.6h-32.6v25.1h30.8V101.7z"/>
<path class="st1" d="M1307.2,138.9V59.6h11.2l25.4,40.1c5.9,9.3,10.5,17.7,14.2,25.8l0.2-0.1c-0.9-10.6-1.2-20.2-1.2-32.6V59.6h9.7
	v79.3h-10.4l-25.2-40.3c-5.5-8.8-10.8-17.9-14.8-26.5l-0.4,0.1c0.6,10,0.8,19.5,0.8,32.7v33.9H1307.2z"/>
<path class="st1" d="M1384.6,60.7c6.2-0.9,13.7-1.6,21.8-1.6c14.7,0,25.2,3.4,32.1,9.9c7.1,6.5,11.2,15.7,11.2,28.5
	c0,12.9-4,23.5-11.4,30.8c-7.4,7.4-19.7,11.4-35.1,11.4c-7.3,0-13.4-0.4-18.6-0.9V60.7z M1394.9,130.8c2.6,0.5,6.4,0.6,10.4,0.6
	c21.9,0,33.8-12.2,33.8-33.7c0.1-18.7-10.5-30.6-32.1-30.6c-5.3,0-9.3,0.5-12,1.1V130.8z"/>
<path class="st1" d="M1050,447.2c6.5,4,16,7.3,26,7.3c14.9,0,23.5-7.8,23.5-19.2c0-10.5-6-16.5-21.2-22.4
	c-18.4-6.5-29.7-16-29.7-31.9c0-17.5,14.5-30.5,36.4-30.5c11.5,0,19.9,2.7,24.9,5.5l-4,11.9c-3.7-2-11.2-5.3-21.4-5.3
	c-15.4,0-21.2,9.2-21.2,16.9c0,10.5,6.8,15.7,22.4,21.7c19,7.3,28.7,16.5,28.7,33c0,17.4-12.9,32.4-39.4,32.4
	c-10.8,0-22.7-3.2-28.7-7.2L1050,447.2z"/>
<path class="st1" d="M1227.1,481.4c-15.2-4-30-8.5-43.1-13c-2.3-0.8-4.7-1.7-6.8-1.7c-26.7-1-49.6-20.7-49.6-56.9
	c0-36.1,22-59.2,52.4-59.2c30.5,0,50.4,23.7,50.4,56.9c0,28.9-13.4,47.4-32,53.9v0.7c11.2,2.8,23.4,5.5,32.9,7.2L1227.1,481.4z
	 M1215.1,408.2c0-22.5-11.7-45.7-35.6-45.7c-24.5,0-36.6,22.7-36.4,47.1c-0.2,23.9,13,45.4,35.7,45.4
	C1202.1,454.9,1215.1,433.9,1215.1,408.2z"/>
<path class="st1" d="M1249.3,352.4h14.5v100.3h48.1v12.2h-62.6V352.4z"/>
<path class="st1" d="M993,816.2c0-7.1,4.8-12,11.4-12s11.2,5,11.2,12c0,6.9-4.4,12-11.4,12C997.6,828.2,993,823.1,993,816.2z"/>
<path class="st1" d="M1037.1,826.1V697.6h18.1l41.2,65c9.5,15.1,17,28.6,23.1,41.8l0.4-0.2c-1.5-17.2-1.9-32.8-1.9-52.8v-53.8h15.6
	v128.5h-16.8l-40.8-65.2c-9-14.3-17.5-29-24-42.9l-0.6,0.2c1,16.2,1.3,31.6,1.3,53v54.9H1037.1z"/>
<path class="st1" d="M1229,765.9h-50v46.3h55.7v13.9h-72.3V697.6h69.4v13.9h-52.8v40.6h50V765.9z"/>
<path class="st1" d="M1283.8,711.7h-39.1v-14.1h95.1v14.1h-39.3v114.4h-16.8V711.7z"/>
<ellipse class="st2" cx="739.9" cy="1107.6" rx="620.7" ry="151.7"/>
<g>
	<path class="st3" d="M506.4,551.4c0,0,3.2,206.9-16.8,242.5s-52.1,10.7-58,0c-5.9-10.7-40.8-202.9-29.9-232.6
		S479.1,522.5,506.4,551.4z"/>
	<path class="st3" d="M619.2,551.4c0,0,3.2,206.9-16.8,242.5s-52.1,10.7-58,0S503.6,591,514.5,561.3
		C525.5,531.6,591.9,522.5,619.2,551.4z"/>
	<path class="st3" d="M553.1,771.5c0,0-12.8,13.4-13.3,75.1s10,138.4,10,138.4s18.2,28.8,33.2,3.4c0,0,41.1-203.2,15.5-218
		C572.9,755.5,553.1,771.5,553.1,771.5z"/>
	<path class="st4" d="M401.7,480.9c-1.9,26.8-2.7,55.5-2.1,85.9c1.5,71.9,11,135.6,23.1,189.4c18.8,7.6,49.9,7.9,90,7.9
		c45.1-0.1,80.3-3.1,99.5-11.8c5.2-44.9,8.2-83.4,10-113.4c3.6-59.5,5.3-131.5-20-142.8c-4.4-2-25.8-9.2-25.8-9.2l0,0l-128.6,12.6
		L401.7,480.9z"/>
	<g>
		<polygon class="st4" points="599.8,512 441.9,512 441.9,475.7 461.1,464 466.3,460.8 581.5,463.2 591.7,463.4 		"/>
		<path class="st3" d="M510,193.7c0,0,2.6,16.9,0,23.3c-2.6,6.4-19.8,5.8-19.8,5.8l-0.6,99.7l24.5,10.5l47.8-50.1l14-54.8
			c0,0,11.7,4.8,7.6-1.7s-30.3-2.3-25.7-32.6C562.4,163.4,510,193.7,510,193.7z"/>
		<path class="st0" d="M492.5,221.7c0,0,4.7,11.7,11.7,18.7s12.8,10.5,12.8,10.5l-2.3,17.5c0,0-9.3,1-9.9,2.8
			c-0.6,1.8-4.1,35.6,1.7,53.1c0,0,22.2-74.6,26.8-81.6c4.7-7,23.3-5.8,29.1-8.2c5.8-2.3,15.5-12.8,15.5-12.8s-2,15.7,0,17.2
			s-3.2,43.1,0,50.3s7.8,39.8,9,46.8s0,35-5.8,45.5s-7,31.5-5.8,40.8s17.5,40.8,16.3,51.3s-1-0.2-5.7-0.2c0,0-43.3,10.7-67.8,13
			s-58.2-4.1-58.2-4.1s12.7-53,5.7-71.7s-21-61.8-14-87.4s22.7-48.4,22.7-56.5C474.3,258.6,492.5,221.7,492.5,221.7z"/>
		<path class="st5" d="M463.1,464.8c-0.8,7.4-1.3,15.7-1.3,24.7c0.1,8.2,0.6,15.7,1.5,22.5c-1.2,1.5-15.8,18.7-39,16.6
			c-20.4-1.8-31.5-17.2-33-19.4c9.8-26.1,11.7-41.4,11.3-50.8c0-1-0.2-3,1-4.7C409.6,445.1,438.2,454.6,463.1,464.8z"/>
		<path class="st6" d="M483.7,224.6c-3.8,1.1-68,20-75.7,32.9c-0.7,1.1-1.3,2.2-1.3,2.2c-1.6,5.1-4,12.8-7,22.2
			c-4.8,14.8-7.6,23-10,30.3c-3.5,10.5-8.2,25.8-13.3,45.5c0,0-22.2,54.8-14,78.1c8.2,23.3,33.8,21,33.8,21s68.7,19.5,68.2,19.1
			c-0.5-0.4,79.3-1,79.3-1s-3.5-37.3,7-44.3c0,0-46.1,0.6-55.4,0.6S444,419.5,444,419.5l15.2-27.6c0,0-10.8-32.9-9.5-48.1
			s2.2-25.4,9.9-42.4c7.7-17.1,13-27.9,13-27.9l0,0c0,0,2.9-11.6,6-20.8c5.6-16.6,13.9-30.8,13.9-30.8l0,0L483.7,224.6z"/>
		<path class="st5" d="M644.4,505.1c-3.8,3.7-13.6,12.2-28.8,15c-20.8,3.8-36.7-5.6-40.5-8c2.6-7.4,5.2-17,6.3-28.5
			c0.7-7.9,0.6-15,0.1-20.9c2.8,0.4,5.7,0.7,8.4,0.9c0.5,0,1.1,0.1,1.6,0.1h0.1c14.8,1.2,26,1.4,29.7,1.4c0.9,0,1.8-0.2,2.6-0.4
			c5.8-1.7,9.5-8.9,12.4-14.2c0.4,6.5,1,13.4,1.9,20.5C639.8,483.3,642,494.7,644.4,505.1z"/>
		<path class="st6" d="M659.1,359.1c-0.4,14.2-2.3,26.6-2.6,28.6c-0.3,1.8-1,6.5-2.5,13c-4.7,21.1-11.8,37.9-17.6,49.6
			c-2.9,5.2-6.6,12.5-12.4,14.2c-0.8,0.2-1.7,0.4-2.6,0.4c-3.7,0-14.9-0.2-29.7-1.4h-0.1c-0.5,0-1.1-0.1-1.6-0.1
			c-2.7-0.2-5.6-0.5-8.4-0.9c0,0,0-0.1,0-0.1c-6.2-17.5-10.2-40.5-5.2-65.8c0-0.1,0-0.1,0-0.2c0.5-2.5,1.2-4.9,1.9-7.3
			c0-0.1,0.1-0.2,0.1-0.3c0.3-1.1,0.7-2.1,1-3.1c0,0,0,0,0-0.1c2.9-9,4.9-14.9,6.3-19.2c3.5-11,2.5-10.6,1.8-21.9
			c-1-16.1-6.2-45.6-9.4-55.3c-0.3-1-0.6-2.4-0.8-4.1c-0.1-0.5-0.1-1-0.2-1.5c-1.3-13.9,1.3-41.4,1.4-42.3L578,239l-0.9-5.1l0.4-5.1
			l0.4-5.7l0.1-1.2v-0.1c21.5,12.6,42.9,25.3,64.4,37.9c5.5,16.9,8.9,31.6,11.1,42.9C655.9,315.3,659.7,335.7,659.1,359.1z"/>
		<path class="st7" d="M595.7,385.5c0,0,10.5-11.7,12.2-14.3s-1.7-4.4-1.7-4.4c0,2.3-14,14-17.5,16.3s-12.2,20.4-12.2,20.4l27.2-4.5
			c0,0-1.4,4.9-0.3,4.5c1.1-0.4,9.9-6.4,9.9-8.7s-1.2-3.5-1.2-3.5L595.7,385.5z"/>
		<path class="st7" d="M596.1,381.6c0,0,11.3-4.2,14.8-6.5s8.2-5.8,9.3-5.8s3.5,5.2,0,9c0,0-5.9,4.7-11.1,6.6
			c-5.2,1.9-14.5,4.2-14.5,5.4L596.1,381.6z"/>
		<path class="st7" d="M599.2,386.7c0,0,6.5,1.2,9.1,0s11.4-7,14.6-7c3.2,0,1.5,6.9,0,7.5s-15.5,4.1-16.7,5.3s-8.4,3.8-8.4,3.8
			l-3.2-0.7L599.2,386.7z"/>
		<path class="st7" d="M415,413.5c0,0-12.6,0.2-19.7,3.6s-17.6,10.4-17.6,10.4s-8.2,1.2-8.2-2.3c0,0,10.3-8.2,12.7-11.7
			c2.4-3.5,15.3-9.3,18.8-9.3L415,413.5z"/>
		<path class="st7" d="M401,403c0,0-15.7,1.2-18.9,0c0,0-12.6,4.7-16.1,9.3c0,0-5.8,1.2-8.2-2.3c0,0,15.2-15.8,21.6-17.8
			s22.3,0,22.3,0L401,403z"/>
		<path class="st7" d="M401.7,382c0,0-14.8-2.3-20.6-1.2s-23.3,17.5-23.3,17.5s0.2,4.8,5.9,3.6c5.7-1.2,13.2-8.6,13.2-8.6l5.4-1.7
			h12.9L401.7,382z"/>
		<path class="st7" d="M403.3,372.1c0,0-7-4-9.4-4s-12.8,1.2-18.7,5.8c-5.8,4.7-11.7,5.8-11.7,5.8s1.2,4.9,5.8,4.8
			c4.7-0.1,11.1-3.5,11.1-3.5s8.5-0.5,9.2-0.3s7.1,0.7,7.1,0.7l13.4,1.8l-6.3-10.9L403.3,372.1z"/>
		<path class="st3" d="M460.4,421.7c0,0-8.2,3.5-18.7,1.2s-26.8-7-26.8-7s-16.3-8.2-17.5-10.5s-3.5-11.7-3.5-12.8s-1.2-7,0-10.5
			s5.8-9.3,5.8-9.3l2.3-1.2c0,0,8.2,3.5,11.7,4.7s2.3-2.3,10.5,4.7s23.8,11.9,28.2,11.8s17.2,1,17.2,1l-4.7,28h-4.5V421.7z"/>
		<path class="st6" d="M655.1,400.7c0,0-12.8,40.8-16.3,45.5c-0.8,1-1.6,2.5-2.5,4.1c-2.9,5.2-6.6,12.5-12.4,14.2
			c-0.8,0.2-1.7,0.4-2.6,0.4c-3.7,0-14.9-0.2-29.7-1.4h-0.1c-0.5,0-1.1-0.1-1.6-0.1c-2.7-0.2-5.6-0.5-8.4-0.9c-0.1,0-0.1,0-0.2,0
			c-11.7-1.3-24.9-3.2-38-6.1c-9.1-2-18.3-4.5-26.8-7.6c-1.2-0.4-2.4-0.9-3.6-1.3c-23.5-9.1-37.1-12.6-44.6-13.9c-5.9-1-8-0.7-8-0.7
			s0.2-3.7,0.7-8.9c0.1-0.7,0.1-1.4,0.2-2.2c0.5-5.4,1.2-11.8,2.1-17.6c0.7-4.2,1.5-8,2.4-10.7c0.9-2.5,1.8-4.1,2.9-4.3
			c5.8-1.2,19.8,2.3,26.8,3.5c4.4,0.7,25.2,2.6,41.8,4c9.6,0.8,17.7,1.4,20.5,1.5c4.2,0.2,11.6-1.1,18.4-1.6h0.3
			c1.3-0.1,2.6-0.1,3.8-0.2c4.1,0,7.7,0.5,9.7,2.1c4.6,3.7,10,0,13.8,0.7c1,0.2,1.8,0.6,2.6,1.6c0.2,0.3,0.4,0.5,0.6,0.7
			c3.2,3.2,5.4-2.9,8.7-0.7l38.3-0.1H655.1z"/>
		<g>
			<g>
				<path class="st0" d="M679.9,96.3c0,0-5.9,3-11.5,7.2c-0.8,0.6-1.7,1.3-2.5,2c-0.2,0.2-0.5,0.4-0.7,0.6c-0.9,0.8-1.7,1.6-2.4,2.4
					c-0.5,0.5-0.9,1-1.3,1.5c-0.7,0.9-1.7,1.6-3,2.2c-1.8,0.8-4.2,1.4-6.8,1.7c-7.4,0.9-17,0.1-23.4-1.1c-0.4-0.1-0.8-0.1-1.1-0.2
					s-0.5-0.1-0.8-0.2c-0.4-0.1-0.8-0.2-1.2-0.3c-0.5-0.1-0.9-0.2-1.4-0.3c-0.3-0.1-0.5-0.2-0.7-0.2c-0.1,0-0.2-0.1-0.3-0.1
					s-0.2-0.1-0.3-0.1s-0.2-0.1-0.3-0.1c-0.2-0.1-0.4-0.2-0.5-0.2c0,0-0.1,0-0.1-0.1l0,0c-0.1,0-0.1-0.1-0.2-0.1
					c-0.7-0.5-1.2-1.6-1.7-3.2c-0.1-0.2-0.1-0.4-0.2-0.7c0,0,0,0,0-0.1c-0.8-2.5-1.4-5.9-1.8-9.5v-0.1c-0.1-0.7-0.2-1.4-0.3-2.2
					c0-0.4-0.1-0.8-0.1-1.2c-0.1-0.5-0.1-1.1-0.2-1.6c0-0.4-0.1-0.8-0.1-1.2c0-0.5-0.1-0.9-0.1-1.4c0-0.3-0.1-0.6-0.1-0.9
					c0-0.4-0.1-0.8-0.1-1.2c-0.1-1.7-0.2-3.3-0.3-4.7c-0.2-2.9-0.3-4.8-0.3-4.8l2.7-0.3l2.6-0.3l0.8-0.1l2.7-0.3l2.1-0.2l3.6-0.4
					l2.4-0.2l9.9-1c0,0,0.2,0,0.4,0.1l0,0c0.2,0.1,0.5,0.1,0.9,0.2c0.7,0.2,1.8,0.5,3.1,1c1,0.3,2.2,0.7,3.5,1.2
					c0.6,0.2,1.2,0.4,1.7,0.6s0.9,0.3,1.4,0.5c0.2,0.1,0.5,0.2,0.7,0.3c0.5,0.2,1.1,0.4,1.6,0.6c0.7,0.3,1.3,0.6,2,0.9
					s1.3,0.6,2,0.9c3.6,1.6,7.3,3.5,10.6,5.8c0.2,0.1,0.4,0.3,0.7,0.4c0.3,0.2,0.6,0.4,0.9,0.7c0.3,0.2,0.6,0.4,0.9,0.7
					c0.3,0.2,0.6,0.5,0.9,0.7c0.3,0.2,0.6,0.5,0.9,0.7c0.6,0.5,1.1,1,1.6,1.5c0.3,0.2,0.5,0.5,0.8,0.7c0.2,0.3,0.5,0.5,0.7,0.8
					s0.5,0.5,0.7,0.8s0.4,0.5,0.6,0.8c0.2,0.2,0.3,0.4,0.5,0.7C679.9,96.2,679.9,96.2,679.9,96.3z"/>
				<path class="st8" d="M679.9,96.3c0,0-5.9,3-11.5,7.2c-0.8,0.6-1.7,1.3-2.5,2c-0.2,0.2-0.5,0.4-0.7,0.6c-0.9,0.8-1.7,1.6-2.4,2.4
					c-0.5,0.5-0.9,1-1.3,1.5c-0.7,0.9-1.7,1.6-3,2.2c-1.8,0.8-4.2,1.4-6.8,1.7c-7.4,0.9-17,0.1-23.4-1.1c-0.4-0.1-0.8-0.1-1.1-0.2
					s-0.5-0.1-0.8-0.2c-0.4-0.1-0.8-0.2-1.2-0.3c-0.5-0.1-0.9-0.2-1.4-0.3c-0.3-0.1-0.5-0.2-0.7-0.2c-0.1,0-0.2-0.1-0.3-0.1
					s-0.2-0.1-0.3-0.1s-0.2-0.1-0.3-0.1c-0.2-0.1-0.4-0.2-0.5-0.2c0,0-0.1,0-0.1-0.1l0,0c-0.1,0-0.1-0.1-0.2-0.1
					c-0.7-0.5-1.2-1.6-1.7-3.2c-0.1-0.2-0.1-0.4-0.2-0.7c0,0,0,0,0-0.1c-0.8-2.5-1.4-5.9-1.8-9.5v-0.1c-0.1-0.7-0.2-1.4-0.3-2.2
					c0-0.4-0.1-0.8-0.1-1.2c-0.1-0.5-0.1-1.1-0.2-1.6c0-0.4-0.1-0.8-0.1-1.2c0-0.5-0.1-0.9-0.1-1.4c0-0.3-0.1-0.6-0.1-0.9
					c0-0.4-0.1-0.8-0.1-1.2c-0.1-1.7-0.2-3.3-0.3-4.7c-0.2-2.9-0.3-4.8-0.3-4.8l2.7-0.3l2.6-0.3l0.8-0.1l2.7-0.3l2.1-0.2l3.6-0.4
					l2.4-0.2l9.9-1c0,0,0.2,0,0.4,0.1l0,0c0.2,0.1,0.5,0.1,0.9,0.2c0.7,0.2,1.8,0.5,3.1,1c1,0.3,2.2,0.7,3.5,1.2
					c0.6,0.2,1.2,0.4,1.7,0.6s0.9,0.4,1.4,0.5c0.2,0.1,0.5,0.2,0.7,0.3c0.5,0.2,1,0.4,1.6,0.6c0.7,0.3,1.3,0.6,2,0.9s1.3,0.6,2,0.9
					c3.6,1.6,7.3,3.5,10.6,5.8c0.2,0.1,0.4,0.3,0.7,0.4c0.3,0.2,0.6,0.4,0.9,0.7c0.3,0.2,0.6,0.4,0.9,0.7c0.3,0.2,0.6,0.5,0.9,0.7
					c0.3,0.2,0.6,0.5,0.9,0.7c0.6,0.5,1.1,1,1.6,1.5c0.3,0.2,0.5,0.5,0.8,0.7c0.2,0.3,0.5,0.5,0.7,0.8s0.5,0.5,0.7,0.8
					s0.4,0.5,0.6,0.8c0.2,0.2,0.3,0.4,0.5,0.7C679.9,96.2,679.9,96.2,679.9,96.3z"/>
				<path class="st0" d="M655.2,60.5c-0.8,1.4-1.6,2.8-2.5,4.1c-0.2,0.4-0.5,0.7-0.7,1c-0.3,0.5-0.7,0.9-1,1.4c0,0,0,0-0.1,0.1
					c-2.5,3.3-5.3,6.1-8.3,8.5l0,0c-2.4,1.9-4.9,3.6-7.6,5.2c-0.3,0.2-0.7,0.4-1.1,0.6c-2.7,1.6-5.5,3-8.5,4.5
					c-2.3,1.1-4.7,2.2-7.2,3.4c-0.6,0.3-1.1,0.5-1.6,0.6c-0.8,0.3-1.6,0.4-2.2,0.5c-0.5,0-0.9,0-1.3-0.1c-0.2,0-0.5-0.1-0.7-0.1
					c-0.1,0-0.2-0.1-0.3-0.1c-0.3-0.1-0.6-0.3-0.9-0.4c-0.2-0.1-0.3-0.2-0.5-0.4c-4.2-3.4-3.5-14.2-2.7-20.4
					c0.4-2.7,0.7-4.5,0.7-4.5s0.1-12,9-22.3c1.6-1.8,3.4-3.5,5.5-5.1c0.1-0.1,0.3-0.2,0.4-0.3c1.6-1.2,3.4-2.3,5.3-3.3
					c4.8-2.5,10.7-4.3,18-5.2C647.1,28.3,663.8,45,655.2,60.5z"/>
				<path class="st8" d="M655.2,60.5c-0.7,1.3-1.4,2.4-2.2,3.6c-0.1,0.2-0.2,0.3-0.3,0.5c-0.2,0.4-0.5,0.7-0.7,1
					c-0.3,0.5-0.7,0.9-1,1.4c0,0,0,0-0.1,0.1c-2.5,3.3-5.3,6.1-8.3,8.5l0,0c-2.4,1.9-4.9,3.6-7.6,5.2c-0.3,0.2-0.7,0.4-1.1,0.6
					c-2.7,1.6-5.5,3-8.5,4.5c-2.3,1.1-4.7,2.2-7.2,3.4c-0.6,0.3-1.1,0.5-1.6,0.6c-0.8,0.3-1.6,0.4-2.2,0.5c-0.5,0-0.9,0-1.3-0.1
					c-0.2,0-0.5-0.1-0.7-0.1c-0.1,0-0.2-0.1-0.3-0.1c-0.3-0.1-0.6-0.3-0.9-0.4c-0.2-0.1-0.3-0.2-0.5-0.4c-1.2-0.9-1.9-2.4-2.4-4.2
					c-1.4-4.8-0.8-11.7-0.2-16.2c0.4-2.7,0.7-4.5,0.7-4.5s0.1-12,9-22.3c1.6-1.8,3.4-3.5,5.5-5.1c0.1-0.1,0.3-0.2,0.4-0.3
					c1.6-1.2,3.4-2.3,5.3-3.3c4.8-2.5,10.7-4.3,18-5.2C647.1,28.3,663.8,45,655.2,60.5z"/>
				<path class="st9" d="M634.7,73.5c0,0,10-4.3,18.3-9.4c-0.1,0.2-0.2,0.3-0.3,0.5c-0.2,0.4-0.5,0.7-0.7,1c-0.3,0.5-0.7,0.9-1,1.4
					c0,0,0,0-0.1,0.1c-2.5,3.3-5.3,6.1-8.3,8.5l0,0c-2.4,1.9-4.9,3.6-7.6,5.2c-0.3,0.2-0.7,0.4-1.1,0.6c-2.7,1.6-5.5,3-8.5,4.5
					c-2.3,1.1-4.7,2.2-7.2,3.4c-0.6,0.3-1.1,0.5-1.6,0.6c-0.8,0.3-1.6,0.4-2.2,0.5c-0.5,0-0.9,0-1.3-0.1c-0.2,0-0.5-0.1-0.7-0.1
					c-0.1,0-0.2-0.1-0.3-0.1c-0.3-0.1-0.6-0.3-0.9-0.4c-0.2-0.1-0.3-0.2-0.5-0.4c-1.2-0.9-1.9-2.4-2.4-4.2
					C610.7,80,618.5,74,618.5,74s-8.1-23,11.5-32.8C630.1,41.2,643.9,62,634.7,73.5z"/>
				<path class="st9" d="M679.9,96.3c0,0-5.9,3-11.5,7.2c-0.8,0.6-1.7,1.3-2.5,2c-0.2,0.2-0.5,0.4-0.7,0.6c-0.9,0.8-1.7,1.6-2.4,2.4
					c-0.5,0.5-0.9,1-1.3,1.5c-0.7,0.9-1.7,1.6-3,2.2c-1.8,0.8-4.2,1.4-6.8,1.7c-7.4,0.9-17,0.1-23.4-1.1c-0.4-0.1-0.8-0.1-1.1-0.2
					s-0.5-0.1-0.8-0.2c-0.4-0.1-0.8-0.2-1.2-0.3c-0.5-0.1-0.9-0.2-1.4-0.3c-0.3-0.1-0.5-0.2-0.7-0.2c-0.1,0-0.2-0.1-0.3-0.1
					s-0.2-0.1-0.3-0.1s-0.2-0.1-0.3-0.1l1.4-10.2l2-15.1c0,0,0,0,0.1,0c0.6,0,3.3,0.1,7,0.4c7.3,0.5,18.4,1.7,24.6,4.2
					c0,0-14.4,12.7-21.3,15c0,0,1.7,4.6,44-9.7l0,0C679.9,96.2,679.9,96.2,679.9,96.3z"/>
			</g>
			<g>
				<path class="st5" d="M602.2,180.6c-8.6,10.7-20,19.5-34,24c-41.5,13.3-70.3,5.8-102-15s-24.8-80.7-24.8-80.7
					s10.9-28.2,17.3-45.5c6.4-17.3,34.6-28.8,34.6-28.8s39.8-15.6,76.6,1.7s44.9,38,44.9,38s1,7.8,3.3,20.2
					c1.1,6.1,2.5,13.3,4.2,21.3C625.8,131.9,619.1,159.7,602.2,180.6z"/>
				<path class="st10" d="M601,180.6c-9.9,7.2-27.8,17.6-48.1,16.8c-31.1-1.2-58.8-6.9-69.7-12.7s-21.3-24.2-30.5-40.9
					s-2.3-35.7-2.3-35.7l24.2-20.2l72.6-7.5c0,0,57.6,9.8,66.3,12.1c1.3,0.3,2.5,1.1,3.6,2c1.1,6.1,2.5,13.3,4.2,21.3
					C624.6,131.9,617.9,159.7,601,180.6z"/>
				<path class="st7" d="M562,157.5c-6.6,1.3-14.2,2.2-22.8,2.6c-1.8,0.1-3.7,0.1-5.6,0.2c-2.8,0-5.5,0.1-8.1,0
					c-60.4-0.8-59.4-23.6-62.2-35.2c-2.9-12.1,8.6-23,8.6-23c31.7-14.4,133.1-6.9,134.8,9.2c0.1,0.5,0.1,1,0.1,1.6
					C607.8,126.6,602.4,149.6,562,157.5z"/>
				<path class="st3" d="M562,157.5c-6.9,0.8-14.5,1.7-22.8,2.6c-0.6,0.1-1.2,0.1-1.8,0.2c-3.9,0.4-7.9,0.4-11.9,0
					c-43.1-4.3-88.6-52.1-22.7-57.9c58.7-5.2,93.3,6.1,104.1,10.5C607.8,126.6,602.4,149.6,562,157.5z"/>
				<g>
					<path class="st11" d="M484.9,111.5c0,0,8.6-1.2,11.5,0s12.1,1.7,13.3,0.6c1.2-1.2,1.7-2.3-2.3-2.9s-9.8-1.7-15-1.2
						C487.2,108.7,481.4,110.4,484.9,111.5z"/>
					<path class="st11" d="M491.8,127.1c0,0-0.6,6.9,5.2,8.1s7.5-4,8.1-6.9s0-9.2-4.6-9.2C495.9,119.1,493,121.9,491.8,127.1z"/>
					<circle class="st0" cx="501" cy="123.1" r="1.7"/>
					<path class="st11" d="M579.2,112.1c0,0-8.6-1.2-11.5,0s-12.1,1.7-13.3,0.6s-1.7-2.3,2.3-2.9s9.8-1.7,15-1.2
						C576.9,109.2,582.7,111,579.2,112.1z"/>
					<path class="st11" d="M559.2,127.7c0,0-0.6,6.9,5.2,8.1s7.5-4,8.1-6.9c0.6-2.9,0-9.2-4.6-9.2S560.4,122.5,559.2,127.7z"/>
					<circle class="st0" cx="568.4" cy="123.6" r="1.7"/>
				</g>
			</g>
			<g>
				<path class="st0" d="M629,107.6c0,0.1,0,0.2,0,0.3c0,0.2,0,0.3,0,0.5c0,0.4-0.1,0.7-0.1,1.1c-0.1,0.8-0.2,1.6-0.4,2.3
					c-0.1,0.4-0.2,0.8-0.3,1.2c-0.6,2-1.5,3.7-3,4.6c-0.2,0.1-0.4,0.3-0.6,0.4c-0.1,0.1-0.3,0.2-0.4,0.2c-0.1,0-0.2,0.1-0.3,0.1
					c-0.4,0.2-0.7,0.3-1.1,0.4c-0.4,0.1-0.7,0.2-1.1,0.3c-1,0.1-2,0-3.2-0.3c-1-0.3-2.2-0.8-3.5-1.5c-0.9-0.4-1.8-0.9-2.8-1.5
					s-2.1-1.2-3.3-1.8c-0.6-0.3-1.2-0.7-1.9-1c-0.8-0.4-1.6-0.8-2.4-1.3c-1.9-1-4-2-6.3-3.1c-0.3-0.1-0.6-0.3-0.9-0.4
					c-8.9-4.1-15.9-6.8-25.3-8.5c-9.4-1.7-21.3-2.6-40-3.1c-24.7-0.8-49.7,5.6-63.3,9.7c-5.7,1.8-9.4,3.1-10.2,3.4
					c0,0,0.1,0,0.1-0.1c-0.1,0-0.9,0.3-4.8,1.7c-0.7,0.2-1.5,0.5-2.3,0.8c-0.7,0.2-1.4,0.5-2.1,0.8c-0.2,0.1-0.5,0.2-0.8,0.3
					c-0.7,0.3-1.4,0.5-2,0.7c-0.8,0.3-1.5,0.5-2.1,0.7c-1.3,0.4-2.4,0.6-3.3,0.6H441c-0.9,0-1.6-0.3-2-0.9
					c-1.4-1.8-0.7-6.5-0.7-14.9c0-5.8,1.3-12,2.9-17.3c0.2-0.5,0.3-1,0.5-1.5c0.2-0.6,0.4-1.2,0.6-1.9c0.3-0.8,0.5-1.6,0.8-2.3
					c0.1-0.3,0.2-0.6,0.3-0.9c0.4-1,0.8-2,1.2-2.9c0.2-0.6,0.5-1.2,0.7-1.7c0-0.1,0-0.1,0.1-0.2c0-0.1,0.1-0.2,0.1-0.3
					c0.1-0.3,0.3-0.6,0.4-0.9c1-2.2,1.6-3.5,1.6-3.5s0.5-1.4,4-3.3c0.2-0.1,0.3-0.2,0.5-0.3c0.5-0.2,1-0.5,1.6-0.7
					c1-0.5,2.3-0.9,3.7-1.4c0.3-0.1,0.6-0.2,1-0.3c0.3-0.1,0.6-0.2,1-0.3c0.3-0.1,0.6-0.2,1-0.3c0.3-0.1,0.7-0.2,1.1-0.3
					c0.4-0.1,0.7-0.2,1.1-0.3c0.1,0,0.2,0,0.3-0.1c1.1-0.3,2.3-0.5,3.5-0.8c6.8-1.4,16-2.7,28.4-3.6c1.4-0.1,2.9-0.2,4.4-0.3
					c3-0.2,6.1-0.3,9.5-0.4c1.4,0,2.8-0.1,4.3-0.1c1.9,0,4-0.1,6-0.1c3.2-0.1,6.5-0.1,9.9-0.1l0,0c3.5,0,7,0.1,10.3,0.2
					c1.2,0.1,2.4,0.1,3.6,0.2c3.4,0.2,6.8,0.5,10,0.8c25.3,2.7,43.7,9.2,55.9,14.7c1.9,0.9,3.6,1.7,5.2,2.5c1.2,0.6,2.3,1.2,3.3,1.7
					c0.6,0.3,1.2,0.7,1.8,1l0,0c0.1,0.1,0.2,0.1,0.3,0.2l0,0c0.5,0.3,0.9,0.6,1.4,1.1s0.9,1.1,1.4,1.7c0.1,0.2,0.3,0.4,0.4,0.6
					c1.4,2.3,2.6,5.3,3.5,8.2c0,0.1,0.1,0.2,0.1,0.2c1.6,4.9,2.5,9.5,2.5,9.5s0.2,0.8,0.3,2C628.7,100,629.2,103.9,629,107.6z"/>
				<path class="st9" d="M629,107.9c0,0.2,0,0.3,0,0.5c0,0.4-0.1,0.7-0.1,1.1c-0.1,0.8-0.2,1.6-0.4,2.3c-0.1,0.4-0.2,0.8-0.3,1.2
					c-0.6,2-1.5,3.7-3,4.6c-0.2,0.1-0.4,0.3-0.6,0.4c-0.1,0.1-0.3,0.2-0.4,0.2c-0.1,0-0.2,0.1-0.3,0.1c-0.4,0.2-0.7,0.3-1.1,0.4
					c-0.4,0.1-0.7,0.2-1.1,0.3c-1,0.1-2,0-3.2-0.3c-1-0.3-2.2-0.8-3.5-1.5c-0.9-0.4-1.8-0.9-2.8-1.5s-2.1-1.2-3.3-1.8
					c-0.6-0.3-1.2-0.7-1.9-1c-0.8-0.4-1.6-0.8-2.4-1.3c-1.9-1-4-2-6.3-3.1c-0.3-0.1-0.6-0.3-0.9-0.4c-8.9-4.1-15.9-6.8-25.3-8.5
					c-9.4-1.7-21.3-2.6-40-3.1c-24.7-0.8-49.7,5.6-63.3,9.7c-5.7,1.8-9.4,3.1-10.2,3.4c0,0,0.1,0,0.1-0.1c-0.1,0-0.9,0.3-4.8,1.7
					c-0.7,0.2-1.5,0.5-2.3,0.8c-0.7,0.2-1.4,0.5-2.1,0.8c-0.2,0.1-0.5,0.2-0.8,0.3c-0.7,0.3-1.4,0.5-2,0.7c-0.8,0.3-1.5,0.5-2.1,0.7
					c-1.3,0.4-2.4,0.6-3.3,0.6H441c-0.9,0-1.6-0.3-2-0.9c-1.4-1.8-0.7-6.5-0.7-14.9c0-5.8,1.3-12,2.9-17.3c0.2-0.5,0.3-1,0.5-1.5
					c0.2-0.6,0.4-1.2,0.6-1.9c0.3-0.8,0.5-1.6,0.8-2.3c0.1-0.3,0.2-0.6,0.3-0.9c0.4-1,0.8-2,1.2-2.9c0.2-0.6,0.5-1.2,0.7-1.7
					c0-0.1,0-0.1,0.1-0.2c0-0.1,0.1-0.3,0.2-0.4v0.1c-1.8,5.1-3.3,13.7,4.6,17c3.9,1.7,10.1,2.1,19.6,0.2c9.7-1.9,23.6-2.8,39.1-2.9
					c6.4,0,13.1,0.1,19.9,0.3c1.3,0,2.7,0.1,4,0.2c34.2,1.4,70.1,6.1,85.1,12.7l0,0c0.4,0.2,0.9,0.4,1.3,0.6
					c1.9,0.9,3.4,1.9,4.4,2.9c0.1,0.1,0.2,0.2,0.3,0.3c1.1,1.1,2.1,2.2,3,3.3C627.4,105.7,628.2,106.8,629,107.9L629,107.9z"/>
				<path class="st8" d="M629,107.6c0,0.1,0,0.2,0,0.3c0,0.2,0,0.3,0,0.5c0,0.4-0.1,0.7-0.1,1.1c-0.1,0.8-0.2,1.6-0.4,2.3
					c-0.1,0.4-0.2,0.8-0.3,1.2c-0.6,2-1.5,3.7-3,4.6c-0.2,0.1-0.4,0.3-0.6,0.4c-0.1,0.1-0.3,0.2-0.4,0.2c-0.1,0-0.2,0.1-0.3,0.1
					c-0.4,0.2-0.7,0.3-1.1,0.4c-0.4,0.1-0.7,0.2-1.1,0.3c-1,0.1-2,0-3.2-0.3c-1-0.3-2.2-0.8-3.5-1.5c-0.9-0.4-1.8-0.9-2.8-1.5
					s-2.1-1.2-3.3-1.8c-0.6-0.3-1.2-0.7-1.9-1c-0.8-0.4-1.6-0.8-2.4-1.3c-1.9-1-4-2-6.3-3.1c-0.3-0.1-0.6-0.3-0.9-0.4
					c-8.9-4.1-15.9-6.8-25.3-8.5c-9.4-1.7-21.3-2.6-40-3.1c-24.7-0.8-49.7,5.6-63.3,9.7c-5.7,1.8-9.4,3.1-10.2,3.4
					c0,0,0.1,0,0.1-0.1c-0.1,0-0.9,0.3-4.8,1.7c-0.7,0.2-1.5,0.5-2.3,0.8c-0.7,0.2-1.4,0.5-2.1,0.8c-0.2,0.1-0.5,0.2-0.8,0.3
					c-0.7,0.3-1.4,0.5-2,0.7c-0.8,0.3-1.5,0.5-2.1,0.7c-1.3,0.4-2.4,0.6-3.3,0.6H441c-0.9,0-1.6-0.3-2-0.9
					c-1.4-1.8-0.7-6.5-0.7-14.9c0-5.8,1.3-12,2.9-17.3c0.2-0.5,0.3-1,0.5-1.5c0.2-0.6,0.4-1.2,0.6-1.9c0.3-0.8,0.5-1.6,0.8-2.3
					c0.1-0.3,0.2-0.6,0.3-0.9c0.4-1,0.8-2,1.2-2.9c0.2-0.6,0.5-1.2,0.7-1.7c0-0.1,0-0.1,0.1-0.2c0-0.1,0.1-0.3,0.2-0.4
					c0.1-0.3,0.3-0.6,0.4-0.8c1-2.2,1.6-3.5,1.6-3.5s0.5-1.4,4-3.3c0.2-0.1,0.3-0.2,0.5-0.3c0.5-0.2,1-0.5,1.6-0.7
					c1-0.5,2.3-0.9,3.7-1.4c0.3-0.1,0.6-0.2,1-0.3c0.3-0.1,0.6-0.2,1-0.3c0.3-0.1,0.6-0.2,1-0.3c0.3-0.1,0.7-0.2,1.1-0.3
					c0.4-0.1,0.7-0.2,1.1-0.3c0.1,0,0.2,0,0.3-0.1c1.1-0.3,2.3-0.5,3.5-0.8c6.8-1.4,16-2.7,28.4-3.6c1.4-0.1,2.9-0.2,4.4-0.3
					c3-0.2,6.1-0.3,9.5-0.4c1.4,0,2.8-0.1,4.3-0.1c1.9,0,4-0.1,6-0.1c3.2-0.1,6.5-0.1,9.9-0.1l0,0c3.5,0,7,0.1,10.3,0.2
					c1.2,0.1,2.4,0.1,3.6,0.2c3.4,0.2,6.8,0.5,10,0.8c25.3,2.7,43.7,9.2,55.9,14.7c1.9,0.9,3.6,1.7,5.2,2.5c1.2,0.6,2.3,1.2,3.3,1.7
					c0.6,0.3,1.2,0.7,1.8,1l0,0c0.1,0.1,0.2,0.1,0.3,0.2l0,0c0.5,0.3,0.9,0.6,1.4,1.1s0.9,1.1,1.4,1.7c0.1,0.2,0.3,0.4,0.4,0.6
					c1.4,2.3,2.6,5.3,3.5,8.2c0,0.1,0.1,0.2,0.1,0.2c1.6,4.9,2.5,9.5,2.5,9.5s0.2,0.8,0.3,2C628.7,100,629.2,103.9,629,107.6z"/>
			</g>
			<g>
				<polygon class="st4" points="498.4,38.4 530.4,87.9 535.7,79.8 508.9,38.4 				"/>
				<polygon class="st4" points="552,38.4 532.3,68.8 537.6,77 562.5,38.4 				"/>
				<polygon class="st4" points="548.3,38.4 537.8,38.4 525.2,57.9 530.5,66 				"/>
			</g>
		</g>
	</g>
	<path class="st3" d="M437.5,779.7c0,0-11.7,14.4-7.3,75.9c4.4,61.6,19.8,134.3,19.8,134.3s20.4,25.3,33.3-1.2
		c0,0,26.1-201-0.6-213.7C455.9,762.3,437.5,779.7,437.5,779.7z"/>
	<g>
		<path class="st12" d="M493.3,1073.3c0.5,0,0.9,0,1.4,0.1c0.1-10.3,1.6-23.7,3.7-35.7l-16.5,3.2c-1.7,8.4-2.1,17-1.2,25.4
			c0.3,2.6,0.8,5.5,2.8,7.3c1.2,1.1,2.8,1.7,4.5,1.9C489.2,1074.1,490.9,1073.3,493.3,1073.3z"/>
		<path class="st13" d="M499.9,1035.4c-1.8,5.5-6.5,9.7-8.6,15.2c-4,10.2,1.6,22.2-2.2,32.5c-1,2.9-2.7,5.3-4.8,7.5
			c-2.1,2.1-4.6,3.8-7.3,5.2c-1.6,0.8-3.2,1.4-4.9,2c-7.4,2.3-15.3,2.2-23.1,2.1c-6.1-0.1-12.9-0.5-16.9-5
			c-3.4-3.9-6.1-14.3-4.5-19.2c1.6-4.9,5.2-11.2,7.9-15.5c1.5-2.4,2.4-3.9,3.6-6.3c1.1-2.1,4.5,1.4,5.4-0.7
			c8-19.5,8.3-39.5,7.2-61.4c11.2-2.8,25.4-6.1,33.5,3.8C492.6,1004.2,503.9,1023.5,499.9,1035.4z"/>
		<path class="st3" d="M497.9,1028.8c-0.7,2.1-1.8,4-3,5.9c-2,3-4.2,5.8-5.5,9.2l0,0v0.1c-1.3,3.4-1.6,6.9-1.5,10.5
			c0,2.4,0.3,4.8,0.4,7.1c0.1,1.3,0.2,2.6,0.2,4c0,0,0,0,0,0.1c0.1,3.7-0.1,7.3-1.3,10.8c-0.9,2.6-2.4,4.9-4.3,6.9
			c-1.7,1.8-3.8,3.4-6,4.7c-2.1,1.2-4.4,2.2-6.8,3c-7.4,2.3-15.3,2.2-23.1,2.1c-4.6-0.1-9.7-0.3-13.6-2.4c-1.2-0.7-2.3-1.5-3.3-2.6
			c-0.3-0.4-0.7-0.8-0.9-1.3l0,0c-0.7-1.1-1.2-2.3-1.5-3.5l0,0c-0.8-3.1-0.5-6.7,0.5-9.8c1.6-4.9,4.6-9.1,7.3-13.5
			c0,0,0-0.1,0.1-0.1c0.6-0.9,1.1-1.9,1.7-2.8c0.7-1.2,1.3-2.4,1.9-3.5c0.5-0.9,0.9-1.8,1.3-2.7c4-8.3,6.4-16.7,7.9-25.2
			c0.6-3.6,1-7.2,1.3-10.8c0.8-9.7,0.6-19.6,0-30c9.8-2.4,21.8-5.3,30.2,0.6c1.1,0.8,2.1,1.7,3,2.7c0.1,0.1,0.2,0.3,0.4,0.4
			c0.6,0.7,1.2,1.5,1.9,2.4c0.6,0.8,1.2,1.6,1.7,2.4c4.5,6.5,9.3,15.4,11.1,23.5l0,0C498.9,1021.4,499.1,1025.4,497.9,1028.8z"/>
	</g>
	<g>
		<path class="st12" d="M594.3,1072.7c0.2,0,0.4,0,0.5,0c0.1-10.2,1.6-23.3,3.7-35.1l-16.5,3.2c-1.7,8.4-2.1,17-1.2,25.4
			c0.3,2.6,0.8,5.5,2.8,7.3c1.3,1.2,3.1,1.8,4.9,1.9C589.7,1073.9,591.6,1072.7,594.3,1072.7z"/>
		<path class="st13" d="M600.1,1035.4c-1.8,5.5-6.5,9.7-8.6,15.2c-4,10.2,1.6,22.2-2.2,32.5c-2.7,7.3-9.6,12.3-17.1,14.6
			c-7.4,2.3-15.3,2.2-23.1,2.1c-6.1-0.1-12.9-0.5-16.9-5c-3.4-3.9-6.5-13.1-5-18c1.6-4.9,7.6-5.7,10.3-10
			c14.9-24,15.6-48.1,14.2-75.1c11.2-2.8,25.4-6.1,33.5,3.8C592.8,1004.2,604.1,1023.5,600.1,1035.4z"/>
		<path class="st3" d="M598.1,1028.8c-0.7,2.1-1.8,4-3,5.9c-2,3-4.2,5.8-5.5,9.2l0,0v0.1c-1.3,3.4-1.6,6.9-1.5,10.5
			c0,1.2,0.1,2.3,0.2,3.5c0.1,1.2,0.2,2.4,0.3,3.7c0.4,5.1,0.6,10.1-1.1,14.8c-2.6,7.3-9.6,12.3-17.1,14.6
			c-7.4,2.3-15.3,2.2-23.1,2.1c-4.6-0.1-9.7-0.3-13.6-2.4c-1.2-0.7-2.3-1.5-3.3-2.6c-0.3-0.4-0.7-0.8-0.9-1.3
			c-0.7-1.1-1.2-2.3-1.5-3.5l0,0c-0.8-3.1-0.5-6.7,0.5-9.8c1.6-4.9,4.6-9.1,7.3-13.5c0,0,0-0.1,0.1-0.1c0.8-1.4,1.6-2.7,2.4-4.1
			c0.4-0.7,0.8-1.5,1.2-2.2c4.8-9.2,7.6-18.4,9.2-27.9c0.6-3.6,1-7.2,1.3-10.8c0.8-9.7,0.6-19.6,0-30c9.8-2.4,21.8-5.3,30.2,0.6
			c1.1,0.8,2.1,1.7,3,2.7c0.1,0.1,0.2,0.3,0.4,0.4c0.6,0.7,1.2,1.5,1.9,2.4c0.6,0.8,1.2,1.6,1.7,2.4c4.5,6.5,9.3,15.4,11.1,23.5
			C599.1,1021.3,599.2,1025.4,598.1,1028.8z"/>
	</g>
	<path class="st14" d="M476.9,1088.2c2.3-1.3,6.2-3.7,8.6-7.8c1-1.7,1.7-3.7,1.7-3.8c0.2-0.5,0.6-1.9,1-3.8c0.2-1.3,0.5-2.6,0.4-5.7
		c-0.1-2.4-0.1-4.7-0.2-7.1c-5.2-0.1-15.8,2.2-22.7,3.7c-0.9-0.6-1.9-1.1-2.8-1.7c-2.7-1.5-5.4-3-8.1-4.3c-2.3-1.2-4.8-2.3-7.2-3.4
		c-1-0.5-2.1-0.9-3.1-1.4c-1.4-0.6-2.7-1.3-4-1.9c-0.4,0.9-0.9,1.8-1.3,2.7c-0.6,1.2-1.2,2.4-1.9,3.5c-0.5,0.9-1.1,1.9-1.7,2.8
		c0,0,0,0.1-0.1,0.1c-3.8,6-6.3,10.9-7.3,13.5c-0.9,2.3-1,3.9-1,4.4c-0.1,1.2,0,2.1,0.1,3c0.2,1.4,0.5,3.7,1.9,6.1
		c0.2,0.3,0.4,0.7,0.8,1.2c0.8,1,1.8,1.9,3.4,2.7c2.1,1.1,4.3,1.6,6.7,2c2.8,0.4,5,0.5,7.1,0.5c6.5,0.1,9.7,0.1,12.1-0.1
		c2.4-0.2,6.2-0.6,10.9-2.2C471.6,1090.7,474,1089.9,476.9,1088.2z"/>
	<path class="st14" d="M588.9,1064.4c0-0.1-0.2-1.3-0.3-2.8c-0.1-0.9-0.1-1.6-0.1-2.1c-0.1-1.2-0.1-2.9-0.3-5.2
		c-6.7,1.4-11.5,2.4-15.5,3.3c-2.5,0.5-4.7,0.7-7.8,1.4c-2.3,0.5-6.4,0.3-9.4,0.6c-5.2-2.6-10.7-4.6-16.3-6
		c-0.4,0.8-0.9,1.6-1.3,2.5c-0.2,0.4-0.5,0.8-0.7,1.3c-0.5,0.9-1,1.7-1.5,2.6c-1.6,2.6-3.2,5.3-4.8,7.9c-0.7,1.3-1.6,3.2-2.5,5.7
		c0,0.1-0.5,1.4-0.7,2.2c-0.4,1.5-0.9,4.6,0.8,9.6c0.4,0.7,0.7,1.4,1.1,2.1c0.8,1,2.2,2.4,4.1,3.6c0,0,0.5,0.3,0.9,0.5
		c3.9,1.9,12.3,1.9,12.7,1.9c7.4-0.1,11.1-0.2,12.2-0.3c4.9-0.5,7.9-0.8,11.4-2c2.9-1,12-4.1,15.9-12.5
		C586.8,1078.7,589.6,1072.6,588.9,1064.4z"/>
</g>
<g>
	<polygon class="st15" points="811.6,514.6 888.9,521.9 892.2,389.4 821,398.8 	"/>
	<path class="st10" d="M976.7,402.3l-29,98.9l5.7,78c0,0,91-137,85.7-177C1033.8,362.2,976.7,402.3,976.7,402.3z"/>
	<path class="st16" d="M764.5,484.9c0,0-23.7,84.7-10.3,106.8c13.5,22.2,209.7,7.9,209.7,7.9s6.8-65.7-8.1-91.8
		C940.9,481.7,764.5,484.9,764.5,484.9z"/>
	<path class="st5" d="M839.3,402.3c0,0,18.3,105.4,11.4,125.1c-6.9,19.8-78.8,22.2-99,7.6l8-147.9L839.3,402.3z"/>
	<path class="st5" d="M879.6,402.3c0,0-17.8,123.8-11,130s89.1,22.1,97,2.7l-5.4-132.7L925.9,392L879.6,402.3z"/>
	<path class="st4" d="M876.6,311.1c0,0-5.9,162-17.3,162c-10.3,0-18.8-170.8-18.8-170.8L876.6,311.1z"/>
	<path class="st16" d="M750.8,555.2c0,0-13,185.5-10.6,210.4c2.4,24.9,11.9,238.9,11.9,238.9l75.4-0.5c0,0,5.7-255.6,6.1-266.1
		s26.5-173.3,26.5-173.3L750.8,555.2z"/>
	<path class="st16" d="M847.8,569.4c0,0,22.8,132.7,31,172.6c5.4,26.2,11.6,262.5,11.6,262.5h66.5c0,0,8.5-231.1,8.5-245.9
		c0-23.7-1.1-161.4-1.1-161.4L847.8,569.4z"/>
	<g>
		<polygon class="st17" points="823.5,164.7 820,201.6 892.2,202.9 891.3,164.7 		"/>
		<path class="st15" d="M918.6,208.7l-32,193.6h-65.2l-15.9-209.2c1.1-0.5,3.9-2.2,7-4.2c5.7-3.6,12.4-8.3,12.4-8.3l23,15l12.4,3.3
			l27-8l17.5,9.9L918.6,208.7z"/>
		<path class="st4" d="M875.6,326.8c-2.4,26-3.1,61-4.3,77.5l-24-0.9c-2.8-26.6-9.6-98.4-7.8-111.3c2.3-15.9,10.2-78.3,10.2-78.3
			l17.6,2.1C867.4,215.9,879,290.8,875.6,326.8z"/>
		<path class="st4" d="M839.5,204.3c0,0,8.1,15.3,12.8,16.4c4.7,1.1,12.7-1.5,12.7-1.5l10.6-14.9l-12.1-11.2h-24V204.3z"/>
		<path class="st0" d="M856.6,193.9l43.9-34.4c0,0,1.5,49.7-4.7,64.2C895.8,223.6,865.7,191.3,856.6,193.9z"/>
		<path class="st0" d="M824.7,222.5c0,0,10.5-14.9,17.4-20.7s14.5-8,14.5-8l-41.8-34.4C814.8,159.4,814.9,183.7,824.7,222.5z"/>
		<g>
			<path class="st10" d="M976.7,402.3c1.5-16.9-0.9-34.1-7.1-49.9l-11.9-6.9c0,0,10.8-88.7,11.5-90.6c0.8-1.9,19-37.8,19-37.8
				c11.7,6.4,13.5,14.2,17.5,27.1c6.4,20.9,12.9,41.7,17.9,63c7.3,31.1,11.6,63.2,15.6,95L976.7,402.3L976.7,402.3z"/>
		</g>
		<g>
			<path class="st5" d="M981.2,310.4l-5.8,23.2l-12.7,46l-3.7,32.3h-80.6l3-25l22.3-176.5l2.6-20.2c0,0,27,10.3,34,12.5
				c7,2.2,40.6,13.7,41.7,13.9s6.2,0.6,6.2,0.6S995.7,282.5,981.2,310.4z"/>
			<path class="st5" d="M839.5,404.6l-80.9-2.3l-3.8-32.6l-12.7-46l-5.8-23.2c-14.5-27.9-7.1-92.2-7.1-92.2s5.3-1.4,6.4-1.6
				c1.1-0.2,34.7-11.7,41.7-13.9s34-12.5,34-12.5l1.1,8.6L836.3,377L839.5,404.6z"/>
		</g>
		<g>
			<path class="st10" d="M908.6,178.7h-8l1.1,26.1h4.6l19.6-3.3C925.9,201.5,909.2,178.6,908.6,178.7z"/>
			<path class="st10" d="M793,201.1l19.6,3.3h4.6l1.1-26.1h-8C809.6,178.3,793,201.1,793,201.1z"/>
		</g>
		<g>
			<path class="st10" d="M934.6,201.8l-25-2.5l-7.9,2.7l-9.5,98.8l-10.9,86.7l24.7-53.3c0,0,10.5-26.8,19.9-49.8
				S934.6,201.8,934.6,201.8z"/>
			<path class="st10" d="M817.2,201.7l-7.9-2.7l-25,2.5c0,0-0.7,59.5,8.7,82.5s19.9,49.8,19.9,49.8l24.5,53.3l-6.2-86.3L817.2,201.7
				z"/>
		</g>
		<g>
			<path class="st10" d="M670.7,366.7c-0.1-7.2,2-14.3,3-21.4c0.9-6.5,1.9-13.1,4.5-19.1c1.9-4.5,4.7-8.5,7.3-12.7
				c3.6-5.9,2.7-0.6,5.3-7c4.2-10.3,10.7-16.7,13.1-27.6c1.6-7.6,4-15.9,5.4-23.6c1.4-7.4,5.5-22.7,6.9-30.1
				c1.2-6.4,7.3-14.1,13.2-16.9l17.8,74.7l12.5,38.3l-19.6,30.5L687.9,371l-5.7,18.4C682.2,389.4,671,383,670.7,366.7z"/>
		</g>
		<polygon class="st18" points="831.4,324.9 830.3,308.7 814,305.3 810.5,319.8 		"/>
		<g>
			<g>
				<path class="st17" d="M845.5,205.9c-1.3-0.3-2.6,0.3-3.6,1.2s-1.7,2-2.3,3.2c-2.1,3.6-4.2,7.1-6.3,10.7l15.7-7.8
					c0-1.5,0-2.9-0.5-4.3C848,207.5,846.9,206.2,845.5,205.9z"/>
			</g>
			<g>
				<path class="st17" d="M900.6,248.9c-0.3-2.5-2.9-4.1-5.4-4.3s-4.9,0.7-7.3,1.5c-1.5,0.5-3.1,1-4.7,1.1l6.9-6.2l0,0
					c1.9-1.2,3.6-2.7,4.6-4.7c1.4-2.7,1.1-6.5-1.4-8.3c-2.6-1.9-6.2-0.8-9.3,0.3c-1.2,0.4-2.5,0.9-3.7,1.3l0,0l5.5-3.5
					c0.1-0.1,0.3-0.2,0.4-0.3l0,0l0,0c1.6-1.1,2.5-3.3,2.2-5.3c-0.4-2.5-2.3-4.5-4.6-5.4s-4.9-0.9-7.3-0.4c-2.4,0.5-4.7,1.6-7,2.6
					c0,0-0.1,0-0.1,0.1l0,0c6.5-6.2,4.4-9.9,1.1-11.2c-3.3-1.4-7.1,0.6-10.5,1.8s-8,1-10.9,3l3.7,3.3c-0.5,1-0.9,2-1.1,2.4
					c-0.4,1.1,0.4,13.8,0.4,13.8l4.7,13.3l15.6,12.5l5.6-4.5l-11.3,19.9c9.4-5.2,18.9-10.4,28.3-15.6
					C897.7,254.5,901,252.1,900.6,248.9z"/>
			</g>
		</g>
		<g>
			<path class="st19" d="M802.8,256.8c10.1-18.6,25.5-34.2,43.9-44.7c1.5-0.9,3-1.7,4.7-1.9s3.6,0.3,4.6,1.6
				c1.9,2.6,0.1,6.9,2.3,9.2c1.5,1.5,4,1.3,6,2c4,1.4,5.3,7.6,2.1,10.5c3.9-0.4,8,1.7,9.9,5.2s1.5,8-1,11.1c2.5-1.3,5.7,0.1,7.1,2.5
				s1.1,5.5-0.1,8c-1.2,2.5-3.2,4.5-5.4,6.3c-7.6,6.3-16.6,10.4-25.6,14.5c-9.9,4.5-19.8,8.9-29.7,13.4"/>
		</g>
		<g>
			<path class="st20" d="M789.6,265.2c4.5-3.4,8.9-6.8,13.4-10.2c9.5,14.6,19,29.1,28.6,43.7c1,1.6,2.1,3.4,1.9,5.2
				c-0.2,2-1.7,3.5-3.2,4.8c-4,3.7-7.9,7.4-11.9,11.1"/>
		</g>
		<g>
			<path class="st6" d="M699.5,328.2c5.6-7,17.8-3.5,24.6-9.4c3.1-2.7,4.5-6.8,6.9-10.2c1.5-2.1,3.4-3.9,5.4-5.7
				c2.8-2.6,5.7-5.3,8.5-7.9c1.7-1.6,3.6-3.2,5.9-3c2.2,0.2,4.4,2.1,6.5,1.3c1.4-0.5,2.1-2,2.3-3.5s0-2.9,0.2-4.4
				c0.7-4.5,4.9-7.5,8.7-9.9c6.9-4.4,13.3-8.9,20.2-13.3c3,7.2,5.9,14.1,9.5,21c4.1,8,8.2,15.9,13.4,23.2c5.2,7.3,12.1,14.3,20,18.5
				l0,0c-21.9,17-45.3,31.8-70.7,43.1c-17.8,7.9-36.3,14.3-54.7,20.7c-5.7,2-11.6,4-17.6,3c-5-0.8-9.7-3.9-12.4-8.2
				c-3.2-5-3.7-11.1-4.2-17"/>
		</g>
		<g>
			<g>
				<path class="st0" d="M1003.5,67c0,0-5.9,2.9-11.4,7.1c-0.8,0.6-1.6,1.3-2.4,2c-0.2,0.2-0.5,0.4-0.7,0.6
					c-0.9,0.8-1.7,1.6-2.4,2.4c-0.4,0.5-0.9,1-1.3,1.5c-0.7,0.9-1.7,1.6-3,2.2c-1.8,0.8-4.1,1.4-6.7,1.7c-7.3,0.9-16.7,0.1-23.1-1
					c-3.1-0.6-5.5-1.2-6.5-1.7c0,0-0.1,0-0.1-0.1l0,0c-0.7-0.4-1.3-1.6-1.9-3.2c-1-3-1.8-7.7-2.3-12.3c0-0.4-0.1-0.8-0.1-1.2
					c-0.1-0.5-0.1-1-0.2-1.6c0-0.4-0.1-0.8-0.1-1.1c0-0.5-0.1-0.9-0.1-1.4l0,0c0-0.3-0.1-0.6-0.1-0.9c0-0.4-0.1-0.8-0.1-1.2
					c-0.4-5.2-0.6-9.3-0.6-9.3l2.6-0.3l2.6-0.3l0.8-0.1l2.7-0.3l2-0.2l3.5-0.4l2.3-0.2l9.7-1l0,0c0.1,0,1.7,0.5,4.3,1.3
					c1,0.3,2.2,0.7,3.4,1.2C983.4,52.3,997.5,58.4,1003.5,67z"/>
				<path class="st8" d="M1003.5,67c0,0-5.9,2.9-11.4,7.1c-0.8,0.6-1.6,1.3-2.4,2c-0.2,0.2-0.5,0.4-0.7,0.6
					c-0.9,0.8-1.7,1.6-2.4,2.4c-0.4,0.5-0.9,1-1.3,1.5c-0.7,0.9-1.7,1.6-3,2.2c-1.8,0.8-4.1,1.4-6.7,1.7c-7.3,0.9-16.7,0.1-23.1-1
					c-2.7-0.5-4.8-1-6-1.5c-0.2-0.1-0.4-0.2-0.5-0.2c0,0-0.1,0-0.1-0.1l0,0c-0.7-0.4-1.3-1.6-1.9-3.2c-1-3-1.8-7.7-2.3-12.3
					c0-0.4-0.1-0.8-0.1-1.2c-0.1-0.5-0.1-1-0.2-1.6c0-0.4-0.1-0.8-0.1-1.1c0-0.5-0.1-0.9-0.1-1.4l0,0c0-0.3-0.1-0.6-0.1-0.9
					c0-0.4-0.1-0.8-0.1-1.2c-0.4-5.2-0.6-9.3-0.6-9.3l2.6-0.3l2.6-0.3l0.8-0.1l2.7-0.3l2-0.2l3.5-0.4l2.3-0.2l9.7-1l0,0
					c0.1,0,1.7,0.5,4.3,1.3c1,0.3,2.2,0.7,3.4,1.2c8.8,3.1,22.8,9.2,28.9,17.7C1003.4,66.9,1003.5,67,1003.5,67z"/>
				<path class="st0" d="M979.1,31.9c-0.8,1.4-1.6,2.8-2.5,4c-0.2,0.3-0.5,0.7-0.7,1c-0.3,0.5-0.7,0.9-1,1.4c0,0,0,0-0.1,0.1
					c-2.5,3.3-5.2,6-8.2,8.4l0,0c-2.3,1.9-4.8,3.6-7.4,5.2c-0.3,0.2-0.7,0.4-1,0.6c-2.6,1.5-5.4,3-8.4,4.4c-2.3,1.1-4.6,2.2-7.1,3.4
					c-0.6,0.3-1.1,0.5-1.6,0.6c-0.8,0.3-1.5,0.4-2.2,0.5c-0.5,0-0.9,0-1.3-0.1c-0.2,0-0.5-0.1-0.7-0.1c-0.1,0-0.2-0.1-0.3-0.1
					c-0.3-0.1-0.6-0.2-0.9-0.4c-0.2-0.1-0.3-0.2-0.5-0.3c-4.2-3.4-3.4-14-2.6-20.1c0.3-2.6,0.7-4.4,0.7-4.4s0.1-11.8,8.9-22
					c1.5-1.8,3.3-3.5,5.4-5.1c0.1-0.1,0.3-0.2,0.4-0.3c1.6-1.2,3.3-2.2,5.3-3.2c4.9-2.6,10.7-4.4,17.9-5.3
					C971.2,0.1,987.6,16.5,979.1,31.9z"/>
				<path class="st8" d="M979.1,31.9c-0.7,1.2-1.4,2.4-2.1,3.5c-0.1,0.2-0.2,0.3-0.3,0.5c-0.2,0.3-0.5,0.7-0.7,1
					c-0.3,0.5-0.7,0.9-1,1.4c0,0,0,0-0.1,0.1c-2.5,3.3-5.2,6-8.2,8.4l0,0c-2.3,1.9-4.8,3.6-7.4,5.2c-0.3,0.2-0.7,0.4-1,0.6
					c-2.6,1.5-5.4,3-8.4,4.4c-2.3,1.1-4.6,2.2-7.1,3.4c-0.6,0.3-1.1,0.5-1.6,0.6c-0.8,0.3-1.5,0.4-2.2,0.5c-0.5,0-0.9,0-1.3-0.1
					c-0.2,0-0.5-0.1-0.7-0.1c-0.1,0-0.2-0.1-0.3-0.1c-0.3-0.1-0.6-0.2-0.9-0.4c-0.2-0.1-0.3-0.2-0.5-0.3c-1.1-0.9-1.9-2.4-2.4-4.1
					c-1.4-4.7-0.8-11.6-0.2-16c0.3-2.6,0.7-4.4,0.7-4.4s0.1-11.8,8.9-22c1.5-1.8,3.3-3.5,5.4-5.1c0.1-0.1,0.3-0.2,0.4-0.3
					c1.6-1.2,3.3-2.2,5.3-3.2c4.8-2.6,10.6-4.4,17.8-5.3C971.2,0.1,987.6,16.5,979.1,31.9z"/>
				<path class="st9" d="M959,44.6c0,0,9.8-4.3,18-9.2c-0.1,0.2-0.2,0.3-0.3,0.5c-0.2,0.3-0.5,0.7-0.7,1c-0.3,0.5-0.7,0.9-1,1.4
					c0,0,0,0-0.1,0.1c-2.5,3.3-5.2,6-8.2,8.4l0,0c-2.3,1.9-4.8,3.6-7.4,5.2c-0.3,0.2-0.7,0.4-1,0.6c-2.6,1.5-5.4,3-8.4,4.4
					c-2.3,1.1-4.6,2.2-7.1,3.4c-0.6,0.3-1.1,0.5-1.6,0.6c-0.8,0.3-1.5,0.4-2.2,0.5c-0.5,0-0.9,0-1.3-0.1c-0.2,0-0.5-0.1-0.7-0.1
					c-0.1,0-0.2-0.1-0.3-0.1c-0.3-0.1-0.6-0.2-0.9-0.4c-0.2-0.1-0.3-0.2-0.5-0.3c-1.1-0.9-1.9-2.4-2.4-4.1c2.4-5,10.1-11,10.1-11
					s-7.9-22.7,11.3-32.3C954.4,12.9,968.1,33.3,959,44.6z"/>
				<path class="st9" d="M1003.5,67c0,0-5.9,2.9-11.4,7.1c-0.8,0.6-1.6,1.3-2.4,2c-0.2,0.2-0.5,0.4-0.7,0.6
					c-0.9,0.8-1.7,1.6-2.4,2.4c-0.4,0.5-0.9,1-1.3,1.5c-0.7,0.9-1.7,1.6-3,2.2c-1.8,0.8-4.1,1.4-6.7,1.7c-7.3,0.9-16.7,0.1-23.1-1
					c-2.7-0.5-4.8-1-6-1.5l3.3-24.9c0,0,21.6,0.6,31.2,4.5c0,0-14.2,12.5-21,14.8c0,0,1.7,4.5,43.3-9.5
					C1003.4,66.9,1003.5,67,1003.5,67z"/>
			</g>
			<g>
				<path class="st5" d="M927,150.1c-8.5,10.5-19.7,19.2-33.5,23.6c-40.9,13.1-69.2,5.7-100.4-14.8c-31.2-20.4-24.4-79.4-24.4-79.4
					s10.8-27.8,17-44.8s34-28.4,34-28.4S858.8-9,895.1,8s44.3,37.5,44.3,37.5s1,7.7,3.2,19.9c1.1,6,2.5,13.1,4.1,21
					C950.2,102.1,943.6,129.5,927,150.1z"/>
				<path class="st10" d="M925.8,150.1c-9.8,7.1-27.4,17.3-47.4,16.6c-30.6-1.1-57.9-6.8-68.7-12.5s-21-23.8-30.1-40.3
					s-2.3-35.2-2.3-35.2l23.9-19.9l71.5-7.4c0,0,56.7,9.6,65.3,11.9c1.3,0.3,2.4,1,3.5,2c1.1,6,2.5,13.1,4.1,21
					C949,102.1,942.5,129.5,925.8,150.1z"/>
				<path class="st17" d="M887.4,127.3c-6.5,1.3-14,2.2-22.5,2.5c-1.8,0.1-3.6,0.1-5.5,0.2c-2.8,0-5.4,0.1-8,0
					c-59.5-0.8-58.5-23.2-61.3-34.6c-2.8-11.9,8.5-22.7,8.5-22.7c31.2-14.2,131.1-6.8,132.8,9.1c0.1,0.5,0.1,1,0.1,1.5
					C932.5,96.9,927.2,119.6,887.4,127.3z"/>
				<path class="st19" d="M887.4,127.3c-6.8,0.8-14.3,1.6-22.5,2.5c-0.6,0.1-1.2,0.1-1.8,0.2c-3.8,0.4-7.8,0.4-11.7,0
					c-42.4-4.3-87.3-51.3-22.4-57.1c57.8-5.1,91.9,6,102.6,10.3C932.5,96.9,927.2,119.6,887.4,127.3z"/>
				<g>
					<path class="st11" d="M811.4,82.1c0,0,8.5-1.1,11.3,0s11.9,1.7,13.1,0.6c1.1-1.1,1.7-2.3-2.3-2.8c-4-0.6-9.6-1.7-14.8-1.1
						C813.7,79.2,808,80.9,811.4,82.1z"/>
					<path class="st11" d="M818.3,97.4c0,0-0.6,6.8,5.1,7.9c5.7,1.1,7.4-4,7.9-6.8c0.6-2.8,0-9.1-4.5-9.1S819.4,92.3,818.3,97.4z"/>
					<circle class="st0" cx="827.3" cy="93.4" r="1.7"/>
					<path class="st11" d="M904.3,82.7c0,0-8.5-1.1-11.3,0s-11.9,1.7-13.1,0.6c-1.1-1.1-1.7-2.3,2.3-2.8c4-0.6,9.6-1.7,14.8-1.1
						C902,79.8,907.7,81.5,904.3,82.7z"/>
					<path class="st11" d="M884.6,98c0,0-0.6,6.8,5.1,7.9s7.4-4,7.9-6.8c0.6-2.8,0-9.1-4.5-9.1S885.8,92.9,884.6,98z"/>
					<circle class="st0" cx="893.7" cy="94" r="1.7"/>
				</g>
			</g>
			<g>
				<path class="st0" d="M952.5,83.5c-0.6,2-1.5,3.6-2.9,4.5c-0.3,0.2-0.7,0.4-1,0.6c-0.1,0-0.2,0.1-0.3,0.1
					c-1.8,0.9-3.4,0.9-5.3,0.3c-1-0.3-2.1-0.8-3.5-1.5c-0.8-0.4-1.8-0.9-2.8-1.5c-1-0.5-2.1-1.1-3.3-1.8c-1.3-0.7-2.7-1.5-4.3-2.3
					c-1.8-0.9-3.9-2-6.2-3.1c-0.3-0.1-0.6-0.3-0.9-0.4l0,0c-17.6-8.2-27.5-10.4-64.4-11.5c-34.6-1-69.7,12-72.5,13
					c0,0,0.1,0,0.1-0.1c-0.1,0-0.9,0.3-4.8,1.7c-0.7,0.2-1.4,0.5-2.3,0.8c-0.9,0.3-1.8,0.7-2.9,1c-0.7,0.3-1.4,0.5-2,0.7
					c-0.8,0.3-1.4,0.5-2.1,0.7c-1.5,0.4-2.6,0.6-3.5,0.6s-1.6-0.3-2-0.9c-1.4-1.8-0.7-6.4-0.7-14.7c0-5.7,1.3-11.8,2.9-17.1
					c0.1-0.5,0.3-1,0.4-1.5c0.2-0.6,0.4-1.2,0.6-1.8c0.3-0.8,0.5-1.6,0.8-2.3c0.1-0.3,0.2-0.6,0.3-0.9c0.9-2.3,1.7-4.4,2.4-5.9
					c1-2.1,1.6-3.4,1.6-3.4s0.5-1.4,3.9-3.2c0.2-0.1,0.3-0.2,0.5-0.3c0.5-0.2,1-0.5,1.5-0.7c1-0.5,2.2-0.9,3.7-1.4
					c0.3-0.1,0.6-0.2,1-0.3c0.3-0.1,0.6-0.2,1-0.3c0.3-0.1,0.6-0.2,1-0.3c0.7-0.2,1.4-0.4,2.2-0.6c0.1,0,0.2,0,0.3-0.1
					c1.1-0.3,2.2-0.5,3.5-0.8c6.7-1.4,15.7-2.7,28-3.5l0,0c1.4-0.1,2.8-0.2,4.3-0.3l0,0c8.3-0.5,18-0.7,29.3-0.7
					c37.2,0,63,8.7,78.5,15.7c3.3,1.5,6.1,2.9,8.4,4.1c0.8,0.4,1.5,0.8,2.1,1.1l0,0c0.5,0.3,0.9,0.6,1.3,1c0.5,0.5,0.9,1.1,1.4,1.7
					c0.1,0.2,0.3,0.4,0.4,0.6c1.4,2.2,2.5,5.2,3.5,8c1.6,5,2.5,9.6,2.5,9.6S954.5,76.9,952.5,83.5z"/>
				<path class="st21" d="M778.2,33.8c0.2-0.1,0.3-0.2,0.5-0.3C778.5,33.6,778.4,33.7,778.2,33.8z"/>
				<path class="st21" d="M792.7,29c-0.9,0.8-2.3,0.7-3.5,0.8C790.3,29.6,791.4,29.3,792.7,29z"/>
				<path class="st9" d="M953.3,78.5c-0.1,1.7-0.3,3.4-0.8,5c-0.6,2-1.5,3.6-2.9,4.5c-0.3,0.2-0.7,0.4-1,0.6c-0.1,0-0.2,0.1-0.3,0.1
					c-1.8,0.9-3.4,0.9-5.3,0.3c-1-0.3-2.1-0.8-3.5-1.5c-0.8-0.4-1.8-0.9-2.8-1.5c-1-0.5-2.1-1.1-3.3-1.8c-1.3-0.7-2.7-1.5-4.3-2.3
					c-1.8-0.9-3.9-2-6.2-3.1c-0.3-0.1-0.6-0.3-0.9-0.4l0,0c-17.6-8.2-27.5-10.4-64.4-11.5c-34.6-1-69.7,12-72.5,13
					c0,0,0.1,0,0.1-0.1c-0.1,0-0.9,0.3-4.8,1.7c-0.7,0.2-1.4,0.5-2.3,0.8c-0.9,0.3-1.8,0.7-2.9,1c-0.7,0.3-1.4,0.5-2,0.7
					c-0.8,0.3-1.4,0.5-2.1,0.7c-1.5,0.4-2.6,0.6-3.5,0.6s-1.6-0.3-2-0.9c-1.4-1.8-0.7-6.4-0.7-14.7c0-5.7,1.3-11.8,2.9-17.1
					c0.1-0.5,0.3-1,0.4-1.5c0.2-0.6,0.4-1.2,0.6-1.8c0.3-0.8,0.5-1.6,0.8-2.3c0.1-0.3,0.2-0.6,0.3-0.9c0.7-2,1.5-3.7,2.1-5.1
					c-2.6,7.5-4.8,22.7,23.8,17.1c37.5-7.4,137.9,0.2,151.5,13.4C950,74,951.9,76.3,953.3,78.5z"/>
				<path class="st8" d="M953.3,78.5c-0.1,1.7-0.3,3.4-0.8,5c-0.6,2-1.5,3.6-2.9,4.5c-0.3,0.2-0.7,0.4-1,0.6c-0.1,0-0.2,0.1-0.3,0.1
					c-1.8,0.9-3.4,0.9-5.3,0.3c-1-0.3-2.1-0.8-3.5-1.5c-0.8-0.4-1.8-0.9-2.8-1.5c-1-0.5-2.1-1.1-3.3-1.8c-1.3-0.7-2.7-1.5-4.3-2.3
					c-1.8-0.9-3.9-2-6.2-3.1c-0.3-0.1-0.6-0.3-0.9-0.4l0,0c-17.6-8.2-27.5-10.4-64.4-11.5c-34.6-1-69.7,12-72.5,13
					c0,0,0.1,0,0.1-0.1c-0.1,0-0.9,0.3-4.8,1.7c-0.7,0.2-1.4,0.5-2.3,0.8c-0.9,0.3-1.8,0.7-2.9,1c-0.7,0.3-1.4,0.5-2,0.7
					c-0.8,0.3-1.4,0.5-2.1,0.7c-1.5,0.4-2.6,0.6-3.5,0.6s-1.6-0.3-2-0.9c-1.4-1.8-0.7-6.4-0.7-14.7c0-5.7,1.3-11.8,2.9-17.1
					c0.1-0.5,0.3-1,0.4-1.5c0.2-0.6,0.4-1.2,0.6-1.8c0.3-0.8,0.5-1.6,0.8-2.3c0.1-0.3,0.2-0.6,0.3-0.9c0.7-2,1.5-3.7,2.1-5.1
					c0.1-0.3,0.2-0.6,0.4-0.8c1-2.1,1.6-3.4,1.6-3.4s0.5-1.4,3.9-3.2c0.2-0.1,0.3-0.2,0.5-0.3c0.5-0.2,1-0.5,1.5-0.7
					c1-0.5,2.2-0.9,3.7-1.4c0.3-0.1,0.6-0.2,1-0.3c0.3-0.1,0.6-0.2,1-0.3c0.3-0.1,0.6-0.2,1-0.3c0.7-0.2,1.4-0.4,2.2-0.6
					c0.1,0,0.2,0,0.3-0.1c1.1-0.3,2.2-0.5,3.5-0.8c6.7-1.4,15.7-2.7,28-3.5l0,0c1.4-0.1,2.8-0.2,4.3-0.3l0,0
					c8.3-0.5,18-0.7,29.3-0.7c37.2,0,63,8.7,78.5,15.7c3.3,1.5,6.1,2.9,8.4,4.1c0.8,0.4,1.5,0.8,2.1,1.1l0,0c0.5,0.3,0.9,0.6,1.3,1
					c0.5,0.5,0.9,1.1,1.4,1.7c0.1,0.2,0.3,0.4,0.4,0.6c1.4,2.2,2.5,5.2,3.5,8c1.6,5,2.5,9.6,2.5,9.6S953.6,72.7,953.3,78.5z"/>
			</g>
			<g>
				<polygon class="st4" points="824.7,10 856.3,58.8 861.4,50.8 835.1,10 				"/>
				<polygon class="st4" points="877.6,10 858.2,40 863.3,48 887.9,10 				"/>
				<polygon class="st4" points="873.9,10 863.6,10 851.2,29.2 856.4,37.2 				"/>
			</g>
		</g>
	</g>
	<path class="st22" d="M764.8,1016.2c2.3,12.2,1.8,28.2-6.3,37.7c-8.1,9.4-33.4,7.9-37.7,19.6c-1.4,3.7-1.4,14.1,0.6,17.4
		c2.3,3.7,7,4.8,11.2,5.6c15.2,3,31.6,5.9,45.8-0.4c15.8-6.9,26-24,42.5-28.6c3.9-1.1,8.3-1.6,11.2-4.4c3.9-3.8,3.4-10.1,2.7-15.5
		c-1.2-8.8-2.5-17.6-3.7-26.4c-0.6-4.1-1.4-8.6-4.7-11.1c-2.8-2.1-6.5-2.1-10-2.1c-17.4,0.1-34.7,0.3-52.1,0.4"/>
	<path class="st23" d="M756.4,1008.1c2.3,12.2,8,23.4-0.1,32.8s-30.7,18.9-34.9,30.6c-1.4,3.7-2.1,8,0,11.4c2.3,3.7,7,4.8,11.2,5.6
		c15.2,3,31.6,5.9,45.8-0.4c15.8-6.9,26-24,42.5-28.6c3.9-1.1,8.3-1.6,11.2-4.4c3.9-3.8,3.4-10.1,2.7-15.5
		c-1.2-8.8-2.5-17.6-3.7-26.4c-0.6-4.1-1.4-8.6-4.7-11.1c-2.8-2.1-6.5-2.1-10-2.1c-17.4,0.1-34.7,0.3-52.1,0.4"/>
	<path class="st22" d="M895.4,1051.9c-0.6,8.2,2.3,23.7,8.7,28.8c5.6,4.5,13.4,5.1,20.6,5.2c9.1,0.2,18.2-0.1,27.3-0.7
		c6.4-0.5,13.3-1.4,18-5.8c7.5-7.1,7.2-20.6,2.4-29.7c-4.8-9.1-13.6-16.3-15.7-26.4c-1-4.9-1.1-10.8-5.1-13.8
		c-2.7-2.1-6.4-2.1-9.8-2.1c-10.1,0-33.3-4.8-38.8,6.6c-2.8,5.8-0.9,13.6-1.9,19.8C899.8,1042.1,896.2,1043.5,895.4,1051.9z"/>
	<path class="st23" d="M895.4,1051.9c-0.6,8.2,1.4,17.1,7.8,22.2c5.6,4.5,13.4,5.1,20.6,5.2c9.1,0.2,18.2-0.1,27.3-0.7
		c6.4-0.5,13.3-1.4,18-5.8c7.5-7.1,5.6-19.6,0.8-28.7c-4.8-9.1-12-17.2-14.1-27.3c-1-4.9-1.1-10.8-5.1-13.8
		c-2.7-2.1-6.4-2.1-9.8-2.1c-10.1,0-33.3-4.8-38.8,6.6c-2.8,5.8-0.9,13.6-1.9,19.8C899,1035.5,896.2,1043.5,895.4,1051.9z"/>
	<path class="st24" d="M750.7,982.6c0,0-7.9,28.1-6,34.5c2,6.3,47.5-0.8,63.3,4.7c15.8,5.5,27.3-4,27.3-4l-3.2-29.7
		C832.1,988.2,761,985.7,750.7,982.6z"/>
	<path class="st24" d="M887.5,995.7c0,0-2.1,22.1,6.4,27.8c8.6,5.8,47-6.5,56.1-4.1s13.6,2,13.6,2s-0.1-24.5-4.5-25.7
		s-33.2,1.6-43.9,1.6S896.2,996.9,887.5,995.7z"/>
</g>
<path class="st5" d="M-278.2,635.6"/>
<path class="st5" d="M-312.4,157.8"/>
</svg>
