<?xml version="1.0" encoding="utf-8"?>
<!-- Generator: Adobe Illustrator 24.3.0, SVG Export Plug-In . SVG Version: 6.00 Build 0)  -->
<svg version="1.1" xmlns="http://www.w3.org/2000/svg" xmlns:xlink="http://www.w3.org/1999/xlink" x="0px" y="0px"
	 viewBox="0 0 272.3 272.3" style="enable-background:new 0 0 272.3 272.3;" xml:space="preserve">
<style type="text/css">
	.st0{fill:#2184C1;}
	.st1{fill:#A82BBA;}
	.st2{opacity:0.9;fill:url(#SVGID_1_);enable-background:new    ;}
	.st3{opacity:0.58;fill:#F5F5F5;enable-background:new    ;}
	.st4{fill:#C5CAD1;}
	.st5{opacity:0.3;fill:#FFFFFF;enable-background:new    ;}
	.st6{fill:#263238;}
	.st7{fill:#FFFFFF;}
	.st8{opacity:0.7;fill:#E20E0E;enable-background:new    ;}
	.st9{fill:#407BFF;}
	.st10{opacity:0.5;fill:#FFFFFF;enable-background:new    ;}
	.st11{opacity:0.9;fill:#FFFFFF;enable-background:new    ;}
	.st12{fill:#3CC68A;}
	.st13{fill:#E0E0E0;}
	.st14{fill:#E6E6E6;}
	.st15{opacity:0.3;}
	.st16{fill:#F5F5F5;}
	.st17{fill:#79C6A3;}
	.st18{opacity:0.5;enable-background:new    ;}
	.st19{opacity:0.6;fill:#FFFFFF;enable-background:new    ;}
	.st20{opacity:0.5;}
	.st21{fill:#DE5753;}
	.st22{fill:#E4897B;}
	.st23{opacity:0.2;enable-background:new    ;}
	.st24{opacity:0.4;enable-background:new    ;}
	.st25{fill:#A24E3F;}
	.st26{fill:#B97964;}
	.st27{opacity:0.2;fill:#FFFFFF;enable-background:new    ;}
	.st28{fill:#AD9C80;}
	.st29{fill:#BFAF94;}
	.st30{opacity:0.7;}
	.st31{fill:#8FD1D8;}
	.st32{fill:#77B8BF;}
</style>
<g id="Camada_2">
</g>
<g id="Camada_1">
	<g>
		<path class="st0" d="M263.3,132.8h8.8C270.4,59.1,210.2,0,136.1,0v8.8C205.3,8.8,261.6,64,263.3,132.8z"/>
		<path class="st1" d="M136.1,8.8V0C62,0,1.8,59.1,0,132.8h8.8C10.6,64,66.9,8.8,136.1,8.8z"/>
		<path class="st0" d="M8.9,136.1c0-1.1,0-2.2,0.1-3.3H0.1c0,1.1-0.1,2.2-0.1,3.3c0,75.2,60.9,136.1,136.1,136.1v-8.8
			C65.8,263.4,8.9,206.5,8.9,136.1z"/>
		<path class="st1" d="M263.3,132.8c0,1.1,0.1,2.2,0.1,3.3c0,70.3-56.9,127.3-127.3,127.3v8.8c75.2,0,136.1-60.9,136.1-136.1
			c0-1.1,0-2.2-0.1-3.3L263.3,132.8L263.3,132.8z"/>
		
			<radialGradient id="SVGID_1_" cx="136.0955" cy="191.7697" r="127.2769" gradientTransform="matrix(1 0 0 1 0 -55.6802)" gradientUnits="userSpaceOnUse">
			<stop  offset="1.784687e-02" style="stop-color:#FFFFFF"/>
			<stop  offset="0.1839" style="stop-color:#D4C4DC"/>
			<stop  offset="0.3775" style="stop-color:#A686B7"/>
			<stop  offset="0.5548" style="stop-color:#82559A"/>
			<stop  offset="0.7095" style="stop-color:#693185"/>
			<stop  offset="0.8356" style="stop-color:#591C78"/>
			<stop  offset="0.9173" style="stop-color:#531473"/>
		</radialGradient>
		<path class="st2" d="M263.3,132.8c-1.7-68.8-58.1-124-127.3-124S10.6,64,8.9,132.8c0,1.1-0.1,2.2-0.1,3.3
			c0,70.3,56.9,127.3,127.3,127.3s127.3-56.9,127.3-127.3C263.4,135,263.4,133.9,263.3,132.8z"/>
	</g>
	<g>
		<ellipse class="st3" cx="132.5" cy="217.7" rx="88.3" ry="10.3"/>
		<g id="freepik--Page--inject-1">
			<path class="st4" d="M68.3,44.1h129.1c2.5,0,4.6,2.1,4.6,4.6v92.8c0,2.5-2.1,4.6-4.6,4.6H68.3c-2.5,0-4.6-2.1-4.6-4.6V48.7
				C63.7,46.2,65.7,44.1,68.3,44.1z"/>
			<path class="st5" d="M90.6,44.1H66.3c-1.5,0-2.6,1.2-2.6,2.6v96.9c0,1.5,1.2,2.6,2.6,2.6h24.3V44.1z"/>
			<path class="st6" d="M199.4,44.1H66.3c-1.5,0-2.6,1.2-2.6,2.6v6.8H202v-6.8C202,45.3,200.9,44.1,199.4,44.1z"/>
			<path class="st7" d="M68.2,47.4c-0.3,0-0.5-0.2-0.5-0.4c0-0.3,0.2-0.5,0.4-0.5h0.1h3.6c0.3,0,0.4,0.3,0.4,0.5
				c0,0.2-0.2,0.4-0.4,0.4H68.2z"/>
			<path class="st7" d="M68.2,49.2c-0.3,0-0.5-0.2-0.5-0.4c0-0.3,0.2-0.5,0.4-0.5h0.1h3.6c0.3,0,0.4,0.3,0.4,0.5
				c0,0.2-0.2,0.4-0.4,0.4H68.2z"/>
			<path class="st7" d="M68.2,51.1c-0.3,0-0.5-0.2-0.5-0.4c0-0.3,0.2-0.5,0.4-0.5h0.1h3.6c0.3,0,0.4,0.3,0.4,0.5
				c0,0.2-0.2,0.4-0.4,0.4H68.2z"/>
			<path class="st8" d="M96.6,59.5h9.4c0.6,0,1.2,0.5,1.2,1.2v30c0,0.6-0.5,1.2-1.2,1.2h-9.4c-0.6,0-1.2-0.5-1.2-1.2v-30
				C95.4,60,95.9,59.5,96.6,59.5z"/>
			<path class="st9" d="M90.4,73.9l8-4.8c0.5-0.3,1.2-0.2,1.6,0.4l15.5,25.7c0.3,0.5,0.2,1.2-0.4,1.6l-8,4.8
				c-0.5,0.3-1.2,0.2-1.6-0.4L89.9,75.5C89.6,74.9,89.8,74.2,90.4,73.9z"/>
			<path class="st8" d="M125.7,59.5h9.4c0.6,0,1.2,0.5,1.2,1.2v30c0,0.6-0.5,1.2-1.2,1.2h-9.4c-0.6,0-1.2-0.5-1.2-1.2v-30
				C124.6,60,125.1,59.5,125.7,59.5z"/>
			<path class="st9" d="M140.3,59.5h9.4c0.6,0,1.2,0.5,1.2,1.2v30c0,0.6-0.5,1.2-1.2,1.2h-9.4c-0.6,0-1.2-0.5-1.2-1.2v-30
				C139.1,60,139.6,59.5,140.3,59.5z"/>
			<path class="st8" d="M154.9,59.5h9.4c0.6,0,1.2,0.5,1.2,1.2v30c0,0.6-0.5,1.2-1.2,1.2h-9.4c-0.6,0-1.2-0.5-1.2-1.2v-30
				C153.7,60,154.2,59.5,154.9,59.5z"/>
			<path class="st9" d="M169.4,59.5h9.4c0.6,0,1.2,0.5,1.2,1.2v30c0,0.6-0.5,1.2-1.2,1.2h-9.4c-0.6,0-1.2-0.5-1.2-1.2v-30
				C168.3,60,168.8,59.5,169.4,59.5z"/>
			<path class="st8" d="M184,59.5h9.4c0.6,0,1.2,0.5,1.2,1.2v30c0,0.6-0.5,1.2-1.2,1.2H184c-0.6,0-1.2-0.5-1.2-1.2v-30
				C182.9,60,183.4,59.5,184,59.5z"/>
			<ellipse class="st8" cx="77.2" cy="61.7" rx="4" ry="4"/>
			<path class="st10" d="M67.6,68.5h19.2c0.4,0,0.8,0.3,0.8,0.8v4c0,0.4-0.3,0.8-0.8,0.8H67.6c-0.4,0-0.8-0.3-0.8-0.8v-4
				C66.8,68.9,67.1,68.5,67.6,68.5z"/>
			<polygon class="st8" points="69.5,72.1 68.6,72.6 68.8,71.6 68.2,71 69,70.9 69.5,70 69.9,70.9 70.8,71 70.2,71.6 70.3,72.6 			
				"/>
			<polygon class="st8" points="73.3,72.1 72.5,72.6 72.6,71.6 71.9,71 72.9,70.9 73.3,70 73.7,70.9 74.6,71 74,71.6 74.2,72.6 			
				"/>
			<polygon class="st11" points="77.2,72.1 76.4,72.6 76.5,71.6 75.8,71 76.7,70.9 77.2,70 77.6,70.9 78.5,71 77.8,71.6 78,72.6 			
				"/>
			<polygon class="st11" points="81,72.1 80.1,72.6 80.4,71.6 79.7,71 80.6,70.9 81,70 81.4,70.9 82.3,71 81.7,71.6 81.8,72.6 			
				"/>
			<polygon class="st11" points="84.8,72.1 84,72.6 84.2,71.6 83.5,71 84.4,70.9 84.8,70 85.3,70.9 86.2,71 85.5,71.6 85.7,72.6 			
				"/>
			<circle class="st6" cx="77.1" cy="83.6" r="4"/>
			<circle class="st9" cx="77.1" cy="83.6" r="4"/>
			<path class="st10" d="M67.6,90.3h19.2c0.4,0,0.8,0.3,0.8,0.8v4c0,0.4-0.3,0.8-0.8,0.8H67.6c-0.4,0-0.8-0.3-0.8-0.8v-4
				C66.8,90.7,67.1,90.3,67.6,90.3z"/>
			<polygon class="st9" points="69.5,94 68.6,94.4 68.8,93.5 68.2,92.8 69,92.7 69.5,91.8 69.9,92.7 70.8,92.8 70.2,93.5 70.3,94.4 
							"/>
			<polygon class="st9" points="73.3,94 72.5,94.4 72.6,93.5 71.9,92.8 72.9,92.7 73.3,91.8 73.7,92.7 74.6,92.8 74,93.5 74.2,94.4 
							"/>
			<polygon class="st11" points="77.2,94 76.4,94.4 76.5,93.5 75.8,92.8 76.7,92.7 77.2,91.8 77.6,92.7 78.5,92.8 77.8,93.5 
				78,94.4 			"/>
			<polygon class="st9" points="81,94 80.1,94.4 80.4,93.5 79.7,92.8 80.6,92.7 81,91.8 81.4,92.7 82.3,92.8 81.7,93.5 81.8,94.4 
							"/>
			<polygon class="st11" points="84.8,94 84,94.4 84.2,93.5 83.5,92.8 84.4,92.7 84.8,91.8 85.3,92.7 86.2,92.8 85.5,93.5 
				85.7,94.4 			"/>
			<circle class="st9" cx="77.1" cy="105.4" r="4"/>
			<circle class="st5" cx="77.1" cy="105.4" r="4"/>
			<path class="st10" d="M67.6,112.1h19.2c0.4,0,0.8,0.3,0.8,0.8v4c0,0.4-0.3,0.8-0.8,0.8H67.6c-0.4,0-0.8-0.3-0.8-0.8v-4
				C66.8,112.5,67.1,112.1,67.6,112.1z"/>
			<polygon class="st9" points="69.5,115.8 68.6,116.2 68.8,115.3 68.2,114.7 69,114.5 69.5,113.7 69.9,114.5 70.8,114.7 
				70.2,115.3 70.3,116.2 			"/>
			<polygon class="st9" points="73.3,115.8 72.5,116.2 72.6,115.3 71.9,114.7 72.9,114.5 73.3,113.7 73.7,114.5 74.6,114.7 
				74,115.3 74.2,116.2 			"/>
			<polygon class="st9" points="77.2,115.8 76.4,116.2 76.5,115.3 75.8,114.7 76.7,114.5 77.2,113.7 77.6,114.5 78.5,114.7 
				77.8,115.3 78,116.2 			"/>
			<polygon class="st9" points="81,115.8 80.1,116.2 80.4,115.3 79.7,114.7 80.6,114.5 81,113.7 81.4,114.5 82.3,114.7 81.7,115.3 
				81.8,116.2 			"/>
			<polygon class="st11" points="84.8,115.8 84,116.2 84.2,115.3 83.5,114.7 84.4,114.5 84.8,113.7 85.3,114.5 86.2,114.7 
				85.5,115.3 85.7,116.2 			"/>
			<circle class="st6" cx="77.2" cy="127.2" r="4"/>
			<circle class="st10" cx="77.2" cy="127.2" r="4"/>
			<path class="st10" d="M67.6,134h19.2c0.4,0,0.8,0.3,0.8,0.8v4c0,0.4-0.3,0.8-0.8,0.8H67.6c-0.4,0-0.8-0.3-0.8-0.8v-4
				C66.8,134.3,67.1,134,67.6,134z"/>
			<polygon class="st9" points="69.5,137.6 68.6,138.1 68.8,137.1 68.2,136.5 69,136.3 69.5,135.5 69.9,136.3 70.8,136.5 
				70.2,137.1 70.3,138.1 			"/>
			<polygon class="st9" points="73.3,137.6 72.5,138.1 72.6,137.1 71.9,136.5 72.9,136.3 73.3,135.5 73.7,136.3 74.6,136.5 
				74,137.1 74.2,138.1 			"/>
			<polygon class="st11" points="77.2,137.6 76.4,138.1 76.5,137.1 75.8,136.5 76.7,136.3 77.2,135.5 77.6,136.3 78.5,136.5 
				77.8,137.1 78,138.1 			"/>
			<polygon class="st9" points="77.2,137.6 76.4,138.1 76.5,137.1 75.8,136.5 76.7,136.3 77.2,135.5 			"/>
			<polygon class="st11" points="81,137.6 80.1,138.1 80.4,137.1 79.7,136.5 80.6,136.3 81,135.5 81.4,136.3 82.3,136.5 81.7,137.1 
				81.8,138.1 			"/>
			<polygon class="st11" points="84.8,137.6 84,138.1 84.2,137.1 83.5,136.5 84.4,136.3 84.8,135.5 85.3,136.3 86.2,136.5 
				85.5,137.1 85.7,138.1 			"/>
		</g>
		<g>
			<path class="st6" d="M96.1,115.9c-0.4,0-0.7-0.3-0.6-0.8c0-0.3,0.3-0.6,0.6-0.6h75.4c0.4,0,0.7,0.3,0.6,0.8
				c0,0.3-0.3,0.6-0.6,0.6H96.1z"/>
			<path class="st6" d="M96.1,118.4c-0.4,0-0.7-0.3-0.6-0.8c0-0.3,0.3-0.6,0.6-0.6l35.8-0.1c0.4,0,0.7,0.3,0.6,0.8
				c0,0.3-0.3,0.6-0.6,0.6L96.1,118.4z"/>
			<path class="st6" d="M96.1,120.9c-0.4,0-0.7-0.3-0.6-0.8c0-0.3,0.3-0.6,0.6-0.6l35.8-0.1c0.4,0,0.7,0.3,0.6,0.8
				c0,0.3-0.3,0.6-0.6,0.6L96.1,120.9z"/>
			<path class="st6" d="M96.1,123.5c-0.4,0-0.7-0.3-0.6-0.8c0-0.3,0.3-0.6,0.6-0.6l35.8-0.1c0.4,0,0.7,0.3,0.6,0.8
				c0,0.3-0.3,0.6-0.6,0.6L96.1,123.5z"/>
			<path class="st6" d="M96.1,128.6c-0.4,0-0.7-0.3-0.6-0.8c0-0.3,0.3-0.6,0.6-0.6l35.8-0.1c0.4,0,0.7,0.3,0.6,0.8
				c0,0.3-0.3,0.6-0.6,0.6L96.1,128.6z"/>
			<path class="st6" d="M96.1,131.2c-0.4,0-0.7-0.3-0.6-0.8c0-0.3,0.3-0.6,0.6-0.6l35.8-0.1c0.4,0,0.7,0.3,0.6,0.8
				c0,0.3-0.3,0.6-0.6,0.6L96.1,131.2z"/>
			<path class="st6" d="M96.1,133.6c-0.4,0-0.7-0.3-0.6-0.8c0-0.3,0.3-0.6,0.6-0.6l35.8-0.1c0.4,0,0.7,0.3,0.6,0.8
				c0,0.3-0.3,0.6-0.6,0.6L96.1,133.6z"/>
			<path class="st6" d="M96.1,136.2c-0.4,0-0.7-0.3-0.6-0.8c0-0.3,0.3-0.6,0.6-0.6l35.8-0.1c0.4,0,0.7,0.3,0.6,0.8
				c0,0.3-0.3,0.6-0.6,0.6L96.1,136.2z"/>
			<path class="st6" d="M96.1,138.8c-0.4,0-0.7-0.3-0.6-0.8c0-0.3,0.3-0.6,0.6-0.6l35.8-0.1c0.4,0,0.7,0.3,0.6,0.8
				c0,0.3-0.3,0.6-0.6,0.6L96.1,138.8z"/>
			<path class="st6" d="M96.1,126c-0.4,0-0.7-0.3-0.6-0.8c0-0.3,0.3-0.6,0.6-0.6l35.8-0.1c0.4,0,0.7,0.3,0.6,0.8
				c0,0.3-0.3,0.6-0.6,0.6L96.1,126z"/>
			<path class="st6" d="M96.1,113.3c-0.4,0-0.7-0.3-0.6-0.8c0-0.3,0.3-0.6,0.6-0.6h75.4c0.4,0,0.7,0.3,0.6,0.8
				c0,0.3-0.3,0.6-0.6,0.6H96.1z"/>
		</g>
		<g>
			<path class="st12" d="M141.5,172.7c0.1,0.1-0.3,0.4,0.9,0.4c2.9-0.1,7.9-0.6,9.6-3.3c2.5-3.9-3.8-3.2-3.3-5.2
				c0.5-2.1,7.3-0.9,8.4-3.9c1.1-3-3.7-2.1-3.6-3.7s5.4,0.1,6.9-3.2c1.5-3.2-2.9-1.2-2.3-2.6c0.6-1.3,6-7,3.6-8.1
				c-2.4-1-7.4,4.9-9.1,5.7c-1.7,0.7-2.5-4.7-4.7-2.8c-2.2,1.9-0.2,10.1-2.8,11.4c-1.9,0.9-1-2.1-3.5-1.9
				C138.3,156,138,167.7,141.5,172.7z"/>
			<path class="st13" d="M152.3,156.9c-0.8-0.1-1.7,0-2.5,0.2c0.6-0.7,1.3-1.4,2-2c0.1-0.1,0.2-0.2,0.1-0.3l0,0
				c-0.1-0.1-0.2-0.2-0.3,0c-1.5,1.4-2.9,2.9-4.1,4.6c-0.1-3.4,0.8-6.9,2.6-9.9c0.1-0.1,0-0.2-0.1-0.2s-0.2,0-0.2,0.1l0,0
				c0,0.1-3,4.7-2.6,10.5c-0.3,0.5-0.7,1-1.1,1.7c-1.3,2.1-2.4,4.4-3.2,6.7c-0.8-2.1-1.1-4.4-0.9-6.6c0-0.1-0.1-0.2-0.2-0.2l0,0
				c-0.1,0-0.2,0.1-0.2,0.2l0,0c-0.3,2.4,0.2,4.8,1,7c-1.7,4.6-2.6,9.4-2.8,14.3c0,0.2,0.1,0.2,0.2,0.2l0,0l0,0
				c0.2,0,0.2-0.1,0.2-0.2c0.3-6.2,1.8-12.3,4.4-17.9c1-0.9,2.2-1.4,3.6-1.5c0.1,0,0.2-0.1,0.2-0.2c0-0.1-0.1-0.2-0.2-0.2l0,0
				c-1.2,0.1-2.3,0.4-3.2,1.1c1.2-2.4,2.7-4.7,4.5-6.8c0.9-0.3,1.9-0.3,2.8-0.3c0.1,0,0.2-0.1,0.2-0.2
				C152.4,157,152.4,156.9,152.3,156.9z"/>
			<path class="st14" d="M133.7,174.7c-3.2,0.1-8.8-3-11-5.9c-2.1-2.9,4-1.1,3.4-3.4c-0.6-2.4-8.3-0.6-9.7-3.9
				c-1.4-3.3,4.1-2.5,3.9-4.3c-0.2-1.7-5.9-1.4-7.8-4.9c-1.9-3.5,3.2-1.6,2.4-3c-0.8-1.5-7.1-7.7-4.5-9c2.6-1.3,8.6,5.1,10.5,5.9
				c2,0.7,2.4-3.7,5.1-1.6c2.5,2.1,0.6,11.5,3.7,12.7c2.3,0.9,1.3-3.4,3.9-2.3C138.1,156.7,135,174.7,133.7,174.7z"/>
			<g class="st15">
				<path class="st12" d="M133.7,174.7c-3.2,0.1-8.8-3-11-5.9c-2.1-2.9,4-1.1,3.4-3.4c-0.6-2.4-8.3-0.6-9.7-3.9
					c-1.4-3.3,4.1-2.5,3.9-4.3c-0.2-1.7-5.9-1.4-7.8-4.9c-1.9-3.5,3.2-1.6,2.4-3c-0.8-1.5-7.1-7.7-4.5-9c2.6-1.3,8.6,5.1,10.5,5.9
					c2,0.7,2.4-3.7,5.1-1.6c2.5,2.1,0.6,11.5,3.7,12.7c2.3,0.9,1.3-3.4,3.9-2.3C138.1,156.7,135,174.7,133.7,174.7z"/>
			</g>
			<path class="st16" d="M132.6,170.8c0.1,0,0.1-0.1,0.2-0.1c1.2-2.7,1.7-5.7,1.5-8.7c0-0.2-0.2-0.2-0.2-0.2c-0.2,0-0.2,0.2-0.2,0.2
				c0.3,2.8-0.2,5.7-1.3,8.3c-1.3-3.6-3-7.1-4.9-10.4c0.5-7-3-12.6-3-12.7c-0.1-0.2-0.2-0.2-0.3-0.1c-0.1,0.1-0.2,0.2-0.1,0.3l0,0
				c2.1,3.6,3.1,7.7,3,11.8c-2.4-4-5.1-7.7-8.3-11.1c-0.2-0.2-0.3-0.2-0.4,0l0,0c-0.2,0.2-0.2,0.3,0,0.4l0,0c2.4,2.5,4.5,5.2,6.4,8
				c-1.9-0.8-4-1.1-6.1-1.1c-0.2,0-0.2,0.1-0.2,0.2l0,0c0,0.2,0.1,0.2,0.2,0.2l0,0c2.3,0,4.5,0.4,6.6,1.3c1.3,1.9,2.5,4,3.5,6.1
				c-1.8-1.2-4-1.6-6.1-1c-0.2,0-0.2,0.2-0.2,0.3c0,0.2,0.2,0.2,0.3,0.2l0,0c2.3-0.5,4.6,0,6.4,1.5c3.7,7.4,5.9,15.5,6.3,23.7
				c0,0.2,0.2,0.3,0.3,0.3l0,0c0.2,0,0.3-0.2,0.3-0.3C135.7,182,134.6,176.3,132.6,170.8z"/>
			<path class="st17" d="M136.8,173.1c0.1,0.1-0.2,0.3,0.7,0.2c2-0.5,5.4-1.7,6.1-3.9c1-3.1-3.2-1.6-3.2-3.1s4.9-1.8,5.2-4.1
				c0.3-2.3-3-0.8-3.1-1.9c-0.2-1.1,3.7-0.8,4.2-3.3s-2.2-0.4-2-1.5c0.2-1,3-5.9,1.1-6.2c-1.8-0.3-4.3,4.6-5.4,5.4
				c-1.1,0.8-2.5-2.9-3.7-1.1c-1.2,1.7,1.6,7,0,8.3c-1.2,1-1.1-1.3-2.8-0.7C131.9,162,133.5,170.1,136.8,173.1z"/>
			<path class="st13" d="M141.7,160.3c-0.6,0.2-1.2,0.3-1.7,0.5c0.3-0.6,0.6-1.2,1-1.7c0.1-0.1,0.1-0.2,0-0.2
				c-0.1-0.1-0.2-0.1-0.2,0c-0.8,1.2-1.6,2.5-2.1,3.9c-0.6-2.4-0.5-4.9,0.2-7.3c0-0.1,0-0.2-0.1-0.2l0,0c-0.1,0-0.2,0-0.2,0.1
				c-0.8,2.5-0.8,5.2-0.1,7.7c-0.2,0.4-0.3,0.8-0.5,1.3c-0.5,1.7-0.9,3.4-1.1,5.2c-0.9-1.3-1.5-2.8-1.7-4.4c0-0.1-0.1-0.2-0.2-0.1
				c-0.1,0-0.1,0.1-0.1,0.2c0.2,1.7,0.9,3.3,1.9,4.7c-0.3,3.4-0.3,7,0.4,10.3c0,0.1,0.1,0.2,0.2,0.2l0,0c0.1,0,0.2-0.1,0.2-0.2
				c-0.8-4.4-0.8-8.8,0.1-13.1c0.5-0.8,1.3-1.4,2.2-1.7c0.1,0,0.1-0.1,0.1-0.2c0-0.1-0.1-0.1-0.2-0.1c-0.8,0.2-1.5,0.7-2.1,1.3
				c0.5-1.9,1.1-3.7,2-5.4c0.6-0.3,1.2-0.5,1.9-0.7c0.1,0,0.1-0.1,0.1-0.2l0,0C141.8,160.3,141.8,160.3,141.7,160.3
				C141.7,160.3,141.7,160.3,141.7,160.3z"/>
		</g>
		<g id="freepik--character-2--inject-1">
			<path class="st9" d="M186.7,116h-9.1c-0.5,0-0.8-0.3-0.9-0.8l-1.2-13.5c-0.1-0.4,0.3-0.8,0.6-0.8h0.1h9.1c0.5,0,0.8,0.3,0.9,0.8
				l1.2,13.5C187.5,115.6,187.1,116,186.7,116C186.8,116,186.8,116,186.7,116z"/>
			<path class="st9" d="M187.3,116h-9.1c-0.5,0-0.8-0.3-0.9-0.8l-1.2-13.5c-0.1-0.4,0.3-0.8,0.6-0.8h0.1h9.2c0.5,0,0.8,0.3,0.9,0.8
				l1.2,13.5c0.1,0.4-0.3,0.8-0.6,0.8C187.3,116,187.3,116,187.3,116z"/>
			<path class="st18" d="M187.3,116h-9.1c-0.5,0-0.8-0.3-0.9-0.8l-1.2-13.5c-0.1-0.4,0.3-0.8,0.6-0.8h0.1h9.2c0.5,0,0.8,0.3,0.9,0.8
				l1.2,13.5c0.1,0.4-0.3,0.8-0.6,0.8C187.3,116,187.3,116,187.3,116z"/>
			<path class="st19" d="M186,101.4h-9.1c-0.2,0-0.3,0.2-0.3,0.3c0,0,0,0,0,0.1l1.2,13.5c0,0.2,0.2,0.3,0.3,0.3h9.1
				c0.2,0,0.3-0.2,0.3-0.3l0,0l-1.2-13.5C186.2,101.5,186.1,101.4,186,101.4z"/>
			<path class="st5" d="M187.5,115.2l-1.2-13.4l-8.4,13.6c0.1,0.1,0.2,0.1,0.2,0.1h9.1C187.3,115.5,187.5,115.4,187.5,115.2
				L187.5,115.2z"/>
			<path class="st11" d="M184.5,108.5h-4.7c-0.3,0-0.5-0.2-0.6-0.5l-0.2-2.8c0-0.3,0.2-0.5,0.5-0.5c0,0,0,0,0.1,0h4.7
				c0.3,0,0.5,0.2,0.6,0.5l0.2,2.8C185.1,108.2,184.9,108.5,184.5,108.5C184.6,108.5,184.6,108.5,184.5,108.5z"/>
			<path class="st11" d="M184.9,113.3h-4.7c-0.3,0-0.5-0.2-0.6-0.5l-0.2-2.8c0-0.3,0.2-0.5,0.5-0.5c0,0,0,0,0.1,0h4.7
				c0.3,0,0.5,0.2,0.6,0.5l0.2,2.8C185.5,113,185.3,113.3,184.9,113.3C185,113.3,185,113.3,184.9,113.3z"/>
			<path class="st6" d="M179.9,105.7c-0.1,0-0.2-0.1-0.2-0.2c0-0.1,0.1-0.2,0.2-0.2l0,0h3.8c0.1,0,0.2,0.1,0.2,0.2
				c0,0.1-0.1,0.2-0.2,0.2l0,0H179.9z"/>
			<path class="st6" d="M180,106.9c-0.1,0-0.2-0.1-0.2-0.2c0-0.1,0.1-0.2,0.2-0.2l0,0h3.2c0.1,0,0.2,0.1,0.2,0.2
				c0,0.1-0.1,0.2-0.2,0.2l0,0H180z"/>
			<path class="st6" d="M180,106.3c-0.1,0-0.2-0.1-0.2-0.2c0-0.1,0.1-0.2,0.2-0.2l0,0h2.5c0.1,0,0.2,0.1,0.2,0.2
				c0,0.1-0.1,0.2-0.2,0.2l0,0H180z"/>
			<g class="st20">
				<path class="st7" d="M179.9,105.7c-0.1,0-0.2-0.1-0.2-0.2c0-0.1,0.1-0.2,0.2-0.2l0,0h3.8c0.1,0,0.2,0.1,0.2,0.2
					c0,0.1-0.1,0.2-0.2,0.2l0,0H179.9z"/>
				<path class="st7" d="M180,106.9c-0.1,0-0.2-0.1-0.2-0.2c0-0.1,0.1-0.2,0.2-0.2l0,0h3.2c0.1,0,0.2,0.1,0.2,0.2
					c0,0.1-0.1,0.2-0.2,0.2l0,0H180z"/>
				<path class="st7" d="M180,106.3c-0.1,0-0.2-0.1-0.2-0.2c0-0.1,0.1-0.2,0.2-0.2l0,0h2.5c0.1,0,0.2,0.1,0.2,0.2
					c0,0.1-0.1,0.2-0.2,0.2l0,0H180z"/>
			</g>
			<path class="st6" d="M180.3,110.6c-0.1,0-0.2-0.1-0.2-0.2c0-0.1,0.1-0.2,0.2-0.2l0,0h3.8c0.1,0,0.2,0.1,0.2,0.2
				c0,0.1-0.1,0.2-0.2,0.2l0,0H180.3z"/>
			<path class="st6" d="M180.4,111.2c-0.1,0-0.2-0.1-0.2-0.2s0.1-0.2,0.2-0.2l0,0h2.5c0.1,0,0.2,0.1,0.2,0.2c0,0.1-0.1,0.2-0.2,0.2
				l0,0H180.4z"/>
			<g class="st20">
				<path class="st7" d="M180.3,110.6c-0.1,0-0.2-0.1-0.2-0.2c0-0.1,0.1-0.2,0.2-0.2l0,0h3.8c0.1,0,0.2,0.1,0.2,0.2
					c0,0.1-0.1,0.2-0.2,0.2l0,0H180.3z"/>
				<path class="st7" d="M180.4,111.2c-0.1,0-0.2-0.1-0.2-0.2s0.1-0.2,0.2-0.2l0,0h2.5c0.1,0,0.2,0.1,0.2,0.2c0,0.1-0.1,0.2-0.2,0.2
					l0,0H180.4z"/>
			</g>
			<path class="st6" d="M194.9,92.7c0.1-0.3,0-0.6-0.2-0.6c-0.2-0.1-0.4,0.2-0.5,0.5c-0.2,0.3,0,0.6,0.2,0.6
				C194.5,93.2,194.8,93,194.9,92.7z"/>
			<path class="st21" d="M194.5,93.1l-2.4,1.5c0.3,0.5,1,0.9,1.6,1L194.5,93.1z"/>
			<path class="st22" d="M205.2,96c-1.6,3.7-2.1,5.2-4.7,6.5c-3.6,1-8-0.8-7.6-4.9c0.4-3.7,2.8-9,7-9.3c3-0.2,5.5,2.2,5.7,5.2
				C205.7,94.4,205.6,95.2,205.2,96L205.2,96z"/>
			<path class="st6" d="M195.6,92.1c-0.1,0-0.2-0.1-0.2-0.2c-0.2-0.5-0.5-0.8-0.9-1c-0.1,0-0.2-0.2-0.2-0.2c0-0.1,0.2-0.2,0.2-0.2
				c0.5,0.2,1,0.6,1.2,1.2C195.8,91.9,195.8,92.1,195.6,92.1L195.6,92.1C195.7,92.1,195.6,92.1,195.6,92.1z"/>
			<path class="st23" d="M196.7,100.7c0,0-2.7,0.5-3.7-1.8c0.3,1.9,1.9,3,3.8,3.5l0.6-0.5l-0.3-1L196.7,100.7z"/>
			<path class="st22" d="M201.6,106.8c0,0-2.3-1.1-0.6-5.5c0,0-1.9-1.8-3.7-1c-1.9,0.8-0.3,4.8-2.5,5.4
				C194.6,105.7,195.8,107.4,201.6,106.8z"/>
			<path class="st6" d="M194.8,92.1c-0.2-0.1-0.4-0.2-0.5-0.4c0.1,0.3,0.2,0.5,0.5,0.5L194.8,92.1z"/>
			<path class="st9" d="M193.5,105.9c0,0,1.4-2.1,5.1-1.7c3.7,0.4,3,2.7,3,2.7L193.5,105.9z"/>
			<path class="st5" d="M193.5,105.9c0,0,1.4-2.1,5.1-1.7c3.7,0.4,3,2.7,3,2.7L193.5,105.9z"/>
			<path class="st6" d="M196.5,95c0.1-1.1,0.4-2.1,1-3c1-1.6,0.5-2.6,0.5-3.6c0.1-1,5.2-2,7.1,1.4c0,0,3.5,3,1,6.7
				c-2.5,3.7-3.5,6.5-6.5,6C196.7,102,198.4,97.1,196.5,95z"/>
			<path class="st24" d="M205.2,89.8c-0.8-1.4-2.3-2.2-3.9-2.4c-0.8,1.7,1.3,3.7,1.3,3.7s-3,0.8-2.5,3.2s4,1.2,4,1.2
				s-2.2,2.1-0.6,3.4c0.3,0.3,0.6,0.3,1,0.3c0.5-0.8,1.1-1.7,1.7-2.7C208.7,92.8,205.2,89.8,205.2,89.8z"/>
			<path class="st9" d="M205.2,89.8c-0.2-0.3-0.5-0.7-0.8-1c-1.5,0.8-2.4,2.2-2.4,3.8c0,3.5,3.2,4.2,3.9,4.3l0.2-0.3
				C208.7,92.8,205.2,89.8,205.2,89.8z"/>
			<path class="st22" d="M196.7,93.8c-0.7,0.5-1.1,1.2-1.2,2c-0.2,1,0.8,1.5,1.7,1.1c0.8-0.3,1.9-1.3,1.7-2.4c-0.2-0.8-1-1.2-1.7-1
				C197.1,93.6,196.9,93.7,196.7,93.8z"/>
			<path class="st6" d="M203.9,91.4c0,0-2.7-3-0.4-4.7c1.9-1.4,3.2,2.1,3.2,2.1s-0.3-4,2.5-3.5c2.8,0.5,1.1,3.9,1.1,3.9
				s2.5-1.6,3.5,0.2c1,1.7-2,2.8-2,2.8s3.4,2,1.8,3.4c-1.7,1.5-3.2-0.3-3.2-0.3s1,2.7-0.8,3.2c-1.7,0.4-2.1-2.1-2.1-2.1
				s-1.2,3-2.8,1.9c-1.5-1.2,0.1-3.2,0.1-3.2s-2.8,1.2-3.2-1.1C201.1,91.6,203.9,91.4,203.9,91.4z"/>
			<path class="st22" d="M208.6,115.5c0,0,5,10.7,2.5,11.6c-2.4,1-9.7,2.6-9.7,2.6l-3.5,1.2l-2.1-1.3l0.5-3.4l5.2,1.1l6.2-2.8
				l-2.9-6.5L208.6,115.5z"/>
			<path class="st9" d="M206.3,109.7c0.2-0.2,0.3-0.2,0.5,0c0.1,0,0.1,0.1,0.1,0.2c1.2,2.6,6.5,15.3,5.1,17.2
				c-1.1,1.4-6.5,2.1-6.5,2.1l-1.2-3.1l3.2-1.5l-3.7-8.3C203.8,116.1,203.3,113,206.3,109.7z"/>
			<path class="st23" d="M203.8,116.1l1.9,4.5c1.7-9.6,0.5-10.9,0.5-10.9C203.3,113,203.8,116.1,203.8,116.1z"/>
			<polygon class="st22" points="204.5,201.4 207.3,210.9 210.2,210.8 209.5,200.4 			"/>
			<path class="st6" d="M189.8,130.7c0,0-3.4,7-0.2,19.8c3.3,12.8,16.6,57.4,16.6,57.4l3.7-0.5c0,0,0.2-16-5.1-28.9
				c0,0-2.5-21.9-1.3-27.1c0.9-3.6,1.4-6.6-0.1-12.1c-0.5-2.4-1.4-4.6-2.4-6.8c-1-1.9-0.7-2.7-0.7-2.7L189.8,130.7z"/>
			<path class="st18" d="M206.3,207.9l3.7-0.5c0,0,0-0.6,0-1.7l-4.2,0.5L206.3,207.9z"/>
			<path class="st24" d="M194.2,166.8c4.8-13.4,3.5-23.1,3.5-23.1l-3-0.4l-2.4,4.2l-1.7,6.8C191.6,157.7,192.9,162.1,194.2,166.8z"
				/>
			<path class="st6" d="M207.3,210.6l3.4-0.5c0.2,0,0.3,0.1,0.3,0.2l1.6,3.1c0.1,0.3-0.1,0.5-0.3,0.7l0,0c0,0-0.1,0-0.2,0
				c-1.4,0.2-2.7,0.2-4.4,0.4c-2.1,0.3-1.5,0.4-3.9,0.8c-1.5,0.2-1.9-1.5-1.3-1.6c2.8-0.7,3-1.6,4-2.8
				C206.7,210.8,206.9,210.6,207.3,210.6z"/>
			<polygon class="st6" points="205.4,207.2 210.7,206.6 210.6,208.1 206,208.6 			"/>
			<polygon class="st22" points="190.2,202 191.3,211.5 194.2,211.5 195,202.2 			"/>
			<path class="st6" d="M185.2,129.6c-0.2,0.8-0.3,1.7-0.7,2.5c-2.2,5.4-2.9,11.3-2.1,17c1.5,13.2,8.6,59.2,8.6,59.2h3.8
				c0,0,2.6-15.7-0.5-29.4c0,0-1.1-19.4,0.5-24.4c1.1-3.5,4.3-6.9,3.5-14.3c-0.8-7.4-2.8-10-2.8-10L185.2,129.6z"/>
			<path class="st18" d="M190.6,206.6l0.3,1.7h3.8c0,0,0.1-0.6,0.2-1.7H190.6z"/>
			<path class="st6" d="M191.3,211.2l3.4,0.1c0.2,0,0.3,0.1,0.3,0.3l0.6,3.2c0.1,0.3-0.2,0.5-0.4,0.6H195c-1.4-0.1-2.6-0.2-4.4-0.2
				c-2.1-0.1-1.5,0.2-4,0.2c-1.5,0-1.7-1.7-1.1-1.7c2.8-0.3,3.7-1.2,4.7-2.1C190.7,211.3,191,211.2,191.3,211.2z"/>
			<polygon class="st6" points="190.2,207.5 195.4,207.5 195.1,209.1 190.5,209.1 			"/>
			<path class="st9" d="M203.7,136.3c-5.4-7.4,4-23.8,2.9-26.9c-1.1-3.1-18.1-8.2-20.4,0.5c-2.2,8.7-1,14.6-1.4,18.4
				c-0.5,5.6-2.8,7.8-2.8,7.8S193.9,140.5,203.7,136.3z"/>
			<path class="st23" d="M185,116.6c-0.2,2.5-0.3,5.1-0.2,7.7c6.4-7.3,5-14.3,5-14.3l-0.5,0.3l-2.3,1.9
				C187,112.3,186.1,114.2,185,116.6z"/>
			<path class="st22" d="M175.1,115.5c0,0,1.8,9.3,3.8,10.9c2,1.6,9-9.9,9-9.9l-3.4-2.1l-4.8,6.4l-2.8-6.6l0.5-3.5l-0.9-2.1
				c-0.2-0.3-0.7-0.5-1-0.3c-0.2,0.1-0.3,0.2-0.3,0.3l-1,2.4c-0.2,0.5-0.3,1-0.1,1.5L175.1,115.5z"/>
			<path class="st9" d="M179.7,120.3l-1.7-4l-2.2,3.3c0,0,1.1,7.8,3.9,7.1c2.7-0.7,8.8-9.9,10.1-13.4c1.3-3.5-0.5-7-0.5-7
				s-2.1-0.5-4.9,5.9C182,117.9,179.7,120.3,179.7,120.3z"/>
		</g>
		<g id="freepik--character-1--inject-1">
			<path class="st6" d="M66,102.6c-0.5-0.4-1.3-0.3-1.7,0.2c-0.1,0.1-0.1,0.2-0.2,0.2c-2.1,3.8-8.2,15.4-6.3,18.6
				c2.4,3.9,13.5,3.6,13.5,3.6l0.5-3.3l-7.1-3.7c0,0,2.2-4.4,2.9-5.9C68.6,110,70.1,106.1,66,102.6z"/>
			<path class="st24" d="M64.6,118.2c0,0,2.2-4.4,2.9-5.9c0.8-1.7,1.7-4.1,0.7-6.8l-1.8-1.9l-1.7,0.5c0,0-3.5,17,0,20.6
				c1.2,0.2,2.4,0.3,3.4,0.3c1.2-0.7,2.1-2.3,2.8-3.7L64.6,118.2z"/>
			<path class="st6" d="M76.4,86.5c-0.1-0.3,0-0.7,0.2-0.8c0.2-0.1,0.5,0.2,0.6,0.5c0.1,0.3,0,0.7-0.2,0.8
				C76.8,87.1,76.5,86.8,76.4,86.5z"/>
			<path class="st25" d="M76.8,87l2.6,1.7c-0.4,0.6-1.1,1-1.8,1L76.8,87z"/>
			<path class="st26" d="M64.6,90.2c1.8,4.2,2.4,6,5.4,7.4c4.1,1,9.2-1,8.7-5.6c-0.4-4.1-3.2-10.3-8.1-10.6
				c-3.4-0.2-6.4,2.5-6.5,5.9C64,88.4,64.2,89.4,64.6,90.2z"/>
			<path class="st6" d="M75.6,85.8c0.1,0,0.2-0.1,0.2-0.2c0.2-0.5,0.5-1,1-1.1c0.2,0,0.2-0.2,0.2-0.3c-0.1-0.2-0.2-0.2-0.3-0.2
				c-0.6,0.2-1.1,0.8-1.3,1.4C75.3,85.7,75.4,85.8,75.6,85.8L75.6,85.8C75.5,85.8,75.5,85.8,75.6,85.8z"/>
			<path class="st23" d="M74.4,95.7c0,0,3,0.6,4.2-2.1c-0.4,2.1-2.2,3.5-4.3,4l-0.8-0.5L74,96L74.4,95.7z"/>
			<path class="st26" d="M68.4,103.5c0,0,2.9-1.5,0.8-7c0,0,2.4-2.4,4.7-1.3c2.4,1,0.4,6.1,3.2,6.9C77.3,102,75.8,104.1,68.4,103.5z
				"/>
			<path class="st6" d="M69,100.7c0,0-0.5-1.9,2.8-2.7c3.2-0.8,5.9,0.2,6.4,1.6C78.6,101,69,100.7,69,100.7z"/>
			<path class="st27" d="M69,100.7c0,0-0.5-1.9,2.8-2.7c3.2-0.8,5.9,0.2,6.4,1.6C78.6,101,69,100.7,69,100.7z"/>
			<path class="st6" d="M75.6,89.2c0.5-0.4,0.6-1.1,0.2-1.7c-0.1-0.1-0.2-0.2-0.2-0.2c-1-1-2.6-1.8-2.1-3.2s-1.7-2.3-1.7-2.3
				s2.1-1.3,0.8-2.4c-1.2-1-1.7,1-4.6,2.1c-3.3,1.3-7,4.5-4.7,8.6c2.3,4.1,4.3,7.6,7,7c2.7-0.7,4-5.9,4-5.9L75.6,89.2z"/>
			<path class="st26" d="M74.8,87.8c0.8,0.5,1.2,1.4,1.4,2.3c0.2,1.2-1,1.7-2,1.2c-1-0.4-2.2-1.5-1.9-2.7c0.2-0.8,1.1-1.3,1.9-1.1
				C74.4,87.6,74.6,87.6,74.8,87.8z"/>
			<polygon class="st26" points="81.2,204.3 82.2,211.3 86.4,211.1 86.8,203.9 			"/>
			<path class="st6" d="M86.2,210.6l-4.1,0.1c-0.2,0-0.3,0.2-0.3,0.3l-0.8,3.9c-0.1,0.3,0.2,0.7,0.5,0.8l0,0c0.1,0,0.1,0,0.2,0
				c1.7-0.1,3.2-0.2,5.4-0.2c2.5-0.1,1.9,0.3,4.9,0.3c1.8,0,2.1-2.1,1.3-2.1c-3.5-0.3-4.5-1.5-5.9-2.6
				C87,210.8,86.6,210.6,86.2,210.6z"/>
			<polygon class="st26" points="60.7,204.3 60.4,210.5 64.8,211 66.3,203.9 			"/>
			<path class="st6" d="M64.6,209.9l-4.1-0.3c-0.2,0-0.3,0.2-0.4,0.3l-1.1,3.8c-0.1,0.3,0.1,0.7,0.4,0.8c0.1,0,0.1,0,0.2,0
				c1.7,0.1,3.2,0.1,5.4,0.2c2.5,0.2,1.9,0.4,4.8,0.7c1.8,0.2,2.3-1.9,1.5-2c-3.4-0.7-4.4-1.8-5.7-3.2
				C65.3,210.1,64.9,209.9,64.6,209.9z"/>
			<polygon class="st26" points="70.7,122.1 73.3,122.7 77.7,121.6 78.4,123.4 78.9,126.1 75.5,126.7 72.6,125 69,125 			"/>
			<path class="st6" d="M64.6,103.3l2.1,29.8l22.8,0.2c0,0,2.8-8.2-0.6-19.9l-3.4-11.3c-0.3-1-1-1.7-2-1.9c-3.4-0.8-11.6-1.8-18,1.5
				C64.9,102,64.6,102.7,64.6,103.3z"/>
			<path class="st28" d="M66.2,133.4c-1.3,5.9-1.6,10.1-1.6,12.8c0,1,0.1,1.8,0.2,2.4c0.2,1.9,0.3,3.9,0.2,5.9v0.5
				c-0.3,5.7-0.4,11.5-0.4,15.3v0.1c0,2.5-0.4,5-1.2,7.4c-0.2,0.3-0.2,0.8-0.3,1.1c-3.2,11-3,28.7-3,28.7l6.3,0.3l17.2-75.6h-16
				C66.8,132.2,66.3,132.7,66.2,133.4z"/>
			<path class="st23" d="M75.5,144.8l-2.1-0.5l-1.3-1.6c0,0,0.2,12,3.6,23.6l3.4-14.9L75.5,144.8z"/>
			<polygon class="st9" points="59.5,206.3 59.5,208.1 66.6,208.4 67,206.6 			"/>
			<polygon class="st29" points="59.5,206.3 59.5,208.1 66.6,208.4 67,206.6 			"/>
			<path class="st28" d="M72.4,132.2c-1.5,8.8-0.5,13.7,0.4,16.4c0.1,0.3,0.2,0.5,0.3,0.7c0.7,1.6,1.2,3.2,1.5,5
				c0,0.1,0,0.2,0.1,0.3c0.9,6,2.1,11.9,3.7,17.8v0.1c0.5,1.7,0.5,3.5,0.3,5.3c-0.1,0.5-0.2,1.2-0.2,1.9
				c-0.7,10.2,2.6,28.7,2.6,28.7l6.1-0.5l2.7-74.6c0-0.5-0.3-0.8-0.8-0.9l0,0L72.4,132.2z"/>
			<polygon class="st9" points="80.4,207.4 80.8,209.2 87.7,208.5 87.8,206.7 			"/>
			<polygon class="st29" points="80.4,207.4 80.8,209.2 87.7,208.5 87.8,206.7 			"/>
			<g class="st30">
				<rect x="72.6" y="133.5" class="st7" width="11.5" height="1.6"/>
				<polygon class="st7" points="71,133.5 66.6,133.5 66.4,135.2 71,135.2 				"/>
				<rect x="85.7" y="133.5" class="st7" width="3.5" height="1.6"/>
			</g>
			<path class="st24" d="M88.9,113.3l-1.8-6.1l-1.2-1.7l-1.6-1.2l-0.8,1.9c0.6,4.1,2.8,7.7,6.1,10.1
				C89.4,115.4,89.1,114.4,88.9,113.3z"/>
			<path class="st26" d="M99.7,103.3l1.1-2.4l-0.2-3.7c0-0.5,0.2-1,0.4-1.3l0.6-0.8c0.7-0.8,1.9-0.9,2.6-0.2
				c0.1,0.1,0.2,0.2,0.2,0.2l0.3,0.4c0.3,0.3,0.5,0.8,0.4,1.2l-0.1,2.1c0,0.4-0.2,0.9-0.5,1.2l-1.8,1.9l-0.8,3.5L99.7,103.3z"/>
			<path class="st6" d="M85.4,100.8l10.8,8.6l3.7-7.2l3.2,1.4c0,0-2.3,12.9-5.2,13.1c-3,0.2-10.3-3.3-13.3-7.4
				c-2.2-3-1.2-6.5-0.5-8.1c0.2-0.4,0.7-0.6,1.1-0.4C85.3,100.7,85.3,100.7,85.4,100.8z"/>
		</g>
		<g>
			<polygon class="st6" points="154.8,133.6 152.8,136.6 141,118.2 144.9,118.2 			"/>
			<polygon class="st6" points="164.7,118.2 155.5,132.6 153.5,129.6 160.9,118.2 			"/>
			<polygon class="st6" points="159.5,118.2 152.9,128.5 150.9,125.5 155.6,118.2 			"/>
		</g>
	</g>
	<g>
		<polygon class="st31" points="133.6,212.3 131.5,180.8 143.9,180.8 141.8,212.3 		"/>
		<path class="st32" d="M143.6,181.1l-2,30.9h-7.7l-2-30.9H143.6 M144.3,180.5h-13.1l2.1,32.1h8.8L144.3,180.5L144.3,180.5z"/>
	</g>
</g>
</svg>
