<?xml version="1.0" encoding="utf-8"?>
<!-- Generator: Adobe Illustrator 24.3.0, SVG Export Plug-In . SVG Version: 6.00 Build 0)  -->
<svg version="1.1" id="Camada_1" xmlns="http://www.w3.org/2000/svg" xmlns:xlink="http://www.w3.org/1999/xlink" x="0px" y="0px"
	 viewBox="0 0 56 62.4" style="enable-background:new 0 0 56 62.4;" xml:space="preserve">
<style type="text/css">
	.st0{fill:#FFFFFF;}
</style>
<g>
	<path class="st0" d="M8.4,32.4c0-0.3,0-0.6,0-0.8c0-5.9,0-11.9,0-17.9c0-1.3,0.1-1.4,1.5-1.4c1.6,0,3.2,0,5,0c0-0.4,0-0.7,0-1
		c0-3.3,0-6.6,0-9.9c-0.1-1.3,0-1.4,1.2-1.4c1.9,0,3.7,0,5.6,0c1,0,1.2,0.2,1.2,1.2c0,3.4,0,6.7,0,10.1c0,0.3,0,0.6,0,1
		c0.3,0,0.6,0,0.9,0c2.4,0,4.9,0,7.2,0c0.4,0,1,0.2,1.3,0.5c3.3,3.2,6.5,6.4,9.7,9.7c0.4,0.4,0.6,0.8,0.6,1.4c0,4.8,0,9.5,0,14.3
		c0,0.3,0,0.6,0,0.8c0.8,0.3,1.3,0.1,1.8-0.5c0.2-0.2,0.4-0.4,0.6-0.7c1.1-1.2,1.1-1.2,2.6-0.7c0.1,0,0.2,0.1,0.3,0.1
		c2.4,0.9,2.4,0.9,2.2,3.5c-0.1,1.3,0.7,2,2,1.9c0.1,0,0.2,0,0.2,0c2.3-0.1,2-0.6,3.2,2c0.9,2,0.9,2-0.8,3.5
		c-0.5,0.4-1.1,0.8-0.9,1.7c0.1,0.5,0.2,0.9,0.6,1.2c0.3,0.3,0.6,0.6,1,0.8c0.8,0.5,1,1.2,0.6,2.1c-0.4,0.8-0.7,1.5-1,2.3
		c-0.2,0.5-0.6,0.7-1.1,0.6c-0.5,0-1,0-1.5-0.1c-1.5-0.1-2.2,0.6-2,2.1c0,0.1,0,0.1,0,0.2c0.2,2.2,0.2,2.2-1.8,3.1
		c-0.1,0-0.2,0.1-0.3,0.1c-1.8,0.7-1.9,0.7-3.2-0.8c-0.6-0.7-1.1-1.2-2.1-1.1c-0.5,0.1-0.9,0.2-1.2,0.6c-0.2,0.2-0.4,0.4-0.6,0.7
		c-1,1.3-1.1,1.3-2.6,0.6c-2.4-1-2.4-1-2.3-3.7c0.1-1.2-0.7-1.9-1.9-1.8c-0.4,0-0.7,0-1.1,0.1c-0.9,0.2-1.6-0.1-1.9-1
		c-0.1-0.2-0.6-0.4-0.9-0.4c-4.9,0-9.7,0-14.6,0c-4.8,0-9.6,0-14.4,0c-1.1,0-1.2-0.2-1.2-1.2C0,44.6,0,35.2,0,25.8
		c0-0.4,0.3-0.8,0.5-1.1c0.4,0.2,0.8,0.3,1.1,0.5c2.1,2.2,4.2,4.5,6.1,6.7c0.2,0.2,0.3,0.4,0.5,0.6C8.3,32.4,8.3,32.4,8.4,32.4z
		 M19.9,28.4c5.5,0,10.8,0,16.2,0c0,0.5,0,1,0,1.4c-0.2,0-0.3,0.1-0.4,0.1c-5.6,0-11.2,0-16.8,0c-0.6,0-0.8-0.3-1-0.8
		c-1-2.2-2-4.4-2.9-6.5c-0.2-0.4-0.3-0.9-0.3-1.4c0-2.3,0-4.5,0-6.7c0-0.3,0.1-0.7-0.4-0.7c-1.5,0-2.9,0-4.4,0
		c0,0.2-0.1,0.3-0.1,0.5c0,6.5,0,13.1,0,19.6c0,0.3,0.1,0.6,0.3,0.8c1.4,1.6,2.9,3.2,4.4,4.8c0.2,0.2,0.4,0.3,0.6,0.3
		c6.6,0,13.2,0,19.8,0c0.3,0,0.6,0,1,0c-0.1-0.8,0-1.4,0.7-1.7c1.4-0.4,2.8-2.1,4.5-0.4c0-4.6,0-8.9,0-13.5c-0.3,0-0.6,0-0.9,0
		c-2.8,0-5.6,0-8.3,0c-1,0-1.2-0.2-1.2-1.2c0-2.8,0-5.6,0-8.3c0-0.3,0-0.6,0-0.9c-2.7,0-5.3,0-7.8,0c0,0.3,0,0.6,0,0.9
		c0,2.1,0,4.2,0,6.2c0,0.6-0.1,1.3-0.4,1.8C21.6,24.6,20.8,26.5,19.9,28.4z M51.8,55.2c0.5,0,1.2,0.1,1.5-0.2
		c0.4-0.5,0.7-1.2,0.8-1.8c0-0.3-0.5-0.6-0.7-0.9c-0.3-0.3-0.7-0.6-1-0.9c-0.2-0.2-0.4-0.5-0.4-0.8c-0.1-2.3-0.1-2.3,1.7-3.9
		c0.1-0.1,0.3-0.2,0.3-0.3c0.1-0.1,0.2-0.3,0.1-0.3c-0.2-0.6-0.4-1.3-0.8-1.8c-0.2-0.2-0.8-0.1-1.2-0.2c-0.4,0-0.8,0.1-1.3,0.1
		c-0.3,0-0.7-0.2-0.9-0.3c-1.3-1-2-2.2-1.5-3.8c0-0.1,0.1-0.2,0-0.3c-0.1-0.3-0.2-0.6-0.4-0.7c-1.5-0.9-1.6-0.8-2.8,0.5
		c-0.2,0.2-0.4,0.5-0.6,0.7c-0.1,0.1-0.3,0.3-0.5,0.3c-1.4,0-2.9,0.4-3.8-1.2c-0.2-0.4-0.6-0.9-0.8-0.9c-0.7,0.1-1.4,0.4-2,0.7
		c-0.2,0.1-0.2,0.6-0.2,0.9c0,0.5,0.1,1.1,0,1.6c0,0.4-0.2,0.8-0.5,1.1c-0.9,1.3-2.2,1.7-3.7,1.4c-0.1,0-0.3-0.1-0.4,0
		c-0.2,0.1-0.5,0.2-0.6,0.3c-0.9,1.4-0.8,1.7,0.4,2.8c0.3,0.2,0.5,0.4,0.8,0.7c0.2,0.2,0.4,0.4,0.4,0.6c0,1.4,0.3,2.8-1.2,3.8
		c-1.2,0.8-1.1,0.9-0.5,2.2c0.2,0.6,0.5,0.9,1.2,0.8c0.5-0.1,1.1-0.1,1.7-0.1c0.2,0,0.6,0,0.7,0.2c1.1,1,2.3,1.9,1.7,3.7
		c0,0.1,0,0.2,0,0.2c-0.3,1.2,0.7,1.2,1.3,1.5c0.6,0.4,0.9-0.1,1.2-0.5c0.7-1.1,1.6-1.6,3-1.5c1.2,0.1,1.9,0.4,2.6,1.3
		c0.9,1.2,0.9,1.1,2.2,0.5c0.5-0.2,0.8-0.5,0.7-1.2c-0.1-0.5-0.1-1-0.1-1.6c0-0.3,0-0.6,0.1-0.7C49.5,56.1,50.1,54.5,51.8,55.2z
		 M2.6,45.7c-1.1,0.2-1.1,0.2-1.1,1.4c0,0.8,0,1.6,0,2.4c0,0.5,0.2,0.7,0.7,0.7c0.1,0,0.3,0,0.5,0.1c0,0.3,0,0.6,0,0.9
		c0,0.2,0,0.3,0,0.5c-0.4,0-0.7,0.1-1.1,0.1c0,0.4,0,0.7,0,1c0,1.1,0,1.1,1.1,1.1c7.3,0,14.7,0,22,0c0.3,0,0.6,0,1.1,0
		C17.6,44.9,9.7,36.2,1.7,27.4c0,1.9,0,3.5,0,5.1c0.4,0,0.7,0.1,1.1,0.1c0,0.5,0,0.9,0,1.4c-0.4,0-0.7,0.1-1.1,0.1
		c0,1.5,0,2.9,0,4.3c0.4,0,0.7,0.1,1,0.1c0,0.5,0,1,0,1.4c-0.4,0-0.7,0.1-1,0.1c0,1.5,0,2.9,0,4.3c0.4,0,0.7,0,1.1,0.1
		C2.6,44.8,2.6,45.2,2.6,45.7z M16.4,41.2c0.1,0.2,0.1,0.2,0.1,0.3c3.7,4,7.3,8,10.9,12c0.1,0.1,0.3,0.3,0.5,0.3c0.8,0,1.6,0,2.5,0
		c-0.7-1.2,0-1.7,0.7-2.3c0.3-0.2,0.6-0.4,0.8-0.7c0.2-0.3,0.4-0.6,0.4-1c0.2-0.7-0.1-1.2-0.7-1.6c-0.4-0.3-0.7-0.6-1.1-0.9
		C29.9,47,29.8,46.6,30,46c0.4-0.9,0.7-1.9,1.2-2.8c0.2-0.3,0.6-0.5,1-0.6c0.7-0.1,1.4,0.1,2.1,0.1c0.7,0,1.5-0.8,1.4-1.5
		C29.4,41.2,22.9,41.2,16.4,41.2z M21.2,21c0-5.5,0-10.7,0-16.1c-1.7,0-3.3,0-4.9,0c0,5.4,0,10.7,0,16.1C18,21,19.5,21,21.2,21z
		 M39.6,22.6c-2.5-2.5-5-5-7.3-7.3c0,2.4,0,4.9,0,7.3C34.8,22.6,37.3,22.6,39.6,22.6z M21.2,1.5c-1.7,0-3.3,0-5,0c0,0.6,0,1.2,0,1.8
		c1.7,0,3.3,0,5,0C21.2,2.7,21.2,2.2,21.2,1.5z M16.8,22.6c0.1,0.7,0.3,1,1.1,0.9c0.6-0.1,1.3-0.1,1.9,0c0.7,0.1,1-0.2,1.1-0.9
		C19.4,22.6,18.1,22.6,16.8,22.6z M17.8,25.1c0.3,0.8,0.6,1.4,1,2.3c0.4-0.9,0.7-1.5,1-2.3C19.1,25.1,18.5,25.1,17.8,25.1z"/>
	<path class="st0" d="M15.1,35.4c0-0.5,0-0.9,0-1.4c7,0,14,0,21,0c0,0.4,0,0.9,0,1.4C29,35.4,22.1,35.4,15.1,35.4z"/>
	<path class="st0" d="M42.9,43.8c3.3,0,5.8,2.6,5.8,5.8c0,3.3-2.6,5.8-5.8,5.8s-5.8-2.7-5.9-5.8C37.1,46.4,39.6,43.8,42.9,43.8z
		 M42.6,54c1.9,0,3.3-0.7,4.2-2.2c0.9-1.6,0.9-3.2-0.2-4.7c-0.9-1.3-2.3-2-4-1.8C42.6,48.2,42.6,51,42.6,54z M41,45.8
		c-1.6,0.5-2.6,2.3-2.5,4.2c0.1,1.6,1.2,3.2,2.5,3.4C41,50.8,41,48.4,41,45.8z"/>
	<path class="st0" d="M4.4,43.5c0-2.1,0-4.2,0-6.1c0-0.4,0.3-0.8,0.5-1.1c0.4,0.2,0.9,0.3,1.1,0.5c3.9,4.2,7.6,8.3,11.5,12.6
		c0.3,0.3,0.5,0.8,0.4,1.1c-0.1,0.2-0.7,0.4-1,0.4c-3.8,0-7.5,0-11.2,0c-1,0-1.2-0.2-1.2-1.1C4.4,47.7,4.4,45.6,4.4,43.5z M8.4,49.5
		c0-2.6,0-5.1,0-7.5c0-0.1,0-0.2-0.1-0.3c-0.8-0.9-1.5-1.7-2.4-2.7c0,3.6,0,7,0,10.4C6.8,49.5,7.5,49.5,8.4,49.5z M15.5,49.4
		c-1.9-2.1-3.7-4-5.6-6c0,2.2,0,4.1,0,6C11.8,49.4,13.6,49.4,15.5,49.4z"/>
</g>
</svg>
