<?xml version="1.0" encoding="utf-8"?>
<!-- Generator: Adobe Illustrator 24.3.0, SVG Export Plug-In . SVG Version: 6.00 Build 0)  -->
<svg version="1.1" id="Camada_1" xmlns="http://www.w3.org/2000/svg" xmlns:xlink="http://www.w3.org/1999/xlink" x="0px" y="0px"
	 viewBox="0 0 56 51.5" style="enable-background:new 0 0 56 51.5;" xml:space="preserve">
<style type="text/css">
	.st0{fill:#FFFFFF;}
</style>
<g>
	<g>
		<g>
			<path class="st0" d="M20.9,38.4c-1.3,0.5-2.5,1-3.6,1.4c-0.6,0.2-1.1,0.5-1.7,0.7c-1.7,0.7-2.7,2-2.9,3.8c0,0.2-0.1,0.4-0.2,0.7
				C8.4,45,4.3,45,0,45c0-0.6,0-1.2,0-1.8c0.1-1.2,0.2-2.4,0.3-3.5c0.1-0.9,0.6-1.6,1.5-1.9c1.9-0.8,3.8-1.5,5.7-2.2
				c0.8-0.3,1-1.3,0.5-2c-0.6-0.8-1-1.6-1.5-2.4c-0.1-0.2-0.4-0.4-0.6-0.5c-1.4-0.5-1.8-2-0.8-3.2c0.1-0.2,0.2-0.5,0.1-0.8
				c-0.4-2.8,1.1-5.2,3.7-6.1c2.8-0.9,5.8,0.3,7,2.8c0.5,1.1,0.6,2.2,0.4,3.3c0,0.3,0.1,0.6,0.2,0.8c0.9,0.9,0.5,2.6-0.7,3
				c-0.6,0.2-0.8,0.5-1,1c-0.2,0.6-0.7,1.2-1.1,1.8c-0.2,0.4-0.4,0.9-0.5,1.3c-0.1,0.5,0.1,0.7,0.6,0.9c1.9,0.7,3.8,1.5,5.7,2.2
				C20.1,37.8,20.4,38.1,20.9,38.4z"/>
			<path class="st0" d="M56,45.1c-4.4,0-8.5,0-12.7,0c-0.1-0.3-0.2-0.6-0.2-0.9c-0.2-1.7-1.1-2.9-2.7-3.6c-1.7-0.8-3.5-1.5-5.4-2.3
				c0.5-0.3,0.8-0.5,1.2-0.7c1.8-0.7,3.7-1.4,5.6-2.2c0.8-0.3,1-1.3,0.5-2c-0.6-0.8-1-1.6-1.5-2.4c-0.1-0.2-0.4-0.4-0.6-0.5
				c-1.4-0.5-1.8-2-0.8-3.2c0.2-0.2,0.2-0.6,0.1-0.9c-0.4-2.9,1.4-5.4,4.3-6c3.1-0.7,6.1,1,6.8,3.9c0.1,0.5,0.1,1,0.1,1.5
				c0,0.7-0.2,1.3,0.4,2c0.7,0.7,0.1,2.3-1,2.6c-0.6,0.2-0.7,0.5-0.9,1c-0.3,0.7-0.8,1.3-1.2,1.9c-0.2,0.3-0.4,0.6-0.4,0.9
				c-0.2,0.7,0.1,1.1,0.9,1.4c1.9,0.6,3.7,1.4,5.5,2.1c0.9,0.4,1.5,1,1.6,2.1C55.7,41.5,55.9,43.2,56,45.1z"/>
			<path class="st0" d="M28,21.7c3,0,5.2,1.5,5.9,4.2c0.2,0.8,0.2,1.6,0.1,2.4c-0.2,1.5-0.5,2.9-0.9,4.4c-0.6,2.4-2.7,4-5.2,4
				s-4.6-1.6-5.2-4c-0.4-1.5-0.7-3-0.9-4.5C21.4,24.6,24.1,21.5,28,21.7z"/>
		</g>
		<path class="st0" d="M23.4,15.9c-0.5-0.6-0.9-1-1.3-1.6c-0.1-0.2-0.1-0.6,0-0.7c0.5-0.5,0.5-1,0.1-1.6c-0.1-0.2-0.3-0.4-0.3-0.6
			c-0.2-1-0.7-1.6-1.8-1.5c0-0.8,0-1.5,0-2.4c1.2,0.1,1.6-0.7,1.9-1.6c0.4-0.9,1-1.7-0.5-2.6C22,3,22.4,2.8,22.7,2.5
			c0.5-0.5,1-0.9,1.6-0.2l0.1,0.1c0.4,0.2,3-1,3.1-1.5C27.6,0.6,27.7,0,27.9,0c0.6-0.1,1.3,0,2,0C29.9,0,30,0.2,30,0.4
			c0,0.8,0.4,1.2,1.2,1.3c0.2,0,0.3,0.1,0.5,0.2c0.8,0.5,1.7,0.8,2.4-0.3c0.5,0.7,1,1.2,1.6,1.9c-1,0.7-0.6,1.5-0.2,2.5
			c0.4,0.9,0.6,1.8,1.9,1.5c0,0.9,0,1.6,0,2.5c-1.3-0.2-1.6,0.6-1.9,1.6c-0.4,0.9-0.9,1.7,0.3,2.5c-0.6,0.6-1.2,1.1-1.7,1.6H34
			c-0.7-0.7-1.4-0.8-2.2-0.2c-0.2,0.2-0.6,0.3-0.9,0.3c-0.6,0.1-0.9,0.4-0.9,1c0,0.5-0.3,0.8-0.8,0.7c-0.3,0-0.6,0-0.9,0
			c-0.6,0.1-0.9-0.2-0.9-0.8c0-0.5-0.2-0.9-0.8-0.9c-0.2,0-0.5-0.1-0.7-0.3C25.2,15,24.3,14.7,23.4,15.9z M28.8,3.6
			c-2.9,0-5.2,2.3-5.3,5.2c0,2.9,2.3,5.3,5.2,5.3S34,11.8,34,8.9C34,5.9,31.7,3.6,28.8,3.6z"/>
	</g>
	<path class="st0" d="M41.6,44.4c-0.1-1.2-0.9-2.1-2-2.5c-1.8-0.7-5.3-2.5-8.2-3.2c-0.8,0.9-1.9,2.9-3.4,2.9l0,0c-0.1,0-0.1,0-0.1,0
		c-1.5,0-2.7-2-3.5-2.8c-2.8,0.7-6.2,2.4-7.9,3.1c-1.1,0.4-1.9,1.3-2,2.5c-0.2,2.3-0.4,4.7-0.6,7.1h14H28h14.2
		C42,49.1,41.8,46.7,41.6,44.4z"/>
</g>
</svg>
