<?xml version="1.0" encoding="utf-8"?>
<!-- Generator: Adobe Illustrator 24.3.0, SVG Export Plug-In . SVG Version: 6.00 Build 0)  -->
<svg version="1.1" id="Camada_1" xmlns="http://www.w3.org/2000/svg" xmlns:xlink="http://www.w3.org/1999/xlink" x="0px" y="0px"
	 viewBox="0 0 56 64.3" style="enable-background:new 0 0 56 64.3;" xml:space="preserve">
<style type="text/css">
	.st0{fill:#FFFFFF;}
</style>
<g>
	<path class="st0" d="M46.4,26c-0.5,0.1-0.9,0.2-1.2,0.2c-4,0.7-7.7,2.1-10.9,4.7c-5.2,4.2-8,9.8-8.6,16.2
		c-0.4,4.8-0.2,9.6-0.2,14.3c0,1.2,0.9,2.3,2.1,2.7c2.1,0.7,4-0.8,4-3.1c0-3.5-0.1-7,0-10.5c0.1-1.9,0.2-3.7,0.7-5.5
		c1.2-4.8,3.8-8.7,8.3-11c1.8-0.9,3.6-1.5,5.7-1.8c0,2.4,0,4.6,0,6.9c3.3-3.3,6.5-6.5,9.6-9.6c-3.1-3.1-6.3-6.3-9.6-9.6
		C46.4,21.9,46.4,24,46.4,26z M31.7,9.6c2.3,0,4.4,0,6.6,0C35,6.3,31.8,3.1,28.7,0c-3.2,3.1-6.4,6.4-9.6,9.6c2.1,0,4.3,0,6.5,0
		c0,0.4,0,0.8,0,1.1c0,6.1,0,12.2,0,18.1c0,0.3,0,0.7,0.2,0.9c0.8,0.8,1.6,1.6,2.4,2.3c1-0.9,1.9-1.8,2.9-2.7
		c0.5-0.4,0.7-0.8,0.7-1.4c0-5.8,0-11.6,0-17.3C31.7,10.3,31.7,10,31.7,9.6z M24,41c0.8-2,1.5-4,2.4-5.9c0.4-0.8,0.3-1.3-0.3-1.9
		c-3.2-3.5-7.3-5.6-11.9-6.6c-1.5-0.3-3.1-0.5-4.8-0.8c0-2,0-3.9,0-5.8c-3.2,3.2-6.4,6.4-9.5,9.5c3.2,3.2,6.4,6.4,9.6,9.6
		c0-2.3,0-4.6,0-7C16,32.7,21.2,35,24,41z"/>
	<path class="st0" d="M46.4,26c0-2,0-4,0-6c3.2,3.2,6.4,6.4,9.6,9.6c-3.1,3.1-6.3,6.3-9.6,9.6c0-2.2,0-4.5,0-6.9
		c-2.1,0.3-4,0.9-5.7,1.8c-4.5,2.4-7.2,6.2-8.3,11c-0.4,1.8-0.6,3.7-0.7,5.5c-0.1,3.5,0,7,0,10.5c0,2.3-2,3.8-4,3.1
		c-1.1-0.4-2.1-1.5-2.1-2.7c0-4.8-0.2-9.6,0.2-14.3c0.6-6.5,3.4-12.1,8.6-16.2c3.2-2.6,6.9-4,10.9-4.7C45.5,26.1,45.9,26.1,46.4,26z
		"/>
	<path class="st0" d="M31.7,9.6c0,0.4,0,0.8,0,1.1c0,5.8,0,11.6,0,17.3c0,0.6-0.2,1-0.7,1.4c-1,0.8-1.9,1.8-2.9,2.7
		c-0.8-0.7-1.7-1.5-2.4-2.3c-0.2-0.2-0.2-0.6-0.2-0.9c0-6.1,0-12.2,0-18.1c0-0.3,0-0.7,0-1.1c-2.2,0-4.4,0-6.5,0
		c3.2-3.2,6.5-6.5,9.6-9.6c3.1,3.1,6.3,6.3,9.6,9.6C36.1,9.6,34,9.6,31.7,9.6z"/>
	<path class="st0" d="M24,41c-2.8-6-8-8.3-14.3-9c0,2.4,0,4.8,0,7c-3.2-3.2-6.4-6.5-9.6-9.6c3.1-3,6.3-6.2,9.5-9.5
		c0,1.9,0,3.8,0,5.8c1.7,0.3,3.2,0.5,4.8,0.8c4.6,1,8.6,3,11.9,6.6c0.6,0.6,0.7,1.1,0.3,1.9C25.5,37,24.8,39,24,41z"/>
</g>
</svg>
