<?xml version="1.0" encoding="utf-8"?>
<!-- Generator: Adobe Illustrator 25.2.3, SVG Export Plug-In . SVG Version: 6.00 Build 0)  -->
<svg version="1.1" id="Camada_1" xmlns="http://www.w3.org/2000/svg" xmlns:xlink="http://www.w3.org/1999/xlink" x="0px" y="0px"
	 viewBox="0 0 100 100" style="enable-background:new 0 0 100 100;" xml:space="preserve">
<style type="text/css">
	.st0{fill:#FFFFFF;}
</style>
<path class="st0" d="M73.7,95.8c-8.5-0.1-16-2.3-23.1-5.8c-12.1-6-22.2-14.6-31.4-24.3C13,59.1,7.6,51.8,4.1,43.3
	c-2-4.9-3.2-10-3.4-15.3C0.6,21.7,3,16.3,7.1,11.6c1.6-1.9,3.5-3.6,5.3-5.2C16,3,21.1,3.6,23.4,8c2,3.8,3.6,7.8,5.3,11.8
	c0.9,2,1.8,4,2.6,6c0.9,2.2,0.9,4.4-0.5,6.4c-1.1,1.6-2.3,3.2-3.5,4.8c-2.4,3.1-2.6,6-0.5,9.1c3.1,4.5,6.9,8.4,10.9,12.2
	c4.4,4.1,8.9,7.9,13.9,11.2c1.6,1.1,3.3,2,5,2.9c3,1.4,5.9,1,8.3-1.4c1.2-1.2,2.5-2.4,3.6-3.7c2.3-2.5,5-3.1,8.2-2.2
	c5.7,1.7,11.4,3.3,17.1,5c5,1.5,6.8,6.5,4,10.9c-2.4,3.7-5.2,7.2-8.6,10C84.6,94.8,79,95.7,73.7,95.8z"/>
</svg>
