<?xml version="1.0" encoding="utf-8"?>
<!-- Generator: Adobe Illustrator 24.3.0, SVG Export Plug-In . SVG Version: 6.00 Build 0)  -->
<svg version="1.1" id="Camada_1" xmlns="http://www.w3.org/2000/svg" xmlns:xlink="http://www.w3.org/1999/xlink" x="0px" y="0px"
	 viewBox="0 0 56 55.5" style="enable-background:new 0 0 56 55.5;" xml:space="preserve">
<style type="text/css">
	.st0{fill:#FFFFFF;}
</style>
<g>
	<path class="st0" d="M52.2,29.4c3.8-1.1,4.5-3.6,3.2-7c-0.2-0.4-0.3-0.9-0.3-1.4c0-1.2-0.6-1.7-1.7-1.6c-2.8,0.1-4.7-1.1-5.8-3.8
		c-0.4-1-0.7-1.7-0.2-2.7c0.6-1.2,1-2.5,1.5-3.7c-1.1-0.9-2.1-1.8-3.1-2.6c-2.8-2.4-2.9-2.4-6-0.4c-1,0.6-1.8,0.7-3,0.4
		c-2.6-0.7-4.1-2-4.5-4.7c0-0.1,0-0.1,0-0.2c-0.2-1.2-0.8-1.7-2.1-1.6c-1.5,0.1-3,0.1-4.5,0c-1.3-0.1-1.9,0.4-2.2,1.7
		c-0.3,1.2-0.5,2.8-1.3,3.4c-1.2,0.9-2.9,1.4-4.5,1.7c-0.7,0.1-1.6-0.7-2.4-1.2s-1.6-1-2.4-1.5c-1,0.8-2,1.6-2.6,2.7
		c-3.1,2.6-3.1,2.6-1.6,6.3c0.2,0.5,0.3,1.3,0.1,1.9c-1.1,2.9-2.9,4.7-6.2,4.5c-0.1,0-0.2-0.1-0.3,0c-0.4,0.3-1.1,0.6-1.2,1.1
		c-0.4,1.5-0.5,3.1-0.9,4.6c-0.3,1.5-0.1,2.5,1.5,3c2.5,0.7,3.6,2.5,3.6,5v0.5C5,34.5,5,35.4,4.6,35.9c-2.7,3.2-2.8,3.2-0.6,6.9
		c1.7,2.9,1.7,2.9,5,2.2c2.8-0.6,6,2,5.9,4.9c-0.1,3.4-0.1,3.4,3,4.6c4,1.5,4.1,1.5,6.8-1.9c1.2-1.6,2.8-0.6,4.3-0.9
		c1.2-0.2,1.9,0.3,2.6,1.2c2.3,3.1,2.4,3.1,6.1,1.7c3.5-1.3,3.5-1.3,3.4-5.1c0-0.6,0.1-1.5,0.5-2c1.9-2.2,4.2-3.5,7.2-2.1
		c0.1,0,0.2,0.1,0.3,0.1c0.8,0.3,1.4,0,1.8-0.8c0.8-1.4,1.6-2.9,2.5-4.3c0.6-1,0.7-1.8-0.3-2.5c-2.6-1.9-2.9-4.3-1.9-7.1
		C51.4,30.2,51.8,29.5,52.2,29.4z M45.8,28.8c-0.3,6.6-4.4,12.4-10.2,15.2c-2.3,1.1-5,1.8-7.7,1.8c-1.8,0-3.6-0.3-5.2-0.8
		c-2.8-0.9-5.3-2.4-7.3-4.4c-1-1-1.9-2.1-2.7-3.4c-0.2-0.4-0.5-0.8-0.7-1.2c-0.1-0.1-0.1-0.2-0.1-0.3c-0.1-0.3-0.2-0.5-0.4-0.8
		c-0.1-0.3-0.2-0.5-0.3-0.8c-0.1-0.3-0.2-0.5-0.3-0.8c-0.3-1.1-0.6-2.3-0.7-3.4c0-0.3,0-0.6-0.1-0.9c0-0.3,0-0.7,0-1
		c0.2-9.7,8.2-17.7,17.8-17.7c9.5,0,17.4,7.6,17.9,16.9c0,0.3,0,0.5,0,0.8C45.8,28.2,45.8,28.5,45.8,28.8z"/>
	<path class="st0" d="M31.1,25.2c1.8-1.9,2.9-4,2.8-6.7c0-0.6,0-1.3-0.1-1.9c-0.4-2.4-2.5-4.1-5.2-4.2c-3.1-0.1-5.5,1.4-6,3.9
		c-0.8,3.4,0,6.5,2.6,9C26.9,27.1,29.4,27,31.1,25.2z"/>
	<path class="st0" d="M29.4,33.4c-0.2-0.6-0.4-1.1-0.7-1.5c-0.5,0-0.9,0-1.4,0c-0.2,0.4-0.4,0.9-0.6,1.5c-0.9,3.1,0.2,6.7,1.2,6.7
		C28.9,40.2,30.4,36.5,29.4,33.4z"/>
	<path class="st0" d="M27,28.5c-0.2,0.3-0.2,0.6-0.3,0.9c0,0.3-0.1,0.9,0.3,1.3c0.5,0.5,1.5,0.5,2,0c0.3-0.3,0.3-0.8,0.3-1
		c0-0.2,0-0.8-0.4-1.2C28.5,27.9,27.5,28,27,28.5z"/>
	<g>
		<path class="st0" d="M24.4,33.9c0.1-2.5,1.3-4.3,0.3-5.2c-0.6-0.6-1.8-0.5-2.8-0.4c-0.7,0.1-2,0.2-3,1.1c-1.5,1.4-1.5,3.7-1.4,7.1
			c0,1.1,0,1.9,0.1,2.5c0,0.6,0.1,1,0.3,1.3c0,3.2,8.6,3.5,9.5,3.6c0.2,0,0.4,0,0.5,0v-2.5C26.3,41.2,24.3,37.4,24.4,33.9z"/>
		<path class="st0" d="M36.9,29.4c-1-0.9-2.3-1-3-1.1c-1-0.1-2.2-0.2-2.8,0.4c-1,1,0.2,2.7,0.3,5.2c0.1,3.5-1.9,7.3-3.6,7.5v2.5
			c0.1,0,0.3,0,0.5,0c1-0.1,9.5-0.4,9.5-3.6c0.2-0.3,0.3-0.7,0.3-1.3c0.1-0.6,0.1-1.4,0.1-2.5C38.4,33,38.5,30.7,36.9,29.4z"/>
	</g>
</g>
</svg>
