<?xml version="1.0" encoding="utf-8"?>
<!-- Generator: Adobe Illustrator 24.3.0, SVG Export Plug-In . SVG Version: 6.00 Build 0)  -->
<svg version="1.1" id="Camada_1" xmlns="http://www.w3.org/2000/svg" xmlns:xlink="http://www.w3.org/1999/xlink" x="0px" y="0px"
	 viewBox="0 0 56 62.5" style="enable-background:new 0 0 56 62.5;" xml:space="preserve">
<style type="text/css">
	.st0{fill:#FFFFFF;}
	.st1{fill:none;}
</style>
<g>
	<g>
		<path class="st0" d="M55.1,34.3c-1.4-3.7-4.1-5.5-5.2-6.2c-1-0.6-3.2-1.7-6.2-1.7c-2.9,0-5,1-6,1.5c-3.6,2.2-5.7,5.3-6.3,9.5
			c-0.1,0.8-0.3,1.1-1.2,0.9c-1.5-0.3-3-0.4-4.4-0.1c-1,0.2-1.2-0.1-1.3-1c-0.1-1.9-0.8-3.6-1.7-5.2c-2.4-4.4-8.2-7-13.6-5.6
			c-6.3,1.6-10.3,8-9,14.3c1.4,6.5,7.5,10.8,14.1,9.7c0.7-0.1,1.2-0.3,1.2,0.8c0.5,5.5,4.4,10.1,9.7,11.1c5.4,1.1,10.8-1.5,13.4-6.4
			c0.3-0.6,0.5-1.3,0.8-1.9c0.2-0.7,0.4-1.4,0.5-2.1c0.1-1,0.3-1.2,1.4-1.1c4.8,0.8,8.9-0.6,11.9-4.5C56.2,42.7,56.7,38.6,55.1,34.3
			z M50.8,44.2c-2.6,3.4-7,4.4-10.9,2.7c-0.3-0.1-0.5-0.3-0.8-0.4c-0.7-0.4-1.3-0.4-2,0c-0.7,0.4-0.7,1.1-0.6,1.8
			c0.3,1.7,0.3,3.4-0.3,5.1c-1.6,4.4-6.5,6.8-10.9,5.5C20.7,57.5,18,53,19,48.4c0.2-0.8,0.3-1.6-0.5-2.2c-0.8-0.6-1.5-0.3-2.3,0.1
			c-4.6,2.2-9.9,0.4-12-4.1C2.1,37.7,4,32.4,8.6,30.1c1.3-0.6,2.6-0.8,3.8-0.8c5.9,0.2,9.9,5.3,8.6,10.9c-0.2,0.8-0.1,1.6,0.6,2.1
			c0.7,0.6,1.5,0.3,2.2,0c2.8-1.4,5.6-1.4,8.3,0.1c0.7,0.4,1.5,0.6,2.2,0.1c0.8-0.5,0.7-1.3,0.6-2.1c-0.9-4.4,1.7-8.2,4.9-9.8
			c3.7-1.8,8.3-0.8,10.9,2.4C53.3,36.4,53.3,41,50.8,44.2z"/>
		<path class="st0" d="M17.7,42.8c-0.2,1.4-1.8,2-3.1,2.4c-2.8,0.9-5.2,0.3-7.4-1.6c-0.5-0.5-0.6-1-0.4-1.6c0.6-1.7,1.7-2.9,3.3-3.6
			c-0.1-0.5-0.4-0.6-0.6-0.9c-1.2-1.4-1.2-3.5,0.1-4.9c1.3-1.3,3.5-1.4,4.9-0.2c1.4,1.2,1.7,3.4,0.5,4.8c-0.8,0.9-0.7,1.3,0.3,1.8
			C16.8,39.8,17.9,41.2,17.7,42.8z"/>
		<path class="st0" d="M33,55.3c-1.3,1.3-3.1,2-5.1,2c-1.9,0-3.6-0.7-5-2c-0.5-0.5-0.7-0.9-0.4-1.6c0.5-1.4,1.3-2.6,2.6-3.3
			c0.7-0.4,0.9-0.6,0.2-1.2c-1.1-1.1-1.3-2.5-0.7-3.9c0.6-1.4,1.8-2.1,3.4-2.1c1.6,0.1,2.6,0.9,3.2,2.3c0.5,1.4,0.3,2.7-0.8,3.7
			c-0.5,0.5-0.7,0.8,0.1,1.2c1.4,0.7,2.1,1.9,2.7,3.3C33.6,54.4,33.4,54.8,33,55.3z"/>
		<path class="st0" d="M48.7,43.5c-2.7,2.7-7.3,2.7-10.1,0.1c-0.6-0.5-0.7-1-0.4-1.7c0.6-1.3,1.3-2.5,2.6-3.1
			c0.9-0.4,0.9-0.8,0.1-1.3c-0.9-1.3-1.2-3.2-0.5-4.2c0.8-1.1,2-2.3,4.2-1.7c3,1.3,3.4,3.7,1,6.6c1.7,0.8,2.8,2,3.4,3.7
			C49.2,42.6,49.1,43.1,48.7,43.5z"/>
	</g>
	<path class="st0" d="M39.7,7.5c-1.5-3.5-4.2-5.3-5.3-5.9C33.3,1,31.1,0,28.2,0s-5,1-6,1.6c-1.9,1.1-3.3,2.6-4.4,4.2
		c-0.6,1-1.6,2.9-1.8,5.3c-0.3,3.7,1.1,8,4.5,10.7l0.4-0.8c0.2-0.3,0.6-0.5,1-0.3l0.5,0.2c0.3,0.2,0.5,0.6,0.3,1l-0.5,1
		c1.9,1.1,3.8,1.5,5.4,1.6v-1.8c0-0.4,0.3-0.7,0.7-0.7h0.5c0.4,0,0.7,0.3,0.7,0.7v1.8c1.2-0.1,2-0.3,2.3-0.4c1.1-0.3,2-0.7,2.8-1.2
		l-0.6-1c-0.2-0.3-0.1-0.8,0.3-1l0.5-0.2c0.3-0.2,0.8-0.1,1,0.3l0.4,0.8c1-0.9,1.7-1.7,2.1-2.2c1.6-2.1,2.1-4.3,2.2-5
		C41.2,11.2,40.2,8.5,39.7,7.5z M37.1,15.2c-0.8,2.9-3.1,5.3-6,6.2c-2.9,0.9-5.3,0.1-6-0.2c-2-0.7-3.2-2-3.8-2.6
		c-0.4-0.5-1.7-2.1-2.1-4.4c-0.6-3.5,1.1-7.6,4.6-9.6c3.1-1.8,6.3-1,6.8-0.9c0.7,0.2,2.9,0.8,4.6,2.9C35.5,7,36.4,8.2,37,9.9
		C37.2,10.6,37.8,12.7,37.1,15.2z"/>
	<path class="st0" d="M33.1,17.4c-2.7,2.7-7.3,2.7-10.1,0.1c-0.6-0.5-0.7-1-0.4-1.7c0.6-1.3,1.3-2.5,2.6-3.1
		c0.9-0.4,0.9-0.8,0.1-1.3c-0.9-1.3-1.2-3.2-0.5-4.2c0.8-1.1,2-2.3,4.2-1.7c3,1.3,3.4,3.7,1,6.6c1.7,0.8,2.8,2,3.4,3.7
		C33.6,16.5,33.6,17,33.1,17.4z"/>
	<path class="st0" d="M16.7,16.2"/>
	<g>
		<path class="st0" d="M22.7,22l-0.5,1c-0.1-0.1-0.2-0.1-0.3-0.2c-0.5-0.3-0.9-0.6-1.3-0.9l0.4-0.8c0.2-0.3,0.6-0.5,1-0.3l0.5,0.2
			C22.8,21.2,22.9,21.7,22.7,22z"/>
		<path class="st0" d="M22.2,23l-2.1,3.9c-0.2,0.3-0.6,0.5-1,0.3L18.6,27c-0.3-0.2-0.5-0.6-0.3-1l2.2-4.1c0.4,0.3,0.8,0.6,1.3,0.9
			C22,22.9,22.1,22.9,22.2,23z"/>
		<path class="st0" d="M29.5,22.8v1.8c-0.6,0-1.2,0.1-2,0v-1.8c0-0.4,0.3-0.7,0.7-0.7h0.5C29.2,22.1,29.5,22.4,29.5,22.8z"/>
		<path class="st0" d="M29.5,24.6v9.9c0,0.4-0.3,0.7-0.7,0.7h-0.5c-0.4,0-0.7-0.3-0.7-0.7v-9.8C28.3,24.7,28.9,24.6,29.5,24.6z"/>
		<path class="st0" d="M36.2,21.8c-0.5,0.4-1,0.8-1.6,1.1l-0.6-1c-0.2-0.3-0.1-0.8,0.3-1l0.5-0.2c0.3-0.2,0.8-0.1,1,0.3L36.2,21.8z"
			/>
		<path class="st0" d="M38.1,26.9l-0.5,0.2c-0.3,0.2-0.8,0.1-1-0.3l-2-3.8c0.6-0.4,1.1-0.8,1.6-1.1l2.2,4.1
			C38.6,26.2,38.5,26.7,38.1,26.9z"/>
	</g>
	<line class="st1" x1="22.2" y1="20.9" x2="28.5" y2="22.1"/>
	<line class="st1" x1="34.7" y1="20.9" x2="28.4" y2="22.1"/>
</g>
</svg>
