<?xml version="1.0" encoding="utf-8"?>
<!-- Generator: Adobe Illustrator 25.2.3, SVG Export Plug-In . SVG Version: 6.00 Build 0)  -->
<svg version="1.1" id="Camada_1" xmlns="http://www.w3.org/2000/svg" xmlns:xlink="http://www.w3.org/1999/xlink" x="0px" y="0px"
	 viewBox="0 0 100 100" style="enable-background:new 0 0 100 100;" xml:space="preserve">
<style type="text/css">
	.st0{fill:#FFFFFF;}
</style>
<g>
	<path class="st0" d="M49.9,85c-13.2,0-26.3,0-39.5,0c-5.8,0-9.5-3.1-9.5-9C0.8,59.5,0.9,43.1,0.9,26.6c0-3.1,1.5-2.1,3.1-1.2
		c14.1,8.4,28.3,16.7,42.3,25.3c2.8,1.7,4.8,1.6,7.6,0c13.9-8.3,28-16.5,42.1-24.7c3.1-1.8,3.2-1.7,3.2,1.9c0,15.6,0,31.2,0,46.7
		c0,7.1-3.2,10.2-10.3,10.2C75.9,85,62.9,85,49.9,85z"/>
	<path class="st0" d="M50,15.1c12.9,0,25.7,0,38.6,0c2.7,0,5.2,0.3,7.3,2.2c1.4,1.2,1.7,2.2-0.2,3.3C81,29.1,66.3,37.7,51.6,46.3
		c-1.2,0.7-2.3,0.7-3.5,0C33.5,37.5,18.9,28.8,4.3,20.1c-1.7-1-1.6-1.9-0.2-3c2.1-1.8,4.5-2,7.1-2C24.1,15.1,37,15.1,50,15.1z"/>
</g>
</svg>
