<?xml version="1.0" encoding="utf-8"?>
<!-- Generator: Adobe Illustrator 25.2.3, SVG Export Plug-In . SVG Version: 6.00 Build 0)  -->
<svg version="1.1" id="Camada_1" xmlns="http://www.w3.org/2000/svg" xmlns:xlink="http://www.w3.org/1999/xlink" x="0px" y="0px"
	 viewBox="0 0 100 100" style="enable-background:new 0 0 100 100;" xml:space="preserve">
<style type="text/css">
	.st0{fill:#FFFFFF;}
</style>
<g>
	<path class="st0" d="M50.2,98.4c-7.6,0-14.6-1.6-21.2-4.7c-0.5-0.2-0.9-0.3-1.4-0.2c-3.6,0.9-7.2,1.7-10.7,2.6c-4.2,1-8.3,2-12.5,3
		c-0.4,0.1-0.8,0.2-1.3,0.2c-1.1-0.1-1.8-0.8-1.8-1.9c0-0.5,0.1-1,0.3-1.5C3.2,88,4.7,80.3,6.3,72.6c0.1-0.6,0.1-1.1-0.2-1.6
		c-2-4.2-3.4-8.6-4.2-13.2c-1.3-7.6-0.8-15,1.4-22.4c2.1-6.9,5.6-13,10.4-18.4C19.6,10.6,26.6,6,34.9,3.2c5.9-1.9,11.9-2.7,18-2.3
		c9.6,0.6,18.3,3.7,26,9.4c6.3,4.6,11.2,10.5,14.8,17.5c2.6,5.2,4.2,10.7,4.8,16.4c1,9-0.4,17.6-4.2,25.9
		c-2.7,5.8-6.4,10.9-11.1,15.2c-6.5,6-14.1,10.1-22.8,12C56.9,98,53.5,98.4,50.2,98.4z M49.9,87.7c2.4-0.1,5.2-0.2,7.9-0.8
		c4.1-0.9,8.1-2.4,11.7-4.6c3.9-2.4,7.3-5.3,10.1-8.9c2.7-3.3,4.7-7,6.2-11.1c1.1-3.1,1.8-6.3,2.1-9.5c0.3-3.1,0.1-6.2-0.4-9.3
		c-1.1-6.7-3.8-12.8-8-18c-3.5-4.3-7.8-7.8-12.9-10.2c-6.5-3.2-13.4-4.3-20.5-3.6c-5.4,0.5-10.5,2.2-15.2,4.9
		c-5.7,3.3-10.2,7.8-13.6,13.4c-3.8,6.4-5.6,13.3-5.4,20.8c0.2,6.6,2.1,12.7,5.3,18.4c0.4,0.7,0.5,1.3,0.3,2.1
		c-1,4.5-1.9,8.9-2.8,13.4c-0.1,0.6-0.1,0.9,0.7,0.7c3.7-0.9,7.4-1.6,11-2.6c2.2-0.6,4-0.5,6,0.6C37.7,86.3,43.5,87.7,49.9,87.7z"/>
	<path class="st0" d="M63,73.4c-4.4,0-8.2-1.2-11.9-3c-6.2-3.1-11.5-7.5-16.2-12.6c-3.2-3.4-6-7.2-7.8-11.5c-1-2.5-1.7-5.2-1.7-7.9
		c-0.1-3.3,1.1-6.1,3.3-8.5c0.8-1,1.8-1.8,2.7-2.7c1.9-1.7,4.5-1.4,5.7,0.9c1,2,1.9,4,2.8,6.1c0.5,1,0.9,2.1,1.3,3.1
		c0.5,1.1,0.4,2.3-0.3,3.3c-0.6,0.8-1.2,1.7-1.8,2.5c-1.3,1.6-1.4,3.1-0.2,4.7c1.6,2.3,3.5,4.4,5.6,6.3c2.3,2.1,4.6,4.1,7.2,5.8
		c0.8,0.5,1.7,1.1,2.6,1.5c1.6,0.7,3,0.5,4.3-0.7c0.6-0.6,1.3-1.2,1.9-1.9c1.2-1.3,2.6-1.6,4.2-1.1c2.9,0.9,5.9,1.7,8.8,2.6
		c2.6,0.8,3.5,3.4,2,5.6c-1.3,1.9-2.7,3.7-4.4,5.2C68.7,72.9,65.8,73.4,63,73.4z"/>
</g>
</svg>
