<?xml version="1.0" encoding="utf-8"?>
<!-- Generator: Adobe Illustrator 24.3.0, SVG Export Plug-In . SVG Version: 6.00 Build 0)  -->
<svg version="1.1" id="Camada_1" xmlns="http://www.w3.org/2000/svg" xmlns:xlink="http://www.w3.org/1999/xlink" x="0px" y="0px"
	 viewBox="0 0 56 48.4" style="enable-background:new 0 0 56 48.4;" xml:space="preserve">
<style type="text/css">
	.st0{fill:#FFFFFF;}
</style>
<g>
	<path class="st0" d="M28,48.4c-6.5,0-13,0-19.5,0c-2.9,0-5.3-1.2-7-3.6c-1.9-2.7-2-5.5-0.4-8.3c3.1-5.3,6.3-10.5,9.4-15.7
		c3.3-5.5,6.6-11,9.9-16.5c3.5-5.7,11.6-5.7,15,0c4.6,7.7,9.2,15.3,13.8,22.9c1.9,3.2,3.9,6.4,5.7,9.6c1.7,3.1,0.9,7.1-1.8,9.4
		c-1.7,1.4-3.7,2.1-5.9,2.1C41,48.4,34.5,48.4,28,48.4z M28,43.3c5.8,0,11.6,0,17.4,0c0.9,0,1.9,0,2.8,0c2.2-0.1,3.4-2.5,2.3-4.3
		c-2.5-4.2-5.1-8.4-7.6-12.6C39,19.9,35.2,13.5,31.3,7.1c-1.6-2.7-5-2.6-6.7,0c-0.7,1.1-1.3,2.2-2,3.3c-3.8,6.4-7.7,12.7-11.5,19.1
		c-1.9,3.1-3.8,6.2-5.6,9.4C4.8,40.2,5,41.3,6,42.3c0.8,0.8,1.7,0.9,2.7,0.9C15.1,43.3,21.6,43.3,28,43.3z"/>
	<path class="st0" d="M30.5,22.9c0,1.7,0,3.3,0,5c0,1.5-1.1,2.6-2.5,2.6c-1.4,0-2.5-1.1-2.5-2.6c0-1.8,0-3.6,0-5.4
		c0-1.6,0-3.1,0-4.7c0-1.1,0.5-1.9,1.6-2.3c1.1-0.4,2-0.2,2.8,0.6c0.5,0.5,0.7,1.2,0.7,1.9C30.5,19.6,30.5,21.2,30.5,22.9
		C30.5,22.9,30.5,22.9,30.5,22.9z"/>
	<path class="st0" d="M28,33.2c1.2-0.1,2.5,1,2.5,2.5c0,1.4-1.1,2.5-2.5,2.5c-1.4,0-2.5-1.1-2.5-2.5C25.5,34.2,26.7,33,28,33.2z"/>
</g>
</svg>
