<?xml version="1.0" encoding="utf-8"?>
<!-- Generator: Adobe Illustrator 24.3.0, SVG Export Plug-In . SVG Version: 6.00 Build 0)  -->
<svg version="1.1" id="Camada_1" xmlns="http://www.w3.org/2000/svg" xmlns:xlink="http://www.w3.org/1999/xlink" x="0px" y="0px"
	 viewBox="0 0 322.2 322.2" style="enable-background:new 0 0 322.2 322.2;" xml:space="preserve">
<style type="text/css">
	.st0{fill:#F4EDAE;enable-background:new    ;}
	.st1{fill:#FFFFFF;}
	.st2{fill:#7C007B;}
	.st3{fill:#FF5DFB;}
	.st4{fill:#FF6B75;}
	.st5{fill:#FFF88C;}
	.st6{fill:#00F6D8;}
</style>
<circle class="st0" cx="161.1" cy="161.1" r="161.1"/>
<g>
	<g>
		<g>
			<path class="st1" d="M253.4,303H125.2c-9.8,0-17.8-8-17.8-17.8V115.8c0-9.8,8-17.8,17.8-17.8h128.1c9.8,0,17.8,8,17.8,17.8v169.4
				C271.2,295,263.2,303,253.4,303z"/>
			<path class="st2" d="M253.4,305.6H125.2c-11.2,0-20.3-9.1-20.3-20.3V115.8c0-11.2,9.1-20.3,20.3-20.3h128.1
				c11.2,0,20.3,9.1,20.3,20.3v169.4C273.8,296.5,264.6,305.6,253.4,305.6z M125.2,100.7c-8.4,0-15.2,6.8-15.2,15.2v169.4
				c0,8.4,6.8,15.2,15.2,15.2h128.1c8.4,0,15.2-6.8,15.2-15.2V115.8c0-8.4-6.8-15.2-15.2-15.2L125.2,100.7L125.2,100.7z"/>
		</g>
		<g>
			<g>
				<path d="M179.7,184.3h-46.6c-1.4,0-2.6-1.2-2.6-2.6v-46.6c0-1.4,1.2-2.6,2.6-2.6h46.6c1.4,0,2.6,1.2,2.6,2.6v46.6
					C182.3,183.1,181.2,184.3,179.7,184.3z M135.7,179.1h41.4v-41.4h-41.4C135.7,137.7,135.7,179.1,135.7,179.1z"/>
			</g>
			<g>
				<path d="M245.5,137.7h-37c-1.4,0-2.6-1.2-2.6-2.6c0-1.4,1.2-2.6,2.6-2.6h37c1.4,0,2.6,1.2,2.6,2.6S247,137.7,245.5,137.7z"/>
			</g>
			<g>
				<path d="M245.5,160.6h-37c-1.4,0-2.6-1.2-2.6-2.6s1.2-2.6,2.6-2.6h37c1.4,0,2.6,1.2,2.6,2.6S247,160.6,245.5,160.6z"/>
			</g>
			<g>
				<path d="M245.5,184.3h-37c-1.4,0-2.6-1.2-2.6-2.6s1.2-2.6,2.6-2.6h37c1.4,0,2.6,1.2,2.6,2.6S247,184.3,245.5,184.3z"/>
			</g>
		</g>
		<g>
			<path d="M239.2,221.3h-99.9c-1.4,0-2.6-1.2-2.6-2.6c0-1.4,1.2-2.6,2.6-2.6h99.9c1.4,0,2.6,1.2,2.6,2.6
				C241.8,220.1,240.7,221.3,239.2,221.3z"/>
		</g>
		<g>
			<path class="st3" d="M239.2,240.5h-99.9c-1.4,0-2.6-1.2-2.6-2.6s1.2-2.6,2.6-2.6h99.9c1.4,0,2.6,1.2,2.6,2.6
				S240.7,240.5,239.2,240.5z"/>
		</g>
	</g>
	<g>
		<g>
			<path class="st1" d="M197.2,265.3H69c-9.8,0-17.8-8-17.8-17.8V78.1c0-9.8,8-17.8,17.8-17.8h128.1c9.8,0,17.8,8,17.8,17.8v169.4
				C215,257.3,207,265.3,197.2,265.3z"/>
			<path class="st2" d="M197.2,267.9H69c-11.2,0-20.3-9.1-20.3-20.3V78.1c0-11.2,9.1-20.3,20.3-20.3h128.1
				c11.2,0,20.3,9.1,20.3,20.3v169.4C217.6,258.8,208.4,267.9,197.2,267.9z M69,62.9c-8.4,0-15.2,6.8-15.2,15.2v169.4
				c0,8.4,6.8,15.2,15.2,15.2h128.1c8.4,0,15.2-6.8,15.2-15.2V78.1c0-8.4-6.8-15.2-15.2-15.2C197.1,62.9,69,62.9,69,62.9z"/>
		</g>
		<g>
			<g>
				<path class="st4" d="M138.4,252.3c-0.7,0-1.5-0.3-2.1-0.9l-18.7-19.2c-1.1-1.1-1.1-3,0.1-4.1c1.1-1.1,3-1.1,4.1,0.1l18.7,19.2
					c1.1,1.1,1.1,3-0.1,4.1C139.9,252,139.2,252.3,138.4,252.3z"/>
			</g>
			<g>
				<path class="st4" d="M119.8,252.3c-0.7,0-1.4-0.3-2-0.8c-1.1-1.1-1.2-2.9-0.1-4.1l18.7-19.2c1.1-1.1,2.9-1.2,4.1-0.1
					c1.1,1.1,1.2,2.9,0.1,4.1l-18.7,19.2C121.3,252,120.5,252.3,119.8,252.3z"/>
			</g>
		</g>
		<g>
			<g>
				<path class="st5" d="M123.5,146.5H76.9c-1.4,0-2.6-1.2-2.6-2.6V97.3c0-1.4,1.2-2.6,2.6-2.6h46.6c1.4,0,2.6,1.2,2.6,2.6V144
					C126.1,145.4,125,146.5,123.5,146.5z M93.1,141.4H121V99.9H79.5v27.8C79.5,135.2,85.6,141.4,93.1,141.4z"/>
			</g>
			<g>
				<path d="M189.3,99.9h-37c-1.4,0-2.6-1.2-2.6-2.6s1.2-2.6,2.6-2.6h37c1.4,0,2.6,1.2,2.6,2.6C191.9,98.8,190.8,99.9,189.3,99.9z"
					/>
			</g>
			<g>
				<path d="M189.3,122.9h-37c-1.4,0-2.6-1.2-2.6-2.6s1.2-2.6,2.6-2.6h37c1.4,0,2.6,1.2,2.6,2.6
					C191.9,121.7,190.8,122.9,189.3,122.9z"/>
			</g>
			<g>
				<path d="M189.3,146.5h-37c-1.4,0-2.6-1.2-2.6-2.6s1.2-2.6,2.6-2.6h37c1.4,0,2.6,1.2,2.6,2.6S190.8,146.5,189.3,146.5z"/>
			</g>
		</g>
		<g>
			<path class="st3" d="M183,183.5H83.2c-1.4,0-2.6-1.2-2.6-2.6s1.2-2.6,2.6-2.6H183c1.4,0,2.6,1.2,2.6,2.6S184.5,183.5,183,183.5z"
				/>
		</g>
		<g>
			<path class="st3" d="M183,202.8H83.2c-1.4,0-2.6-1.2-2.6-2.6s1.2-2.6,2.6-2.6H183c1.4,0,2.6,1.2,2.6,2.6S184.5,202.8,183,202.8z"
				/>
		</g>
	</g>
	<g>
		<g>
			<path class="st1" d="M241.5,223.1H113.4c-9.8,0-17.8-8-17.8-17.8V35.9c0-9.8,8-17.8,17.8-17.8h128.1c9.8,0,17.8,8,17.8,17.8
				v169.4C259.4,215.1,251.4,223.1,241.5,223.1z"/>
			<path class="st2" d="M241.5,225.7H113.4c-11.2,0-20.3-9.1-20.3-20.3V35.9c0-11.2,9.1-20.3,20.3-20.3h128.1
				c11.2,0,20.3,9.1,20.3,20.3v169.4C262,216.6,252.8,225.7,241.5,225.7z M113.4,20.8c-8.4,0-15.2,6.8-15.2,15.2v169.4
				c0,8.4,6.8,15.2,15.2,15.2h128.1c8.4,0,15.2-6.8,15.2-15.2V35.9c0-8.4-6.8-15.2-15.2-15.2L113.4,20.8L113.4,20.8z"/>
		</g>
		<g>
			<g>
				<path class="st5" d="M167.9,104.4h-46.6c-1.4,0-2.6-1.2-2.6-2.6V55.2c0-1.4,1.2-2.6,2.6-2.6h46.6c1.4,0,2.6,1.2,2.6,2.6v46.6
					C170.4,103.2,169.3,104.4,167.9,104.4z M139.4,99.2h25.9V57.8h-41.4v25.9C123.8,92.2,130.8,99.2,139.4,99.2z"/>
			</g>
			<g>
				<path class="st3" d="M233.7,57.8h-37c-1.4,0-2.6-1.2-2.6-2.6s1.2-2.6,2.6-2.6h37c1.4,0,2.6,1.2,2.6,2.6S235.2,57.8,233.7,57.8z"
					/>
			</g>
			<g>
				<path class="st3" d="M233.7,80.7h-37c-1.4,0-2.6-1.2-2.6-2.6s1.2-2.6,2.6-2.6h37c1.4,0,2.6,1.2,2.6,2.6S235.2,80.7,233.7,80.7z"
					/>
			</g>
			<g>
				<path class="st3" d="M233.7,104.4h-37c-1.4,0-2.6-1.2-2.6-2.6s1.2-2.6,2.6-2.6h37c1.4,0,2.6,1.2,2.6,2.6
					C236.3,103.2,235.2,104.4,233.7,104.4z"/>
			</g>
		</g>
		<g>
			<path class="st3" d="M227.4,141.4h-99.9c-1.4,0-2.6-1.2-2.6-2.6s1.2-2.6,2.6-2.6h99.9c1.4,0,2.6,1.2,2.6,2.6
				S228.9,141.4,227.4,141.4z"/>
		</g>
		<g>
			<path class="st3" d="M227.4,160.6h-99.9c-1.4,0-2.6-1.2-2.6-2.6s1.2-2.6,2.6-2.6h99.9c1.4,0,2.6,1.2,2.6,2.6
				S228.9,160.6,227.4,160.6z"/>
		</g>
		<g>
			<path class="st6" d="M173.4,201.9c-0.7,0-1.5-0.3-2-0.9l-9.6-11c-1-1.1-0.8-2.7,0.3-3.7s2.7-0.8,3.7,0.3l7.9,9.1l15.8-12.8
				c1.1-0.9,2.8-0.7,3.7,0.4c0.9,1.1,0.7,2.8-0.4,3.7L175,201.4C174.6,201.7,174,201.9,173.4,201.9z"/>
		</g>
	</g>
</g>
</svg>
