<?xml version="1.0" encoding="utf-8"?>
<!-- Generator: Adobe Illustrator 24.3.0, SVG Export Plug-In . SVG Version: 6.00 Build 0)  -->
<svg version="1.1" id="Camada_1" xmlns="http://www.w3.org/2000/svg" xmlns:xlink="http://www.w3.org/1999/xlink" x="0px" y="0px"
	 viewBox="0 0 58.4 49.3" style="enable-background:new 0 0 58.4 49.3;" xml:space="preserve">
<style type="text/css">
	.st0{fill:#FFFFFF;}
	.st1{fill:none;stroke:#FFFFFF;stroke-width:2;stroke-miterlimit:10;}
</style>
<g>
	<path class="st0" d="M53.9,24.1h-3.2c-0.2-5.4-2.3-10.3-6.6-14.4C40.4,6.2,35.9,4,30.7,3.3C19.8,1.8,9.6,7.1,5.3,16.1
		C1,25.2,4.1,35.7,12.6,41.8c7.9,5.7,20.3,6.2,29.3-0.3v3.8c-11.1,6.7-26.5,4.9-35.4-4.6c-8.3-9-8.5-21.4-1.4-30.4
		c7-8.8,18.1-11.8,28.2-9.6c10.6,2.2,18.6,10.1,20.3,19.8C53.8,21.7,53.9,22.9,53.9,24.1z"/>
	<path class="st0" d="M25.9,38.5c-0.1-0.8,0.2-1.7-0.2-2.2c-0.4-0.5-1.4-0.4-2.1-0.7c-2.7-1-4.6-2.7-5.4-5.4
		c-0.1-0.2-0.1-0.4-0.1-0.6c-0.2-0.7,0.1-0.9,0.9-0.9c0.3,0,0.5,0,0.8,0c0.6,0,1.3-0.1,1.7,0.1c0.4,0.2,0.5,0.8,0.7,1.3
		c1,2.1,4.1,3.3,6.9,2.6c0.3-0.1,0.6-0.2,0.9-0.3c1-0.4,1.7-1.1,1.8-2.2c0-1.1-0.6-1.8-1.6-2.3c-2.6-1.3-5.1-2.5-7.7-3.7
		c-4.2-2-4.5-7.2-0.5-9.6c1-0.6,2.2-0.9,3.4-1.3c0.4-0.1,0.6-0.3,0.6-0.7c0-0.7,0-1.3,0-2c1,0,1.8,0,2.7,0c0,0.6,0,1.2,0,1.7
		c-0.1,0.6,0.2,0.8,0.8,1c3.3,0.7,5.6,2.5,6.5,5.6c0.5,1.6,0.4,1.7-1.5,1.7c-0.2,0-0.4,0-0.6,0c-1.3,0-1.3,0-1.7-1.1
		c-0.4-1.3-1.3-2.2-2.7-2.7c-1.7-0.6-3.3-0.5-4.9,0.2c-1,0.4-1.6,1.2-1.6,2.2c0,1,0.6,1.7,1.5,2.2c2.6,1.2,5.1,2.4,7.6,3.7
		c2.7,1.3,4,3.9,3.3,6.3c-0.6,2.1-2.2,3.3-4.3,4.1c-0.8,0.3-1.6,0.4-2.5,0.7c0,0.7,0,1.4,0,2.2C27.6,38.5,26.8,38.5,25.9,38.5z"/>
	<path class="st1" d="M45.6,28.6c2.7,0,5.3,0,7.9,0c0,2.9,0,5.8,0,8.8c0.9,0,1.6,0,2.5,0c-2.2,2.2-4.3,4.4-6.5,6.6
		c-2.2-2.2-4.3-4.3-6.5-6.5c0.9,0,1.7,0,2.5,0C45.6,34.4,45.6,31.5,45.6,28.6z"/>
</g>
</svg>
