<?xml version="1.0" encoding="utf-8"?>
<!-- Generator: Adobe Illustrator 24.3.0, SVG Export Plug-In . SVG Version: 6.00 Build 0)  -->
<svg version="1.1" id="Camada_1" xmlns="http://www.w3.org/2000/svg" xmlns:xlink="http://www.w3.org/1999/xlink" x="0px" y="0px"
	 viewBox="0 0 56 65.5" style="enable-background:new 0 0 56 65.5;" xml:space="preserve">
<style type="text/css">
	.st0{fill:#FFFFFF;}
</style>
<g>
	<path class="st0" d="M45,9.3C42.3,5.2,38.5,2.5,33.9,1c-1.6-0.5-3.4-0.6-5.1-1h-0.1h-2.8c-1.4,0.2-2.8,0.5-4.1,0.8
		c-3.8,0.9-7.1,2.9-9.9,5.7c-3,3-4.9,6.6-5.7,10.7c-1,5.2-0.2,10.3,2.5,14.9c1.1,2,2.5,3.7,4.2,5.2c0.2,0.2,0.3,0.7,0.3,1
		c-0.3,7.4-0.6,14.9-0.9,22.3c-0.1,1.7,0.5,2.9,2.1,3.6c0.2,0.1,0.4,0.2,0.7,0.2c0.3,0,0.6-0.1,0.8-0.2c2-1.6,4-3.3,6-5
		c1.8-1.5,3.5-3,5.4-4.6c3.8,3.2,7.4,6.5,11.2,9.5c0.2,0.1,0.5,0.1,0.8,0.2c0.4,0,0.7-0.1,0.9-0.1c0.3-0.2,0.8-0.4,1.2-0.8
		c0.7-0.6,1-1.4,0.9-2.3c-0.2-4.7-0.4-9.6-0.6-14.3c-0.2-2.9-0.2-5.9-0.4-8.8c0-0.2,0.2-0.5,0.3-0.7c3.4-3.1,5.7-7,6.7-11.6
		C49.6,19.8,48.5,14.3,45,9.3z M37.5,57.7c-2.6-2.3-5.3-4.5-7.9-6.8c-1.5-1.3-2.8-1.3-4.3,0c-2.6,2.3-5.3,4.5-7.9,6.8
		c-0.2,0.2-0.3,0.2-0.6,0.5c0.2-6,0.5-11.8,0.8-17.8c3.2,1.6,6.4,2.5,9.9,2.5s6.7-0.8,9.9-2.5c0.2,6,0.5,11.8,0.8,17.8
		C37.8,58,37.6,57.8,37.5,57.7z M30.2,38.4c-10.7,1.7-20-6.7-20-17.1c0-9.5,7.7-17.2,17.2-17.2c10.5,0,18.8,9.3,17,20
		C43.2,31.5,37.5,37.3,30.2,38.4z"/>
	<path class="st0" d="M24.7,24.1c2.3-2.3,4.7-4.7,7-7c0.7-0.7,1.3-1.4,2-2c1-0.9,2.2-0.9,3.1-0.1c0.8,0.8,0.8,2.1-0.1,3.1
		c-3.5,3.5-7,7-10.5,10.5c-1,1-2.2,1-3.2,0c-1.9-1.9-3.8-3.8-5.7-5.7c-0.8-0.8-0.8-2.1,0-3s2.1-0.8,3,0
		C21.8,21.2,23.2,22.7,24.7,24.1z"/>
</g>
</svg>
