<?xml version="1.0" encoding="utf-8"?>
<!-- Generator: Adobe Illustrator 24.3.0, SVG Export Plug-In . SVG Version: 6.00 Build 0)  -->
<svg version="1.1" id="Camada_1" xmlns="http://www.w3.org/2000/svg" xmlns:xlink="http://www.w3.org/1999/xlink" x="0px" y="0px"
	 viewBox="0 0 100 100" style="enable-background:new 0 0 100 100;" xml:space="preserve">
<style type="text/css">
	.st0{fill:#FFFFFF;}
</style>
<g>
	<path class="st0" d="M94.8,89.2H5.2c-1.6,0-3-1.3-3-3v-12c0-1.1,0.9-2,2-2h91.6c1.1,0,2,0.9,2,2v12C97.7,87.9,96.4,89.2,94.8,89.2z
		"/>
	<g>
		<path class="st0" d="M81.5,10.8h-63c-4.5,0-8.1,3.7-8.1,8.1v42.7c0,4.5,3.7,8.1,8.1,8.1h63c4.5,0,8.1-3.7,8.1-8.1V18.9
			C89.6,14.5,86,10.8,81.5,10.8z M80.1,52.8c0,4.5-3.7,8.1-8.1,8.1H28c-4.5,0-8.1-3.7-8.1-8.1v-25c0-4.5,3.7-8.1,8.1-8.1h44
			c4.5,0,8.1,3.7,8.1,8.1L80.1,52.8L80.1,52.8L80.1,52.8z"/>
		<g>
			<path class="st0" d="M46.2,53.5L31.2,43v-5.4l15-10.6V34l-9.2,6.3l9.2,6.3L46.2,53.5L46.2,53.5z"/>
			<path class="st0" d="M53.8,27l15,10.5v5.4l-15,10.6v-6.9l9.2-6.3L53.8,34V27z"/>
		</g>
	</g>
</g>
</svg>
