<?xml version="1.0" encoding="utf-8"?>
<!-- Generator: Adobe Illustrator 24.3.0, SVG Export Plug-In . SVG Version: 6.00 Build 0)  -->
<svg version="1.1" id="Camada_1" xmlns="http://www.w3.org/2000/svg" xmlns:xlink="http://www.w3.org/1999/xlink" x="0px" y="0px"
	 viewBox="0 0 66.6 65.6" style="enable-background:new 0 0 66.6 65.6;" xml:space="preserve">
<style type="text/css">
	.st0{fill:#FFFFFF;}
</style>
<g>
	<path class="st0" d="M47.6,54.8c0.1-0.4,0.1-0.7,0.2-1c0.4-1.3,0.1-2.2-1-3c-0.6-0.4-1.1-0.7-1.8-0.3c-0.2,0.1-0.4,0.2-0.6,0.2
		c-1.6,0.4-2.3,0.1-2.7-1.5c-0.1-0.2,0-0.4,0.2-0.6c0.2-0.3,0.4-0.4,0.6-0.6c1.3-0.8,1.7-1.9,1.2-3.3c-0.2-0.4-0.4-0.7-0.6-0.9
		c-0.5-0.3-1.1-0.5-1.6-0.7c-0.7-0.3-0.9-0.6-0.7-1.3c0.4-1.7,0.3-1.7,2.1-1.8c0.5,0,1.3,0.1,1.6-0.2c0.5-0.4,0.9-1.3,1.3-2
		c0.1-0.2,0-0.4-0.1-0.7c-0.3-0.5-0.4-1-0.8-1.5c-0.5-0.8-0.3-1.3,0.4-1.9c1.3-1,1.3-1,2.4,0.1c1.2,1.1,2.4,1.2,3.7,0.3
		c0.2-0.1,0.3-0.4,0.4-0.6c0.2-0.4,0.2-0.9,0.4-1.3c0.4-1.4,1.2-1.8,2.6-1.4c0.2,0.1,0.4,0.3,0.4,0.4c0.1,0.3,0.1,0.5,0.2,0.8
		c0.4,2.2,0.5,2.3,2.7,2.9c0.2,0.1,0.4,0,0.6-0.2c0.3-0.2,0.6-0.4,0.9-0.6c1.5-1.3,1.9-1.3,3.1,0.3c0.2,0.2,0.2,0.5,0.2,0.8
		c0,0.3-0.2,0.5-0.4,0.7c-1.3,1.3-0.6,2.5,0.3,3.7c0.2,0.2,0.5,0.4,0.8,0.4c0.6,0.1,1.2,0.1,1.8,0.1c0.7,0,1.1,0.3,1.2,1.1
		c0.3,1.7,0.4,1.7-1.3,2.4c-1.5,0.6-2,1.3-2,3c0,0.2,0.2,0.4,0.3,0.6c0.4,0.4,0.7,0.6,1,0.9c1.2,1.1,1.1,1.1,0.3,2.4
		c-0.4,0.7-0.8,1-1.6,0.6c-0.2-0.1-0.4-0.1-0.6-0.2c-1.5-1-2.4,0.2-3.4,1c-0.2,0.1-0.2,0.4-0.2,0.6c0,0.4,0.1,0.8,0.2,1.2
		c0.3,1.7-0.3,2.3-2,2.5c-0.3,0-0.5-0.1-0.7-0.3c-0.3-0.3-0.5-0.6-0.6-1c-0.4-1.2-1.3-1.5-2.5-1.4c-0.8,0.1-1.3,0.2-1.6,1
		c-0.1,0.2-0.2,0.4-0.4,0.5c-0.9,1.3-1.8,1.5-3.1,0.5C47.7,55.3,47.7,55,47.6,54.8z M59,43.7c0-3.1-2.6-5.6-5.7-5.6
		c-3.1,0-5.7,2.6-5.7,5.7c0,3.1,2.6,5.6,5.7,5.6C56.5,49.4,59,46.8,59,43.7z"/>
	<path class="st0" d="M12.7,5.5c0,1,0,2,0,3.1c-1.4,0-2.9,0-4.3,0s-2.9,0-4.4,0c0,18,0,35.7,0,53.7c16,0,31.8,0,47.8,0
		c0-0.7,0.1-1.3,0.1-2.1c1.3,0,2.5,0,3.9,0c0,1.3,0.1,2.6-0.1,3.9c-0.1,0.5-1,1-1.7,1.3c-0.4,0.2-1,0.1-1.7,0.1
		c-16.4,0-32.7,0-49.1,0C0.4,65.6,0,65.2,0,63C0,53.7,0,44.4,0,35C0,26,0,17,0,7.9C0,6,0.5,5.5,3.1,5.5C6.2,5.5,9.4,5.5,12.7,5.5z"
		/>
	<path class="st0" d="M22.5,4c1.2-2.8,2.7-4,5.3-4c3.2,0,4.9,1.6,5.6,4c1.3,0,2.6,0,3.9,0c1.9,0,2.9,0.7,2.9,2.2
		c0.1,2.9-1.8,4.4-5.6,4.4c-4.5,0-8.8,0-13.4,0c-3.8,0-6.1-2.4-5.2-5.2C16.4,4.5,17.2,4,18.5,4C19.7,4,21,4,22.5,4z M30,4.1
		c0-0.9-0.9-1.7-2.1-1.7c-1.2,0-2.2,0.7-2.2,1.6c-0.1,0.9,0.9,1.7,2.1,1.7C29,5.8,30,5,30,4.1z"/>
	<path class="st0" d="M55.9,27.5c-1.4,0-2.6,0-3.9,0c0-6.3,0-12.5,0-18.8c-3,0-5.8,0-8.7,0c0-1.1,0-2,0-3.1c1.4,0,3,0,4.4,0
		c2.1,0,4.2,0,6.1,0c1.3,0,2.2,0.5,2.2,1.6C55.9,14,55.9,20.7,55.9,27.5z"/>
	<path class="st0" d="M47.9,21.7c0,0.7,0,1.3,0,2c-7.8,0-15.6,0-23.4,0c0-0.6,0-1.3,0-2C32.2,21.7,40.1,21.7,47.9,21.7z"/>
	<path class="st0" d="M12.5,24.7c-1.7-1.5-3.4-2.9-5.1-4.3c0.6-0.5,1.3-0.9,1.9-1.4c1,0.9,2.1,1.7,3.4,2.7c2.2-1.5,4.4-3,6.8-4.6
		c0.6,0.5,1.2,1,1.8,1.6C18.3,20.7,15.3,22.6,12.5,24.7z"/>
	<path class="st0" d="M19.4,27.4c0.6,0.5,1.2,1,1.8,1.6c-3,2-5.8,4-8.8,6.1c-1.7-1.5-3.4-2.9-5.1-4.3c0.6-0.5,1.3-0.9,1.9-1.4
		c1.2,0.9,2.2,1.8,3.2,2.8C14.8,30.6,17,29.1,19.4,27.4z"/>
	<path class="st0" d="M7.1,51.8c0.8-0.5,1.3-0.9,2.1-1.4c1,0.9,2.1,1.7,3.2,2.7c2.2-1.5,4.5-3,6.8-4.6c0.6,0.5,1.2,1,1.8,1.6
		c-3,2-6,4-8.8,6.1C10.5,54.7,8.8,53.3,7.1,51.8z"/>
	<path class="st0" d="M12.3,45.6c-1.7-1.5-3.4-2.9-5.1-4.3c0.6-0.5,1.3-0.9,2.1-1.4c1,0.9,2.1,1.8,3.2,2.7c2.3-1.5,4.5-3,6.9-4.6
		c0.6,0.6,1.2,1.1,1.8,1.6C18.1,41.6,15.2,43.6,12.3,45.6z"/>
	<path class="st0" d="M37.8,32.1c0,0.7,0,1.3,0,1.9c-4.5,0-8.8,0-13.4,0c0-0.6,0-1.2,0-1.9C28.8,32.1,33.3,32.1,37.8,32.1z"/>
	<path class="st0" d="M24.3,55.1c0-0.8,0-1.4,0-2c4,0,7.8,0,11.8,0c0.5,2,0.4,2-1.9,2C30.8,55.1,27.7,55.1,24.3,55.1z"/>
	<path class="st0" d="M24.3,44.5c0-0.7,0-1.2,0-1.9c2.7,0,5.3,0,7.9,0c0,0.6,0,1.2,0,1.9C29.6,44.5,27,44.5,24.3,44.5z"/>
</g>
</svg>
