<?xml version="1.0" encoding="utf-8"?>
<!-- Generator: Adobe Illustrator 24.3.0, SVG Export Plug-In . SVG Version: 6.00 Build 0)  -->
<svg version="1.1" id="Camada_1" xmlns="http://www.w3.org/2000/svg" xmlns:xlink="http://www.w3.org/1999/xlink" x="0px" y="0px"
	 viewBox="0 0 56 56" style="enable-background:new 0 0 56 56;" xml:space="preserve">
<style type="text/css">
	.st0{fill:#FFFFFF;}
</style>
<g>
	<path class="st0" d="M38.1,32c-0.1-1.1,0.2-2.4-1.6-2.3c-3.5,0.1-2.8-0.1-3.2,2.3c-3.5,0-7.1,0-10.6,0c-0.5-2.3-0.5-2.2-3.3-2.3
		c-1.9-0.1-1.5,1.3-1.7,2.3c-1.4,0.3-2.6,0.1-3.4-1.2c-0.5-0.8-1-1.5-1.6-2.1c-2.3-2.2-2.8-4.8-2.5-7.8c0.1-1.1,0.5-1.6,1.6-1.6
		c10.8,0,21.4,0,32.2,0c1.2,0,1.5,0.6,1.6,1.7c0.2,2.2-0.2,4.1-1.8,5.8c-1.2,1.3-2.2,2.9-3.3,4.4C40,31.9,39.3,32.3,38.1,32z"/>
	<path class="st0" d="M10.7,27.4c0.8,1.1,1.7,2.1,2.4,3.2c1.1,1.7,2.4,3,4.6,2.4c0.7,2.3,1.1,2.5,4,2.2c1.4-0.1,0.7-1.3,1.1-2.1
		c3.5,0,7.1,0,10.6,0c0.6,2.3-0.2,2,3.5,2c1.1,0,1.1,0,1.4-2.1c2.2,0.4,3.1-1.4,4.2-2.8c1-1.3,2-2.7,3.2-4.3c0,0.7,0.1,1.1,0.1,1.4
		c0,4.1,0,8.2,0,12.2c0,2.2-1,3.2-3.1,3.2c-9.7,0-19.3,0-29.1,0c-2.1,0-3.1-1-3.1-3.1c0-4.1,0-8.2,0-12.3
		C10.5,27.4,10.6,27.4,10.7,27.4z"/>
	<path class="st0" d="M32.7,44.5c-1.3,3.5-3.6,6.2-6.6,8.2c-6.9,4.4-16.2,3.1-21.3-3.2c-1-1.2-1.8-1.5-3.1-0.8
		C1.3,48.9,0.8,49,0,49.2c0.7-3.2,1.3-6.3,2-9.7c2.6,2.3,4.9,4.3,7.4,6.6c-1.2,0.4-2.1,0.8-3.3,1.2c0.3,0.4,0.5,0.8,0.8,1.1
		c6.3,6.9,17.6,5.6,22.3-2.4C30.3,44.2,30.3,44.2,32.7,44.5z"/>
	<path class="st0" d="M56,6.8c-0.7,3.3-1.3,6.4-2,9.7c-2.5-2.3-4.9-4.3-7.4-6.5c1.2-0.5,2.1-0.8,3.2-1.2c-1.5-2.2-3.5-3.6-5.8-4.5
		c-6-2.4-12.5-0.6-16.4,4.5c-0.5,0.7-1.1,1.4-1.5,2.2c-0.6,1.1-1.4,0.6-2.2,0.5c0-0.5-0.1-1,0.1-1.4c2.3-4.8,6-7.8,11.2-8.9
		c6.4-1.3,11.8,0.5,16,5.4c0.9,1.1,1.7,1.5,3,0.8C54.7,7.1,55.3,7,56,6.8z"/>
	<path class="st0" d="M6.7,0c3.3,0.7,6.4,1.3,9.7,2c-2.2,2.5-4.3,4.9-6.6,7.4C9.5,8.2,9.1,7.2,8.7,6.1c-2.6,1.9-4.3,4.4-5,7.4
		c-1.4,5.3-0.1,10.1,3.9,13.9c1.3,1.2,1.2,2.4,1.1,4c-0.5-0.3-0.9-0.5-1.2-0.8c-8.7-6.4-9-19.3-0.6-26.1C7.8,3.7,8,3.1,7.5,2.2
		C7.2,1.6,7,0.9,6.7,0z"/>
	<path class="st0" d="M47.4,24.9c2.6,1.4,4.5,3.4,5.9,5.9c3.8,6.9,2.2,15.5-3.9,20.6c-1.1,0.9-1.3,1.6-0.7,2.8
		c0.2,0.5,0.4,1.1,0.6,1.8c-3.3-0.7-6.4-1.3-9.8-2c2.2-2.5,4.4-4.9,6.6-7.4c0.4,1.2,0.8,2.2,1.2,3.3c4-3.3,5.8-7.4,5.5-12.3
		c-0.3-3.8-1.9-7-4.8-9.4C46.8,27.2,47.6,26.1,47.4,24.9z"/>
	<path class="st0" d="M33.4,17.3c0-1.9,0-1.8-2-1.8c-2.8,0-5.6,0-8.5,0c-0.1,0.7-0.2,1.4-0.3,1.7c0.6,0.6,0.9,0.9,1.2,1.3
		c-0.5,0.2-1,0.5-1.5,0.6c-0.4,0.1-0.9,0.1-1.3,0c-0.3-0.1-0.6-0.3-0.8-0.5c-0.1-0.1,0.3-0.5,0.4-0.7c0.2-0.5,0.4-1,0.3-1.5
		c-0.1-2.4,0.2-2.9,2.6-3c3.1-0.1,6.3,0,9.4,0.1c1.8,0.1,2.2,0.7,2.1,2.5c0,0.8-0.5,1.7,0.6,2.2c0,0-0.2,0.9-0.4,1
		c-0.8,0.1-1.7,0.1-2.5,0c-0.2,0-0.4-0.4-0.6-0.6C32.5,18.1,32.9,17.8,33.4,17.3z"/>
	<path class="st0" d="M18.8,32.5c-0.1-1.1-0.1-1.9,1.4-1.9s1.4,0.9,1.4,1.9c0,1,0.1,1.8-1.4,1.8C18.7,34.3,18.8,33.5,18.8,32.5z"/>
	<path class="st0" d="M37.1,32.6c0.1,0.9,0.1,1.6-1.3,1.7c-1.6,0-1.4-0.9-1.5-1.9c0-1.1,0.1-1.8,1.5-1.8
		C37.4,30.7,37.1,31.6,37.1,32.6z"/>
</g>
</svg>
