<?xml version="1.0" encoding="utf-8"?>
<!-- Generator: Adobe Illustrator 24.3.0, SVG Export Plug-In . SVG Version: 6.00 Build 0)  -->
<svg version="1.1" id="Camada_1" xmlns="http://www.w3.org/2000/svg" xmlns:xlink="http://www.w3.org/1999/xlink" x="0px" y="0px"
	 viewBox="0 0 100 100" style="enable-background:new 0 0 100 100;" xml:space="preserve">
<style type="text/css">
	.st0{fill:#FFFFFF;}
</style>
<g>
	<path class="st0" d="M99,58v8.9H82.2c-1-7.3-4.5-11.5-7.5-13.8c-3.8-2.9-7.7-3.4-8.1-3.4l-0.2,0c2.2-2.1,4.7-2.4,4.7-2.4h5.6
		c1.3,0.6,2.2,1,3,1.3v0c0,0,0,0,0,0c0.6,0.2,1,0.3,1.4,0.3c0.4,0,0.8-0.1,1.4-0.3c0,0,0,0,0,0v0c0.8-0.2,1.8-0.6,3-1.3h5.6
		C91.2,47.2,99,48.1,99,58z"/>
	<path class="st0" d="M33.1,49.7l-0.2,0c-0.4,0-4.3,0.5-8.1,3.4c-3,2.3-6.6,6.4-7.5,13.8H0.5V58c0-9.9,7.8-10.8,7.8-10.8h5.6
		c1.3,0.6,2.2,1,3,1.3v0c0,0,0,0,0,0c0.6,0.2,1,0.3,1.4,0.3c0.4,0,0.8-0.1,1.4-0.3c0,0,0,0,0,0v0c0.8-0.2,1.8-0.6,3-1.3h5.6
		C28.4,47.2,30.9,47.5,33.1,49.7z"/>
	<path class="st0" d="M66.2,53.2H57c-2,1-3.7,1.7-4.9,2.1v-0.1c0,0,0,0-0.1,0.1c-0.9,0.3-1.6,0.4-2.2,0.5c-0.6-0.1-1.3-0.2-2.2-0.5
		c0-0.1-0.1-0.1-0.1-0.1v0.1c-1.3-0.4-2.9-1-4.9-2.1h-9.2c0,0-12.7,1.4-12.7,17.7c0,12,0,14.2,0,14.5h26.9h4.6h26.9
		c0-0.3,0-2.6,0-14.5C78.9,54.6,66.2,53.2,66.2,53.2z"/>
	<circle class="st0" cx="49.7" cy="33" r="18.7"/>
	<circle class="st0" cx="81.1" cy="34.9" r="11.4"/>
	<circle class="st0" cx="18.3" cy="34.9" r="11.4"/>
</g>
</svg>
