<?xml version="1.0" encoding="utf-8"?>
<!-- Generator: Adobe Illustrator 24.3.0, SVG Export Plug-In . SVG Version: 6.00 Build 0)  -->
<svg version="1.1" id="Camada_1" xmlns="http://www.w3.org/2000/svg" xmlns:xlink="http://www.w3.org/1999/xlink" x="0px" y="0px"
	 viewBox="0 0 56.8 45.3" style="enable-background:new 0 0 56.8 45.3;" xml:space="preserve">
<style type="text/css">
	.st0{fill:#FFFFFF;}
	.st1{fill:#FFFFFF;stroke:#FFFFFF;stroke-miterlimit:10;}
</style>
<g>
	<path class="st0" d="M17.5,16.7c0.4-0.1,0.7-0.1,1-0.2c0.6-0.1,1.2,0.3,1.3,0.8c0.1,0.6-0.2,1.2-0.8,1.4c-1.3,0.3-2.6,0.5-3.8,0.7
		c-0.6,0.1-1.1-0.3-1.2-0.9c-0.2-1.2-0.5-2.4-0.6-3.6c-0.1-0.6,0.3-1.1,0.9-1.2s1.1,0.3,1.3,0.9c0.1,0.2,0.1,0.4,0.2,0.8
		c3.1-3.9,6.9-6,11.8-5.7c3.6,0.2,6.6,1.8,9,4.4c4.8,5.4,4.5,14.4-2.4,19.4c6.1,0,12.2,0,18.4,0c-0.3-0.3-0.6-0.6-0.8-0.8
		c-0.5-0.5-0.5-1.2-0.1-1.6c0.5-0.5,1.1-0.5,1.6,0c0.9,0.9,1.9,1.8,2.8,2.8c0.5,0.5,0.5,1.1,0,1.6c-0.9,1-1.9,1.9-2.9,2.9
		c-0.5,0.5-1.1,0.5-1.6,0c-0.4-0.4-0.4-1.1,0-1.6c0.3-0.3,0.6-0.5,0.9-0.7c0-0.1-0.1-0.1-0.1-0.2c-0.2,0-0.4-0.1-0.6-0.1
		c-3.9,0-7.9,0-11.9,0c-0.9,0-1.4,0.6-1.4,1.5c0.1,1.4,0.2,2.7,0.3,4c0,0.6-0.2,1-0.7,1.3c-1.8,1.1-3.6,1.8-5.5,2.3
		c-0.6,0.1-1.1,0-1.5-0.5c-0.8-1-1.7-2-2.5-3.1c-0.3-0.4-0.6-0.5-1.1-0.5c-0.8,0.1-1.7,0-2.5,0.1c-0.2,0-0.5,0.2-0.7,0.4
		c-0.9,1-1.7,2.1-2.6,3.1c-0.5,0.6-1,0.8-1.7,0.5c-1.7-0.8-3.4-1.5-5-2.3c-0.6-0.3-0.8-0.7-0.7-1.3c0.1-1.3,0.2-2.7,0.2-3.9
		c0.1-1.2-0.4-1.6-1.6-1.6c-3.6,0-7.3,0-10.9,0c-1.2,0-1.7-0.4-1.7-1.1c0-0.8,0.5-1.1,1.7-1.1c8.1,0,16.1,0,24.2,0
		c4.9,0,8.8-2.5,10.6-7.1c1.6-4.1,0.7-8.1-2.3-11.3c-4.3-4.7-12.3-4.5-16.6,0.9C17.8,16.2,17.6,16.4,17.5,16.7z M17,35.8
		c-0.1,1.6-0.2,3.2-0.3,4.6c0,0.3,0.2,0.6,0.4,0.7c0.8,0.4,1.7,0.8,2.5,1.2c0.6,0.3,0.9,0.2,1.3-0.3c0.8-1,1.5-2,2.4-2.9
		c0.3-0.3,0.7-0.5,1.1-0.5c1.3-0.1,2.7,0,3.9,0c0.6,0,1,0.2,1.4,0.6c0.8,1,1.7,2,2.5,3c0.3,0.3,0.5,0.5,0.9,0.3
		c1.1-0.5,2.2-0.9,3.3-1.4c0.1-0.1,0.3-0.3,0.3-0.4c-0.1-1.7-0.2-3.3-0.3-4.9C29.8,35.8,23.4,35.8,17,35.8z"/>
	<path class="st0" d="M8,32.2c-0.4,0-0.7,0-0.9,0c-1.5,0-1.5,0-2.1-1.4c-0.3-0.7-0.5-1.4-0.7-2.1c-0.2-0.6,0-1.1,0.5-1.6
		c1.1-0.9,2.1-1.8,3.1-2.7c0.2-0.2,0.3-0.6,0.4-0.9c0.1-0.3,0-0.6,0-0.9c0.2-1.1-0.2-1.9-1.1-2.6c-0.9-0.6-1.7-1.4-2.5-2.1
		c-0.4-0.4-0.6-0.8-0.4-1.4c0.5-2,1.3-3.9,2.4-5.7c0.2-0.3,0.8-0.6,1.2-0.6c1.4,0,2.8,0.1,4,0.3c0.5,0,0.9,0,1.2-0.5
		c0.1-0.1,0.2-0.2,0.3-0.3c1.2-0.8,1.4-1.9,1.2-3.2c-0.1-0.9-0.1-1.9-0.2-2.8c-0.1-0.7,0.2-1.2,0.8-1.5C17,1.7,18.7,1,20.5,0.2
		c0.6,0,1.2,0.2,1.6,0.7C23,2,23.9,3,24.8,4c0.3,0.3,0.6,0.5,1,0.4c0.1,0,0.2,0,0.4,0c1.5,0.3,2.5-0.4,3.3-1.5
		c0.5-0.7,1.2-1.3,1.7-2c0.4-0.5,0.9-0.7,1.5-0.5c1.8,0.7,3.6,1.5,5.4,2.3c0.6,0.3,0.8,0.7,0.8,1.4c-0.1,1.4-0.2,2.8-0.3,4
		c0,0.3,0.2,0.7,0.4,1c1,1.4,2.3,1.9,3.9,1.5c0.8-0.2,1.6-0.1,2.4-0.2c0.6,0,1.1,0.2,1.3,0.7c0.8,1.9,1.6,3.6,2.3,5.5
		c0.2,0.6,0,1.1-0.4,1.5c-1.1,0.9-2.1,1.9-3.2,2.8c-0.1,0.1-0.2,0.1-0.3,0.2c-0.3,0.3-0.2,3,0.2,3.3c1,0.9,2,1.8,3,2.6
		c0.6,0.5,0.9,1.1,0.6,1.9c-0.4,0.9-0.7,1.9-1,2.9c-0.1,0.2-0.3,0.4-0.5,0.4c-0.7,0.1-1.3,0-2.1,0c0.4-1,0.8-2,1.2-3
		c0.2-0.5,0.1-0.9-0.3-1.2c-1-0.8-1.9-1.7-2.9-2.5c-0.5-0.4-0.7-0.9-0.6-1.5c0.1-1,0.1-2,0-3c0-0.6,0.2-1.1,0.6-1.5
		c1-0.8,2-1.7,3-2.6c0.3-0.3,0.4-0.6,0.3-1c-0.5-1.1-0.9-2.1-1.4-3.2c-0.1-0.2-0.4-0.3-0.7-0.3c-1.4,0.1-2.7,0.2-4,0.3
		c-0.6,0.1-1-0.2-1.4-0.6c-0.7-0.8-1.4-1.5-2.2-2.2c-0.4-0.4-0.6-0.8-0.6-1.3c0.1-1.4,0.2-2.7,0.3-4c0-0.4-0.1-0.7-0.5-0.9
		c-1-0.4-2.1-0.8-3.1-1.3c-0.4-0.2-0.6-0.1-0.9,0.2c-0.9,1-1.8,2-2.7,3.1c-0.4,0.4-0.7,0.6-1.3,0.6c-1.1,0-2.2,0-3.3,0
		c-0.4,0-0.9-0.2-1.2-0.5c-0.9-1-1.8-2-2.7-3c-0.3-0.4-0.6-0.4-1-0.3c-1,0.4-2.1,0.8-3.1,1.3c-0.2,0.1-0.4,0.5-0.4,0.7
		c0,1.3,0.1,2.7,0.2,3.9c0.1,0.7-0.1,1.1-0.6,1.6c-0.8,0.7-1.4,1.5-2.2,2.1c-0.3,0.3-0.8,0.5-1.2,0.5c-1.4,0-2.8-0.1-4-0.3
		c-0.4,0-0.7,0.1-0.8,0.5C7.5,13.9,7,14.9,6.6,16c-0.1,0.2,0.1,0.6,0.3,0.8c1,0.9,1.9,1.8,2.9,2.6c0.5,0.4,0.7,0.9,0.6,1.6
		c-0.1,0.9-0.1,1.9,0,2.8c0.1,0.6-0.1,1.1-0.6,1.5c-1,0.9-2,1.7-3,2.6c-0.4,0.3-0.5,0.6-0.3,1C7.2,30.1,7.6,31.1,8,32.2z"/>
	<path class="st0" d="M27.5,30.4c-4.3,0-7.8-3.5-7.8-7.8s3.6-7.8,7.8-7.8c4.3,0,7.9,3.6,7.8,7.9C35.3,26.9,31.8,30.5,27.5,30.4z
		 M21.3,22.7c0,3.5,2.8,6.1,6.2,6.1s6.1-2.8,6.1-6.2c0-3.4-2.8-6.1-6.1-6.1C24.1,16.5,21.3,19.2,21.3,22.7z"/>
</g>
<g>
	<path class="st1" d="M26.8,23.6L26.8,23.6c-0.1,0-0.2-0.1-0.2-0.2V19c0-0.1,0.1-0.2,0.2-0.2l0,0c0.1,0,0.2,0.1,0.2,0.2v4.4
		C27,23.5,26.9,23.6,26.8,23.6z"/>
	<path class="st1" d="M26.6,23.5L26.6,23.5c0-0.1,0-0.2,0.1-0.3l2.2-0.9c0.1,0,0.2,0,0.3,0.1l0,0c0,0.1,0,0.2-0.1,0.3l-2.2,0.9
		C26.8,23.6,26.7,23.6,26.6,23.5z"/>
</g>
</svg>
