<?xml version="1.0" encoding="utf-8"?>
<!-- Generator: Adobe Illustrator 24.3.0, SVG Export Plug-In . SVG Version: 6.00 Build 0)  -->
<svg version="1.1" id="Camada_1" xmlns="http://www.w3.org/2000/svg" xmlns:xlink="http://www.w3.org/1999/xlink" x="0px" y="0px"
	 viewBox="0 0 56 54.6" style="enable-background:new 0 0 56 54.6;" xml:space="preserve">
<style type="text/css">
	.st0{fill:#FFFFFF;}
</style>
<path class="st0" d="M0,10.4L0,10.4c0.1-0.1,0.1-0.2,0.2-0.4C0.7,8.3,2,7.3,3.7,7.2c0.4,0,0.8,0,1.2,0c0.3,0,0.5,0.1,0.5,0.5
	c0,0.6,0,1.1,0.1,1.7c0.2,1.7,1.5,3.1,3.2,3.2c1.7,0.2,3.4-0.9,3.9-2.5c0.1-0.5,0.2-0.9,0.2-1.4s0-0.9,0-1.4c7.1,0,14.2,0,21.3,0
	C34,8.1,34,8.9,34.1,9.7c0.2,1.6,1.7,2.9,3.4,2.9s3.3-1.1,3.6-2.8c0.1-0.7,0.1-1.4,0.1-2c0-0.4,0.1-0.6,0.6-0.6
	c0.4,0.1,0.8,0,1.2,0.1c1.9,0.1,3.4,1.4,3.6,3.3c0.2,1.7,0.1,3.5,0.1,5.1c0,2.9,0,5.6,0,8.5c0,0.3,0,0.5,0,0.9c-1.2,0-2.3,0-3.5,0
	c0-2.4,0-4.7,0-7.1C30,18,16.9,18,3.8,18c0,0.4-0.1,0.9-0.1,1.3c0,3.2,0,6.3,0,9.6c0,3.9,0,7.7,0,11.6c0,0.7,0,1.4,0.1,2.1
	c0,0.2,0.2,0.4,0.4,0.4C4.8,43,5.5,43,6.3,43c4.8,0,9.8-0.1,14.6-0.1c1.4,0,2.8,0,4.2,0c0,1.3,0,2.4,0,3.6c-0.2,0-0.5,0-0.7,0
	c-6.7,0-13.4,0-20.1,0c-1.2,0-2.3-0.3-3.1-1.2c-0.7-0.6-1-1.3-1.3-1.8 M9.5,0C9.5,0,9.5,0.1,9.5,0c0.9,0.5,1.2,1.2,1.2,2.1
	c0,2.3,0,4.7,0,6.9c0,1.2-0.8,1.7-2,1.6c-0.8,0-1.2-0.4-1.4-1C7.2,9.1,7.1,8.5,7.1,7.9c0-2,0-4,0-5.9c0-0.9,0.4-1.6,1.3-2 M38.2,0
	C38.2,0,38.2,0.1,38.2,0c0.9,0.5,1.1,1.3,1.2,2.1c0,2.1,0,4.2,0.1,6.2c0,0.3-0.1,0.7-0.2,1c-0.3,0.9-0.8,1.4-1.8,1.3
	c-0.9,0-1.5-0.5-1.6-1.5c-0.1-0.5-0.1-1-0.1-1.4c0-2,0.1-4,0.1-5.8c0-0.9,0.3-1.5,1.2-1.9"/>
<path class="st0" d="M55.9,42.3c0,5.4-3.6,10.2-9.1,11.8C41.1,55.8,34.5,53,32,47.7c-3.1-6.2-0.2-13.8,6.3-16.5
	c6.8-2.9,14.7,0.6,17,7.5C55.7,39.9,55.8,41.1,55.9,42.3C56,42.3,56,42.3,55.9,42.3z M53.6,42.4c0-1.3-0.3-2.7-0.8-3.8
	c-2-4.7-7.2-7.1-12.3-5.7c-5.9,1.5-9.1,7.8-6.7,13.4c1.8,4.2,6,6.5,10.8,6C49.7,51.7,53.6,47.4,53.6,42.4z"/>
<path class="st0" d="M17.9,32.3c2.4,0,4.7,0,7,0c0,0.2,0,0.4,0,0.5c0,2,0,4,0,6c0,0.3,0,0.6-0.4,0.5c-2.2,0-4.4,0-6.5,0
	c-0.1,0-0.1,0-0.2-0.1C17.9,37,17.9,34.6,17.9,32.3z"/>
<path class="st0" d="M7.2,32.3c2.4,0,4.7,0,7,0c0,2.4,0,4.7,0,7c-2.4,0-4.7,0-7,0C7.2,36.9,7.2,34.6,7.2,32.3z"/>
<path class="st0" d="M25,28.6c-0.7,0-1.3,0-1.9,0c-1.6,0-3.2,0-4.7,0c-0.3,0-0.5-0.1-0.5-0.5c0-2.1,0-4.2,0-6.2
	c0-0.3,0.1-0.4,0.4-0.4c2.1,0,4.2,0,6.2,0c0.2,0,0.5,0.2,0.5,0.3C25,24,25,26.3,25,28.6z"/>
<path class="st0" d="M7.1,28.6c0-0.6,0-1.1,0-1.6c0-1.7,0-3.4,0-5c0-0.4,0.1-0.5,0.5-0.5c2.1,0,4.2,0,6.2,0c0.3,0,0.4,0.1,0.4,0.5
	c0,2.1,0,4.2,0,6.2c0,0.3-0.1,0.4-0.4,0.4C11.7,28.6,9.5,28.6,7.1,28.6z"/>
<path class="st0" d="M35.7,28.6c-2.4,0-4.7,0-7,0c0-0.2,0-0.4,0-0.5c0-2,0-4,0-6c0-0.4,0.1-0.6,0.6-0.6c2,0,4,0,6,0
	c0.4,0,0.6,0.1,0.6,0.6c0,2,0,4,0,6C35.7,28.2,35.7,28.4,35.7,28.6z"/>
<path class="st0" d="M44.7,46.5c-1.2,0-2.4,0-3.6,0c-1,0-1.6-0.5-1.8-1.5c0-0.1-0.1-0.3-0.1-0.4c0-2.4,0-4.7,0-7
	c0-1.4,1.3-2.2,2.5-1.7c0.7,0.3,1,0.9,1,1.7c0,1.4,0,2.8,0,4.2c0,0.2,0,0.5,0,0.7c0,0.4,0.1,0.6,0.6,0.6c1.6,0,3.3,0,4.8,0
	c1.1,0,1.8,0.7,1.8,1.8c0,1-0.7,1.7-1.7,1.8C47.1,46.5,45.9,46.5,44.7,46.5L44.7,46.5z"/>
</svg>
