<?xml version="1.0" encoding="utf-8"?>
<!-- Generator: Adobe Illustrator 24.3.0, SVG Export Plug-In . SVG Version: 6.00 Build 0)  -->
<svg version="1.1" id="Camada_1" xmlns="http://www.w3.org/2000/svg" xmlns:xlink="http://www.w3.org/1999/xlink" x="0px" y="0px"
	 viewBox="0 0 56 59.3" style="enable-background:new 0 0 56 59.3;" xml:space="preserve">
<style type="text/css">
	.st0{fill:#FFFFFF;}
</style>
<g>
	<path class="st0" d="M17.4,24.8C16,24,14.6,23.2,13,22.3c3.5-7.9,9.5-12.5,18-13.8c0.5-2.6,0.5-2.6-2.1-2.6c-0.4,0-0.9,0-1.3,0
		c-1.3,0-1.4-0.1-1.7-1.4c-0.4-1.4-0.3-2.8,0.3-4C26.4,0.3,26.8,0,27.1,0c4.3,0,8.8,0,13.1,0c0.3,0,0.8,0.3,0.9,0.6
		c0.7,1.5,0.6,3.1,0.1,4.6c-0.2,0.5-0.5,0.7-1,0.7c-1.3,0-2.6,0-3.9,0c0,0.9,0,1.7,0,2.7c4,0.6,7.7,2,11.2,4.6
		c0.4-0.6,0.8-1.2,1.3-1.7c1-1,2.1-1,3.2,0c0.3,0.3,0.6,0.6,0.8,0.9c0.9,1,0.9,2.1,0,3c-0.5,0.5-1.1,0.9-1.6,1.4
		c0.3,0.5,0.6,0.8,0.8,1.2c9.2,13.2,1.6,31.6-14.2,34.6c-1.6,0.3-2.7,0.1-3.7-1.2S32,49,30.6,47.6c5.8,0.8,10.9-0.6,14.9-4.4
		c3-2.8,4.7-6.1,5.2-10.2c1.1-8.1-3.8-15.8-11.5-18.5C31.6,11.8,21.1,15.1,17.4,24.8z"/>
	<path class="st0" d="M30.5,57.7c-0.6,0.6-1.1,1.1-1.7,1.6c-0.2-0.2-0.4-0.4-0.6-0.6c-4.6-4.9-9.4-9.9-14-14.8
		c-0.4-0.5-0.8-0.6-1.4-0.4c-3.7,1-7,0.2-9.8-2.5c-2.8-2.7-3.6-6-2.7-9.8c0-0.2,0.1-0.3,0.5-0.7c0.3,0.4,0.5,0.8,0.8,1.1
		c1.4,1.5,2.8,3,4.2,4.3c0.7,0.8,2.2,0.9,3,0.2c1.1-0.9,2.1-1.9,3.1-2.9c0.8-0.8,0.8-2.2,0.1-3c-1.7-1.8-3.4-3.6-5.1-5.5
		c1.6-0.5,3.1-0.5,4.5-0.3c5.9,1.1,9.7,7.2,7.7,12.9c-0.2,0.7-0.2,1.1,0.4,1.7c4.6,4.8,9.2,9.7,13.7,14.5c0.2,0.3,0.5,0.5,0.8,0.8
		c-0.6,0.6-1.1,1.1-1.6,1.6c-0.1,0.1-0.3,0.2-0.4,0.3c-0.1-0.3-0.2-0.7-0.4-0.9c-2.8-3-5.6-5.9-8.4-9c-0.6-0.7-1-0.7-1.6-0.1
		c-0.7,0.7-0.7,0.9,0,1.7c2.8,3,5.6,5.9,8.4,8.9C30,57.1,30.2,57.4,30.5,57.7z"/>
	<path class="st0" d="M33.7,18.6c4.5-0.7,10.2,3.5,11.7,8.8c1.8,6.1-1.7,11.9-5.5,13.7c-0.3-0.6-0.7-1.1-1-1.7
		c-1.6-2.7-3.3-5.4-4.8-8.1c-0.2-0.3-0.3-0.6-0.3-0.9c0-3.9,0-7.6,0-11.5C33.7,18.8,33.7,18.7,33.7,18.6z"/>
	<path class="st0" d="M29.4,21c0,0.7-0.6,1.2-1.2,1.2c-0.7-0.1-1.1-0.5-1.2-1.2c-0.1-0.6,0.5-1.2,1.2-1.2
		C28.9,19.8,29.4,20.4,29.4,21z"/>
	<path class="st0" d="M25.3,25.1c0,0.7-0.5,1.2-1.2,1.2c-0.7,0-1.2-0.6-1.2-1.2c0.1-0.7,0.5-1.1,1.2-1.2
		C24.9,23.9,25.3,24.4,25.3,25.1z"/>
	<path class="st0" d="M24.2,37.5c-0.6,0-1.2-0.6-1.2-1.2c0-0.7,0.6-1.2,1.3-1.2s1.1,0.5,1.1,1.2C25.4,36.9,24.9,37.5,24.2,37.5z"/>
	<path class="st0" d="M33.8,42.9c-0.7,0-1.2-0.5-1.2-1.2s0.6-1.2,1.2-1.2c0.7,0,1.1,0.5,1.2,1.2C35.1,42.4,34.5,42.9,33.8,42.9z"/>
	<path class="st0" d="M22.7,31.8c-0.6-0.1-1.1-0.4-1.1-1.2c0-0.7,0.5-1.3,1.2-1.2c0.7,0.1,1.1,0.4,1.2,1.2
		C24,31.2,23.4,31.8,22.7,31.8z"/>
	<path class="st0" d="M28.3,41.4c-0.7,0-1.2-0.6-1.2-1.2c0-0.7,0.4-1.1,1.1-1.2c0.7-0.1,1.2,0.5,1.3,1.2
		C29.5,40.9,29,41.4,28.3,41.4z"/>
</g>
</svg>
