<?xml version="1.0" encoding="utf-8"?>
<!-- Generator: Adobe Illustrator 24.3.0, SVG Export Plug-In . SVG Version: 6.00 Build 0)  -->
<svg version="1.1" id="Camada_1" xmlns="http://www.w3.org/2000/svg" xmlns:xlink="http://www.w3.org/1999/xlink" x="0px" y="0px"
	 viewBox="0 0 322.2 391" style="enable-background:new 0 0 322.2 391;" xml:space="preserve">
<style type="text/css">
	.st0{fill:#F4EDAE;enable-background:new    ;}
	.st1{fill:#FFFFFF;stroke:#7C007B;stroke-width:7;stroke-miterlimit:10;}
	.st2{fill:#FFFFFF;stroke:#FF5DFB;stroke-width:7;stroke-miterlimit:10;}
	.st3{fill:#FF6B75;}
	.st4{fill:#FFFFFF;stroke:#FF6B75;stroke-width:7;stroke-miterlimit:10;}
	.st5{fill:#00F6D8;}
</style>
<circle class="st0" cx="161.1" cy="193.9" r="161.1"/>
<g>
	<circle class="st1" cx="217.2" cy="37.8" r="34.3"/>
	<path class="st1" d="M251.1,75.3h-67.8c-6.6,0-12,5.4-12,12v51.5c0,6.6,5.4,12,12,12h67.8c6.6,0,12-5.4,12-12V87.3
		C263.1,80.7,257.7,75.3,251.1,75.3z"/>
	<path class="st2" d="M130.6,216h161c6.6,0,12-5.4,12-12v-68c0-6.6-5.4-12-12-12h-161c-6.6,0-12,5.4-12,12v68
		C118.6,210.6,124,216,130.6,216z"/>
	<polygon class="st3" points="215.7,185.8 210.7,193.5 180.4,146.5 190.3,146.5 	"/>
	<polygon class="st3" points="241.2,146.5 217.5,183.1 212.5,175.4 231.2,146.5 	"/>
	<polygon class="st3" points="227.7,146.5 210.8,172.7 205.8,165 217.8,146.5 	"/>
</g>
<g>
	<circle class="st1" cx="93.9" cy="200.5" r="55"/>
	<path class="st1" d="M155.3,266.5h-123c-6.6,0-12,5.4-12,12v97c0,6.6,5.4,12,12,12h123c6.6,0,12-5.4,12-12v-97
		C167.3,271.9,161.9,266.5,155.3,266.5z"/>
</g>
<path class="st4" d="M158.6,33.5l-18-5.4v-8.9c0-8.6-5.4-15.6-12-15.6h-72c-6.6,0-12,7-12,15.6v35.2C44.6,63,50,70,56.6,70h72
	c6.6,0,12-7,12-15.6V42L158.6,33.5z"/>
<path class="st4" d="M291.6,251h-82.9c-23.8-15.8-79.6-14.1-49.1-8c9.8,2,17.6,6.2,23.7,11.3c-2.3,2.2-3.7,5.3-3.7,8.7v67
	c0,6.6,5.4,12,12,12h100c6.6,0,12-5.4,12-12v-67C303.6,256.4,298.2,251,291.6,251z"/>
<g>
	<path class="st5" d="M217.2,296.9c0-4.1,2.8-7,6.6-7c3.9,0,6.5,2.9,6.5,7c0,4-2.5,7-6.6,7C219.8,303.8,217.2,300.8,217.2,296.9z"/>
	<path class="st5" d="M240,296.9c0-4.1,2.8-7,6.6-7c3.9,0,6.5,2.9,6.5,7c0,4-2.5,7-6.6,7C242.7,303.8,240,300.8,240,296.9z"/>
	<path class="st5" d="M262.9,296.9c0-4.1,2.8-7,6.6-7c3.9,0,6.5,2.9,6.5,7c0,4-2.5,7-6.6,7C265.5,303.8,262.9,300.8,262.9,296.9z"/>
</g>
<g>
	<path class="st5" d="M87.4,47.3l-0.1-1.7c-0.4-3.4,0.8-7.2,4-11.1c2.9-3.4,4.5-5.9,4.5-8.8c0-3.3-2-5.4-6.1-5.5
		c-2.3,0-4.9,0.8-6.5,2l-1.5-4c2.1-1.5,5.7-2.6,9.1-2.6c7.3,0,10.7,4.5,10.7,9.4c0,4.3-2.4,7.5-5.5,11.1c-2.8,3.3-3.8,6.1-3.6,9.4
		l0.1,1.7L87.4,47.3L87.4,47.3z M86,56.3c0-2.4,1.6-4,3.8-4c2.2,0,3.8,1.7,3.8,4c0,2.2-1.5,4-3.8,4C87.5,60.2,86,58.5,86,56.3z"/>
</g>
</svg>
