<?xml version="1.0" encoding="utf-8"?>
<!-- Generator: Adobe Illustrator 24.3.0, SVG Export Plug-In . SVG Version: 6.00 Build 0)  -->
<svg version="1.1" id="Camada_1" xmlns="http://www.w3.org/2000/svg" xmlns:xlink="http://www.w3.org/1999/xlink" x="0px" y="0px"
	 viewBox="0 0 188 142" style="enable-background:new 0 0 188 142;" xml:space="preserve">
<style type="text/css">
	.st0{fill:#00CABE;}
	.st1{opacity:0.13;enable-background:new    ;}
	.st2{fill:#4B3D39;}
	.st3{fill:#564742;}
	.st4{fill:#FBC57F;}
	.st5{fill:#FDD4A4;}
	.st6{fill:#FFFFFF;}
	.st7{fill:none;}
	.st8{fill:#79E2D6;}
	.st9{fill:#83F2E5;}
	.st10{display:none;}
	.st11{fill:#A062F1;}
</style>
<g id="Camada_3">
</g>
<g id="Camada_1_2_">
	<g>
		<path class="st0" d="M187.3,52.4c0,0-4.6,2.3-8.9,5.6c-0.6,0.5-1.3,1-1.9,1.5c-0.2,0.2-0.4,0.3-0.5,0.5c-0.7,0.6-1.3,1.2-1.9,1.9
			c-0.4,0.4-0.7,0.8-1,1.2c-0.5,0.7-1.3,1.3-2.3,1.7c-1.4,0.7-3.3,1.1-5.3,1.3c-5.7,0.7-13.2,0.2-18.2-0.7c-2.4-0.4-4.3-0.9-5.1-1.3
			c0,0-0.1,0-0.1-0.1l0,0c-0.6-0.4-1-1.3-1.5-2.6c-0.8-2.4-1.4-6-1.8-9.7c0-0.3-0.1-0.6-0.1-0.9c0-0.4-0.1-0.8-0.1-1.2
			c0-0.3-0.1-0.6-0.1-0.9c0-0.4-0.1-0.7-0.1-1.1l0,0c0-0.2,0-0.5-0.1-0.7c0-0.3-0.1-0.7-0.1-1c-0.3-4.1-0.5-7.3-0.5-7.3l2.1-0.2
			l2-0.2l0.6-0.1l2.1-0.2l1.6-0.2l2.8-0.3l1.8-0.2l7.7-0.8l0,0c0.1,0,1.4,0.4,3.4,1c0.8,0.3,1.7,0.6,2.7,0.9
			C171.4,40.9,182.6,45.6,187.3,52.4z"/>
		<path class="st0" d="M168,24.8c-0.6,1.1-1.3,2.2-1.9,3.2c-0.2,0.3-0.4,0.5-0.6,0.8c-0.3,0.4-0.5,0.7-0.8,1.1c0,0,0,0,0,0.1
			c-2,2.6-4.1,4.7-6.4,6.6l0,0c-1.8,1.5-3.8,2.8-5.9,4.1c-0.3,0.2-0.5,0.3-0.8,0.5c-2.1,1.2-4.3,2.3-6.6,3.5
			c-1.8,0.9-3.7,1.7-5.6,2.6c-0.4,0.2-0.9,0.4-1.2,0.5c-0.6,0.2-1.2,0.3-1.7,0.4c-0.4,0-0.7,0-1,0c-0.2,0-0.4-0.1-0.5-0.1
			s-0.1,0-0.2-0.1c-0.2-0.1-0.5-0.2-0.7-0.3c-0.1-0.1-0.3-0.2-0.4-0.3c-3.3-2.7-2.8-11-2.2-15.8c0.3-2.1,0.6-3.5,0.6-3.5
			s0.1-9.3,6.9-17.3c1.2-1.4,2.6-2.7,4.3-4c0.1-0.1,0.2-0.2,0.3-0.2c1.2-0.9,2.6-1.8,4.1-2.5c3.7-1.9,8.3-3.4,13.9-4.1
			C161.6-0.2,174.7,12.8,168,24.8z"/>
		<path class="st1" d="M187.3,52.3c-32.7,11.2-34.1,7.7-34.1,7.7c5.3-1.8,16.4-11.7,16.4-11.7c-6.4-2.7-19.6-3.3-23.5-3.5l-0.9-0.1
			v0.1c-0.1,0-0.2,0-0.2,0h0.2l-2.5,19.5c0.9,0.4,2.6,0.8,4.7,1.2c5,0.9,12.5,1.4,18.2,0.7c2-0.2,3.9-0.6,5.3-1.3
			c1-0.4,1.8-1,2.3-1.7c0.3-0.4,0.6-0.8,1-1.2c0.6-0.7,1.2-1.3,1.9-1.9c0.1-0.2,0.3-0.3,0.5-0.5c0.6-0.5,1.3-1,1.9-1.5
			C182.9,54.7,187.4,52.4,187.3,52.3L187.3,52.3z"/>
		<path class="st1" d="M152.2,35c0,0,7.7-3.3,14.2-7.4c-0.1,0.1-0.2,0.3-0.3,0.4c-0.2,0.3-0.4,0.5-0.6,0.8c-0.3,0.4-0.5,0.7-0.8,1.1
			c0,0,0,0,0,0.1c-2,2.6-4.1,4.7-6.4,6.6l0,0c-1.8,1.5-3.8,2.8-5.9,4.1c-0.3,0.2-0.5,0.3-0.8,0.5c-2.1,1.2-4.3,2.3-6.6,3.5
			c-1.8,0.9-3.7,1.7-5.6,2.6c-0.4,0.2-0.9,0.4-1.2,0.5c-0.6,0.2-1.2,0.3-1.7,0.4c-0.4,0-0.7,0-1,0c-0.2,0-0.4-0.1-0.5-0.1
			s-0.1,0-0.2-0.1c-0.2-0.1-0.5-0.2-0.7-0.3c-0.1-0.1-0.3-0.2-0.4-0.3c-0.9-0.7-1.5-1.9-1.9-3.2c1.9-3.9,7.9-8.6,7.9-8.6
			s-6.4-17.9,8.8-25.4C148.5,10,159.3,26,152.2,35z"/>
		<path class="st2" d="M127.4,118c-6.7,8.3-15.4,15.2-26.3,18.7c-32,10.5-54.5,4.8-79.1-11.2c-24.7-16-19.5-62.4-19.5-62.4
			s8.4-21.9,13.2-35.4C20.5,14.3,42.4,5.3,42.4,5.3s30.7-12.3,59.4,1s34.9,29.3,34.9,29.3s0.8,6,2.6,15.6c0.9,4.7,2,10.3,3.4,16.5
			C145.5,80.2,140.4,101.8,127.4,118z"/>
		<path class="st3" d="M126.5,118c-7.7,5.6-21.5,13.7-37.2,13.2c-24.1-0.8-45.5-5.2-54-9.5c-8.5-4.5-16.6-18.7-23.9-31.6
			S9.5,62.4,9.5,62.4l18.7-15.7l56.3-6.1c0,0,44.6,7.4,51.3,9.1c1,0.3,1.9,0.8,2.8,1.6c0.9,4.7,2,10.3,3.4,16.5
			C144.6,80.2,139.5,101.9,126.5,118z"/>
		<path class="st4" d="M96.2,100.4c-5.1,1-11,1.8-17.7,2.1c-1.4,0.1-2.9,0.1-4.3,0.1c-2.2,0-4.3,0-6.3,0
			c-46.8-0.4-46.2-18.1-48.3-27c-2.2-9.4,6.6-17.9,6.6-17.9c24.5-11.3,103.1-5.9,104.5,6.6c0,0.4,0.1,0.8,0.1,1.2
			C131.6,76.2,127.5,94,96.2,100.4z"/>
		<path class="st5" d="M96.2,100.4c-5.3,0.6-11.2,1.4-17.7,2.1c-0.5,0-0.9,0.1-1.4,0.2c-3,0.3-6.1,0.3-9.2,0
			C34.5,99.5-1,62.6,50.1,57.9c45.5-4.2,72.3,4.4,80.7,7.7C131.6,76.2,127.5,94,96.2,100.4z"/>
		<path class="st2" d="M41.7,77c0,0-0.4,5.4,4,6.3c4.5,0.9,5.8-3.1,6.3-5.4c0.4-2.2,0-7.1-3.6-7.1S42.5,73,41.7,77z"/>
		<circle class="st6" cx="48.9" cy="73.9" r="1.3"/>
		<path class="st2" d="M94,77.2c0,0-0.4,5.4,4,6.3c4.5,0.9,5.8-3.1,6.3-5.4c0.4-2.2,0-7.1-3.6-7.1S94.8,73.2,94,77.2z"/>
		<circle class="st6" cx="101.1" cy="74" r="1.3"/>
		<path class="st2" d="M105.5,68.6c0.3-3.6-9.1-5.4-13.6-0.2c-2.1,2.3-0.7,2.5-0.7,2.5S98.2,67.5,105.5,68.6z"/>
		<path class="st2" d="M41.2,69.6c-0.7-3.5,8.4-6.4,13.5-2c2.4,2.1,1,2.4,1,2.4S48.3,67.5,41.2,69.6z"/>
		<path class="st0" d="M147.3,65.6c-0.5,1.6-1.2,2.8-2.3,3.6c-0.3,0.2-0.5,0.3-0.8,0.5c-0.1,0-0.1,0.1-0.2,0.1
			c-1.4,0.7-2.7,0.7-4.2,0.3c-0.8-0.3-1.7-0.6-2.7-1.2c-0.7-0.3-1.4-0.7-2.2-1.2c-0.8-0.4-1.6-0.9-2.6-1.4s-2.1-1.2-3.4-1.8
			c-1.4-0.7-3.1-1.5-4.9-2.4c-0.2-0.1-0.5-0.2-0.7-0.3l0,0c-13.8-6.3-21.7-8.1-50.6-8.7c-27.2-0.7-54.9,9.7-56.9,10.5h0.1
			c0,0-0.7,0.2-3.7,1.3c-0.5,0.2-1.1,0.4-1.8,0.7c-0.7,0.2-1.4,0.5-2.3,0.8c-0.5,0.2-1.1,0.4-1.5,0.5C6,67.1,5.5,67.3,5,67.4
			c-1.2,0.3-2.1,0.5-2.7,0.5c-0.7,0-1.2-0.2-1.6-0.7c-1.1-1.4-0.5-5.1-0.6-11.6c0-4.5,1-9.3,2.1-13.4c0.1-0.4,0.2-0.8,0.4-1.1
			c0.2-0.5,0.3-1,0.5-1.4c0.2-0.6,0.4-1.2,0.6-1.8c0.1-0.2,0.2-0.5,0.3-0.7c0.7-1.8,1.4-3.4,1.9-4.7c0.8-1.7,1.3-2.7,1.3-2.7
			s0.4-1.1,3.1-2.5c0.1-0.1,0.3-0.1,0.4-0.2c0.4-0.2,0.8-0.4,1.2-0.6c0.8-0.4,1.8-0.7,2.9-1.1c0.2-0.1,0.5-0.2,0.8-0.2
			c0.2-0.1,0.5-0.2,0.8-0.2c0.2-0.1,0.5-0.1,0.8-0.2c0.5-0.2,1.1-0.3,1.7-0.5c0.1,0,0.1,0,0.2-0.1c0.8-0.2,1.8-0.4,2.7-0.6
			c5.2-1.1,12.4-2.2,22-2.9l0,0c1.1-0.1,2.2-0.1,3.4-0.2l0,0c6.6-0.4,14.2-0.7,23.1-0.7c29.3-0.1,49.6,6.6,61.9,12
			c2.6,1.2,4.8,2.3,6.6,3.3c0.6,0.3,1.2,0.6,1.7,0.9l0,0c0.4,0.2,0.7,0.5,1.1,0.8c0.4,0.4,0.7,0.8,1.1,1.3c0.1,0.2,0.2,0.3,0.3,0.5
			c1.1,1.8,2,4.1,2.7,6.3c1.3,3.9,2,7.5,2,7.5S148.8,60.4,147.3,65.6z"/>
		<path class="st1" d="M147.9,61.7c-0.1,1.4-0.3,2.7-0.6,3.9c-0.5,1.6-1.2,2.8-2.3,3.6c-0.3,0.2-0.5,0.3-0.8,0.5
			c-0.1,0-0.1,0.1-0.2,0.1c-1.4,0.7-2.7,0.7-4.2,0.3c-0.8-0.3-1.7-0.6-2.7-1.2c-0.7-0.3-1.4-0.7-2.2-1.2c-0.8-0.4-1.6-0.9-2.6-1.4
			s-2.1-1.2-3.4-1.8c-1.4-0.7-3.1-1.5-4.9-2.4c-0.2-0.1-0.5-0.2-0.7-0.3l0,0c-13.8-6.3-21.7-8.1-50.6-8.7
			c-27.2-0.7-54.9,9.7-56.9,10.5h0.1c0,0-0.7,0.2-3.7,1.3c-0.5,0.2-1.1,0.4-1.8,0.7c-0.7,0.2-1.4,0.5-2.3,0.8
			c-0.5,0.2-1.1,0.4-1.5,0.5C6,67.1,5.5,67.3,5,67.4c-1.2,0.3-2.1,0.5-2.7,0.5c-0.7,0-1.2-0.2-1.6-0.7c-1.1-1.4-0.5-5.1-0.6-11.6
			c0-4.5,1-9.3,2.1-13.4c0.1-0.4,0.2-0.8,0.4-1.1c0.2-0.5,0.3-1,0.5-1.4c0.2-0.6,0.4-1.2,0.6-1.8c0.1-0.2,0.2-0.5,0.3-0.7
			c0.6-1.5,1.1-2.9,1.6-4c-2.1,5.9-3.7,17.9,18.8,13.3c29.3-6.2,108.3-0.6,119,9.7C145.3,58.1,146.8,59.9,147.9,61.7z"/>
		<path class="st7" d="M147.3,65.6c-0.5,1.6-1.2,2.8-2.3,3.6c-0.3,0.2-0.5,0.3-0.8,0.5c-0.1,0-0.1,0.1-0.2,0.1
			c-1.4,0.7-2.7,0.7-4.2,0.3c-0.8-0.3-1.7-0.6-2.7-1.2c-0.7-0.3-1.4-0.7-2.2-1.2c-0.8-0.4-1.6-0.9-2.6-1.4s-2.1-1.2-3.4-1.8
			c-1.4-0.7-3.1-1.5-4.9-2.4c-0.2-0.1-0.5-0.2-0.7-0.3l0,0c-13.8-6.3-21.7-8.1-50.6-8.7c-27.2-0.7-54.9,9.7-56.9,10.5h0.1
			c0,0-0.7,0.2-3.7,1.3c-0.5,0.2-1.1,0.4-1.8,0.7c-0.7,0.2-1.4,0.5-2.3,0.8c-0.5,0.2-1.1,0.4-1.5,0.5C6,67.1,5.5,67.3,5,67.4
			c-1.2,0.3-2.1,0.5-2.7,0.5c-0.7,0-1.2-0.2-1.6-0.7c-1.1-1.4-0.5-5.1-0.6-11.6c0-4.5,1-9.3,2.1-13.4c0.1-0.4,0.2-0.8,0.4-1.1
			c0.2-0.5,0.3-1,0.5-1.4c0.2-0.6,0.4-1.2,0.6-1.8c0.1-0.2,0.2-0.5,0.3-0.7c0.7-1.8,1.4-3.4,1.9-4.7c0.8-1.7,1.3-2.7,1.3-2.7
			s0.4-1.1,3.1-2.5c0.1-0.1,0.3-0.1,0.4-0.2c0.4-0.2,0.8-0.4,1.2-0.6c0.8-0.4,1.8-0.7,2.9-1.1c0.2-0.1,0.5-0.2,0.8-0.2
			c0.2-0.1,0.5-0.2,0.8-0.2c0.2-0.1,0.5-0.1,0.8-0.2c0.5-0.2,1.1-0.3,1.7-0.5c0.1,0,0.1,0,0.2-0.1c0.8-0.2,1.8-0.4,2.7-0.6
			c5.2-1.1,12.4-2.2,22-2.9l0,0c1.1-0.1,2.2-0.1,3.4-0.2l0,0c6.6-0.4,14.2-0.7,23.1-0.7c29.3-0.1,49.6,6.6,61.9,12
			c2.6,1.2,4.8,2.3,6.6,3.3c0.6,0.3,1.2,0.6,1.7,0.9l0,0c0.4,0.2,0.7,0.5,1.1,0.8c0.4,0.4,0.7,0.8,1.1,1.3c0.1,0.2,0.2,0.3,0.3,0.5
			c1.1,1.8,2,4.1,2.7,6.3c1.3,3.9,2,7.5,2,7.5S148.8,60.4,147.3,65.6z"/>
		<g>
			<polygon class="st8" points="46.4,8.2 71.4,46.5 75.5,40.2 54.6,8.2 			"/>
			<polygon class="st8" points="88,8 72.8,31.8 77,38.1 96.1,8 			"/>
			<polygon class="st9" points="85.1,8 77,8.1 67.3,23.3 71.4,29.5 			"/>
		</g>
	</g>
	<g id="Camada_1_1_" class="st10">
	</g>
</g>
<g>
	<path class="st11" d="M139.2,100c4.6,0,8.6,0,12.8,0c0.4,7.4-0.1,14.4-2.4,21.3c-2.2,6.5-5.8,12-11.6,15.7
		c-2.6,1.7-5.5,2.8-8.1,4.1c-0.1,0,0.1,0.1,0.3,0c7.2-0.3,14.2-1.2,20.9-3.7c13.6-5,21.6-14.5,23.8-28.8c0.3-2.1,0.3-4.3,0.4-6.5
		c0.1-2.1,0.1-2.1,2.1-2.1c3,0,5.9,0,8.9,0c0.5,0,1,0,1.8-0.1c-0.3-0.6-0.5-1-0.8-1.3c-6.2-7.7-12.4-15.4-18.6-23.1
		c-1.4-1.8-2.9-3.5-4.2-5.3c-0.7-0.9-1.1-0.8-1.7,0c-7.5,9.4-15,18.8-22.4,28.1C140,98.8,139.8,99.2,139.2,100z"/>
</g>
</svg>
