<?xml version="1.0" encoding="utf-8"?>
<!-- Generator: Adobe Illustrator 24.3.0, SVG Export Plug-In . SVG Version: 6.00 Build 0)  -->
<svg version="1.1" id="Camada_1" xmlns="http://www.w3.org/2000/svg" xmlns:xlink="http://www.w3.org/1999/xlink" x="0px" y="0px"
	 viewBox="0 0 56 58.1" style="enable-background:new 0 0 56 58.1;" xml:space="preserve">
<style type="text/css">
	.st0{fill:#FFFFFF;}
	.st1{fill:none;}
</style>
<path class="st0" d="M55.9,6.7c-0.2-0.4-0.5-0.5-0.8-0.5c-1.6-0.2-3.2-0.3-4.9-0.5V5.3c-0.1-1.4-0.3-3-0.4-4.4
	c-0.1-0.5-0.2-0.8-0.3-0.8c-0.3-0.3-1.4,0.7-3.1,2.2c-1.1,1-2.1,2-3.1,3c-0.5,0.5-1,1.1-1.6,1.6c-0.3,0.3-0.3,0.6-0.3,1
	C41.7,9,42,10,42.2,11c0.1,0.3,0.2,0.6,0.2,0.9c0.1,0.3,0,0.5-0.3,0.8l-1.7,1.7c-0.6,0.6-1.3,1.3-1.9,1.9c-0.1,0.1-0.2,0.2-0.2,0.2
	c-0.3,0.3-0.5,0.5-0.8,0.8l-3.5,3.5c-0.7,0.7-1.4,1.4-2,2c-0.3,0.3-0.4,0.8-0.1,1c0.3,0.3,0.8,0.3,1.1-0.1c0.2-0.2,0.3-0.3,0.3-0.3
	l3.8-3.8l1.2-1.2l1.3-1.3c0.6-0.6,1.2-1.2,1.8-1.8c0.6-0.6,1.1-1.1,1.7-1.7c0.2-0.2,0.4-0.3,0.7-0.2c0.7,0.2,1.3,0.3,2,0.5
	c0.7,0.2,1.3,0.3,2,0.5c0.5,0.1,0.8,0,1.2-0.3c0.8-0.8,1.5-1.5,2.3-2.3c1.4-1.4,2.8-2.8,4.2-4.2C55.9,7.3,56.1,7.1,55.9,6.7z
	 M43.8,11.1c0-0.2-0.1-0.3-0.1-0.4c-0.3-0.9-0.5-1.9-0.7-2.8c-0.1-0.2,0-0.5,0.2-0.6c0.4-0.4,0.8-0.9,1.2-1.3c1-1,2-1.9,3-3
	c0.2-0.2,0.9-1,1.2-1l0.3,3.6c0.1,0.1,0,0.3-0.1,0.4c-0.6,0.6-1.1,1.1-1.7,1.7C46.1,8.9,44.9,9.9,43.8,11.1z M53.4,7.9
	c-0.9,0.9-1.9,1.9-2.9,2.9c-0.7,0.7-1.4,1.4-2,2.1c-0.2,0.2-0.3,0.3-0.7,0.2c-0.9-0.3-1.8-0.4-2.7-0.7c-0.2-0.1-0.3-0.1-0.4-0.2
	c1.1-1.1,2.2-2.2,3.1-3.1C48,9,48.1,8.8,48.2,8.7c0.4-0.4,0.8-0.9,1.3-1.2c0.2-0.1,0.3-0.3,0.4-0.3c1.2,0.1,2.5,0.2,3.8,0.3
	C53.6,7.7,53.5,7.8,53.4,7.9z"/>
<path class="st0" d="M33.4,31.9c0.4,0.9,1.7,1.1,2.4,0.3c0.3-0.3,0.7-0.4,1.2-0.3c1.4,0.3,2.4,1.5,2.4,3c0,0.8,0,1.5,0,2.3
	c0,0.6-0.2,0.8-0.8,0.8c-1.8,0-3.6,0-5.4,0c-0.2,0-0.3,0-0.5,0c-0.2,1.3-0.2,1.3-1.4,1.3c-2.7,0-5.5,0-8.2,0c-0.7,0-0.8-0.2-0.8-0.8
	c0-0.1,0-0.3,0-0.4c-0.2,0-0.3,0-0.5,0c-1.8,0-3.6,0-5.3,0c-0.8,0-0.9-0.2-0.9-0.9c0-0.8,0-1.6,0-2.4c0.1-1.4,1.2-2.5,2.5-2.7
	c0.4-0.1,0.8,0,1.1,0.3c0.6,0.6,1.5,0.7,2,0.1c0.5-0.6,1-0.5,1.6-0.3c0.3,0.1,0.4,0.1,0.8-0.1c0.4-0.3,0.9-0.5,1.4-0.7
	c0.5-0.2,0.9-0.1,1.4,0.3c0.7,0.8,1.9,0.8,2.5,0c0.4-0.4,0.8-0.5,1.4-0.3c0.5,0.2,0.9,0.5,1.4,0.7c0.2,0.1,0.3,0.1,0.5,0.1
	C32.4,32,32.8,32,33.4,31.9C33.3,32,33.3,31.9,33.4,31.9z M23.2,38c2.7,0,5.4,0,8.1,0c0-1.2,0-2.4,0-3.6c0-0.9-0.5-1.6-1.4-1.9
	c-0.3-0.1-0.4-0.1-0.7,0.1c-1.1,0.9-2.5,0.9-3.7,0.2c-0.6-0.4-0.8-0.4-1.4,0c-0.5,0.3-0.9,0.8-0.9,1.4C23.2,35.4,23.2,36.7,23.2,38z
	 M22.2,33.2c-0.2-0.1-0.3,0-0.5,0.2c-1,0.8-2.3,0.8-3.2,0.1c-0.4-0.3-0.8-0.3-1.1,0c-0.3,0.3-0.7,0.7-0.8,1.1c-0.1,0.8,0,1.5,0,2.3
	c1.9,0,3.6,0,5.5,0C22,35.6,22.1,34.4,22.2,33.2z M32.4,33.1c0.1,1.4,0.1,2.5,0.2,3.6c1.9,0,3.6,0,5.5,0c0-0.7,0.1-1.4,0-2
	s-0.4-1.3-1.1-1.5c-0.2-0.1-0.4,0-0.6,0.1c-1.2,0.8-2.4,0.8-3.5,0C32.8,33.2,32.5,33.2,32.4,33.1z"/>
<path class="st0" d="M30.4,27.7c-0.1,0.5-0.1,1.1-0.3,1.6c-0.5,1.4-1.9,2.3-3.5,2c-1.4-0.3-2.5-1.5-2.5-3c0-0.4,0-0.8,0-1.2
	c0-1.8,1.3-3.1,3.1-3.1c1.7,0,3.1,1.4,3.1,3.1C30.4,27.2,30.3,27.5,30.4,27.7C30.4,27.6,30.4,27.7,30.4,27.7z M25.3,27.6
	c0,0.3,0,0.4,0,0.7c0,1,0.8,1.8,1.8,1.9c0.9,0.1,1.9-0.6,2-1.6c0.1-0.7,0.1-1.4,0-1.9c-0.2-1-1-1.6-2.1-1.5
	c-0.9,0.1-1.7,0.9-1.7,1.9C25.3,27.2,25.3,27.4,25.3,27.6z"/>
<path class="st0" d="M33.4,31.9C33.3,31.9,33.3,32,33.4,31.9c-0.2-0.1-0.3-0.2-0.4-0.3c-0.7-0.5-1-1.3-1-2.1c0-0.6,0-1.3,0.1-1.8
	c0.3-1.4,1.6-2.2,3.1-2c1.4,0.2,2.4,1.3,2.4,2.6c0,0.6,0.1,1.2-0.1,1.8C36.9,31.8,35.1,32.7,33.4,31.9z M33,28.8L33,28.8
	c0,0.3,0,0.5,0,0.8c0.1,0.8,0.8,1.4,1.6,1.4c0.8,0,1.5-0.6,1.6-1.4c0-0.5,0-0.9,0-1.4c-0.1-0.8-0.7-1.4-1.5-1.4
	c-0.8,0-1.5,0.5-1.7,1.4C33,28.3,33,28.6,33,28.8z"/>
<path class="st0" d="M17.2,28.7c-0.1-1.4,0.4-2.4,1.7-3c1.7-0.8,3.6,0.4,3.8,2.2c0.1,0.5,0.1,1.1,0,1.6c-0.1,1.4-1.3,2.5-2.8,2.5
	c-1.5,0-2.7-1.2-2.8-2.6C17.1,29.3,17.2,29.1,17.2,28.7z M21.5,28.9c0-0.3,0-0.5,0-0.8c-0.1-0.8-0.8-1.4-1.6-1.4s-1.5,0.7-1.6,1.5
	c0,0.4,0,0.8,0,1.3c0,0.8,0.8,1.5,1.5,1.5c0.9,0,1.6-0.6,1.6-1.5C21.5,29.3,21.5,29.1,21.5,28.9z"/>
<path class="st0" d="M46.7,4.5"/>
<path class="st0" d="M54.9,24c-0.6-2.3-1-3.5-2.1-5.5l-0.5,0h-6c1.2,1.7,2.1,3.5,2.8,5.5c0.7,2.2,1.1,4.5,1.1,6.8
	c0,12-10,21.8-22.3,21.8c-12.3,0-22.3-9.7-22.3-21.8c0-12,10-21.8,22.3-21.8c2.4,0,4.7,0.4,6.9,1.1c0.8,0.2,1.5,0.5,2.2,0.8V5.2
	c-0.7-0.3-1.5-0.5-2.2-0.7c-2.2-0.6-4.5-0.8-6.9-0.8C12.5,3.7,0,15.9,0,30.9c0,15,12.5,27.2,27.9,27.2c15.4,0,27.9-12.2,27.9-27.2
	C55.8,28.5,55.5,26.2,54.9,24z"/>
<path class="st0" d="M40.8,20.6l-0.2,0h-1.8c2.6,2.7,4.3,6.3,4.3,10.3c0,8.2-6.8,14.8-15.2,14.8S12.7,39,12.7,30.9
	c0-8.2,6.8-14.8,15.2-14.8c2.7,0,5.2,0.7,7.4,1.9v-1.6c-2.2-1.1-4.7-1.7-7.4-1.7c-9.2,0-16.6,7.3-16.6,16.2c0,9,7.5,16.2,16.6,16.2
	s16.6-7.3,16.6-16.2C44.5,26.9,43.3,23.4,40.8,20.6z"/>
<path class="st1" d="M34.6,18.8c0.3,0.2,0.7,0.4,1,0.6l-1,1V18.8z"/>
</svg>
