<?xml version="1.0" encoding="utf-8"?>
<!-- Generator: Adobe Illustrator 24.3.0, SVG Export Plug-In . SVG Version: 6.00 Build 0)  -->
<svg version="1.1" id="Camada_1" xmlns="http://www.w3.org/2000/svg" xmlns:xlink="http://www.w3.org/1999/xlink" x="0px" y="0px"
	 viewBox="0 0 100 100" style="enable-background:new 0 0 100 100;" xml:space="preserve">
<style type="text/css">
	.st0{fill:#FFFFFF;}
</style>
<g>
	<path class="st0" d="M97.3,29.2C83.7,17.5,67.9,11.7,52.6,11.5c-16.1,0-28.2,3.2-39.9,10.2C8.9,24,5.4,26.8,1.9,29.5
		c-1.7,1.3-2.3,3.2-1.7,5.3s2.1,3.3,4.3,3.6c1.8,0.2,3.1-0.6,4.5-1.7c15-12.5,32.3-17.3,51.6-14.2c11.4,1.9,21.5,6.8,30.3,14.4
		c2.5,2.2,5.6,2.1,7.5-0.2C100.3,34.4,99.8,31.3,97.3,29.2z"/>
	<path class="st0" d="M83.7,42.3c-12.1-9.5-25.7-13.5-41-11.5c-10.2,1.3-19.2,5.3-27.2,11.8c-1.7,1.4-2.5,3.1-2,5.2
		c0.9,3.9,5.1,5.1,8.4,2.5c12.8-10,26.9-12.5,42.3-7.5c5.1,1.6,9.6,4.4,13.7,7.8c1.6,1.4,3.5,1.5,5.4,0.7c1.9-0.9,2.7-2.5,2.8-4.3
		C86.2,45,85.5,43.7,83.7,42.3z"/>
	<path class="st0" d="M70.3,55.7c-6.1-4.4-13-6.6-20.3-6.6c-7.7,0.1-14.6,2.2-20.7,6.6c-2.7,2-3.4,4.9-1.7,7.3
		c1.7,2.4,4.7,2.8,7.5,0.8c9.1-6.3,20.2-6.3,29.3,0c2.7,1.9,5.8,1.5,7.5-0.9C73.6,60.6,73,57.6,70.3,55.7z"/>
	<path class="st0" d="M91.6,59.8v5.8h-4.4v23h-7.5v-23h-4.4v-5.8H91.6z"/>
	<path class="st0" d="M49.8,67.3c-5.9,0-10.5,4.7-10.5,10.6c0,5.8,4.7,10.5,10.6,10.5s10.5-4.7,10.5-10.6
		C60.4,72.1,55.6,67.3,49.8,67.3z M49.6,82.4c-2.4,0-4.4-2-4.4-4.4s2-4.4,4.4-4.4c2.4,0,4.4,2,4.4,4.4S52,82.4,49.6,82.4z"/>
	<path class="st0" d="M19.6,59.8v28.7h-7.5V59.8H19.6z"/>
</g>
</svg>
