<?xml version="1.0" encoding="utf-8"?>
<!-- Generator: Adobe Illustrator 24.3.0, SVG Export Plug-In . SVG Version: 6.00 Build 0)  -->
<svg version="1.1" id="Camada_1" xmlns="http://www.w3.org/2000/svg" xmlns:xlink="http://www.w3.org/1999/xlink" x="0px" y="0px"
	 viewBox="0 0 322.2 393" style="enable-background:new 0 0 322.2 393;" xml:space="preserve">
<style type="text/css">
	.st0{fill:#F4EDAE;enable-background:new    ;}
	.st1{fill:#FFFFFF;stroke:#7C007B;stroke-width:7;stroke-miterlimit:10;}
	.st2{fill:#FFFFFF;stroke:#FF5DFB;stroke-width:7;stroke-miterlimit:10;}
	.st3{fill:#00F6D8;}
</style>
<circle class="st0" cx="161.1" cy="196.5" r="161.1"/>
<g>
	<g>
		<circle class="st1" cx="161.1" cy="232.2" r="46.2"/>
		<path class="st1" d="M212.8,287.7H109.3c-5.5,0-10.1,4.5-10.1,10.1v81.6c0,5.5,4.5,10.1,10.1,10.1h103.4c5.5,0,10.1-4.5,10.1-10.1
			v-81.6C222.9,292.3,218.3,287.7,212.8,287.7z"/>
	</g>
	<g>
		<circle class="st2" cx="161.1" cy="81.5" r="78"/>
		<g>
			<g>
				<path class="st3" d="M148.3,105.9l-28-24.5c-1.5-1.3-1.6-3.5-0.3-4.9c1.3-1.5,3.5-1.6,4.9-0.3l23.3,20.4l49-44.4
					c1.4-1.3,3.6-1.2,4.9,0.2s1.2,3.6-0.2,4.9L148.3,105.9z"/>
				<path class="st3" d="M148.3,111.9c-1.4,0-2.8-0.5-4-1.5l-28-24.5c-1.9-1.7-3.1-4-3.2-6.5c-0.2-2.5,0.7-5,2.3-6.9
					c3.5-3.9,9.5-4.3,13.4-0.9l19.3,16.9l45.1-40.8c1.9-1.7,4.3-2.6,6.8-2.4c2.5,0.1,4.9,1.2,6.6,3.1c1.7,1.9,2.6,4.3,2.4,6.8
					c-0.1,2.5-1.2,4.9-3.1,6.6l-53.6,48.6C151.2,111.4,149.7,111.9,148.3,111.9z"/>
			</g>
		</g>
	</g>
</g>
</svg>
