<?xml version="1.0" encoding="utf-8"?>
<!-- Generator: Adobe Illustrator 24.3.0, SVG Export Plug-In . SVG Version: 6.00 Build 0)  -->
<svg version="1.1" id="Camada_1" xmlns="http://www.w3.org/2000/svg" xmlns:xlink="http://www.w3.org/1999/xlink" x="0px" y="0px"
	 viewBox="0 0 322.2 322.2" style="enable-background:new 0 0 322.2 322.2;" xml:space="preserve">
<style type="text/css">
	.st0{fill:#F4EDAE;enable-background:new    ;}
	.st1{fill:#FF5DFB;}
	.st2{fill:#FFFFFF;stroke:#7C007B;stroke-width:7;stroke-miterlimit:10;}
	.st3{fill:#00F6D8;}
	.st4{fill:#FFF88C;stroke:#FF5DFB;stroke-width:7;stroke-miterlimit:10;}
	.st5{fill:#FFFFFF;}
	.st6{fill:#7C007B;}
	.st7{fill:#FF6B75;}
</style>
<circle class="st0" cx="161.1" cy="161.1" r="161.1"/>
<g>
	<path class="st1" d="M212.1,267.2H111c-5.3,0-9.7-4.4-9.7-9.7V78.1c0-5.3,4.4-9.7,9.7-9.7h101.1c5.3,0,9.7,4.4,9.7,9.7v179.5
		C221.8,262.9,217.4,267.2,212.1,267.2z"/>
	<g>
		<path class="st2" d="M131.2,316.2h-72c-5.3,0-9.7-4.4-9.7-9.7V183.6c0-5.3,4.4-9.7,9.7-9.7h72c5.3,0,9.7,4.4,9.7,9.7v122.9
			C140.9,311.8,136.5,316.2,131.2,316.2z"/>
		<circle class="st3" cx="95.2" cy="301.2" r="8.9"/>
		<path class="st4" d="M119.1,286H71.4c-5.3,0-9.7-4.4-9.7-9.7v-79.6c0-5.3,4.4-9.7,9.7-9.7h47.7c5.3,0,9.7,4.4,9.7,9.7v79.6
			C128.8,281.6,124.4,286,119.1,286z"/>
	</g>
	<path class="st5" d="M263.8,82.9H155.5c-5.3,0-9.7-4.4-9.7-9.7V15c0-5.3,4.4-9.7,9.7-9.7h108.3c5.3,0,9.7,4.4,9.7,9.7v58.2
		C273.5,78.6,269.1,82.9,263.8,82.9z"/>
	<g>
		<g>
			<path class="st6" d="M276.6,9.8c-0.6-1.9-1.5-3.5-2.8-4.9c-2.3-2.4-5.6-4-9.1-4H153.9c-3.5,0-6.6,1.4-8.9,3.6
				c-1.4,1.4-2.3,3-3,4.9c-0.4,1.3-0.6,2.6-0.6,4V74c0,6.9,5.7,12.5,12.5,12.5h110.8c6.9,0,12.5-5.7,12.5-12.5V13.5
				C277.1,12.1,277,10.9,276.6,9.8z M271.5,74c0,3.8-3.1,6.9-6.9,6.9H153.9c-3.8,0-6.9-3.1-6.9-6.9V13.4c0-0.4,0-0.8,0.1-1.2
				c0.3-2,1.5-3.7,3.2-4.7c1.1-0.6,2.3-1,3.6-1h110.8c1.5,0,2.8,0.5,4,1.2c1.6,1.1,2.7,2.8,2.9,4.9c0,0.2,0,0.5,0,0.8V74H271.5z"/>
		</g>
		<g>
			<path class="st6" d="M150.3,7.5l33.2,18.7c1.1,0.6,1.6,1.9,1.3,3.2v0.1c-0.5,1.7-2.4,2.6-4,1.7l-33.7-18.9l-2.9-1.6
				c-1.4-0.7-1.8-2.5-1-3.8c0-0.1,0.1-0.1,0.1-0.2c0.8-1.2,2.4-1.6,3.6-1L150.3,7.5z"/>
			<path class="st6" d="M275.4,7.2c0.7,1.3,0.3,3-1.1,3.8l-3,1.7L239,30.9c-1.5,0.9-3.5,0.1-4-1.7c0,0,0,0,0-0.1
				c-0.4-1.2,0.2-2.6,1.3-3.2l32.3-18.1l3.2-1.8c1.3-0.7,3-0.2,3.7,1C275.4,7.1,275.4,7.1,275.4,7.2z"/>
		</g>
		<path class="st7" d="M229.9,26.9c-1.7-3.6-4.2-6.2-7.5-7.9c-3.3-1.8-7.4-2.7-12.4-2.7s-9.1,0.9-12.5,2.7c-3.3,1.8-5.8,4.4-7.5,7.9
			c-1.7,3.6-2.5,7.9-2.6,13.3c0,1.4,0,2.7,0,4c0,1.4,0,2.7,0,4c0,4.9,0.8,9,2.5,12.2s4.2,5.7,7.5,7.4c3.3,1.6,7.5,2.4,12.6,2.4h6.1
			c1.5,0,2.7-1.2,2.7-2.7l0,0c0-1.5-1.2-2.7-2.7-2.7H210c-3.9,0-7-0.6-9.5-1.9s-4.4-3.1-5.7-5.6s-1.9-5.6-1.9-9.3c0-1.4,0-2.7,0-4
			c0-1.4,0-2.7,0-4c0-4.2,0.7-7.7,1.9-10.4c1.3-2.7,3.2-4.9,5.7-6.2c2.5-1.4,5.7-2.1,9.5-2.1c3.7,0,6.8,0.7,9.4,2.1
			c2.5,1.4,4.4,3.5,5.7,6.2s1.9,6.2,1.9,10.3v9.8c0,1.5-0.2,2.6-0.6,3.2c-0.4,0.6-1.1,1-2,1s-1.5-0.3-2-1.1
			c-0.4-0.7-0.6-1.8-0.6-3.2V41c0-4.4-1-7.8-2.9-9.9c-1.9-2.2-4.9-3.3-8.8-3.3c-4,0-6.9,1.1-8.9,3.3c-1.9,2.2-2.9,5.5-2.9,9.9v5.1
			c0,4.4,0.9,7.8,2.6,9.9c1.7,2.2,4.3,3.3,7.8,3.3c2.6,0,4.6-0.6,6.1-1.8c0.8-0.6,1.5-1.5,1.9-2.4c0.3,0.7,0.7,1.3,1.2,1.9
			c1.5,1.5,3.6,2.3,6.5,2.3c2.7,0,4.8-0.8,6.1-2.4c1.5-1.6,2.1-4.1,2.1-7.5v-9.2C232.4,34.9,231.6,30.5,229.9,26.9z M214.5,52
			c-1,1.2-2.5,1.9-4.6,1.9c-2,0-3.5-0.6-4.5-1.9c-1-1.2-1.5-3.2-1.5-5.7v-5.6c0-5,2-7.5,6-7.5c2,0,3.6,0.6,4.6,1.9s1.5,3.2,1.5,5.6
			v5.7C215.9,48.9,215.5,50.7,214.5,52z"/>
	</g>
	<g>
		<path class="st6" d="M118.4,47.8H93.2c-7,0-12.5,5.6-12.5,12.5v70.6c0,1.5,1.3,2.8,2.8,2.8s2.8-1.3,2.8-2.8V60.3
			c0-3.8,3.1-6.9,6.9-6.9h26.3C118.7,51.7,118.3,49.7,118.4,47.8z"/>
	</g>
	<g>
		<path class="st6" d="M240.4,133.7c-1.5,0-2.8,1.3-2.8,2.8v143.7c0,3.8-3.1,6.9-6.9,6.9h-55.5c0.4,1.7,0.3,3.6-0.1,5.3
			c0,0.2-0.1,0.2-0.1,0.4h55.8c7,0,12.5-5.6,12.5-12.5V136.5C243.2,135,241.9,133.7,240.4,133.7z"/>
	</g>
	<g>
		<path class="st6" d="M181.4,303.7l-11.6-10.9c-1.7-1.6-1.7-4.3,0-5.9l11.6-10.9c1.1-1.1,2.9-1.1,4,0.1l0,0c1.1,1.1,1.1,2.9-0.1,4
			L175,290l10.3,9.8c1.1,1.1,1.2,2.8,0.1,4l0,0C184.3,304.8,182.6,304.8,181.4,303.7z"/>
	</g>
	<g>
		<path class="st6" d="M108.7,64.4l11.6-10.9c1.7-1.6,1.7-4.3,0-5.9l-11.6-10.9c-1.1-1.1-2.9-1.1-4,0.1l0,0c-1.1,1.1-1.1,2.9,0.1,4
			l10.3,9.9l-10.3,9.8c-1.1,1.1-1.2,2.8-0.1,4l0,0C105.7,65.5,107.5,65.5,108.7,64.4z"/>
	</g>
</g>
</svg>
