<?xml version="1.0" encoding="utf-8"?>
<!-- Generator: Adobe Illustrator 24.3.0, SVG Export Plug-In . SVG Version: 6.00 Build 0)  -->
<svg version="1.1" id="Camada_1" xmlns="http://www.w3.org/2000/svg" xmlns:xlink="http://www.w3.org/1999/xlink" x="0px" y="0px"
	 viewBox="0 0 56 54.3" style="enable-background:new 0 0 56 54.3;" xml:space="preserve">
<style type="text/css">
	.st0{fill:#FFFFFF;}
</style>
<g>
	<path class="st0" d="M53.2,19c0.2-0.4,0.3-0.7,0.4-1c0.3-0.7,0.9-0.8,1.5-0.6c0.7,0.2,1,0.8,0.8,1.4c-0.6,1.8-1.2,3.6-1.9,5.4
		c-0.4,0.9-1.6,1.1-2.3,0.4c-1.4-1.3-2.7-2.6-4-4c-0.4-0.5-0.4-1.1,0-1.5c0.4-0.5,1-0.6,1.5-0.3c0.3,0.2,0.6,0.4,0.9,0.7
		c0.3-0.5,0-1-0.2-1.4c-3.6-8.5-10-13.7-19.1-15.2C15.5,0.3,1.4,13.1,2.6,28.6c0.8,10.4,6.3,17.7,16,21.6c2.6,1.1,5.3,1.5,8.1,1.6
		c1.1,0,1.7,0.4,1.7,1.2c0,0.8-0.6,1.2-1.7,1.2c-12.6,0-23.9-9.6-26.2-22.1C-2.1,18.4,6.1,5.1,19.5,1.1c13.7-4.1,28.5,3.5,33.2,17
		C52.9,18.4,52.9,18.8,53.2,19z"/>
	<path class="st0" d="M35.7,21.8c-0.1,0.5-0.5,0.8-0.9,1.1c-0.7,0.5-0.5,1-0.3,1.7c0.2,0.7,0.7,0.7,1.2,0.7c1.7,0,1.7,0,1.7,1.7
		c0,0.1,0,0.3,0,0.4c0,1.6,0,1.7-1.6,1.6c-0.8,0-1.2,0.2-1.5,1c-0.2,0.5-0.1,0.8,0.2,1.1c0.3,0.3,0.6,0.6,0.8,0.8
		c0.6,0.6,0.1,1.1-0.3,1.4c-0.7,0.5-0.9,1.9-2.3,1.2c-0.2-0.1-0.4-0.3-0.6-0.6c-0.5-0.6-1-0.8-1.8-0.4c-0.8,0.3-0.7,0.9-0.7,1.5
		c0,1.5-0.1,1.6-1.6,1.6c-0.2,0-0.4,0-0.6,0c-1.5,0-1.6-0.1-1.6-1.6c0-0.6,0.1-1.1-0.7-1.5c-0.8-0.3-1.3-0.1-1.8,0.5
		c-1,1.1-1.1,1.1-2.1,0c-0.1-0.1-0.2-0.2-0.3-0.3c-1.3-1.3-1.3-1.3,0-2.5c0.7-0.6,0.3-1.1,0.2-1.8c-0.2-0.6-0.7-0.5-1.1-0.5
		c-0.6-0.1-1.5,0.3-1.7-0.4c-0.3-0.9-0.3-2,0-2.9c0.2-0.6,1-0.4,1.5-0.3c0.8,0.1,1.3-0.2,1.5-1c0.2-0.6,0-0.9-0.3-1.2
		c-1.3-1.3-1.3-1.3,0-2.6c0.2-0.2,0.3-0.3,0.5-0.5c0.6-0.7,1.1-0.6,1.7,0c0.4,0.4,0.6,1.1,1.5,0.9c0.9-0.2,1.3-0.7,1.2-1.7
		c-0.1-1.5,0-1.5,1.5-1.5c0.1,0,0.3,0,0.4,0c1.8,0,1.8,0,1.8,1.8c0,0.6,0.1,1,0.7,1.2c0.6,0.2,1.1,0.3,1.6-0.3
		c0.2-0.2,0.4-0.4,0.6-0.6c0.2-0.2,0.4-0.3,0.6-0.3C33.9,19.4,35.7,21.3,35.7,21.8z M24.6,27.2c0,1.9,1.5,3.5,3.4,3.4
		c1.9,0,3.4-1.6,3.4-3.5c0-1.8-1.5-3.3-3.4-3.4C26.2,23.8,24.6,25.3,24.6,27.2z"/>
	<path class="st0" d="M42.1,34.4c1.1,0.6,2.4,1,3.2,2c0.4,0.4,0.2,1-0.1,1.4c-0.3,0.4-0.8,0.6-1.2,0.4c-1-0.4-2-1-2.8-1.6
		c-0.4-0.3-0.5-0.8-0.3-1.4C41,34.7,41.4,34.5,42.1,34.4z"/>
	<path class="st0" d="M17.3,45.5c-0.9,0-1.5-0.9-1.1-1.8c0.4-0.9,0.9-1.7,1.4-2.5c0.4-0.6,1-0.7,1.6-0.4c0.6,0.3,0.9,0.9,0.6,1.5
		c-0.4,0.9-1,1.8-1.5,2.7C18.1,45.3,17.7,45.5,17.3,45.5z"/>
	<path class="st0" d="M38.3,44.1c-0.1,0.7-0.3,1.1-0.8,1.3c-0.4,0.2-0.9,0.2-1.2-0.1c-0.8-0.9-1.6-2-1.8-3.2c-0.2-0.9,1-1.7,1.7-1.2
		C37.4,41.7,37.8,43,38.3,44.1z"/>
	<path class="st0" d="M10.3,38.3C9.6,38.2,9.2,38,9,37.4c-0.2-0.6-0.1-1.1,0.4-1.4c0.8-0.5,1.7-1,2.6-1.5c0.5-0.3,1-0.1,1.3,0.3
		c0.4,0.4,0.6,0.9,0.2,1.4C12.7,37.3,11.3,37.7,10.3,38.3z"/>
	<path class="st0" d="M28.5,45.7c0,0.4,0,0.8,0,1.2c-0.1,0.7-0.4,1.2-1.2,1.2c-0.8,0-1.2-0.4-1.3-1.1c-0.1-0.9,0-1.8,0-2.7
		c0-0.8,0.5-1.3,1.3-1.3c0.8,0,1.2,0.5,1.2,1.3C28.5,44.7,28.5,45.2,28.5,45.7z"/>
	<path class="st0" d="M28.4,8.9c0,0.5,0.1,0.9,0,1.4c-0.1,0.6-0.5,1-1.2,1c-0.7,0-1.2-0.3-1.3-1c-0.1-1.1-0.1-2.1,0.1-3.2
		c0.1-0.6,0.6-0.9,1.1-0.9c0.6,0,1,0.3,1.1,0.9C28.4,7.7,28.5,8.3,28.4,8.9C28.5,8.9,28.5,8.9,28.4,8.9z"/>
	<path class="st0" d="M10.3,16c1,0.5,2.3,1,3.2,2c0.4,0.4,0.2,0.9-0.1,1.3c-0.3,0.4-0.8,0.6-1.2,0.5c-1.1-0.4-2.1-1-3-1.7
		c-0.4-0.3-0.5-0.9-0.2-1.4C9.3,16.3,9.7,16.1,10.3,16z"/>
	<path class="st0" d="M42.2,19.9c-0.8,0-1.2-0.3-1.4-0.8c-0.2-0.5-0.1-1,0.4-1.3c0.9-0.6,1.7-1.1,2.7-1.5c0.5-0.3,1-0.1,1.4,0.4
		c0.3,0.4,0.4,1,0.1,1.4C44.4,18.9,43.2,19.4,42.2,19.9z"/>
	<path class="st0" d="M19.9,12.2c0,0.8-0.3,1.2-0.8,1.4c-0.5,0.2-1,0.1-1.3-0.4c-0.6-0.9-1.1-1.8-1.6-2.8c-0.2-0.5,0-1,0.4-1.3
		c0.4-0.3,1-0.4,1.4-0.1C19,10,19.4,11.2,19.9,12.2z"/>
	<path class="st0" d="M8.7,28.4c-0.4,0-0.7,0-1.1,0c-0.8,0-1.3-0.4-1.3-1.2c0-0.8,0.4-1.2,1.2-1.3c0.9,0,1.8,0,2.7,0
		c0.7,0,1.1,0.4,1.1,1.1c0,0.7-0.4,1.1-1.1,1.2C9.8,28.5,9.2,28.4,8.7,28.4C8.7,28.4,8.7,28.4,8.7,28.4z"/>
	<path class="st0" d="M38.3,10.3c-0.5,1-1,2.3-2,3.2c-0.4,0.4-1,0.3-1.5-0.1c-0.5-0.4-0.6-0.9-0.3-1.4c0.4-0.9,0.9-1.7,1.4-2.5
		c0.3-0.5,0.8-0.7,1.4-0.5C38,9.1,38.3,9.6,38.3,10.3z"/>
	<path class="st0" d="M45.7,26c0.6,0.3,1.5-0.5,2.1,0.5c0.3,0.5,0.2,1,0.1,1.4c-0.1,0.4-0.6,0.6-1,0.6c-0.9,0-1.7,0-2.6,0
		c-0.8,0-1.3-0.6-1.2-1.4c0.1-0.8,0.5-1.2,1.4-1.1C44.8,26,45.2,26,45.7,26z"/>
</g>
</svg>
