<?xml version="1.0" encoding="utf-8"?>
<!-- Generator: Adobe Illustrator 24.3.0, SVG Export Plug-In . SVG Version: 6.00 Build 0)  -->
<svg version="1.1" id="Camada_1" xmlns="http://www.w3.org/2000/svg" xmlns:xlink="http://www.w3.org/1999/xlink" x="0px" y="0px"
	 viewBox="0 0 320 352.1" style="enable-background:new 0 0 320 352.1;" xml:space="preserve">
<style type="text/css">
	.st0{fill:#F4EDAE;enable-background:new    ;}
	.st1{fill:#00F6D8;}
	.st2{fill:#00F6D8;stroke:#00F6D8;stroke-width:12;stroke-miterlimit:10;}
	.st3{fill:#FFFFFF;stroke:#FF5DFB;stroke-width:7;stroke-miterlimit:10;}
	.st4{fill:#FF5DFB;}
	.st5{fill:#FFFFFF;stroke:#FF6B75;stroke-width:7;stroke-miterlimit:10;}
	.st6{fill:#FFFFFF;stroke:#7C007B;stroke-width:7;stroke-miterlimit:10;}
	.st7{fill:#7C007B;}
	.st8{fill:none;stroke:#7C007B;stroke-width:7;stroke-miterlimit:10;}
	.st9{fill:#FFFFFF;}
</style>
<circle class="st0" cx="160" cy="176.5" r="161.1"/>
<path class="st1" d="M157.4,196.1H92.6c0.7-5.9,5.8-10.5,11.9-10.5h41C151.6,185.6,156.7,190.2,157.4,196.1z"/>
<path class="st2" d="M86,51.1c0,5.2-4.3,9.5-9.5,9.5v-19C81.7,41.6,86,45.9,86,51.1z"/>
<path class="st3" d="M264.5,263.6h-27c-6.6,0-12-5.4-12-12v-90c0-6.6,5.4-12,12-12h27c6.6,0,12,5.4,12,12v90
	C276.5,258.2,271.1,263.6,264.5,263.6z"/>
<path class="st3" d="M243,244.4l-5.1-8.7c-3.1-5.4-10.2-7.2-15.6-4.1l-49.6,28.2c-2.9,1.6-4.7,4.3-5.4,7.3c-0.8,1.6-1.2,3.4-1.2,5.3
	v63.3c0,7.1,5.9,12.9,13.1,12.9s13.1-5.8,13.1-12.9v-49.4l46.6-26.5C244.2,256.7,246.1,249.8,243,244.4z"/>
<circle class="st3" cx="244" cy="101.1" r="36.5"/>
<path class="st4" d="M64.1,176.6l-14,39.3l-11.3-4l13.1-36.7c1.7,0.9,3.6,1.4,5.7,1.4H64.1L64.1,176.6z"/>
<path class="st5" d="M76.5,42.6v122c0,6.6-5.4,12-12,12h-7c-2,0-4-0.5-5.7-1.4c-3.8-2-6.3-6-6.3-10.6v-122c0-6.6,5.4-12,12-12h7
	C71.1,30.6,76.5,36,76.5,42.6z"/>
<path class="st6" d="M186,208.1v1.5c0,6.6-5.4,12-12,12h-55.1c0,18,1.1,101.2,1.1,101.2c6.1,0.8,11.5,3.9,15.3,8.3
	s6.2,10.2,6.2,16.5h-88c0-12.6,9.3-23,21.5-24.8c0,0,1.1-80.2,1.1-101.2H21c-6.6,0-12-5.4-12-12v-1.5c0-6.6,5.4-12,12-12h153
	C180.6,196.1,186,201.5,186,208.1z"/>
<path class="st7" d="M221.5,282.6v-2c0-6.6,5.4-12,12-12h46c6.6,0,12,5.4,12,12v2"/>
<path class="st6" d="M297.5,290.3c0,2.1-0.6,4.1-1.5,5.5s-2.2,2.3-3.5,2.3h-73c-2.8,0-5-3.5-5-7.8c0-2.1,0.6-4.1,1.5-5.5
	s2.2-2.3,3.5-2.3h73C295.2,282.6,297.5,286.1,297.5,290.3z"/>
<path class="st7" d="M298.2,155.1H296c-6.6,0-12,5.4-12,12v46c0,6.6,5.4,12,12,12h2"/>
<path class="st6" d="M305,150.1c1.9,0,3.7,0.7,4.9,1.9c1.3,1.2,2.1,2.7,2.1,4.5v92.3c0,3.5-3.2,6.3-7,6.3c-1.9,0-3.7-0.7-4.9-1.9
	c-1.3-1.2-2.1-2.7-2.1-4.5v-92.3C298,152.9,301.1,150.1,305,150.1z"/>
<path class="st6" d="M297.5,290.3c0,0,7,0.2,7.5-35.3"/>
<line class="st8" x1="256.5" y1="297.6" x2="256.5" y2="339.6"/>
<line class="st8" x1="229.5" y1="348.6" x2="256.5" y2="336.6"/>
<line class="st8" x1="283.5" y1="348.6" x2="256.5" y2="336.6"/>
<g>
	<path class="st9" d="M92.5,27.1c-0.6,0-1.3-0.2-1.9-0.5c-1.6-1-2.1-3.2-1.1-4.8l10-16c1-1.6,3.2-2.1,4.8-1.1c1.6,1,2.1,3.2,1.1,4.8
		l-10,16C94.8,26.5,93.7,27.1,92.5,27.1z"/>
</g>
<g>
	<path class="st9" d="M105.1,47.4c-1.6-0.1-2.9-1.2-3.2-2.9c-0.4-1.9,0.9-3.7,2.8-4.1l24.3-4.5c1.9-0.4,3.7,0.9,4.1,2.8
		s-0.9,3.7-2.8,4.1L106,47.3C105.7,47.4,105.4,47.4,105.1,47.4z"/>
</g>
<g>
	<path class="st9" d="M116.2,83.1c-0.5,0-0.9-0.1-1.4-0.4l-14.4-10c-1.4-0.9-1.8-3.1-1.1-4.8c0.8-1.7,2.5-2.3,3.8-1.4l14.4,10
		c1.4,0.9,1.8,3.1,1.1,4.8C118.1,82.5,117.2,83.1,116.2,83.1z"/>
</g>
<path class="st3" d="M236,187.6h-92c-5.8,0-10.5-4.7-10.5-10.5v-4c0-5.8,4.7-10.5,10.5-10.5h92c5.8,0,10.5,4.7,10.5,10.5v4
	C246.5,182.9,241.8,187.6,236,187.6z"/>
<line class="st8" x1="77" y1="221.6" x2="120" y2="221.6"/>
</svg>
