<?xml version="1.0" encoding="utf-8"?>
<!-- Generator: Adobe Illustrator 24.3.0, SVG Export Plug-In . SVG Version: 6.00 Build 0)  -->
<svg version="1.1" id="Camada_1" xmlns="http://www.w3.org/2000/svg" xmlns:xlink="http://www.w3.org/1999/xlink" x="0px" y="0px"
	 viewBox="0 0 300 289.3" style="enable-background:new 0 0 300 289.3;" xml:space="preserve">
<style type="text/css">
	.st0{fill:#429942;}
	.st1{fill:#F0F0F0;}
	.st2{fill:#E6E6E6;}
	.st3{fill:#E0E0E0;}
	.st4{fill:#664D3C;}
	.st5{fill:#455A64;}
	.st6{fill:#BC641D;}
	.st7{fill:#F29037;}
	.st8{fill:#FAFAFA;}
	.st9{fill:#BA68C8;}
	.st10{opacity:0.8;fill:#FFFFFF;enable-background:new    ;}
	.st11{fill:#99D5DD;}
	.st12{opacity:0.15;}
	.st13{opacity:0.65;fill:#FFFFFF;enable-background:new    ;}
	.st14{fill:#83BFC4;}
	.st15{opacity:0.9;fill:#FFFFFF;enable-background:new    ;}
	.st16{opacity:0.6;fill:#FFFFFF;enable-background:new    ;}
	.st17{opacity:0.7;fill:#FFFFFF;enable-background:new    ;}
	.st18{opacity:5.000000e-02;enable-background:new    ;}
	.st19{opacity:0.45;enable-background:new    ;}
	.st20{fill:#263238;}
	.st21{fill:#288E51;}
	.st22{fill:#156836;}
	.st23{fill:#863896;}
	.st24{fill:#FFFFFF;}
	.st25{fill:#B729AD;}
	.st26{opacity:0.15;enable-background:new    ;}
	.st27{fill:#F16B6C;}
	.st28{fill:#D9DD26;}
	.st29{fill:#6F7235;}
	.st30{fill:#37474F;}
	.st31{opacity:0.3;fill:#FFFFFF;enable-background:new    ;}
	.st32{fill:#B16668;}
	.st33{fill:#61B6D8;}
	.st34{fill:#3C3484;}
	.st35{opacity:0.2;enable-background:new    ;}
	.st36{fill:#9A4A4D;}
	.st37{fill:#FFA8A7;}
	.st38{fill:#7F2668;}
	.st39{fill:#A89F6C;}
	.st40{fill:#F28F8F;}
	.st41{opacity:0.5;}
	.st42{fill:#F5F5F5;}
	.st43{opacity:0.7;enable-background:new    ;}
	.st44{fill:#EBEBEB;}
</style>
<g id="freepik--Floor--inject-119">
	<path class="st0" d="M247.8,144c-60.3-35.9-155.4-38.5-220.5-7.6l233.3,139.1C312.3,236.5,308.1,179.9,247.8,144z"/>
	<path class="st1" d="M167.7,226c-8.9,5.3-14.6,11.8-17,18.7l74,44.1c11.5-1.4,22.4-4.8,31.4-10.1c1.7-1,3.3-2.1,4.8-3.2l-87.8-52.3
		C171.3,223.9,169.5,224.9,167.7,226z"/>
	<polygon class="st2" points="217.8,284.5 247,267.1 248.1,267.8 218.8,285.2 	"/>
	<polygon class="st2" points="187.4,266.5 216.7,249 217.8,249.7 188.5,267.1 	"/>
	<polygon class="st2" points="157.1,248.4 186.3,231 187.4,231.6 158.1,249 	"/>
	<path class="st3" d="M219.2,289.3c1.9-0.1,3.7-0.3,5.6-0.5l-74-44.1l0,0c-0.4,1.1-0.7,2.2-0.9,3.3L219.2,289.3z"/>
	<path class="st1" d="M108.8,190.8c-8.9,5.3-14.6,11.8-17,18.7l74,44.1c11.5-1.4,22.4-4.8,31.4-10.1c1.7-1,3.3-2.1,4.8-3.2
		l-87.8-52.3C112.3,188.8,110.6,189.8,108.8,190.8z"/>
	<polygon class="st2" points="158.8,249.4 188.1,232 189.2,232.6 159.9,250 	"/>
	<polygon class="st2" points="128.5,231.3 157.8,213.9 158.8,214.5 129.6,232 	"/>
	<polygon class="st2" points="98.1,213.2 127.4,195.8 128.5,196.4 99.2,213.9 	"/>
	<path class="st3" d="M160.2,254.1c1.9-0.1,3.7-0.3,5.6-0.5l-74-44.1l0,0c-0.4,1.1-0.7,2.2-0.9,3.3L160.2,254.1z"/>
	<path class="st1" d="M46.7,153.9c-8.9,5.3-14.5,11.8-17,18.7l74,44.1c11.5-1.4,22.4-4.8,31.4-10.1c1.7-1,3.3-2.1,4.8-3.2
		l-87.8-52.3C50.2,151.9,48.5,152.9,46.7,153.9z"/>
	<polygon class="st2" points="96.7,212.5 126,195.1 127.1,195.8 97.8,213.2 	"/>
	<polygon class="st2" points="66.4,194.5 95.7,177 96.7,177.7 67.5,195.1 	"/>
	<polygon class="st2" points="36,176.4 65.3,158.9 66.4,159.5 37.1,177 	"/>
	<path class="st3" d="M98.1,217.3c1.9-0.1,3.7-0.3,5.6-0.5l-74-44.1l0,0c-0.4,1.1-0.7,2.2-0.9,3.3L98.1,217.3z"/>
	<path class="st1" d="M17.9,136.6c-8.9,5.3-14.6,11.8-17,18.7l74,44.1c11.5-1.4,22.4-4.8,31.4-10.1c1.7-1,3.3-2.1,4.8-3.2
		l-87.8-52.3C21.4,134.6,19.6,135.5,17.9,136.6z"/>
	<polygon class="st2" points="67.9,195.2 97.2,177.7 98.3,178.4 69,195.8 	"/>
	<polygon class="st2" points="37.6,177.1 66.8,159.6 67.9,160.3 38.6,177.7 	"/>
	<polygon class="st2" points="7.2,159 36.5,141.6 37.6,142.2 8.3,159.6 	"/>
	<path class="st3" d="M69.3,199.9c1.9-0.1,3.7-0.3,5.6-0.5l-74-44.1l0,0c-0.4,1.1-0.7,2.2-0.9,3.3L69.3,199.9z"/>
</g>
<g id="freepik--Buildings--inject-119">
	<polygon class="st4" points="154.3,165.9 158.9,156.5 159.6,156.9 155.1,166.2 	"/>
	<polygon class="st4" points="149.8,156.3 150.5,155.8 154.9,163.3 154.2,163.7 	"/>
	<path class="st4" d="M155.5,154.9v22.5c0,0.1-0.1,0.2-0.2,0.3c-0.3,0.1-0.7,0.1-1,0c-0.1-0.1-0.2-0.1-0.2-0.3v-22.5H155.5z"/>
	<ellipse class="st5" cx="161.7" cy="148" rx="10.1" ry="10.4"/>
	<path class="st6" d="M164.9,145.3c1.3-4.2,2.7-5.9,1.8-6.4c-4.8-2.9-11-1.1-13.8,3.9c-2.8,5-1.1,11.4,3.8,14.3
		c4.3,2.5,9.7,1.5,12.8-2.5C166.5,155.5,163.2,150.8,164.9,145.3z"/>
	<ellipse class="st7" cx="145.9" cy="150.9" rx="7.1" ry="7.3"/>
	<path class="st6" d="M145.9,143.6c-1.5,0-3,0.5-4.1,1.3c-0.2,4.5,3.5,8.8,2.5,10.3c-1,1.5-3.6,0.6-4.4-0.6c2,3.5,6.3,4.7,9.7,2.6
		s4.6-6.5,2.6-10C150.8,145,148.4,143.5,145.9,143.6L145.9,143.6z"/>
	<ellipse class="st7" cx="154.7" cy="143" rx="13" ry="13.4"/>
	<path class="st6" d="M167.3,146.1c-1.7,7.3-8.7,11.7-15.6,10c-6.9-1.7-11.4-9-9.7-16.1c0.8-3.6,3.1-6.8,6.3-8.6
		c-1.1,0.6-2.1,1.5-3,2.5c-0.2,1-0.3,2.1-0.3,3c0,7.4,5.8,13.4,13,13.4C161.5,150.3,165,148.8,167.3,146.1L167.3,146.1z"/>
	<polygon class="st8" points="228.7,257 153.1,211.8 214.6,175.3 290.3,220.3 	"/>
	<polygon class="st1" points="153.1,211.8 228.7,257 228.7,260.3 153.1,215.2 	"/>
	<polygon class="st3" points="290.3,220.3 228.7,257 228.7,260.3 290.3,223.6 	"/>
	<polygon class="st9" points="165.7,29.2 186.7,41.7 186.7,225.2 165.7,212.8 	"/>
	<polygon class="st10" points="165.7,29.2 186.7,41.7 186.7,225.2 165.7,212.8 	"/>
	<polygon class="st9" points="207.7,54.2 228.7,66.7 228.7,250.3 207.7,237.8 	"/>
	<polygon class="st10" points="207.7,54.2 228.7,66.7 228.7,250.3 207.7,237.8 	"/>
	<polygon class="st11" points="172.7,200.3 172.7,208.6 179.7,212.8 179.7,204.4 	"/>
	<polygon class="st11" points="172.7,187.7 172.7,196.1 179.7,200.3 179.7,191.9 	"/>
	<polygon class="st11" points="172.7,171 172.7,179.4 179.7,183.5 179.7,175.2 	"/>
	<polygon class="st11" points="172.7,158.5 172.7,166.9 179.7,171 179.7,162.7 	"/>
	<polygon class="st11" points="172.7,83.4 172.7,91.8 179.7,96 179.7,87.6 	"/>
	<polygon class="st11" points="172.7,70.9 172.7,79.2 179.7,83.4 179.7,75.1 	"/>
	<polygon class="st9" points="172.7,41.7 172.7,50.1 179.7,54.2 179.7,45.9 	"/>
	<polygon class="st11" points="214.6,225.2 214.6,233.6 221.7,237.8 221.7,229.4 	"/>
	<polygon class="st11" points="214.6,212.8 214.6,221.1 221.7,225.2 221.7,216.9 	"/>
	<polygon class="st11" points="214.6,196.1 214.6,204.4 221.7,208.6 221.7,200.3 	"/>
	<polygon class="st11" points="214.6,183.5 214.6,191.9 221.7,196.1 221.7,187.7 	"/>
	<polygon class="st11" points="214.6,108.4 214.6,116.8 221.7,120.9 221.7,112.6 	"/>
	<polygon class="st11" points="214.6,96 214.6,104.3 221.7,108.4 221.7,100.1 	"/>
	<polygon class="st9" points="214.6,66.7 214.6,75.1 221.7,79.2 221.7,70.9 	"/>
	<polygon class="st11" points="172.7,141.7 172.7,150.1 179.7,154.2 179.7,145.9 	"/>
	<polygon class="st11" points="172.7,129.2 172.7,137.6 179.7,141.7 179.7,133.4 	"/>
	<polygon class="st11" points="172.7,112.5 172.7,120.9 179.7,125.1 179.7,116.7 	"/>
	<polygon class="st11" points="172.7,100 172.7,108.4 179.7,112.5 179.7,104.2 	"/>
	<polygon class="st11" points="214.6,166.8 214.6,175.1 221.7,179.3 221.7,171 	"/>
	<polygon class="st11" points="214.6,154.2 214.6,162.6 221.7,166.8 221.7,158.4 	"/>
	<polygon class="st11" points="214.6,137.6 214.6,145.9 221.7,150.1 221.7,141.7 	"/>
	<polygon class="st11" points="214.6,125.1 214.6,133.4 221.7,137.6 221.7,129.3 	"/>
	<g class="st12">
		<polygon points="172.7,41.7 172.7,50.1 179.7,54.2 179.7,45.9 		"/>
		<polygon points="214.6,66.7 214.6,75.1 221.7,79.2 221.7,70.9 		"/>
	</g>
	<polygon class="st9" points="228.7,66.7 277.6,37.6 277.6,221.1 228.7,250.3 	"/>
	<polygon class="st13" points="228.7,66.7 277.6,37.6 277.6,221.1 228.7,250.3 	"/>
	<polygon class="st14" points="242.7,225.2 242.7,233.6 235.7,237.8 235.7,229.4 	"/>
	<polygon class="st14" points="242.7,212.8 242.7,221.1 235.7,225.2 235.7,216.9 	"/>
	<polygon class="st14" points="242.7,196.1 242.7,204.4 235.7,208.6 235.7,200.3 	"/>
	<polygon class="st14" points="242.7,183.5 242.7,191.9 235.7,196.1 235.7,187.7 	"/>
	<polygon class="st14" points="242.7,108.4 242.7,116.8 235.7,120.9 235.7,112.6 	"/>
	<polygon class="st14" points="242.7,96 242.7,104.3 235.7,108.4 235.7,100.1 	"/>
	<polygon class="st14" points="242.7,79.2 242.7,87.6 235.7,91.8 235.7,83.4 	"/>
	<polygon class="st14" points="242.7,66.7 242.7,75.1 235.7,79.2 235.7,70.9 	"/>
	<polygon class="st14" points="256.7,217 256.7,225.3 249.7,229.5 249.7,221.1 	"/>
	<polygon class="st14" points="256.7,204.5 256.7,212.8 249.7,217 249.7,208.7 	"/>
	<polygon class="st14" points="256.7,187.7 256.7,196.1 249.7,200.3 249.7,191.9 	"/>
	<polygon class="st14" points="256.7,175.3 256.7,183.6 249.7,187.7 249.7,179.4 	"/>
	<polygon class="st14" points="256.7,100.2 256.7,108.5 249.7,112.7 249.7,104.4 	"/>
	<polygon class="st14" points="256.7,87.7 256.7,96 249.7,100.2 249.7,91.8 	"/>
	<polygon class="st14" points="256.7,70.9 256.7,79.3 249.7,83.4 249.7,75.1 	"/>
	<polygon class="st14" points="256.7,58.5 256.7,66.8 249.7,70.9 249.7,62.6 	"/>
	<polygon class="st14" points="270.7,208.7 270.7,217 263.7,221.2 263.7,212.9 	"/>
	<polygon class="st14" points="270.7,196.2 270.7,204.5 263.7,208.7 263.7,200.3 	"/>
	<polygon class="st14" points="270.7,179.5 270.7,187.8 263.7,192 263.7,183.7 	"/>
	<polygon class="st14" points="270.7,167 270.7,175.3 263.7,179.5 263.7,171.2 	"/>
	<polygon class="st14" points="270.7,91.8 270.7,100.3 263.7,104.4 263.7,96 	"/>
	<polygon class="st14" points="270.7,79.4 270.7,87.7 263.7,91.8 263.7,83.5 	"/>
	<polygon class="st14" points="270.7,62.7 270.7,71 263.7,75.2 263.7,66.9 	"/>
	<polygon class="st14" points="270.7,50.1 270.7,58.5 263.7,62.7 263.7,54.4 	"/>
	<polygon class="st14" points="242.7,166.8 242.7,175.1 235.7,179.3 235.7,171 	"/>
	<polygon class="st14" points="242.7,154.2 242.7,162.6 235.7,166.8 235.7,158.4 	"/>
	<polygon class="st14" points="242.7,137.6 242.7,145.9 235.7,150.1 235.7,141.7 	"/>
	<polygon class="st14" points="242.7,125.1 242.7,133.4 235.7,137.6 235.7,129.3 	"/>
	<polygon class="st14" points="256.7,158.5 256.7,166.8 249.7,171 249.7,162.6 	"/>
	<polygon class="st14" points="256.7,146 256.7,154.3 249.7,158.5 249.7,150.1 	"/>
	<polygon class="st14" points="256.7,129.3 256.7,137.6 249.7,141.8 249.7,133.5 	"/>
	<polygon class="st14" points="256.7,116.7 256.7,125.1 249.7,129.3 249.7,120.9 	"/>
	<polygon class="st14" points="270.7,150.2 270.7,158.5 263.7,162.7 263.7,154.4 	"/>
	<polygon class="st14" points="270.7,137.7 270.7,146 263.7,150.2 263.7,141.8 	"/>
	<polygon class="st14" points="270.7,121 270.7,129.3 263.7,133.5 263.7,125.1 	"/>
	<polygon class="st14" points="270.7,108.5 270.7,116.8 263.7,121 263.7,112.6 	"/>
	<polygon class="st9" points="186.7,41.7 186.7,225.2 190.2,223.2 190.2,39.6 	"/>
	<polygon class="st13" points="186.7,41.7 186.7,225.2 190.2,223.2 190.2,39.6 	"/>
	<polygon class="st9" points="277.6,37.6 214.6,0 165.7,29.2 186.7,41.7 190.2,39.6 211.2,52.1 207.7,54.2 228.7,66.7 	"/>
	<polygon class="st15" points="277.6,37.6 214.6,0 165.7,29.2 186.7,41.7 190.2,39.6 211.2,52.1 207.7,54.2 228.7,66.7 	"/>
	<polygon class="st9" points="214.6,54.2 218.1,52.1 190.2,35.5 186.7,37.6 172.6,29.2 214.6,4.1 270.8,37.6 228.7,62.6 	"/>
	<polygon class="st16" points="214.6,54.2 218.1,52.1 190.2,35.5 186.7,37.6 172.6,29.2 214.6,4.1 270.8,37.6 228.7,62.6 	"/>
	<polygon class="st9" points="214.6,4.1 214.6,8.3 267.3,39.6 270.8,37.6 	"/>
	<polygon class="st17" points="214.6,4.1 214.6,8.3 267.3,39.6 270.8,37.6 	"/>
	<polygon class="st9" points="172.6,29.2 176.2,31.4 214.6,8.3 214.6,4.1 	"/>
	<polygon class="st10" points="172.6,29.2 176.2,31.4 214.6,8.3 214.6,4.1 	"/>
	<polygon class="st18" points="214.6,4.1 210.6,10.7 262.9,42.3 270.8,37.6 	"/>
	<polygon class="st9" points="190.2,39.6 190.2,223.2 207.7,233.6 207.7,54.2 211.2,52.1 	"/>
	<polygon class="st19" points="190.2,39.6 190.2,223.2 207.7,233.6 207.7,54.2 211.2,52.1 	"/>
	<polygon class="st20" points="193.7,225.2 193.7,212.8 204.2,219 204.2,231.5 	"/>
	<polygon class="st9" points="201.6,210.1 204.2,211.7 204.2,54.2 201.6,52.7 	"/>
	<polygon class="st9" points="194.7,206 197.2,207.5 197.2,50.1 194.7,48.5 	"/>
	<polygon class="st4" points="282.5,221 287,211.6 287.8,212 283.2,221.3 	"/>
	<polygon class="st4" points="278.6,210.1 279.3,209.7 283.8,217.1 283.1,217.6 	"/>
	<path class="st4" d="M283.6,210v22.4c0,0.1-0.1,0.2-0.2,0.3c-0.3,0.1-0.7,0.1-1,0c-0.1-0.1-0.2-0.1-0.2-0.3V210H283.6z"/>
	<ellipse class="st21" cx="289.9" cy="203" rx="10.1" ry="10.4"/>
	<path class="st22" d="M293,200.4c1.3-4.3,2.7-5.9,1.8-6.4c-4.8-2.9-11-1.1-13.8,3.9c-2.8,5-1,11.4,3.8,14.3
		c4.3,2.5,9.6,1.5,12.8-2.4C294.7,210.6,291.4,205.9,293,200.4z"/>
	<ellipse class="st21" cx="274" cy="206" rx="7.1" ry="7.3"/>
	<path class="st22" d="M274,198.7c-1.5,0-3,0.5-4.1,1.3c-0.2,4.5,3.5,8.8,2.5,10.3c-1,1.5-3.6,0.6-4.5-0.7c2,3.5,6.3,4.7,9.7,2.6
		c3.4-2.1,4.6-6.5,2.6-10C278.9,200.1,276.6,198.7,274,198.7L274,198.7z"/>
	<ellipse class="st21" cx="282.8" cy="198.1" rx="13" ry="13.4"/>
	<path class="st22" d="M295.5,201.2c-1.7,7.3-8.6,11.7-15.6,10c-7-1.7-11.3-9-9.6-16.2c0.8-3.6,3.1-6.8,6.3-8.6
		c-1.1,0.6-2.1,1.5-3,2.5c-0.2,1-0.3,2.1-0.3,3c0,7.4,5.8,13.4,13,13.4C289.7,205.4,293.1,203.9,295.5,201.2L295.5,201.2z"/>
</g>
<path class="st9" d="M161.5,63.5"/>
<g>
	<polygon class="st23" points="166.2,42.4 171.5,38.9 222.2,69.2 222.2,86.6 216.9,90 	"/>
	<polygon class="st9" points="216.9,90 166.2,59.8 166.2,42.4 216.9,72.6 	"/>
	<g>
		<path class="st24" d="M167.8,55.1c0.5,0.6,1.1,1.3,1.8,1.7c1,0.6,1.7,0.4,1.7-0.6c0-0.9-0.4-1.6-1.5-2.6c-1.3-1.3-2-2.5-2-3.8
			c0-1.4,1-1.8,2.6-0.9c0.8,0.5,1.4,1.1,1.7,1.5l-0.3,0.8c-0.3-0.3-0.8-0.9-1.5-1.3c-1.1-0.6-1.5-0.2-1.5,0.5c0,0.9,0.5,1.5,1.5,2.6
			c1.3,1.4,2,2.6,2,3.9c0,1.4-0.9,2.1-2.8,0.9c-0.8-0.5-1.6-1.2-2-1.7L167.8,55.1z"/>
		<path class="st24" d="M169.5,57.9c-0.8-0.5-1.7-1.2-2.1-1.8l-0.1-0.2l0.3-1.2l0.2,0.2c0.5,0.6,1.1,1.3,1.7,1.6
			c0.9,0.5,1.5,0.4,1.5-0.4c0-0.6-0.2-1.2-1.4-2.4c-0.9-0.9-2.2-2.4-2.2-4.1c0-1.6,1.1-2,2.7-1.1c1,0.6,1.5,1.2,1.8,1.5l0.2,0.2
			l-0.4,1.1l-0.2-0.2c-0.3-0.4-0.8-0.9-1.4-1.3c-0.9-0.5-1.3-0.2-1.3,0.3c0,0.7,0.3,1.2,1.4,2.4c1,1.1,2.1,2.4,2.1,4.1
			C172.4,58.2,171.7,59.2,169.5,57.9 M167.7,55.9c0.5,0.5,1.2,1.2,1.8,1.5c1.6,0.9,2.6,0.6,2.6-0.9c0-1.1-0.6-2.2-1.9-3.5
			c-1.1-1.1-1.7-2-1.7-3c0-0.8,0.5-1.3,1.7-0.6c0.6,0.4,1.1,0.8,1.4,1.2l0.2-0.4c-0.3-0.3-0.8-0.8-1.5-1.2c-1.4-0.9-2.3-0.5-2.3,0.8
			c0,1.1,0.6,2.2,2,3.5c1,1,1.6,1.8,1.6,3c0,1.1-0.7,1.3-1.8,0.7c-0.6-0.4-1.2-0.9-1.7-1.5L167.7,55.9z"/>
		<polygon class="st24" points="177.7,58.2 174.7,56.4 174.7,59.7 178.1,61.7 178.1,62.7 173.7,60 173.7,51 177.9,53.6 177.9,54.5 
			174.7,52.6 174.7,55.5 177.7,57.3 		"/>
		<path class="st24" d="M178.2,63l-4.7-2.8v-9.5l4.6,2.7v1.4l-3.2-1.9v2.4l3,1.8v1.4l-3-1.8v2.8l3.4,2V63L178.2,63z M173.8,59.9
			l4.1,2.4v-0.5l-3.4-2v-3.7l3,1.8v-0.5l-3-1.8v-3.3l3.2,1.9v-0.5l-3.9-2.3L173.8,59.9L173.8,59.9z"/>
		<path class="st24" d="M181.2,64.5L178.6,54l1.1,0.6l1.2,5.2c0.3,1.4,0.6,2.7,0.8,3.9l0,0c0.2-0.9,0.6-1.8,0.9-2.8l1.3-3.7l1.1,0.6
			l-2.8,7.3L181.2,64.5L181.2,64.5z"/>
		<path class="st24" d="M182.5,65.5l-1.3-0.8l-2.6-11.1l1.4,0.9l1.3,5.3c0.3,1.2,0.5,2.2,0.7,3.1c0.2-0.8,0.5-1.6,0.8-2.3l1.4-3.8
			l1.4,0.9L182.5,65.5z M181.3,64.4l0.9,0.5l2.6-6.9l-0.7-0.4l-1.3,3.5c-0.3,0.9-0.7,1.8-0.9,2.8l0,0.2l-0.3-0.2l0-0.2
			c-0.2-1.1-0.5-2.3-0.8-3.9l-1.2-5l-0.7-0.4L181.3,64.4z"/>
		<polygon class="st24" points="190,65.6 187,63.8 187,67 190.4,69 190.4,70 186,67.4 186,58.4 190.2,60.9 190.2,61.9 187,60 
			187,62.8 190,64.6 		"/>
		<path class="st24" d="M190.6,70.4l-4.7-2.8v-9.5l4.6,2.7v1.4l-3.2-1.9v2.4l3,1.8v1.4l-3-1.8v2.8l3.4,2V70.4z M186.2,67.3l4.1,2.4
			v-0.5l-3.4-2v-3.7l3,1.8v-0.5l-3-1.8v-3.3l3.2,1.9V61l-3.9-2.3L186.2,67.3L186.2,67.3z"/>
		<path class="st24" d="M191.7,70.8v-9l1.1,0.6l2.5,6.1c0.6,1.4,1,2.6,1.4,3.8l0,0c-0.1-1.3-0.1-2.4-0.1-3.8v-3.8l1,0.6v9l-1-0.6
			l-2.5-6.1c-0.6-1.3-1.1-2.6-1.5-3.9h0c0,1.2,0.1,2.3,0.1,3.8v3.9L191.7,70.8L191.7,70.8z"/>
		<path class="st24" d="M197.8,74.6l-1.3-0.8l-2.6-6.2c-0.5-1.2-0.9-2.2-1.2-3c0,0.9,0,1.8,0,2.9v4.1l-1.3-0.8v-9.5l1.3,0.8l2.6,6.2
			c0.4,1,0.8,1.9,1.1,2.8c0-0.9,0-1.8,0-2.8v-4l1.3,0.8L197.8,74.6L197.8,74.6z M196.7,73.5l0.8,0.5v-8.6l-0.6-0.4v3.5
			c0,1.3,0,2.4,0.1,3.8v0.2h-0.3l0-0.2c-0.3-1.2-0.8-2.4-1.4-3.7l-2.5-5.9l-0.9-0.5v8.6l0.6,0.4v-3.6c0-1.5,0-2.6-0.1-3.8v-0.2
			l0.3,0l0,0.2c0.3,1.1,0.8,2.3,1.4,3.9L196.7,73.5z"/>
		<path class="st24" d="M201.5,71.9c-1.1-1.2-1.7-2-1.7-3c0-0.8,0.5-1.3,1.7-0.6c0.6,0.4,1.1,0.9,1.5,1.3l0.2-0.5
			c-0.3-0.3-0.8-0.9-1.7-1.3c-1.5-0.9-2.5-0.5-2.5,0.9c0,1.1,0.7,2.3,2,3.7c1,1,1.7,1.9,1.7,3c0,1-0.7,1.3-1.8,0.7
			c-0.6-0.4-1.3-0.9-1.8-1.6l-0.2,0.6c0.5,0.6,1.2,1.2,1.9,1.7c1.7,1,2.7,0.6,2.7-0.9C203.5,74.5,203,73.4,201.5,71.9"/>
		<path class="st24" d="M209.5,72.7l-1.2,2c-0.3,0.4-0.5,0.8-0.7,1.2l0,0l-0.2-0.1l0-0.1c-0.3-0.8-0.5-1.4-0.8-2.4l-1.1-3.1
			l-0.9-0.5l2.5,6.6v3.8l0.8,0.5v-3.9l2.6-3.5L209.5,72.7z"/>
		<path class="st24" d="M213.9,79.2c-1.1-1.2-1.7-2-1.7-3c0-0.8,0.5-1.3,1.7-0.6c0.6,0.4,1.1,0.9,1.5,1.3l0.2-0.5
			c-0.3-0.3-0.8-0.9-1.7-1.3c-1.5-0.9-2.5-0.5-2.5,0.9c0,1.1,0.7,2.3,2,3.7c1,1,1.7,1.9,1.7,3c0,1.1-0.7,1.3-1.8,0.7
			c-0.6-0.4-1.3-0.9-1.8-1.6l-0.2,0.6c0.5,0.6,1.2,1.2,1.9,1.7c1.7,1,2.7,0.6,2.7-0.9C215.8,81.8,215.2,80.7,213.9,79.2"/>
	</g>
</g>
<g id="freepik--trees--inject-53">
	<g id="freepik--Tree--inject-53">
		<g id="freepik--tree--inject-53">
			<path class="st25" d="M107.8,111.3c-0.4,0-0.8,0-1.2,0.2c-0.7,0.4-1.3,0.9-1.9,1.4c-0.6,0.5-1.3,0.9-2.1,0.9
				c-0.8,0-1.5-0.5-1.7-1.3c0-0.1,0-0.3-0.1-0.4c-0.2-0.2-0.4-0.3-0.7-0.2s-0.4,0.2-0.7,0.4c-0.9,0.4-1.8,0.4-2.7,0.2
				c-0.7-0.1-1.7-0.4-1.7-1.3c0-0.5,0.4-0.9,0.8-1.3c0.3-0.4,0.6-1,0.3-1.4c-0.1-0.1-0.3-0.2-0.4-0.3c-1-0.3-2.1,0.1-2.9-0.5
				c-0.6-0.5-0.7-1.3-0.4-2.1c0.3-0.7,1-1.2,1.7-1.3c0.7-0.2,1.4-0.2,1.7-0.9c0.2-0.7-0.2-1.2-0.7-1.5c-0.5-0.3-1-0.6-1.4-1.1
				c-0.3-0.5-0.3-1.2,0-1.8c0.3-0.5,0.8-0.9,1.4-1c0.3,0,0.6-0.1,0.9-0.2c0.3-0.1,0.4-0.4,0.3-0.8c-0.1-0.2-0.3-0.3-0.3-0.4
				c-0.1-0.3,0-0.7,0.3-0.9c0.3-0.2,0.6-0.3,1-0.4c0.7-0.2,1.3-0.9,1.2-1.7c-0.2-0.8-1.2-1-1.5-1.7c-0.2-0.7,0.1-1.4,0.7-1.8
				c0.6-0.3,1.2-0.6,1.8-0.9c0.7-0.2,1.1-0.8,1.3-1.5c0-0.7-0.4-1.3-0.9-1.8c-0.4-0.6-0.8-1.3-0.4-1.9c0.3-0.6,1.1-0.6,1.7-0.8
				c0.8-0.3,1.4-0.9,1.7-1.6c0.2-0.4,0.3-0.8,0.4-1.2c0.7-1.2,2-1.7,3.4-1.6c0.5,0,1,0.4,1.2,0.8c0.2,0.2,0.3,0.5,0.4,0.8
				c0.1,0.6-0.2,1.3,0.3,1.7c0.8,0.7,2-0.2,2,1.3c0,0.6-0.1,1.3-0.3,1.8c-0.2,0.6-0.7,0.9-0.3,1.6c0.5,0.9,0.8,0.9,1.7,0.9
				c0.6-0.1,1.3,0.1,1.7,0.5c0.9,0.9,0.3,1.8-0.4,2.5c-0.8,0.7-0.4,1.2-0.3,2.2c0,0.5,0,0.7,0.4,1c0.9,0.6,1.3,0.4,1.1,1.7
				c-0.2,1.3,0.1,0.8,1.1,1.2c1,0.4,1.4,1.3,2.1,1.9c0.4,0.4,1.1,0.7,1.2,1.3c0.1,1.3-1.5,1-2.2,1.3c-1.2,0.5-0.9,2.1,0.1,2.7
				c1,0.6,2.4,0.9,2.5,2.3c0,1.1-0.6,1.4-1.4,1.7c-0.7,0.3-0.6,0.4-0.6,1.2c0,1.7-0.5,2.2-2.1,1.9c-0.5-0.1-1-0.2-1.6-0.1
				c-0.6,0.2-0.4,0.4-0.4,0.9c0,1.3-1.6,1-2.2,0.4C109.8,112,108.8,111.5,107.8,111.3z"/>
			<path class="st26" d="M116.2,104.5c-0.9-0.6-1.3-2.2-0.1-2.7c0.7-0.3,2.3,0,2.2-1.3c0-0.7-0.7-1-1.2-1.3
				c-0.7-0.6-1.3-1.5-2.1-1.9c-0.8-0.4-1.3,0-1.1-1.2c0.2-1.2-0.2-1-1.1-1.7c-0.4-0.3-0.3-0.5-0.4-0.9c-0.2,0.2-0.3,0.4-0.5,0.7
				c-0.3,0.8-0.1,1.6,0.3,2.3c0.3,0.5,0.6,1.3,0.1,1.7c-0.2,0.1-0.5,0.3-0.7,0.3c-0.5,0.2-0.8,0.7-0.9,1.2c0,0.6,0.2,1.2,0,1.7
				c-0.2,0.3-0.4,0.6-0.8,0.8c-0.7,0.4-1.2,1.1-1.3,1.8c-0.1,1.1,0.9,2,1.7,2.7c0.3,0.2,0.6,0.8,0.3,0.9c-0.1,0-0.3,0-0.4,0
				c-0.5,0-1,0.2-1.3,0.6c-0.3,0.4-0.5,0.9-0.9,1c-0.2,0-0.3,0-0.5,0c-1.3-0.2-2.5,0.2-3.4,1.2c-0.5,0.5-1,1.3-1.7,1s-0.6-1.1-1-1.5
				l-0.1-0.1c-0.7-0.3-1.4-0.2-2,0.2c-0.3,0.2-0.7,0.4-1.1,0.5c-0.4,0.2-0.7,0.4-1.1,0.2c-0.3-0.1-0.4-0.4-0.3-0.8
				c0-0.2,0.2-0.4,0.2-0.6c0.1-0.2,0.1-0.4,0-0.6c-0.1-0.2-0.2-0.3-0.4-0.4c-0.3-0.2-0.7-0.3-1-0.4h0c-0.4,0-0.8,0-1.3,0
				c-0.4,0-0.9,0-1.3-0.1s-0.8-0.4-1-0.8l0,0c0.1,0.3,0.3,0.6,0.5,0.9c0.8,0.6,2,0.2,2.9,0.5c0.2,0,0.3,0.1,0.4,0.3
				c0.3,0.4,0,1-0.3,1.4c-0.3,0.4-0.8,0.8-0.8,1.3c0,0.8,1,1.1,1.7,1.3c0.9,0.2,1.9,0.1,2.7-0.2c0.2-0.1,0.4-0.3,0.7-0.4
				c0.2-0.1,0.5,0,0.7,0.2c0,0.1,0.1,0.3,0.1,0.4c0.2,0.8,1,1.3,1.7,1.3c0.8-0.1,1.5-0.4,2.1-0.9c0.6-0.5,1.2-1,1.9-1.4
				c0.3-0.2,0.8-0.3,1.2-0.2c1,0.2,2,0.8,2.7,1.5c0.7,0.6,2.2,0.9,2.2-0.4c0-0.5-0.2-0.7,0.4-0.9c0.5,0,1,0,1.6,0.1
				c1.6,0.3,2.1-0.2,2.1-1.9c0-0.9-0.1-0.9,0.6-1.2c0.9-0.4,1.5-0.6,1.4-1.7C118.7,105.4,117.2,105.2,116.2,104.5z"/>
			<path class="st4" d="M110.2,97.6l-4.3,9v-4.1L105.5,85l-0.7,17.4v2.7l-4.8-8.6l4.8,10.6v32.2c0,0.1,0.1,0.2,0.2,0.2
				c0.3,0.1,0.5,0.1,0.8,0c0.1,0,0.1-0.1,0.2-0.2v-30.6L110.2,97.6z"/>
		</g>
	</g>
	<g id="freepik--tree--inject-53_2_">
		<g id="freepik--tree--inject-53_1_">
			<path class="st27" d="M125.7,125.5c-0.5,0-1,0-1.3,0.3c-0.8,0.4-1.5,1-2.2,1.6c-0.7,0.6-1.6,1-2.5,1.1c-1,0.1-1.8-0.5-2-1.5
				c0-0.2,0-0.3-0.1-0.4c-0.2-0.2-0.5-0.3-0.8-0.2c-0.3,0.1-0.5,0.3-0.7,0.4c-1,0.4-2.1,0.5-3.1,0.3c-0.9-0.1-2-0.5-2-1.4
				c0-0.6,0.5-1,0.9-1.5c0.3-0.4,0.7-1.1,0.3-1.6c-0.1-0.1-0.3-0.3-0.5-0.3c-1.1-0.4-2.4,0.1-3.4-0.6c-0.7-0.6-0.9-1.6-0.5-2.4
				c0.4-0.8,1.1-1.3,2-1.6c0.7-0.2,1.7-0.3,2-1c0.3-0.8-0.3-1.3-0.8-1.7c-0.6-0.3-1.1-0.7-1.6-1.3c-0.4-0.6-0.4-1.4,0-2
				c0.3-0.6,1-1,1.7-1.2c0.3,0,0.7-0.1,1-0.2c0.3-0.2,0.5-0.6,0.4-0.9c-0.2-0.3-0.3-0.3-0.4-0.4c-0.2-0.4,0-0.9,0.3-1.1
				c0.3-0.2,0.7-0.4,1.1-0.4c0.8-0.3,1.6-1.1,1.3-1.9c-0.2-0.9-1.4-1.2-1.7-2c-0.2-0.8,0.1-1.6,0.8-2c0.7-0.4,1.4-0.7,2.1-1
				c0.7-0.3,1.3-0.9,1.4-1.7c-0.1-0.8-0.4-1.6-1-2.2c-0.5-0.6-0.9-1.6-0.5-2.2c0.4-0.7,1.3-0.7,2-0.9c0.9-0.3,1.6-1,2-1.9
				c0.2-0.4,0.3-0.9,0.5-1.4c0.9-1.3,2.4-2,3.9-1.8c0.6,0,1.1,0.4,1.3,0.9c0.2,0.3,0.4,0.6,0.5,0.9c0.1,0.7-0.2,1.5,0.4,2
				c0.9,0.8,2.3-0.3,2.3,1.5c0,0.7-0.1,1.4-0.3,2.2c-0.3,0.7-0.7,1-0.3,1.8c0.5,1.1,0.9,1,2,1c0.7-0.1,1.5,0.1,2,0.6
				c1,1.1,0.4,2.1-0.5,2.9c-0.9,0.9-0.5,1.3-0.3,2.6c0.1,0.6,0,0.8,0.4,1.2c1,0.8,1.5,0.5,1.2,1.9c-0.3,1.4,0.1,0.9,1.3,1.4
				c1.1,0.5,1.7,1.5,2.4,2.2c0.5,0.4,1.3,0.8,1.3,1.6c0.1,1.5-1.7,1.2-2.5,1.5c-1.4,0.6-1,2.5,0.1,3.1c1.1,0.7,2.8,1,2.9,2.7
				c0.1,1.3-0.7,1.6-1.6,2c-0.8,0.4-0.7,0.4-0.7,1.4c0,1.9-0.7,2.5-2.5,2.2c-0.6-0.2-1.2-0.2-1.8-0.1c-0.7,0.2-0.5,0.4-0.5,1
				c0,1.6-1.8,1.1-2.6,0.4C127.9,126.3,126.8,125.8,125.7,125.5z"/>
			<path class="st26" d="M111.6,122.2c-0.9-0.3-1.8,0-2.6-0.3c0.5-0.1,1-0.2,1.5-0.2c1.2,0,2.4,0.4,3.2,1.3c-0.4,0.6-0.7,1.3-0.7,2
				c2.1,0.6,4.2-2.3,6.1-1.4c-0.1,1,0,2.5,1,2.7c0.6,0.1,1.2-0.2,1.5-0.8c0.3-0.5,0.6-1.1,1-1.6c1-1.3,2.9-1.6,4.3-0.6
				c0.5,0.4,1.2,1,1.7,0.6s0.2-1.6,0.9-1.9c0.4-0.2,1,0.1,1.4-0.2c0.1-0.1,0.2-0.4,0.3-0.5c0.3-1.1,0.5-2.4-0.2-3.3
				c-0.7-0.9-1.9-1.3-1.7-2.3c0.1-0.9,1.2-1.1,2-1.2c0.8-0.1,1.9-0.5,1.9-1.4c0-0.9-1.1-1.3-1.3-2.1c-0.1-0.4,0-0.8-0.1-1.1
				c-0.2-0.5-0.9-0.5-1.3-0.9c-0.7-0.6-0.2-1.9-0.3-2.8c-0.1-0.7-0.7-1.2-0.9-1.9c-0.3-1.3,0.8-2.6,2-3.1c0.5-0.2,1-0.4,1.4-0.7l0,0
				c-0.1,0.7-0.5,1.3-1,1.7c-1,0.9-0.5,1.3-0.3,2.6c0.1,0.6,0,0.8,0.4,1.2c1,0.8,1.5,0.5,1.2,1.9c-0.3,1.4,0.1,0.9,1.3,1.4
				c1.1,0.5,1.7,1.5,2.4,2.2c0.5,0.4,1.3,0.8,1.3,1.6c0.1,1.5-1.7,1.2-2.5,1.5c-1.4,0.6-1,2.5,0.1,3.1c1.1,0.7,2.8,1,2.9,2.7
				c0.1,1.3-0.7,1.6-1.6,2c-0.8,0.4-0.7,0.4-0.7,1.4c0,1.9-0.7,2.5-2.5,2.2c-0.6-0.2-1.2-0.2-1.8-0.1c-0.7,0.2-0.5,0.4-0.5,1
				c0,1.6-1.8,1.1-2.6,0.4c-0.8-0.9-1.9-1.5-3.1-1.8c-0.5,0-1,0-1.3,0.3c-0.8,0.4-1.5,1-2.2,1.6c-0.7,0.6-1.6,1-2.5,1.1
				c-1,0.1-1.8-0.5-2-1.5c0-0.2,0-0.3-0.1-0.4c-0.2-0.2-0.5-0.3-0.8-0.2c-0.3,0.1-0.5,0.3-0.7,0.4c-1,0.4-2.1,0.5-3.1,0.3
				c-0.9-0.1-2-0.5-2-1.4c0-0.6,0.5-1,0.9-1.5c0.3-0.4,0.7-1.1,0.3-1.6C111.9,122.3,111.8,122.3,111.6,122.2z"/>
			<polygon class="st4" points="128.6,109.6 123.5,119.9 123.5,115.1 123,94.9 122.3,115.1 122.3,118.4 116.8,108.3 122.3,120.6 
				122.3,151.9 123.5,151.9 123.5,122.5 			"/>
		</g>
	</g>
</g>
<g id="freepik--trees--inject-53_1_">
	<g id="freepik--Tree--inject-53_1_">
		<g id="freepik--tree--inject-53_5_">
			<path class="st28" d="M51.7,106.3c-0.4,0-0.8,0-1.2,0.2c-0.7,0.4-1.3,0.9-1.9,1.4s-1.3,0.9-2.1,0.9c-0.8,0-1.5-0.5-1.7-1.3
				c0-0.1,0-0.3-0.1-0.4c-0.2-0.2-0.4-0.3-0.7-0.2s-0.4,0.2-0.7,0.4c-0.9,0.4-1.8,0.4-2.7,0.2c-0.7-0.1-1.7-0.4-1.7-1.3
				c0-0.5,0.4-0.9,0.8-1.3c0.3-0.4,0.6-1,0.3-1.4c-0.1-0.1-0.3-0.2-0.4-0.3c-1-0.3-2.1,0.1-2.9-0.5c-0.6-0.5-0.7-1.3-0.4-2.1
				c0.3-0.7,1-1.2,1.7-1.3c0.7-0.2,1.4-0.2,1.7-0.9c0.2-0.7-0.2-1.2-0.7-1.5c-0.5-0.3-1-0.6-1.4-1.1c-0.3-0.5-0.3-1.2,0-1.8
				c0.3-0.5,0.8-0.9,1.4-1c0.3,0,0.6-0.1,0.9-0.2c0.3-0.1,0.4-0.4,0.3-0.8c-0.1-0.2-0.3-0.3-0.3-0.4c-0.1-0.3,0-0.7,0.3-0.9
				c0.3-0.2,0.6-0.3,1-0.4c0.7-0.2,1.3-0.9,1.2-1.7c-0.2-0.8-1.2-1-1.5-1.7c-0.2-0.7,0.1-1.4,0.7-1.8c0.6-0.3,1.2-0.6,1.8-0.9
				c0.7-0.2,1.1-0.8,1.3-1.5c0-0.7-0.4-1.3-0.9-1.8c-0.4-0.6-0.8-1.3-0.4-1.9c0.3-0.6,1.1-0.6,1.7-0.8c0.8-0.3,1.4-0.9,1.7-1.6
				c0.2-0.4,0.3-0.8,0.4-1.2c0.7-1.1,2-1.7,3.4-1.5c0.5,0,1,0.4,1.2,0.8c0.2,0.2,0.3,0.5,0.4,0.8c0.1,0.6-0.2,1.3,0.3,1.7
				c0.8,0.7,2-0.2,2,1.3c0,0.6-0.1,1.3-0.3,1.8c-0.2,0.6-0.7,0.9-0.3,1.6c0.5,0.9,0.8,0.9,1.7,0.9c0.6-0.1,1.3,0.1,1.7,0.5
				c0.9,0.9,0.3,1.8-0.4,2.5s-0.4,1.2-0.3,2.2c0,0.5,0,0.7,0.4,1c0.9,0.6,1.3,0.4,1.1,1.7c-0.2,1.3,0.1,0.8,1.1,1.2
				c1,0.4,1.4,1.3,2.1,1.9c0.4,0.4,1.1,0.7,1.2,1.3c0.1,1.3-1.5,1-2.2,1.3c-1.2,0.5-0.9,2.1,0.1,2.7c1,0.6,2.4,0.9,2.5,2.3
				c0,1.1-0.6,1.4-1.4,1.7c-0.7,0.3-0.6,0.4-0.6,1.2c0,1.7-0.5,2.2-2.1,1.9c-0.5-0.1-1-0.2-1.6-0.1c-0.6,0.2-0.4,0.4-0.4,0.9
				c0,1.3-1.6,1-2.2,0.4C53.7,107.1,52.7,106.5,51.7,106.3z"/>
			<path class="st26" d="M60.1,99.6c-0.9-0.6-1.3-2.2-0.1-2.7c0.7-0.3,2.3,0,2.2-1.3c0-0.7-0.7-1-1.2-1.3c-0.7-0.6-1.3-1.5-2.1-1.9
				c-0.9-0.4-1.3,0-1.1-1.2s-0.2-1-1.1-1.7c-0.4-0.3-0.3-0.5-0.4-0.9c-0.2,0.2-0.3,0.4-0.5,0.7c-0.3,0.8-0.1,1.6,0.3,2.3
				c0.3,0.5,0.6,1.3,0.1,1.7c-0.2,0.1-0.5,0.3-0.7,0.3c-0.5,0.2-0.8,0.7-0.9,1.2c0,0.6,0.2,1.2,0,1.7c-0.2,0.3-0.4,0.6-0.8,0.8
				c-0.7,0.4-1.2,1.1-1.3,1.8c-0.1,1.1,0.9,2,1.7,2.7c0.3,0.2,0.6,0.8,0.3,0.9c-0.1,0-0.3,0-0.4,0c-0.5,0-1,0.2-1.3,0.6
				c-0.3,0.4-0.5,0.9-0.9,1c-0.2,0-0.3,0-0.5,0c-1.3-0.2-2.5,0.2-3.4,1.2c-0.5,0.5-1,1.3-1.7,1c-0.7-0.3-0.6-1.1-1-1.5l-0.1-0.1
				c-0.7-0.3-1.4-0.2-2,0.2c-0.3,0.2-0.7,0.4-1.1,0.5c-0.4,0.2-0.7,0.4-1.1,0.2c-0.3-0.1-0.4-0.4-0.3-0.8c0-0.2,0.2-0.4,0.2-0.6
				c0.1-0.2,0.1-0.4,0-0.6c-0.1-0.2-0.2-0.3-0.4-0.4c-0.3-0.2-0.7-0.3-1-0.4h0c-0.4,0-0.8,0-1.3,0c-0.4,0-0.9,0-1.3-0.1
				s-0.8-0.4-1-0.8l0,0c0.1,0.3,0.3,0.6,0.5,0.9c0.8,0.6,2,0.2,2.9,0.5c0.2,0,0.3,0.1,0.4,0.3c0.3,0.4,0,1-0.3,1.4
				c-0.3,0.4-0.8,0.8-0.8,1.3c0,0.8,1,1.1,1.7,1.3c0.9,0.2,1.9,0.1,2.7-0.2c0.2-0.1,0.4-0.3,0.7-0.4c0.2-0.1,0.5,0,0.7,0.2
				c0,0.1,0.1,0.3,0.1,0.4c0.2,0.8,1,1.3,1.7,1.3c0.8-0.1,1.5-0.4,2.1-0.9s1.2-1,1.9-1.4c0.3-0.2,0.8-0.3,1.2-0.2
				c1,0.2,2,0.8,2.7,1.5c0.7,0.6,2.2,0.9,2.2-0.4c0-0.5-0.2-0.7,0.4-0.9c0.5,0,1,0,1.6,0.1c1.6,0.3,2.1-0.2,2.1-1.9
				c0-0.9-0.1-0.9,0.6-1.2c0.9-0.4,1.5-0.6,1.4-1.7C62.6,100.4,61.1,100.2,60.1,99.6z"/>
			<path class="st4" d="M54.1,92.6l-4.3,9v-4.1l-0.4-17.4l-0.7,17.3v2.7l-4.8-8.6l4.8,10.6v32.2c0,0.1,0.1,0.2,0.2,0.2
				c0.3,0.1,0.5,0.1,0.8,0c0.1,0,0.1-0.1,0.2-0.2v-30.6L54.1,92.6z"/>
		</g>
	</g>
	<g id="freepik--tree--inject-53_3_">
		<g id="freepik--tree--inject-53_4_">
			<path class="st29" d="M69.6,120.6c-0.5,0-1,0-1.3,0.3c-0.8,0.4-1.5,1-2.2,1.6c-0.7,0.6-1.6,1-2.5,1.1c-1,0.1-1.8-0.5-2-1.5
				c0-0.2,0-0.3-0.1-0.4c-0.2-0.2-0.5-0.3-0.8-0.2c-0.3,0.1-0.5,0.3-0.7,0.4c-1,0.4-2.1,0.5-3.1,0.3c-0.9-0.1-2-0.5-2-1.4
				c0-0.6,0.5-1,0.9-1.5c0.3-0.4,0.7-1.1,0.3-1.6c-0.1-0.1-0.3-0.3-0.5-0.3c-1.1-0.4-2.4,0.1-3.4-0.6c-0.7-0.6-0.9-1.6-0.5-2.4
				c0.4-0.8,1.1-1.3,2-1.6c0.7-0.2,1.7-0.3,2-1c0.3-0.7-0.3-1.3-0.8-1.7c-0.6-0.3-1.1-0.7-1.6-1.3c-0.4-0.6-0.4-1.4,0-2s1-1,1.7-1.2
				c0.3,0,0.7-0.1,1-0.2c0.3-0.2,0.5-0.6,0.4-0.9s-0.3-0.3-0.4-0.4c-0.2-0.4,0-0.9,0.3-1.1s0.7-0.4,1.1-0.4c0.8-0.3,1.6-1.1,1.3-1.9
				c-0.2-0.9-1.4-1.2-1.7-2c-0.2-0.8,0.1-1.6,0.8-2c0.7-0.4,1.4-0.7,2.1-1c0.7-0.3,1.3-0.9,1.4-1.7c-0.1-0.8-0.4-1.6-1-2.2
				c-0.5-0.6-0.9-1.6-0.5-2.2c0.4-0.7,1.3-0.7,2-0.9c0.9-0.3,1.6-1,2-1.9c0.2-0.4,0.3-0.9,0.5-1.4c0.9-1.3,2.4-2,3.9-1.8
				c0.6,0,1.1,0.4,1.3,0.9c0.2,0.3,0.4,0.6,0.5,0.9c0.1,0.7-0.2,1.5,0.4,2c0.9,0.8,2.3-0.3,2.3,1.5c0,0.7-0.1,1.4-0.3,2.2
				c-0.3,0.7-0.7,1-0.3,1.8c0.5,1.1,0.9,1,2,1c0.7-0.1,1.5,0.1,2,0.6c1,1.1,0.4,2.1-0.5,2.9c-0.9,0.9-0.5,1.3-0.3,2.6
				c0.1,0.6,0,0.8,0.4,1.2c1,0.8,1.5,0.5,1.2,1.9c-0.3,1.4,0.1,0.9,1.3,1.4c1.1,0.5,1.7,1.5,2.4,2.2c0.5,0.4,1.3,0.8,1.3,1.6
				c0.1,1.5-1.7,1.2-2.5,1.5c-1.4,0.6-1,2.5,0.1,3.1c1.1,0.7,2.8,1,2.9,2.7c0.1,1.3-0.7,1.6-1.6,2c-0.8,0.4-0.7,0.4-0.7,1.4
				c0,1.9-0.7,2.5-2.5,2.2c-0.6-0.2-1.2-0.2-1.8-0.1c-0.7,0.2-0.5,0.4-0.5,1c0,1.6-1.8,1.1-2.6,0.4
				C71.8,121.4,70.7,120.8,69.6,120.6z"/>
			<path class="st26" d="M55.5,117.2c-0.9-0.3-1.8,0-2.6-0.3c0.5-0.1,1-0.2,1.5-0.2c1.2,0,2.4,0.4,3.2,1.3c-0.4,0.6-0.7,1.3-0.7,2
				c2.1,0.6,4.2-2.3,6.1-1.4c-0.1,1,0,2.5,1,2.7c0.6,0.1,1.2-0.2,1.5-0.8c0.3-0.5,0.6-1.1,1-1.6c1-1.3,2.9-1.6,4.3-0.6
				c0.5,0.4,1.2,1,1.7,0.6c0.5-0.4,0.2-1.6,0.9-1.9c0.4-0.2,1,0.1,1.4-0.2c0.1-0.1,0.2-0.4,0.3-0.5c0.3-1.1,0.5-2.4-0.2-3.3
				c-0.7-0.9-1.9-1.3-1.7-2.3c0.1-0.9,1.2-1.1,2-1.2c0.8-0.1,1.9-0.5,1.9-1.4c0-0.9-1.1-1.3-1.3-2.1c-0.1-0.4,0-0.8-0.1-1.1
				c-0.2-0.5-0.9-0.5-1.3-0.9c-0.7-0.6-0.2-1.9-0.3-2.8c-0.1-0.7-0.7-1.2-0.9-1.9c-0.3-1.3,0.8-2.6,2-3.1c0.5-0.2,1-0.4,1.4-0.7l0,0
				c-0.1,0.7-0.5,1.3-1,1.7c-1,0.9-0.5,1.3-0.3,2.6c0.1,0.6,0,0.8,0.4,1.2c1,0.8,1.5,0.5,1.2,1.9c-0.3,1.4,0.1,0.9,1.3,1.4
				c1.1,0.5,1.7,1.5,2.4,2.2c0.5,0.4,1.3,0.8,1.3,1.6c0.1,1.5-1.7,1.2-2.5,1.5c-1.4,0.6-1,2.5,0.1,3.1c1.1,0.7,2.8,1,2.9,2.7
				c0.1,1.3-0.7,1.6-1.6,2c-0.8,0.4-0.7,0.4-0.7,1.4c0,1.9-0.7,2.5-2.5,2.2c-0.6-0.2-1.2-0.2-1.8-0.1c-0.7,0.2-0.5,0.4-0.5,1
				c0,1.6-1.8,1.1-2.6,0.4c-0.8-0.9-1.9-1.5-3.1-1.8c-0.5,0-1,0-1.3,0.3c-0.8,0.4-1.5,1-2.2,1.6c-0.7,0.6-1.6,1-2.5,1.1
				c-1,0.1-1.8-0.5-2-1.5c0-0.2,0-0.3-0.1-0.4c-0.2-0.2-0.5-0.3-0.8-0.2c-0.3,0.1-0.5,0.3-0.7,0.4c-1,0.4-2.1,0.5-3.1,0.3
				c-0.9-0.1-2-0.5-2-1.4c0-0.6,0.5-1,0.9-1.5c0.3-0.4,0.7-1.1,0.3-1.6C55.8,117.4,55.7,117.3,55.5,117.2z"/>
			<polygon class="st4" points="72.5,104.6 67.4,115 67.4,110.2 66.9,90 66.2,110.2 66.2,113.4 60.7,103.4 66.2,115.7 66.2,147 
				67.4,147 67.4,117.6 			"/>
		</g>
	</g>
</g>
<g id="freepik--Bench--inject-53">
	<path id="freepik--shadow--inject-53_1_" class="st26" d="M128.8,186.6l20,11.9c0.2,0.1,0.5,0.1,0.7,0l6.2-3.7
		c0.1,0,0.2-0.2,0.2-0.3s-0.1-0.1-0.2-0.2l-20-11.9c-0.2-0.1-0.5-0.1-0.7,0l-6.2,3.7C128.6,186.2,128.6,186.4,128.8,186.6z"/>
	<g id="freepik--bench--inject-53">
		<path class="st20" d="M139.7,186.2c0.1,0,0.2,0,0.2,0l4.8-2.9c0.5-0.3,0.9-0.9,0.9-1.5V176c0-0.3-0.2-0.4-0.4-0.4
			c-0.2,0-0.4,0.2-0.4,0.4v5.8c0,0.3-0.2,0.6-0.4,0.7l-4.8,2.9c-0.2,0.1-0.3,0.4-0.2,0.6c0,0,0,0,0,0
			C139.4,186.1,139.6,186.2,139.7,186.2z"/>
		<path class="st20" d="M149.6,191.9c0.1,0,0.2,0,0.2,0l4.8-2.9c0.5-0.3,0.9-0.9,0.9-1.5v-5.7c0-0.3-0.2-0.4-0.4-0.4
			c-0.2,0-0.4,0.2-0.4,0.4v5.7c0,0.3-0.2,0.6-0.4,0.7l-4.9,2.9c-0.2,0.1-0.3,0.3-0.3,0.5C149.2,191.9,149.4,192,149.6,191.9
			L149.6,191.9z"/>
		<path class="st20" d="M130.2,180.4c0.1,0,0.2,0,0.2,0l4.8-2.9c0.5-0.3,0.9-0.9,0.9-1.5v-5.8c0-0.3-0.2-0.4-0.4-0.4
			c-0.2,0-0.4,0.2-0.4,0.4v5.8c0,0.3-0.2,0.6-0.4,0.7l-4.8,2.9c-0.2,0.1-0.3,0.4-0.2,0.6c0,0,0,0,0,0
			C129.9,180.3,130,180.4,130.2,180.4z"/>
		<path class="st20" d="M148.8,191.4v6.4c0,0.1,0.1,0.2,0.2,0.2c0.2,0.1,0.5,0.1,0.7,0c0.1,0,0.1-0.1,0.1-0.2v-6.4H148.8z"/>
		<path class="st20" d="M153,188.9v6.4c0,0.1,0,0.2,0.1,0.2c0.2,0.1,0.5,0.1,0.7,0c0.1,0,0.1-0.1,0.2-0.2v-6.4H153z"/>
		<path class="st20" d="M129.4,179.8v6.4c0,0.1,0.1,0.2,0.2,0.2c0.2,0.1,0.5,0.1,0.7,0c0.1,0,0.1-0.1,0.1-0.2v-6.4H129.4z"/>
		<path class="st30" d="M133.7,177.3v6.4c0,0.1,0,0.2,0.1,0.2c0.2,0.1,0.5,0.1,0.7,0c0.1,0,0.1-0.1,0.2-0.2v-6.4L133.7,177.3
			L133.7,177.3z"/>
		<path class="st9" d="M156.5,183L156.5,183c0.2-0.1,0.3-0.3,0.3-0.5v-0.9c0-0.2-0.1-0.4-0.3-0.4l-21.3-12.7c-0.2-0.1-0.3-0.1-0.5,0
			l-0.1,0c-0.1,0.1-0.3,0.3-0.3,0.4v0.9c0,0.2,0.1,0.4,0.3,0.4l21.3,12.7C156.1,183.1,156.3,183.1,156.5,183z"/>
		<path class="st10" d="M156.5,183L156.5,183c0.2-0.1,0.3-0.3,0.3-0.5v-0.9c0-0.2-0.1-0.4-0.3-0.4l-21.3-12.7
			c-0.2-0.1-0.3-0.1-0.5,0l-0.1,0c-0.1,0.1-0.3,0.3-0.3,0.4v0.9c0,0.2,0.1,0.4,0.3,0.4l21.3,12.7C156.1,183.1,156.3,183.1,156.5,183
			z"/>
		<path class="st9" d="M155.6,182.1l1.1-0.7c0,0.1,0.1,0.2,0.1,0.3v0.9c0,0.2-0.1,0.4-0.3,0.4l-0.1,0c-0.2,0.1-0.3,0.1-0.5,0
			l-0.3-0.2V182.1z"/>
		<path class="st31" d="M155.6,182.1l1.1-0.7c0,0.1,0.1,0.2,0.1,0.3v0.9c0,0.2-0.1,0.4-0.3,0.4l-0.1,0c-0.2,0.1-0.3,0.1-0.5,0
			l-0.3-0.2V182.1z"/>
		<path class="st9" d="M156,181.6l-21.3-12.7c-0.1-0.1-0.3,0-0.3,0.1v0.9c0,0.2,0.1,0.4,0.3,0.4L156,183c0.1,0.1,0.3,0,0.3-0.2V182
			C156.2,181.8,156.1,181.7,156,181.6z"/>
		<path class="st13" d="M156,181.6l-21.3-12.7c-0.1-0.1-0.3,0-0.3,0.1v0.9c0,0.2,0.1,0.4,0.3,0.4L156,183c0.1,0.1,0.3,0,0.3-0.2V182
			C156.2,181.8,156.1,181.7,156,181.6z"/>
		<path class="st9" d="M156.5,185.5L156.5,185.5c0.2-0.1,0.3-0.3,0.3-0.5v-0.9c0-0.2-0.1-0.4-0.3-0.4l-21.3-12.7
			c-0.2-0.1-0.3-0.1-0.5,0l-0.1,0c-0.1,0.1-0.3,0.3-0.3,0.4v0.9c0,0.2,0.1,0.4,0.3,0.4l21.3,12.7
			C156.1,185.6,156.3,185.6,156.5,185.5z"/>
		<path class="st10" d="M156.5,185.5L156.5,185.5c0.2-0.1,0.3-0.3,0.3-0.5v-0.9c0-0.2-0.1-0.4-0.3-0.4l-21.3-12.7
			c-0.2-0.1-0.3-0.1-0.5,0l-0.1,0c-0.1,0.1-0.3,0.3-0.3,0.4v0.9c0,0.2,0.1,0.4,0.3,0.4l21.3,12.7
			C156.1,185.6,156.3,185.6,156.5,185.5z"/>
		<path class="st9" d="M155.6,184.6l1.1-0.7c0,0.1,0.1,0.2,0.1,0.3v0.9c0,0.2-0.1,0.4-0.3,0.4l-0.1,0c-0.2,0.1-0.3,0.1-0.5,0
			l-0.3-0.2V184.6z"/>
		<path class="st31" d="M155.6,184.6l1.1-0.7c0,0.1,0.1,0.2,0.1,0.3v0.9c0,0.2-0.1,0.4-0.3,0.4l-0.1,0c-0.2,0.1-0.3,0.1-0.5,0
			l-0.3-0.2V184.6z"/>
		<path class="st9" d="M156,184.1l-21.3-12.7c-0.1-0.1-0.3,0-0.3,0.2v0.9c0,0.2,0.1,0.4,0.3,0.4l21.3,12.7c0.1,0.1,0.3,0,0.3-0.1
			v-0.9C156.2,184.4,156.1,184.2,156,184.1z"/>
		<path class="st13" d="M156,184.1l-21.3-12.7c-0.1-0.1-0.3,0-0.3,0.2v0.9c0,0.2,0.1,0.4,0.3,0.4l21.3,12.7c0.1,0.1,0.3,0,0.3-0.1
			v-0.9C156.2,184.4,156.1,184.2,156,184.1z"/>
		<path class="st9" d="M156.5,188.1L156.5,188.1c0.2-0.1,0.3-0.3,0.3-0.5v-0.9c0-0.2-0.1-0.4-0.3-0.4l-21.3-12.7
			c-0.2-0.1-0.3-0.1-0.5,0l-0.1,0c-0.1,0.1-0.3,0.3-0.3,0.4v0.9c0,0.2,0.1,0.4,0.3,0.4L156,188C156.1,188.2,156.3,188.2,156.5,188.1
			z"/>
		<path class="st10" d="M156.5,188.1L156.5,188.1c0.2-0.1,0.3-0.3,0.3-0.5v-0.9c0-0.2-0.1-0.4-0.3-0.4l-21.3-12.7
			c-0.2-0.1-0.3-0.1-0.5,0l-0.1,0c-0.1,0.1-0.3,0.3-0.3,0.4v0.9c0,0.2,0.1,0.4,0.3,0.4L156,188C156.1,188.2,156.3,188.2,156.5,188.1
			z"/>
		<path class="st9" d="M155.6,187.2l1.1-0.7c0,0.1,0.1,0.2,0.1,0.3v0.9c0,0.2-0.1,0.4-0.3,0.4l-0.1,0c-0.2,0.1-0.3,0.1-0.5,0
			l-0.3-0.2V187.2z"/>
		<path class="st31" d="M155.6,187.2l1.1-0.7c0,0.1,0.1,0.2,0.1,0.3v0.9c0,0.2-0.1,0.4-0.3,0.4l-0.1,0c-0.2,0.1-0.3,0.1-0.5,0
			l-0.3-0.2V187.2z"/>
		<path class="st9" d="M156,186.7L134.7,174c-0.1-0.1-0.3,0-0.3,0.1v0.9c0,0.2,0.1,0.4,0.3,0.4l21.3,12.7c0.1,0.1,0.3,0,0.3-0.2
			v-0.9C156.2,186.9,156.1,186.8,156,186.7z"/>
		<path class="st13" d="M156,186.7L134.7,174c-0.1-0.1-0.3,0-0.3,0.1v0.9c0,0.2,0.1,0.4,0.3,0.4l21.3,12.7c0.1,0.1,0.3,0,0.3-0.2
			v-0.9C156.2,186.9,156.1,186.8,156,186.7z"/>
		<path class="st9" d="M155.6,189.6v0.1c0,0.2-0.1,0.4-0.3,0.4l-0.7,0.4c-0.2,0.1-0.3,0.1-0.5,0l-21.3-12.7
			c-0.1-0.1-0.3-0.3-0.3-0.4v-0.1c0-0.2,0.1-0.4,0.3-0.4l0.7-0.4c0.2-0.1,0.3-0.1,0.5,0l21.3,12.7
			C155.5,189.3,155.6,189.4,155.6,189.6z"/>
		<path class="st16" d="M155.6,189.6v0.1c0,0.2-0.1,0.4-0.3,0.4l-0.7,0.4c-0.2,0.1-0.3,0.1-0.5,0l-21.3-12.7
			c-0.1-0.1-0.3-0.3-0.3-0.4v-0.1c0-0.2,0.1-0.4,0.3-0.4l0.7-0.4c0.2-0.1,0.3-0.1,0.5,0l21.3,12.7
			C155.5,189.3,155.6,189.4,155.6,189.6z"/>
		<path class="st9" d="M154.4,189.3v1.3c0.1,0,0.2,0,0.3,0l0.7-0.4c0.1-0.1,0.3-0.3,0.3-0.4v-0.1c0-0.2-0.1-0.4-0.3-0.4L155,189
			L154.4,189.3z"/>
		<path class="st31" d="M154.4,189.3v1.3c0.1,0,0.2,0,0.3,0l0.7-0.4c0.1-0.1,0.3-0.3,0.3-0.4v-0.1c0-0.2-0.1-0.4-0.3-0.4L155,189
			L154.4,189.3z"/>
		<path class="st9" d="M154.1,189.9l-21.3-12.7c-0.1,0-0.1-0.1-0.1-0.2c0,0,0-0.1,0.1-0.1l0.7-0.4c0.2-0.1,0.3-0.1,0.5,0l21.3,12.7
			c0.1,0,0.1,0.1,0.1,0.2c0,0,0,0.1-0.1,0.1l-0.7,0.4C154.5,190,154.3,190,154.1,189.9z"/>
		<path class="st10" d="M154.1,189.9l-21.3-12.7c-0.1,0-0.1-0.1-0.1-0.2c0,0,0-0.1,0.1-0.1l0.7-0.4c0.2-0.1,0.3-0.1,0.5,0l21.3,12.7
			c0.1,0,0.1,0.1,0.1,0.2c0,0,0,0.1-0.1,0.1l-0.7,0.4C154.5,190,154.3,190,154.1,189.9z"/>
		<path class="st9" d="M153.5,190.9L153.5,190.9c0,0.3-0.1,0.4-0.3,0.5l-0.7,0.4c-0.2,0.1-0.3,0.1-0.5,0l-21.3-12.7
			c-0.1-0.1-0.3-0.3-0.3-0.4v-0.1c0-0.2,0.1-0.4,0.3-0.4l0.7-0.4c0.2-0.1,0.3-0.1,0.5,0l21.3,12.7
			C153.4,190.6,153.5,190.7,153.5,190.9z"/>
		<path class="st16" d="M153.5,190.9L153.5,190.9c0,0.3-0.1,0.4-0.3,0.5l-0.7,0.4c-0.2,0.1-0.3,0.1-0.5,0l-21.3-12.7
			c-0.1-0.1-0.3-0.3-0.3-0.4v-0.1c0-0.2,0.1-0.4,0.3-0.4l0.7-0.4c0.2-0.1,0.3-0.1,0.5,0l21.3,12.7
			C153.4,190.6,153.5,190.7,153.5,190.9z"/>
		<path class="st9" d="M152.3,190.6v1.3c0.1,0,0.2,0,0.3,0l0.7-0.4c0.1-0.1,0.3-0.3,0.3-0.4v-0.1c0-0.2-0.1-0.4-0.3-0.4l-0.3-0.2
			L152.3,190.6z"/>
		<path class="st31" d="M152.3,190.6v1.3c0.1,0,0.2,0,0.3,0l0.7-0.4c0.1-0.1,0.3-0.3,0.3-0.4v-0.1c0-0.2-0.1-0.4-0.3-0.4l-0.3-0.2
			L152.3,190.6z"/>
		<path class="st9" d="M152,191.1l-21.3-12.7c-0.1,0-0.1-0.1-0.1-0.2c0,0,0-0.1,0.1-0.1l0.7-0.4c0.2-0.1,0.3-0.1,0.5,0l21.3,12.7
			c0.1,0,0.1,0.1,0.1,0.2c0,0,0,0.1-0.1,0.1l-0.7,0.4C152.4,191.2,152.2,191.2,152,191.1z"/>
		<path class="st10" d="M152,191.1l-21.3-12.7c-0.1,0-0.1-0.1-0.1-0.2c0,0,0-0.1,0.1-0.1l0.7-0.4c0.2-0.1,0.3-0.1,0.5,0l21.3,12.7
			c0.1,0,0.1,0.1,0.1,0.2c0,0,0,0.1-0.1,0.1l-0.7,0.4C152.4,191.2,152.2,191.2,152,191.1z"/>
		<path class="st9" d="M151.4,192.2L151.4,192.2c0,0.3-0.1,0.4-0.3,0.5l-0.7,0.4c-0.2,0.1-0.3,0.1-0.5,0l-21.3-12.7
			c-0.1-0.1-0.3-0.3-0.3-0.4v-0.1c0-0.2,0.1-0.4,0.3-0.4l0.7-0.4c0.2-0.1,0.3-0.1,0.5,0l21.3,12.7
			C151.3,191.8,151.4,192,151.4,192.2z"/>
		<path class="st16" d="M151.4,192.2L151.4,192.2c0,0.3-0.1,0.4-0.3,0.5l-0.7,0.4c-0.2,0.1-0.3,0.1-0.5,0l-21.3-12.7
			c-0.1-0.1-0.3-0.3-0.3-0.4v-0.1c0-0.2,0.1-0.4,0.3-0.4l0.7-0.4c0.2-0.1,0.3-0.1,0.5,0l21.3,12.7
			C151.3,191.8,151.4,192,151.4,192.2z"/>
		<path class="st9" d="M150.2,191.9v1.3c0.1,0,0.2,0,0.3,0l0.7-0.4c0.1-0.1,0.3-0.3,0.3-0.4v-0.1c0-0.2-0.1-0.4-0.3-0.4l-0.3-0.2
			L150.2,191.9z"/>
		<path class="st31" d="M150.2,191.9v1.3c0.1,0,0.2,0,0.3,0l0.7-0.4c0.1-0.1,0.3-0.3,0.3-0.4v-0.1c0-0.2-0.1-0.4-0.3-0.4l-0.3-0.2
			L150.2,191.9z"/>
		<path class="st9" d="M149.9,192.4l-21.3-12.7c-0.1,0-0.1-0.1-0.1-0.2c0,0,0-0.1,0.1-0.1l0.7-0.4c0.2-0.1,0.3-0.1,0.5,0l21.3,12.7
			c0.1,0,0.1,0.1,0.1,0.2c0,0,0,0.1-0.1,0.1l-0.7,0.4C150.3,192.5,150.1,192.5,149.9,192.4z"/>
		<path class="st9" d="M149.9,192.4l-21.3-12.7c-0.1,0-0.1-0.1-0.1-0.2c0,0,0-0.1,0.1-0.1l0.7-0.4c0.2-0.1,0.3-0.1,0.5,0l21.3,12.7
			c0.1,0,0.1,0.1,0.1,0.2c0,0,0,0.1-0.1,0.1l-0.7,0.4C150.3,192.5,150.1,192.5,149.9,192.4z"/>
		<path class="st10" d="M149.9,192.4l-21.3-12.7c-0.1,0-0.1-0.1-0.1-0.2c0,0,0-0.1,0.1-0.1l0.7-0.4c0.2-0.1,0.3-0.1,0.5,0l21.3,12.7
			c0.1,0,0.1,0.1,0.1,0.2c0,0,0,0.1-0.1,0.1l-0.7,0.4C150.3,192.5,150.1,192.5,149.9,192.4z"/>
		<path class="st30" d="M155,181.5c0.1,0,0.2,0.2,0.2,0.3s-0.1,0.2-0.2,0.1c-0.1,0-0.2-0.2-0.2-0.3C154.9,181.5,155,181.5,155,181.5
			z"/>
		<path class="st30" d="M155,184c0.1,0,0.2,0.2,0.2,0.3s-0.1,0.2-0.2,0.1c-0.1,0-0.2-0.2-0.2-0.3C154.9,184,155,184,155,184z"/>
		<path class="st30" d="M155,186.6c0.1,0,0.2,0.2,0.2,0.3c0,0.1-0.1,0.1-0.2,0.1c-0.1,0-0.2-0.2-0.2-0.3
			C154.9,186.6,155,186.5,155,186.6z"/>
		<path class="st30" d="M135.7,169.9c0.1,0.1,0.2,0.2,0.2,0.3c0,0.1-0.1,0.1-0.2,0.1c-0.1,0-0.2-0.2-0.2-0.3
			C135.5,169.9,135.6,169.9,135.7,169.9z"/>
		<path class="st30" d="M135.7,172.5c0.1,0,0.2,0.2,0.2,0.3c0,0.1-0.1,0.2-0.2,0.1c-0.1,0-0.2-0.2-0.2-0.3
			C135.5,172.5,135.6,172.5,135.7,172.5z"/>
		<path class="st30" d="M135.7,175.1c0.1,0,0.2,0.2,0.2,0.3c0,0.1-0.1,0.1-0.2,0.1c-0.1,0-0.2-0.2-0.2-0.3S135.6,175,135.7,175.1z"
			/>
		<path class="st30" d="M153.7,188.7c0,0,0.1,0,0,0.1c0,0,0,0,0,0c-0.1,0-0.2,0-0.3,0c0,0-0.1,0,0-0.1c0,0,0,0,0,0
			C153.5,188.6,153.6,188.6,153.7,188.7z"/>
		<path class="st30" d="M151.5,189.9c0.1,0,0.1,0.1,0,0.2c-0.1,0-0.2,0-0.3,0c-0.1,0-0.1-0.1,0-0.2
			C151.3,189.9,151.5,189.9,151.5,189.9z"/>
		<path class="st30" d="M149.4,191.2c0.1,0,0.1,0.1,0,0.2c-0.1,0-0.2,0-0.3,0c-0.1,0-0.1-0.1,0-0.2
			C149.2,191.2,149.3,191.2,149.4,191.2z"/>
		<path class="st30" d="M134.3,177.1c0.1,0,0.1,0.1,0,0.2c-0.1,0-0.2,0-0.3,0c-0.1,0-0.1-0.1,0-0.2
			C134.1,177.1,134.2,177.1,134.3,177.1z"/>
		<path class="st30" d="M132.2,178.4c0.1,0,0.1,0.1,0,0.2s-0.2,0-0.3,0s-0.1-0.1,0-0.2C132,178.3,132,178.3,132.2,178.4z"/>
		<path class="st30" d="M130,179.7c0.1,0,0.1,0.1,0,0.2c-0.1,0-0.2,0-0.3,0c-0.1,0-0.1-0.1,0-0.2C129.8,179.6,129.9,179.6,130,179.7
			z"/>
		<path class="st30" d="M145.2,175.8c0.1,0,0.2,0.2,0.2,0.3c0,0.1-0.1,0.1-0.2,0.1s-0.2-0.2-0.2-0.3
			C145,175.8,145.1,175.7,145.2,175.8z"/>
		<path class="st30" d="M145.2,178.3c0.1,0,0.2,0.2,0.2,0.3c0,0.1-0.1,0.1-0.2,0.1c-0.1,0-0.2-0.2-0.2-0.3
			C145,178.3,145.1,178.2,145.2,178.3z"/>
		<path class="st30" d="M145.2,180.8c0.1,0,0.2,0.2,0.2,0.3c0,0.1-0.1,0.2-0.2,0.1c-0.1,0-0.2-0.2-0.2-0.3
			C145,180.8,145.1,180.8,145.2,180.8z"/>
		<path class="st30" d="M143.8,182.9c0,0,0.1,0.1,0,0.1c0,0,0,0,0,0c-0.1,0-0.2,0-0.3,0s-0.1-0.1,0-0.2
			C143.6,182.9,143.7,182.9,143.8,182.9z"/>
		<path class="st30" d="M141.7,184.2c0,0,0.1,0.1,0,0.1c0,0,0,0,0,0c-0.1,0-0.2,0-0.3,0c0,0-0.1-0.1,0-0.1c0,0,0,0,0,0
			C141.5,184.2,141.6,184.2,141.7,184.2z"/>
		<path class="st30" d="M139.6,185.5c0,0,0.1,0.1,0,0.1c0,0,0,0,0,0c-0.1,0-0.2,0-0.3,0c0,0-0.1-0.1,0-0.1c0,0,0,0,0,0
			C139.3,185.4,139.5,185.4,139.6,185.5z"/>
	</g>
</g>
<g id="freepik--Bench--inject-53_2_">
	<path id="freepik--shadow--inject-53_3_" class="st26" d="M72,153.6l20,11.9c0.2,0.1,0.5,0.1,0.7,0l6.2-3.7c0.1,0,0.2-0.2,0.2-0.3
		c0-0.1-0.1-0.1-0.2-0.2l-20-11.9c-0.2-0.1-0.5-0.1-0.7,0l-6.2,3.7C71.8,153.3,71.8,153.5,72,153.6z"/>
	<g id="freepik--bench--inject-53_2_">
		<path class="st20" d="M82.9,153.3c0.1,0,0.2,0,0.2,0l4.8-2.9c0.5-0.3,0.9-0.9,0.9-1.5v-5.7c0-0.3-0.2-0.4-0.4-0.4
			s-0.4,0.2-0.4,0.4v5.8c0,0.3-0.2,0.6-0.4,0.7l-4.8,2.9c-0.2,0.1-0.3,0.4-0.2,0.6c0,0,0,0,0,0C82.6,153.2,82.8,153.3,82.9,153.3z"
			/>
		<path class="st20" d="M92.8,159c0.1,0,0.2,0,0.2,0l4.8-2.9c0.5-0.3,0.9-0.9,0.9-1.5v-5.7c0-0.3-0.2-0.4-0.4-0.4s-0.4,0.2-0.4,0.4
			v5.8c0,0.3-0.2,0.6-0.4,0.7l-4.9,2.9c-0.2,0.1-0.3,0.3-0.3,0.5C92.3,159,92.6,159.1,92.8,159L92.8,159z"/>
		<path class="st20" d="M73.4,147.5c0.1,0,0.2,0,0.2,0l4.8-2.9c0.5-0.3,0.9-0.9,0.9-1.5v-5.8c0-0.3-0.2-0.4-0.4-0.4
			s-0.4,0.2-0.4,0.4v5.8c0,0.3-0.2,0.6-0.4,0.7l-4.8,2.9c-0.2,0.1-0.3,0.4-0.2,0.6c0,0,0,0,0,0C73.1,147.4,73.2,147.5,73.4,147.5z"
			/>
		<path class="st20" d="M91.9,158.5v6.4c0,0.1,0.1,0.2,0.2,0.2c0.2,0.1,0.5,0.1,0.7,0c0.1,0,0.1-0.1,0.1-0.2v-6.4H91.9z"/>
		<path class="st20" d="M96.2,155.9v6.4c0,0.1,0,0.2,0.1,0.2c0.2,0.1,0.5,0.1,0.7,0c0.1,0,0.1-0.1,0.2-0.2v-6.4H96.2z"/>
		<path class="st20" d="M72.6,146.9v6.4c0,0.1,0.1,0.2,0.2,0.2c0.2,0.1,0.5,0.1,0.7,0c0.1,0,0.1-0.1,0.1-0.2v-6.4H72.6z"/>
		<path class="st30" d="M76.8,144.4v6.4c0,0.1,0,0.2,0.1,0.2c0.2,0.1,0.5,0.1,0.7,0c0.1,0,0.1-0.1,0.2-0.2v-6.4H76.8z"/>
		<path class="st9" d="M99.7,150.1L99.7,150.1c0.2-0.1,0.3-0.3,0.3-0.5v-0.9c0-0.2-0.1-0.4-0.3-0.4l-21.3-12.7
			c-0.2-0.1-0.3-0.1-0.5,0l-0.1,0c-0.1,0.1-0.3,0.3-0.3,0.4v0.9c0,0.2,0.1,0.4,0.3,0.4l21.3,12.7C99.3,150.2,99.5,150.2,99.7,150.1z
			"/>
		<path class="st10" d="M99.7,150.1L99.7,150.1c0.2-0.1,0.3-0.3,0.3-0.5v-0.9c0-0.2-0.1-0.4-0.3-0.4l-21.3-12.7
			c-0.2-0.1-0.3-0.1-0.5,0l-0.1,0c-0.1,0.1-0.3,0.3-0.3,0.4v0.9c0,0.2,0.1,0.4,0.3,0.4l21.3,12.7C99.3,150.2,99.5,150.2,99.7,150.1z
			"/>
		<path class="st9" d="M98.8,149.1l1.1-0.7c0,0.1,0.1,0.2,0.1,0.3v0.9c0,0.2-0.1,0.4-0.3,0.4l-0.1,0c-0.2,0.1-0.3,0.1-0.5,0
			l-0.3-0.2V149.1z"/>
		<path class="st31" d="M98.8,149.1l1.1-0.7c0,0.1,0.1,0.2,0.1,0.3v0.9c0,0.2-0.1,0.4-0.3,0.4l-0.1,0c-0.2,0.1-0.3,0.1-0.5,0
			l-0.3-0.2V149.1z"/>
		<path class="st9" d="M99.2,148.7L77.9,136c-0.1-0.1-0.3,0-0.3,0.1v0.9c0,0.2,0.1,0.4,0.3,0.4l21.3,12.7c0.1,0.1,0.3,0,0.3-0.2
			v-0.9C99.4,148.9,99.3,148.7,99.2,148.7z"/>
		<path class="st13" d="M99.2,148.7L77.9,136c-0.1-0.1-0.3,0-0.3,0.1v0.9c0,0.2,0.1,0.4,0.3,0.4l21.3,12.7c0.1,0.1,0.3,0,0.3-0.2
			v-0.9C99.4,148.9,99.3,148.7,99.2,148.7z"/>
		<path class="st9" d="M99.7,152.6L99.7,152.6c0.2-0.1,0.3-0.3,0.3-0.5v-0.9c0-0.2-0.1-0.4-0.3-0.4l-21.3-12.7
			c-0.2-0.1-0.3-0.1-0.5,0l-0.1,0c-0.1,0.1-0.3,0.3-0.3,0.4v0.9c0,0.2,0.1,0.4,0.3,0.4l21.3,12.7C99.3,152.7,99.5,152.7,99.7,152.6z
			"/>
		<path class="st10" d="M99.7,152.6L99.7,152.6c0.2-0.1,0.3-0.3,0.3-0.5v-0.9c0-0.2-0.1-0.4-0.3-0.4l-21.3-12.7
			c-0.2-0.1-0.3-0.1-0.5,0l-0.1,0c-0.1,0.1-0.3,0.3-0.3,0.4v0.9c0,0.2,0.1,0.4,0.3,0.4l21.3,12.7C99.3,152.7,99.5,152.7,99.7,152.6z
			"/>
		<path class="st9" d="M98.8,151.7l1.1-0.7c0,0.1,0.1,0.2,0.1,0.3v0.9c0,0.2-0.1,0.4-0.3,0.4l-0.1,0c-0.2,0.1-0.3,0.1-0.5,0
			l-0.3-0.2V151.7z"/>
		<path class="st31" d="M98.8,151.7l1.1-0.7c0,0.1,0.1,0.2,0.1,0.3v0.9c0,0.2-0.1,0.4-0.3,0.4l-0.1,0c-0.2,0.1-0.3,0.1-0.5,0
			l-0.3-0.2V151.7z"/>
		<path class="st9" d="M99.2,151.2l-21.3-12.7c-0.1-0.1-0.3,0-0.3,0.2v0.9c0,0.2,0.1,0.4,0.3,0.4l21.3,12.7c0.1,0.1,0.3,0,0.3-0.1
			v-0.9C99.4,151.4,99.3,151.3,99.2,151.2z"/>
		<path class="st13" d="M99.2,151.2l-21.3-12.7c-0.1-0.1-0.3,0-0.3,0.2v0.9c0,0.2,0.1,0.4,0.3,0.4l21.3,12.7c0.1,0.1,0.3,0,0.3-0.1
			v-0.9C99.4,151.4,99.3,151.3,99.2,151.2z"/>
		<path class="st9" d="M99.7,155.2L99.7,155.2c0.2-0.1,0.3-0.3,0.3-0.5v-0.8c0-0.2-0.1-0.4-0.3-0.4l-21.3-12.7
			c-0.2-0.1-0.3-0.1-0.5,0l-0.1,0c-0.1,0.1-0.3,0.3-0.3,0.4v0.9c0,0.2,0.1,0.4,0.3,0.4l21.3,12.7C99.3,155.2,99.5,155.2,99.7,155.2z
			"/>
		<path class="st10" d="M99.7,155.2L99.7,155.2c0.2-0.1,0.3-0.3,0.3-0.5v-0.8c0-0.2-0.1-0.4-0.3-0.4l-21.3-12.7
			c-0.2-0.1-0.3-0.1-0.5,0l-0.1,0c-0.1,0.1-0.3,0.3-0.3,0.4v0.9c0,0.2,0.1,0.4,0.3,0.4l21.3,12.7C99.3,155.2,99.5,155.2,99.7,155.2z
			"/>
		<path class="st9" d="M98.8,154.3l1.1-0.7c0,0.1,0.1,0.2,0.1,0.3v0.9c0,0.2-0.1,0.4-0.3,0.4l-0.1,0c-0.2,0.1-0.3,0.1-0.5,0
			l-0.3-0.2V154.3z"/>
		<path class="st31" d="M98.8,154.3l1.1-0.7c0,0.1,0.1,0.2,0.1,0.3v0.9c0,0.2-0.1,0.4-0.3,0.4l-0.1,0c-0.2,0.1-0.3,0.1-0.5,0
			l-0.3-0.2V154.3z"/>
		<path class="st9" d="M99.2,153.7L77.9,141c-0.1-0.1-0.3,0-0.3,0.1v0.9c0,0.2,0.1,0.4,0.3,0.4l21.3,12.7c0.1,0.1,0.3,0,0.3-0.2
			v-0.9C99.4,154,99.3,153.8,99.2,153.7z"/>
		<path class="st13" d="M99.2,153.7L77.9,141c-0.1-0.1-0.3,0-0.3,0.1v0.9c0,0.2,0.1,0.4,0.3,0.4l21.3,12.7c0.1,0.1,0.3,0,0.3-0.2
			v-0.9C99.4,154,99.3,153.8,99.2,153.7z"/>
		<path class="st9" d="M98.8,156.7v0.1c0,0.2-0.1,0.4-0.3,0.4l-0.7,0.4c-0.2,0.1-0.3,0.1-0.5,0L76,145c-0.1-0.1-0.3-0.3-0.3-0.4
			v-0.1c0-0.2,0.1-0.4,0.3-0.4l0.7-0.4c0.2-0.1,0.3-0.1,0.5,0l21.3,12.7C98.7,156.4,98.8,156.5,98.8,156.7z"/>
		<path class="st16" d="M98.8,156.7v0.1c0,0.2-0.1,0.4-0.3,0.4l-0.7,0.4c-0.2,0.1-0.3,0.1-0.5,0L76,145c-0.1-0.1-0.3-0.3-0.3-0.4
			v-0.1c0-0.2,0.1-0.4,0.3-0.4l0.7-0.4c0.2-0.1,0.3-0.1,0.5,0l21.3,12.7C98.7,156.4,98.8,156.5,98.8,156.7z"/>
		<path class="st9" d="M97.6,156.4v1.3c0.1,0,0.2,0,0.3,0l0.7-0.4c0.1-0.1,0.3-0.3,0.3-0.4v-0.1c0-0.2-0.1-0.4-0.3-0.4l-0.3-0.2
			L97.6,156.4z"/>
		<path class="st31" d="M97.6,156.4v1.3c0.1,0,0.2,0,0.3,0l0.7-0.4c0.1-0.1,0.3-0.3,0.3-0.4v-0.1c0-0.2-0.1-0.4-0.3-0.4l-0.3-0.2
			L97.6,156.4z"/>
		<path class="st9" d="M97.4,157L76,144.3c-0.1,0-0.1-0.1-0.1-0.2c0,0,0-0.1,0.1-0.1l0.7-0.4c0.2-0.1,0.3-0.1,0.5,0l21.3,12.7
			c0.1,0,0.1,0.1,0.1,0.2c0,0,0,0.1-0.1,0.1l-0.7,0.4C97.7,157,97.5,157,97.4,157z"/>
		<path class="st10" d="M97.4,157L76,144.3c-0.1,0-0.1-0.1-0.1-0.2c0,0,0-0.1,0.1-0.1l0.7-0.4c0.2-0.1,0.3-0.1,0.5,0l21.3,12.7
			c0.1,0,0.1,0.1,0.1,0.2c0,0,0,0.1-0.1,0.1l-0.7,0.4C97.7,157,97.5,157,97.4,157z"/>
		<path class="st9" d="M96.7,158L96.7,158c0,0.3-0.1,0.4-0.3,0.5l-0.7,0.4c-0.2,0.1-0.3,0.1-0.5,0l-21.3-12.7
			c-0.1-0.1-0.3-0.3-0.3-0.4v-0.1c0-0.2,0.1-0.4,0.3-0.4l0.7-0.4c0.2-0.1,0.3-0.1,0.5,0l21.3,12.7C96.6,157.6,96.7,157.8,96.7,158z"
			/>
		<path class="st16" d="M96.7,158L96.7,158c0,0.3-0.1,0.4-0.3,0.5l-0.7,0.4c-0.2,0.1-0.3,0.1-0.5,0l-21.3-12.7
			c-0.1-0.1-0.3-0.3-0.3-0.4v-0.1c0-0.2,0.1-0.4,0.3-0.4l0.7-0.4c0.2-0.1,0.3-0.1,0.5,0l21.3,12.7C96.6,157.6,96.7,157.8,96.7,158z"
			/>
		<path class="st9" d="M95.5,157.7v1.3c0.1,0,0.2,0,0.3,0l0.7-0.4c0.1-0.1,0.3-0.3,0.3-0.4V158c0-0.2-0.1-0.4-0.3-0.4l-0.3-0.2
			L95.5,157.7z"/>
		<path class="st31" d="M95.5,157.7v1.3c0.1,0,0.2,0,0.3,0l0.7-0.4c0.1-0.1,0.3-0.3,0.3-0.4V158c0-0.2-0.1-0.4-0.3-0.4l-0.3-0.2
			L95.5,157.7z"/>
		<path class="st9" d="M95.2,158.2l-21.3-12.7c-0.1,0-0.1-0.1-0.1-0.2c0,0,0-0.1,0.1-0.1l0.7-0.4c0.2-0.1,0.3-0.1,0.5,0l21.3,12.7
			c0.1,0,0.1,0.1,0.1,0.2c0,0,0,0.1-0.1,0.1l-0.7,0.4C95.6,158.3,95.4,158.3,95.2,158.2z"/>
		<path class="st10" d="M95.2,158.2l-21.3-12.7c-0.1,0-0.1-0.1-0.1-0.2c0,0,0-0.1,0.1-0.1l0.7-0.4c0.2-0.1,0.3-0.1,0.5,0l21.3,12.7
			c0.1,0,0.1,0.1,0.1,0.2c0,0,0,0.1-0.1,0.1l-0.7,0.4C95.6,158.3,95.4,158.3,95.2,158.2z"/>
		<path class="st9" d="M94.6,159.2L94.6,159.2c0,0.3-0.1,0.4-0.3,0.5l-0.7,0.4c-0.2,0.1-0.3,0.1-0.5,0l-21.3-12.7
			c-0.1-0.1-0.3-0.3-0.3-0.4V147c0-0.2,0.1-0.4,0.3-0.4l0.7-0.4c0.2-0.1,0.3-0.1,0.5,0l21.3,12.7C94.5,158.9,94.6,159.1,94.6,159.2z
			"/>
		<path class="st16" d="M94.6,159.2L94.6,159.2c0,0.3-0.1,0.4-0.3,0.5l-0.7,0.4c-0.2,0.1-0.3,0.1-0.5,0l-21.3-12.7
			c-0.1-0.1-0.3-0.3-0.3-0.4V147c0-0.2,0.1-0.4,0.3-0.4l0.7-0.4c0.2-0.1,0.3-0.1,0.5,0l21.3,12.7C94.5,158.9,94.6,159.1,94.6,159.2z
			"/>
		<path class="st9" d="M93.4,158.9v1.3c0.1,0,0.2,0,0.3,0l0.7-0.4c0.1-0.1,0.3-0.3,0.3-0.4v-0.1c0-0.2-0.1-0.4-0.3-0.4l-0.3-0.2
			L93.4,158.9z"/>
		<path class="st31" d="M93.4,158.9v1.3c0.1,0,0.2,0,0.3,0l0.7-0.4c0.1-0.1,0.3-0.3,0.3-0.4v-0.1c0-0.2-0.1-0.4-0.3-0.4l-0.3-0.2
			L93.4,158.9z"/>
		<path class="st9" d="M93.1,159.5l-21.3-12.7c-0.1,0-0.1-0.1-0.1-0.2c0,0,0-0.1,0.1-0.1l0.7-0.4c0.2-0.1,0.3-0.1,0.5,0l21.3,12.7
			c0.1,0,0.1,0.1,0.1,0.2c0,0,0,0.1-0.1,0.1l-0.7,0.4C93.4,159.6,93.3,159.6,93.1,159.5z"/>
		<path class="st9" d="M93.1,159.5l-21.3-12.7c-0.1,0-0.1-0.1-0.1-0.2c0,0,0-0.1,0.1-0.1l0.7-0.4c0.2-0.1,0.3-0.1,0.5,0l21.3,12.7
			c0.1,0,0.1,0.1,0.1,0.2c0,0,0,0.1-0.1,0.1l-0.7,0.4C93.4,159.6,93.3,159.6,93.1,159.5z"/>
		<path class="st10" d="M93.1,159.5l-21.3-12.7c-0.1,0-0.1-0.1-0.1-0.2c0,0,0-0.1,0.1-0.1l0.7-0.4c0.2-0.1,0.3-0.1,0.5,0l21.3,12.7
			c0.1,0,0.1,0.1,0.1,0.2c0,0,0,0.1-0.1,0.1l-0.7,0.4C93.4,159.6,93.3,159.6,93.1,159.5z"/>
		<path class="st30" d="M98.2,148.6c0.1,0,0.2,0.2,0.2,0.3c0,0.1-0.1,0.2-0.2,0.1c-0.1,0-0.2-0.2-0.2-0.3
			C98.1,148.6,98.1,148.5,98.2,148.6z"/>
		<path class="st30" d="M98.2,151.1c0.1,0,0.2,0.2,0.2,0.3c0,0.1-0.1,0.2-0.2,0.1c-0.1,0-0.2-0.2-0.2-0.3
			C98.1,151.1,98.1,151.1,98.2,151.1z"/>
		<path class="st30" d="M98.2,153.7c0.1,0,0.2,0.2,0.2,0.3c0,0.1-0.1,0.1-0.2,0.1c-0.1,0-0.2-0.2-0.2-0.3
			C98.1,153.6,98.1,153.6,98.2,153.7z"/>
		<path class="st30" d="M78.9,137c0.1,0.1,0.2,0.2,0.2,0.3c0,0.1-0.1,0.1-0.2,0.1c-0.1,0-0.2-0.2-0.2-0.3
			C78.7,137,78.8,137,78.9,137z"/>
		<path class="st30" d="M78.9,139.6c0.1,0,0.2,0.2,0.2,0.3c0,0.1-0.1,0.2-0.2,0.1c-0.1,0-0.2-0.2-0.2-0.3
			C78.7,139.6,78.8,139.5,78.9,139.6z"/>
		<path class="st30" d="M78.9,142.1c0.1,0,0.2,0.2,0.2,0.3c0,0.1-0.1,0.1-0.2,0.1c-0.1,0-0.2-0.2-0.2-0.3
			C78.7,142.1,78.8,142.1,78.9,142.1z"/>
		<path class="st30" d="M96.9,155.7c0,0,0.1,0,0,0.1c0,0,0,0,0,0c-0.1,0-0.2,0-0.3,0c0,0-0.1,0,0-0.1c0,0,0,0,0,0
			C96.7,155.7,96.8,155.7,96.9,155.7z"/>
		<path class="st30" d="M94.7,157c0.1,0,0.1,0.1,0,0.2c-0.1,0-0.2,0-0.3,0c-0.1,0-0.1-0.1,0-0.2C94.5,157,94.6,157,94.7,157z"/>
		<path class="st30" d="M92.6,158.3c0.1,0,0.1,0.1,0,0.2c-0.1,0-0.2,0-0.3,0c-0.1,0-0.1-0.1,0-0.2C92.4,158.2,92.5,158.2,92.6,158.3
			z"/>
		<path class="st30" d="M77.5,144.2c0.1,0,0.1,0.1,0,0.2c-0.1,0-0.2,0-0.3,0c-0.1,0-0.1-0.1,0-0.2C77.3,144.2,77.4,144.2,77.5,144.2
			z"/>
		<path class="st30" d="M75.3,145.5c0.1,0,0.1,0.1,0,0.2c-0.1,0-0.2,0-0.3,0s-0.1-0.1,0-0.2C75.2,145.4,75.3,145.4,75.3,145.5z"/>
		<path class="st30" d="M73.2,146.8c0.1,0,0.1,0.1,0,0.2c-0.1,0-0.2,0-0.3,0s-0.1-0.1,0-0.2C73,146.7,73.1,146.7,73.2,146.8z"/>
		<path class="st30" d="M88.4,142.8c0.1,0,0.2,0.2,0.2,0.3c0,0.1-0.1,0.1-0.2,0.1c-0.1,0-0.2-0.2-0.2-0.3
			C88.2,142.8,88.3,142.8,88.4,142.8z"/>
		<path class="st30" d="M88.4,145.4c0.1,0,0.2,0.2,0.2,0.3c0,0.1-0.1,0.1-0.2,0.1c-0.1,0-0.2-0.2-0.2-0.3
			C88.2,145.4,88.3,145.3,88.4,145.4z"/>
		<path class="st30" d="M88.4,147.9c0.1,0,0.2,0.2,0.2,0.3c0,0.1-0.1,0.2-0.2,0.1c-0.1,0-0.2-0.2-0.2-0.3
			C88.2,147.9,88.3,147.8,88.4,147.9z"/>
		<path class="st30" d="M87,150c0,0,0.1,0.1,0,0.1c0,0,0,0,0,0c-0.1,0-0.2,0-0.3,0c-0.1,0-0.1-0.1,0-0.2C86.8,150,86.9,150,87,150z"
			/>
		<path class="st30" d="M84.9,151.3c0,0,0.1,0.1,0,0.1c0,0,0,0,0,0c-0.1,0-0.2,0-0.3,0c0,0-0.1-0.1,0-0.1c0,0,0,0,0,0
			C84.7,151.2,84.8,151.2,84.9,151.3z"/>
		<path class="st30" d="M82.8,152.6c0,0,0.1,0.1,0,0.1c0,0,0,0,0,0c-0.1,0-0.2,0-0.3,0c0,0-0.1-0.1,0-0.1c0,0,0,0,0,0
			C82.5,152.5,82.6,152.5,82.8,152.6z"/>
	</g>
</g>
<g id="freepik--character-2--inject-201">
	<path class="st20" d="M130.4,187.8L130.4,187.8c-1.1,0-2.1-0.9-2.1-2.2l0,0v-0.1c0-1,0.8-1.8,1.7-1.8h0.6c1,0,1.7,0.8,1.7,1.8v0.1
		C132.4,186.8,131.5,187.8,130.4,187.8z"/>
	<path class="st32" d="M131.9,192.2c-0.3-1.4-0.8-3-0.8-3.7l0.4,0c0.5,0,0.9,0.4,1,0.9c0.1,0.9,0.3,2.4,0.4,2.9
		c0.1,0.7,0.3,1.4,0.5,2.2c0,0.1,0.1,0.2,0.2,0.2c0.2,0.1,0.4,0.3,0.5,0.4c0.1,0.1,0.3,0.2,0.3,0.2c0,0.1-0.2,0.2-0.3,0.1
		c-0.1,0-0.2-0.1-0.3-0.2c0.1,0.2,0.2,0.4,0.4,0.6c0.3,0.4,0.4,0.6-0.3,0.7c-0.4,0-0.8-0.2-1.1-1.1c-0.1-0.3-0.3-0.7-0.4-1
		C132.2,193.6,132,192.8,131.9,192.2z"/>
	<path class="st33" d="M131,188.5c0.4,0,0.8,0,1.1,0.2c0.3,0.2,0.5,0.5,0.5,0.9c0.1,0.4,0.2,1.5,0.2,1.5s-0.2,0.5-1.2,0.3L131,188.5
		z"/>
	<path class="st20" d="M128.1,204.9c0,0,0,0-0.2,0.1c-0.2,0.1-0.3,0.3-0.5,0.4c0,0.3,0,0.5,0.2,0.7c0.2,0.3,0.3,0.5,0.3,0.9
		c0,0.4,0.2,0.8,0.5,1c0.3,0.2,0.6,0.4,0.7,0.4c0.1,0,0.2-0.2,0-1.1c-0.2-0.6-0.3-1.1-0.3-1.7L128.1,204.9z"/>
	<path class="st32" d="M128.2,204.8l-0.2,0.2c0,0.1-0.1,0.2,0,0.3c0,0.2,0.1,0.3,0.2,0.4c0.1,0,0.2,0.1,0.3,0.1
		c0.1,0,0.2-0.1,0.3-0.2l0.1-0.2L128.2,204.8z"/>
	<path class="st34" d="M132.4,194.2l-1,0.4l-0.9,1.6h0l0.5,3.8c-0.3,0.3-0.7,0.6-0.9,0.9c-0.4,0.6-1.9,3.9-1.9,3.9s0.2,0.7,0.7,0.7
		c0,0,0.8-1,1.7-2.2c0.7-0.9,1.4-1.8,2-2.9C133.1,198.9,132.4,194.2,132.4,194.2z"/>
	<path class="st9" d="M130.1,200.9c-0.4,0.6-1.9,3.9-1.9,3.9s0.2,0.7,0.7,0.7c0,0,0.8-1,1.7-2.2L130.1,200.9z"/>
	<path class="st34" d="M130.1,200.9c-0.4,0.6-1.9,3.9-1.9,3.9s0.2,0.7,0.7,0.7c0,0,0.8-1,1.7-2.2L130.1,200.9z"/>
	<path class="st20" d="M130.3,207.1c0.3-0.2,0.5-0.4,0.8-0.4c0.1,0,0.3,0,0.4,0c0.1,0,0.2,0,0.3,0c0.3,0,0.5-0.1,0.7-0.2
		c0.1,0,0.2-0.1,0.3-0.1c0.2,0,0.3,0,0.4,0.2c0,0.1,0,0.1,0,0.2c0,0.4-0.3,0.8-0.6,0.9c-0.2,0.1-0.3,0.1-0.5,0.2
		c-0.3,0-0.5,0.1-0.7,0.3c-0.3,0.2-0.7,0.4-1.1,0.2c-0.2-0.1-0.3-0.2-0.3-0.4C130,207.7,130.3,207.3,130.3,207.1z"/>
	<path class="st34" d="M132.4,194l-4,0.3c-0.3,0.9-0.3,1.8,0,3.6c0.2,1.2,0.5,2.3,1,3.5c-0.2,0.6-0.2,1.3,0,1.9c0.3,1.1,1,4,1,4
		c0.3-0.3,0.7-0.5,1-0.7c0,0-0.2-1.7-0.3-2.9c-0.1-1.2-0.2-2.1-0.2-2.8c0-1.1-0.2-4.8-0.2-4.8h0c0,0,1.5-0.5,1.7-1.8L132.4,194z"/>
	<path class="st35" d="M130.5,196.2c0.5-0.2,1-0.5,1.3-0.9l-1,1l0.2,3.4L130.5,196.2z"/>
	<path class="st32" d="M126.9,193.2c0.1-1.3,0.4-2.5,0.7-3.8c0.1-0.4,0.3-0.7,0.7-0.7l0,0c1.1,0.6,1.1,1.5,0.2,2.5
		c0,0-0.4,1.7-0.5,2.5c-0.1,0.7-0.2,1.4-0.2,2.2c0,0.1,0,0.2,0.1,0.3c0.2,0.2,0.3,0.4,0.4,0.6c0.1,0.2,0.2,0.2,0.2,0.3
		c-0.1,0.1-0.2,0.1-0.3,0c-0.1-0.1-0.2-0.2-0.3-0.3c0,0.2,0.1,0.4,0.2,0.7c0.2,0.5,0.2,0.7-0.4,0.6c-0.4-0.1-0.7-0.4-0.8-1.4
		c0-0.4-0.1-0.7,0-1.1C126.8,194.6,126.9,193.7,126.9,193.2z"/>
	<path class="st33" d="M129.5,188.5l-1.2,0.2c1.1,0.9,0.2,2.5,0.2,2.5l0.6,1.7c-0.3,0.4-0.6,0.9-0.8,1.3c0.4,0.4,2.6,1.1,4.1,0
		c0,0-0.1-0.6-0.3-1.6c0.3-1.6,0.4-2.1,0.3-2.5c-0.3-1-0.8-1.7-1.5-1.7L129.5,188.5z"/>
	<path class="st32" d="M131.8,184.6c0.2,0.1,0.5,0.7,0.5,1.9c0,1-0.3,1.3-0.5,1.3c-0.3,0-0.5,0-0.8,0v0.6c0,0,0.4,0.5,0.4,0.8
		c0,0.3-0.6,0.4-1,0.1c-0.3-0.2-0.5-0.5-0.7-0.8v-1.4c0,0-0.2,0.2-0.5-0.1c-0.3-0.2-0.3-0.5-0.1-0.8c0.2-0.2,0.4-0.1,0.6,0
		c0,0,0,0,0,0.1c0.4,0,0.8-0.1,1.1-0.4C131.4,185.8,131.7,185.2,131.8,184.6z"/>
	<path class="st20" d="M131.1,186.3c0,0.1,0,0.1-0.1,0.1s-0.1,0-0.1-0.1c0,0,0-0.1,0.1-0.1C131.1,186.2,131.1,186.2,131.1,186.3
		L131.1,186.3z"/>
	<path class="st36" d="M131.2,187.2l0.3,0.1c0,0.1-0.1,0.1-0.2,0.1l0,0C131.2,187.3,131.2,187.2,131.2,187.2z"/>
	<path class="st20" d="M132.2,185.9l-0.3-0.2c0-0.1,0.1-0.1,0.2,0l0,0C132.2,185.7,132.2,185.8,132.2,185.9z"/>
	<path class="st20" d="M132.1,186.2c0,0.1,0,0.1-0.1,0.1c-0.1,0-0.1,0-0.1-0.1v0c0-0.1,0-0.1,0.1-0.1l0,0
		C132,186.1,132.1,186.1,132.1,186.2L132.1,186.2z"/>
	<polygon class="st36" points="131.5,186.1 131.5,186.9 131.9,186.8 	"/>
	<path class="st36" d="M131,187.9c-0.3,0-1-0.2-1-0.5c0,0.1,0.1,0.3,0.2,0.4c0.3,0.2,0.5,0.3,0.8,0.4V187.9z"/>
	<path class="st20" d="M129.1,183.6c0.4,0.3,0.6,0.9,0.3,1.3c-0.3,0.4-0.8,0.6-1.3,0.4c-0.4-0.3-0.6-0.9-0.3-1.3c0,0,0-0.1,0.1-0.1
		C128.1,183.4,128.7,183.3,129.1,183.6z"/>
	<path class="st33" d="M128.3,188.7c-0.2,0-0.7,0-0.9,0.9c-0.2,0.9-0.4,1.8-0.4,1.8c0.3,0.4,0.8,0.5,1.3,0.4c0,0,0.3-0.9,0.5-1.6
		S128.9,188.9,128.3,188.7z"/>
</g>
<g id="freepik--character-1--inject-201">
	<path class="st37" d="M68.3,162.7c-0.2-1-0.2-2.1-0.2-3.2c0,0,0-0.1,0.1-0.1c0,0,0.1,0,0.1,0l0.8,1.5c0,0,0.1,1.1,0.2,1.8
		c0.1,0.7,0.2,1.3,0.4,2c0,0.1,0.1,0.2,0.2,0.2c0.2,0.1,0.3,0.3,0.5,0.4c0.1,0.1,0.3,0.2,0.3,0.2c0,0.1-0.2,0.1-0.3,0.1
		c-0.1,0-0.2-0.1-0.3-0.1c0.1,0.2,0.2,0.4,0.3,0.5c0.3,0.4,0.3,0.6-0.3,0.7c-0.4,0-0.7-0.2-1.1-1c-0.1-0.3-0.3-0.6-0.3-1
		C68.6,164,68.4,163.2,68.3,162.7z"/>
	<path class="st9" d="M67.3,159.1c0.6,0,1.3,0.2,1.6,0.8c0.3,0.7,0.4,1.5,0.5,2.2c0,0-0.2,0.5-1,0.4L67.3,159.1z"/>
	<path class="st38" d="M67.3,159.1c0.6,0,1.3,0.2,1.6,0.8c0.3,0.7,0.4,1.5,0.5,2.2c0,0-0.2,0.5-1,0.4L67.3,159.1z"/>
	<path class="st20" d="M62.5,174.2c-0.1-0.1-0.3,0.1-0.4,0.3c-0.1,0.1-0.2,0.3-0.3,0.4c0,0.3,0.1,0.5,0.3,0.6
		c0.2,0.1,0.4,0.4,0.4,0.6c0,0.3,0.3,0.6,0.6,0.7c0.3,0.1,0.7,0.1,1.1,0c0.2-0.1,0-0.3-0.3-0.7c-0.4-0.6-0.7-0.9-0.7-1.5L62.5,174.2
		z"/>
	<path class="st37" d="M62.8,173.7l-0.3,0.4c-0.1,0.2-0.1,0.5,0.1,0.6l0,0l0,0c0.2,0.1,0.4,0.1,0.6-0.1l0.5-0.5L62.8,173.7z"/>
	<path class="st39" d="M68.6,164.5c0,0.6-0.1,3-0.6,4.1s-0.7,1.7-0.8,2c-0.1,0.2-3.8,3.9-3.8,3.9c-0.3,0-0.7-0.3-0.7-0.7
		c0,0,1.5-2.6,1.8-3.2c0.4-0.5,0.9-1,1.5-1.3l-0.1-4.7L68.6,164.5z"/>
	<polygon class="st37" points="67.5,176.2 68.3,176 68.6,177.2 67.8,177.4 	"/>
	<path class="st39" d="M68.6,164.5h-3.7c-0.1,0.5-0.1,1.1-0.1,1.7c0,1.7,1.5,4.7,1.5,4.7c-0.1,0.7,0,1.3,0.1,2
		c0.3,1.2,0.7,2.4,1.2,3.5c0.3,0,0.6,0,0.8-0.3c0,0-0.5-4.5-0.6-5.7c-0.1-1.3-0.5-3.5-0.5-3.5c0.3-0.3,0.5-0.5,0.7-0.8
		C68.2,165.6,68.5,165.1,68.6,164.5"/>
	<path class="st37" d="M63.4,163.6c0.2-1.8,0.8-3.1,0.9-3.5l0.5,2.2c-0.2,0.6-0.3,1.2-0.4,1.8c-0.1,0.7-0.2,1.3-0.2,2.1
		c0,0.1,0,0.2,0.1,0.3c0.2,0.2,0.3,0.4,0.4,0.6c0.1,0.2,0.2,0.2,0.2,0.3c-0.1,0.1-0.2,0.1-0.3,0c-0.1-0.1-0.2-0.1-0.3-0.2
		c0,0.2,0.1,0.4,0.2,0.6c0.2,0.4,0.2,0.7-0.4,0.5c-0.4-0.1-0.7-0.4-0.7-1.3c0-0.4,0-0.7,0-1C63.3,164.9,63.4,164.2,63.4,163.6z"/>
	<path class="st38" d="M66.1,159.1c-0.7,0.2-1.7,0.4-2,1.2c-0.2,0.8-0.4,1.5-0.6,2.3c0.3,0.3,0.7,0.4,1.2,0.4l0.2-0.6v2.2
		c0.6,0.6,2.5,0.9,3.7,0v-4c0-0.8-0.5-1.4-1.3-1.5h0L66.1,159.1z"/>
	<polygon class="st35" points="64.9,162.4 65.2,161.2 64.9,162.9 	"/>
	<path class="st20" d="M68.7,156.4c0,0.6-0.5,1.2-1.1,1.2c-0.6,0-1.1-0.5-1.1-1.1s0.5-1.2,1.1-1.2l0,0
		C68.2,155.3,68.7,155.8,68.7,156.4z"/>
	<path class="st20" d="M65.8,155.8c-0.1,0-0.3,0-0.3,0.1c-0.1,0.2-0.1,0.4,0,1.1l0.5,0L65.8,155.8z"/>
	<path class="st37" d="M66,157.1c-0.1,0-0.2-0.1-0.3-0.2c-0.1-0.1-0.3-0.1-0.4,0c0,0,0,0.1-0.1,0.1c-0.1,0.3,0.2,0.7,0.3,0.9
		c0.1,0.1,0.3,0.1,0.4,0l0,1.2c0.2,0.4,0.5,0.7,0.9,0.7c0.7,0.1,0.5-0.5,0.3-0.8v-0.4c0.2,0,0.3,0,0.5,0c0.2-0.1,0.3-0.4,0.4-0.6
		c0.3-0.6,0.3-1.3,0.2-1.9c-0.3-1-1.3-1.1-2-0.7S66,157.1,66,157.1z"/>
	<path class="st20" d="M66,157.3c0,0-0.2-0.2-0.3-0.3c-0.1-0.1,0-1.1,0-1.1c0-0.2,0-0.4,0.1-0.6c0.2-0.3,0.7-0.2,1-0.2
		c0.5,0,1,0,1.5,0c0.1,0,0.2,0,0.2,0.1c0,0.1,0,0.1,0,0.2c-0.1,0.4-0.5,0.8-0.9,0.9c-0.4,0-0.9-0.1-1.3-0.2c-0.1,0-0.1,0.1-0.2,0.4
		C66.2,156.8,66.1,157.3,66,157.3z"/>
	<path class="st20" d="M65.8,155.9l-0.4-0.2c0-0.1,0.2-0.2,0.3-0.1l0,0C65.8,155.6,65.9,155.8,65.8,155.9z"/>
	<path class="st40" d="M67.3,158.7c-0.3,0-0.6-0.1-0.8-0.2c-0.1,0-0.2-0.2-0.3-0.3c0,0.1,0.1,0.3,0.2,0.4c0.2,0.2,1,0.4,1,0.4V158.7
		z"/>
	<path class="st20" d="M67.3,157.1c0,0.1,0,0.1-0.1,0.1c-0.1,0-0.1,0-0.1-0.1v0c0-0.1,0-0.1,0.1-0.1C67.3,157,67.3,157,67.3,157.1
		C67.3,157.1,67.3,157.1,67.3,157.1z"/>
	<path class="st20" d="M67.2,156.6l-0.3,0.1c0-0.1,0-0.2,0-0.2C67,156.5,67.1,156.5,67.2,156.6L67.2,156.6z"/>
	<path class="st40" d="M67.3,158l0.3,0.1c0,0.1-0.1,0.1-0.2,0.1l0,0C67.3,158.2,67.2,158.1,67.3,158L67.3,158z"/>
	<path class="st20" d="M68.4,156.7l-0.3-0.2c0-0.1,0.1-0.1,0.2,0l0,0C68.5,156.6,68.5,156.7,68.4,156.7z"/>
	<path class="st20" d="M68.3,157.1c0,0.1,0,0.1-0.1,0.1c-0.1,0-0.1,0-0.1-0.1v0c0-0.1,0-0.1,0.1-0.1C68.3,156.9,68.3,157,68.3,157.1
		C68.3,157,68.3,157,68.3,157.1z"/>
	<polygon class="st40" points="67.8,157.1 67.7,157.8 68,157.8 	"/>
	<path class="st20" d="M68.5,176.8l0-0.1c0.1,0,0.4,0.6,0.8,0.9c0.3,0.2,0.7,0.4,0.9,0.6s-0.1,0.5-0.7,0.5c-0.3,0-0.7,0-0.9-0.2
		c-0.2-0.1-0.3-0.4-0.4-0.5c-0.1-0.1-0.3-0.2-0.4-0.4c0-0.1-0.1-0.3,0-0.4c0-0.1,0-0.3,0-0.3v0.1c0.1,0.1,0.3,0.1,0.5,0.1
		C68.3,177,68.5,177,68.5,176.8z"/>
	<path class="st20" d="M67.7,169.7c0,0-0.3-2.4-0.4-2.8c0.3-0.1,0.5-0.3,0.7-0.5c-0.2,0.2-0.3,0.4-0.5,0.6L67.7,169.7z"/>
	<path class="st20" d="M65.7,169.6c0.2,0.4,0.3,0.9,0.6,1.3c0,0,0,0.8,0,0.9L66,172c0-0.4,0-0.7,0.1-1
		C65.9,170.5,65.7,170.1,65.7,169.6z"/>
</g>
<g id="freepik--character-4--inject-201">
	<path class="st9" d="M233.2,252.7h3.8v-4.3c0-1.1-0.9-2-1.9-2l0,0l0,0c-1,0-1.9,0.9-1.9,2l0,0L233.2,252.7L233.2,252.7z"/>
	<g class="st41">
		<path d="M233.2,252.7h3.8v-4.3c0-1.1-0.9-2-1.9-2l0,0l0,0c-1,0-1.9,0.9-1.9,2l0,0L233.2,252.7L233.2,252.7z"/>
	</g>
	<path class="st37" d="M233.7,254.1c0.3-1.3,0.7-2.8,0.7-3.4H234c-0.5,0-0.8,0.4-0.9,0.9c-0.1,0.9-0.3,2.2-0.4,2.7
		c-0.1,0.7-0.2,1.3-0.4,2c0,0.1-0.1,0.2-0.2,0.2c-0.2,0.1-0.3,0.3-0.5,0.4c-0.1,0.1-0.3,0.1-0.2,0.2c0,0.1,0.2,0.1,0.3,0.1
		c0.1,0,0.2-0.1,0.3-0.1c-0.1,0.2-0.2,0.4-0.3,0.5c-0.3,0.4-0.3,0.6,0.3,0.6c0.4,0,0.7-0.2,1-1c0.1-0.3,0.3-0.6,0.3-0.9
		C233.5,255.4,233.6,254.6,233.7,254.1z"/>
	<path class="st20" d="M239.3,265.4c0.1-0.1,0.2,0.1,0.4,0.3c0.1,0.1,0.2,0.3,0.3,0.4c0,0.2-0.1,0.5-0.3,0.6
		c-0.2,0.1-0.4,0.4-0.4,0.6c0,0.3-0.3,0.6-0.5,0.7c-0.3,0.1-0.7,0.1-1.1,0c-0.2-0.1,0-0.3,0.3-0.7c0.4-0.5,0.7-0.9,0.7-1.5
		L239.3,265.4z"/>
	<path class="st37" d="M239,265l0.3,0.4c0.1,0.2,0.1,0.5-0.1,0.6l0,0c-0.2,0.1-0.4,0.1-0.6-0.1l-0.5-0.5L239,265z"/>
	<path class="st30" d="M233.2,256.5c0,1.2,0.3,2.4,0.7,3.5c0.2,0.6,0.5,1.3,0.9,1.8c0.1,0.2,3.7,3.8,3.7,3.8c0.3,0,0.7-0.3,0.7-0.7
		c0,0-1.5-2.6-1.8-3.1c-0.4-0.5-0.9-1-1.4-1.3l0.1-4.6L233.2,256.5z"/>
	<polygon class="st37" points="233.4,268.3 233.7,267.2 234.4,267.4 234.2,268.5 	"/>
	<path class="st30" d="M233.9,255.9l3.2,0.1c0.2,0.5,0.3,1,0.3,1.6c-0.1,1.6-1.6,4.5-1.6,4.5c0.1,0.7,0,1.3-0.1,2
		c-0.3,1.2-0.7,2.4-1.2,3.5c-0.3,0-0.6,0-0.8-0.2c0,0,0.5-4.5,0.6-5.6c0.1-1.3,0.5-3.5,0.5-3.5c-0.3-0.3-0.5-0.5-0.7-0.8
		c-0.3-0.4-0.5-1-0.5-1.6"/>
	<path class="st37" d="M238.3,255c-0.1-1.2-0.3-2.3-0.5-3.4c0-0.4-0.3-0.7-0.7-0.7l0,0c-1,0.6-1,1.3-0.1,2.3c0,0,0.4,1.5,0.5,2.2
		c0.1,0.7,0.2,1.3,0.2,2c0,0.1,0,0.2-0.1,0.3c-0.1,0.2-0.3,0.4-0.3,0.5c-0.1,0.2-0.2,0.2-0.2,0.3c0.1,0.1,0.2,0.1,0.3,0
		c0.1-0.1,0.2-0.1,0.3-0.2c0,0.2-0.1,0.4-0.2,0.6c-0.2,0.4-0.2,0.7,0.4,0.5c0.4-0.1,0.6-0.4,0.7-1.3c0-0.4,0-0.7,0-1
		C238.4,256.3,238.4,255.5,238.3,255z"/>
	<path class="st20" d="M233.5,268v-0.1c-0.1,0-0.4,0.6-0.8,0.9c-0.3,0.3-0.7,0.4-0.9,0.6c-0.2,0.1,0.1,0.5,0.7,0.5
		c0.3,0,0.7,0,0.9-0.2c0.2-0.1,0.3-0.4,0.4-0.5c0.1-0.1,0.3-0.2,0.4-0.4c0-0.1,0-0.3,0-0.4c0-0.1,0-0.3,0-0.3v0.1
		c-0.1,0.1-0.3,0.1-0.5,0.1C233.7,268.2,233.5,268.1,233.5,268z"/>
	<path class="st20" d="M234.3,261c0,0,0.3-2.4,0.4-2.7c-0.3-0.1-0.5-0.3-0.7-0.5c0.1,0.2,0.3,0.4,0.5,0.6L234.3,261z"/>
	<path class="st20" d="M236.3,260.9c-0.2,0.4-0.3,0.8-0.6,1.2c0,0,0,0.8,0,0.9l0.2,0.2c0-0.4,0-0.7-0.1-1
		C236.1,261.8,236.2,261.4,236.3,260.9z"/>
	<path class="st42" d="M235.9,250.7c0.4,0,0.8,0.1,1.1,0.2c-1,0.8-0.1,2.3-0.1,2.3l-0.6,1.6c0.4,0.5,0.7,1.1,0.9,1.7
		c-0.3,0.4-2,1.4-4,0.1c0,0,0.1-1.2,0.3-2.1c-0.3-1.4-0.4-1.9-0.3-2.2c0.2-0.9,0.8-1.5,1.4-1.6L235.9,250.7z"/>
	<path class="st37" d="M233.9,247.2c-0.2,0.1-0.4,0.6-0.4,1.7c0,0.9,0.3,1.2,0.5,1.2c0.2,0,0.5,0,0.7,0v0.5c0,0-0.4,0.4-0.3,0.7
		c0,0.3,0.6,0.3,0.9,0c0.3-0.2,0.5-0.4,0.7-0.7v-1.3c0,0,0.2,0.2,0.4-0.1c0.2-0.2,0.3-0.5,0.1-0.7c-0.2-0.1-0.4-0.1-0.6,0
		c0,0,0,0.1-0.1,0.1c-0.3,0-0.7-0.1-1-0.3C234.3,248.1,233.9,247.7,233.9,247.2z"/>
	<path class="st20" d="M234.4,248.6c0,0,0,0.1,0.1,0.1c0,0,0.1,0,0.1-0.1l0,0c0,0,0-0.1-0.1-0.1l0,0
		C234.5,248.6,234.4,248.6,234.4,248.6L234.4,248.6z"/>
	<path class="st40" d="M234.4,249.4l-0.3,0.1c0,0.1,0.1,0.1,0.2,0.1l0,0C234.4,249.6,234.4,249.5,234.4,249.4z"/>
	<path class="st20" d="M233.5,248.3l0.2-0.2c0,0-0.1-0.1-0.2,0l0,0C233.5,248.1,233.5,248.2,233.5,248.3L233.5,248.3z"/>
	<path class="st20" d="M233.6,248.6c0,0,0,0.1,0.1,0.1l0,0c0,0,0.1,0,0.1-0.1c0,0,0-0.1-0.1-0.1
		C233.6,248.5,233.6,248.5,233.6,248.6L233.6,248.6L233.6,248.6z"/>
	<polygon class="st40" points="234.1,248.5 234.1,249.2 233.7,249.1 	"/>
	<path class="st40" d="M234.6,250.1c0.3,0,0.9-0.2,1-0.4c0,0.1-0.1,0.2-0.2,0.3c-0.3,0.1-0.5,0.3-0.8,0.4V250.1z"/>
	<polygon class="st3" points="236.7,253.9 235.9,255.1 236.3,254.8 	"/>
</g>
<g id="freepik--Character--inject-99">
	<path class="st9" d="M142.4,194.3c0.1-0.3,0.3-0.7,0.5-1.3c0.9-1.9,0.9-2.5,0.8-3c0-0.5,0-0.6,0.7-0.9c0.7-0.4,3-1.4,3.6-2.2
		c0.7-1,0.1-2.6,0.1-2.6l-2.1,1.1l-3,1.9c-0.6,0.4-1,1-1.2,1.7c0,0.1,0,0.2,0,0.3c-0.1,1.3-0.4,3.4-0.6,4.8
		C141.5,194.2,141.9,194.3,142.4,194.3z"/>
	<path class="st43" d="M142.4,194.3c0.1-0.3,0.3-0.7,0.5-1.3c0.9-1.9,0.9-2.5,0.8-3c0-0.4,0-0.6,0.7-0.9c0.7-0.4,3-1.4,3.6-2.2
		c0.7-1,0.1-2.6,0.1-2.6l-2.1,1.1l-3,1.9c-0.6,0.4-1,0.9-1.2,1.6c0,0.1,0,0.2-0.1,0.4c-0.1,1.3-0.4,3.4-0.6,4.8
		C141.5,194.2,141.9,194.3,142.4,194.3z"/>
	<path class="st37" d="M142.4,194.3c-0.4,0-0.9-0.1-1.2-0.3c0,0.4-0.1,0.8-0.2,1.1c-0.2,0.6-1.6,2-1.6,2c0.5,0.9,1.8-0.6,2.3-0.9
		c0.2-0.2,0.3-0.4,0.5-0.6c0,0,0-0.1,0-0.2C142.1,195.2,142.1,195,142.4,194.3z"/>
	<path class="st5" d="M140.5,195.6c-0.1,0.1-0.1,0.2-0.2,0.2c-0.2,0.2-1,0.5-1.3,0.5c-0.2,0.1-0.4,0.2-0.4,0.4
		c0,0.9,1.4,0.6,1.8,0.5c0.3-0.1,0.7-0.5,1.1-0.5c0.4,0,0.7,0,0.8-0.1c0.1-0.1,0-0.7,0-0.8c0,0,0-0.2,0-0.4c0-0.1,0-0.3-0.2-0.3l0,0
		v0.2l-0.1,0.1c-0.1,0.1-0.2,0.1-0.3,0.1l0,0c0,0-0.1,0-0.1-0.1v0c0-0.1,0-0.1-0.1-0.2l-0.6-0.2c-0.1,0-0.2,0-0.2,0.1l0,0.1
		C140.6,195.4,140.6,195.5,140.5,195.6z"/>
	<path class="st20" d="M138.6,196.9C138.6,196.9,138.6,196.9,138.6,196.9c0,1,1.4,0.7,1.7,0.5c0.3-0.1,0.7-0.5,1.1-0.5
		c0.4,0,0.7,0,0.8-0.1c0-0.1,0.1-0.2,0-0.4c0,0.1,0,0.1,0,0.2c-0.1,0.1-0.4,0.2-0.8,0.1c-0.4,0-0.8,0.3-1.1,0.5
		C140,197.4,138.6,197.7,138.6,196.9z"/>
	<path class="st9" d="M145.2,195.9c0.1-0.3,0.3-0.7,0.5-1.3c0.9-1.9,0.9-2.5,0.8-3c0-0.4,0-0.6,0.7-0.9c0.7-0.4,3-1.4,3.6-2.2
		c0.7-1,0.2-2.7,0.2-2.7l-2,0l-3.6,3.2c-0.5,0.4-0.8,1-0.9,1.7c-0.1,1.3-0.4,3.4-0.6,4.8C144.3,195.8,144.7,196,145.2,195.9z"/>
	<path class="st43" d="M145.2,195.9c0.1-0.3,0.3-0.7,0.5-1.3c0.9-1.9,0.9-2.5,0.8-3c0-0.4,0-0.6,0.7-0.9c0.7-0.4,3-1.4,3.6-2.2
		c0.7-1,0.2-2.7,0.2-2.7l-2,0l-3.6,3.2c-0.5,0.4-0.8,1-0.9,1.7c-0.1,1.3-0.4,3.4-0.6,4.8C144.3,195.8,144.7,196,145.2,195.9z"/>
	<path class="st37" d="M145.2,195.9c-0.4,0-0.9-0.1-1.2-0.3c0,0.4-0.1,0.8-0.2,1.1c-0.2,0.6,0.3,1.4,0.7,1c0.3-0.3,0.3-0.5,0.5-0.6
		c0.1,0,0-0.2,0-0.3C144.9,196.7,144.9,196.6,145.2,195.9z"/>
	<path class="st37" d="M146.5,184.2l-1.6,0.4c0-1-0.7-1-0.7-1l1.3-0.6c0,0,0-0.6,0.1-1.9c0-0.4,0.1-0.9,0.3-1.3
		c0.2-0.6,0.7-0.9,1.3-0.9l0,0L146.5,184.2z"/>
	<path class="st9" d="M145.6,182.3c0.3,0.3,0.7,0.5,1.1,0.5h0l0.5-3.9c-0.6-0.1-1.1,0.2-1.3,0.8c-0.2,0.4-0.2,1.1-0.4,2.5
		L145.6,182.3z"/>
	<path class="st35" d="M145.6,182.3c0.3,0.3,0.7,0.5,1.1,0.5h0l0.5-3.9c-0.6-0.1-1.1,0.2-1.3,0.8c-0.2,0.4-0.2,1.1-0.4,2.5
		L145.6,182.3z"/>
	<path class="st40" d="M145.6,182.8c0.2,0.1,0.3,0.4,0.3,0.4c-0.1-0.1-0.2-0.2-0.4-0.2L145.6,182.8z"/>
	<path class="st9" d="M151.2,186.4c0,0-0.4,0.9-2.3,0.7c-1.9-0.1-2.5-1.7-2.5-1.7V185c0,0,0-4,0.2-5.1c0.2-1.3,1.2-1,1.2-1l1.2,0.4
		l1.4,0.7C151.3,181.1,151.2,186.4,151.2,186.4z"/>
	<path class="st20" d="M146.4,175.9c0,0,0.2,2.1-0.4,1.5c-0.6-0.5-0.2-1.7-0.2-1.7L146.4,175.9z"/>
	<polygon class="st44" points="143.8,184.7 140.7,186.6 145.8,189.6 148.8,187.8 	"/>
	<polygon class="st3" points="146.8,186.8 145.7,186.2 144.9,186.6 146.1,187.3 	"/>
	<polygon class="st3" points="144.2,186.3 147.2,188.2 145.6,189.1 	"/>
	<path class="st37" d="M145.7,184.4l-1.4,0.4c-0.3,0.4-0.8,0.4-1,0.4c-0.2,0-0.3,0.1-0.5,0.2c-0.6,0.3-1.3-0.3-1.2-0.5
		c0-0.3,0.9-0.6,0.9-0.6c0.3-0.1,0.7-0.3,1.1-0.4l1.2-0.6C145.8,183.4,145.7,184.4,145.7,184.4z"/>
	<path class="st37" d="M144.3,184.6c-0.3,0.2-0.6,0.4-0.9,0.5c-0.3,0.4-0.2,0.7-0.1,0.6c0.1-0.1,0.5-0.5,0.7-0.7
		C144.1,184.9,144.2,184.8,144.3,184.6z"/>
	<rect x="147.5" y="177.6" class="st37" width="1.4" height="1.8"/>
	<path class="st40" d="M147.5,177.6h1.3v0.5c-0.3,0.6-0.7,1.1-1.3,1.3V177.6z"/>
	<path class="st37" d="M149.2,176.5c0.2,1.8-1,2.6-2,2.7c-0.8,0.1-1.1-0.4-1.2-1.5c-0.3-2.3,1-2.5,1-2.5S148.9,174.6,149.2,176.5z"
		/>
	<polygon class="st40" points="146.5,177.9 146.9,178.1 146.9,177.2 	"/>
	<path class="st20" d="M147.4,177L147.4,177c-0.1,0-0.2,0.1-0.1,0.2c0,0.1,0.1,0.2,0.2,0.1c0.1,0,0.2-0.1,0.1-0.2
		C147.6,177.1,147.5,177,147.4,177z"/>
	<path class="st20" d="M146.5,177.1c0-0.1-0.1-0.2-0.2-0.1c-0.1,0-0.2,0.1-0.1,0.2c0,0.1,0.1,0.2,0.2,0.1
		C146.5,177.3,146.5,177.2,146.5,177.1L146.5,177.1z"/>
	<path class="st20" d="M146.2,176.6c0.1-0.1,0.3,0,0.3,0l-0.3,0.2C146.2,176.7,146.2,176.6,146.2,176.6z"/>
	<path class="st20" d="M147.7,176.7c0.1,0,0.1,0.2,0.1,0.2l-0.3-0.2C147.5,176.7,147.6,176.7,147.7,176.7z"/>
	<path class="st40" d="M147.2,178.5c0.2,0,0.2-0.4,0.2-0.4c-0.1,0.1-0.3,0.2-0.5,0.2C146.9,178.4,147,178.6,147.2,178.5z"/>
	<path class="st20" d="M148.9,178.7c0.3-0.1,0.6-1.2,0.7-1.7c0.3-1.8-0.6-1.7-0.6-1.7c-0.4-1.1-2-0.3-2.4-0.3c-0.4,0-0.8-0.2-1-0.3
		c-0.3-0.1-0.2,0.7,0.3,1c1.1,0.8,2.3,0.2,2.6,0.2c0.3,0,0.1,1.7,0.3,1.7s0.3-0.4,0.3-0.4L148.9,178.7z"/>
	<path class="st37" d="M148.9,178.3c0.6,0,0.9-0.4,0.9-0.8c0-0.1,0-0.5-0.4-0.5c-0.2,0-0.3,0.1-0.3,0.3c0,0.1-0.1,0.3-0.1,0.4V178.3
		z"/>
	<path class="st37" d="M149.5,186.8l-0.9,0.5c-0.3,0.4-0.7,0.6-0.9,0.6c-0.2,0.1-0.3,0.2-0.4,0.3c-0.5,0.4-1.3,0-1.3-0.2
		c0-0.2,0.7-0.8,0.7-0.8c-0.3,0.1-0.5-0.1-0.4-0.2c0.1,0,0.7-0.2,0.9-0.3c0.2,0,0.3-0.1,0.5-0.1l1-0.9
		C149.8,185.6,149.5,186.8,149.5,186.8z"/>
	<path class="st37" d="M151.3,181.5c0.1,0.5,0.6,3.1,0.6,3.7c0,0.6-2.3,1.5-2.3,1.5c0-0.4-0.3-0.9-0.8-1l1.5-1.1
		c0,0-0.2-1.3-0.6-2.8c-0.4-1.5,0.2-2,0.2-2C150.8,180.1,151.2,181,151.3,181.5z"/>
	<path class="st40" d="M150.2,184.5c0.2,0,0.4,0,0.6,0.1c-0.2,0-0.4,0-0.6,0V184.5z"/>
	<path class="st8" d="M140,183c0-0.1,0.1-0.1,0.2,0l4.8,3c0.1,0.1,0.2,0.2,0.2,0.4l0.5,3.5l0,0l0,0l-5.3-3.1l0,0L140,183
		C140,183.1,140,183,140,183z"/>
	<path class="st3" d="M145.8,189.6l3-1.8l0,0c0,0.2-0.1,0.3-0.2,0.4l-2.8,1.7V189.6z"/>
	<path class="st20" d="M148.9,175.3c0.1,0.1-0.1,0.5-0.1,0.5C148.7,175.6,148.8,175.2,148.9,175.3z"/>
	<path class="st20" d="M149.2,175.6c0,0.2-0.4,0.2-0.4,0.2C148.9,175.6,149.2,175.5,149.2,175.6z"/>
	<path class="st37" d="M147.5,179.4c0,0-0.3,0.6,0.4,0.7c0.7,0.1,1-0.7,1-0.7H147.5z"/>
	<path class="st9" d="M151,180.6c0.3,0.5,0.8,2.9,0.7,3.1c-0.2,1-1.9,0.3-1.9,0.3s-0.4-2-0.4-3c0-1,0.4-1.2,0.4-1.2
		C150.3,179.9,150.8,180.2,151,180.6z"/>
	<path class="st35" d="M151,180.6c0.3,0.5,0.8,2.9,0.7,3.1c-0.2,1-1.9,0.3-1.9,0.3s-0.4-2-0.4-3c0-1,0.4-1.2,0.4-1.2
		C150.3,179.9,150.8,180.2,151,180.6z"/>
	<path class="st5" d="M144.9,196.8L144.9,196.8c0.1,0,0.1,0.1,0.1,0.2c0,0.2,0,0.4-0.1,0.7c0,0.2-0.2,0.4-0.3,0.5
		c-0.1,0.1-0.3,0.2-0.4,0.7c-0.2,0.5-1,0.9-1.7,0.4c-0.7-0.4-0.1-0.9,0.2-1.2c0.2-0.2,0.4-0.4,0.6-0.5c0.2-0.2,0.3-0.4,0.3-0.7
		l0-0.3c0-0.2,0.6-0.1,0.9,0c0.3,0.1,0,0.4,0.1,0.4c0.1,0,0.2-0.1,0.3-0.2L144.9,196.8z"/>
	<path class="st20" d="M142.1,198.9c-0.1,0.2,0,0.4,0.3,0.7c0.7,0.4,1.6,0.1,1.7-0.4c0.2-0.5,0.3-0.6,0.4-0.7
		c0.1-0.1,0.3-0.2,0.4-0.6v0c-0.1,0.2-0.2,0.4-0.3,0.4c-0.1,0.1-0.3,0.2-0.4,0.7c-0.2,0.5-1,0.9-1.7,0.4
		C142.2,199.3,142.1,199.1,142.1,198.9z"/>
</g>
</svg>
