<?xml version="1.0" encoding="utf-8"?>
<!-- Generator: Adobe Illustrator 24.3.0, SVG Export Plug-In . SVG Version: 6.00 Build 0)  -->
<svg version="1.1" id="Camada_1" xmlns="http://www.w3.org/2000/svg" xmlns:xlink="http://www.w3.org/1999/xlink" x="0px" y="0px"
	 viewBox="0 0 150 30.4" style="enable-background:new 0 0 150 30.4;" xml:space="preserve">
<style type="text/css">
	.st0{fill:#FFFFFF;}
</style>
<g>
	<polygon class="st0" points="0,0 19.6,30.4 22.8,25.4 6.4,0 	"/>
	<polygon class="st0" points="20.7,18.7 24,23.7 39.3,0 32.8,0 	"/>
	<polygon class="st0" points="30.5,0 24.2,0 16.5,11.9 19.7,16.9 	"/>
</g>
<path class="st0" d="M44.8,6.8c-2.5-0.8-3.3-1.5-3.3-2.5c0-0.9,0.9-1.9,3.1-1.9c1.5,0,2.6,0.4,3.3,0.7l0.4,0.2l0.9-2.3l-0.4-0.2
	c-0.6-0.3-2-0.8-4.2-0.8c-3.6,0-6.2,1.8-6.2,4.5c0,2.8,2.9,4,5.1,4.7c2.6,0.8,3.1,1.6,3.1,2.7c0,1.4-1.3,2.2-3.4,2.2
	c-1.4,0-2.9-0.4-4.1-0.9l-0.4-0.2l-0.8,2.2l0.3,0.2c1.1,0.6,3.1,1,4.8,1c5,0,6.7-2.5,6.7-4.7C49.7,8.8,47.2,7.7,44.8,6.8z"/>
<polygon class="st0" points="63.2,13.5 55.3,13.5 55.3,8.8 62.4,8.8 62.4,6.4 55.3,6.4 55.3,2.4 62.8,2.4 62.8,0 52.2,0 52.2,15.9 
	63.2,15.9 "/>
<path class="st0" d="M72.9,15.9L79.8,0h-3.4l-3.1,7.7c-0.6,1.5-1.2,3.1-1.8,4.6c-0.5-1.4-1-2.9-1.6-4.6l-3-7.7h-3.4l6.2,15.9H72.9z"
	/>
<polygon class="st0" points="91.7,13.5 83.8,13.5 83.8,8.8 90.9,8.8 90.9,6.4 83.8,6.4 83.8,2.4 91.3,2.4 91.3,0 80.8,0 80.8,15.9 
	91.7,15.9 "/>
<path class="st0" d="M105.4,6.7c0,1.7,0,3.1,0.2,4.7c-0.7-1.1-1.5-2.4-2.5-3.6L97.2,0H94v15.9h3V9.1c0-1.9,0-3.4-0.1-4.9
	c0.7,1.1,1.6,2.5,2.7,3.9l5.9,7.8h2.9V0h-3L105.4,6.7L105.4,6.7z"/>
<path class="st0" d="M115.6,14.5c-1.5,0-2.9-0.3-4.2-0.9l-0.5,1.1c1.1,0.5,2.8,0.8,4.4,0.8c3.8,0,6.3-1.7,6.3-4.2
	c0-2-1.3-3.2-4.6-4.3c-2.5-0.8-3.9-1.6-3.9-3.3c0-1.3,1.1-2.6,3.8-2.6c1.5,0,2.6,0.3,3.4,0.6l0.5-1.1c-0.7-0.3-1.9-0.6-3.8-0.6
	c-3.4,0-5.8,1.6-5.8,4c0,1.9,1.5,3.2,4.7,4.1c2.2,0.7,3.8,1.5,3.8,3.4C119.8,13.3,118.1,14.5,115.6,14.5z"/>
<path class="st0" d="M129.8,15.1h1.9V8.7l6-8.7h-2.1l-2.9,4.6c-0.6,1-1.1,1.9-1.6,2.8L131,7.5h-0.4l-0.1-0.2c-0.5-1-1.1-1.9-1.8-3.2
	L126.2,0h-2.1l5.7,8.7V15.1z"/>
<path class="st0" d="M145.5,7c-2.5-0.8-3.9-1.6-3.9-3.3c0-1.3,1.1-2.6,3.8-2.6c1.5,0,2.6,0.3,3.4,0.6l0.5-1.1
	c-0.7-0.2-1.9-0.6-3.8-0.6c-3.4,0-5.8,1.6-5.8,4c0,1.9,1.5,3.2,4.7,4.1c2.2,0.7,3.8,1.5,3.8,3.4c0,1.8-1.7,3-4.2,3
	c-1.5,0-2.9-0.3-4.2-0.9l-0.5,1.1c1.1,0.5,2.8,0.8,4.4,0.8c3.8,0,6.3-1.7,6.3-4.2C150.1,9.3,148.8,8.1,145.5,7z"/>
<path class="st0" d="M54,24l-1.4-0.3c-0.8-0.2-1.1-0.5-1.1-0.8c0-0.2,0.1-0.5,0.4-0.6c0.2-0.2,0.6-0.2,1.1-0.2
	c0.8,0,1.3,0.3,1.5,0.8l1.5-0.3c-0.2-0.5-0.5-0.8-1.1-1.1c-0.5-0.2-1.2-0.4-1.9-0.4c-0.8,0-1.5,0.2-2.1,0.5C50.3,21.9,50,22.4,50,23
	c0,0.3,0.1,0.6,0.2,0.9c0.2,0.3,0.4,0.5,0.6,0.6c0.2,0.2,0.7,0.3,1.2,0.4l1.6,0.4c0.4,0.1,0.7,0.2,0.8,0.4c0.2,0.2,0.2,0.3,0.2,0.5
	c0,0.3-0.2,0.5-0.5,0.7c-0.3,0.2-0.7,0.3-1.2,0.3c-1.1,0-1.8-0.4-2-1.1l-1.5,0.2c0.2,0.6,0.6,1.1,1.2,1.4c0.6,0.3,1.3,0.5,2.1,0.5
	c1,0,1.8-0.2,2.4-0.6c0.6-0.4,0.9-0.9,0.9-1.6c0-0.5-0.2-0.8-0.5-1.1C55.4,24.4,54.8,24.1,54,24z"/>
<path class="st0" d="M60.5,20.9c-1.1,0-1.9,0.4-2.5,1.1c-0.6,0.7-1,1.5-1,2.6c0,1,0.3,1.9,0.9,2.6c0.6,0.7,1.5,1.1,2.5,1.1
	s1.9-0.3,2.5-1c0.6-0.7,1-1.5,1-2.7c0-1.1-0.3-1.9-0.9-2.6C62.4,21.2,61.6,20.9,60.5,20.9z M61.8,26.6c-0.4,0.4-0.8,0.5-1.4,0.5
	c-0.6,0-1.1-0.2-1.4-0.7c-0.3-0.4-0.5-1-0.5-1.8c0-1.8,0.6-2.6,1.9-2.6c0.6,0,1.1,0.2,1.5,0.7s0.5,1.1,0.5,1.9
	C62.4,25.6,62.2,26.2,61.8,26.6z"/>
<polygon class="st0" points="66.9,21 65.4,21 65.4,28.1 70.4,28.1 70.4,27 66.9,27 "/>
<path class="st0" d="M75.9,25.6c0,0.6-0.2,1-0.4,1.2c-0.3,0.2-0.6,0.3-1.1,0.3c-0.4,0-0.8-0.1-1.1-0.3c-0.3-0.2-0.5-0.6-0.5-1.2
	v-4.5h-1.5v4.7c0,0.5,0.1,1,0.3,1.4c0.2,0.4,0.5,0.6,0.9,0.8c0.5,0.2,1,0.3,1.7,0.3s1.2-0.2,1.7-0.4c0.5-0.2,0.8-0.5,0.9-0.8
	c0.2-0.3,0.2-0.8,0.2-1.5v-4.5H76L75.9,25.6L75.9,25.6z"/>
<path class="st0" d="M81.7,21.9c0.8,0,1.5,0.5,1.7,1.6l1.4-0.2c-0.2-0.8-0.5-1.5-1-1.8c-0.5-0.5-1.2-0.6-2.1-0.6
	c-1.1,0-1.8,0.4-2.5,1c-0.6,0.7-0.9,1.5-0.9,2.6c0,1,0.2,1.8,0.8,2.5c0.5,0.7,1.1,1.1,2.1,1.1L80.8,29c0.2,0,0.3,0,0.3,0
	c0.6,0,0.9,0.2,0.9,0.5c0,0.2-0.2,0.4-0.5,0.4c-0.2,0-0.5-0.1-1-0.2l-0.2,0.5c0.5,0.2,1,0.3,1.4,0.3c0.4,0,0.7-0.1,0.9-0.2
	c0.2-0.2,0.3-0.4,0.3-0.6s-0.1-0.5-0.3-0.6c-0.2-0.2-0.5-0.2-1.1-0.2l0.2-0.4c0.9,0,1.6-0.3,2.2-0.8c0.5-0.5,0.8-1,0.9-1.7l-1.4-0.2
	c0,0.4-0.2,0.8-0.5,1.1c-0.3,0.3-0.7,0.5-1.1,0.5c-0.5,0-1-0.2-1.3-0.7c-0.3-0.5-0.5-1.1-0.5-1.9s0.2-1.5,0.5-1.9
	C80.7,22.1,81.1,21.9,81.7,21.9z"/>
<path class="st0" d="M90,19.5c-0.2,0-0.5-0.1-0.8-0.2c-0.3-0.2-0.6-0.2-0.8-0.2c-0.5,0-0.8,0.2-1.2,0.6l0.4,0.5
	c0.3-0.3,0.5-0.4,0.8-0.4c0.2,0,0.4,0.1,0.6,0.2c0.4,0.2,0.7,0.2,0.9,0.2s0.5-0.1,0.7-0.2c0.2-0.1,0.5-0.2,0.5-0.5l-0.5-0.5
	C90.4,19.4,90.2,19.5,90,19.5z"/>
<path class="st0" d="M89,20.9c-1.1,0-1.9,0.4-2.5,1.1c-0.6,0.7-1,1.5-1,2.6c0,1,0.3,1.9,0.9,2.6c0.6,0.7,1.5,1.1,2.5,1.1
	c1.1,0,1.9-0.3,2.5-1c0.6-0.7,1-1.5,1-2.7c0-1.1-0.3-1.9-0.9-2.6C90.9,21.2,90,20.9,89,20.9z M90.3,26.6c-0.4,0.4-0.8,0.5-1.4,0.5
	c-0.6,0-1.1-0.2-1.4-0.7c-0.3-0.5-0.5-1.1-0.5-1.9c0-1.8,0.6-2.6,1.9-2.6c0.6,0,1.1,0.2,1.5,0.7c0.3,0.5,0.5,1.1,0.5,1.9
	C90.9,25.6,90.7,26.2,90.3,26.6z"/>
<polygon class="st0" points="95.3,25 98.4,25 98.4,24 95.3,24 95.3,22.1 99.2,22.1 99.2,21 93.9,21 93.9,28.1 99.2,28.1 99.2,27 
	95.3,27 "/>
<path class="st0" d="M104.1,24l-1.4-0.3c-0.8-0.2-1.1-0.5-1.1-0.8c0-0.2,0.1-0.5,0.4-0.6c0.2-0.2,0.6-0.2,1.1-0.2
	c0.8,0,1.3,0.3,1.5,0.8l1.5-0.3c-0.2-0.5-0.5-0.8-1.1-1.1c-0.5-0.2-1.2-0.4-1.9-0.4c-0.8,0-1.5,0.2-2.1,0.5
	c-0.5,0.4-0.8,0.9-0.8,1.5c0,0.3,0.1,0.6,0.2,0.9c0.2,0.3,0.4,0.5,0.6,0.6c0.2,0.2,0.7,0.3,1.2,0.4l1.6,0.4c0.5,0.1,0.7,0.2,0.8,0.4
	c0.2,0.2,0.2,0.3,0.2,0.5c0,0.3-0.2,0.5-0.5,0.7c-0.3,0.2-0.7,0.3-1.2,0.3c-1.1,0-1.8-0.4-2-1.1l-1.5,0.2c0.2,0.6,0.6,1.1,1.2,1.4
	c0.6,0.3,1.3,0.5,2.1,0.5c1,0,1.8-0.2,2.4-0.6c0.6-0.4,0.9-0.9,0.9-1.6c0-0.5-0.2-0.8-0.5-1.1C105.5,24.4,105,24.1,104.1,24z"/>
<polygon class="st0" points="112.1,25 115.2,25 115.2,24 112.1,24 112.1,22.1 115.9,22.1 115.9,21 110.6,21 110.6,28.1 116,28.1 
	116,27 112.1,27 "/>
<polygon class="st0" points="121.3,25.6 119.6,21 117.2,21 117.2,28.1 118.4,28.1 118.4,21.9 120.7,28.1 121.5,28.1 123.8,21.9 
	123.8,28.1 125.3,28.1 125.3,21 123,21 "/>
<polygon class="st0" points="129.3,22.1 131.5,22.1 131.5,28.1 133.1,28.1 133.1,22.1 135.3,22.1 135.3,21 129.3,21 "/>
<rect x="136.2" y="21" class="st0" width="1.5" height="7"/>
</svg>
