<?xml version="1.0" encoding="utf-8"?>
<!-- Generator: Adobe Illustrator 24.3.0, SVG Export Plug-In . SVG Version: 6.00 Build 0)  -->
<svg version="1.1" id="Camada_1" xmlns="http://www.w3.org/2000/svg" xmlns:xlink="http://www.w3.org/1999/xlink" x="0px" y="0px"
	 viewBox="0 0 195.9 39.7" style="enable-background:new 0 0 195.9 39.7;" xml:space="preserve">
<style type="text/css">
	.st0{fill:#A062F1;}
</style>
<g>
	<polygon class="st0" points="0,0 25.6,39.7 29.8,33.2 8.4,0 	"/>
	<polygon class="st0" points="27.1,24.4 31.3,30.9 51.3,0 42.8,0 	"/>
	<polygon class="st0" points="39.9,0 31.6,0 21.5,15.6 25.7,22.1 	"/>
</g>
<path class="st0" d="M58.5,8.9c-3.3-1-4.3-1.9-4.3-3.3c0-1.2,1.2-2.5,4-2.5c1.9,0,3.4,0.5,4.3,0.9L63,4.2l1.2-3L63.7,1
	c-0.8-0.4-2.6-1-5.5-1c-4.7,0-8.1,2.4-8.1,5.9c0,3.7,3.8,5.2,6.6,6.1c3.4,1.1,4.1,2.1,4.1,3.5c0,1.8-1.7,2.9-4.5,2.9
	c-1.8,0-3.8-0.5-5.3-1.2l-0.5-0.3l-1,2.9l0.4,0.2c1.4,0.8,4,1.3,6.3,1.3c6.5,0,8.8-3.3,8.8-6.2C64.9,11.5,61.7,10,58.5,8.9z"/>
<polygon class="st0" points="82.5,17.6 72.2,17.6 72.2,11.5 81.5,11.5 81.5,8.4 72.2,8.4 72.2,3.1 82,3.1 82,0 68.2,0 68.2,20.8 
	82.5,20.8 "/>
<path class="st0" d="M95.2,20.8l9-20.8h-4.4l-4.1,10.1c-0.8,1.9-1.6,4-2.3,6c-0.6-1.8-1.3-3.8-2.1-6L87.4,0H83l8.1,20.8H95.2z"/>
<polygon class="st0" points="119.8,17.6 109.5,17.6 109.5,11.5 118.7,11.5 118.7,8.4 109.5,8.4 109.5,3.1 119.3,3.1 119.3,0 
	105.5,0 105.5,20.8 119.8,20.8 "/>
<path class="st0" d="M137.7,8.8c0,2.2,0,4.1,0.2,6.1c-0.9-1.5-2-3.1-3.3-4.7L126.9,0h-4.1v20.8h3.9v-8.9c0-2.5,0-4.5-0.1-6.4
	c0.9,1.5,2.1,3.2,3.5,5.1l7.7,10.2h3.8V0h-3.9L137.7,8.8L137.7,8.8z"/>
<path class="st0" d="M151,18.9c-1.9,0-3.8-0.4-5.5-1.2l-0.6,1.5c1.4,0.6,3.7,1.1,5.8,1.1c5,0,8.2-2.2,8.2-5.5c0-2.6-1.7-4.2-6-5.6
	c-3.3-1.1-5.1-2.1-5.1-4.3c0-1.7,1.5-3.4,5-3.4c1.9,0,3.4,0.4,4.4,0.8l0.6-1.5c-0.9-0.4-2.5-0.8-4.9-0.8c-4.4,0-7.6,2.1-7.6,5.2
	c0,2.5,2,4.2,6.2,5.4c2.9,0.9,4.9,2,4.9,4.4C156.5,17.4,154.3,18.9,151,18.9z"/>
<path class="st0" d="M169.5,19.7h2.5v-8.4L179.8,0h-2.7l-3.8,6c-0.8,1.3-1.5,2.5-2.1,3.6l-0.1,0.2h-0.5l-0.1-0.2
	c-0.7-1.3-1.4-2.5-2.4-4.2L164.8,0h-2.7l7.4,11.3C169.5,11.3,169.5,19.7,169.5,19.7z"/>
<path class="st0" d="M190.1,9.2c-3.3-1.1-5.1-2.1-5.1-4.3c0-1.7,1.5-3.4,5-3.4c1.9,0,3.4,0.4,4.4,0.8l0.6-1.5
	c-0.9-0.3-2.5-0.8-5-0.8c-4.4,0-7.6,2.1-7.6,5.2c0,2.5,2,4.2,6.2,5.4c2.9,0.9,4.9,2,4.9,4.4c0,2.3-2.2,3.9-5.5,3.9
	c-1.9,0-3.8-0.4-5.5-1.2l-0.6,1.5c1.4,0.6,3.7,1.1,5.8,1.1c5,0,8.2-2.2,8.2-5.5C196.1,12.2,194.3,10.6,190.1,9.2z"/>
<path class="st0" d="M70.5,31.3l-1.8-0.4c-1-0.2-1.5-0.6-1.5-1.1c0-0.3,0.1-0.6,0.5-0.8c0.3-0.2,0.8-0.3,1.4-0.3c1,0,1.7,0.4,2,1.1
	l1.9-0.4c-0.2-0.6-0.7-1.1-1.4-1.5c-0.7-0.3-1.6-0.5-2.5-0.5c-1.1,0-2,0.3-2.7,0.7c-0.7,0.5-1.1,1.2-1.1,2c0,0.4,0.1,0.8,0.3,1.2
	c0.2,0.4,0.5,0.6,0.8,0.8c0.3,0.2,0.9,0.4,1.6,0.5l2.1,0.5c0.5,0.1,0.9,0.3,1.1,0.5c0.2,0.2,0.3,0.4,0.3,0.7c0,0.4-0.2,0.6-0.6,0.9
	c-0.4,0.2-0.9,0.4-1.6,0.4c-1.5,0-2.4-0.5-2.6-1.4l-1.9,0.3c0.3,0.8,0.8,1.4,1.6,1.8c0.8,0.4,1.7,0.6,2.8,0.6c1.3,0,2.3-0.3,3.1-0.8
	c0.8-0.5,1.2-1.2,1.2-2.1c0-0.6-0.2-1.1-0.6-1.5C72.4,31.9,71.6,31.5,70.5,31.3z"/>
<path class="st0" d="M79,27.3c-1.4,0-2.5,0.5-3.3,1.4c-0.8,0.9-1.3,2-1.3,3.4c0,1.3,0.4,2.5,1.2,3.4s1.9,1.4,3.3,1.4
	c1.4,0,2.5-0.4,3.3-1.3c0.8-0.9,1.3-2,1.3-3.5c0-1.4-0.4-2.5-1.2-3.4C81.5,27.7,80.4,27.3,79,27.3z M80.7,34.7
	c-0.5,0.5-1.1,0.7-1.8,0.7c-0.8,0-1.4-0.3-1.8-0.9c-0.4-0.5-0.6-1.3-0.6-2.4c0-2.3,0.8-3.4,2.5-3.4c0.8,0,1.5,0.3,1.9,0.9
	c0.4,0.6,0.6,1.4,0.6,2.5C81.5,33.4,81.2,34.2,80.7,34.7z"/>
<polygon class="st0" points="87.4,27.4 85.4,27.4 85.4,36.7 92,36.7 92,35.2 87.4,35.2 "/>
<path class="st0" d="M99.1,33.4c0,0.8-0.2,1.3-0.5,1.6c-0.4,0.3-0.8,0.4-1.4,0.4c-0.5,0-1-0.1-1.4-0.4c-0.4-0.3-0.6-0.8-0.6-1.6
	v-5.9h-2v6.1c0,0.7,0.1,1.3,0.4,1.8c0.2,0.5,0.6,0.8,1.2,1.1s1.3,0.4,2.2,0.4s1.6-0.2,2.2-0.5s1-0.7,1.2-1.1
	c0.2-0.4,0.3-1.1,0.3-1.9v-5.9h-1.5L99.1,33.4L99.1,33.4z"/>
<path class="st0" d="M106.7,28.6c1.1,0,1.9,0.7,2.2,2.1l1.8-0.2c-0.2-1-0.6-1.9-1.3-2.4c-0.7-0.6-1.6-0.8-2.7-0.8
	c-1.4,0-2.4,0.5-3.2,1.3c-0.8,0.9-1.2,2-1.2,3.4c0,1.3,0.3,2.3,1,3.2c0.6,0.9,1.5,1.4,2.7,1.5l-0.5,1.2c0.2,0,0.4,0,0.4,0
	c0.8,0,1.2,0.2,1.2,0.6c0,0.3-0.2,0.5-0.7,0.5c-0.3,0-0.7-0.1-1.3-0.3l-0.3,0.6c0.7,0.3,1.3,0.4,1.8,0.4s0.9-0.1,1.2-0.3
	c0.3-0.2,0.4-0.5,0.4-0.8s-0.1-0.6-0.4-0.8s-0.7-0.3-1.4-0.3l0.2-0.5c1.2,0,2.1-0.4,2.9-1c0.7-0.6,1.1-1.3,1.2-2.2l-1.8-0.2
	c0,0.5-0.3,1-0.7,1.4s-0.9,0.6-1.4,0.6c-0.7,0-1.3-0.3-1.7-0.9c-0.4-0.6-0.6-1.4-0.6-2.5s0.2-1.9,0.6-2.5
	C105.4,28.9,105.9,28.6,106.7,28.6z"/>
<path class="st0" d="M117.5,25.5c-0.2,0-0.6-0.1-1.1-0.3c-0.4-0.2-0.8-0.3-1.1-0.3c-0.6,0-1.1,0.3-1.6,0.8l0.5,0.7
	c0.4-0.4,0.7-0.5,1-0.5c0.2,0,0.5,0.1,0.8,0.2c0.5,0.2,0.9,0.3,1.2,0.3c0.3,0,0.6-0.1,0.9-0.2s0.6-0.3,0.7-0.6l-0.6-0.7
	C118.1,25.3,117.8,25.5,117.5,25.5z"/>
<path class="st0" d="M116.2,27.3c-1.4,0-2.5,0.5-3.3,1.4c-0.8,0.9-1.3,2-1.3,3.4c0,1.3,0.4,2.5,1.2,3.4c0.8,0.9,1.9,1.4,3.3,1.4
	s2.5-0.4,3.3-1.3c0.8-0.9,1.3-2,1.3-3.5c0-1.4-0.4-2.5-1.2-3.4C118.7,27.7,117.6,27.3,116.2,27.3z M117.9,34.7
	c-0.5,0.5-1.1,0.7-1.8,0.7c-0.8,0-1.4-0.3-1.8-0.9c-0.4-0.6-0.6-1.4-0.6-2.5c0-2.3,0.8-3.4,2.5-3.4c0.8,0,1.5,0.3,1.9,0.9
	s0.6,1.4,0.6,2.5C118.7,33.4,118.4,34.2,117.9,34.7z"/>
<polygon class="st0" points="124.5,32.7 128.5,32.7 128.5,31.3 124.5,31.3 124.5,28.8 129.5,28.8 129.5,27.4 122.6,27.4 122.6,36.7 
	129.5,36.7 129.5,35.3 124.5,35.3 "/>
<path class="st0" d="M136,31.3l-1.8-0.4c-1-0.2-1.5-0.6-1.5-1.1c0-0.3,0.1-0.6,0.5-0.8c0.3-0.2,0.8-0.3,1.4-0.3c1,0,1.7,0.4,2,1.1
	l1.9-0.4c-0.2-0.6-0.7-1.1-1.4-1.5c-0.7-0.3-1.6-0.5-2.5-0.5c-1.1,0-2,0.2-2.7,0.7s-1.1,1.2-1.1,2c0,0.4,0.1,0.8,0.3,1.2
	c0.2,0.4,0.5,0.6,0.8,0.8c0.3,0.2,0.9,0.4,1.6,0.5l2.1,0.5c0.6,0.1,0.9,0.3,1.1,0.5s0.3,0.4,0.3,0.7c0,0.4-0.2,0.6-0.6,0.9
	c-0.4,0.2-0.9,0.4-1.6,0.4c-1.5,0-2.4-0.5-2.6-1.4l-1.9,0.3c0.3,0.8,0.8,1.4,1.6,1.8c0.8,0.4,1.7,0.6,2.8,0.6c1.3,0,2.3-0.3,3.1-0.8
	s1.2-1.2,1.2-2.1c0-0.6-0.2-1.1-0.6-1.5C137.8,31.9,137.1,31.5,136,31.3z"/>
<polygon class="st0" points="146.4,32.7 150.4,32.7 150.4,31.3 146.4,31.3 146.4,28.8 151.4,28.8 151.4,27.4 144.5,27.4 144.5,36.7 
	151.5,36.7 151.5,35.3 146.4,35.3 "/>
<polygon class="st0" points="158.4,33.4 156.2,27.4 153.1,27.4 153.1,36.7 154.7,36.7 154.7,28.6 157.7,36.7 158.7,36.7 161.7,28.6 
	161.7,36.7 163.7,36.7 163.7,27.4 160.6,27.4 "/>
<polygon class="st0" points="168.9,28.9 171.8,28.9 171.8,36.7 173.9,36.7 173.9,28.9 176.7,28.9 176.7,27.4 168.9,27.4 "/>
<rect x="177.9" y="27.4" class="st0" width="1.9" height="9.2"/>
</svg>
