<?xml version="1.0" encoding="utf-8"?>
<!-- Generator: Adobe Illustrator 24.3.0, SVG Export Plug-In . SVG Version: 6.00 Build 0)  -->
<svg version="1.1" id="Camada_1" xmlns="http://www.w3.org/2000/svg" xmlns:xlink="http://www.w3.org/1999/xlink" x="0px" y="0px"
	 viewBox="0 0 351 344.5" style="enable-background:new 0 0 351 344.5;" xml:space="preserve">
<style type="text/css">
	.st0{fill:#4B3D39;}
	.st1{fill:#161616;}
	.st2{fill:#AE3418;}
	.st3{fill:#00CABE;}
	.st4{opacity:0.13;enable-background:new    ;}
	.st5{fill:#564742;}
	.st6{fill:#FBC57F;}
	.st7{fill:#FDD4A4;}
	.st8{fill:#FFFFFF;}
	.st9{fill:none;}
	.st10{fill:#79E2D6;}
	.st11{fill:#83F2E5;}
	.st12{fill:#656868;}
	.st13{fill:#DBDBDB;}
	.st14{fill:#F8F8F8;}
	.st15{display:none;}
	.st16{fill:#423735;}
</style>
<g id="Camada_3">
</g>
<g id="Camada_1_2_">
	<g>
		<path class="st0" d="M286.9,217.8c-1.4,14-12,25.9-24.5,32.1c-12.6,6.3-27,7.7-41.1,8c-3.4,0-6.7,0-10.1,0.1
			c-7.1-0.2-14.2-0.5-21.3-1.1c-12.8-1.1-25.6-2.9-38.4-5.2c-7.2-1.3-14.5-2.7-21.7-4.3c-1.1-0.3-2.3-0.5-3.5-0.8
			c-10.6-2.3-21.3-5-30.6-10.8c-9.1-5.9-16.5-15.6-16.6-26.4L77.9,192c22.4-3.3,44-10.8,63.7-22c0.6-0.3,1.2-0.7,1.8-1
			c2-1.2,4.1-2.4,6.1-3.7c2.3-1.4,4.6-2.7,7-4c0.2-0.1,0.4-0.2,0.7-0.4c0-0.1,0-0.1-0.1-0.2c-0.2-0.6-0.3-1.1-0.5-1.7
			c-1.2-5.2-1.1-10.9,1.7-15.4l46.6-8.7c2.9,7.1,2.5,15.3,0.2,22.6c-0.2,0.6-0.4,1.1-0.6,1.7c0.1,0,0.2,0.1,0.3,0.1
			c0.2,0.1,0.3,0.1,0.5,0.2c2.7,1.2,5.4,2.5,8,3.8c2.1,1.1,4.2,2.3,6.2,3.5c0.5,0.3,1,0.6,1.5,0.9c15,9.2,29.1,20.7,45.9,25.9
			c4.5,1.4,9.3,2.5,13.1,5.3C285.6,203.2,287.6,210.8,286.9,217.8z"/>
		<g>
			<path class="st1" d="M286.2,217.9c-1.8,17.2-16.6,29.6-32,34.8c-9.1,3-18.7,4.2-28.3,4.5c-10.3,0.5-20.6,0.2-30.9-0.5
				c-21.1-1.5-42-5-62.7-9.4c-17.3-3.7-37.6-7.5-48-23.7c-2.2-3.5-3.8-7.5-4.4-11.7c-0.2-1.7-0.2-3.4-0.3-5.2
				c-0.3-4.6-0.6-9.2-0.9-13.8c0-0.4,0-0.7-0.1-1.1c-0.2,0.2-0.3,0.4-0.5,0.6c22-3.2,43.3-10.5,62.7-21.4c5.6-3.1,11-6.7,16.7-9.8
				c0.2-0.1,0.4-0.5,0.3-0.7c-1.5-4.2-1.7-9.1-0.5-13.3c0.3-1.1,0.8-2,1.3-3c0.2-0.4-0.2-0.1,0-0.3c0.2-0.1,0.6-0.1,0.8-0.1
				c3.2-0.6,6.3-1.2,9.5-1.7c9.6-1.8,19.3-3.6,28.9-5.4c2.4-0.4,4.9-0.9,7.3-1.3c-0.3-0.1-0.5-0.3-0.8-0.4c3.1,7.7,2.3,16.3-0.4,24
				c-0.1,0.3,0.1,0.6,0.4,0.8c13.5,5.5,25.2,14.4,37.4,22.1c5.9,3.8,12,7.2,18.4,9.9c3.1,1.3,6.2,2.3,9.4,3.3c3.4,1,6.9,2.1,9.8,4.2
				C285.2,203.4,286.9,211,286.2,217.9c-0.1,0.8,1.2,0.8,1.2,0c0.6-5.9-0.7-12.3-4.5-17c-4.4-5.5-11.6-6.5-17.9-8.7
				c-13.9-4.8-25.9-13.7-38.1-21.6c-7.1-4.7-14.4-8.9-22.4-12.2c0.1,0.3,0.3,0.5,0.4,0.8c2.8-7.9,3.5-16.7,0.4-24.6
				c-0.1-0.3-0.4-0.5-0.8-0.4c-6.8,1.2-13.6,2.6-20.5,3.8c-8.4,1.5-16.8,3.2-25.2,4.7c-0.3,0-0.6,0.1-0.8,0.2
				c-1.1,0.4-1.7,2.7-2,3.7c-1.5,4.5-1.3,9.9,0.3,14.3c0.1-0.2,0.2-0.5,0.3-0.7c-5,2.8-9.8,5.8-14.8,8.7c-4.7,2.7-9.6,5.2-14.6,7.6
				c-10.1,4.7-20.6,8.4-31.3,11.2c-6.1,1.5-12.2,2.8-18.4,3.7c-0.3,0-0.5,0.4-0.5,0.6c0.2,4,0.5,8.1,0.8,12.1
				c0.3,5.3,0.5,10.4,2.6,15.4c7.5,17.7,27,23.7,44.1,27.5c20.9,4.7,42.1,8.5,63.6,10.5c10.8,0.9,21.6,1.4,32.4,1.2
				c9.8-0.1,19.8-0.9,29.3-3.4c16-4.3,31.6-14.9,36.3-31.6c0.5-1.9,0.9-3.8,1.1-5.7C287.6,217,286.3,217.1,286.2,217.9z"/>
		</g>
	</g>
	<g>
		<path class="st2" d="M216.9,264.9c1.9,4.2,3.6,9.5,0.5,12.9c-2.7,2.9-7.7,2.7-11,0.7c-3.4-2.1-5.4-5.6-7.4-9
			c-2.5-4.3-5.1-8.6-7.7-12.9c-5.7-9.7-11.5-19.4-17.2-29.1c-7.3,8.3-14.8,16.5-22.6,24.4c-5.8,5.8-11.6,11.7-17.6,17.3
			c-3.4,3.2-8,6.6-12.4,5c-3.7-1.4-5.2-6-4.4-9.8c0.9-3.8,3.6-6.9,6.1-9.8c1.9-2.2,3.8-4.4,5.8-6.6c11.3-13.1,22.7-26.2,34-39.3
			c-7.6-12.8-15.1-25.6-22.7-38.4c0.6-0.3,1.2-0.7,1.8-1c2.1-1.2,4.2-2.5,6.3-3.7c2.4-1.4,4.7-2.8,7.2-4.1
			c7.6,10.2,14.8,20.5,21.7,31.1c9.6-11.1,19.3-22.4,29-33.5c2.8,1.1,5.6,2.4,8.3,3.7c2.2,1.1,4.4,2.3,6.5,3.5
			c-10.1,15.4-21.1,30.2-32.6,44.6c9.1,15.3,17.5,30.9,25.1,46.9C214.5,259.9,215.7,262.4,216.9,264.9z"/>
		<g>
			<path class="st1" d="M216.3,265.2c1.7,3.9,4.1,10.2-0.5,13.1c-4.3,2.7-9.6-0.1-12.5-3.4c-1.7-2-3-4.3-4.3-6.6
				c-1.5-2.5-2.9-5-4.4-7.5c-3.1-5.3-6.2-10.5-9.3-15.8c-3.5-6-7.1-12-10.7-17.9c-0.2-0.3-0.7-0.4-1-0.1
				c-6.8,7.7-13.7,15.4-20.9,22.7c-3.7,3.7-7.4,7.4-11,11.2c-1.9,1.8-3.7,3.6-5.6,5.3c-1.8,1.7-3.6,3.4-5.5,4.9
				c-3.4,2.5-8.7,4.4-11.6,0.3c-2.5-3.6-1.4-8,0.7-11.4c2.7-4.1,6.3-7.7,9.5-11.4c3.5-4,7-8,10.4-12.1c7.9-9.1,15.8-18.3,23.8-27.4
				c0.2-0.2,0.2-0.5,0.1-0.8c-7.6-12.8-15.1-25.6-22.7-38.4c-0.1,0.3-0.1,0.6-0.2,0.9c5.1-2.9,10.1-6.2,15.3-9
				c-0.3-0.1-0.6-0.1-0.9-0.2c7.6,10.2,14.7,20.4,21.7,31.1c0.2,0.3,0.7,0.4,1,0.1c9.6-11.1,19.3-22.4,29-33.5
				c-0.2,0.1-0.4,0.1-0.6,0.2c5.1,2,10,4.4,14.7,7c-0.1-0.3-0.1-0.6-0.2-0.9c-10.1,15.4-21,30.1-32.5,44.5c-0.2,0.2-0.2,0.5-0.1,0.8
				C198.2,228.5,207.8,246.6,216.3,265.2c0.3,0.7,1.4,0.1,1.1-0.6c-8.6-18.7-18.1-36.8-28.6-54.4c0,0.3-0.1,0.5-0.1,0.8
				c11.6-14.4,22.6-29.3,32.7-44.7c0.2-0.3,0.1-0.7-0.2-0.9c-4.8-2.7-9.8-5.2-15-7.2c-0.2-0.1-0.5,0-0.6,0.2
				c-9.6,11.1-19.3,22.4-29,33.5c0.3,0,0.7,0.1,1,0.1c-6.9-10.6-14.1-20.9-21.7-31.1c-0.2-0.3-0.5-0.4-0.9-0.2
				c-5.2,2.8-10.2,6.1-15.3,9c-0.3,0.2-0.4,0.6-0.2,0.9c7.6,12.8,15.1,25.6,22.7,38.4c0-0.3,0.1-0.5,0.1-0.8
				c-7.6,8.7-15,17.4-22.6,26.1c-3.8,4.3-7.6,8.7-11.2,13.1c-3.4,3.8-7.2,7.6-9.9,11.9c-2.2,3.3-3.4,7.3-1.7,11.1
				c1.4,3.5,4.9,5.5,8.7,4.7c4.6-0.9,8.2-4.9,11.5-8.1c4-3.8,8-7.7,11.9-11.7c8.8-8.8,17.3-18,25.5-27.4c-0.3,0-0.7-0.1-1-0.1
				c7.1,12,14.1,23.8,21.2,35.8c1.6,2.7,3.1,5.4,4.8,8.1c1.4,2.2,2.9,4.4,4.8,6.1c3.3,2.9,8.8,4.3,12.6,1.3
				c4.6-3.6,2.4-10.1,0.4-14.5C217.1,263.9,216,264.5,216.3,265.2z"/>
		</g>
	</g>
	<g>
		<path class="st3" d="M293.1,62.2c0,0-4.6,2.3-8.9,5.6c-0.6,0.5-1.3,1-1.9,1.5c-0.2,0.2-0.4,0.3-0.5,0.5c-0.7,0.6-1.3,1.2-1.9,1.9
			c-0.4,0.4-0.7,0.8-1,1.2c-0.5,0.7-1.3,1.3-2.3,1.7c-1.4,0.7-3.3,1.1-5.3,1.3c-5.7,0.7-13.2,0.2-18.2-0.7c-2.4-0.4-4.3-0.9-5.1-1.3
			c0,0-0.1,0-0.1-0.1l0,0c-0.6-0.4-1-1.3-1.5-2.6c-0.8-2.4-1.4-6-1.8-9.7c0-0.3-0.1-0.6-0.1-0.9c0-0.4-0.1-0.8-0.1-1.2
			c0-0.3-0.1-0.6-0.1-0.9c0-0.4-0.1-0.7-0.1-1.1l0,0c0-0.2,0-0.5-0.1-0.7c0-0.3-0.1-0.7-0.1-1c-0.3-4.1-0.5-7.3-0.5-7.3l2.1-0.2
			l2-0.2l0.6-0.1l2.1-0.2l1.6-0.2l2.8-0.3l1.8-0.2l7.7-0.8l0,0c0.1,0,1.4,0.4,3.4,1c0.8,0.3,1.7,0.6,2.7,0.9
			C277.2,50.7,288.4,55.4,293.1,62.2z"/>
		<path class="st3" d="M273.8,34.6c-0.6,1.1-1.3,2.2-1.9,3.2c-0.2,0.3-0.4,0.5-0.6,0.8c-0.3,0.4-0.5,0.7-0.8,1.1c0,0,0,0,0,0.1
			c-2,2.6-4.1,4.7-6.4,6.6l0,0c-1.8,1.5-3.8,2.8-5.9,4.1c-0.3,0.2-0.5,0.3-0.8,0.5c-2.1,1.2-4.3,2.3-6.6,3.5
			c-1.8,0.9-3.7,1.7-5.6,2.6c-0.4,0.2-0.9,0.4-1.2,0.5c-0.6,0.2-1.2,0.3-1.7,0.4c-0.4,0-0.7,0-1,0c-0.2,0-0.4-0.1-0.5-0.1
			s-0.1,0-0.2-0.1c-0.2-0.1-0.5-0.2-0.7-0.3c-0.1-0.1-0.3-0.2-0.4-0.3c-3.3-2.7-2.8-11-2.2-15.8c0.3-2.1,0.6-3.5,0.6-3.5
			s0.1-9.3,6.9-17.3c1.2-1.4,2.6-2.7,4.3-4c0.1-0.1,0.2-0.2,0.3-0.2c1.2-0.9,2.6-1.8,4.1-2.5c3.7-1.9,8.3-3.4,13.9-4.1
			C267.4,9.6,280.5,22.6,273.8,34.6z"/>
		<path class="st4" d="M293.1,62.1c-32.7,11.2-34.1,7.7-34.1,7.7c5.3-1.8,16.4-11.7,16.4-11.7c-6.4-2.7-19.6-3.3-23.5-3.5l-0.9-0.1
			v0.1c-0.1,0-0.2,0-0.2,0h0.2l-2.5,19.5c0.9,0.4,2.6,0.8,4.7,1.2c5,0.9,12.5,1.4,18.2,0.7c2-0.2,3.9-0.6,5.3-1.3
			c1-0.4,1.8-1,2.3-1.7c0.3-0.4,0.6-0.8,1-1.2c0.6-0.7,1.2-1.3,1.9-1.9c0.1-0.2,0.3-0.3,0.5-0.5c0.6-0.5,1.3-1,1.9-1.5
			C288.7,64.5,293.2,62.2,293.1,62.1L293.1,62.1z"/>
		<path class="st4" d="M258,44.8c0,0,7.7-3.3,14.2-7.4c-0.1,0.1-0.2,0.3-0.3,0.4c-0.2,0.3-0.4,0.5-0.6,0.8c-0.3,0.4-0.5,0.7-0.8,1.1
			c0,0,0,0,0,0.1c-2,2.6-4.1,4.7-6.4,6.6l0,0c-1.8,1.5-3.8,2.8-5.9,4.1c-0.3,0.2-0.5,0.3-0.8,0.5c-2.1,1.2-4.3,2.3-6.6,3.5
			c-1.8,0.9-3.7,1.7-5.6,2.6c-0.4,0.2-0.9,0.4-1.2,0.5c-0.6,0.2-1.2,0.3-1.7,0.4c-0.4,0-0.7,0-1,0c-0.2,0-0.4-0.1-0.5-0.1
			s-0.1,0-0.2-0.1c-0.2-0.1-0.5-0.2-0.7-0.3c-0.1-0.1-0.3-0.2-0.4-0.3c-0.9-0.7-1.5-1.9-1.9-3.2c1.9-3.9,7.9-8.6,7.9-8.6
			s-6.4-17.9,8.8-25.4C254.3,19.8,265.1,35.8,258,44.8z"/>
		<path class="st0" d="M233.2,127.8c-6.7,8.3-15.4,15.2-26.3,18.7c-32,10.5-54.5,4.8-79.1-11.2c-24.7-16-19.5-62.4-19.5-62.4
			s8.4-21.9,13.2-35.4c4.8-13.4,26.7-22.4,26.7-22.4s30.7-12.3,59.4,1s34.9,29.3,34.9,29.3s0.8,6,2.6,15.6c0.9,4.7,2,10.3,3.4,16.5
			C251.3,90,246.2,111.6,233.2,127.8z"/>
		<path class="st5" d="M232.3,127.8c-7.7,5.6-21.5,13.7-37.2,13.2c-24.1-0.8-45.5-5.2-54-9.5c-8.5-4.5-16.6-18.7-23.9-31.6
			s-1.9-27.7-1.9-27.7L134,56.5l56.3-6.1c0,0,44.6,7.4,51.3,9.1c1,0.3,1.9,0.8,2.8,1.6c0.9,4.7,2,10.3,3.4,16.5
			C250.4,90,245.3,111.7,232.3,127.8z"/>
		<path class="st6" d="M202,110.2c-5.1,1-11,1.8-17.7,2.1c-1.4,0.1-2.9,0.1-4.3,0.1c-2.2,0-4.3,0-6.3,0c-46.8-0.4-46.2-18.1-48.3-27
			c-2.2-9.4,6.6-17.9,6.6-17.9c24.5-11.3,103.1-5.9,104.5,6.6c0,0.4,0.1,0.8,0.1,1.2C237.4,86,233.3,103.8,202,110.2z"/>
		<path class="st7" d="M202,110.2c-5.3,0.6-11.2,1.4-17.7,2.1c-0.5,0-0.9,0.1-1.4,0.2c-3,0.3-6.1,0.3-9.2,0
			c-33.4-3.2-68.9-40.1-17.8-44.8c45.5-4.2,72.3,4.4,80.7,7.7C237.4,86,233.3,103.8,202,110.2z"/>
		<path class="st0" d="M147.5,86.8c0,0-0.4,5.4,4,6.3c4.5,0.9,5.8-3.1,6.3-5.4c0.4-2.2,0-7.1-3.6-7.1S148.3,82.8,147.5,86.8z"/>
		<circle class="st8" cx="154.7" cy="83.7" r="1.3"/>
		<path class="st0" d="M199.8,87c0,0-0.4,5.4,4,6.3c4.5,0.9,5.8-3.1,6.3-5.4c0.4-2.2,0-7.1-3.6-7.1S200.6,83,199.8,87z"/>
		<circle class="st8" cx="206.9" cy="83.8" r="1.3"/>
		<path class="st0" d="M211.3,78.4c0.3-3.6-9.1-5.4-13.6-0.2c-2.1,2.3-0.7,2.5-0.7,2.5S204,77.3,211.3,78.4z"/>
		<path class="st0" d="M147,79.4c-0.7-3.5,8.4-6.4,13.5-2c2.4,2.1,1,2.4,1,2.4S154.1,77.3,147,79.4z"/>
		<path class="st3" d="M253.1,75.4c-0.5,1.6-1.2,2.8-2.3,3.6c-0.3,0.2-0.5,0.3-0.8,0.5c-0.1,0-0.1,0.1-0.2,0.1
			c-1.4,0.7-2.7,0.7-4.2,0.3c-0.8-0.3-1.7-0.6-2.7-1.2c-0.7-0.3-1.4-0.7-2.2-1.2c-0.8-0.4-1.6-0.9-2.6-1.4s-2.1-1.2-3.4-1.8
			c-1.4-0.7-3.1-1.5-4.9-2.4c-0.2-0.1-0.5-0.2-0.7-0.3l0,0c-13.8-6.3-21.7-8.1-50.6-8.7c-27.2-0.7-54.9,9.7-56.9,10.5h0.1
			c0,0-0.7,0.2-3.7,1.3c-0.5,0.2-1.1,0.4-1.8,0.7c-0.7,0.2-1.4,0.5-2.3,0.8c-0.5,0.2-1.1,0.4-1.5,0.5c-0.6,0.2-1.1,0.4-1.6,0.5
			c-1.2,0.3-2.1,0.5-2.7,0.5c-0.7,0-1.2-0.2-1.6-0.7c-1.1-1.4-0.5-5.1-0.6-11.6c0-4.5,1-9.3,2.1-13.4c0.1-0.4,0.2-0.8,0.4-1.1
			c0.2-0.5,0.3-1,0.5-1.4c0.2-0.6,0.4-1.2,0.6-1.8c0.1-0.2,0.2-0.5,0.3-0.7c0.7-1.8,1.4-3.4,1.9-4.7c0.8-1.7,1.3-2.7,1.3-2.7
			s0.4-1.1,3.1-2.5c0.1-0.1,0.3-0.1,0.4-0.2c0.4-0.2,0.8-0.4,1.2-0.6c0.8-0.4,1.8-0.7,2.9-1.1c0.2-0.1,0.5-0.2,0.8-0.2
			c0.2-0.1,0.5-0.2,0.8-0.2c0.2-0.1,0.5-0.1,0.8-0.2c0.5-0.2,1.1-0.3,1.7-0.5c0.1,0,0.1,0,0.2-0.1c0.8-0.2,1.8-0.4,2.7-0.6
			c5.2-1.1,12.4-2.2,22-2.9l0,0c1.1-0.1,2.2-0.1,3.4-0.2l0,0c6.6-0.4,14.2-0.7,23.1-0.7c29.3-0.1,49.6,6.6,61.9,12
			c2.6,1.2,4.8,2.3,6.6,3.3c0.6,0.3,1.2,0.6,1.7,0.9l0,0c0.4,0.2,0.7,0.5,1.1,0.8c0.4,0.4,0.7,0.8,1.1,1.3c0.1,0.2,0.2,0.3,0.3,0.5
			c1.1,1.8,2,4.1,2.7,6.3c1.3,3.9,2,7.5,2,7.5S254.6,70.2,253.1,75.4z"/>
		<path class="st4" d="M253.7,71.5c-0.1,1.4-0.3,2.7-0.6,3.9c-0.5,1.6-1.2,2.8-2.3,3.6c-0.3,0.2-0.5,0.3-0.8,0.5
			c-0.1,0-0.1,0.1-0.2,0.1c-1.4,0.7-2.7,0.7-4.2,0.3c-0.8-0.3-1.7-0.6-2.7-1.2c-0.7-0.3-1.4-0.7-2.2-1.2c-0.8-0.4-1.6-0.9-2.6-1.4
			s-2.1-1.2-3.4-1.8c-1.4-0.7-3.1-1.5-4.9-2.4c-0.2-0.1-0.5-0.2-0.7-0.3l0,0c-13.8-6.3-21.7-8.1-50.6-8.7
			c-27.2-0.7-54.9,9.7-56.9,10.5h0.1c0,0-0.7,0.2-3.7,1.3c-0.5,0.2-1.1,0.4-1.8,0.7c-0.7,0.2-1.4,0.5-2.3,0.8
			c-0.5,0.2-1.1,0.4-1.5,0.5c-0.6,0.2-1.1,0.4-1.6,0.5c-1.2,0.3-2.1,0.5-2.7,0.5c-0.7,0-1.2-0.2-1.6-0.7c-1.1-1.4-0.5-5.1-0.6-11.6
			c0-4.5,1-9.3,2.1-13.4c0.1-0.4,0.2-0.8,0.4-1.1c0.2-0.5,0.3-1,0.5-1.4c0.2-0.6,0.4-1.2,0.6-1.8c0.1-0.2,0.2-0.5,0.3-0.7
			c0.6-1.5,1.1-2.9,1.6-4c-2.1,5.9-3.7,17.9,18.8,13.3c29.3-6.2,108.3-0.6,119,9.7C251.1,67.9,252.6,69.7,253.7,71.5z"/>
		<path class="st9" d="M253.1,75.4c-0.5,1.6-1.2,2.8-2.3,3.6c-0.3,0.2-0.5,0.3-0.8,0.5c-0.1,0-0.1,0.1-0.2,0.1
			c-1.4,0.7-2.7,0.7-4.2,0.3c-0.8-0.3-1.7-0.6-2.7-1.2c-0.7-0.3-1.4-0.7-2.2-1.2c-0.8-0.4-1.6-0.9-2.6-1.4s-2.1-1.2-3.4-1.8
			c-1.4-0.7-3.1-1.5-4.9-2.4c-0.2-0.1-0.5-0.2-0.7-0.3l0,0c-13.8-6.3-21.7-8.1-50.6-8.7c-27.2-0.7-54.9,9.7-56.9,10.5h0.1
			c0,0-0.7,0.2-3.7,1.3c-0.5,0.2-1.1,0.4-1.8,0.7c-0.7,0.2-1.4,0.5-2.3,0.8c-0.5,0.2-1.1,0.4-1.5,0.5c-0.6,0.2-1.1,0.4-1.6,0.5
			c-1.2,0.3-2.1,0.5-2.7,0.5c-0.7,0-1.2-0.2-1.6-0.7c-1.1-1.4-0.5-5.1-0.6-11.6c0-4.5,1-9.3,2.1-13.4c0.1-0.4,0.2-0.8,0.4-1.1
			c0.2-0.5,0.3-1,0.5-1.4c0.2-0.6,0.4-1.2,0.6-1.8c0.1-0.2,0.2-0.5,0.3-0.7c0.7-1.8,1.4-3.4,1.9-4.7c0.8-1.7,1.3-2.7,1.3-2.7
			s0.4-1.1,3.1-2.5c0.1-0.1,0.3-0.1,0.4-0.2c0.4-0.2,0.8-0.4,1.2-0.6c0.8-0.4,1.8-0.7,2.9-1.1c0.2-0.1,0.5-0.2,0.8-0.2
			c0.2-0.1,0.5-0.2,0.8-0.2c0.2-0.1,0.5-0.1,0.8-0.2c0.5-0.2,1.1-0.3,1.7-0.5c0.1,0,0.1,0,0.2-0.1c0.8-0.2,1.8-0.4,2.7-0.6
			c5.2-1.1,12.4-2.2,22-2.9l0,0c1.1-0.1,2.2-0.1,3.4-0.2l0,0c6.6-0.4,14.2-0.7,23.1-0.7c29.3-0.1,49.6,6.6,61.9,12
			c2.6,1.2,4.8,2.3,6.6,3.3c0.6,0.3,1.2,0.6,1.7,0.9l0,0c0.4,0.2,0.7,0.5,1.1,0.8c0.4,0.4,0.7,0.8,1.1,1.3c0.1,0.2,0.2,0.3,0.3,0.5
			c1.1,1.8,2,4.1,2.7,6.3c1.3,3.9,2,7.5,2,7.5S254.6,70.2,253.1,75.4z"/>
		<g>
			<polygon class="st10" points="152.2,18 177.2,56.3 181.3,50 160.4,18 			"/>
			<polygon class="st10" points="193.8,17.8 178.6,41.6 182.8,47.9 201.9,17.8 			"/>
			<polygon class="st11" points="190.9,17.8 182.8,17.9 173.1,33.1 177.2,39.3 			"/>
		</g>
	</g>
	<path class="st0" d="M37.9,280.6c0,0-1.6-1.8-4.2-2.3c-2.6-0.4-6.2,0.4-7.6-3.2s-4.4-4.7-4.4-4.7s-4.2-5.7-6.1-7.3
		c-1.9-1.6-4.4-1.8-5.2-5.5c-0.9-3.7-0.1-6-0.1-6S8,249,8,245.3s2.2-3.5,2.2-3.5S6.4,238,7.7,235c1.3-2.9,5.3-4.4,5.3-4.4
		s-1.3-4.7,1.7-7s6.2-2.1,6.2-2.1l6.1-1.6c0,0,5.9,12.4,6,12.8c0.1,0.4,5.6,19.6,5.6,19.6l0.5,20.7L37.9,280.6z"/>
	<path class="st0" d="M313.8,267.5l0.3-20.7c0,0,5.3-19.2,5.4-19.6s5.8-12.8,5.8-12.8l6.1,1.6c0,0,3.2-0.2,6.2,2.1s1.7,7,1.7,7
		s4,1.5,5.3,4.4c1.3,3-2.5,6.8-2.5,6.8s2.2-0.2,2.2,3.5s-2.3,6.3-2.3,6.3s0.8,2.3-0.1,6c-0.8,3.7-3.3,3.9-5.2,5.5s-6.1,7.3-6.1,7.3
		s-3,1.1-4.4,4.7s-5,2.8-7.6,3.2c-2.6,0.5-4.2,2.3-4.2,2.3L313.8,267.5z"/>
	<g>
		<path class="st12" d="M57,143.3h242.7c16,0,28.9,13,28.9,28.9v134.9c0,16-13,28.9-28.9,28.9L57,335.9c-16,0-28.9-13-28.9-28.9
			V172.1C28.2,156.2,41.1,143.3,57,143.3z"/>
		
			<ellipse transform="matrix(1.107650e-02 -0.9999 0.9999 1.107650e-02 71.9056 556.9223)" class="st13" cx="317.5" cy="242.1" rx="7.3" ry="7.3"/>
	</g>
	<path class="st14" d="M69,160l212.8,0.5c14,0,25.3,10.8,25.3,23.9l-0.3,111.2c0,13.2-11.5,23.8-25.4,23.8l-212.8-0.5
		c-14,0-25.3-10.8-25.3-23.9l0.3-111.2C43.6,170.6,55.1,159.9,69,160z"/>
	<g id="Camada_1_1_" class="st15">
	</g>
	<path class="st0" d="M43.1,238.3c-0.1,0.3-0.4,0.5-0.7,0.8c-0.1,0.1-0.3,0.2-0.4,0.2c-0.6,0.2-1.3,0.2-1.9,0
		c-0.8-0.2-1.6-0.7-2.3-1.2c-1.2-0.9-2.1-1.9-2.1-1.9s-0.1-0.2-0.4-0.6l0,0c-0.6-0.9-1.6-2.7-2.5-4.1l0,0c-0.7-1-1.3-1.9-1.6-2.1
		c-0.1-0.1-0.1-0.1-0.2-0.1h-0.1l0,0c-1.1,0.1-8.9,0.7-8.9,0.7l-0.8-0.2l-1-0.3l-2.4-0.6l2.9-7.3c0,0,7.3-2.5,10.4-1.9
		c2.9,0.6,10,11,10.1,12.4C41.1,233.2,44.1,236.4,43.1,238.3z"/>
	<path class="st0" d="M38,247.6c0-0.1,0.1-0.1,0.1-0.2c0.3-0.6,0.5-0.9,0.7-1c0.2-1,0.4-2,0.5-2.9c0-0.7,0-1,0-1
		c-0.1-0.2-0.2-0.6-0.4-1.3c-1-3.3-3-6.4-4.6-10.1c-0.1-0.2-0.1-0.5-0.2-0.7c-0.9-0.6-1.7-1.1-2.3-1.3c-2.6-0.7-8.7-0.2-8.7-0.2
		l-4.4-0.1l-0.9,10.3c1.3-0.5,11.4-0.7,13.3,0.3c1.9,1,3.7,5.8,3.7,5.8S37,246.1,38,247.6z"/>
	<path class="st0" d="M31.9,250.6c0.7,0.4,1.2,2.2,2.2,3.8c4.4,2.1,5.2-2.3,5.2-3.2c0-3.5-0.6-3.9-0.6-4.5c-1.8-2.4-5.9-7.3-7.4-7.9
		c-4-1.4-13.9,0.6-13.9,0.6l-2.5,10.1c1.1,0.3,9,1.2,9.5,1C24.7,250.3,30.7,249.8,31.9,250.6z"/>
	<path class="st16" d="M43.1,238.3c-0.1,0.3-0.4,0.5-0.7,0.8c-0.1,0.1-0.3,0.2-0.4,0.2c-0.5,0-1.2,0-1.9,0c-0.8-0.2-1.6-0.7-2.3-1.2
		c-1.2-0.9-2.1-1.9-2.1-1.9s-0.1-0.2-0.4-0.6l0,0c-0.3-1-1.1-2.8-2.5-4.1l0,0c-0.4-0.4-0.8-0.7-1.3-1c-2.9-1.8-9,0.7-9,0.7l-1.8-0.5
		c0.1-0.4,0.3-0.7,0.5-0.9c0.9-0.6,2.6-0.5,3.7-0.5c2.2-0.2,4-0.5,6,0l0,0c0.1,0,0.2,0,0.2,0.1c0.3,0.1,0.6,0.2,0.8,0.3
		c2.2,0.9,4.5,6.1,5.4,7.3C39.4,237.3,41.6,237.9,43.1,238.3z"/>
	<path class="st0" d="M18.1,260.3c0,0,3.5-3.2,4.9-4.9l5.4-0.7c0,0,1.5,2.9,3.2,3c1.8,0.1,2.8-3.7,2.1-5.2s-4.5-4.8-7.6-5
		c-3.2-0.3-11.2,3.2-11.2,3.2"/>
	<path class="st16" d="M38.8,245.8L38.8,245.8c-2.1-1.8-4.3-3.6-6.6-5.1c-0.7-0.4-1.4-0.8-2.1-1.2c-0.2-0.1-0.5-0.2-0.7-0.3
		c-2-0.9-4.1-1.5-6.2-1.6c-0.9,0-3.3,0.1-3.6,1.3c-0.1,0.2,0,0.4,0.1,0.7c0.3,1.1,1.5,0.6,2.3,0.5c0.9-0.1,1.9-0.1,2.8-0.1
		c3.4,0.2,6.7,1.5,9.2,3.6c0.2,0.2,0.5,0.4,0.7,0.6c1.1,1.1,2.2,2.3,3.7,2.6l0,0L38.8,245.8z"/>
	<path class="st16" d="M26.9,246.9c1.9,0.1,3.9,0.8,5.4,2s2.5,3.2,2.3,5.1c-0.3,0.2-0.7,0-0.9-0.3s-0.3-0.7-0.4-1
		c-0.5-1.8-2.3-3-4.1-3.4c-1.8-0.5-3.7-0.4-5.6-0.5c-0.4,0-1.7,0-1.9-0.5c-0.2-0.4,0.3-0.9,0.7-1C23.5,246.7,25.6,246.8,26.9,246.9z
		"/>
	<path class="st0" d="M309.1,232.9c0.1,0.3,0.4,0.5,0.7,0.8c0.1,0.1,0.3,0.2,0.4,0.2c0.6,0.2,1.3,0.2,1.9,0c0.8-0.2,1.6-0.7,2.3-1.2
		c1.2-0.9,2.1-1.9,2.1-1.9s0.1-0.2,0.4-0.6l0,0c0.6-0.9,1.6-2.7,2.5-4.1l0,0c0.7-1,1.3-1.9,1.6-2.1c0.1-0.1,0.1-0.1,0.2-0.1h0.1l0,0
		c1.1,0.1,8.9,0.7,8.9,0.7l0.8-0.2l1-0.3l2.4-0.6l-2.9-7.3c0,0-7.3-2.5-10.4-1.7c-2.9,0.6-9.8,11-9.9,12.4
		C311.1,227.7,308.1,230.9,309.1,232.9z"/>
	<path class="st0" d="M314.3,242.2c0-0.1-0.1-0.1-0.1-0.2c-0.3-0.6-0.5-0.9-0.7-1c-0.2-1-0.4-2-0.5-2.9c0-0.7,0-1,0-1
		c0.1-0.2,0.2-0.6,0.4-1.3c1-3.3,3-6.4,4.4-10.1c0.1-0.2,0.1-0.5,0.2-0.7c0.9-0.6,1.7-1.1,2.3-1.3c2.6-0.7,8.7-0.2,8.7-0.2l4.4-0.1
		l1.1,10.3c-1.3-0.5-11.4-0.5-13.3,0.5s-3.7,5.8-3.7,5.8S315.2,240.7,314.3,242.2z"/>
	<path class="st0" d="M320.5,245.1c-0.7,0.4-1.2,2.2-2.2,3.8c-4.4,2.1-5.2-2.3-5.2-3.2c0-3.5,0.6-3.9,0.6-4.5
		c1.8-2.4,5.9-7.3,7.4-7.9c4-1.4,13.9,0.4,13.9,0.4l2.7,10.1c-1.1,0.3-9,1.2-9.5,1C327.7,244.6,321.7,244.3,320.5,245.1z"/>
	<path class="st16" d="M309.1,232.9c0.1,0.3,0.4,0.5,0.7,0.8c0.1,0.1,0.3,0.2,0.4,0.2c0.5,0,1.2,0,1.9,0c0.8-0.2,1.6-0.7,2.3-1.2
		c1.2-0.9,2.1-1.9,2.1-1.9s0.1-0.2,0.4-0.6l0,0c0.3-1,1.1-2.8,2.5-4.1l0,0c0.4-0.4,0.8-0.7,1.3-1c2.9-1.8,9,0.7,9,0.7l1.8-0.5
		c-0.1-0.4-0.3-0.7-0.5-0.9c-0.9-0.6-2.6-0.5-3.7-0.5c-2.2-0.2-4-0.5-6,0l0,0c-0.1,0-0.2,0-0.2,0.1c-0.3,0.1-0.6,0.2-0.8,0.3
		c-2.2,0.9-4.5,6.1-5.4,7.3C312.8,231.9,310.5,232.4,309.1,232.9z"/>
	<path class="st0" d="M337.5,244.9c0,0-8-3.4-11.2-3c-3.1,0.2-6.9,3.5-7.6,5s0.3,5.3,2.1,5.2c1.7-0.1,3.2-3,3.2-3l5.4,0.7
		c1.4,1.7,4.9,4.9,4.9,4.9"/>
	<path class="st16" d="M313.9,241.5L313.9,241.5c1.5-0.2,2.6-1.5,3.7-2.6c0.2-0.2,0.5-0.4,0.7-0.6c2.6-2.2,5.9-3.5,9.2-3.6
		c0.9-0.1,1.9,0,2.8,0.1c0.8,0.1,2,0.5,2.3-0.5c0.1-0.3,0.1-0.5,0-0.7c-0.3-1.2-2.7-1.4-3.6-1.3c-2.1,0.1-4.3,0.7-6.2,1.6
		c-0.2,0.1-0.5,0.2-0.7,0.3c-0.7,0.4-1.4,0.8-2.1,1.2c-2.3,1.5-4.5,3.3-6.6,5.1l0,0L313.9,241.5z"/>
	<path class="st16" d="M325.4,241.4c-1.9,0.1-3.9,0.8-5.4,2s-2.5,3.2-2.3,5.1c0.3,0.2,0.7,0,0.9-0.3c0.2-0.3,0.3-0.7,0.4-1
		c0.5-1.8,2.3-3,4.1-3.4c1.8-0.4,3.7-0.4,5.6-0.5c0.4,0,1.7,0,1.9-0.5c0.2-0.4-0.3-0.9-0.7-1C328.7,241.1,326.7,241.3,325.4,241.4z"
		/>
</g>
</svg>
