<?xml version="1.0" encoding="utf-8"?>
<!-- Generator: Adobe Illustrator 24.3.0, SVG Export Plug-In . SVG Version: 6.00 Build 0)  -->
<svg version="1.1" id="Camada_1" xmlns="http://www.w3.org/2000/svg" xmlns:xlink="http://www.w3.org/1999/xlink" x="0px" y="0px"
	 viewBox="0 0 350.5 350.5" style="enable-background:new 0 0 350.5 350.5;" xml:space="preserve">
<style type="text/css">
	.st0{fill:#6FB0E2;}
	.st1{fill:#D8E6F4;}
	.st2{fill:#276DC1;}
	.st3{fill:#FFFFFF;}
	.st4{fill:#E34D27;}
	.st5{fill:#ED664C;}
	.st6{fill:#FCFCFC;}
	.st7{fill:#150361;}
	.st8{fill:#F9F080;}
	.st9{fill:#1F3FB2;}
	.st10{fill:#FCFFFF;}
	.st11{opacity:0.2;enable-background:new    ;}
	.st12{fill:#2A442A;}
	.st13{fill:#BACBDB;}
	.st14{fill:#E5E5E5;}
	.st15{fill:#D8E5F4;}
	.st16{fill:#5A5B5B;}
	.st17{fill:#FA70F7;}
	.st18{fill:none;}
	.st19{fill:#0F0549;}
	.st20{fill:#DEAD1D;}
	.st21{fill:#E4F291;}
	.st22{fill:#DD64DD;}
	.st23{fill:#CECCCE;}
	.st24{fill:#7834E2;}
	.st25{fill:#CFE6FF;}
	.st26{fill:#E4EAED;}
	.st27{fill:#A7B6FF;}
	.st28{fill:#332B0B;}
	.st29{fill:none;stroke:#D8E6F4;stroke-width:2;stroke-linecap:round;stroke-miterlimit:10;}
</style>
<g id="Camada_1_1_">
	<ellipse class="st0" cx="175.2" cy="175.2" rx="175.2" ry="175.2"/>
	<g>
		<g>
			<polygon class="st1" points="165.2,98.7 162,101.3 122.5,70.4 121.3,72.1 160.3,102.6 85.4,163.1 86.8,164.7 162,104 
				164.3,105.9 165.6,104.2 163.6,102.6 166.5,100.3 			"/>
			<path class="st1" d="M274.1,160.9c0.4-0.9,0.9-1.7,1.8-2.2l0.4-40h-2.1l-0.5,43.3C273.8,161.6,274,161.3,274.1,160.9z"/>
			<path class="st1" d="M273.6,162.3l-100.2-59.1l59.3,3.3l0.1-2.1l-63.4-3.6l-1.9-1.1l-0.6,1l-3.5-0.2l-0.1,2.1l5.5,0.3l104.4,61.5
				c0.1-0.3,0.1-0.6,0.3-0.9C273.5,163.2,273.5,162.7,273.6,162.3z"/>
			
				<rect x="219.9" y="54.2" transform="matrix(0.7208 -0.6932 0.6932 0.7208 6.7185 175.3013)" class="st1" width="2.1" height="50.2"/>
			<rect x="127.5" y="52.8" class="st1" width="37.6" height="2.1"/>
			
				<rect x="36.9" y="110.9" transform="matrix(0.5963 -0.8028 0.8028 0.5963 -63.0388 98.5121)" class="st1" width="59.1" height="2.1"/>
		</g>
	</g>
	<g>
		<path class="st2" d="M305.3,110.6c-0.4,2.8-1.7,5.1-3.7,7.2c-2.5,2.5-5.6,4.3-8.9,5.6c-5.6,2.2-11.5,3.3-17.5,3.7
			c-2.9,0.2-5.8,0.1-8.6,0c-6.6-0.4-13-1.5-19.2-3.5c-4.3-1.4-8.5-3.3-12.3-6c-2.7-1.9-5.1-4.1-6.8-6.9c-1.4-2.3-2.1-4.8-1.8-7.4
			c0.4-2.8,1.7-5.1,3.6-7c2.7-2.7,6-4.5,9.5-5.9c4.6-1.8,9.5-2.8,14.4-3.2c3.6-0.4,7.2-0.4,10.9-0.2c0.9,0.1,1.8,0.1,2.4,0.1
			c7.2,0.6,14,2,20.6,4.7c3.5,1.4,6.9,3.2,9.9,5.5c2.2,1.6,4.1,3.5,5.5,5.8C304.9,105.2,305.6,107.8,305.3,110.6z"/>
		<path class="st3" d="M283.6,100.8c1.4,0.1,3.2,0.1,4.8,0.5c1.8,0.4,3.3,1.1,4.3,2.7c0.8,1.2,0.9,2.6,0.7,4c-0.5,3.4-2.2,6-5.3,7.6
			c-1.6,0.8-3.3,0.8-5.1,0.7c-1.3-0.1-2.6-0.2-3.9-0.4c-0.4-0.1-0.6,0.1-0.8,0.6c-0.4,1.5-0.8,2.9-1.2,4.3c-0.1,0.4-0.3,0.6-0.7,0.5
			c-1.2-0.1-2.3-0.2-3.5-0.3c-0.4,0-0.6-0.1-0.4-0.6c1-3.4,2-6.9,2.9-10.2c0.8-2.9,1.7-5.9,2.5-8.8c0.2-0.8,0.2-0.8,1.1-0.8
			C280.5,100.5,281.9,100.7,283.6,100.8z M281.8,112.7c0.9,0.1,2,0.1,3-0.1c1.3-0.2,2.2-0.8,2.9-2c0.6-1,1-2.1,1.1-3.3
			c0.1-1.5-0.4-2.3-1.8-2.7c-0.1-0.1-0.3-0.1-0.5-0.1c-1.3-0.3-2.7-0.3-4.1-0.4c-0.4-0.1-0.5,0.1-0.6,0.4c-0.7,2.5-1.4,5.1-2.1,7.5
			c-0.1,0.4,0.1,0.5,0.4,0.6C280.7,112.6,281.1,112.6,281.8,112.7z"/>
		<path class="st3" d="M246.1,113.1c-0.7-0.1-1.4-0.1-2.1-0.2c-0.4-0.1-0.6,0.1-0.8,0.5c-0.4,1.4-0.8,2.8-1.2,4.2
			c-0.1,0.5-0.4,0.6-0.8,0.6c-1.1-0.1-2.1-0.2-3.2-0.3c-0.7-0.1-0.8-0.1-0.6-0.8c1-3.5,2-7,2.9-10.5c0.8-2.9,1.6-5.7,2.4-8.6
			c0.1-0.5,0.4-0.7,0.9-0.6c2.8,0.3,5.5,0.4,8.3,0.7c1.5,0.1,3,0.6,4.3,1.5c1.5,1.3,2.1,2.9,2,4.8c-0.3,3.2-1.7,5.7-4.4,7.4
			c-1.5,0.9-3.1,1.3-4.8,1.3C248.1,113.3,247.1,113.2,246.1,113.1z M246.4,109.7L246.4,109.7c0.5,0,0.9,0.1,1.4,0.1
			c1.5,0,2.9-0.1,4-1.2c1.3-1.3,1.8-3,1.8-4.8c0-1.1-0.6-1.7-1.5-2c-0.3-0.1-0.5-0.1-0.8-0.2c-1.1-0.3-2.1-0.3-3.2-0.4
			c-1.5-0.1-1.3-0.3-1.7,1.1c-0.6,2.2-1.3,4.4-1.9,6.7c-0.1,0.4,0,0.6,0.4,0.6C245.4,109.7,245.9,109.7,246.4,109.7z"/>
		<path class="st3" d="M268.4,99.5c1.1,0.1,2.5,0.2,3.9,0.6c1.3,0.4,2.4,1.1,2.8,2.5c0.2,0.8,0.2,1.7,0,2.5c-0.8,3-1.7,6-2.5,9
			c-0.4,1.3-0.1,1.1-1.5,1.1c-0.8-0.1-1.8-0.1-2.6-0.2c-0.8-0.1-0.8-0.1-0.6-0.9c0.8-2.9,1.6-5.7,2.4-8.6c0-0.1,0-0.1,0.1-0.1
			c0.4-1.3-0.1-2.1-1.5-2.2c-0.9-0.1-1.9-0.2-2.9-0.3c-1.8-0.1-1.4-0.4-1.9,1.3c-0.9,3.2-1.8,6.4-2.7,9.5c-0.1,0.5-0.4,0.7-0.9,0.6
			c-1.1-0.1-2.2-0.2-3.2-0.3c-0.6-0.1-0.6-0.1-0.5-0.7c1.4-4.9,2.7-9.8,4.1-14.7c0.4-1.5,0.9-3.2,1.3-4.7c0.1-0.4,0.3-0.6,0.7-0.5
			c1.1,0.1,2.2,0.2,3.4,0.3c0.6,0.1,0.6,0.1,0.4,0.6c-0.4,1.4-0.8,2.8-1.2,4.2c-0.1,0.6-0.1,0.6,0.5,0.6
			C266.7,99.3,267.4,99.4,268.4,99.5z"/>
	</g>
	<g>
		<g>
			<path class="st4" d="M65.2,111.7l1.3,2c-0.2,0.4,0,0.6,0.1,0.8c2.9,5.3,5.8,10.7,8.8,16.1c2.9,5.3,5.8,10.5,8.7,15.7
				c2.6,4.7,5.1,9.4,7.7,14.1c0.4,0.6,0.1,0.9-0.3,1.4c-2.3,2.7-4.7,5.4-6.9,8.1c-2.4,2.9-5.1,5.5-7.2,8.6l-0.7,0.5
				c-0.2,0-0.4,0-0.6,0.1c-6.7,2.2-13.3,4.4-20.1,6.6c-0.6,0.2-1.1,0.6-1.6-0.1c-2-2.6-4.1-5.1-6.2-7.7c-3.8-4.7-7.6-9.4-11.4-14.1
				c-3.8-4.8-7.6-9.5-11.5-14.2c-1.5-1.8-2.8-3.9-4.6-5.4l-1.1-1.7c0.4-0.3,0.6-0.6,1-0.8c14.5-9.7,29-19.4,43.4-29.1
				C64.4,112.1,64.7,111.9,65.2,111.7z"/>
		</g>
		<polygon class="st5" points="42.6,130.1 75.2,175.4 88.7,159.8 64.5,115.3 		"/>
		<path class="st6" d="M56.2,126.2c3.1-1.8,6.1-3.6,9.2-5.5c0.6-0.4,0.8-0.1,1.2,0.8c0.7,1.5,1.5,3,2.4,4.5c0.6,1.1,0.6,1.5-0.1,1.8
			c-4.5,2.6-8.9,5.3-13.5,7.9c-0.6,0.4-0.8,0.7,0.1,1.9c1,1.2,1.8,2.6,2.6,3.9c0.7,1.3,1.1,1.3,1.8,0.8c3.1-1.9,6.2-3.8,9.4-5.6
			c1.1-0.6,2.2-1.3,3.3-2c0.5-0.3,0.7-0.3,1.3,0.7c3.2,6.1,6.4,12.1,9.5,18.2c1,1.8,0.9,2.7,0,3.6c-0.8,0.8-1.5,1.7-1.9,2.8
			c-0.2,0.5-0.7,0.8-1,1.2c-0.4,0.7-0.9,1.3-1.3,2.1c-0.2,0.7-1.1,0.8-1.9,0.8c-2.7,0.1-5.4,0.4-8.1,0.7c-0.7,0.1-1.2-0.1-1.8-1.1
			c-1.7-2.7-3.4-5.3-5.2-7.9c-0.6-0.8-0.6-1.2-0.1-1.5c1-0.5,1.8-1.1,2.7-1.6c0.4-0.3,0.8-0.1,1.2,0.6c0.7,1.1,1.5,2.2,2.2,3.4
			c0.4,0.7,0.8,0.9,1.2,0.8c1.4-0.2,2.9-0.4,4.3-0.4c0.4,0,0.6-0.2,0.8-0.5c0.8-1.2,1.6-2.5,2.5-3.6c0.3-0.4,0.3-0.8-0.1-1.5
			c-1.2-2.2-2.4-4.6-3.5-6.8c-0.5-1.1-0.8-1.1-1.3-0.8c-4,2.4-8,4.7-12,7.1c-0.7,0.4-1.1,0.2-1.8-0.9c-3.7-5.7-7.4-11.3-11.2-16.9
			c-0.8-1.2-0.7-1.5-0.1-1.8C50.1,129.8,53.2,128,56.2,126.2L56.2,126.2z"/>
		<polygon class="st6" points="36,140.2 57.9,170.4 49.5,173.9 52.6,178.6 68.7,173.8 40.9,135.7 		"/>
	</g>
	<g>
		<path class="st6" d="M126.7,86.4l-38.9,6c-4.6,0.7-8.9-2.5-9.6-7l-3.9-25.3c-0.7-4.6,2.5-8.9,7-9.6l38.9-6c4.6-0.7,8.9,2.5,9.6,7
			l3.9,25.2C134.5,81.5,131.3,85.7,126.7,86.4z"/>
		<g>
			<path class="st7" d="M97.6,77.6L81,73.5l-0.5-3.3l14.7-9l0.6,4.3l-9,5.4L97,73.3L97.6,77.6z"/>
			<path class="st7" d="M108.3,53.9l-3.6,28.5l-5,0.8l3.6-28.5L108.3,53.9z"/>
			<path class="st7" d="M110.4,58.9L127,63l0.5,3.3l-14.6,9l-0.6-4.3l9-5.4l-10.2-2.4L110.4,58.9z"/>
		</g>
	</g>
	<g>
		<g>
			<g>
				<path class="st3" d="M300.1,205.3c-0.6,0-1.3-0.1-2-0.4c-2.4-0.8-4.4-2.4-6.1-3.8c-0.5-0.4-1-0.9-1.5-1.4
					c-0.2-0.2-0.5-0.4-0.7-0.7l-0.9-0.8l-1,0.8c-0.4,0.3-0.6,0.6-1,0.9c-0.7,0.6-1.4,1.3-2.1,1.9c-2.2,1.8-4,2.8-5.9,3.3
					c-0.4,0.1-0.9,0.1-1.3,0.1c-2,0-3.5-1.3-4.1-3.3c-0.5-1.8-0.6-3.6-0.2-6c0.1-1,0.4-1.9,0.6-2.9c0.1-0.4,0.2-0.9,0.3-1.3
					c0-0.1,0.4-1.8,0.4-1.8l-2-0.6c-0.5-0.1-1-0.3-1.5-0.4c-2.2-0.7-3.8-1.4-5.3-2.2c-2.2-1.3-3.3-2.7-3.6-4.4v-1.1
					c0.5-2.2,1.9-3.6,4.8-5c1.3-0.6,2.6-1.1,3.9-1.5c0.6-0.2,1.2-0.4,1.8-0.6c0.1-0.1,0.2-0.1,0.4-0.1l0.2-0.1l1.3-0.4l-0.3-1.3
					c-0.1-0.4-0.2-0.8-0.3-1.3c-0.2-0.9-0.4-1.8-0.6-2.7c-0.4-2-0.6-4.3,0-6.6s2.1-3.6,4.1-3.6c0.6,0,1.3,0.1,2,0.4
					c2.5,0.8,4.5,2.4,6.1,3.9c0.5,0.4,1,0.9,1.5,1.4c0.2,0.2,0.5,0.4,0.7,0.6l0.9,0.8l1-0.8c0.4-0.3,0.6-0.6,1-0.9
					c0.7-0.6,1.4-1.3,2.1-1.9c1.6-1.3,3.5-2.7,5.9-3.3c0.5-0.1,1-0.1,1.4-0.1c1.1,0,2,0.4,2.7,1.1c0.8,0.8,1.3,1.9,1.6,3.4
					c0.4,3-0.1,5.9-0.8,8.6l-0.6,2.2l1.3,0.4c0.4,0.1,0.8,0.3,1.3,0.4c0.9,0.3,1.8,0.6,2.5,0.8c2.4,0.9,4.1,1.8,5.5,3
					c1.1,1,1.7,2,1.8,3c0.3,1.6-0.4,2.9-1.9,4.3c-1.9,1.7-4.3,2.7-6.4,3.4c-0.6,0.2-1.3,0.4-1.9,0.6l-0.9,0.3L303,190l0.3,1.3
					c0.1,0.4,0.2,0.8,0.3,1.3c0.2,0.9,0.4,1.8,0.6,2.7c0.4,2,0.6,4.3,0,6.6C303.8,203.4,302.7,205.3,300.1,205.3z M275.2,191.3
					c-0.6,2.3-1.3,5-1.2,7.9c0.1,1.1,0.2,2,0.5,3c0.4,1.5,1.5,2.2,3,2.2l0,0c0.3,0,0.6,0,0.8-0.1c0.6-0.1,1.2-0.3,1.7-0.5
					c2.9-1.3,5.2-3.4,7.3-5.5l0.8-0.8l-0.5-0.9c-0.1-0.2-0.1-0.3-0.2-0.4l-0.6-0.7c-0.9-1.3-1.9-2.5-2.8-3.7
					c-0.4-0.4-0.8-0.7-1.4-0.8c-0.4-0.1-0.9-0.1-1.3-0.1c-0.4-0.1-0.7-0.1-1.1-0.1c-0.8-0.1-1.5-0.2-2.2-0.3l-2.2-0.4L275.2,191.3z
					 M299.7,190.5c-1.6,0.2-3.1,0.4-4.6,0.6c-0.5,0.1-1,0.4-1.3,0.8c-1,1.3-1.9,2.5-2.9,3.9l-1.3,1.8l0.8,0.8
					c1.3,1.4,3.2,3.1,5.3,4.4c1,0.6,2,1.1,3,1.4c0.5,0.1,1,0.3,1.4,0.3l0,0c0.8,0,2.7-0.3,3.2-3c0.4-1.5,0.4-3.2,0.1-5.1
					c-0.2-1.2-0.4-2.3-0.6-3.4c-0.1-0.5-0.2-1-0.3-1.5l-0.3-1.3L299.7,190.5z M288.8,196.7l4.3-5.3h-2.9h-5.7L288.8,196.7z
					 M287,173.1c-0.6,0-1.3,0-1.9,0c-0.7,0-1.4,0.4-1.8,1.1c-1.3,2.1-2.5,4.3-3.8,6.5c-0.4,0.6-0.4,1.4,0,2c1.2,2.1,2.5,4.3,3.8,6.5
					c0.4,0.6,1.1,1,1.7,1c1.3,0,2.5,0,3.9,0c1.3,0,2.5,0,3.8,0c0.6,0,1.3-0.4,1.7-1c1.4-2.4,2.6-4.5,3.8-6.5c0.4-0.6,0.4-1.5,0-2
					c-1.3-2.2-2.5-4.3-3.7-6.5c-0.4-0.6-1.1-1-1.8-1.1c-0.6,0-1.3,0-1.9,0H289H287z M295,190.2l6.9-1.1l-2.5-6.4L295,190.2z
					 M275.8,189.1l6.9,1.1l-4.3-7.4L275.8,189.1z M273.5,174.7c-0.4,0.1-0.8,0.3-1.2,0.4c-0.9,0.3-1.9,0.6-2.8,0.9
					c-1.1,0.4-2.1,0.9-3,1.4c-0.8,0.5-1.7,1.1-2.4,1.8c-1.5,1.4-1.5,3.4-0.1,4.8c0.4,0.4,0.8,0.8,1.3,1.2c2,1.4,4.1,2.2,6.2,2.8
					c0.4,0.1,0.9,0.3,1.3,0.4l1.8,0.5l1-2.2c0.6-1.4,1.2-2.8,1.8-4.2c0.2-0.5,0.2-1.1,0-1.5c-0.6-1.4-1.2-2.8-1.8-4.3l-1-2.3
					L273.5,174.7z M302.3,175.5c-0.1,0.4-0.4,0.8-0.5,1.3c-0.4,0.9-0.7,1.8-1.1,2.5c-0.8,1.6-0.8,3.1,0,4.8c0.4,0.8,0.8,1.6,1.1,2.5
					c0.1,0.4,0.3,0.8,0.5,1.2l0.3,0.7l0.7,0.1c0.1,0,0.1,0.1,0.4,0.1h0.2l0.4-0.1c0.2-0.1,0.4-0.1,0.6-0.1c2.5-0.7,5.2-1.6,7.5-3.3
					c1.4-1.1,2.2-2.2,2.2-3.4c0-1.3-0.7-2.4-2.1-3.4c-2.6-1.9-5.6-2.8-8.4-3.6l-1.2-0.4L302.3,175.5z M299.2,180.6l2.5-6.5l-6.8-1
					L299.2,180.6z M275.8,174.2l2.5,6.4l4.3-7.5L275.8,174.2z M277.5,159c-1.3,0-2.5,0.8-2.9,2c-0.3,0.8-0.5,1.6-0.6,2.4
					c-0.2,3,0.4,5.9,1.1,8.6l0.4,1.2l2.5-0.3c1.5-0.2,3-0.4,4.6-0.6c0.7-0.1,1.2-0.6,1.4-0.8c0.4-0.6,0.8-1.1,1.2-1.6
					c0.4-0.4,0.7-0.9,1-1.3c0.3-0.4,0.6-0.7,0.8-1.1l1.2-1.5l-0.8-0.9c-2-2-3.6-3.4-5.4-4.6c-0.9-0.6-2.2-1.3-3.8-1.5
					C277.9,159,277.7,159,277.5,159z M300.2,159c-0.3,0-0.5,0-0.8,0.1c-0.8,0.1-1.4,0.4-1.9,0.6c-2.8,1.2-4.8,3.2-7.2,5.4l-0.8,0.8
					l1.3,1.8c1,1.3,2,2.7,3,4c0.3,0.4,0.8,0.6,1.2,0.7c1.6,0.2,3.2,0.4,4.8,0.6l2.2,0.3l0.4-1.2c0.6-2.3,1.3-4.8,1.2-7.4
					c0-1.1-0.2-2.3-0.6-3.5C302.7,159.8,301.6,159,300.2,159z M284.5,172h8.6l-4.3-5.4L284.5,172z"/>
			</g>
			<g>
				<path class="st3" d="M288.8,185.4c-1,0-2-0.4-2.7-1.1s-1.1-1.7-1.1-2.7c0-2,1.7-3.7,3.8-3.7c1,0,2,0.4,2.7,1.1
					c0.7,0.7,1.1,1.7,1.1,2.7C292.6,183.7,290.8,185.4,288.8,185.4L288.8,185.4z"/>
			</g>
		</g>
	</g>
	<g>
		<path class="st8" d="M201,67.8c-3,0-6.1,0-9.1,0c-0.4,0-0.7,0-1.1,0c-0.6,0-1.1,0.2-1.1,0.9c0,0.8,0.5,0.8,1.1,0.8c3,0,6,0,9,0
			c3.6,0,3.6,0,3.6,3.6c0,4.5-1.5,6.7-5.8,8.1c-5.7,1.9-11.4,2-17-0.3c-3.8-1.5-5.1-3.6-5.1-7.6c0-3.6,0-7.2,0-10.9
			c0-5.1,3.2-8.1,8.2-8.2c4.6,0,9.1,0,13.7,0c5.1,0,8.4-3.4,8.4-8.4c0-1.4,0-2.8,0-4.1c0-0.9,0.3-1.4,1.3-1.4
			c1.4,0.1,2.9-0.1,4.3,0.1c2,0.4,3.4,1.4,4.3,3.2c3.2,7.1,3.6,14.2-0.2,21.1c-1.1,2-2.8,3-5.2,2.9C207.1,67.7,204.1,67.8,201,67.8z
			 M197.4,73.1c-1.5,0-2.6,1.1-2.6,2.5c0,1.3,1.3,2.5,2.5,2.5c1.3,0.1,2.5-1.1,2.5-2.6C199.8,74.1,198.8,73.1,197.4,73.1z"/>
		<path class="st9" d="M179.5,40.3c2.9,0,5.8,0,8.7,0c0.6,0,1.3,0.2,1.3-0.7c0.1-1-0.8-0.8-1.3-0.8c-3.6,0-7.2-0.1-10.7,0
			c-1.2,0-1.6-0.4-1.5-1.5c0.1-1.9-0.1-3.9,0.2-5.8c0.4-2,1.4-3.2,3.2-4c1.5-0.7,3.2-1,4.9-1.3c4.1-0.6,8.3-0.4,12.4,0.3
			c2,0.4,3.9,1.2,5.3,2.7c1.3,1.3,2,2.9,2,4.8c-0.1,3.8,0,7.5,0,11.3c0,4.2-3.2,7.4-7.5,7.4c-4.6,0.1-9.2,0.1-13.8,0
			c-4.7-0.1-9.2,3.9-8.8,8.9c0.1,1.7,0,3.4,0,5.1c0,0.9-0.4,1.3-1.3,1.3c-1,0-2,0-2.9,0c-3.3-0.1-5.5-2-6.6-4.9
			c-2.2-5.8-2.2-11.6-0.1-17.3c1.2-3.4,4.3-5.3,8.1-5.4C173.7,40.3,176.6,40.3,179.5,40.3L179.5,40.3z M182,30.2
			c-1.3,0-2.5,1.1-2.5,2.5c0,1.3,1.1,2.5,2.5,2.5s2.5-1.1,2.5-2.5C184.5,31.4,183.4,30.2,182,30.2z"/>
	</g>
	<g>
		<path class="st8" d="M162.1,117.5c0.1-1.6,0-3.9-1.2-6.1c-0.8-1.6-1.6-1.9-2.8-3.4c-0.4-0.5-3.6-4.6-3.4-10c0-0.9,0.1-4.8,2.7-7.9
			c4.7-5.5,15.2-6.1,20.4-0.8c3,3,3.4,7.1,3.4,8.6c0.2,5.5-3.1,9.8-3.4,10.2c-0.8,1-1.8,1.8-2.6,3.6c-1.1,2.2-1.1,4.3-0.9,5.9
			C170.4,117.5,166.2,117.5,162.1,117.5z"/>
		<path class="st10" d="M175,120.2h-13.9c-0.3,0-0.6-0.2-0.6-0.6v-0.9c0-0.3,0.2-0.6,0.6-0.6H175c0.3,0,0.6,0.2,0.6,0.6v0.9
			C175.6,120,175.4,120.2,175,120.2z"/>
		<path class="st10" d="M175,122.7h-13.9c-0.3,0-0.6-0.2-0.6-0.6v-0.9c0-0.3,0.2-0.6,0.6-0.6H175c0.3,0,0.6,0.2,0.6,0.6v0.9
			C175.6,122.5,175.4,122.7,175,122.7z"/>
		<path class="st10" d="M175,125.2h-13.9c-0.3,0-0.6-0.2-0.6-0.6v-0.9c0-0.3,0.2-0.6,0.6-0.6H175c0.3,0,0.6,0.2,0.6,0.6v0.9
			C175.6,124.9,175.4,125.2,175,125.2z"/>
		<path class="st10" d="M171.9,128.2h-7.6c-0.4,0-0.7-0.4-0.7-0.7v-1.2c0-0.4,0.4-0.7,0.7-0.7h7.6c0.4,0,0.7,0.4,0.7,0.7v1.2
			C172.6,127.9,172.3,128.2,171.9,128.2z"/>
	</g>
	<ellipse class="st11" cx="165.1" cy="282.3" rx="84.4" ry="14"/>
	<path class="st12" d="M102.6,234c-3-17.9-9-35.4-17.7-51.6c9.7,15.6,16.9,32.8,21.2,50.9L102.6,234z"/>
	<path class="st12" d="M101.8,231.2c2.5-13.5,10.6-25.6,21.6-33c-10.3,8.3-16.8,20.8-18.1,33.5L101.8,231.2z"/>
	<path class="st12" d="M105.1,236.1c-0.3-4.8-0.6-9.6-0.9-14.5c-0.2-4.8-0.4-9.7-0.2-14.5c0.1-1.2,0.1-2.5,0.4-3.6
		c0.1-1.2,0.4-2.4,0.6-3.6c0.5-2.4,1.1-4.8,2-7c1.6-4.6,4-8.9,7.2-12.5c-2.9,3.8-5.1,8.2-6.4,12.8c-0.6,2.3-1.1,4.6-1.5,7
		s-0.5,4.7-0.5,7.1c0.1,4.8,0.6,9.5,1.1,14.3c0.6,4.8,1.2,9.5,1.8,14.3L105.1,236.1z"/>
	<path class="st12" d="M109,245.6c-1.5-4.5-3-9.1-4.6-13.7s-3.3-9.1-5.3-13.5c-0.5-1.1-1.1-2.2-1.7-3.3s-1.3-2.1-1.9-3.1
		c-1.3-2-2.8-4-4.4-5.8c-3.2-3.6-7.1-6.7-11.4-8.8c4.2,2.4,7.8,5.7,10.7,9.4c1.5,1.9,2.8,3.9,4,5.9s2.2,4.1,3.1,6.4
		c1.8,4.4,3.1,9,4.4,13.6s2.5,9.3,3.8,14L109,245.6z"/>
	<path class="st12" d="M98,255.9c1.5-4.5,3-9.1,4.6-13.7c1.6-4.6,3.3-9.1,5.3-13.5c0.5-1.1,1.1-2.2,1.7-3.3s1.3-2.1,1.9-3.1
		c1.3-2,2.8-4,4.4-5.8c3.2-3.6,7.1-6.7,11.4-8.8c-4.1,2.4-7.8,5.7-10.7,9.4c-1.5,1.9-2.8,3.9-4,5.9s-2.2,4.1-3.1,6.4
		c-1.8,4.4-3.1,9-4.4,13.6s-2.5,9.3-3.8,14L98,255.9z"/>
	<path class="st13" d="M116,270.6c-1.5,2.9-4.9,4.4-8.2,4.6c-1.2,0.1-2.3,0-3.5-0.2c-1.1,0.1-2.3,0.3-3.5,0.2
		c-3.3-0.2-6.7-1.7-8.2-4.6c-1.7-3.3-0.6-7.3,0.4-10.9c1.3-4.4,2.7-8.8,4.1-13.2c0.3-0.8,0.5-1.6,0.8-2.5c0.9-2.9,1.7-6.3-0.2-8.6
		c-0.3-0.4-0.6-0.7-1-1c-1.3-1-2.7-1.8-3.3-3.2c-0.2-0.6-0.3-1.3-0.1-1.9c2.9,1.5,6.7,2.5,10.9,2.5c4.2,0,8-1,10.9-2.5
		c0.1,0.6,0.1,1.3-0.1,1.9c-0.6,1.5-2,2.2-3.3,3.2c-0.4,0.3-0.7,0.6-1,1c-1.9,2.3-1.1,5.8-0.2,8.6c0.3,0.8,0.5,1.6,0.8,2.5
		c1.3,4.4,2.7,8.8,4.1,13.2C116.6,263.3,117.8,267.3,116,270.6z"/>
	<path class="st14" d="M174,280.3c-5.3,4-11.9,6.4-18.5,6.7c-2.5,0.1-5.5,0.1-6.9,2.2c-1.6,2.2-0.3,5.6,2.2,6.9
		c2.5,1.2,5.4,0.7,7.9-0.5s4.6-2.9,7-4.2c6-3.3,13-3.8,19.9-4.1"/>
	<path class="st7" d="M127.4,272.8c5.8,3.5,18.7,10.4,35.6,9.1c5.8-0.4,10.9-1.8,14.9-3.2C161,276.8,144.2,274.9,127.4,272.8z"/>
	<path class="st7" d="M178.9,288.8c-2.2-3.2-4.4-6.5-6.7-9.7c10.4-2,20.8-4.1,31.2-6.1c0-4.5,0-9,0-13.5c4.2-0.4,8.5-0.9,12.7-1.3
		c1.1-0.3,3.4-0.7,6.2,0.1c4.3,1.3,6.2,4.8,6.7,5.6c0.4,1.1,1.8,5,0.2,9.5c-2.2,6.1-8.1,8.1-8.8,8.3c-5.5,1.6-11.7,3.2-18.5,4.3
		C193.6,287.7,185.8,288.5,178.9,288.8z"/>
	<path class="st3" d="M158.9,186.1c-0.4,3.8-0.6,7.6-1,11.4c-2.7,0.5-5.5,1-8.3,1.5c1.1,2.2,2.9,4.6,5.7,6.5
		c8.8,5.9,19.5,0.7,20.1,0.4c3.5-1.8,5.8-4.1,7-5.7c-2.5-1-5.1-2-7.6-2.9c-0.6-4-1.1-8-1.7-12c-2.3,0-4.6,0-6.9,0
		C163.7,185.6,161.3,185.8,158.9,186.1z"/>
	<path class="st3" d="M181.7,171.2c-1.7,3.9-3.2,7.4-4.7,10.5c-0.7,1.5-1.7,3.5-3.6,5.5c-0.7,0.8-1.4,1.4-1.8,1.8
		c-0.8,0.5-2.7,1.4-5.3,1.4c-2.8,0-4.8-1.1-5.6-1.7c-0.1-0.1-0.1-0.1-0.1-0.1c-1.6-2-3.4-4.5-5.1-7.6c-2.2-4.2-3.4-8.1-4.1-11.2
		c0.7-2.9,1.4-5.7,2-8.6l11.9-6.7l13.5,6.7C179.8,164.6,180.7,167.9,181.7,171.2z"/>
	<path class="st15" d="M149.6,199c-6.4,2.5-16.2,7.7-23.4,18c-5.5,7.9-13.9,25.2-6.6,34.7c2.3,3,5.6,4.4,8.1,5.1
		c24.8,2,49.7,4,74.5,6c6.9-2.5,10-6.1,11.3-8.5c8.4-14.4-9.8-36.5-11.9-39c-6.7-8-14.3-12.6-19.4-15.2c-0.7,0.8-7.4,8.2-17.8,7.3
		C155.4,206.7,150.4,200,149.6,199z"/>
	<polygon class="st13" points="139.7,217.8 132,230.5 132,234.9 135.9,234.9 134.8,230.3 	"/>
	<polygon class="st13" points="189.2,219.4 195,233.2 194.4,237.5 190.6,236.9 192.3,232.6 	"/>
	<path class="st16" d="M126.8,239.3v34.4c0,3,2.5,5.4,5.4,5.4h65.9c3,0,5.4-2.5,5.4-5.4v-34.4c0-3-2.5-5.4-5.4-5.4h-65.9
		C129.3,233.8,126.8,236.3,126.8,239.3z"/>
	<rect x="126.8" y="271.1" class="st6" width="76.7" height="2"/>
	<path class="st17" d="M181.6,126.3"/>
	<path class="st3" d="M197.6,125.4"/>
	<path class="st17" d="M124.2,132.2"/>
	<polyline class="st6" points="165.2,266.6 167.3,263.3 156.4,246.4 152.1,246.4 	"/>
	<g>
		<line class="st18" x1="152.1" y1="246.4" x2="165.2" y2="266.6"/>
		<polygon class="st6" points="166,258.8 168.1,262.1 178.2,246.4 174,246.4 		"/>
		<polygon class="st6" points="172.4,246.4 168.1,246.4 163.1,254.4 165.2,257.7 		"/>
	</g>
	<path class="st19" d="M83,302"/>
	<path class="st19" d="M71.9,286.3"/>
	<path class="st7" d="M174.5,289.2"/>
	<path class="st7" d="M334.6,326.5"/>
	<path class="st6" d="M164.1,315.2c-0.7-0.7-1.5-1.3-2.5-1.7v8.1c-6.2,1.8-7.8,0.4-8.3-0.2c-0.9-1.1-0.4-2.6-0.1-7.8
		c0-0.6,0.1-1.2,0.1-1.9c0.1-1.7,0.1-3,0.1-3.9c-0.1-2.1-1.3-4-3.1-4.8c-2-0.9-3.9-0.2-4.2-0.1c1.5-5.3,3.2-10.5,4.7-15.7
		c0.8,1.3,2.1,3.2,4.2,4.9c2.3,1.8,4.8,2.7,6.7,3.2c1.1,0.2,2,0.4,2.6,0.4c0.1,0.8,0.3,1.5,0.4,2.4
		C165.5,304.2,165.1,309.9,164.1,315.2z"/>
	<path class="st7" d="M126.8,253c-1.5-0.9-3.5-1.8-5.8-2.5c-5.3-1.7-10-1.5-12.9-1.1c-4.7,2-6.5,4.4-7.2,6.2
		c-3.5,8.8,8.2,23.9,29.7,37.4l17.4,10.5c1.5-5.3,3-10.5,4.6-15.8c-3.8-1.8-8.3-4.2-13.2-7.9c-5.8-4.4-9.9-9-12.7-12.8
		C126.8,262.4,126.8,257.7,126.8,253z"/>
	<path class="st20" d="M164.7,298.1c-0.1-0.8-0.2-1.6-0.4-2.4c-0.3,0-0.7-0.1-1.1-0.1c-0.6-0.1-1.1-0.1-1.5-0.3
		c3.2,9.3,1.5,14.6-0.1,17.3c-0.1,0.1-0.1,0.3-0.2,0.4l0,0c-1.4-0.3-2.9-0.5-3.7-0.5c-1.6,0-3.1,0.4-4.3,1.1
		c-0.3,5.2-0.8,6.7,0.1,7.8c0.5,0.6,2.1,2,8.3,0.2c0.4-0.1,0.6-0.2,1-0.3c0.6-2,1.1-4,1.5-6.1C165.1,309.9,165.5,304.2,164.7,298.1z
		"/>
	<path class="st21" d="M154.6,307.2"/>
	<path class="st21" d="M132.9,264.8"/>
	<path class="st22" d="M167.2,135.8c-2.3-2-5.5-2.2-7.9-0.7c-1.8,1.3-2.9,3.5-2.7,5.9c-0.4-0.4-0.9-1.4-1-2.7
		c-0.1-2.7,2.3-4.3,2.6-4.4c2.6-1.7,5.5-0.5,6.2-0.2C165.9,134.3,166.8,135.3,167.2,135.8z"/>
	<path class="st22" d="M176.1,134.6c0.6,0.4,2.1,1.5,2.2,3.4c0.1,1.2-0.4,2.1-0.7,2.5c0-0.3-0.1-3.5-2.9-5.2
		c-2.2-1.4-5.2-1.3-7.4,0.4c0.4-0.4,2.3-2.5,5.3-2.4C173.3,133.5,174.7,133.6,176.1,134.6z"/>
	<path class="st23" d="M173.4,187.3c-0.6,3.2-3.3,5.6-6.7,5.6c-1,0-1.8-0.2-2.2-0.4c-3.1-1.1-4.6-3.6-5.1-4.6
		c0.3,0.2,0.6,0.5,1.2,0.8c0,0,0.1,0,0.1,0.1c0.8,0.5,2.8,1.7,5.6,1.7c2.5,0,4.4-0.9,5.3-1.4C172.1,188.6,172.7,188,173.4,187.3z"/>
	<path class="st24" d="M183.2,148.2c-2.9-3.5-6.6-5-8.7-5.6c2.2-0.4,3.6-2.2,3.7-4.1c0.1-2.1-1.7-3.4-1.8-3.5
		c-0.6-0.4-1.8-1.3-3.5-1.5c-3.2-0.3-5.4,2-5.7,2.3c-0.4-0.4-2-2.5-4.9-2.7c-0.6-0.1-3.6-0.4-5.3,1.9c-1.3,1.6-1.6,4.1-0.6,5.6
		c1.2,1.6,3.5,1.3,3.6,2c0.1,1.1-5.1,1.8-8.3,4.1c-6.4,4.9-4.4,17.5-3.3,24.5c2.2,14.2,9.3,26.3,9.4,26.3v-0.1
		c-5-13.3-6.7-24.7-4.6-31.2c3,0,6.1,0,9.1,0c0-1.7,0-3.4,0.1-5.1c0.1,0,0.1,0,0.2,0c0.7,1.8,1.5,3.5,1.5,5.1v0.1
		c1.4,0,3.1-0.1,3.1-0.1c0-2.1,0.7-4.6,0.8-6.8c0.7,1.5,2,3,2.5,4.5c0.3,0.8,0.6,1.6,1.2,2.3h2.9c0.3-1.5,1-3.1,1.2-4.7
		c0.3,1.5,0.6,3.2,0.9,4.7h3.8c2.2,6.4,0.1,17.9-5.7,31c7.1-11.1,9.6-21.1,10.7-27.4C186.9,162,188.2,154,183.2,148.2z M167.6,156.8
		L167.6,156.8L167.6,156.8L167.6,156.8z"/>
	<path class="st17" d="M164.2,166.4c0-0.1,0-0.1,0-0.1C164.2,166.3,165.5,166.4,164.2,166.4z"/>
	<g id="Caneca">
		<g>
			<ellipse class="st25" cx="243.6" cy="253.9" rx="12.1" ry="4.7"/>
			<ellipse class="st25" cx="243.6" cy="254" rx="12.1" ry="4.7"/>
			<ellipse class="st25" cx="243.6" cy="254.1" rx="12.1" ry="4.7"/>
			<ellipse class="st25" cx="243.6" cy="254.2" rx="12.1" ry="4.7"/>
			<ellipse class="st25" cx="243.6" cy="254.2" rx="12.1" ry="4.7"/>
			<ellipse class="st25" cx="243.6" cy="254.3" rx="12.1" ry="4.7"/>
			<ellipse class="st25" cx="243.6" cy="254.4" rx="12" ry="4.7"/>
			<ellipse class="st25" cx="243.6" cy="254.4" rx="12" ry="4.7"/>
			<ellipse class="st25" cx="243.6" cy="254.5" rx="12" ry="4.7"/>
			<ellipse class="st25" cx="243.6" cy="254.6" rx="12" ry="4.7"/>
			<ellipse class="st25" cx="243.6" cy="254.6" rx="12" ry="4.7"/>
			<ellipse class="st25" cx="243.6" cy="254.6" rx="12" ry="4.7"/>
			<ellipse class="st25" cx="243.6" cy="254.7" rx="12" ry="4.7"/>
			<ellipse class="st25" cx="243.6" cy="254.8" rx="12" ry="4.7"/>
			<ellipse class="st25" cx="243.6" cy="254.9" rx="12" ry="4.6"/>
			<ellipse class="st25" cx="243.6" cy="254.9" rx="12" ry="4.6"/>
			<ellipse class="st25" cx="243.6" cy="255" rx="11.9" ry="4.6"/>
			<ellipse class="st25" cx="243.6" cy="255.1" rx="11.9" ry="4.6"/>
			<ellipse class="st25" cx="243.6" cy="255.1" rx="11.9" ry="4.6"/>
			<ellipse class="st25" cx="243.6" cy="255.2" rx="11.9" ry="4.6"/>
			<ellipse class="st25" cx="243.6" cy="255.3" rx="11.9" ry="4.6"/>
			<ellipse class="st25" cx="243.6" cy="255.3" rx="11.9" ry="4.6"/>
			<ellipse class="st25" cx="243.6" cy="255.4" rx="11.9" ry="4.6"/>
			<ellipse class="st25" cx="243.6" cy="255.5" rx="11.9" ry="4.6"/>
			<ellipse class="st25" cx="243.6" cy="255.6" rx="11.9" ry="4.6"/>
			<ellipse class="st25" cx="243.6" cy="255.6" rx="11.9" ry="4.6"/>
			<ellipse class="st25" cx="243.6" cy="255.6" rx="11.9" ry="4.6"/>
			<ellipse class="st25" cx="243.6" cy="255.7" rx="11.9" ry="4.6"/>
			<ellipse class="st25" cx="243.6" cy="255.8" rx="11.9" ry="4.6"/>
			<ellipse class="st25" cx="243.6" cy="255.8" rx="11.9" ry="4.6"/>
			<ellipse class="st25" cx="243.6" cy="255.9" rx="11.9" ry="4.6"/>
			<ellipse class="st25" cx="243.6" cy="256" rx="11.9" ry="4.6"/>
			<ellipse class="st25" cx="243.6" cy="256.1" rx="11.9" ry="4.6"/>
			<ellipse class="st25" cx="243.6" cy="256.1" rx="11.9" ry="4.6"/>
			<ellipse class="st25" cx="243.6" cy="256.2" rx="11.9" ry="4.6"/>
			<ellipse class="st25" cx="243.6" cy="256.3" rx="11.9" ry="4.6"/>
			<ellipse class="st25" cx="243.6" cy="256.3" rx="11.9" ry="4.6"/>
			<ellipse class="st25" cx="243.6" cy="256.4" rx="11.8" ry="4.6"/>
			<ellipse class="st25" cx="243.6" cy="256.5" rx="11.8" ry="4.6"/>
			<ellipse class="st25" cx="243.6" cy="256.5" rx="11.8" ry="4.6"/>
			<ellipse class="st25" cx="243.6" cy="256.6" rx="11.8" ry="4.6"/>
			<ellipse class="st25" cx="243.6" cy="256.7" rx="11.8" ry="4.6"/>
			<ellipse class="st25" cx="243.6" cy="256.8" rx="11.8" ry="4.6"/>
			<ellipse class="st25" cx="243.6" cy="256.8" rx="11.8" ry="4.6"/>
			<ellipse class="st25" cx="243.6" cy="256.8" rx="11.8" ry="4.6"/>
			<ellipse class="st25" cx="243.6" cy="256.9" rx="11.8" ry="4.6"/>
			<ellipse class="st25" cx="243.6" cy="257" rx="11.8" ry="4.6"/>
			<ellipse class="st25" cx="243.6" cy="257" rx="11.7" ry="4.6"/>
			<ellipse class="st25" cx="243.6" cy="257.1" rx="11.7" ry="4.6"/>
			<ellipse class="st25" cx="243.6" cy="257.2" rx="11.7" ry="4.6"/>
			<ellipse class="st25" cx="243.6" cy="257.2" rx="11.7" ry="4.6"/>
			<ellipse class="st25" cx="243.6" cy="257.3" rx="11.7" ry="4.5"/>
			<ellipse class="st25" cx="243.6" cy="257.4" rx="11.7" ry="4.5"/>
			<ellipse class="st25" cx="243.6" cy="257.5" rx="11.7" ry="4.5"/>
			<ellipse class="st25" cx="243.6" cy="257.5" rx="11.7" ry="4.5"/>
			<ellipse class="st25" cx="243.6" cy="257.6" rx="11.7" ry="4.5"/>
			<ellipse class="st25" cx="243.6" cy="257.7" rx="11.7" ry="4.5"/>
			<ellipse class="st25" cx="243.6" cy="257.7" rx="11.6" ry="4.5"/>
			<ellipse class="st25" cx="243.6" cy="257.8" rx="11.6" ry="4.5"/>
			<ellipse class="st25" cx="243.6" cy="257.8" rx="11.6" ry="4.5"/>
			<ellipse class="st25" cx="243.6" cy="257.9" rx="11.6" ry="4.5"/>
			<ellipse class="st25" cx="243.6" cy="257.9" rx="11.6" ry="4.5"/>
			<ellipse class="st25" cx="243.6" cy="258" rx="11.6" ry="4.5"/>
			<ellipse class="st25" cx="243.6" cy="258.1" rx="11.6" ry="4.5"/>
			<ellipse class="st25" cx="243.6" cy="258.2" rx="11.6" ry="4.5"/>
			<ellipse class="st25" cx="243.6" cy="258.2" rx="11.6" ry="4.5"/>
			<ellipse class="st25" cx="243.6" cy="258.3" rx="11.6" ry="4.5"/>
			<ellipse class="st25" cx="243.6" cy="258.4" rx="11.6" ry="4.5"/>
			<ellipse class="st25" cx="243.6" cy="258.4" rx="11.6" ry="4.5"/>
			<ellipse class="st25" cx="243.6" cy="258.5" rx="11.6" ry="4.4"/>
			<ellipse class="st25" cx="243.6" cy="258.6" rx="11.6" ry="4.4"/>
			<ellipse class="st25" cx="243.6" cy="258.6" rx="11.6" ry="4.4"/>
			<ellipse class="st25" cx="243.6" cy="258.7" rx="11.6" ry="4.4"/>
			<ellipse class="st25" cx="243.6" cy="258.8" rx="11.6" ry="4.4"/>
			<ellipse class="st25" cx="243.6" cy="258.9" rx="11.6" ry="4.4"/>
			<ellipse class="st25" cx="243.6" cy="258.9" rx="11.6" ry="4.4"/>
			<ellipse class="st25" cx="243.6" cy="258.9" rx="11.6" ry="4.4"/>
			<ellipse class="st25" cx="243.6" cy="259" rx="11.5" ry="4.4"/>
			<ellipse class="st25" cx="243.6" cy="259.1" rx="11.5" ry="4.4"/>
			<ellipse class="st25" cx="243.6" cy="259.1" rx="11.5" ry="4.4"/>
			<ellipse class="st25" cx="243.6" cy="259.2" rx="11.5" ry="4.4"/>
			<ellipse class="st25" cx="243.6" cy="259.3" rx="11.5" ry="4.4"/>
			<ellipse class="st25" cx="243.6" cy="259.3" rx="11.5" ry="4.4"/>
			<ellipse class="st25" cx="243.6" cy="259.4" rx="11.5" ry="4.4"/>
			<ellipse class="st25" cx="243.6" cy="259.5" rx="11.5" ry="4.4"/>
			<ellipse class="st25" cx="243.6" cy="259.6" rx="11.5" ry="4.4"/>
			<ellipse class="st25" cx="243.6" cy="259.6" rx="11.5" ry="4.4"/>
			<ellipse class="st25" cx="243.6" cy="259.7" rx="11.4" ry="4.3"/>
			<ellipse class="st25" cx="243.6" cy="259.8" rx="11.4" ry="4.3"/>
			<ellipse class="st25" cx="243.6" cy="259.8" rx="11.4" ry="4.3"/>
			<ellipse class="st25" cx="243.6" cy="259.9" rx="11.4" ry="4.3"/>
			<ellipse class="st25" cx="243.6" cy="260" rx="11.4" ry="4.3"/>
			<ellipse class="st25" cx="243.6" cy="260" rx="11.4" ry="4.3"/>
			<ellipse class="st25" cx="243.6" cy="260" rx="11.4" ry="4.3"/>
			<ellipse class="st25" cx="243.6" cy="260.1" rx="11.4" ry="4.3"/>
			<ellipse class="st25" cx="243.6" cy="260.2" rx="11.4" ry="4.3"/>
			<ellipse class="st25" cx="243.6" cy="260.3" rx="11.4" ry="4.3"/>
			<ellipse class="st25" cx="243.6" cy="260.3" rx="11.4" ry="4.3"/>
			<ellipse class="st25" cx="243.6" cy="260.4" rx="11.4" ry="4.3"/>
			<ellipse class="st25" cx="243.6" cy="260.5" rx="11.4" ry="4.3"/>
			<ellipse class="st25" cx="243.6" cy="260.5" rx="11.4" ry="4.3"/>
			<ellipse class="st25" cx="243.6" cy="260.6" rx="11.4" ry="4.3"/>
			<ellipse class="st25" cx="243.6" cy="260.7" rx="11.4" ry="4.3"/>
			<ellipse class="st25" cx="243.6" cy="260.8" rx="11.4" ry="4.3"/>
			<ellipse class="st25" cx="243.6" cy="260.8" rx="11.4" ry="4.3"/>
			<ellipse class="st25" cx="243.6" cy="260.9" rx="11.4" ry="4.3"/>
			<ellipse class="st25" cx="243.6" cy="261" rx="11.4" ry="4.3"/>
			<ellipse class="st25" cx="243.6" cy="261" rx="11.3" ry="4.3"/>
			<ellipse class="st25" cx="243.6" cy="261.1" rx="11.3" ry="4.3"/>
			<ellipse class="st25" cx="243.6" cy="261.1" rx="11.3" ry="4.3"/>
			<ellipse class="st25" cx="243.6" cy="261.2" rx="11.3" ry="4.3"/>
			<ellipse class="st25" cx="243.6" cy="261.2" rx="11.3" ry="4.3"/>
			<ellipse class="st25" cx="243.6" cy="261.3" rx="11.3" ry="4.3"/>
			<ellipse class="st25" cx="243.6" cy="261.4" rx="11.3" ry="4.3"/>
			<ellipse class="st25" cx="243.6" cy="261.5" rx="11.3" ry="4.3"/>
			<ellipse class="st25" cx="243.6" cy="261.5" rx="11.3" ry="4.3"/>
			<ellipse class="st25" cx="243.6" cy="261.6" rx="11.3" ry="4.3"/>
			<ellipse class="st25" cx="243.6" cy="261.7" rx="11.2" ry="4.3"/>
			<ellipse class="st25" cx="243.6" cy="261.7" rx="11.2" ry="4.3"/>
			<ellipse class="st25" cx="243.6" cy="261.8" rx="11.2" ry="4.3"/>
			<ellipse class="st25" cx="243.6" cy="261.9" rx="11.2" ry="4.3"/>
			<ellipse class="st25" cx="243.6" cy="261.9" rx="11.2" ry="4.3"/>
			<ellipse class="st25" cx="243.6" cy="262" rx="11.2" ry="4.3"/>
			<ellipse class="st25" cx="243.6" cy="262.1" rx="11.2" ry="4.3"/>
			<ellipse class="st25" cx="243.6" cy="262.2" rx="11.2" ry="4.2"/>
			<ellipse class="st25" cx="243.6" cy="262.2" rx="11.2" ry="4.2"/>
			<ellipse class="st25" cx="243.6" cy="262.2" rx="11.2" ry="4.2"/>
			<ellipse class="st25" cx="243.6" cy="262.3" rx="11.2" ry="4.2"/>
			<ellipse class="st25" cx="243.6" cy="262.4" rx="11.2" ry="4.2"/>
			<ellipse class="st25" cx="243.6" cy="262.4" rx="11.2" ry="4.2"/>
			<ellipse class="st25" cx="243.6" cy="262.5" rx="11.2" ry="4.2"/>
			<ellipse class="st25" cx="243.6" cy="262.6" rx="11.2" ry="4.2"/>
			<ellipse class="st25" cx="243.6" cy="262.6" rx="11.2" ry="4.2"/>
			<ellipse class="st25" cx="243.6" cy="262.7" rx="11.2" ry="4.2"/>
			<ellipse class="st25" cx="243.6" cy="262.8" rx="11.2" ry="4.2"/>
			<ellipse class="st25" cx="243.6" cy="262.9" rx="11.2" ry="4.2"/>
			<ellipse class="st25" cx="243.6" cy="262.9" rx="11.2" ry="4.2"/>
			<ellipse class="st25" cx="243.6" cy="263" rx="11.1" ry="4.2"/>
			<ellipse class="st25" cx="243.6" cy="263.1" rx="11.1" ry="4.2"/>
			<ellipse class="st25" cx="243.6" cy="263.1" rx="11.1" ry="4.2"/>
			<ellipse class="st25" cx="243.6" cy="263.2" rx="11.1" ry="4.2"/>
			<ellipse class="st25" cx="243.6" cy="263.3" rx="11.1" ry="4.2"/>
			<ellipse class="st25" cx="243.6" cy="263.3" rx="11.1" ry="4.1"/>
			<ellipse class="st25" cx="243.6" cy="263.3" rx="11.1" ry="4.1"/>
			<ellipse class="st25" cx="243.6" cy="263.4" rx="11.1" ry="4.1"/>
			<ellipse class="st25" cx="243.6" cy="263.5" rx="11.1" ry="4.1"/>
			<ellipse class="st25" cx="243.6" cy="263.6" rx="11.1" ry="4.1"/>
			<ellipse class="st25" cx="243.6" cy="263.6" rx="11" ry="4.1"/>
			<ellipse class="st25" cx="243.6" cy="263.7" rx="11" ry="4.1"/>
			<ellipse class="st25" cx="243.6" cy="263.8" rx="11" ry="4.1"/>
			<ellipse class="st25" cx="243.6" cy="263.8" rx="11" ry="4.1"/>
			<ellipse class="st25" cx="243.6" cy="263.9" rx="11" ry="4.1"/>
			<ellipse class="st25" cx="243.6" cy="264" rx="11" ry="4.1"/>
			<ellipse class="st25" cx="243.6" cy="264" rx="11" ry="4.1"/>
			<ellipse class="st25" cx="243.6" cy="264.1" rx="11" ry="4.1"/>
			<ellipse class="st25" cx="243.6" cy="264.2" rx="11" ry="4.1"/>
			<ellipse class="st25" cx="243.6" cy="264.3" rx="11" ry="4.1"/>
			<ellipse class="st25" cx="243.6" cy="264.3" rx="10.9" ry="4.1"/>
			<ellipse class="st25" cx="243.6" cy="264.3" rx="10.9" ry="4.1"/>
			<ellipse class="st25" cx="243.6" cy="264.4" rx="10.9" ry="4.1"/>
			<ellipse class="st25" cx="243.6" cy="264.5" rx="10.9" ry="4.1"/>
			<ellipse class="st25" cx="243.6" cy="264.5" rx="10.9" ry="4.1"/>
			<ellipse class="st25" cx="243.6" cy="264.6" rx="10.9" ry="4.1"/>
			<ellipse class="st25" cx="243.6" cy="264.7" rx="10.9" ry="4.1"/>
			<ellipse class="st25" cx="243.6" cy="264.7" rx="10.9" ry="4.1"/>
			<ellipse class="st25" cx="243.6" cy="264.8" rx="10.9" ry="4.1"/>
			<ellipse class="st25" cx="243.6" cy="264.9" rx="10.9" ry="4.1"/>
			<ellipse class="st25" cx="243.6" cy="265" rx="10.9" ry="4.1"/>
			<ellipse class="st25" cx="243.6" cy="265" rx="10.9" ry="4.1"/>
			<ellipse class="st25" cx="243.6" cy="265.1" rx="10.9" ry="4.1"/>
			<ellipse class="st25" cx="243.6" cy="265.2" rx="10.9" ry="4.1"/>
			<ellipse class="st25" cx="243.6" cy="265.2" rx="10.9" ry="4.1"/>
			<ellipse class="st25" cx="243.6" cy="265.3" rx="10.9" ry="4.1"/>
			<ellipse class="st25" cx="243.6" cy="265.4" rx="10.9" ry="4.1"/>
			<ellipse class="st25" cx="243.6" cy="265.5" rx="10.9" ry="4.1"/>
			<ellipse class="st25" cx="243.6" cy="265.5" rx="10.9" ry="4.1"/>
			<ellipse class="st25" cx="243.6" cy="265.5" rx="10.9" ry="4.1"/>
			<ellipse class="st25" cx="243.6" cy="265.6" rx="10.8" ry="4.1"/>
			<ellipse class="st25" cx="243.6" cy="265.7" rx="10.8" ry="4"/>
			<ellipse class="st25" cx="243.6" cy="265.7" rx="10.8" ry="4"/>
			<ellipse class="st25" cx="243.6" cy="265.8" rx="10.8" ry="4"/>
			<ellipse class="st25" cx="243.6" cy="265.9" rx="10.8" ry="4"/>
			<ellipse class="st25" cx="243.6" cy="265.9" rx="10.8" ry="4"/>
			<ellipse class="st25" cx="243.6" cy="266" rx="10.8" ry="4"/>
			<ellipse class="st25" cx="243.6" cy="266.1" rx="10.8" ry="4"/>
			<ellipse class="st25" cx="243.6" cy="266.2" rx="10.8" ry="4"/>
			<ellipse class="st25" cx="243.6" cy="266.2" rx="10.8" ry="4"/>
			<ellipse class="st25" cx="243.6" cy="266.3" rx="10.7" ry="4"/>
			<ellipse class="st25" cx="243.6" cy="266.4" rx="10.7" ry="4"/>
			<ellipse class="st25" cx="243.6" cy="266.4" rx="10.7" ry="4"/>
			<ellipse class="st25" cx="243.5" cy="266.5" rx="10.7" ry="4"/>
			<ellipse class="st25" cx="243.5" cy="266.5" rx="10.7" ry="4"/>
			<ellipse class="st25" cx="243.5" cy="266.6" rx="10.7" ry="4"/>
			<ellipse class="st25" cx="243.5" cy="266.6" rx="10.7" ry="4"/>
			<ellipse class="st25" cx="243.5" cy="266.7" rx="10.7" ry="4"/>
			<ellipse class="st25" cx="243.5" cy="266.8" rx="10.7" ry="4"/>
			<ellipse class="st25" cx="243.5" cy="266.9" rx="10.7" ry="4"/>
			<ellipse class="st25" cx="243.5" cy="266.9" rx="10.7" ry="3.9"/>
			<ellipse class="st25" cx="243.5" cy="267" rx="10.7" ry="3.9"/>
			<ellipse class="st25" cx="243.5" cy="267.1" rx="10.7" ry="3.9"/>
			<ellipse class="st25" cx="243.5" cy="267.1" rx="10.7" ry="3.9"/>
			<ellipse class="st25" cx="243.5" cy="267.2" rx="10.7" ry="3.9"/>
			<ellipse class="st25" cx="243.5" cy="267.3" rx="10.7" ry="3.9"/>
			<ellipse class="st25" cx="243.5" cy="267.3" rx="10.7" ry="3.9"/>
			<ellipse class="st25" cx="243.5" cy="267.4" rx="10.7" ry="3.9"/>
			<ellipse class="st25" cx="243.5" cy="267.5" rx="10.7" ry="3.9"/>
			<ellipse class="st25" cx="243.5" cy="267.6" rx="10.7" ry="3.9"/>
			<ellipse class="st25" cx="243.5" cy="267.6" rx="10.7" ry="3.9"/>
			<ellipse class="st25" cx="243.5" cy="267.6" rx="10.6" ry="3.9"/>
			<ellipse class="st25" cx="243.5" cy="267.7" rx="10.6" ry="3.9"/>
			<ellipse class="st25" cx="243.5" cy="267.8" rx="10.6" ry="3.9"/>
			<ellipse class="st25" cx="243.5" cy="267.8" rx="10.6" ry="3.9"/>
			<ellipse class="st25" cx="243.5" cy="267.9" rx="10.6" ry="3.9"/>
			<ellipse class="st25" cx="243.5" cy="268" rx="10.6" ry="3.9"/>
			<ellipse class="st25" cx="243.5" cy="268" rx="10.6" ry="3.9"/>
			<ellipse class="st25" cx="243.5" cy="268.1" rx="10.6" ry="3.9"/>
			<ellipse class="st25" cx="243.5" cy="268.2" rx="10.6" ry="3.9"/>
			<ellipse class="st25" cx="243.5" cy="268.3" rx="10.6" ry="3.9"/>
			<ellipse class="st25" cx="243.5" cy="268.3" rx="10.5" ry="3.9"/>
			<ellipse class="st25" cx="243.5" cy="268.4" rx="10.5" ry="3.9"/>
			<ellipse class="st25" cx="243.5" cy="268.5" rx="10.5" ry="3.9"/>
			<ellipse class="st25" cx="243.5" cy="268.5" rx="10.5" ry="3.9"/>
			<ellipse class="st25" cx="243.5" cy="268.6" rx="10.5" ry="3.9"/>
			<ellipse class="st25" cx="243.5" cy="268.7" rx="10.5" ry="3.9"/>
			<ellipse class="st25" cx="243.5" cy="268.7" rx="10.5" ry="3.9"/>
			<ellipse class="st25" cx="243.5" cy="268.7" rx="10.5" ry="3.9"/>
			<ellipse class="st25" cx="243.5" cy="268.8" rx="10.5" ry="3.9"/>
			<ellipse class="st25" cx="243.5" cy="268.9" rx="10.5" ry="3.9"/>
			<ellipse class="st25" cx="243.5" cy="269" rx="10.5" ry="3.9"/>
			<ellipse class="st25" cx="243.5" cy="269" rx="10.5" ry="3.9"/>
			<ellipse class="st25" cx="243.5" cy="269.1" rx="10.5" ry="3.9"/>
			<ellipse class="st25" cx="243.5" cy="269.2" rx="10.5" ry="3.9"/>
			<ellipse class="st25" cx="243.5" cy="269.2" rx="10.5" ry="3.9"/>
			<ellipse class="st25" cx="243.5" cy="269.3" rx="10.5" ry="3.8"/>
			<ellipse class="st25" cx="243.5" cy="269.4" rx="10.5" ry="3.8"/>
			<ellipse class="st25" cx="243.5" cy="269.4" rx="10.5" ry="3.8"/>
			<ellipse class="st25" cx="243.5" cy="269.5" rx="10.5" ry="3.8"/>
			<ellipse class="st25" cx="243.5" cy="269.6" rx="10.5" ry="3.8"/>
			<ellipse class="st25" cx="243.5" cy="269.7" rx="10.4" ry="3.8"/>
			<ellipse class="st25" cx="243.5" cy="269.7" rx="10.4" ry="3.8"/>
			<ellipse class="st25" cx="243.5" cy="269.8" rx="10.4" ry="3.8"/>
			<ellipse class="st25" cx="243.5" cy="269.8" rx="10.4" ry="3.8"/>
			<ellipse class="st25" cx="243.5" cy="269.9" rx="10.4" ry="3.8"/>
			<ellipse class="st25" cx="243.5" cy="269.9" rx="10.4" ry="3.8"/>
			<ellipse class="st25" cx="243.5" cy="270" rx="10.4" ry="3.8"/>
			<ellipse class="st25" cx="243.5" cy="270.1" rx="10.4" ry="3.8"/>
			<ellipse class="st25" cx="243.5" cy="270.2" rx="10.4" ry="3.8"/>
			<ellipse class="st25" cx="243.5" cy="270.2" rx="10.4" ry="3.8"/>
			<ellipse class="st25" cx="243.5" cy="270.3" rx="10.3" ry="3.8"/>
			<ellipse class="st25" cx="243.5" cy="270.4" rx="10.3" ry="3.8"/>
			<ellipse class="st25" cx="243.5" cy="270.4" rx="10.3" ry="3.8"/>
			<ellipse class="st25" cx="243.5" cy="270.5" rx="10.3" ry="3.7"/>
			<ellipse class="st25" cx="243.5" cy="270.6" rx="10.3" ry="3.7"/>
			<ellipse class="st25" cx="243.5" cy="270.6" rx="10.3" ry="3.7"/>
			<ellipse class="st25" cx="243.5" cy="270.7" rx="10.3" ry="3.7"/>
			<ellipse class="st25" cx="243.5" cy="270.8" rx="10.3" ry="3.7"/>
			<ellipse class="st25" cx="243.5" cy="270.9" rx="10.3" ry="3.7"/>
			<ellipse class="st25" cx="243.5" cy="270.9" rx="10.3" ry="3.7"/>
			<ellipse class="st25" cx="243.5" cy="270.9" rx="10.2" ry="3.7"/>
			<ellipse class="st25" cx="243.5" cy="271" rx="10.2" ry="3.7"/>
			<ellipse class="st25" cx="243.5" cy="271.1" rx="10.2" ry="3.7"/>
			<ellipse class="st25" cx="243.5" cy="271.1" rx="10.2" ry="3.7"/>
			<ellipse class="st25" cx="243.5" cy="271.2" rx="10.2" ry="3.7"/>
			<ellipse class="st25" cx="243.5" cy="271.3" rx="10.2" ry="3.7"/>
			<ellipse class="st25" cx="243.5" cy="271.3" rx="10.2" ry="3.7"/>
			<ellipse class="st25" cx="243.5" cy="271.4" rx="10.2" ry="3.7"/>
			<ellipse class="st25" cx="243.5" cy="271.5" rx="10.2" ry="3.7"/>
			<ellipse class="st25" cx="243.5" cy="271.6" rx="10.2" ry="3.7"/>
			<ellipse class="st25" cx="243.5" cy="271.6" rx="10.2" ry="3.7"/>
			<ellipse class="st25" cx="243.5" cy="271.7" rx="10.2" ry="3.7"/>
			<ellipse class="st25" cx="243.5" cy="271.8" rx="10.2" ry="3.6"/>
			<ellipse class="st25" cx="243.5" cy="271.8" rx="10.2" ry="3.6"/>
			<ellipse class="st25" cx="243.5" cy="271.9" rx="10.2" ry="3.6"/>
			<ellipse class="st25" cx="243.5" cy="272" rx="10.2" ry="3.6"/>
			<ellipse class="st25" cx="243.5" cy="272" rx="10.2" ry="3.6"/>
			<ellipse class="st25" cx="243.5" cy="272" rx="10.2" ry="3.6"/>
			<ellipse class="st25" cx="243.5" cy="272.1" rx="10.2" ry="3.6"/>
			<ellipse class="st25" cx="243.5" cy="272.2" rx="10.2" ry="3.6"/>
			<ellipse class="st25" cx="243.5" cy="272.3" rx="10.1" ry="3.6"/>
			<ellipse class="st25" cx="243.5" cy="272.3" rx="10.1" ry="3.6"/>
			<ellipse class="st25" cx="243.5" cy="272.4" rx="10.1" ry="3.6"/>
			<ellipse class="st25" cx="243.5" cy="272.5" rx="10.1" ry="3.6"/>
			<ellipse class="st25" cx="243.5" cy="272.5" rx="10.1" ry="3.6"/>
			<ellipse class="st25" cx="243.5" cy="272.6" rx="10.1" ry="3.6"/>
			<ellipse class="st25" cx="243.5" cy="272.7" rx="10.1" ry="3.6"/>
			<ellipse class="st25" cx="243.5" cy="272.7" rx="10.1" ry="3.6"/>
			<ellipse class="st25" cx="243.5" cy="272.8" rx="10.1" ry="3.6"/>
			<ellipse class="st25" cx="243.5" cy="272.9" rx="10.1" ry="3.6"/>
			<ellipse class="st25" cx="243.5" cy="273" rx="10" ry="3.6"/>
			<ellipse class="st25" cx="243.5" cy="273" rx="10" ry="3.6"/>
			<ellipse class="st25" cx="243.5" cy="273.1" rx="10" ry="3.6"/>
			<ellipse class="st25" cx="243.5" cy="273.1" rx="10" ry="3.6"/>
			<ellipse class="st25" cx="243.5" cy="273.2" rx="10" ry="3.6"/>
			<ellipse class="st25" cx="243.5" cy="273.2" rx="10" ry="3.6"/>
			<ellipse class="st25" cx="243.5" cy="273.3" rx="10" ry="3.6"/>
			<ellipse class="st25" cx="243.5" cy="273.4" rx="10" ry="3.6"/>
			<ellipse class="st25" cx="243.5" cy="273.4" rx="10" ry="3.6"/>
			<ellipse class="st25" cx="243.5" cy="273.5" rx="10" ry="3.6"/>
			<ellipse class="st25" cx="243.5" cy="273.6" rx="10" ry="3.6"/>
			<ellipse class="st25" cx="243.5" cy="273.7" rx="10" ry="3.6"/>
			<ellipse class="st25" cx="243.5" cy="273.7" rx="10" ry="3.6"/>
			<ellipse class="st25" cx="243.5" cy="273.8" rx="10" ry="3.6"/>
			<ellipse class="st25" cx="243.5" cy="273.9" rx="10" ry="3.6"/>
			<ellipse class="st25" cx="243.5" cy="273.9" rx="10" ry="3.6"/>
			<ellipse class="st25" cx="243.5" cy="274" rx="10" ry="3.6"/>
			<ellipse class="st25" cx="243.5" cy="274.1" rx="10" ry="3.6"/>
			<ellipse class="st25" cx="243.5" cy="274.1" rx="10" ry="3.5"/>
			<ellipse class="st25" cx="243.5" cy="274.1" rx="10" ry="3.5"/>
			<ellipse class="st25" cx="243.5" cy="274.2" rx="9.9" ry="3.5"/>
			<ellipse class="st25" cx="243.5" cy="274.3" rx="9.9" ry="3.5"/>
			<ellipse class="st25" cx="243.5" cy="274.4" rx="9.9" ry="3.5"/>
			<ellipse class="st25" cx="243.5" cy="274.4" rx="9.9" ry="3.5"/>
			<ellipse class="st25" cx="243.5" cy="274.5" rx="9.9" ry="3.5"/>
			<ellipse class="st25" cx="243.5" cy="274.6" rx="9.9" ry="3.5"/>
			<ellipse class="st25" cx="243.5" cy="274.6" rx="9.9" ry="3.5"/>
			<ellipse class="st25" cx="243.5" cy="274.7" rx="9.9" ry="3.5"/>
			<ellipse class="st25" cx="243.5" cy="274.8" rx="9.9" ry="3.5"/>
			<ellipse class="st25" cx="243.5" cy="274.9" rx="9.9" ry="3.5"/>
			<ellipse class="st25" cx="243.5" cy="274.9" rx="9.8" ry="3.5"/>
			<ellipse class="st25" cx="243.5" cy="275" rx="9.8" ry="3.5"/>
			<ellipse class="st25" cx="243.5" cy="275.1" rx="9.8" ry="3.5"/>
			<ellipse class="st25" cx="243.5" cy="275.1" rx="9.8" ry="3.5"/>
			<ellipse class="st25" cx="243.5" cy="275.2" rx="9.8" ry="3.5"/>
			<ellipse class="st25" cx="243.5" cy="275.3" rx="9.8" ry="3.5"/>
			<ellipse class="st25" cx="243.5" cy="275.3" rx="9.8" ry="3.4"/>
			<ellipse class="st25" cx="243.5" cy="275.3" rx="9.8" ry="3.4"/>
			<ellipse class="st25" cx="243.5" cy="275.4" rx="9.8" ry="3.4"/>
			<ellipse class="st25" cx="243.5" cy="275.5" rx="9.8" ry="3.4"/>
			<ellipse class="st25" cx="243.5" cy="275.6" rx="9.8" ry="3.4"/>
			<ellipse class="st25" cx="243.5" cy="275.6" rx="9.8" ry="3.4"/>
			<ellipse class="st25" cx="243.5" cy="275.7" rx="9.8" ry="3.4"/>
			<ellipse class="st25" cx="243.5" cy="275.8" rx="9.8" ry="3.4"/>
			<ellipse class="st25" cx="243.5" cy="275.8" rx="9.8" ry="3.4"/>
			<ellipse class="st25" cx="243.5" cy="275.9" rx="9.8" ry="3.4"/>
			<ellipse class="st25" cx="243.5" cy="276" rx="9.8" ry="3.4"/>
			<ellipse class="st25" cx="243.5" cy="276" rx="9.8" ry="3.4"/>
			<ellipse class="st25" cx="243.5" cy="276.1" rx="9.8" ry="3.4"/>
			<ellipse class="st25" cx="243.5" cy="276.2" rx="9.8" ry="3.4"/>
			<ellipse class="st25" cx="243.5" cy="276.3" rx="9.7" ry="3.4"/>
			<ellipse class="st25" cx="243.5" cy="276.3" rx="9.7" ry="3.4"/>
			<ellipse class="st25" cx="243.5" cy="276.3" rx="9.7" ry="3.4"/>
			<ellipse class="st25" cx="243.5" cy="276.4" rx="9.7" ry="3.4"/>
			<ellipse class="st25" cx="243.5" cy="276.5" rx="9.7" ry="3.4"/>
			<ellipse class="st25" cx="243.5" cy="276.5" rx="9.7" ry="3.4"/>
			<ellipse class="st25" cx="243.5" cy="276.6" rx="9.7" ry="3.4"/>
			<ellipse class="st25" cx="243.5" cy="276.7" rx="9.7" ry="3.4"/>
			<ellipse class="st25" cx="243.5" cy="276.7" rx="9.7" ry="3.4"/>
			<ellipse class="st25" cx="243.5" cy="276.8" rx="9.7" ry="3.4"/>
			<ellipse class="st25" cx="243.5" cy="276.9" rx="9.6" ry="3.4"/>
			<ellipse class="st25" cx="243.5" cy="277" rx="9.6" ry="3.4"/>
			<ellipse class="st25" cx="243.5" cy="277" rx="9.6" ry="3.4"/>
			<ellipse class="st25" cx="243.5" cy="277.1" rx="9.6" ry="3.4"/>
			<ellipse class="st25" cx="243.5" cy="277.2" rx="9.6" ry="3.4"/>
			<ellipse class="st25" cx="243.5" cy="277.2" rx="9.6" ry="3.4"/>
			<ellipse class="st25" cx="243.5" cy="277.3" rx="9.6" ry="3.4"/>
			<ellipse class="st25" cx="243.5" cy="277.4" rx="9.6" ry="3.4"/>
			<ellipse class="st25" cx="243.5" cy="277.4" rx="9.6" ry="3.4"/>
			<ellipse class="st25" cx="243.5" cy="277.4" rx="9.6" ry="3.4"/>
			<ellipse class="st25" cx="243.5" cy="277.5" rx="9.5" ry="3.4"/>
			<ellipse class="st25" cx="243.5" cy="277.6" rx="9.5" ry="3.4"/>
			<ellipse class="st25" cx="243.5" cy="277.7" rx="9.5" ry="3.4"/>
			<ellipse class="st25" cx="243.5" cy="277.7" rx="9.5" ry="3.3"/>
			<ellipse class="st25" cx="243.5" cy="277.8" rx="9.5" ry="3.3"/>
			<ellipse class="st25" cx="243.5" cy="277.9" rx="9.5" ry="3.3"/>
			<ellipse class="st25" cx="243.5" cy="277.9" rx="9.5" ry="3.3"/>
			<ellipse class="st25" cx="243.5" cy="278" rx="9.5" ry="3.3"/>
			<ellipse class="st25" cx="243.5" cy="278.1" rx="9.5" ry="3.3"/>
			<ellipse class="st25" cx="243.5" cy="278.1" rx="9.5" ry="3.3"/>
			<ellipse class="st25" cx="243.5" cy="278.2" rx="9.5" ry="3.3"/>
			<ellipse class="st25" cx="243.5" cy="278.3" rx="9.5" ry="3.3"/>
			<ellipse class="st25" cx="243.5" cy="278.4" rx="9.5" ry="3.3"/>
			<ellipse class="st25" cx="243.5" cy="278.4" rx="9.5" ry="3.3"/>
			<ellipse class="st25" cx="243.5" cy="278.5" rx="9.5" ry="3.3"/>
			<ellipse class="st25" cx="243.5" cy="278.5" rx="9.5" ry="3.3"/>
			<ellipse class="st25" cx="243.5" cy="278.6" rx="9.5" ry="3.3"/>
			<ellipse class="st25" cx="243.5" cy="278.6" rx="9.5" ry="3.3"/>
			<ellipse class="st25" cx="243.5" cy="278.7" rx="9.5" ry="3.3"/>
			<ellipse class="st25" cx="243.5" cy="278.8" rx="9.5" ry="3.3"/>
			<ellipse class="st25" cx="243.5" cy="278.8" rx="9.5" ry="3.3"/>
		</g>
		<ellipse class="st26" cx="243.6" cy="253.9" rx="12.1" ry="4.7"/>
		<path class="st27" d="M254.2,253.5c0,0.4-0.2,0.8-0.6,1.1c-1.4,1.3-5.4,2.4-10,2.4s-8.6-1-10-2.4c-0.4-0.4-0.6-0.7-0.6-1.1
			c0-1.9,4.8-3.5,10.6-3.5C249.4,250.1,254.2,251.6,254.2,253.5z"/>
		<path class="st28" d="M253.6,254.6c-1.4,1.3-5.4,2.4-10,2.4s-8.6-1-10-2.4c1.4-1.4,5.4-2.4,10-2.4
			C248.2,252.3,252.2,253.3,253.6,254.6z"/>
		<g>
			<path class="st25" d="M251.7,275.4l-1.3-4c2-0.7,4.1-1.4,5.8-2.5c1-0.6,2.7-2,3.2-4.1c0.4-1.5-0.2-3.1-1.3-3.8
				c-1.1-0.7-2.7-0.4-3.6-0.2l-1.1-4.1c2.7-0.7,5-0.4,6.9,0.7c2.6,1.6,3.9,5.1,3.2,8.3c-0.6,2.5-2.4,4.9-5.1,6.6
				C256.3,273.9,254,274.6,251.7,275.4z"/>
		</g>
		<path class="st29" d="M236,231.9c2,0.9,2.8,3.5,1.9,5.5c-0.4,0.8-1.1,1.4-1.5,2.2c-1.1,1.9-0.8,4.3,0.2,6.2s2.5,3.4,4.1,5"/>
		<path class="st29" d="M245,232.3c1.9,1.1,2.3,3.7,1.7,5.8s-1.9,3.9-2.7,6c-0.8,2-0.8,4.6,0.7,6.2"/>
		<path class="st29" d="M251.1,240.4c-1,0.8-1.4,2.1-1.3,3.3c0,1.3,0.4,2.5,0.6,3.6c0.3,1.2,0.4,2.5-0.1,3.6"/>
	</g>
</g>
<g id="Camada_2_1_">
</g>
</svg>
