<?xml version="1.0" encoding="utf-8"?>
<!-- Generator: Adobe Illustrator 24.3.0, SVG Export Plug-In . SVG Version: 6.00 Build 0)  -->
<svg version="1.1" id="Camada_1" xmlns="http://www.w3.org/2000/svg" xmlns:xlink="http://www.w3.org/1999/xlink" x="0px" y="0px"
	 viewBox="0 0 400.4 142.7" style="enable-background:new 0 0 400.4 142.7;" xml:space="preserve">
<style type="text/css">
	.st0{fill:none;stroke:url(#SVGID_1_);stroke-width:2;stroke-miterlimit:10;}
	.st1{fill:none;stroke:url(#SVGID_2_);stroke-width:2;stroke-miterlimit:10;stroke-dasharray:9.8994,9.8994;}
	.st2{fill:none;stroke:url(#SVGID_3_);stroke-width:2;stroke-miterlimit:10;}
	.st3{fill:#D634E9;}
</style>
<g>
	<g>
		<linearGradient id="SVGID_1_" gradientUnits="userSpaceOnUse" x1="-1.017853e-05" y1="88.2156" x2="391.4691" y2="88.2156">
			<stop  offset="0" style="stop-color:#38B8E9"/>
			<stop  offset="1" style="stop-color:#D634E9"/>
		</linearGradient>
		<path class="st0" d="M0.6,86.7c1.3,1,2.6,2,4,2.9"/>
		<linearGradient id="SVGID_2_" gradientUnits="userSpaceOnUse" x1="-5.210127e-06" y1="59.4055" x2="391.4691" y2="59.4055">
			<stop  offset="0" style="stop-color:#38B8E9"/>
			<stop  offset="1" style="stop-color:#D634E9"/>
		</linearGradient>
		<path class="st1" d="M12.8,95.2c19.5,12.5,45.6,23.9,74.4,20.4c70.4-8.6,81.9-97.5,158.3-112.5c42.1-8.2,95.2,7.7,123.8,47.1
			c17,23.5,21,49.5,21.2,68.6"/>
		<linearGradient id="SVGID_3_" gradientUnits="userSpaceOnUse" x1="-5.210127e-06" y1="126.2729" x2="391.4691" y2="126.2729">
			<stop  offset="0" style="stop-color:#38B8E9"/>
			<stop  offset="1" style="stop-color:#D634E9"/>
		</linearGradient>
		<path class="st2" d="M390.4,123.8c0,1.7-0.1,3.4-0.2,5"/>
	</g>
</g>
<g>
	<polygon class="st3" points="400.4,123.9 390.2,141 389.3,142.7 388.5,140.9 380.5,122.7 390.3,140.1 388.6,139.9 	"/>
</g>
</svg>
