<?xml version="1.0" encoding="utf-8"?>
<!-- Generator: Adobe Illustrator 24.3.0, SVG Export Plug-In . SVG Version: 6.00 Build 0)  -->
<svg version="1.1" id="Camada_1" xmlns="http://www.w3.org/2000/svg" xmlns:xlink="http://www.w3.org/1999/xlink" x="0px" y="0px"
	 viewBox="0 0 281 268.7" style="enable-background:new 0 0 281 268.7;" xml:space="preserve">
<style type="text/css">
	.st0{fill:none;stroke:url(#SVGID_1_);stroke-width:2;stroke-miterlimit:10;}
	.st1{fill:none;stroke:url(#SVGID_2_);stroke-width:2;stroke-miterlimit:10;stroke-dasharray:12.054,12.054;}
	.st2{fill:none;stroke:url(#SVGID_3_);stroke-width:2;stroke-miterlimit:10;}
	.st3{fill:#4E75F2;}
</style>
<g>
	<g>
		<linearGradient id="SVGID_1_" gradientUnits="userSpaceOnUse" x1="281.021" y1="3.1157" x2="1.153925e-05" y2="3.1157">
			<stop  offset="0" style="stop-color:#D634E9"/>
			<stop  offset="1" style="stop-color:#3894E9"/>
		</linearGradient>
		<path class="st0" d="M281,3.3c-1.7-0.1-3.7-0.2-6-0.3"/>
		<linearGradient id="SVGID_2_" gradientUnits="userSpaceOnUse" x1="281.021" y1="120.9808" x2="-2.453817e-09" y2="120.9808">
			<stop  offset="0" style="stop-color:#D634E9"/>
			<stop  offset="1" style="stop-color:#3894E9"/>
		</linearGradient>
		<path class="st1" d="M262.9,2.4C197.1-0.6,19.8-3.8,3.4,50.5C-3.7,73.9,7,89.3,7,89.3c16.2,23.4,55.5,9.2,76.4,36.4
			c1.9,2.5,12.6,16.4,8.5,29.1c-6.2,19.1-40,17.6-42.4,32.7c-1.6,10.1,12.9,14.4,19.4,33.9c2.3,7,1.5,14.2,0.8,20.4"/>
		<linearGradient id="SVGID_3_" gradientUnits="userSpaceOnUse" x1="281.021" y1="250.9861" x2="-8.289135e-09" y2="250.9861">
			<stop  offset="0" style="stop-color:#D634E9"/>
			<stop  offset="1" style="stop-color:#3894E9"/>
		</linearGradient>
		<path class="st2" d="M69.2,247.9c-0.1,2.2,0.1,4.2,0.7,5.9"/>
	</g>
</g>
<g>
	<polygon class="st3" points="59.9,250.7 72.8,265.9 71.1,266.2 79.6,248.2 72.9,266.9 72.3,268.7 71.2,267.2 	"/>
</g>
</svg>
