<?xml version="1.0" encoding="utf-8"?>
<!-- Generator: Adobe Illustrator 24.3.0, SVG Export Plug-In . SVG Version: 6.00 Build 0)  -->
<svg version="1.1" id="Camada_1" xmlns="http://www.w3.org/2000/svg" xmlns:xlink="http://www.w3.org/1999/xlink" x="0px" y="0px"
	 viewBox="0 0 401.8 162.2" style="enable-background:new 0 0 401.8 162.2;" xml:space="preserve">
<style type="text/css">
	.st0{fill:none;stroke:url(#SVGID_1_);stroke-width:2;stroke-miterlimit:10;}
	.st1{fill:none;stroke:url(#SVGID_2_);stroke-width:2;stroke-miterlimit:10;stroke-dasharray:11.7378,11.7378;}
	.st2{fill:none;stroke:url(#SVGID_3_);stroke-width:2;stroke-miterlimit:10;}
	.st3{fill:#4E75F2;}
</style>
<g>
	<g>
		<linearGradient id="SVGID_1_" gradientUnits="userSpaceOnUse" x1="401.8465" y1="50.3821" x2="7.2992" y2="50.3821">
			<stop  offset="0" style="stop-color:#D634E9"/>
			<stop  offset="1" style="stop-color:#4E75F2"/>
		</linearGradient>
		<path class="st0" d="M401.3,48.7c-1.6,1.1-3.2,2.3-4.9,3.4"/>
		<linearGradient id="SVGID_2_" gradientUnits="userSpaceOnUse" x1="401.8465" y1="67.0675" x2="7.2992" y2="67.0675">
			<stop  offset="0" style="stop-color:#D634E9"/>
			<stop  offset="1" style="stop-color:#4E75F2"/>
		</linearGradient>
		<path class="st1" d="M386.5,58.5c-26.2,16.1-61.3,30.9-98.3,23.6c-58.7-11.6-68.5-68.2-130.3-79.3c-45.3-8.1-97.1,12-123.8,47.1
			C10.8,80.6,7.9,115,8.3,134.1"/>
		<linearGradient id="SVGID_3_" gradientUnits="userSpaceOnUse" x1="401.8465" y1="142.9891" x2="7.2992" y2="142.9891">
			<stop  offset="0" style="stop-color:#D634E9"/>
			<stop  offset="1" style="stop-color:#4E75F2"/>
		</linearGradient>
		<path class="st2" d="M8.6,140c0.2,2.5,0.4,4.5,0.5,6"/>
	</g>
</g>
<g>
	<polygon class="st3" points="0,143.4 11.8,159.5 10.1,159.6 19.9,142.2 11.9,160.5 11.1,162.2 10.2,160.6 	"/>
</g>
</svg>
