<?xml version="1.0" encoding="utf-8"?>
<!-- Generator: Adobe Illustrator 24.3.0, SVG Export Plug-In . SVG Version: 6.00 Build 0)  -->
<svg version="1.1" id="Camada_1" xmlns="http://www.w3.org/2000/svg" xmlns:xlink="http://www.w3.org/1999/xlink" x="0px" y="0px"
	 viewBox="0 0 305.4 160.4" style="enable-background:new 0 0 305.4 160.4;" xml:space="preserve">
<style type="text/css">
	.st0{fill:none;stroke:url(#SVGID_1_);stroke-width:2;stroke-miterlimit:10;}
	.st1{fill:none;stroke:url(#SVGID_2_);stroke-width:2;stroke-miterlimit:10;stroke-dasharray:12.0686,12.0686;}
	.st2{fill:none;stroke:url(#SVGID_3_);stroke-width:2;stroke-miterlimit:10;}
	.st3{fill:#D634E9;}
</style>
<g>
	<g>
		<linearGradient id="SVGID_1_" gradientUnits="userSpaceOnUse" x1="0" y1="3.8985" x2="291.0504" y2="3.8985">
			<stop  offset="0" style="stop-color:#3894E9"/>
			<stop  offset="1" style="stop-color:#D634E9"/>
		</linearGradient>
		<path class="st0" d="M0.2,4.4c1.9-0.4,3.9-0.7,5.9-1"/>
		<linearGradient id="SVGID_2_" gradientUnits="userSpaceOnUse" x1="8.352044e-06" y1="80.1898" x2="291.0504" y2="80.1898">
			<stop  offset="0" style="stop-color:#3894E9"/>
			<stop  offset="1" style="stop-color:#D634E9"/>
		</linearGradient>
		<path class="st1" d="M18.1,1.8c23.7-2.4,49.6-0.1,68.1,15.9c34.6,29.8,13.4,81.6,41.7,115.2c18.3,21.7,58.4,37.2,151.2,17.5"/>
		<linearGradient id="SVGID_3_" gradientUnits="userSpaceOnUse" x1="8.352044e-06" y1="148.3679" x2="291.0504" y2="148.3679">
			<stop  offset="0" style="stop-color:#3894E9"/>
			<stop  offset="1" style="stop-color:#D634E9"/>
		</linearGradient>
		<path class="st2" d="M285,149c1.9-0.4,3.9-0.9,5.9-1.3"/>
	</g>
</g>
<g>
	<polygon class="st3" points="283.8,140.4 303.5,143.4 305.4,143.6 304.1,145 290.2,159.3 302.6,143.7 303.1,145.3 	"/>
</g>
</svg>
